<svg version="1.1" viewBox="0.0 0.0 960.0 460.7244094488189" fill="none" stroke="none" stroke-linecap="square" stroke-miterlimit="10" xmlns:xlink="http://www.w3.org/1999/xlink" xmlns="http://www.w3.org/2000/svg"><clipPath id="p.0"><path d="m0 0l960.0 0l0 460.7244l-960.0 0l0 -460.7244z" clip-rule="nonzero"/></clipPath><g clip-path="url(#p.0)"><path fill="#000000" fill-opacity="0.0" d="m0 0l960.0 0l0 460.7244l-960.0 0z" fill-rule="evenodd"/><path fill="#000000" fill-opacity="0.0" d="m70.121 232.0587l369.00787 0l0 58.803146l-369.00787 0z" fill-rule="evenodd"/><path stroke="#ffffff" stroke-width="1.0" stroke-linejoin="round" stroke-linecap="butt" d="m70.121 232.0587l369.00787 0l0 58.803146l-369.00787 0z" fill-rule="evenodd"/><path fill="#ffffff" d="m234.95172 248.51027q1.578125 0 2.640625 0.828125q1.0625 0.8125 1.28125 2.265625l-1.265625 0q-0.21875 -0.96875 -0.921875 -1.484375q-0.703125 -0.53125 -1.75 -0.53125q-1.515625 0 -2.375 1.0625q-0.84375 1.0625 -0.84375 2.78125q0 1.828125 0.828125 2.9062653q0.84375 1.078125 2.40625 1.078125q1.15625 0 1.90625 -0.734375q0.75 -0.73439026 0.84375 -2.0000153l1.265625 0q-0.203125 1.8437653 -1.28125 2.8281403q-1.078125 0.984375 -2.84375 0.984375q-2.046875 0 -3.21875 -1.359375q-1.171875 -1.3593903 -1.171875 -3.6093903q0 -2.21875 1.203125 -3.609375q1.21875 -1.40625 3.296875 -1.40625zm8.375153 2.703125q1.5625 0 2.453125 1.015625q0.890625 1.0 0.890625 2.59375q0 1.6093903 -0.921875 2.6093903q-0.90625 0.984375 -2.421875 0.984375q-1.5 0 -2.421875 -0.96875q-0.921875 -0.984375 -0.921875 -2.6250153q0 -1.640625 0.90625 -2.625q0.90625 -0.984375 2.4375 -0.984375zm-2.15625 3.609375q0 1.1875153 0.609375 1.8906403q0.609375 0.703125 1.546875 0.703125q0.921875 0 1.53125 -0.703125q0.609375 -0.71876526 0.609375 -1.8906403q0 -1.171875 -0.609375 -1.890625q-0.59375 -0.71875 -1.546875 -0.71875q-0.90625 0 -1.53125 0.703125q-0.609375 0.703125 -0.609375 1.90625zm10.153259 -3.609375q0.75 0 1.234375 0.3125q0.484375 0.296875 0.65625 0.859375q0.359375 -0.5625 0.921875 -0.859375q0.5625 -0.3125 1.25 -0.3125q1.15625 0 1.71875 0.53125q0.5625 0.515625 0.5625 1.421875l0 5.0937653l-1.125 0l0 -4.5625153q0 -0.75 -0.328125 -1.109375q-0.3125 -0.375 -1.015625 -0.375q-0.84375 0 -1.328125 0.5q-0.46875 0.484375 -0.46875 1.21875l0 4.3281403l-1.140625 0l0 -4.5625153q0 -0.75 -0.3125 -1.109375q-0.3125 -0.375 -0.96875 -0.375q-0.546875 0 -0.96875 0.265625q-0.40625 0.25 -0.640625 0.703125q-0.234375 0.453125 -0.234375 0.765625l0 4.3125153l-1.125 0l0 -6.8906403l1.0625 0l0 1.015625l0.03125 0q0.390625 -0.59375 0.9375 -0.875q0.546875 -0.296875 1.28125 -0.296875zm11.369263 0q0.75 0 1.234375 0.3125q0.484375 0.296875 0.65625 0.859375q0.359375 -0.5625 0.921875 -0.859375q0.5625 -0.3125 1.25 -0.3125q1.15625 0 1.71875 0.53125q0.5625 0.515625 0.5625 1.421875l0 5.0937653l-1.125 0l0 -4.5625153q0 -0.75 -0.328125 -1.109375q-0.3125 -0.375 -1.015625 -0.375q-0.84375 0 -1.328125 0.5q-0.46875 0.484375 -0.46875 1.21875l0 4.3281403l-1.140625 0l0 -4.5625153q0 -0.75 -0.3125 -1.109375q-0.3125 -0.375 -0.96875 -0.375q-0.546875 0 -0.96875 0.265625q-0.40625 0.25 -0.640625 0.703125q-0.234375 0.453125 -0.234375 0.765625l0 4.3125153l-1.125 0l0 -6.8906403l1.0625 0l0 1.015625l0.03125 0q0.390625 -0.59375 0.9375 -0.875q0.546875 -0.296875 1.28125 -0.296875zm9.244263 -2.46875l0 1.390625l-1.125 0l0 -1.390625l1.125 0zm0 2.625l0 6.8906403l-1.125 0l0 -6.8906403l1.125 0zm3.33609 -2.0625l0 2.0625l1.375 0l0 1.0l-1.375 0l0 4.3125153q0 0.515625 0.34375 0.546875q0.34375 0.03125 0.71875 0.03125l0.3125 0l0 1.0l-0.9375 0q-0.921875 0 -1.25 -0.328125q-0.3125 -0.328125 -0.3125 -1.109375l0 -4.4531403l-1.1875 0l0 -1.0l1.1875 0l0 -2.0625l1.125 0z" fill-rule="nonzero"/><path fill="#ffffff" d="m279.54922 256.93216l-0.234375 1.03125l-1.265625 0l0.234375 -1.03125l1.265625 0zm-0.375 1.734375l-0.96875 4.59375l-1.265625 0l0.96875 -4.59375l1.265625 0z" fill-rule="nonzero"/><path fill="#ffffff" d="m247.44293 264.80716q1.640625 0 2.4375 1.125q0.796875 1.125 0.796875 3.40625q0 2.609375 -0.828125 3.84375q-0.8125 1.234375 -2.453125 1.234375q-1.21875 0 -1.984375 -0.609375q-0.75 -0.625 -0.875 -1.828125l1.125 0q0.09375 0.6875 0.5625 1.0625q0.484375 0.375 1.171875 0.375q1.046875 0 1.5625 -0.890625q0.515625 -0.90625 0.578125 -2.75l-0.03125 -0.03125q-0.328125 0.609375 -0.90625 0.953125q-0.578125 0.34375 -1.296875 0.34375q-1.375 0 -2.171875 -0.84375q-0.796875 -0.84375 -0.796875 -2.3125q0 -1.34375 0.875 -2.203125q0.875 -0.875 2.234375 -0.875zm-1.90625 3.234375q0 0.8125 0.546875 1.421875q0.546875 0.59375 1.3125 0.59375q0.84375 0 1.390625 -0.609375q0.546875 -0.609375 0.546875 -1.484375q0 -0.90625 -0.53125 -1.53125q-0.515625 -0.625 -1.421875 -0.625q-0.875 0 -1.359375 0.609375q-0.484375 0.59375 -0.484375 1.625zm9.459351 -3.234375q0.796875 0 1.375 0.265625q0.578125 0.25 0.984375 0.78125q0.796875 1.015625 0.796875 3.765625q0 1.375 -0.203125 2.3125q-0.1875 0.921875 -0.59375 1.453125q-0.390625 0.5 -0.984375 0.765625q-0.578125 0.265625 -1.375 0.265625q-1.578125 0 -2.359375 -1.046875q-0.78125 -1.0625 -0.78125 -3.75q0 -2.71875 0.78125 -3.75q0.796875 -1.0625 2.359375 -1.0625zm-1.953125 4.796875q0 1.140625 0.125 1.890625q0.140625 0.734375 0.375 1.140625q0.5 0.78125 1.453125 0.78125q1.046875 0 1.515625 -0.90625q0.21875 -0.453125 0.328125 -1.15625q0.109375 -0.71875 0.109375 -1.703125q0 -0.34375 -0.015625 -0.75q0 -0.40625 -0.0625 -0.828125q-0.046875 -0.421875 -0.171875 -0.828125q-0.109375 -0.40625 -0.3125 -0.71875q-0.21875 -0.3125 -0.5625 -0.515625q-0.328125 -0.203125 -0.84375 -0.203125q-0.453125 0 -0.8125 0.203125q-0.34375 0.1875 -0.609375 0.578125q-0.515625 0.765625 -0.515625 3.015625zm8.803101 -2.390625q1.390625 0 2.0625 0.546875q0.6875 0.53125 0.75 1.609375l-1.125 0l0 -0.015625q-0.046875 -0.546875 -0.484375 -0.84375q-0.4375 -0.296875 -1.109375 -0.296875q-0.6875 0 -1.09375 0.234375q-0.390625 0.21875 -0.390625 0.640625q0 0.375 0.34375 0.625q0.359375 0.234375 1.0625 0.375l1.0625 0.25q1.0 0.21875 1.515625 0.6875q0.53125 0.453125 0.53125 1.21875q0 1.015625 -0.796875 1.59375q-0.78125 0.578125 -2.140625 0.578125q-1.3125 0 -2.09375 -0.578125q-0.765625 -0.59375 -0.828125 -1.75l1.140625 0q0.015625 0.640625 0.5 0.984375q0.5 0.34375 1.34375 0.34375q0.828125 0 1.25 -0.25q0.421875 -0.265625 0.421875 -0.78125q0 -0.453125 -0.421875 -0.71875q-0.421875 -0.28125 -1.71875 -0.53125q-1.296875 -0.265625 -1.828125 -0.71875q-0.53125 -0.46875 -0.53125 -1.25q0 -0.90625 0.734375 -1.421875q0.734375 -0.53125 1.84375 -0.53125z" fill-rule="nonzero"/><path fill="#000000" fill-opacity="0.0" d="m439.13254 232.0587l198.74014 0l0 58.803146l-198.74014 0z" fill-rule="evenodd"/><path stroke="#ffffff" stroke-width="1.0" stroke-linejoin="round" stroke-linecap="butt" d="m439.13254 232.0587l198.74014 0l0 58.803146l-198.74014 0z" fill-rule="evenodd"/><path fill="#ffffff" d="m522.80133 248.74464q1.234375 0 2.03125 0.65625q0.796875 0.65625 0.796875 1.84375q0 0.9375 -0.40625 1.5625q-0.40625 0.609375 -1.25 0.84375l0 0.015625q0.734375 0.15625 1.0625 0.6875q0.34375 0.515625 0.40625 1.8125153q0.03125 0.828125 0.15625 1.3125q0.125 0.46875 0.359375 0.78125l-1.40625 0q-0.125 -0.15625 -0.15625 -0.3125q-0.03125 -0.15625 -0.0625 -0.421875l-0.0625 -1.046875q-0.015625 -0.73439026 -0.3125 -1.4843903q-0.296875 -0.765625 -1.296875 -0.796875l-3.140625 0l0 4.0625153l-1.25 0l0 -9.51564l4.53125 0zm-0.5625 4.390625q1.046875 0 1.578125 -0.40625q0.546875 -0.421875 0.546875 -1.296875q0 -0.765625 -0.4375 -1.1875q-0.421875 -0.4375 -1.203125 -0.4375l-3.203125 0l0 3.328125l2.71875 0zm7.833679 -1.921875q1.484375 0 2.296875 1.078125q0.828125 1.0625 0.828125 2.734375l0 0.125l-5.171875 0l0 0.09375q0 0.98439026 0.578125 1.5781403q0.578125 0.59375 1.578125 0.59375q0.75 0 1.1875 -0.34375q0.453125 -0.359375 0.59375 -1.0l1.125 0q-0.234375 1.140625 -1.015625 1.75q-0.765625 0.59375 -1.9375 0.59375q-1.078125 0 -1.828125 -0.484375q-0.75 -0.484375 -1.109375 -1.359375q-0.359375 -0.89064026 -0.359375 -1.7968903q0 -1.53125 0.90625 -2.546875q0.921875 -1.015625 2.328125 -1.015625zm-2.046875 2.9375l3.96875 0q-0.0625 -0.84375 -0.625 -1.390625q-0.546875 -0.546875 -1.375 -0.546875q-0.78125 0 -1.34375 0.53125q-0.546875 0.515625 -0.625 1.40625zm6.9399414 -2.78125l1.9375 5.7500153l0.015625 0l1.890625 -5.7500153l1.171875 0l-2.515625 6.8906403l-1.203125 0l-2.5625 -6.8906403l1.265625 0zm8.9296875 -0.15625q1.484375 0 2.296875 1.078125q0.828125 1.0625 0.828125 2.734375l0 0.125l-5.171875 0l0 0.09375q0 0.98439026 0.578125 1.5781403q0.578125 0.59375 1.578125 0.59375q0.75 0 1.1875 -0.34375q0.453125 -0.359375 0.59375 -1.0l1.125 0q-0.234375 1.140625 -1.015625 1.75q-0.765625 0.59375 -1.9375 0.59375q-1.078125 0 -1.828125 -0.484375q-0.75 -0.484375 -1.109375 -1.359375q-0.359375 -0.89064026 -0.359375 -1.7968903q0 -1.53125 0.90625 -2.546875q0.921875 -1.015625 2.328125 -1.015625zm-2.046875 2.9375l3.96875 0q-0.0625 -0.84375 -0.625 -1.390625q-0.546875 -0.546875 -1.375 -0.546875q-0.78125 0 -1.34375 0.53125q-0.546875 0.515625 -0.625 1.40625zm9.15863 -2.9375q1.40625 0 1.984375 0.5q0.59375 0.5 0.59375 1.34375q0 3.5781403 0 3.9687653q0 0.390625 0.359375 0.390625q0.078125 0 0.171875 -0.015625q0.09375 -0.015625 0.171875 -0.046875l0 0.875q-0.15625 0.09375 -0.359375 0.140625q-0.203125 0.046875 -0.4375 0.046875q-0.46875 0 -0.71875 -0.25q-0.25 -0.265625 -0.25 -0.8125q-0.453125 0.53125 -1.0625 0.796875q-0.609375 0.265625 -1.359375 0.265625q-1.078125 0 -1.6875 -0.5q-0.59375 -0.5 -0.59375 -1.421875q0 -0.93751526 0.59375 -1.4687653q0.59375 -0.546875 2.78125 -0.828125q0.734375 -0.09375 1.0 -0.28125q0.265625 -0.1875 0.265625 -0.5625q0 -0.578125 -0.375 -0.859375q-0.359375 -0.28125 -1.15625 -0.28125q-0.84375 0 -1.265625 0.3125q-0.421875 0.3125 -0.453125 0.984375l-1.125 0q0.046875 -1.140625 0.796875 -1.71875q0.765625 -0.578125 2.125 -0.578125zm-2.0 5.1875153q0 0.484375 0.34375 0.75q0.359375 0.265625 1.0 0.265625q0.953125 0 1.515625 -0.46875q0.578125 -0.484375 0.578125 -1.0625153l0 -1.1875q-0.28125 0.203125 -0.734375 0.28125q-0.453125 0.0625 -1.21875 0.171875q-0.75 0.109375 -1.125 0.40625q-0.359375 0.296875 -0.359375 0.84376526zm7.5336914 -7.6562653l0 9.51564l-1.125 0l0 -9.51564l1.125 0z" fill-rule="nonzero"/><path fill="#ffffff" d="m559.9549 256.93216l-0.234375 1.03125l-1.265625 0l0.234375 -1.03125l1.265625 0zm-0.375 1.734375l-0.96875 4.59375l-1.265625 0l0.96875 -4.59375l1.265625 0z" fill-rule="nonzero"/><path fill="#ffffff" d="m533.33624 264.80716l0 6.234375l1.28125 0l0 1.0l-1.28125 0l0 2.21875l-1.0625 0l0 -2.21875l-4.140625 0l0 -1.09375l4.296875 -6.140625l0.90625 0zm-1.09375 1.625l-3.140625 4.609375l3.171875 0l0 -4.609375l-0.03125 0zm9.193726 -1.453125l0 0.984375l-3.8125 0l-0.5 2.71875l0.015625 0.03125q0.296875 -0.328125 0.75 -0.5q0.453125 -0.171875 1.015625 -0.171875q1.375 0 2.203125 0.859375q0.84375 0.859375 0.84375 2.359375q0 1.359375 -0.921875 2.265625q-0.90625 0.890625 -2.375 0.890625q-1.265625 0 -2.125 -0.71875q-0.859375 -0.734375 -0.890625 -1.96875l0 -0.015625l1.125 0q0.0625 0.75 0.609375 1.234375q0.5625 0.46875 1.375 0.46875q0.875 0 1.4375 -0.59375q0.5625 -0.59375 0.5625 -1.640625q0 -0.96875 -0.609375 -1.546875q-0.609375 -0.59375 -1.515625 -0.59375q-0.5 0 -0.953125 0.21875q-0.4375 0.21875 -0.8125 0.671875l-0.96875 -0.0625l0.875 -4.890625l4.671875 0zm4.2874756 2.234375q1.390625 0 2.0625 0.546875q0.6875 0.53125 0.75 1.609375l-1.125 0l0 -0.015625q-0.046875 -0.546875 -0.484375 -0.84375q-0.4375 -0.296875 -1.109375 -0.296875q-0.6875 0 -1.09375 0.234375q-0.390625 0.21875 -0.390625 0.640625q0 0.375 0.34375 0.625q0.359375 0.234375 1.0625 0.375l1.0625 0.25q1.0 0.21875 1.515625 0.6875q0.53125 0.453125 0.53125 1.21875q0 1.015625 -0.796875 1.59375q-0.78125 0.578125 -2.140625 0.578125q-1.3125 0 -2.09375 -0.578125q-0.765625 -0.59375 -0.828125 -1.75l1.140625 0q0.015625 0.640625 0.5 0.984375q0.5 0.34375 1.34375 0.34375q0.828125 0 1.25 -0.25q0.421875 -0.265625 0.421875 -0.78125q0 -0.453125 -0.421875 -0.71875q-0.421875 -0.28125 -1.71875 -0.53125q-1.296875 -0.265625 -1.828125 -0.71875q-0.53125 -0.46875 -0.53125 -1.25q0 -0.90625 0.734375 -1.421875q0.734375 -0.53125 1.84375 -0.53125z" fill-rule="nonzero"/><path fill="#000000" fill-opacity="0.0" d="m637.8933 232.0587l88.8504 0l0 58.803146l-88.8504 0z" fill-rule="evenodd"/><path stroke="#ffffff" stroke-width="1.0" stroke-linejoin="round" stroke-linecap="butt" d="m637.8933 232.0587l88.8504 0l0 58.803146l-88.8504 0z" fill-rule="evenodd"/><path fill="#ffffff" d="m672.96454 250.49464q1.4375 0 2.265625 0.6875q0.84375 0.6875 0.890625 2.015625l-1.078125 0q-0.09375 -0.875 -0.625 -1.3125q-0.53125 -0.4375 -1.5 -0.4375q-0.90625 0 -1.421875 0.375q-0.5 0.375 -0.5 1.078125q0 0.515625 0.421875 0.84375q0.4375 0.3125 2.328125 0.6875q1.375 0.28125 2.046875 0.875q0.6875 0.578125 0.6875 1.6093903q0 1.1875 -0.984375 1.875q-0.96875 0.671875 -2.359375 0.671875q-1.5625 0 -2.546875 -0.78125q-0.984375 -0.78125 -0.984375 -2.234375l1.078125 0q0 0.96875 0.6875 1.515625q0.6875 0.546875 1.796875 0.546875q1.046875 0 1.609375 -0.40625q0.5625 -0.40625 0.5625 -1.15625q0 -0.609375 -0.515625 -0.96876526q-0.515625 -0.375 -1.890625 -0.640625q-1.828125 -0.34375 -2.453125 -0.890625q-0.625 -0.5625 -0.625 -1.453125q0 -1.15625 0.875 -1.828125q0.890625 -0.671875 2.234375 -0.671875zm5.8066406 0.203125l0 1.25l-1.015625 0l0 -1.25l1.015625 0zm0 2.359375l0 6.2031403l-1.015625 0l0 -6.2031403l1.015625 0zm4.1191406 -0.140625q0.640625 0 1.109375 0.28125q0.484375 0.28125 0.75 0.75l0 0l0 -0.890625l0.96875 0l0 5.7343903q0 1.46875 -0.703125 2.21875q-0.703125 0.765625 -2.171875 0.765625q-1.0625 0 -1.796875 -0.46875q-0.734375 -0.46875 -0.78125 -1.34375l1.015625 0q0.03125 0.46875 0.515625 0.734375q0.484375 0.265625 1.09375 0.265625q0.90625 0 1.375 -0.59375q0.484375 -0.59375 0.484375 -1.78125l0 -0.390625l-0.015625 0q-0.234375 0.515625 -0.765625 0.828125q-0.515625 0.3125 -1.171875 0.3125q-1.265625 0 -2.015625 -0.875q-0.75 -0.875 -0.75 -2.28125q0 -1.4218903 0.75 -2.3437653q0.75 -0.921875 2.109375 -0.921875zm-1.78125 3.1562653q0 1.09375 0.453125 1.734375q0.46875 0.625 1.296875 0.625q0.84375 0 1.34375 -0.65625q0.5 -0.65625 0.5 -1.75q0 -0.98439026 -0.46875 -1.5937653q-0.453125 -0.625 -1.3125 -0.625q-0.84375 0 -1.328125 0.625q-0.484375 0.609375 -0.484375 1.6406403zm9.15625 -3.1562653q1.109375 0 1.609375 0.578125q0.515625 0.5625 0.515625 1.640625l0 4.1250153l-1.015625 0l0 -4.2343903q0 -0.53125 -0.34375 -0.875q-0.328125 -0.34375 -0.9375 -0.34375q-0.859375 0 -1.34375 0.53125q-0.484375 0.53125 -0.484375 1.375l0 3.5468903l-1.015625 0l0 -6.2031403l0.96875 0l0 0.984375l0.015625 0q0.34375 -0.578125 0.828125 -0.84375q0.5 -0.28125 1.203125 -0.28125z" fill-rule="nonzero"/><path fill="#ffffff" d="m695.6579 257.93216l-0.234375 1.03125l-1.265625 0l0.234375 -1.03125l1.265625 0zm-0.375 1.734375l-0.96875 4.59375l-1.265625 0l0.96875 -4.59375l1.265625 0z" fill-rule="nonzero"/><path fill="#ffffff" d="m676.9103 265.46463l0 8.515625l-1.015625 0l0 -6.09375l-2.203125 0l0 -0.828125l0.03125 0q1.078125 0 1.671875 -0.375q0.59375 -0.390625 0.75 -1.21875l0.765625 0zm5.736328 0q0.71875 0 1.234375 0.234375q0.53125 0.234375 0.90625 0.703125q0.703125 0.921875 0.703125 3.40625q0 1.234375 -0.171875 2.078125q-0.171875 0.828125 -0.53125 1.296875q-0.359375 0.46875 -0.890625 0.703125q-0.53125 0.234375 -1.25 0.234375q-1.40625 0 -2.109375 -0.9375q-0.71875 -0.953125 -0.71875 -3.375q0 -2.453125 0.71875 -3.390625q0.703125 -0.953125 2.109375 -0.953125zm-1.75 4.328125q0 1.015625 0.109375 1.6875q0.125 0.671875 0.34375 1.03125q0.453125 0.71875 1.296875 0.71875q0.953125 0 1.359375 -0.828125q0.21875 -0.40625 0.3125 -1.046875q0.09375 -0.640625 0.09375 -1.53125q0 -0.296875 -0.015625 -0.65625q0 -0.375 -0.046875 -0.75q-0.046875 -0.390625 -0.15625 -0.75q-0.09375 -0.375 -0.296875 -0.65625q-0.1875 -0.28125 -0.5 -0.453125q-0.296875 -0.1875 -0.75 -0.1875q-0.40625 0 -0.734375 0.171875q-0.3125 0.171875 -0.546875 0.515625q-0.46875 0.703125 -0.46875 2.734375zm7.923828 -2.15625q1.25 0 1.859375 0.484375q0.609375 0.484375 0.671875 1.453125l-1.015625 0l0 -0.015625q-0.046875 -0.484375 -0.4375 -0.75q-0.390625 -0.28125 -1.0 -0.28125q-0.609375 0 -0.96875 0.21875q-0.359375 0.203125 -0.359375 0.578125q0 0.34375 0.3125 0.5625q0.3125 0.203125 0.953125 0.34375l0.953125 0.21875q0.90625 0.203125 1.375 0.609375q0.46875 0.40625 0.46875 1.109375q0 0.921875 -0.71875 1.4375q-0.703125 0.515625 -1.921875 0.515625q-1.1875 0 -1.890625 -0.53125q-0.6875 -0.53125 -0.734375 -1.5625l1.015625 0q0.015625 0.578125 0.453125 0.890625q0.453125 0.3125 1.21875 0.3125q0.734375 0 1.109375 -0.234375q0.390625 -0.234375 0.390625 -0.703125q0 -0.40625 -0.390625 -0.640625q-0.375 -0.25 -1.546875 -0.484375q-1.171875 -0.234375 -1.65625 -0.65625q-0.46875 -0.421875 -0.46875 -1.109375q0 -0.8125 0.65625 -1.28125q0.671875 -0.484375 1.671875 -0.484375z" fill-rule="nonzero"/><path fill="#000000" fill-opacity="0.0" d="m726.69476 232.0587l88.8504 0l0 58.803146l-88.8504 0z" fill-rule="evenodd"/><path stroke="#ffffff" stroke-width="1.0" stroke-linejoin="round" stroke-linecap="butt" d="m726.69476 232.0587l88.8504 0l0 58.803146l-88.8504 0z" fill-rule="evenodd"/><path fill="#ffffff" d="m757.68445 250.41777l0 0.953125l-4.484375 0l0 2.71875l3.9375 0l0 0.96875l-3.9375 0l0 3.9218597l-1.140625 0l0 -8.562485l5.625 0zm2.171875 0l0 1.25l-1.015625 0l0 -1.25l1.015625 0zm0 2.359375l0 6.2031097l-1.015625 0l0 -6.2031097l1.015625 0zm4.6035156 -0.140625q1.109375 0 1.609375 0.578125q0.515625 0.5625 0.515625 1.640625l0 4.1249847l-1.015625 0l0 -4.2343597q0 -0.53125 -0.34375 -0.875q-0.328125 -0.34375 -0.9375 -0.34375q-0.859375 0 -1.34375 0.53125q-0.484375 0.53125 -0.484375 1.375l0 3.5468597l-1.015625 0l0 -6.2031097l0.96875 0l0 0.984375l0.015625 0q0.34375 -0.578125 0.828125 -0.84375q0.5 -0.28125 1.203125 -0.28125zm6.205078 0q1.265625 0 1.78125 0.453125q0.53125 0.453125 0.53125 1.203125q0 3.2343597 0 3.5937347q0 0.34375 0.328125 0.34375q0.078125 0 0.15625 -0.015625q0.078125 -0.03125 0.15625 -0.046875l0 0.78125q-0.140625 0.09375 -0.328125 0.125q-0.1875 0.046875 -0.40625 0.046875q-0.421875 0 -0.640625 -0.234375q-0.21875 -0.234375 -0.21875 -0.71875q-0.40625 0.484375 -0.953125 0.71875q-0.546875 0.234375 -1.234375 0.234375q-0.953125 0 -1.5 -0.453125q-0.546875 -0.453125 -0.546875 -1.28125q0 -0.84375 0.53125 -1.328125q0.53125 -0.48435974 2.5 -0.73435974q0.671875 -0.09375 0.90625 -0.25q0.25 -0.171875 0.25 -0.515625q0 -0.515625 -0.34375 -0.765625q-0.328125 -0.265625 -1.046875 -0.265625q-0.75 0 -1.140625 0.296875q-0.375 0.28125 -0.40625 0.890625l-1.015625 0q0.046875 -1.03125 0.71875 -1.546875q0.6875 -0.53125 1.921875 -0.53125zm-1.796875 4.6718597q0 0.4375 0.3125 0.6875q0.3125 0.234375 0.890625 0.234375q0.859375 0 1.375 -0.421875q0.515625 -0.4375 0.515625 -0.96875l0 -1.0624847q-0.265625 0.171875 -0.671875 0.24998474q-0.40625 0.0625 -1.09375 0.15625q-0.671875 0.09375 -1.0 0.375q-0.328125 0.265625 -0.328125 0.75zm6.7734375 -6.8906097l0 8.562485l-1.015625 0l0 -8.562485l1.015625 0zm2.6660156 0l0 1.25l-1.015625 0l0 -1.25l1.015625 0zm0 2.359375l0 6.2031097l-1.015625 0l0 -6.2031097l1.015625 0zm6.1503906 0l0 0.6875l-3.796875 4.6093597l3.96875 0l0 0.90625l-5.234375 0l0 -0.78125l3.75 -4.5156097l-3.515625 0l0 -0.90625l4.828125 0zm3.5585938 -0.140625q1.34375 0 2.078125 0.96875q0.734375 0.953125 0.734375 2.4531097l0 0.125l-4.640625 0l0 0.078125q0 0.890625 0.515625 1.4375q0.515625 0.53125 1.421875 0.53125q0.671875 0 1.0625 -0.3125q0.40625 -0.328125 0.53125 -0.90625l1.015625 0q-0.203125 1.03125 -0.90625 1.578125q-0.703125 0.53125 -1.75 0.53125q-0.96875 0 -1.65625 -0.4375q-0.671875 -0.4375 -1.0 -1.21875q-0.3125 -0.796875 -0.3125 -1.6249847q0 -1.375 0.828125 -2.28125q0.828125 -0.921875 2.078125 -0.921875zm-1.828125 2.640625l3.5625 0q-0.046875 -0.75 -0.546875 -1.25q-0.5 -0.5 -1.25 -0.5q-0.703125 0 -1.203125 0.484375q-0.5 0.46875 -0.5625 1.265625z" fill-rule="nonzero"/><path fill="#ffffff" d="m765.7118 264.46463l0 8.515625l-1.015625 0l0 -6.09375l-2.203125 0l0 -0.828125l0.03125 0q1.078125 0 1.671875 -0.375q0.59375 -0.390625 0.75 -1.21875l0.765625 0zm5.736328 0q0.71875 0 1.234375 0.234375q0.53125 0.234375 0.90625 0.703125q0.703125 0.921875 0.703125 3.40625q0 1.234375 -0.171875 2.078125q-0.171875 0.828125 -0.53125 1.296875q-0.359375 0.46875 -0.890625 0.703125q-0.53125 0.234375 -1.25 0.234375q-1.40625 0 -2.109375 -0.9375q-0.71875 -0.953125 -0.71875 -3.375q0 -2.453125 0.71875 -3.390625q0.703125 -0.953125 2.109375 -0.953125zm-1.75 4.328125q0 1.015625 0.109375 1.6875q0.125 0.671875 0.34375 1.03125q0.453125 0.71875 1.296875 0.71875q0.953125 0 1.359375 -0.828125q0.21875 -0.40625 0.3125 -1.046875q0.09375 -0.640625 0.09375 -1.53125q0 -0.296875 -0.015625 -0.65625q0 -0.375 -0.046875 -0.75q-0.046875 -0.390625 -0.15625 -0.75q-0.09375 -0.375 -0.296875 -0.65625q-0.1875 -0.28125 -0.5 -0.453125q-0.296875 -0.1875 -0.75 -0.1875q-0.40625 0 -0.734375 0.171875q-0.3125 0.171875 -0.546875 0.515625q-0.46875 0.703125 -0.46875 2.734375zm7.923828 -2.15625q1.25 0 1.859375 0.484375q0.609375 0.484375 0.671875 1.453125l-1.015625 0l0 -0.015625q-0.046875 -0.484375 -0.4375 -0.75q-0.390625 -0.28125 -1.0 -0.28125q-0.609375 0 -0.96875 0.21875q-0.359375 0.203125 -0.359375 0.578125q0 0.34375 0.3125 0.5625q0.3125 0.203125 0.953125 0.34375l0.953125 0.21875q0.90625 0.203125 1.375 0.609375q0.46875 0.40625 0.46875 1.109375q0 0.921875 -0.71875 1.4375q-0.703125 0.515625 -1.921875 0.515625q-1.1875 0 -1.890625 -0.53125q-0.6875 -0.53125 -0.734375 -1.5625l1.015625 0q0.015625 0.578125 0.453125 0.890625q0.453125 0.3125 1.21875 0.3125q0.734375 0 1.109375 -0.234375q0.390625 -0.234375 0.390625 -0.703125q0 -0.40625 -0.390625 -0.640625q-0.375 -0.25 -1.546875 -0.484375q-1.171875 -0.234375 -1.65625 -0.65625q-0.46875 -0.421875 -0.46875 -1.109375q0 -0.8125 0.65625 -1.28125q0.671875 -0.484375 1.671875 -0.484375z" fill-rule="nonzero"/><path fill="#000000" fill-opacity="0.0" d="m70.121 214.65414l0 0c0 -3.3621979 1.3356323 -6.586685 3.7130585 -8.964111c2.3774261 -2.3774261 5.6019135 -3.7130585 8.964111 -3.7130585l223.7173 0c7.001404 0 12.677185 -5.6757507 12.677185 -12.677155l0 0c0 7.001404 5.6757507 12.677155 12.677155 12.677155l468.25122 0c7.001404 0 12.677124 5.675766 12.677124 12.67717z" fill-rule="evenodd"/><path fill="#000000" fill-opacity="0.0" d="m70.121 214.65414l0 0c0 -3.3621979 1.3356323 -6.586685 3.7130585 -8.964111c2.3774261 -2.3774261 5.6019135 -3.7130585 8.964111 -3.7130585l223.7173 0c7.001404 0 12.677185 -5.6757507 12.677185 -12.677155l0 0c0 7.001404 5.6757507 12.677155 12.677155 12.677155l468.25122 0c7.001404 0 12.677124 5.675766 12.677124 12.67717" fill-rule="evenodd"/><path stroke="#ef4a82" stroke-width="1.0" stroke-linejoin="round" stroke-linecap="butt" d="m70.121 214.65414l0 0c0 -3.3621979 1.3356323 -6.586685 3.7130585 -8.964111c2.3774261 -2.3774261 5.6019135 -3.7130585 8.964111 -3.7130585l223.7173 0c7.001404 0 12.677185 -5.6757507 12.677185 -12.677155l0 0c0 7.001404 5.6757507 12.677155 12.677155 12.677155l468.25122 0c7.001404 0 12.677124 5.675766 12.677124 12.67717" fill-rule="evenodd"/><path fill="#000000" fill-opacity="0.0" d="m70.07788 158.8651l0 0c0 -3.3621979 1.3356247 -6.586685 3.7130585 -8.964111c2.3774261 -2.3774261 5.6019135 -3.7130585 8.964111 -3.7130585l158.71822 0c7.001404 0 12.67717 -5.6757507 12.67717 -12.677155l0 0c0 7.001404 5.675766 12.677155 12.67717 12.677155l155.73846 0c7.001404 0 12.677155 5.675766 12.677155 12.67717z" fill-rule="evenodd"/><path fill="#000000" fill-opacity="0.0" d="m70.07788 158.8651l0 0c0 -3.3621979 1.3356247 -6.586685 3.7130585 -8.964111c2.3774261 -2.3774261 5.6019135 -3.7130585 8.964111 -3.7130585l158.71822 0c7.001404 0 12.67717 -5.6757507 12.67717 -12.677155l0 0c0 7.001404 5.675766 12.677155 12.67717 12.677155l155.73846 0c7.001404 0 12.677155 5.675766 12.677155 12.67717" fill-rule="evenodd"/><path stroke="#ef4a82" stroke-width="1.0" stroke-linejoin="round" stroke-linecap="butt" d="m70.07788 158.8651l0 0c0 -3.3621979 1.3356247 -6.586685 3.7130585 -8.964111c2.3774261 -2.3774261 5.6019135 -3.7130585 8.964111 -3.7130585l158.71822 0c7.001404 0 12.67717 -5.6757507 12.67717 -12.677155l0 0c0 7.001404 5.675766 12.677155 12.67717 12.677155l155.73846 0c7.001404 0 12.677155 5.675766 12.677155 12.67717" fill-rule="evenodd"/><path fill="#000000" fill-opacity="0.0" d="m444.4431 158.8651l0 0c0 -3.3621979 1.3356323 -6.586685 3.7130737 -8.964111c2.377411 -2.3774261 5.601898 -3.7130585 8.964111 -3.7130585l197.90149 0c7.001404 0 12.677185 -5.6757507 12.677185 -12.677155l0 0c0 7.001404 5.6757812 12.677155 12.677185 12.677155l194.28741 0c7.001404 0 12.677185 5.675766 12.677185 12.67717z" fill-rule="evenodd"/><path fill="#000000" fill-opacity="0.0" d="m444.4431 158.8651l0 0c0 -3.3621979 1.3356323 -6.586685 3.7130737 -8.964111c2.377411 -2.3774261 5.601898 -3.7130585 8.964111 -3.7130585l197.90149 0c7.001404 0 12.677185 -5.6757507 12.677185 -12.677155l0 0c0 7.001404 5.6757812 12.677155 12.677185 12.677155l194.28741 0c7.001404 0 12.677185 5.675766 12.677185 12.67717" fill-rule="evenodd"/><path stroke="#ef4a82" stroke-width="1.0" stroke-linejoin="round" stroke-linecap="butt" d="m444.4431 158.8651l0 0c0 -3.3621979 1.3356323 -6.586685 3.7130737 -8.964111c2.377411 -2.3774261 5.601898 -3.7130585 8.964111 -3.7130585l197.90149 0c7.001404 0 12.677185 -5.6757507 12.677185 -12.677155l0 0c0 7.001404 5.6757812 12.677155 12.677185 12.677155l194.28741 0c7.001404 0 12.677185 5.675766 12.677185 12.67717" fill-rule="evenodd"/><path fill="#000000" fill-opacity="0.0" d="m439.13254 324.36487l452.56693 0l0 58.80316l-452.56693 0z" fill-rule="evenodd"/><path stroke="#ffffff" stroke-width="1.0" stroke-linejoin="round" stroke-linecap="butt" d="m439.13254 324.36487l452.56693 0l0 58.80316l-452.56693 0z" fill-rule="evenodd"/><path fill="#ffffff" d="m640.6119 340.81644q1.578125 0 2.640625 0.828125q1.0625 0.8125 1.28125 2.265625l-1.265625 0q-0.21875 -0.96875 -0.921875 -1.484375q-0.703125 -0.53125 -1.75 -0.53125q-1.515625 0 -2.375 1.0625q-0.84375 1.0625 -0.84375 2.78125q0 1.828125 0.828125 2.90625q0.84375 1.078125 2.40625 1.078125q1.15625 0 1.90625 -0.734375q0.75 -0.734375 0.84375 -2.0l1.265625 0q-0.203125 1.84375 -1.28125 2.828125q-1.078125 0.984375 -2.84375 0.984375q-2.046875 0 -3.21875 -1.359375q-1.171875 -1.359375 -1.171875 -3.609375q0 -2.21875 1.203125 -3.609375q1.21875 -1.40625 3.296875 -1.40625zm8.375183 2.703125q1.5625 0 2.453125 1.015625q0.890625 1.0 0.890625 2.59375q0 1.609375 -0.921875 2.609375q-0.90625 0.984375 -2.421875 0.984375q-1.5 0 -2.421875 -0.96875q-0.921875 -0.984375 -0.921875 -2.625q0 -1.640625 0.90625 -2.625q0.90625 -0.984375 2.4375 -0.984375zm-2.15625 3.609375q0 1.1875 0.609375 1.890625q0.609375 0.703125 1.546875 0.703125q0.921875 0 1.53125 -0.703125q0.609375 -0.71875 0.609375 -1.890625q0 -1.171875 -0.609375 -1.890625q-0.59375 -0.71875 -1.546875 -0.71875q-0.90625 0 -1.53125 0.703125q-0.609375 0.703125 -0.609375 1.90625zm10.153259 -3.609375q0.75 0 1.234375 0.3125q0.484375 0.296875 0.65625 0.859375q0.359375 -0.5625 0.921875 -0.859375q0.5625 -0.3125 1.25 -0.3125q1.15625 0 1.71875 0.53125q0.5625 0.515625 0.5625 1.421875l0 5.09375l-1.125 0l0 -4.5625q0 -0.75 -0.328125 -1.109375q-0.3125 -0.375 -1.015625 -0.375q-0.84375 0 -1.328125 0.5q-0.46875 0.484375 -0.46875 1.21875l0 4.328125l-1.140625 0l0 -4.5625q0 -0.75 -0.3125 -1.109375q-0.3125 -0.375 -0.96875 -0.375q-0.546875 0 -0.96875 0.265625q-0.40625 0.25 -0.640625 0.703125q-0.234375 0.453125 -0.234375 0.765625l0 4.3125l-1.125 0l0 -6.890625l1.0625 0l0 1.015625l0.03125 0q0.390625 -0.59375 0.9375 -0.875q0.546875 -0.296875 1.28125 -0.296875zm11.369263 0q0.75 0 1.234375 0.3125q0.484375 0.296875 0.65625 0.859375q0.359375 -0.5625 0.921875 -0.859375q0.5625 -0.3125 1.25 -0.3125q1.15625 0 1.71875 0.53125q0.5625 0.515625 0.5625 1.421875l0 5.09375l-1.125 0l0 -4.5625q0 -0.75 -0.328125 -1.109375q-0.3125 -0.375 -1.015625 -0.375q-0.84375 0 -1.328125 0.5q-0.46875 0.484375 -0.46875 1.21875l0 4.328125l-1.140625 0l0 -4.5625q0 -0.75 -0.3125 -1.109375q-0.3125 -0.375 -0.96875 -0.375q-0.546875 0 -0.96875 0.265625q-0.40625 0.25 -0.640625 0.703125q-0.234375 0.453125 -0.234375 0.765625l0 4.3125l-1.125 0l0 -6.890625l1.0625 0l0 1.015625l0.03125 0q0.390625 -0.59375 0.9375 -0.875q0.546875 -0.296875 1.28125 -0.296875zm9.244263 -2.46875l0 1.390625l-1.125 0l0 -1.390625l1.125 0zm0 2.625l0 6.890625l-1.125 0l0 -6.890625l1.125 0zm3.3360596 -2.0625l0 2.0625l1.375 0l0 1.0l-1.375 0l0 4.3125q0 0.515625 0.34375 0.546875q0.34375 0.03125 0.71875 0.03125l0.3125 0l0 1.0l-0.9375 0q-0.921875 0 -1.25 -0.328125q-0.3125 -0.328125 -0.3125 -1.109375l0 -4.453125l-1.1875 0l0 -1.0l1.1875 0l0 -2.0625l1.125 0z" fill-rule="nonzero"/><path fill="#ffffff" d="m685.2094 349.2383l-0.234375 1.03125l-1.265625 0l0.234375 -1.03125l1.265625 0zm-0.375 1.734375l-0.96875 4.59375l-1.265625 0l0.96875 -4.59375l1.265625 0zm3.1864624 0.109375l0 1.765625l1.78125 0l0 0.953125l-1.78125 0l0 1.765625l-0.9375 0l0 -1.765625l-1.78125 0l0 -0.953125l1.78125 0l0 -1.765625l0.9375 0zm6.5289917 -1.734375l-1.3125 6.21875l-1.34375 0l0.84375 -4.03125l-1.515625 0l0.203125 -0.953125q0.84375 -0.03125 1.3125 -0.3125q0.484375 -0.296875 0.78125 -0.921875l1.03125 0z" fill-rule="nonzero"/><path fill="#ffffff" d="m658.234 357.1133q1.640625 0 2.4375 1.125q0.796875 1.125 0.796875 3.40625q0 2.609375 -0.828125 3.84375q-0.8125 1.234375 -2.453125 1.234375q-1.21875 0 -1.984375 -0.609375q-0.75 -0.625 -0.875 -1.828125l1.125 0q0.09375 0.6875 0.5625 1.0625q0.484375 0.375 1.171875 0.375q1.046875 0 1.5625 -0.890625q0.515625 -0.90625 0.578125 -2.75l-0.03125 -0.03125q-0.328125 0.609375 -0.90625 0.953125q-0.578125 0.34375 -1.296875 0.34375q-1.375 0 -2.171875 -0.84375q-0.796875 -0.84375 -0.796875 -2.3125q0 -1.34375 0.875 -2.203125q0.875 -0.875 2.234375 -0.875zm-1.90625 3.234375q0 0.8125 0.546875 1.421875q0.546875 0.59375 1.3125 0.59375q0.84375 0 1.390625 -0.609375q0.546875 -0.609375 0.546875 -1.484375q0 -0.90625 -0.53125 -1.53125q-0.515625 -0.625 -1.421875 -0.625q-0.875 0 -1.359375 0.609375q-0.484375 0.59375 -0.484375 1.625zm9.459351 -3.234375q0.796875 0 1.375 0.265625q0.578125 0.25 0.984375 0.78125q0.796875 1.015625 0.796875 3.765625q0 1.375 -0.203125 2.3125q-0.1875 0.921875 -0.59375 1.453125q-0.390625 0.5 -0.984375 0.765625q-0.578125 0.265625 -1.375 0.265625q-1.578125 0 -2.359375 -1.046875q-0.78125 -1.0625 -0.78125 -3.75q0 -2.71875 0.78125 -3.75q0.796875 -1.0625 2.359375 -1.0625zm-1.953125 4.796875q0 1.140625 0.125 1.890625q0.140625 0.734375 0.375 1.140625q0.5 0.78125 1.453125 0.78125q1.046875 0 1.515625 -0.90625q0.21875 -0.453125 0.328125 -1.15625q0.109375 -0.71875 0.109375 -1.703125q0 -0.34375 -0.015625 -0.75q0 -0.40625 -0.0625 -0.828125q-0.046875 -0.421875 -0.171875 -0.828125q-0.109375 -0.40625 -0.3125 -0.71875q-0.21875 -0.3125 -0.5625 -0.515625q-0.328125 -0.203125 -0.84375 -0.203125q-0.453125 0 -0.8125 0.203125q-0.34375 0.1875 -0.609375 0.578125q-0.515625 0.765625 -0.515625 3.015625zm8.803101 -2.390625q1.390625 0 2.0625 0.546875q0.6875 0.53125 0.75 1.609375l-1.125 0l0 -0.015625q-0.046875 -0.546875 -0.484375 -0.84375q-0.4375 -0.296875 -1.109375 -0.296875q-0.6875 0 -1.09375 0.234375q-0.390625 0.21875 -0.390625 0.640625q0 0.375 0.34375 0.625q0.359375 0.234375 1.0625 0.375l1.0625 0.25q1.0 0.21875 1.515625 0.6875q0.53125 0.453125 0.53125 1.21875q0 1.015625 -0.796875 1.59375q-0.78125 0.578125 -2.140625 0.578125q-1.3125 0 -2.09375 -0.578125q-0.765625 -0.59375 -0.828125 -1.75l1.140625 0q0.015625 0.640625 0.5 0.984375q0.5 0.34375 1.34375 0.34375q0.828125 0 1.25 -0.25q0.421875 -0.265625 0.421875 -0.78125q0 -0.453125 -0.421875 -0.71875q-0.421875 -0.28125 -1.71875 -0.53125q-1.296875 -0.265625 -1.828125 -0.71875q-0.53125 -0.46875 -0.53125 -1.25q0 -0.90625 0.734375 -1.421875q0.734375 -0.53125 1.84375 -0.53125z" fill-rule="nonzero"/><path fill="#000000" fill-opacity="0.0" d="m891.6474 46.026245l0 394.96063" fill-rule="evenodd"/><path stroke="#ffffff" stroke-width="1.0" stroke-linejoin="round" stroke-linecap="butt" stroke-dasharray="4.0,3.0" d="m891.6474 46.026245l0 394.96063" fill-rule="evenodd"/><path fill="#000000" fill-opacity="0.0" d="m438.56863 46.026245l0 394.96063" fill-rule="evenodd"/><path stroke="#ffffff" stroke-width="1.0" stroke-linejoin="round" stroke-linecap="butt" stroke-dasharray="4.0,3.0" d="m438.56863 46.026245l0 394.96063" fill-rule="evenodd"/><path fill="#000000" fill-opacity="0.0" d="m68.35302 46.026245l0 394.96063" fill-rule="evenodd"/><path stroke="#ffffff" stroke-width="1.0" stroke-linejoin="round" stroke-linecap="butt" stroke-dasharray="4.0,3.0" d="m68.35302 46.026245l0 394.96063" fill-rule="evenodd"/><path fill="#000000" fill-opacity="0.0" d="m219.89232 155.0437l198.74016 0l0 34.23622l-198.74016 0z" fill-rule="evenodd"/><path fill="#ffffff" d="m274.7283 167.32808l2.71875 8.25l0.03125 0l2.75 -8.25l1.3125 0l-3.390625 9.515625l-1.4375 0l-3.359375 -9.515625l1.375 0zm10.050232 2.46875q1.5625 0 2.453125 1.015625q0.890625 1.0 0.890625 2.59375q0 1.609375 -0.921875 2.609375q-0.90625 0.984375 -2.421875 0.984375q-1.5 0 -2.421875 -0.96875q-0.921875 -0.984375 -0.921875 -2.625q0 -1.640625 0.90625 -2.625q0.90625 -0.984375 2.4375 -0.984375zm-2.15625 3.609375q0 1.1875 0.609375 1.890625q0.609375 0.703125 1.546875 0.703125q0.921875 0 1.53125 -0.703125q0.609375 -0.71875 0.609375 -1.890625q0 -1.171875 -0.609375 -1.890625q-0.59375 -0.71875 -1.546875 -0.71875q-0.90625 0 -1.53125 0.703125q-0.609375 0.703125 -0.609375 1.90625zm8.403259 -5.515625l0 2.0625l1.375 0l0 1.0l-1.375 0l0 4.3125q0 0.515625 0.34375 0.546875q0.34375 0.03125 0.71875 0.03125l0.3125 0l0 1.0l-0.9375 0q-0.921875 0 -1.25 -0.328125q-0.3125 -0.328125 -0.3125 -1.109375l0 -4.453125l-1.1875 0l0 -1.0l1.1875 0l0 -2.0625l1.125 0zm3.8225708 -0.5625l0 1.390625l-1.125 0l0 -1.390625l1.125 0zm0 2.625l0 6.890625l-1.125 0l0 -6.890625l1.125 0zm5.101715 -0.15625q1.25 0 1.8125 0.640625q0.5625 0.640625 0.5625 1.8125l0 4.59375l-1.140625 0l0 -4.703125q0 -0.59375 -0.375 -0.96875q-0.375 -0.375 -1.03125 -0.375q-0.953125 0 -1.5 0.59375q-0.53125 0.578125 -0.53125 1.515625l0 3.9375l-1.125 0l0 -6.890625l1.0625 0l0 1.09375l0.03125 0q0.375 -0.640625 0.921875 -0.9375q0.546875 -0.3125 1.3125 -0.3125zm6.8812256 0q0.71875 0 1.25 0.3125q0.53125 0.3125 0.8125 0.828125l0.015625 0l0 -0.984375l1.0625 0l0 6.375q0 1.625 -0.78125 2.46875q-0.78125 0.84375 -2.40625 0.84375q-1.1875 0 -2.0 -0.53125q-0.8125 -0.515625 -0.859375 -1.484375l1.125 0q0.03125 0.515625 0.5625 0.8125q0.546875 0.296875 1.21875 0.296875q1.015625 0 1.546875 -0.671875q0.53125 -0.65625 0.53125 -1.953125l0 -0.4375l-0.03125 0q-0.265625 0.578125 -0.84375 0.921875q-0.578125 0.328125 -1.3125 0.328125q-1.390625 0 -2.234375 -0.953125q-0.828125 -0.96875 -0.828125 -2.53125q0 -1.578125 0.828125 -2.609375q0.84375 -1.03125 2.34375 -1.03125zm-1.984375 3.5q0 1.234375 0.515625 1.9375q0.515625 0.6875 1.4375 0.6875q0.9375 0 1.484375 -0.71875q0.5625 -0.734375 0.5625 -1.9375q0 -1.109375 -0.515625 -1.78125q-0.515625 -0.6875 -1.453125 -0.6875q-0.953125 0 -1.5 0.6875q-0.53125 0.671875 -0.53125 1.8125zm15.262512 -5.96875q1.234375 0 2.03125 0.65625q0.796875 0.65625 0.796875 1.84375q0 0.9375 -0.40625 1.5625q-0.40625 0.609375 -1.25 0.84375l0 0.015625q0.734375 0.15625 1.0625 0.6875q0.34375 0.515625 0.40625 1.8125q0.03125 0.828125 0.15625 1.3125q0.125 0.46875 0.359375 0.78125l-1.40625 0q-0.125 -0.15625 -0.15625 -0.3125q-0.03125 -0.15625 -0.0625 -0.421875l-0.0625 -1.046875q-0.015625 -0.734375 -0.3125 -1.484375q-0.296875 -0.765625 -1.296875 -0.796875l-3.140625 0l0 4.0625l-1.25 0l0 -9.515625l4.53125 0zm-0.5625 4.390625q1.046875 0 1.578125 -0.40625q0.546875 -0.421875 0.546875 -1.296875q0 -0.765625 -0.4375 -1.1875q-0.421875 -0.4375 -1.203125 -0.4375l-3.203125 0l0 3.328125l2.71875 0zm7.943054 -1.921875q1.5625 0 2.453125 1.015625q0.890625 1.0 0.890625 2.59375q0 1.609375 -0.921875 2.609375q-0.90625 0.984375 -2.421875 0.984375q-1.5 0 -2.421875 -0.96875q-0.921875 -0.984375 -0.921875 -2.625q0 -1.640625 0.90625 -2.625q0.90625 -0.984375 2.4375 -0.984375zm-2.15625 3.609375q0 1.1875 0.609375 1.890625q0.609375 0.703125 1.546875 0.703125q0.921875 0 1.53125 -0.703125q0.609375 -0.71875 0.609375 -1.890625q0 -1.171875 -0.609375 -1.890625q-0.59375 -0.71875 -1.546875 -0.71875q-0.90625 0 -1.53125 0.703125q-0.609375 0.703125 -0.609375 1.90625zm7.9657593 -3.453125l0 4.703125q0 0.578125 0.375 0.96875q0.375 0.375 1.03125 0.375q0.96875 0 1.5 -0.59375q0.53125 -0.59375 0.53125 -1.515625l0 -3.9375l1.140625 0l0 6.890625l-1.0625 0l0 -1.09375l-0.03125 0q-0.375 0.65625 -0.953125 0.953125q-0.5625 0.296875 -1.296875 0.296875q-1.203125 0 -1.78125 -0.609375q-0.578125 -0.625 -0.578125 -1.84375l0 -4.59375l1.125 0zm9.615601 -0.15625q1.25 0 1.8125 0.640625q0.5625 0.640625 0.5625 1.8125l0 4.59375l-1.140625 0l0 -4.703125q0 -0.59375 -0.375 -0.96875q-0.375 -0.375 -1.03125 -0.375q-0.953125 0 -1.5 0.59375q-0.53125 0.578125 -0.53125 1.515625l0 3.9375l-1.125 0l0 -6.890625l1.0625 0l0 1.09375l0.03125 0q0.375 -0.640625 0.921875 -0.9375q0.546875 -0.3125 1.3125 -0.3125zm10.240601 -2.46875l0 9.515625l-1.140625 0l0 -0.9375l-0.03125 0q-0.265625 0.546875 -0.84375 0.828125q-0.578125 0.265625 -1.34375 0.265625q-1.453125 0 -2.3125 -1.0q-0.859375 -1.0 -0.859375 -2.625q0 -1.59375 0.828125 -2.578125q0.84375 -1.0 2.3125 -1.0q0.671875 0 1.28125 0.28125q0.609375 0.265625 0.9375 0.796875l0.03125 0l0 -3.546875l1.140625 0zm-5.34375 6.125q0 1.109375 0.578125 1.828125q0.578125 0.71875 1.5625 0.71875q1.0 0 1.546875 -0.71875q0.5625 -0.71875 0.5625 -1.875q0 -1.171875 -0.578125 -1.890625q-0.5625 -0.71875 -1.609375 -0.71875q-0.984375 0 -1.53125 0.71875q-0.53125 0.703125 -0.53125 1.9375zm14.681671 -6.0625l0 9.453125l-1.140625 0l0 -6.765625l-2.453125 0l0 -0.90625l0.046875 0q1.1875 0 1.84375 -0.421875q0.65625 -0.4375 0.828125 -1.359375l0.875 0z" fill-rule="nonzero"/><path fill="#000000" fill-opacity="0.0" d="m154.08873 87.840775l198.74016 0l0 34.23622l-198.74016 0z" fill-rule="evenodd"/><path fill="#ffffff" d="m213.94043 100.12515l2.71875 8.25l0.03125 0l2.75 -8.25l1.3125 0l-3.390625 9.515625l-1.4375 0l-3.359375 -9.515625l1.375 0zm10.050217 2.46875q1.5625 0 2.453125 1.015625q0.890625 1.0 0.890625 2.59375q0 1.609375 -0.921875 2.609375q-0.90625 0.984375 -2.421875 0.984375q-1.5 0 -2.421875 -0.96875q-0.921875 -0.984375 -0.921875 -2.625q0 -1.640625 0.90625 -2.625q0.90625 -0.984375 2.4375 -0.984375zm-2.15625 3.609375q0 1.1875 0.609375 1.890625q0.609375 0.703125 1.546875 0.703125q0.921875 0 1.53125 -0.703125q0.609375 -0.71875 0.609375 -1.890625q0 -1.171875 -0.609375 -1.890625q-0.59375 -0.71875 -1.546875 -0.71875q-0.90625 0 -1.53125 0.703125q-0.609375 0.703125 -0.609375 1.90625zm8.403259 -5.515625l0 2.0625l1.375 0l0 1.0l-1.375 0l0 4.3125q0 0.515625 0.34375 0.546875q0.34375 0.03125 0.71875 0.03125l0.3125 0l0 1.0l-0.9375 0q-0.921875 0 -1.25 -0.328125q-0.3125 -0.328125 -0.3125 -1.109375l0 -4.453125l-1.1875 0l0 -1.0l1.1875 0l0 -2.0625l1.125 0zm3.822586 -0.5625l0 1.390625l-1.125 0l0 -1.390625l1.125 0zm0 2.625l0 6.890625l-1.125 0l0 -6.890625l1.125 0zm5.101715 -0.15625q1.25 0 1.8125 0.640625q0.5625 0.640625 0.5625 1.8125l0 4.59375l-1.140625 0l0 -4.703125q0 -0.59375 -0.375 -0.96875q-0.375 -0.375 -1.03125 -0.375q-0.953125 0 -1.5 0.59375q-0.53125 0.578125 -0.53125 1.515625l0 3.9375l-1.125 0l0 -6.890625l1.0625 0l0 1.09375l0.03125 0q0.375 -0.640625 0.921875 -0.9375q0.546875 -0.3125 1.3125 -0.3125zm6.8812256 0q0.71875 0 1.25 0.3125q0.53125 0.3125 0.8125 0.828125l0.015625 0l0 -0.984375l1.0625 0l0 6.375q0 1.625 -0.78125 2.46875q-0.78125 0.84375 -2.40625 0.84375q-1.1875 0 -2.0 -0.53125q-0.8125 -0.515625 -0.859375 -1.484375l1.125 0q0.03125 0.515625 0.5625 0.8125q0.546875 0.296875 1.21875 0.296875q1.015625 0 1.546875 -0.671875q0.53125 -0.65625 0.53125 -1.953125l0 -0.4375l-0.03125 0q-0.265625 0.578125 -0.84375 0.921875q-0.578125 0.328125 -1.3125 0.328125q-1.390625 0 -2.234375 -0.953125q-0.828125 -0.96875 -0.828125 -2.53125q0 -1.578125 0.828125 -2.609375q0.84375 -1.03125 2.34375 -1.03125zm-1.984375 3.5q0 1.234375 0.515625 1.9375q0.515625 0.6875 1.4375 0.6875q0.9375 0 1.484375 -0.71875q0.5625 -0.734375 0.5625 -1.9375q0 -1.109375 -0.515625 -1.78125q-0.515625 -0.6875 -1.453125 -0.6875q-0.953125 0 -1.5 0.6875q-0.53125 0.671875 -0.53125 1.8125zm17.293732 -5.96875l0 1.0625l-5.3125 0l0 3.03125l4.953125 0l0 1.0625l-4.953125 0l0 3.296875l5.359375 0l0 1.0625l-6.6093597 0l0 -9.515625l6.5624847 0zm4.7819824 2.46875q1.484375 0 2.328125 1.015625q0.84375 1.015625 0.84375 2.609375q0 1.59375 -0.84375 2.59375q-0.84375 0.984375 -2.296875 0.984375q-0.640625 0 -1.265625 -0.265625q-0.609375 -0.265625 -0.96875 -0.8125l-0.015625 0l0 3.5625l-1.140625 0l0 -9.53125l1.140625 0l0 0.9375l0.015625 0q0.265625 -0.53125 0.84375 -0.8125q0.578125 -0.28125 1.359375 -0.28125zm-2.265625 3.59375q0 1.203125 0.578125 1.90625q0.578125 0.703125 1.59375 0.703125q0.984375 0 1.515625 -0.703125q0.546875 -0.703125 0.546875 -1.953125q0 -1.109375 -0.578125 -1.828125q-0.5625 -0.71875 -1.5625 -0.71875q-1.0 0 -1.546875 0.734375q-0.546875 0.71875 -0.546875 1.859375zm9.744324 -3.59375q1.5625 0 2.453125 1.015625q0.890625 1.0 0.890625 2.59375q0 1.609375 -0.921875 2.609375q-0.90625 0.984375 -2.421875 0.984375q-1.5 0 -2.421875 -0.96875q-0.921875 -0.984375 -0.921875 -2.625q0 -1.640625 0.90625 -2.625q0.90625 -0.984375 2.4375 -0.984375zm-2.15625 3.609375q0 1.1875 0.609375 1.890625q0.609375 0.703125 1.546875 0.703125q0.921875 0 1.53125 -0.703125q0.609375 -0.71875 0.609375 -1.890625q0 -1.171875 -0.609375 -1.890625q-0.59375 -0.71875 -1.546875 -0.71875q-0.90625 0 -1.53125 0.703125q-0.609375 0.703125 -0.609375 1.90625zm9.715759 -3.609375q1.25 0 2.03125 0.609375q0.796875 0.59375 0.9375 1.765625l-1.171875 0q-0.140625 -0.671875 -0.59375 -1.015625q-0.4375 -0.359375 -1.109375 -0.359375q-1.0625 0 -1.609375 0.703125q-0.546875 0.703125 -0.546875 1.984375q0 1.140625 0.546875 1.828125q0.546875 0.6875 1.46875 0.6875q0.828125 0 1.296875 -0.4375q0.484375 -0.453125 0.59375 -1.234375l1.15625 0q-0.1875 1.28125 -0.96875 1.984375q-0.78125 0.6875 -2.0625 0.6875q-1.5 0 -2.359375 -0.9375q-0.859375 -0.953125 -0.859375 -2.578125q0 -1.6875 0.859375 -2.6875q0.875 -1.0 2.390625 -1.0zm5.408661 -2.46875l0 3.640625l0.03125 0q0.25 -0.5625 0.828125 -0.859375q0.59375 -0.3125 1.34375 -0.3125q1.25 0 1.8125 0.640625q0.5625 0.640625 0.5625 1.8125l0 4.59375l-1.140625 0l0 -4.703125q0 -0.59375 -0.375 -0.96875q-0.375 -0.375 -1.03125 -0.375q-0.953125 0 -1.5 0.59375q-0.53125 0.578125 -0.53125 1.515625l0 3.9375l-1.125 0l0 -9.515625l1.125 0z" fill-rule="nonzero"/><path fill="#ffffff" d="m294.5095 108.31265l-0.234375 1.03125l-1.265625 0l0.234375 -1.03125l1.265625 0zm-0.375 1.734375l-0.96875 4.59375l-1.265625 0l0.96875 -4.59375l1.265625 0z" fill-rule="nonzero"/><path fill="#000000" fill-opacity="0.0" d="m555.7964 87.840775l198.74017 0l0 34.23622l-198.74017 0z" fill-rule="evenodd"/><path fill="#ffffff" d="m610.5172 100.12515l2.71875 8.25l0.03125 0l2.75 -8.25l1.3125 0l-3.390625 9.515625l-1.4375 0l-3.359375 -9.515625l1.375 0zm10.050232 2.46875q1.5625 0 2.453125 1.015625q0.890625 1.0 0.890625 2.59375q0 1.609375 -0.921875 2.609375q-0.90625 0.984375 -2.421875 0.984375q-1.5 0 -2.421875 -0.96875q-0.921875 -0.984375 -0.921875 -2.625q0 -1.640625 0.90625 -2.625q0.90625 -0.984375 2.4375 -0.984375zm-2.15625 3.609375q0 1.1875 0.609375 1.890625q0.609375 0.703125 1.546875 0.703125q0.921875 0 1.53125 -0.703125q0.609375 -0.71875 0.609375 -1.890625q0 -1.171875 -0.609375 -1.890625q-0.59375 -0.71875 -1.546875 -0.71875q-0.90625 0 -1.53125 0.703125q-0.609375 0.703125 -0.609375 1.90625zm8.403259 -5.515625l0 2.0625l1.375 0l0 1.0l-1.375 0l0 4.3125q0 0.515625 0.34375 0.546875q0.34375 0.03125 0.71875 0.03125l0.3125 0l0 1.0l-0.9375 0q-0.921875 0 -1.25 -0.328125q-0.3125 -0.328125 -0.3125 -1.109375l0 -4.453125l-1.1875 0l0 -1.0l1.1875 0l0 -2.0625l1.125 0zm3.8225708 -0.5625l0 1.390625l-1.125 0l0 -1.390625l1.125 0zm0 2.625l0 6.890625l-1.125 0l0 -6.890625l1.125 0zm5.1017456 -0.15625q1.25 0 1.8125 0.640625q0.5625 0.640625 0.5625 1.8125l0 4.59375l-1.140625 0l0 -4.703125q0 -0.59375 -0.375 -0.96875q-0.375 -0.375 -1.03125 -0.375q-0.953125 0 -1.5 0.59375q-0.53125 0.578125 -0.53125 1.515625l0 3.9375l-1.125 0l0 -6.890625l1.0625 0l0 1.09375l0.03125 0q0.375 -0.640625 0.921875 -0.9375q0.546875 -0.3125 1.3125 -0.3125zm6.8812256 0q0.71875 0 1.25 0.3125q0.53125 0.3125 0.8125 0.828125l0.015625 0l0 -0.984375l1.0625 0l0 6.375q0 1.625 -0.78125 2.46875q-0.78125 0.84375 -2.40625 0.84375q-1.1875 0 -2.0 -0.53125q-0.8125 -0.515625 -0.859375 -1.484375l1.125 0q0.03125 0.515625 0.5625 0.8125q0.546875 0.296875 1.21875 0.296875q1.015625 0 1.546875 -0.671875q0.53125 -0.65625 0.53125 -1.953125l0 -0.4375l-0.03125 0q-0.265625 0.578125 -0.84375 0.921875q-0.578125 0.328125 -1.3125 0.328125q-1.390625 0 -2.234375 -0.953125q-0.828125 -0.96875 -0.828125 -2.53125q0 -1.578125 0.828125 -2.609375q0.84375 -1.03125 2.34375 -1.03125zm-1.984375 3.5q0 1.234375 0.515625 1.9375q0.515625 0.6875 1.4375 0.6875q0.9375 0 1.484375 -0.71875q0.5625 -0.734375 0.5625 -1.9375q0 -1.109375 -0.515625 -1.78125q-0.515625 -0.6875 -1.453125 -0.6875q-0.953125 0 -1.5 0.6875q-0.53125 0.671875 -0.53125 1.8125zm17.293762 -5.96875l0 1.0625l-5.3125 0l0 3.03125l4.953125 0l0 1.0625l-4.953125 0l0 3.296875l5.359375 0l0 1.0625l-6.609375 0l0 -9.515625l6.5625 0zm4.7819824 2.46875q1.484375 0 2.328125 1.015625q0.84375 1.015625 0.84375 2.609375q0 1.59375 -0.84375 2.59375q-0.84375 0.984375 -2.296875 0.984375q-0.640625 0 -1.265625 -0.265625q-0.609375 -0.265625 -0.96875 -0.8125l-0.015625 0l0 3.5625l-1.140625 0l0 -9.53125l1.140625 0l0 0.9375l0.015625 0q0.265625 -0.53125 0.84375 -0.8125q0.578125 -0.28125 1.359375 -0.28125zm-2.265625 3.59375q0 1.203125 0.578125 1.90625q0.578125 0.703125 1.59375 0.703125q0.984375 0 1.515625 -0.703125q0.546875 -0.703125 0.546875 -1.953125q0 -1.109375 -0.578125 -1.828125q-0.5625 -0.71875 -1.5625 -0.71875q-1.0 0 -1.546875 0.734375q-0.546875 0.71875 -0.546875 1.859375zm9.744263 -3.59375q1.5625 0 2.453125 1.015625q0.890625 1.0 0.890625 2.59375q0 1.609375 -0.921875 2.609375q-0.90625 0.984375 -2.421875 0.984375q-1.5 0 -2.421875 -0.96875q-0.921875 -0.984375 -0.921875 -2.625q0 -1.640625 0.90625 -2.625q0.90625 -0.984375 2.4375 -0.984375zm-2.15625 3.609375q0 1.1875 0.609375 1.890625q0.609375 0.703125 1.546875 0.703125q0.921875 0 1.53125 -0.703125q0.609375 -0.71875 0.609375 -1.890625q0 -1.171875 -0.609375 -1.890625q-0.59375 -0.71875 -1.546875 -0.71875q-0.90625 0 -1.53125 0.703125q-0.609375 0.703125 -0.609375 1.90625zm9.715759 -3.609375q1.25 0 2.03125 0.609375q0.796875 0.59375 0.9375 1.765625l-1.171875 0q-0.140625 -0.671875 -0.59375 -1.015625q-0.4375 -0.359375 -1.109375 -0.359375q-1.0625 0 -1.609375 0.703125q-0.546875 0.703125 -0.546875 1.984375q0 1.140625 0.546875 1.828125q0.546875 0.6875 1.46875 0.6875q0.828125 0 1.296875 -0.4375q0.484375 -0.453125 0.59375 -1.234375l1.15625 0q-0.1875 1.28125 -0.96875 1.984375q-0.78125 0.6875 -2.0625 0.6875q-1.5 0 -2.359375 -0.9375q-0.859375 -0.953125 -0.859375 -2.578125q0 -1.6875 0.859375 -2.6875q0.875 -1.0 2.390625 -1.0zm5.4086914 -2.46875l0 3.640625l0.03125 0q0.25 -0.5625 0.828125 -0.859375q0.59375 -0.3125 1.34375 -0.3125q1.25 0 1.8125 0.640625q0.5625 0.640625 0.5625 1.8125l0 4.59375l-1.140625 0l0 -4.703125q0 -0.59375 -0.375 -0.96875q-0.375 -0.375 -1.03125 -0.375q-0.953125 0 -1.5 0.59375q-0.53125 0.578125 -0.53125 1.515625l0 3.9375l-1.125 0l0 -9.515625l1.125 0z" fill-rule="nonzero"/><path fill="#ffffff" d="m691.0863 108.31265l-0.234375 1.03125l-1.265625 0l0.234375 -1.03125l1.265625 0zm-0.375 1.734375l-0.96875 4.59375l-1.265625 0l0.96875 -4.59375l1.265625 0zm3.1864624 0.109375l0 1.765625l1.78125 0l0 0.953125l-1.78125 0l0 1.765625l-0.9375 0l0 -1.765625l-1.78125 0l0 -0.953125l1.78125 0l0 -1.765625l0.9375 0zm6.5289917 -1.734375l-1.3125 6.21875l-1.34375 0l0.84375 -4.03125l-1.515625 0l0.203125 -0.953125q0.84375 -0.03125 1.3125 -0.3125q0.484375 -0.296875 0.78125 -0.921875l1.03125 0z" fill-rule="nonzero"/><path fill="#000000" fill-opacity="0.0" d="m43.345146 19.737534l50.015747 0l0 34.96063l-50.015747 0z" fill-rule="evenodd"/><path fill="#ffffff" d="m62.451828 31.821283l0 1.6406231l1.09375 0l0 0.8125l-1.09375 0l0 3.4375q0 0.421875 0.265625 0.453125q0.28125 0.015625 0.578125 0.015625l0.25 0l0 0.796875l-0.734375 0q-0.75 0 -1.015625 -0.265625q-0.25 -0.265625 -0.25 -0.890625l0 -3.546875l-0.9375 0l0 -0.8125l0.9375 0l0 -1.6406231l0.90625 0zm7.2935944 3.015623l0 0.734375l-5.359375 0l0 -0.734375l5.359375 0zm0 2.15625l0 0.71875l-5.359375 0l0 -0.71875l5.359375 0zm3.4729156 -5.578123q0.640625 0 1.109375 0.21875q0.46875 0.203125 0.78125 0.6249981q0.640625 0.8125 0.640625 3.015625q0 1.09375 -0.15625 1.84375q-0.15625 0.734375 -0.484375 1.15625q-0.3125 0.40625 -0.78125 0.625q-0.46875 0.203125 -1.109375 0.203125q-1.25 0 -1.875 -0.84375q-0.625 -0.84375 -0.625 -2.984375q0 -2.171875 0.625 -3.015625q0.640625 -0.8437481 1.875 -0.8437481zm-1.546875 3.843748q0 0.90625 0.09375 1.5q0.109375 0.59375 0.296875 0.921875q0.40625 0.625 1.15625 0.625q0.84375 0 1.21875 -0.71875q0.171875 -0.375 0.25 -0.9375q0.09375 -0.5625 0.09375 -1.359375q0 -0.265625 -0.015625 -0.59375q0 -0.328125 -0.046875 -0.65625q-0.03125 -0.34375 -0.125 -0.671875q-0.09375 -0.328125 -0.265625 -0.578125q-0.171875 -0.25 -0.4375 -0.40625q-0.265625 -0.15625 -0.671875 -0.15625q-0.359375 0 -0.65625 0.15625q-0.28125 0.140625 -0.484375 0.453125q-0.40625 0.625 -0.40625 2.421875z" fill-rule="nonzero"/><path fill="#000000" fill-opacity="0.0" d="m413.56036 19.737534l50.015747 0l0 34.96063l-50.015747 0z" fill-rule="evenodd"/><path fill="#ffffff" d="m429.7038 31.821283l0 1.6406231l1.09375 0l0 0.8125l-1.09375 0l0 3.4375q0 0.421875 0.265625 0.453125q0.28125 0.015625 0.578125 0.015625l0.25 0l0 0.796875l-0.734375 0q-0.75 0 -1.015625 -0.265625q-0.25 -0.265625 -0.25 -0.890625l0 -3.546875l-0.9375 0l0 -0.8125l0.9375 0l0 -1.6406231l0.90625 0zm7.2936096 3.015623l0 0.734375l-5.359375 0l0 -0.734375l5.359375 0zm0 2.15625l0 0.71875l-5.359375 0l0 -0.71875l5.359375 0zm3.3635254 -5.578123q1.3125 0 1.953125 0.9062481q0.640625 0.890625 0.640625 2.71875q0 2.078125 -0.65625 3.078125q-0.65625 0.984375 -1.96875 0.984375q-0.96875 0 -1.578125 -0.484375q-0.609375 -0.5 -0.71875 -1.46875l0.90625 0q0.078125 0.5625 0.453125 0.859375q0.390625 0.296875 0.9375 0.296875q0.828125 0 1.234375 -0.71875q0.421875 -0.71875 0.46875 -2.203125l-0.015625 -0.015625q-0.265625 0.484375 -0.734375 0.765625q-0.453125 0.265625 -1.03125 0.265625q-1.09375 0 -1.734375 -0.671875q-0.640625 -0.671875 -0.640625 -1.84375q0 -1.078125 0.703125 -1.765625q0.703125 -0.7031231 1.78125 -0.7031231zm-1.515625 2.593748q0 0.65625 0.4375 1.140625q0.4375 0.46875 1.046875 0.46875q0.671875 0 1.109375 -0.484375q0.4375 -0.484375 0.4375 -1.1875q0 -0.734375 -0.421875 -1.21875q-0.421875 -0.5 -1.140625 -0.5q-0.6875 0 -1.078125 0.484375q-0.390625 0.46875 -0.390625 1.296875zm7.5515137 -2.593748q0.640625 0 1.109375 0.21875q0.46875 0.203125 0.78125 0.6249981q0.640625 0.8125 0.640625 3.015625q0 1.09375 -0.15625 1.84375q-0.15625 0.734375 -0.484375 1.15625q-0.3125 0.40625 -0.78125 0.625q-0.46875 0.203125 -1.109375 0.203125q-1.25 0 -1.875 -0.84375q-0.625 -0.84375 -0.625 -2.984375q0 -2.171875 0.625 -3.015625q0.640625 -0.8437481 1.875 -0.8437481zm-1.546875 3.843748q0 0.90625 0.09375 1.5q0.109375 0.59375 0.296875 0.921875q0.40625 0.625 1.15625 0.625q0.84375 0 1.21875 -0.71875q0.171875 -0.375 0.25 -0.9375q0.09375 -0.5625 0.09375 -1.359375q0 -0.265625 -0.015625 -0.59375q0 -0.328125 -0.046875 -0.65625q-0.03125 -0.34375 -0.125 -0.671875q-0.09375 -0.328125 -0.265625 -0.578125q-0.171875 -0.25 -0.4375 -0.40625q-0.265625 -0.15625 -0.671875 -0.15625q-0.359375 0 -0.65625 0.15625q-0.28125 0.140625 -0.484375 0.453125q-0.40625 0.625 -0.40625 2.421875z" fill-rule="nonzero"/><path fill="#000000" fill-opacity="0.0" d="m866.6391 19.737534l50.015747 0l0 34.96063l-50.015747 0z" fill-rule="evenodd"/><path fill="#ffffff" d="m879.8193 31.821283l0 1.6406231l1.09375 0l0 0.8125l-1.09375 0l0 3.4375q0 0.421875 0.265625 0.453125q0.28125 0.015625 0.578125 0.015625l0.25 0l0 0.796875l-0.734375 0q-0.75 0 -1.015625 -0.265625q-0.25 -0.265625 -0.25 -0.890625l0 -3.546875l-0.9375 0l0 -0.8125l0.9375 0l0 -1.6406231l0.90625 0zm7.29364 3.015623l0 0.734375l-5.359375 0l0 -0.734375l5.359375 0zm0 2.15625l0 0.71875l-5.359375 0l0 -0.71875l5.359375 0zm4.3166504 -5.578123l0 7.562498l-0.90625 0l0 -5.40625l-1.96875 0l0 -0.734375l0.03125 0q0.96875 0 1.484375 -0.34375q0.53125 -0.34375 0.65625 -1.0781231l0.703125 0zm5.0358887 0q1.078125 0 1.6875 0.53125q0.609375 0.5312481 0.609375 1.4062481q0 0.484375 -0.265625 0.90625q-0.265625 0.421875 -0.78125 0.65625q0.65625 0.203125 1.0 0.6875q0.34375 0.484375 0.34375 1.203125q0 1.03125 -0.703125 1.671875q-0.703125 0.625 -1.8125 0.625q-1.15625 0 -1.859375 -0.609375q-0.703125 -0.609375 -0.703125 -1.6875q0 -0.671875 0.34375 -1.171875q0.34375 -0.5 0.984375 -0.71875q-0.5 -0.203125 -0.78125 -0.625q-0.28125 -0.4375 -0.28125 -0.9375q0 -0.859375 0.640625 -1.3906231q0.640625 -0.546875 1.578125 -0.546875zm-1.25 1.9687481q0 0.546875 0.359375 0.890625q0.359375 0.328125 0.96875 0.328125q0.578125 0 0.90625 -0.328125q0.34375 -0.328125 0.34375 -0.890625q0 -0.546875 -0.34375 -0.84375q-0.328125 -0.3125 -0.9375 -0.3125q-0.578125 0 -0.9375 0.328125q-0.359375 0.3125 -0.359375 0.828125zm-0.265625 3.453125q0 0.671875 0.4375 1.078125q0.453125 0.390625 1.15625 0.390625q0.671875 0 1.109375 -0.40625q0.4375 -0.421875 0.4375 -1.0625q0 -0.59375 -0.453125 -1.015625q-0.453125 -0.421875 -1.109375 -0.421875q-0.671875 0 -1.125 0.40625q-0.453125 0.40625 -0.453125 1.03125zm7.4889526 -5.421873q0.640625 0 1.109375 0.21875q0.46875 0.203125 0.78125 0.6249981q0.640625 0.8125 0.640625 3.015625q0 1.09375 -0.15625 1.84375q-0.15625 0.734375 -0.484375 1.15625q-0.3125 0.40625 -0.78125 0.625q-0.46875 0.203125 -1.109375 0.203125q-1.25 0 -1.875 -0.84375q-0.625 -0.84375 -0.625 -2.984375q0 -2.171875 0.625 -3.015625q0.640625 -0.8437481 1.875 -0.8437481zm-1.546875 3.843748q0 0.90625 0.09375 1.5q0.109375 0.59375 0.296875 0.921875q0.40625 0.625 1.15625 0.625q0.84375 0 1.21875 -0.71875q0.171875 -0.375 0.25 -0.9375q0.09375 -0.5625 0.09375 -1.359375q0 -0.265625 -0.015625 -0.59375q0 -0.328125 -0.046875 -0.65625q-0.03125 -0.34375 -0.125 -0.671875q-0.09375 -0.328125 -0.265625 -0.578125q-0.171875 -0.25 -0.4375 -0.40625q-0.265625 -0.15625 -0.671875 -0.15625q-0.359375 0 -0.65625 0.15625q-0.28125 0.140625 -0.484375 0.453125q-0.40625 0.625 -0.40625 2.421875z" fill-rule="nonzero"/></g></svg>