<svg width="960" height="461" viewBox="0 0 960 461" fill="none" xmlns="http://www.w3.org/2000/svg">
<g clip-path="url(#clip0_6_1061)">
<mask id="mask0_6_1061" style="mask-type:luminance" maskUnits="userSpaceOnUse" x="0" y="0" width="960" height="461">
<path d="M0 0H960V460.724H0V0Z" fill="white"/>
</mask>
<g mask="url(#mask0_6_1061)">
<path fill-rule="evenodd" clip-rule="evenodd" d="M70.1211 232.059H439.129V290.862H70.1211V232.059Z" stroke="white" stroke-miterlimit="10" stroke-linejoin="round"/>
<path d="M234.952 248.51C236.004 248.51 236.884 248.786 237.592 249.338C238.301 249.88 238.728 250.635 238.874 251.604H237.608C237.462 250.958 237.155 250.463 236.686 250.12C236.217 249.765 235.634 249.588 234.936 249.588C233.926 249.588 233.134 249.943 232.561 250.651C231.999 251.359 231.717 252.286 231.717 253.432C231.717 254.651 231.993 255.62 232.545 256.338C233.108 257.057 233.91 257.417 234.952 257.417C235.722 257.417 236.358 257.172 236.858 256.682C237.358 256.193 237.639 255.526 237.702 254.682H238.967C238.832 255.911 238.405 256.854 237.686 257.51C236.967 258.167 236.019 258.495 234.842 258.495C233.478 258.495 232.405 258.042 231.624 257.135C230.842 256.229 230.452 255.026 230.452 253.526C230.452 252.047 230.853 250.844 231.655 249.917C232.467 248.979 233.566 248.51 234.952 248.51ZM243.327 251.213C244.368 251.213 245.186 251.552 245.78 252.229C246.374 252.896 246.671 253.76 246.671 254.823C246.671 255.896 246.363 256.765 245.749 257.432C245.145 258.088 244.337 258.417 243.327 258.417C242.327 258.417 241.52 258.094 240.905 257.448C240.29 256.792 239.983 255.917 239.983 254.823C239.983 253.729 240.285 252.854 240.889 252.198C241.493 251.542 242.306 251.213 243.327 251.213ZM241.171 254.823C241.171 255.614 241.374 256.245 241.78 256.713C242.186 257.182 242.702 257.417 243.327 257.417C243.941 257.417 244.452 257.182 244.858 256.713C245.264 256.234 245.467 255.604 245.467 254.823C245.467 254.042 245.264 253.411 244.858 252.932C244.462 252.453 243.947 252.213 243.311 252.213C242.707 252.213 242.197 252.448 241.78 252.917C241.374 253.385 241.171 254.021 241.171 254.823ZM251.324 251.213C251.824 251.213 252.235 251.318 252.558 251.526C252.881 251.724 253.1 252.01 253.214 252.385C253.454 252.01 253.761 251.724 254.136 251.526C254.511 251.318 254.928 251.213 255.386 251.213C256.157 251.213 256.73 251.39 257.105 251.745C257.48 252.088 257.668 252.562 257.668 253.167V258.26H256.543V253.698C256.543 253.198 256.433 252.828 256.214 252.588C256.006 252.338 255.668 252.213 255.199 252.213C254.636 252.213 254.194 252.38 253.871 252.713C253.558 253.036 253.402 253.443 253.402 253.932V258.26H252.261V253.698C252.261 253.198 252.157 252.828 251.949 252.588C251.74 252.338 251.418 252.213 250.98 252.213C250.615 252.213 250.293 252.302 250.011 252.479C249.74 252.646 249.527 252.88 249.371 253.182C249.214 253.484 249.136 253.739 249.136 253.948V258.26H248.011V251.37H249.074V252.385H249.105C249.365 251.989 249.678 251.698 250.043 251.51C250.407 251.312 250.834 251.213 251.324 251.213ZM262.693 251.213C263.193 251.213 263.605 251.318 263.927 251.526C264.25 251.724 264.469 252.01 264.584 252.385C264.823 252.01 265.131 251.724 265.506 251.526C265.881 251.318 266.297 251.213 266.756 251.213C267.526 251.213 268.099 251.39 268.474 251.745C268.849 252.088 269.037 252.562 269.037 253.167V258.26H267.912V253.698C267.912 253.198 267.802 252.828 267.584 252.588C267.375 252.338 267.037 252.213 266.568 252.213C266.006 252.213 265.563 252.38 265.24 252.713C264.927 253.036 264.771 253.443 264.771 253.932V258.26H263.631V253.698C263.631 253.198 263.526 252.828 263.318 252.588C263.11 252.338 262.787 252.213 262.349 252.213C261.985 252.213 261.662 252.302 261.381 252.479C261.11 252.646 260.896 252.88 260.74 253.182C260.584 253.484 260.506 253.739 260.506 253.948V258.26H259.381V251.37H260.443V252.385H260.474C260.735 251.989 261.047 251.698 261.412 251.51C261.776 251.312 262.204 251.213 262.693 251.213ZM271.937 248.745V250.135H270.812V248.745H271.937ZM271.937 251.37V258.26H270.812V251.37H271.937ZM275.273 249.307V251.37H276.648V252.37H275.273V256.682C275.273 257.026 275.388 257.208 275.617 257.229C275.846 257.25 276.086 257.26 276.336 257.26H276.648V258.26H275.711C275.096 258.26 274.68 258.151 274.461 257.932C274.253 257.713 274.148 257.344 274.148 256.823V252.37H272.961V251.37H274.148V249.307H275.273Z" fill="white"/>
<path d="M279.549 256.932L279.315 257.963H278.049L278.284 256.932H279.549ZM279.174 258.667L278.206 263.26H276.94L277.909 258.667H279.174Z" fill="white"/>
<path d="M247.443 264.807C248.537 264.807 249.349 265.182 249.88 265.932C250.412 266.682 250.677 267.818 250.677 269.338C250.677 271.078 250.401 272.359 249.849 273.182C249.307 274.005 248.49 274.417 247.396 274.417C246.583 274.417 245.922 274.213 245.412 273.807C244.912 273.39 244.62 272.781 244.537 271.979H245.662C245.724 272.437 245.912 272.792 246.224 273.042C246.547 273.292 246.938 273.417 247.396 273.417C248.094 273.417 248.615 273.12 248.958 272.526C249.302 271.922 249.495 271.005 249.537 269.776L249.505 269.745C249.287 270.151 248.985 270.469 248.599 270.698C248.214 270.927 247.781 271.042 247.302 271.042C246.386 271.042 245.662 270.76 245.13 270.198C244.599 269.635 244.333 268.864 244.333 267.885C244.333 266.989 244.625 266.255 245.208 265.682C245.792 265.099 246.537 264.807 247.443 264.807ZM245.537 268.042C245.537 268.583 245.719 269.057 246.083 269.463C246.448 269.859 246.886 270.057 247.396 270.057C247.958 270.057 248.422 269.854 248.787 269.448C249.151 269.042 249.333 268.547 249.333 267.963C249.333 267.359 249.156 266.849 248.802 266.432C248.458 266.015 247.985 265.807 247.38 265.807C246.797 265.807 246.344 266.01 246.021 266.417C245.698 266.812 245.537 267.354 245.537 268.042ZM254.996 264.807C255.527 264.807 255.986 264.896 256.371 265.073C256.756 265.239 257.085 265.5 257.355 265.854C257.887 266.531 258.152 267.786 258.152 269.62C258.152 270.536 258.085 271.307 257.949 271.932C257.824 272.547 257.626 273.031 257.355 273.385C257.095 273.719 256.767 273.974 256.371 274.151C255.986 274.328 255.527 274.417 254.996 274.417C253.944 274.417 253.157 274.068 252.637 273.37C252.116 272.661 251.855 271.411 251.855 269.62C251.855 267.807 252.116 266.557 252.637 265.87C253.168 265.161 253.954 264.807 254.996 264.807ZM253.043 269.604C253.043 270.364 253.085 270.995 253.168 271.495C253.262 271.984 253.387 272.364 253.543 272.635C253.876 273.156 254.361 273.417 254.996 273.417C255.694 273.417 256.199 273.114 256.512 272.51C256.657 272.208 256.767 271.823 256.84 271.354C256.913 270.875 256.949 270.307 256.949 269.651C256.949 269.422 256.944 269.172 256.933 268.901C256.933 268.63 256.913 268.354 256.871 268.073C256.84 267.792 256.782 267.515 256.699 267.245C256.626 266.974 256.522 266.734 256.387 266.526C256.241 266.318 256.053 266.146 255.824 266.01C255.605 265.875 255.324 265.807 254.98 265.807C254.678 265.807 254.407 265.875 254.168 266.01C253.939 266.135 253.736 266.328 253.558 266.588C253.215 267.099 253.043 268.104 253.043 269.604ZM261.846 267.213C262.773 267.213 263.461 267.396 263.908 267.76C264.367 268.114 264.617 268.651 264.658 269.37H263.533V269.354C263.502 268.989 263.341 268.708 263.049 268.51C262.757 268.312 262.388 268.213 261.94 268.213C261.481 268.213 261.117 268.292 260.846 268.448C260.586 268.594 260.455 268.807 260.455 269.088C260.455 269.338 260.57 269.547 260.799 269.713C261.039 269.87 261.393 269.995 261.862 270.088L262.924 270.338C263.591 270.484 264.096 270.713 264.44 271.026C264.794 271.328 264.971 271.734 264.971 272.245C264.971 272.922 264.705 273.453 264.174 273.838C263.653 274.224 262.94 274.417 262.033 274.417C261.158 274.417 260.461 274.224 259.94 273.838C259.429 273.443 259.153 272.859 259.112 272.088H260.252C260.263 272.515 260.429 272.844 260.752 273.073C261.086 273.302 261.533 273.417 262.096 273.417C262.648 273.417 263.065 273.333 263.346 273.167C263.627 272.989 263.768 272.729 263.768 272.385C263.768 272.083 263.627 271.844 263.346 271.667C263.065 271.479 262.492 271.302 261.627 271.135C260.763 270.958 260.153 270.719 259.799 270.417C259.445 270.104 259.268 269.687 259.268 269.167C259.268 268.562 259.513 268.088 260.002 267.745C260.492 267.39 261.106 267.213 261.846 267.213Z" fill="white"/>
<path fill-rule="evenodd" clip-rule="evenodd" d="M439.133 232.059H637.873V290.862H439.133V232.059Z" stroke="white" stroke-miterlimit="10" stroke-linejoin="round"/>
<path d="M522.801 248.745C523.624 248.745 524.301 248.963 524.833 249.401C525.364 249.838 525.629 250.453 525.629 251.245C525.629 251.87 525.494 252.39 525.223 252.807C524.952 253.213 524.536 253.495 523.973 253.651V253.667C524.463 253.771 524.817 254 525.036 254.354C525.265 254.698 525.4 255.302 525.442 256.167C525.463 256.719 525.515 257.156 525.598 257.479C525.681 257.792 525.801 258.052 525.958 258.26H524.551C524.468 258.156 524.416 258.052 524.395 257.948C524.374 257.844 524.353 257.703 524.333 257.526L524.27 256.479C524.26 255.989 524.155 255.495 523.958 254.995C523.76 254.484 523.327 254.219 522.661 254.198H519.52V258.26H518.27V248.745H522.801ZM522.239 253.135C522.937 253.135 523.463 253 523.817 252.729C524.181 252.448 524.364 252.015 524.364 251.432C524.364 250.922 524.218 250.526 523.926 250.245C523.645 249.953 523.244 249.807 522.723 249.807H519.52V253.135H522.239ZM530.072 251.213C531.062 251.213 531.828 251.573 532.369 252.292C532.921 253 533.197 253.911 533.197 255.026V255.151H528.026V255.245C528.026 255.901 528.218 256.427 528.604 256.823C528.989 257.219 529.515 257.417 530.182 257.417C530.682 257.417 531.078 257.302 531.369 257.073C531.671 256.833 531.869 256.5 531.963 256.073H533.088C532.932 256.833 532.593 257.417 532.072 257.823C531.562 258.219 530.916 258.417 530.135 258.417C529.416 258.417 528.807 258.255 528.307 257.932C527.807 257.609 527.437 257.156 527.197 256.573C526.958 255.979 526.838 255.38 526.838 254.776C526.838 253.755 527.14 252.906 527.744 252.229C528.359 251.552 529.135 251.213 530.072 251.213ZM528.026 254.151H531.994C531.953 253.588 531.744 253.125 531.369 252.76C531.005 252.396 530.546 252.213 529.994 252.213C529.473 252.213 529.026 252.39 528.651 252.745C528.286 253.088 528.078 253.557 528.026 254.151ZM534.966 251.37L536.903 257.12H536.919L538.809 251.37H539.981L537.466 258.26H536.262L533.7 251.37H534.966ZM543.895 251.213C544.885 251.213 545.65 251.573 546.192 252.292C546.744 253 547.02 253.911 547.02 255.026V255.151H541.848V255.245C541.848 255.901 542.041 256.427 542.426 256.823C542.812 257.219 543.338 257.417 544.005 257.417C544.505 257.417 544.9 257.302 545.192 257.073C545.494 256.833 545.692 256.5 545.786 256.073H546.911C546.755 256.833 546.416 257.417 545.895 257.823C545.385 258.219 544.739 258.417 543.958 258.417C543.239 258.417 542.63 258.255 542.13 257.932C541.63 257.609 541.26 257.156 541.02 256.573C540.781 255.979 540.661 255.38 540.661 254.776C540.661 253.755 540.963 252.906 541.567 252.229C542.182 251.552 542.958 251.213 543.895 251.213ZM541.848 254.151H545.817C545.775 253.588 545.567 253.125 545.192 252.76C544.827 252.396 544.369 252.213 543.817 252.213C543.296 252.213 542.848 252.39 542.473 252.745C542.109 253.088 541.9 253.557 541.848 254.151ZM551.007 251.213C551.944 251.213 552.606 251.38 552.991 251.713C553.387 252.047 553.585 252.495 553.585 253.057C553.585 255.443 553.585 256.765 553.585 257.026C553.585 257.286 553.705 257.417 553.944 257.417C553.997 257.417 554.054 257.411 554.116 257.401C554.179 257.39 554.236 257.375 554.288 257.354V258.229C554.184 258.292 554.064 258.338 553.929 258.37C553.793 258.401 553.648 258.417 553.491 258.417C553.179 258.417 552.939 258.333 552.773 258.167C552.606 257.989 552.523 257.719 552.523 257.354C552.22 257.708 551.866 257.974 551.46 258.151C551.054 258.328 550.601 258.417 550.101 258.417C549.382 258.417 548.819 258.25 548.413 257.917C548.017 257.583 547.819 257.109 547.819 256.495C547.819 255.87 548.017 255.38 548.413 255.026C548.809 254.661 549.736 254.385 551.194 254.198C551.684 254.135 552.017 254.042 552.194 253.917C552.372 253.792 552.46 253.604 552.46 253.354C552.46 252.969 552.335 252.682 552.085 252.495C551.845 252.307 551.46 252.213 550.929 252.213C550.366 252.213 549.944 252.318 549.663 252.526C549.382 252.734 549.231 253.062 549.21 253.51H548.085C548.116 252.75 548.382 252.177 548.882 251.792C549.392 251.406 550.101 251.213 551.007 251.213ZM549.007 256.401C549.007 256.724 549.122 256.974 549.351 257.151C549.59 257.328 549.924 257.417 550.351 257.417C550.986 257.417 551.491 257.26 551.866 256.948C552.252 256.625 552.444 256.271 552.444 255.885V254.698C552.257 254.833 552.012 254.927 551.71 254.979C551.408 255.021 551.002 255.078 550.491 255.151C549.991 255.224 549.616 255.359 549.366 255.557C549.127 255.755 549.007 256.036 549.007 256.401ZM556.541 248.745V258.26H555.416V248.745H556.541Z" fill="white"/>
<path d="M559.955 256.932L559.72 257.963H558.455L558.689 256.932H559.955ZM559.58 258.667L558.611 263.26H557.345L558.314 258.667H559.58Z" fill="white"/>
<path d="M533.336 264.807V271.042H534.617V272.042H533.336V274.26H532.274V272.042H528.133V270.948L532.43 264.807H533.336ZM532.242 266.432L529.102 271.042H532.274V266.432H532.242ZM541.436 264.979V265.963H537.624L537.124 268.682L537.139 268.713C537.337 268.495 537.587 268.328 537.889 268.213C538.191 268.099 538.53 268.042 538.905 268.042C539.822 268.042 540.556 268.328 541.108 268.901C541.671 269.474 541.952 270.26 541.952 271.26C541.952 272.167 541.644 272.922 541.03 273.526C540.426 274.12 539.634 274.417 538.655 274.417C537.811 274.417 537.103 274.177 536.53 273.698C535.957 273.208 535.66 272.552 535.639 271.729V271.713H536.764C536.806 272.213 537.009 272.625 537.374 272.948C537.749 273.26 538.207 273.417 538.749 273.417C539.332 273.417 539.811 273.219 540.186 272.823C540.561 272.427 540.749 271.88 540.749 271.182C540.749 270.536 540.546 270.021 540.139 269.635C539.733 269.239 539.228 269.042 538.624 269.042C538.29 269.042 537.973 269.114 537.671 269.26C537.379 269.406 537.108 269.63 536.858 269.932L535.889 269.87L536.764 264.979H541.436ZM545.724 267.213C546.651 267.213 547.338 267.396 547.786 267.76C548.244 268.114 548.494 268.651 548.536 269.37H547.411V269.354C547.38 268.989 547.218 268.708 546.927 268.51C546.635 268.312 546.265 268.213 545.817 268.213C545.359 268.213 544.994 268.292 544.724 268.448C544.463 268.594 544.333 268.807 544.333 269.088C544.333 269.338 544.448 269.547 544.677 269.713C544.916 269.87 545.271 269.995 545.739 270.088L546.802 270.338C547.468 270.484 547.974 270.713 548.317 271.026C548.672 271.328 548.849 271.734 548.849 272.245C548.849 272.922 548.583 273.453 548.052 273.838C547.531 274.224 546.817 274.417 545.911 274.417C545.036 274.417 544.338 274.224 543.817 273.838C543.307 273.443 543.031 272.859 542.989 272.088H544.13C544.14 272.515 544.307 272.844 544.63 273.073C544.963 273.302 545.411 273.417 545.974 273.417C546.526 273.417 546.942 273.333 547.224 273.167C547.505 272.989 547.646 272.729 547.646 272.385C547.646 272.083 547.505 271.844 547.224 271.667C546.942 271.479 546.369 271.302 545.505 271.135C544.64 270.958 544.031 270.719 543.677 270.417C543.323 270.104 543.146 269.687 543.146 269.167C543.146 268.562 543.39 268.088 543.88 267.745C544.369 267.39 544.984 267.213 545.724 267.213Z" fill="white"/>
<path fill-rule="evenodd" clip-rule="evenodd" d="M637.893 232.059H726.744V290.862H637.893V232.059Z" stroke="white" stroke-miterlimit="10" stroke-linejoin="round"/>
<path d="M672.965 250.495C673.923 250.495 674.678 250.724 675.23 251.182C675.793 251.64 676.09 252.312 676.121 253.198H675.043C674.98 252.614 674.772 252.177 674.418 251.885C674.064 251.594 673.564 251.448 672.918 251.448C672.314 251.448 671.84 251.573 671.496 251.823C671.163 252.073 670.996 252.432 670.996 252.901C670.996 253.245 671.136 253.526 671.418 253.745C671.709 253.953 672.485 254.182 673.746 254.432C674.663 254.62 675.345 254.911 675.793 255.307C676.251 255.693 676.48 256.229 676.48 256.917C676.48 257.708 676.152 258.333 675.496 258.792C674.85 259.239 674.064 259.463 673.136 259.463C672.095 259.463 671.246 259.203 670.59 258.682C669.933 258.161 669.605 257.417 669.605 256.448H670.683C670.683 257.094 670.913 257.599 671.371 257.963C671.829 258.328 672.428 258.51 673.168 258.51C673.866 258.51 674.402 258.375 674.777 258.104C675.152 257.833 675.34 257.448 675.34 256.948C675.34 256.542 675.168 256.219 674.824 255.979C674.48 255.729 673.85 255.515 672.933 255.338C671.715 255.109 670.897 254.812 670.48 254.448C670.064 254.073 669.855 253.588 669.855 252.995C669.855 252.224 670.147 251.614 670.73 251.167C671.324 250.719 672.069 250.495 672.965 250.495ZM678.771 250.698V251.948H677.756V250.698H678.771ZM678.771 253.057V259.26H677.756V253.057H678.771ZM682.89 252.917C683.317 252.917 683.687 253.01 684 253.198C684.323 253.385 684.573 253.635 684.75 253.948V253.057H685.719V258.792C685.719 259.771 685.484 260.51 685.015 261.01C684.547 261.521 683.823 261.776 682.844 261.776C682.135 261.776 681.536 261.62 681.047 261.307C680.557 260.995 680.297 260.547 680.265 259.963H681.281C681.302 260.276 681.474 260.521 681.797 260.698C682.12 260.875 682.484 260.963 682.89 260.963C683.495 260.963 683.953 260.765 684.265 260.37C684.588 259.974 684.75 259.38 684.75 258.588V258.198H684.734C684.578 258.542 684.323 258.818 683.969 259.026C683.625 259.234 683.234 259.338 682.797 259.338C681.953 259.338 681.281 259.047 680.781 258.463C680.281 257.88 680.031 257.12 680.031 256.182C680.031 255.234 680.281 254.453 680.781 253.838C681.281 253.224 681.984 252.917 682.89 252.917ZM681.109 256.073C681.109 256.802 681.26 257.38 681.562 257.807C681.875 258.224 682.307 258.432 682.859 258.432C683.422 258.432 683.87 258.213 684.203 257.776C684.536 257.338 684.703 256.755 684.703 256.026C684.703 255.37 684.547 254.838 684.234 254.432C683.932 254.015 683.495 253.807 682.922 253.807C682.359 253.807 681.916 254.015 681.594 254.432C681.271 254.838 681.109 255.385 681.109 256.073ZM690.265 252.917C691.005 252.917 691.541 253.109 691.875 253.495C692.219 253.87 692.39 254.417 692.39 255.135V259.26H691.375V255.026C691.375 254.672 691.26 254.38 691.031 254.151C690.812 253.922 690.5 253.807 690.094 253.807C689.521 253.807 689.073 253.984 688.75 254.338C688.427 254.693 688.265 255.151 688.265 255.713V259.26H687.25V253.057H688.219V254.042H688.234C688.463 253.656 688.739 253.375 689.062 253.198C689.396 253.01 689.797 252.917 690.265 252.917Z" fill="white"/>
<path d="M695.658 257.932L695.424 258.963H694.158L694.392 257.932H695.658ZM695.283 259.667L694.314 264.26H693.049L694.017 259.667H695.283Z" fill="white"/>
<path d="M676.91 265.465V273.98H675.895V267.886H673.691V267.058H673.723C674.441 267.058 674.999 266.933 675.395 266.683C675.79 266.423 676.04 266.017 676.145 265.465H676.91ZM682.646 265.465C683.126 265.465 683.537 265.543 683.881 265.699C684.235 265.855 684.537 266.09 684.787 266.402C685.256 267.017 685.49 268.152 685.49 269.808C685.49 270.631 685.433 271.324 685.318 271.886C685.204 272.439 685.027 272.871 684.787 273.183C684.548 273.496 684.251 273.73 683.896 273.886C683.542 274.043 683.126 274.121 682.646 274.121C681.709 274.121 681.006 273.808 680.537 273.183C680.058 272.548 679.818 271.423 679.818 269.808C679.818 268.173 680.058 267.043 680.537 266.418C681.006 265.782 681.709 265.465 682.646 265.465ZM680.896 269.793C680.896 270.47 680.933 271.032 681.006 271.48C681.089 271.928 681.204 272.272 681.35 272.511C681.652 272.991 682.084 273.23 682.646 273.23C683.282 273.23 683.735 272.954 684.006 272.402C684.152 272.131 684.256 271.782 684.318 271.355C684.381 270.928 684.412 270.418 684.412 269.824C684.412 269.626 684.407 269.407 684.396 269.168C684.396 268.918 684.381 268.668 684.35 268.418C684.318 268.157 684.266 267.907 684.193 267.668C684.131 267.418 684.032 267.199 683.896 267.011C683.771 266.824 683.605 266.673 683.396 266.558C683.199 266.433 682.949 266.371 682.646 266.371C682.376 266.371 682.131 266.428 681.912 266.543C681.704 266.657 681.521 266.829 681.365 267.058C681.053 267.527 680.896 268.439 680.896 269.793ZM688.82 267.636C689.654 267.636 690.273 267.798 690.68 268.121C691.086 268.444 691.31 268.928 691.352 269.574H690.336V269.558C690.305 269.235 690.159 268.985 689.898 268.808C689.638 268.621 689.305 268.527 688.898 268.527C688.492 268.527 688.169 268.6 687.93 268.746C687.69 268.881 687.57 269.074 687.57 269.324C687.57 269.553 687.674 269.741 687.883 269.886C688.091 270.022 688.409 270.136 688.836 270.23L689.789 270.449C690.393 270.584 690.852 270.788 691.164 271.058C691.477 271.329 691.633 271.699 691.633 272.168C691.633 272.782 691.393 273.261 690.914 273.605C690.445 273.949 689.805 274.121 688.992 274.121C688.201 274.121 687.57 273.944 687.102 273.59C686.643 273.235 686.398 272.715 686.367 272.027H687.383C687.393 272.413 687.544 272.709 687.836 272.918C688.138 273.126 688.544 273.23 689.055 273.23C689.544 273.23 689.914 273.152 690.164 272.996C690.424 272.84 690.555 272.605 690.555 272.293C690.555 272.022 690.424 271.808 690.164 271.652C689.914 271.485 689.398 271.324 688.617 271.168C687.836 271.011 687.284 270.793 686.961 270.511C686.648 270.23 686.492 269.86 686.492 269.402C686.492 268.86 686.711 268.433 687.148 268.121C687.596 267.798 688.154 267.636 688.82 267.636Z" fill="white"/>
<path fill-rule="evenodd" clip-rule="evenodd" d="M726.695 232.059H815.545V290.862H726.695V232.059Z" stroke="white" stroke-miterlimit="10" stroke-linejoin="round"/>
<path d="M757.685 250.418V251.371H753.2V254.09H757.138V255.058H753.2V258.98H752.06V250.418H757.685ZM759.856 250.418V251.668H758.841V250.418H759.856ZM759.856 252.777V258.98H758.841V252.777H759.856ZM764.46 252.636C765.2 252.636 765.736 252.829 766.069 253.215C766.413 253.59 766.585 254.136 766.585 254.855V258.98H765.569V254.746C765.569 254.392 765.455 254.1 765.226 253.871C765.007 253.642 764.694 253.527 764.288 253.527C763.715 253.527 763.267 253.704 762.944 254.058C762.621 254.413 762.46 254.871 762.46 255.433V258.98H761.444V252.777H762.413V253.761H762.429C762.658 253.376 762.934 253.095 763.257 252.918C763.59 252.73 763.991 252.636 764.46 252.636ZM770.665 252.636C771.509 252.636 772.103 252.788 772.446 253.09C772.8 253.392 772.978 253.793 772.978 254.293C772.978 256.449 772.978 257.647 772.978 257.886C772.978 258.116 773.087 258.23 773.306 258.23C773.358 258.23 773.41 258.225 773.462 258.215C773.514 258.194 773.566 258.178 773.618 258.168V258.949C773.524 259.011 773.415 259.053 773.29 259.074C773.165 259.105 773.03 259.121 772.884 259.121C772.603 259.121 772.389 259.043 772.243 258.886C772.097 258.73 772.024 258.491 772.024 258.168C771.754 258.491 771.436 258.73 771.071 258.886C770.707 259.043 770.295 259.121 769.837 259.121C769.201 259.121 768.701 258.97 768.337 258.668C767.972 258.366 767.79 257.939 767.79 257.386C767.79 256.824 767.967 256.381 768.321 256.058C768.675 255.735 769.509 255.491 770.821 255.324C771.269 255.261 771.571 255.178 771.728 255.074C771.894 254.959 771.978 254.788 771.978 254.558C771.978 254.215 771.863 253.959 771.634 253.793C771.415 253.616 771.066 253.527 770.587 253.527C770.087 253.527 769.707 253.626 769.446 253.824C769.196 254.011 769.061 254.308 769.04 254.715H768.024C768.056 254.027 768.295 253.511 768.743 253.168C769.201 252.814 769.842 252.636 770.665 252.636ZM768.868 257.308C768.868 257.6 768.972 257.829 769.181 257.996C769.389 258.152 769.686 258.23 770.071 258.23C770.644 258.23 771.103 258.09 771.446 257.808C771.79 257.517 771.962 257.194 771.962 256.84V255.777C771.785 255.892 771.561 255.975 771.29 256.027C771.019 256.069 770.655 256.121 770.196 256.183C769.748 256.246 769.415 256.371 769.196 256.558C768.978 256.735 768.868 256.985 768.868 257.308ZM775.642 250.418V258.98H774.626V250.418H775.642ZM778.308 250.418V251.668H777.292V250.418H778.308ZM778.308 252.777V258.98H777.292V252.777H778.308ZM784.458 252.777V253.465L780.661 258.074H784.63V258.98H779.396V258.199L783.146 253.683H779.63V252.777H784.458ZM788.017 252.636C788.912 252.636 789.605 252.959 790.095 253.605C790.584 254.241 790.829 255.058 790.829 256.058V256.183H786.188V256.261C786.188 256.855 786.36 257.334 786.704 257.699C787.048 258.053 787.522 258.23 788.126 258.23C788.574 258.23 788.928 258.126 789.188 257.918C789.459 257.699 789.636 257.397 789.72 257.011H790.735C790.6 257.699 790.298 258.225 789.829 258.59C789.36 258.944 788.777 259.121 788.079 259.121C787.433 259.121 786.881 258.975 786.423 258.683C785.975 258.392 785.642 257.985 785.423 257.465C785.215 256.933 785.11 256.392 785.11 255.84C785.11 254.923 785.386 254.163 785.938 253.558C786.491 252.944 787.183 252.636 788.017 252.636ZM786.188 255.277H789.751C789.72 254.777 789.537 254.36 789.204 254.027C788.871 253.694 788.454 253.527 787.954 253.527C787.485 253.527 787.084 253.689 786.751 254.011C786.418 254.324 786.23 254.746 786.188 255.277Z" fill="white"/>
<path d="M765.712 264.465V272.98H764.696V266.886H762.493V266.058H762.524C763.243 266.058 763.8 265.933 764.196 265.683C764.592 265.423 764.842 265.017 764.946 264.465H765.712ZM771.448 264.465C771.927 264.465 772.339 264.543 772.683 264.699C773.037 264.855 773.339 265.09 773.589 265.402C774.058 266.017 774.292 267.152 774.292 268.808C774.292 269.631 774.235 270.324 774.12 270.886C774.006 271.439 773.828 271.871 773.589 272.183C773.349 272.496 773.052 272.73 772.698 272.886C772.344 273.043 771.927 273.121 771.448 273.121C770.511 273.121 769.808 272.808 769.339 272.183C768.86 271.548 768.62 270.423 768.62 268.808C768.62 267.173 768.86 266.043 769.339 265.418C769.808 264.782 770.511 264.465 771.448 264.465ZM769.698 268.793C769.698 269.47 769.735 270.032 769.808 270.48C769.891 270.928 770.006 271.272 770.151 271.511C770.453 271.991 770.886 272.23 771.448 272.23C772.084 272.23 772.537 271.954 772.808 271.402C772.953 271.131 773.058 270.782 773.12 270.355C773.183 269.928 773.214 269.418 773.214 268.824C773.214 268.626 773.209 268.407 773.198 268.168C773.198 267.918 773.183 267.668 773.151 267.418C773.12 267.157 773.068 266.907 772.995 266.668C772.933 266.418 772.834 266.199 772.698 266.011C772.573 265.824 772.407 265.673 772.198 265.558C772 265.433 771.75 265.371 771.448 265.371C771.177 265.371 770.933 265.428 770.714 265.543C770.506 265.657 770.323 265.829 770.167 266.058C769.854 266.527 769.698 267.439 769.698 268.793ZM777.622 266.636C778.455 266.636 779.075 266.798 779.481 267.121C779.888 267.444 780.112 267.928 780.153 268.574H779.138V268.558C779.106 268.235 778.961 267.985 778.7 267.808C778.44 267.621 778.106 267.527 777.7 267.527C777.294 267.527 776.971 267.6 776.731 267.746C776.492 267.881 776.372 268.074 776.372 268.324C776.372 268.553 776.476 268.741 776.685 268.886C776.893 269.022 777.211 269.136 777.638 269.23L778.591 269.449C779.195 269.584 779.653 269.788 779.966 270.058C780.278 270.329 780.435 270.699 780.435 271.168C780.435 271.782 780.195 272.261 779.716 272.605C779.247 272.949 778.606 273.121 777.794 273.121C777.002 273.121 776.372 272.944 775.903 272.59C775.445 272.235 775.2 271.715 775.169 271.027H776.185C776.195 271.413 776.346 271.709 776.638 271.918C776.94 272.126 777.346 272.23 777.856 272.23C778.346 272.23 778.716 272.152 778.966 271.996C779.226 271.84 779.356 271.605 779.356 271.293C779.356 271.022 779.226 270.808 778.966 270.652C778.716 270.485 778.2 270.324 777.419 270.168C776.638 270.011 776.086 269.793 775.763 269.511C775.45 269.23 775.294 268.86 775.294 268.402C775.294 267.86 775.513 267.433 775.95 267.121C776.398 266.798 776.955 266.636 777.622 266.636Z" fill="white"/>
<path d="M70.1211 214.654C70.1211 211.292 71.4567 208.067 73.8342 205.69C76.2116 203.313 79.4361 201.977 82.7983 201.977H306.516C313.517 201.977 319.193 196.301 319.193 189.3C319.193 196.301 324.868 201.977 331.87 201.977H800.121C807.122 201.977 812.798 207.653 812.798 214.654" stroke="#E62058" stroke-miterlimit="10" stroke-linejoin="round"/>
<path d="M70.0779 158.865C70.0779 155.503 71.4135 152.278 73.7909 149.901C76.1684 147.524 79.3929 146.188 82.7551 146.188H241.473C248.475 146.188 254.15 140.512 254.15 133.511C254.15 140.512 259.826 146.188 266.828 146.188H422.566C429.567 146.188 435.243 151.864 435.243 158.865" stroke="#E62058" stroke-miterlimit="10" stroke-linejoin="round"/>
<path d="M444.443 158.865C444.443 155.503 445.779 152.278 448.156 149.901C450.534 147.524 453.758 146.188 457.12 146.188H655.022C662.023 146.188 667.699 140.512 667.699 133.511C667.699 140.512 673.375 146.188 680.376 146.188H874.664C881.665 146.188 887.341 151.864 887.341 158.865" stroke="#E62058" stroke-miterlimit="10" stroke-linejoin="round"/>
<path fill-rule="evenodd" clip-rule="evenodd" d="M439.133 324.365H891.699V383.168H439.133V324.365Z" stroke="white" stroke-miterlimit="10" stroke-linejoin="round"/>
<path d="M640.612 340.816C641.664 340.816 642.544 341.092 643.252 341.645C643.961 342.186 644.388 342.941 644.534 343.91H643.268C643.122 343.264 642.815 342.77 642.346 342.426C641.877 342.072 641.294 341.895 640.596 341.895C639.586 341.895 638.794 342.249 638.221 342.957C637.659 343.665 637.377 344.592 637.377 345.738C637.377 346.957 637.653 347.926 638.206 348.645C638.768 349.363 639.57 349.723 640.612 349.723C641.383 349.723 642.018 349.478 642.518 348.988C643.018 348.499 643.299 347.832 643.362 346.988H644.627C644.492 348.217 644.065 349.16 643.346 349.816C642.627 350.473 641.68 350.801 640.502 350.801C639.138 350.801 638.065 350.348 637.284 349.441C636.502 348.535 636.112 347.332 636.112 345.832C636.112 344.353 636.513 343.15 637.315 342.223C638.127 341.285 639.226 340.816 640.612 340.816ZM648.987 343.52C650.029 343.52 650.846 343.858 651.44 344.535C652.034 345.202 652.331 346.066 652.331 347.129C652.331 348.202 652.023 349.072 651.409 349.738C650.805 350.395 649.997 350.723 648.987 350.723C647.987 350.723 647.18 350.4 646.565 349.754C645.951 349.098 645.643 348.223 645.643 347.129C645.643 346.035 645.945 345.16 646.549 344.504C647.154 343.848 647.966 343.52 648.987 343.52ZM646.831 347.129C646.831 347.921 647.034 348.551 647.44 349.02C647.846 349.488 648.362 349.723 648.987 349.723C649.602 349.723 650.112 349.488 650.518 349.02C650.924 348.54 651.128 347.91 651.128 347.129C651.128 346.348 650.924 345.717 650.518 345.238C650.122 344.759 649.607 344.52 648.971 344.52C648.367 344.52 647.857 344.754 647.44 345.223C647.034 345.691 646.831 346.327 646.831 347.129ZM656.984 343.52C657.484 343.52 657.895 343.624 658.218 343.832C658.541 344.03 658.76 344.316 658.875 344.691C659.114 344.316 659.422 344.03 659.797 343.832C660.172 343.624 660.588 343.52 661.047 343.52C661.817 343.52 662.39 343.697 662.765 344.051C663.14 344.395 663.328 344.868 663.328 345.473V350.566H662.203V346.004C662.203 345.504 662.093 345.134 661.875 344.895C661.666 344.645 661.328 344.52 660.859 344.52C660.297 344.52 659.854 344.686 659.531 345.02C659.218 345.342 659.062 345.749 659.062 346.238V350.566H657.922V346.004C657.922 345.504 657.817 345.134 657.609 344.895C657.401 344.645 657.078 344.52 656.64 344.52C656.276 344.52 655.953 344.608 655.672 344.785C655.401 344.952 655.187 345.186 655.031 345.488C654.875 345.79 654.797 346.046 654.797 346.254V350.566H653.672V343.676H654.734V344.691H654.765C655.026 344.296 655.338 344.004 655.703 343.816C656.067 343.618 656.494 343.52 656.984 343.52ZM668.353 343.52C668.853 343.52 669.265 343.624 669.588 343.832C669.911 344.03 670.129 344.316 670.244 344.691C670.483 344.316 670.791 344.03 671.166 343.832C671.541 343.624 671.957 343.52 672.416 343.52C673.187 343.52 673.76 343.697 674.135 344.051C674.51 344.395 674.697 344.868 674.697 345.473V350.566H673.572V346.004C673.572 345.504 673.463 345.134 673.244 344.895C673.036 344.645 672.697 344.52 672.228 344.52C671.666 344.52 671.223 344.686 670.9 345.02C670.588 345.342 670.431 345.749 670.431 346.238V350.566H669.291V346.004C669.291 345.504 669.187 345.134 668.978 344.895C668.77 344.645 668.447 344.52 668.01 344.52C667.645 344.52 667.322 344.608 667.041 344.785C666.77 344.952 666.556 345.186 666.4 345.488C666.244 345.79 666.166 346.046 666.166 346.254V350.566H665.041V343.676H666.103V344.691H666.135C666.395 344.296 666.707 344.004 667.072 343.816C667.437 343.618 667.864 343.52 668.353 343.52ZM677.598 341.051V342.441H676.473V341.051H677.598ZM677.598 343.676V350.566H676.473V343.676H677.598ZM680.934 341.613V343.676H682.309V344.676H680.934V348.988C680.934 349.332 681.048 349.514 681.277 349.535C681.507 349.556 681.746 349.566 681.996 349.566H682.309V350.566H681.371C680.757 350.566 680.34 350.457 680.121 350.238C679.913 350.02 679.809 349.65 679.809 349.129V344.676H678.621V343.676H679.809V341.613H680.934Z" fill="white"/>
<path d="M685.209 349.238L684.975 350.27H683.709L683.944 349.238H685.209ZM684.834 350.973L683.866 355.566H682.6L683.569 350.973H684.834ZM688.021 351.082V352.848H689.802V353.801H688.021V355.566H687.083V353.801H685.302V352.848H687.083V351.082H688.021ZM694.55 349.348L693.237 355.566H691.894L692.737 351.535H691.222L691.425 350.582C691.987 350.561 692.425 350.457 692.737 350.27C693.06 350.072 693.321 349.764 693.519 349.348H694.55Z" fill="white"/>
<path d="M658.234 357.113C659.328 357.113 660.14 357.488 660.671 358.238C661.203 358.988 661.468 360.124 661.468 361.645C661.468 363.384 661.192 364.665 660.64 365.488C660.098 366.311 659.281 366.723 658.187 366.723C657.375 366.723 656.713 366.52 656.203 366.113C655.703 365.697 655.411 365.087 655.328 364.285H656.453C656.515 364.743 656.703 365.098 657.015 365.348C657.338 365.598 657.729 365.723 658.187 365.723C658.885 365.723 659.406 365.426 659.75 364.832C660.093 364.228 660.286 363.311 660.328 362.082L660.296 362.051C660.078 362.457 659.776 362.775 659.39 363.004C659.005 363.233 658.572 363.348 658.093 363.348C657.177 363.348 656.453 363.066 655.921 362.504C655.39 361.941 655.125 361.171 655.125 360.191C655.125 359.296 655.416 358.561 656 357.988C656.583 357.405 657.328 357.113 658.234 357.113ZM656.328 360.348C656.328 360.889 656.51 361.363 656.875 361.77C657.239 362.165 657.677 362.363 658.187 362.363C658.75 362.363 659.213 362.16 659.578 361.754C659.942 361.348 660.125 360.853 660.125 360.27C660.125 359.665 659.947 359.155 659.593 358.738C659.25 358.322 658.776 358.113 658.171 358.113C657.588 358.113 657.135 358.316 656.812 358.723C656.489 359.118 656.328 359.66 656.328 360.348ZM665.787 357.113C666.318 357.113 666.777 357.202 667.162 357.379C667.547 357.546 667.876 357.806 668.146 358.16C668.678 358.837 668.943 360.092 668.943 361.926C668.943 362.842 668.876 363.613 668.74 364.238C668.615 364.853 668.417 365.337 668.146 365.691C667.886 366.025 667.558 366.28 667.162 366.457C666.777 366.634 666.318 366.723 665.787 366.723C664.735 366.723 663.948 366.374 663.428 365.676C662.907 364.967 662.646 363.717 662.646 361.926C662.646 360.113 662.907 358.863 663.428 358.176C663.959 357.467 664.745 357.113 665.787 357.113ZM663.834 361.91C663.834 362.671 663.876 363.301 663.959 363.801C664.053 364.29 664.178 364.671 664.334 364.941C664.667 365.462 665.152 365.723 665.787 365.723C666.485 365.723 666.99 365.421 667.303 364.816C667.448 364.514 667.558 364.129 667.631 363.66C667.704 363.181 667.74 362.613 667.74 361.957C667.74 361.728 667.735 361.478 667.724 361.207C667.724 360.936 667.704 360.66 667.662 360.379C667.631 360.098 667.573 359.822 667.49 359.551C667.417 359.28 667.313 359.04 667.178 358.832C667.032 358.624 666.844 358.452 666.615 358.316C666.396 358.181 666.115 358.113 665.771 358.113C665.469 358.113 665.198 358.181 664.959 358.316C664.73 358.441 664.527 358.634 664.349 358.895C664.006 359.405 663.834 360.41 663.834 361.91ZM672.637 359.52C673.564 359.52 674.252 359.702 674.699 360.066C675.158 360.421 675.408 360.957 675.449 361.676H674.324V361.66C674.293 361.296 674.132 361.014 673.84 360.816C673.548 360.618 673.179 360.52 672.731 360.52C672.272 360.52 671.908 360.598 671.637 360.754C671.377 360.9 671.246 361.113 671.246 361.395C671.246 361.645 671.361 361.853 671.59 362.02C671.83 362.176 672.184 362.301 672.653 362.395L673.715 362.645C674.382 362.79 674.887 363.02 675.231 363.332C675.585 363.634 675.762 364.04 675.762 364.551C675.762 365.228 675.496 365.759 674.965 366.145C674.444 366.53 673.731 366.723 672.824 366.723C671.949 366.723 671.252 366.53 670.731 366.145C670.22 365.749 669.944 365.165 669.903 364.395H671.043C671.054 364.822 671.22 365.15 671.543 365.379C671.877 365.608 672.324 365.723 672.887 365.723C673.439 365.723 673.856 365.639 674.137 365.473C674.418 365.296 674.559 365.035 674.559 364.691C674.559 364.389 674.418 364.15 674.137 363.973C673.856 363.785 673.283 363.608 672.418 363.441C671.554 363.264 670.944 363.025 670.59 362.723C670.236 362.41 670.059 361.993 670.059 361.473C670.059 360.868 670.304 360.395 670.793 360.051C671.283 359.697 671.897 359.52 672.637 359.52Z" fill="white"/>
<path d="M891.647 46.0262V440.987" stroke="white" stroke-miterlimit="10" stroke-linejoin="round" stroke-dasharray="4 3"/>
<path d="M438.569 46.0262V440.987" stroke="white" stroke-miterlimit="10" stroke-linejoin="round" stroke-dasharray="4 3"/>
<path d="M68.353 46.0262V440.987" stroke="white" stroke-miterlimit="10" stroke-linejoin="round" stroke-dasharray="4 3"/>
<path d="M274.728 167.328L277.447 175.578H277.478L280.228 167.328H281.541L278.15 176.844H276.713L273.353 167.328H274.728ZM284.779 169.797C285.82 169.797 286.638 170.135 287.232 170.812C287.825 171.479 288.122 172.344 288.122 173.406C288.122 174.479 287.815 175.349 287.2 176.016C286.596 176.672 285.789 177 284.779 177C283.779 177 282.971 176.677 282.357 176.031C281.742 175.375 281.435 174.5 281.435 173.406C281.435 172.312 281.737 171.438 282.341 170.781C282.945 170.125 283.758 169.797 284.779 169.797ZM282.622 173.406C282.622 174.198 282.825 174.828 283.232 175.297C283.638 175.766 284.154 176 284.779 176C285.393 176 285.904 175.766 286.31 175.297C286.716 174.818 286.919 174.188 286.919 173.406C286.919 172.625 286.716 171.995 286.31 171.516C285.914 171.036 285.398 170.797 284.763 170.797C284.159 170.797 283.648 171.031 283.232 171.5C282.825 171.969 282.622 172.604 282.622 173.406ZM291.026 167.891V169.953H292.401V170.953H291.026V175.266C291.026 175.609 291.14 175.792 291.369 175.812C291.598 175.833 291.838 175.844 292.088 175.844H292.401V176.844H291.463C290.848 176.844 290.432 176.734 290.213 176.516C290.005 176.297 289.901 175.927 289.901 175.406V170.953H288.713V169.953H289.901V167.891H291.026ZM294.848 167.328V168.719H293.723V167.328H294.848ZM294.848 169.953V176.844H293.723V169.953H294.848ZM299.95 169.797C300.783 169.797 301.387 170.01 301.762 170.438C302.137 170.865 302.325 171.469 302.325 172.25V176.844H301.184V172.141C301.184 171.745 301.059 171.422 300.809 171.172C300.559 170.922 300.215 170.797 299.778 170.797C299.143 170.797 298.643 170.995 298.278 171.391C297.924 171.776 297.747 172.281 297.747 172.906V176.844H296.622V169.953H297.684V171.047H297.715C297.965 170.62 298.273 170.307 298.637 170.109C299.002 169.901 299.439 169.797 299.95 169.797ZM306.831 169.797C307.31 169.797 307.727 169.901 308.081 170.109C308.435 170.318 308.706 170.594 308.894 170.938H308.909V169.953H309.972V176.328C309.972 177.411 309.711 178.234 309.19 178.797C308.67 179.359 307.867 179.641 306.784 179.641C305.992 179.641 305.326 179.464 304.784 179.109C304.242 178.766 303.956 178.271 303.925 177.625H305.05C305.071 177.969 305.258 178.24 305.612 178.438C305.977 178.635 306.383 178.734 306.831 178.734C307.508 178.734 308.024 178.51 308.378 178.062C308.732 177.625 308.909 176.974 308.909 176.109V175.672H308.878C308.701 176.057 308.42 176.365 308.034 176.594C307.649 176.812 307.211 176.922 306.722 176.922C305.795 176.922 305.05 176.604 304.487 175.969C303.935 175.323 303.659 174.479 303.659 173.438C303.659 172.385 303.935 171.516 304.487 170.828C305.05 170.141 305.831 169.797 306.831 169.797ZM304.847 173.297C304.847 174.12 305.019 174.766 305.362 175.234C305.706 175.693 306.185 175.922 306.8 175.922C307.425 175.922 307.92 175.682 308.284 175.203C308.659 174.714 308.847 174.068 308.847 173.266C308.847 172.526 308.675 171.932 308.331 171.484C307.987 171.026 307.503 170.797 306.878 170.797C306.242 170.797 305.742 171.026 305.378 171.484C305.024 171.932 304.847 172.536 304.847 173.297ZM320.109 167.328C320.932 167.328 321.609 167.547 322.14 167.984C322.672 168.422 322.937 169.036 322.937 169.828C322.937 170.453 322.802 170.974 322.531 171.391C322.26 171.797 321.844 172.078 321.281 172.234V172.25C321.771 172.354 322.125 172.583 322.344 172.938C322.573 173.281 322.708 173.885 322.75 174.75C322.771 175.302 322.823 175.74 322.906 176.062C322.989 176.375 323.109 176.635 323.265 176.844H321.859C321.776 176.74 321.724 176.635 321.703 176.531C321.682 176.427 321.661 176.286 321.64 176.109L321.578 175.062C321.567 174.573 321.463 174.078 321.265 173.578C321.067 173.068 320.635 172.802 319.969 172.781H316.828V176.844H315.578V167.328H320.109ZM319.547 171.719C320.245 171.719 320.771 171.583 321.125 171.312C321.489 171.031 321.672 170.599 321.672 170.016C321.672 169.505 321.526 169.109 321.234 168.828C320.953 168.536 320.552 168.391 320.031 168.391H316.828V171.719H319.547ZM327.49 169.797C328.531 169.797 329.349 170.135 329.943 170.812C330.537 171.479 330.833 172.344 330.833 173.406C330.833 174.479 330.526 175.349 329.912 176.016C329.307 176.672 328.5 177 327.49 177C326.49 177 325.682 176.677 325.068 176.031C324.453 175.375 324.146 174.5 324.146 173.406C324.146 172.312 324.448 171.438 325.052 170.781C325.656 170.125 326.469 169.797 327.49 169.797ZM325.333 173.406C325.333 174.198 325.537 174.828 325.943 175.297C326.349 175.766 326.865 176 327.49 176C328.104 176 328.615 175.766 329.021 175.297C329.427 174.818 329.63 174.188 329.63 173.406C329.63 172.625 329.427 171.995 329.021 171.516C328.625 171.036 328.11 170.797 327.474 170.797C326.87 170.797 326.36 171.031 325.943 171.5C325.537 171.969 325.333 172.604 325.333 173.406ZM333.299 169.953V174.656C333.299 175.042 333.424 175.365 333.674 175.625C333.924 175.875 334.268 176 334.705 176C335.351 176 335.851 175.802 336.205 175.406C336.56 175.01 336.737 174.505 336.737 173.891V169.953H337.877V176.844H336.815V175.75H336.784C336.534 176.188 336.216 176.505 335.83 176.703C335.455 176.901 335.023 177 334.534 177C333.732 177 333.138 176.797 332.752 176.391C332.367 175.974 332.174 175.359 332.174 174.547V169.953H333.299ZM342.915 169.797C343.748 169.797 344.352 170.01 344.727 170.438C345.102 170.865 345.29 171.469 345.29 172.25V176.844H344.149V172.141C344.149 171.745 344.024 171.422 343.774 171.172C343.524 170.922 343.18 170.797 342.743 170.797C342.108 170.797 341.608 170.995 341.243 171.391C340.889 171.776 340.712 172.281 340.712 172.906V176.844H339.587V169.953H340.649V171.047H340.68C340.93 170.62 341.238 170.307 341.602 170.109C341.967 169.901 342.404 169.797 342.915 169.797ZM353.155 167.328V176.844H352.015V175.906H351.984C351.806 176.271 351.525 176.547 351.14 176.734C350.754 176.911 350.306 177 349.796 177C348.827 177 348.056 176.667 347.484 176C346.911 175.333 346.624 174.458 346.624 173.375C346.624 172.312 346.9 171.453 347.452 170.797C348.015 170.13 348.786 169.797 349.765 169.797C350.213 169.797 350.64 169.891 351.046 170.078C351.452 170.255 351.765 170.521 351.984 170.875H352.015V167.328H353.155ZM347.812 173.453C347.812 174.193 348.004 174.802 348.39 175.281C348.775 175.76 349.296 176 349.952 176C350.619 176 351.135 175.76 351.499 175.281C351.874 174.802 352.062 174.177 352.062 173.406C352.062 172.625 351.869 171.995 351.484 171.516C351.109 171.036 350.572 170.797 349.874 170.797C349.218 170.797 348.708 171.036 348.343 171.516C347.989 171.984 347.812 172.63 347.812 173.453ZM362.493 167.391V176.844H361.353V170.078H358.9V169.172H358.946C359.738 169.172 360.353 169.031 360.79 168.75C361.228 168.458 361.504 168.005 361.618 167.391H362.493Z" fill="white"/>
<path d="M213.94 100.125L216.659 108.375H216.69L219.44 100.125H220.753L217.362 109.641H215.925L212.565 100.125H213.94ZM223.991 102.594C225.032 102.594 225.85 102.932 226.444 103.609C227.038 104.276 227.334 105.141 227.334 106.203C227.334 107.276 227.027 108.146 226.413 108.813C225.808 109.469 225.001 109.797 223.991 109.797C222.991 109.797 222.183 109.474 221.569 108.828C220.954 108.172 220.647 107.297 220.647 106.203C220.647 105.109 220.949 104.234 221.553 103.578C222.157 102.922 222.97 102.594 223.991 102.594ZM221.834 106.203C221.834 106.995 222.038 107.625 222.444 108.094C222.85 108.563 223.366 108.797 223.991 108.797C224.605 108.797 225.116 108.563 225.522 108.094C225.928 107.615 226.131 106.984 226.131 106.203C226.131 105.422 225.928 104.792 225.522 104.313C225.126 103.833 224.61 103.594 223.975 103.594C223.371 103.594 222.86 103.828 222.444 104.297C222.038 104.766 221.834 105.401 221.834 106.203ZM230.238 100.688V102.75H231.613V103.75H230.238V108.063C230.238 108.406 230.352 108.589 230.581 108.609C230.811 108.63 231.05 108.641 231.3 108.641H231.613V109.641H230.675C230.061 109.641 229.644 109.531 229.425 109.313C229.217 109.094 229.113 108.724 229.113 108.203V103.75H227.925V102.75H229.113V100.688H230.238ZM234.06 100.125V101.516H232.935V100.125H234.06ZM234.06 102.75V109.641H232.935V102.75H234.06ZM239.162 102.594C239.995 102.594 240.599 102.807 240.974 103.234C241.349 103.662 241.537 104.266 241.537 105.047V109.641H240.396V104.938C240.396 104.542 240.271 104.219 240.021 103.969C239.771 103.719 239.428 103.594 238.99 103.594C238.355 103.594 237.855 103.792 237.49 104.188C237.136 104.573 236.959 105.078 236.959 105.703V109.641H235.834V102.75H236.896V103.844H236.928C237.178 103.417 237.485 103.104 237.849 102.906C238.214 102.698 238.652 102.594 239.162 102.594ZM246.043 102.594C246.522 102.594 246.939 102.698 247.293 102.906C247.647 103.115 247.918 103.391 248.106 103.734H248.121V102.75H249.184V109.125C249.184 110.208 248.923 111.031 248.403 111.594C247.882 112.156 247.08 112.438 245.996 112.438C245.205 112.438 244.538 112.261 243.996 111.906C243.455 111.563 243.168 111.068 243.137 110.422H244.262C244.283 110.766 244.47 111.037 244.824 111.234C245.189 111.432 245.595 111.531 246.043 111.531C246.72 111.531 247.236 111.307 247.59 110.859C247.944 110.422 248.121 109.771 248.121 108.906V108.469H248.09C247.913 108.854 247.632 109.162 247.246 109.391C246.861 109.609 246.423 109.719 245.934 109.719C245.007 109.719 244.262 109.401 243.699 108.766C243.147 108.12 242.871 107.276 242.871 106.234C242.871 105.182 243.147 104.313 243.699 103.625C244.262 102.938 245.043 102.594 246.043 102.594ZM244.059 106.094C244.059 106.917 244.231 107.563 244.574 108.031C244.918 108.49 245.397 108.719 246.012 108.719C246.637 108.719 247.132 108.479 247.496 108C247.871 107.511 248.059 106.865 248.059 106.063C248.059 105.323 247.887 104.729 247.543 104.281C247.199 103.823 246.715 103.594 246.09 103.594C245.455 103.594 244.955 103.823 244.59 104.281C244.236 104.729 244.059 105.333 244.059 106.094ZM261.353 100.125V101.188H256.04V104.219H260.993V105.281H256.04V108.578H261.399V109.641H254.79V100.125H261.353ZM266.135 102.594C267.124 102.594 267.9 102.932 268.463 103.609C269.025 104.287 269.306 105.156 269.306 106.219C269.306 107.281 269.025 108.146 268.463 108.813C267.9 109.469 267.135 109.797 266.166 109.797C265.739 109.797 265.317 109.708 264.9 109.531C264.494 109.354 264.171 109.083 263.931 108.719H263.916V112.281H262.775V102.75H263.916V103.688H263.931C264.108 103.333 264.39 103.063 264.775 102.875C265.161 102.688 265.614 102.594 266.135 102.594ZM263.869 106.188C263.869 106.99 264.062 107.625 264.447 108.094C264.832 108.563 265.364 108.797 266.041 108.797C266.697 108.797 267.202 108.563 267.556 108.094C267.921 107.625 268.103 106.974 268.103 106.141C268.103 105.401 267.911 104.792 267.525 104.313C267.15 103.833 266.629 103.594 265.963 103.594C265.296 103.594 264.78 103.839 264.416 104.328C264.051 104.807 263.869 105.427 263.869 106.188ZM273.613 102.594C274.655 102.594 275.473 102.932 276.066 103.609C276.66 104.276 276.957 105.141 276.957 106.203C276.957 107.276 276.65 108.146 276.035 108.813C275.431 109.469 274.624 109.797 273.613 109.797C272.613 109.797 271.806 109.474 271.191 108.828C270.577 108.172 270.269 107.297 270.269 106.203C270.269 105.109 270.572 104.234 271.176 103.578C271.78 102.922 272.592 102.594 273.613 102.594ZM271.457 106.203C271.457 106.995 271.66 107.625 272.066 108.094C272.473 108.563 272.988 108.797 273.613 108.797C274.228 108.797 274.738 108.563 275.144 108.094C275.551 107.615 275.754 106.984 275.754 106.203C275.754 105.422 275.551 104.792 275.144 104.313C274.749 103.833 274.233 103.594 273.598 103.594C272.993 103.594 272.483 103.828 272.066 104.297C271.66 104.766 271.457 105.401 271.457 106.203ZM281.173 102.594C282.006 102.594 282.683 102.797 283.204 103.203C283.735 103.599 284.048 104.188 284.141 104.969H282.97C282.876 104.521 282.678 104.182 282.376 103.953C282.084 103.714 281.714 103.594 281.266 103.594C280.558 103.594 280.022 103.828 279.657 104.297C279.293 104.766 279.11 105.427 279.11 106.281C279.11 107.042 279.293 107.651 279.657 108.109C280.022 108.568 280.511 108.797 281.126 108.797C281.678 108.797 282.11 108.651 282.423 108.359C282.746 108.057 282.944 107.646 283.016 107.125H284.173C284.048 107.979 283.725 108.641 283.204 109.109C282.683 109.568 281.996 109.797 281.141 109.797C280.141 109.797 279.355 109.484 278.782 108.859C278.209 108.224 277.923 107.365 277.923 106.281C277.923 105.156 278.209 104.261 278.782 103.594C279.365 102.927 280.162 102.594 281.173 102.594ZM286.581 100.125V103.766H286.613C286.779 103.391 287.055 103.104 287.441 102.906C287.837 102.698 288.285 102.594 288.785 102.594C289.618 102.594 290.222 102.807 290.597 103.234C290.972 103.662 291.16 104.266 291.16 105.047V109.641H290.019V104.938C290.019 104.542 289.894 104.219 289.644 103.969C289.394 103.719 289.05 103.594 288.613 103.594C287.977 103.594 287.477 103.792 287.113 104.188C286.758 104.573 286.581 105.078 286.581 105.703V109.641H285.456V100.125H286.581Z" fill="white"/>
<path d="M294.51 108.313L294.275 109.344H293.01L293.244 108.313H294.51ZM294.135 110.047L293.166 114.641H291.9L292.869 110.047H294.135Z" fill="white"/>
<path d="M610.517 100.125L613.236 108.375H613.267L616.017 100.125H617.33L613.939 109.641H612.501L609.142 100.125H610.517ZM620.567 102.594C621.609 102.594 622.427 102.932 623.02 103.609C623.614 104.276 623.911 105.141 623.911 106.203C623.911 107.276 623.604 108.146 622.989 108.813C622.385 109.469 621.578 109.797 620.567 109.797C619.567 109.797 618.76 109.474 618.145 108.828C617.531 108.172 617.224 107.297 617.224 106.203C617.224 105.109 617.526 104.234 618.13 103.578C618.734 102.922 619.546 102.594 620.567 102.594ZM618.411 106.203C618.411 106.995 618.614 107.625 619.02 108.094C619.427 108.563 619.942 108.797 620.567 108.797C621.182 108.797 621.692 108.563 622.099 108.094C622.505 107.615 622.708 106.984 622.708 106.203C622.708 105.422 622.505 104.792 622.099 104.313C621.703 103.833 621.187 103.594 620.552 103.594C619.948 103.594 619.437 103.828 619.02 104.297C618.614 104.766 618.411 105.401 618.411 106.203ZM626.814 100.688V102.75H628.189V103.75H626.814V108.063C626.814 108.406 626.929 108.589 627.158 108.609C627.387 108.63 627.627 108.641 627.877 108.641H628.189V109.641H627.252C626.637 109.641 626.221 109.531 626.002 109.313C625.793 109.094 625.689 108.724 625.689 108.203V103.75H624.502V102.75H625.689V100.688H626.814ZM630.637 100.125V101.516H629.512V100.125H630.637ZM630.637 102.75V109.641H629.512V102.75H630.637ZM635.739 102.594C636.572 102.594 637.176 102.807 637.551 103.234C637.926 103.662 638.114 104.266 638.114 105.047V109.641H636.973V104.938C636.973 104.542 636.848 104.219 636.598 103.969C636.348 103.719 636.004 103.594 635.567 103.594C634.931 103.594 634.431 103.792 634.067 104.188C633.713 104.573 633.536 105.078 633.536 105.703V109.641H632.411V102.75H633.473V103.844H633.504C633.754 103.417 634.062 103.104 634.426 102.906C634.791 102.698 635.228 102.594 635.739 102.594ZM642.62 102.594C643.099 102.594 643.516 102.698 643.87 102.906C644.224 103.115 644.495 103.391 644.682 103.734H644.698V102.75H645.76V109.125C645.76 110.208 645.5 111.031 644.979 111.594C644.458 112.156 643.656 112.438 642.573 112.438C641.781 112.438 641.115 112.261 640.573 111.906C640.031 111.563 639.745 111.068 639.714 110.422H640.839C640.859 110.766 641.047 111.037 641.401 111.234C641.766 111.432 642.172 111.531 642.62 111.531C643.297 111.531 643.813 111.307 644.167 110.859C644.521 110.422 644.698 109.771 644.698 108.906V108.469H644.667C644.49 108.854 644.208 109.162 643.823 109.391C643.438 109.609 643 109.719 642.51 109.719C641.583 109.719 640.839 109.401 640.276 108.766C639.724 108.12 639.448 107.276 639.448 106.234C639.448 105.182 639.724 104.313 640.276 103.625C640.839 102.938 641.62 102.594 642.62 102.594ZM640.635 106.094C640.635 106.917 640.807 107.563 641.151 108.031C641.495 108.49 641.974 108.719 642.589 108.719C643.214 108.719 643.708 108.479 644.073 108C644.448 107.511 644.635 106.865 644.635 106.063C644.635 105.323 644.464 104.729 644.12 104.281C643.776 103.823 643.292 103.594 642.667 103.594C642.031 103.594 641.531 103.823 641.167 104.281C640.813 104.729 640.635 105.333 640.635 106.094ZM657.929 100.125V101.188H652.617V104.219H657.57V105.281H652.617V108.578H657.976V109.641H651.367V100.125H657.929ZM662.711 102.594C663.701 102.594 664.477 102.932 665.039 103.609C665.602 104.287 665.883 105.156 665.883 106.219C665.883 107.281 665.602 108.146 665.039 108.813C664.477 109.469 663.711 109.797 662.742 109.797C662.315 109.797 661.894 109.708 661.477 109.531C661.071 109.354 660.748 109.083 660.508 108.719H660.492V112.281H659.352V102.75H660.492V103.688H660.508C660.685 103.333 660.966 103.063 661.352 102.875C661.737 102.688 662.19 102.594 662.711 102.594ZM660.446 106.188C660.446 106.99 660.638 107.625 661.024 108.094C661.409 108.563 661.94 108.797 662.617 108.797C663.274 108.797 663.779 108.563 664.133 108.094C664.498 107.625 664.68 106.974 664.68 106.141C664.68 105.401 664.487 104.792 664.102 104.313C663.727 103.833 663.206 103.594 662.539 103.594C661.873 103.594 661.357 103.839 660.992 104.328C660.628 104.807 660.446 105.427 660.446 106.188ZM670.19 102.594C671.232 102.594 672.049 102.932 672.643 103.609C673.237 104.276 673.534 105.141 673.534 106.203C673.534 107.276 673.226 108.146 672.612 108.813C672.008 109.469 671.2 109.797 670.19 109.797C669.19 109.797 668.383 109.474 667.768 108.828C667.153 108.172 666.846 107.297 666.846 106.203C666.846 105.109 667.148 104.234 667.752 103.578C668.357 102.922 669.169 102.594 670.19 102.594ZM668.034 106.203C668.034 106.995 668.237 107.625 668.643 108.094C669.049 108.563 669.565 108.797 670.19 108.797C670.804 108.797 671.315 108.563 671.721 108.094C672.127 107.615 672.331 106.984 672.331 106.203C672.331 105.422 672.127 104.792 671.721 104.313C671.325 103.833 670.81 103.594 670.174 103.594C669.57 103.594 669.06 103.828 668.643 104.297C668.237 104.766 668.034 105.401 668.034 106.203ZM677.749 102.594C678.583 102.594 679.26 102.797 679.781 103.203C680.312 103.599 680.624 104.188 680.718 104.969H679.546C679.453 104.521 679.255 104.182 678.953 103.953C678.661 103.714 678.291 103.594 677.843 103.594C677.135 103.594 676.598 103.828 676.234 104.297C675.869 104.766 675.687 105.427 675.687 106.281C675.687 107.042 675.869 107.651 676.234 108.109C676.598 108.568 677.088 108.797 677.703 108.797C678.255 108.797 678.687 108.651 678.999 108.359C679.322 108.057 679.52 107.646 679.593 107.125H680.749C680.624 107.979 680.301 108.641 679.781 109.109C679.26 109.568 678.572 109.797 677.718 109.797C676.718 109.797 675.932 109.484 675.359 108.859C674.786 108.224 674.499 107.365 674.499 106.281C674.499 105.156 674.786 104.261 675.359 103.594C675.942 102.927 676.739 102.594 677.749 102.594ZM683.158 100.125V103.766H683.189C683.356 103.391 683.632 103.104 684.017 102.906C684.413 102.698 684.861 102.594 685.361 102.594C686.195 102.594 686.799 102.807 687.174 103.234C687.549 103.662 687.736 104.266 687.736 105.047V109.641H686.596V104.938C686.596 104.542 686.471 104.219 686.221 103.969C685.971 103.719 685.627 103.594 685.189 103.594C684.554 103.594 684.054 103.792 683.689 104.188C683.335 104.573 683.158 105.078 683.158 105.703V109.641H682.033V100.125H683.158Z" fill="white"/>
<path d="M691.086 108.313L690.852 109.344H689.586L689.821 108.313H691.086ZM690.711 110.047L689.743 114.641H688.477L689.446 110.047H690.711ZM693.898 110.156V111.922H695.679V112.875H693.898V114.641H692.96V112.875H691.179V111.922H692.96V110.156H693.898ZM700.427 108.422L699.114 114.641H697.771L698.614 110.609H697.099L697.302 109.656C697.864 109.636 698.302 109.531 698.614 109.344C698.937 109.146 699.198 108.839 699.396 108.422H700.427Z" fill="white"/>
<path d="M62.4519 31.8213V33.4619H63.5457V34.2744H62.4519V37.7119C62.4519 37.9932 62.5404 38.1442 62.7175 38.165C62.905 38.1755 63.0977 38.1807 63.2957 38.1807H63.5457V38.9775H62.8113C62.3113 38.9775 61.9727 38.889 61.7957 38.7119C61.629 38.5348 61.5457 38.238 61.5457 37.8213V34.2744H60.6082V33.4619H61.5457V31.8213H62.4519ZM69.7455 34.8369V35.5713H64.3861V34.8369H69.7455ZM69.7455 36.9932V37.7119H64.3861V36.9932H69.7455ZM73.2184 31.415C73.6455 31.415 74.0153 31.488 74.3278 31.6338C74.6403 31.7692 74.9007 31.9775 75.109 32.2588C75.5361 32.8005 75.7497 33.8057 75.7497 35.2744C75.7497 36.0036 75.6976 36.6182 75.5934 37.1182C75.4892 37.6077 75.3278 37.9932 75.109 38.2744C74.9007 38.5452 74.6403 38.7536 74.3278 38.8994C74.0153 39.0348 73.6455 39.1025 73.2184 39.1025C72.3851 39.1025 71.7601 38.8213 71.3434 38.2588C70.9267 37.6963 70.7184 36.7015 70.7184 35.2744C70.7184 33.8265 70.9267 32.8213 71.3434 32.2588C71.7705 31.6963 72.3955 31.415 73.2184 31.415ZM71.6715 35.2588C71.6715 35.863 71.7028 36.363 71.7653 36.7588C71.8382 37.1546 71.9372 37.4619 72.0622 37.6807C72.333 38.0973 72.7184 38.3057 73.2184 38.3057C73.7809 38.3057 74.1872 38.0661 74.4372 37.5869C74.5517 37.3369 74.6351 37.0244 74.6872 36.6494C74.7497 36.2744 74.7809 35.8213 74.7809 35.29C74.7809 35.113 74.7757 34.915 74.7653 34.6963C74.7653 34.4775 74.7497 34.2588 74.7184 34.04C74.6976 33.8109 74.6559 33.5869 74.5934 33.3682C74.5309 33.1494 74.4424 32.9567 74.3278 32.79C74.2132 32.6234 74.0674 32.488 73.8903 32.3838C73.7132 32.2796 73.4892 32.2275 73.2184 32.2275C72.9788 32.2275 72.7601 32.2796 72.5622 32.3838C72.3747 32.4775 72.2132 32.6286 72.0778 32.8369C71.807 33.2536 71.6715 34.0609 71.6715 35.2588Z" fill="white"/>
<path d="M429.704 31.8213V33.4619H430.798V34.2744H429.704V37.7119C429.704 37.9932 429.792 38.1442 429.969 38.165C430.157 38.1755 430.35 38.1807 430.548 38.1807H430.798V38.9775H430.063C429.563 38.9775 429.225 38.889 429.048 38.7119C428.881 38.5348 428.798 38.238 428.798 37.8213V34.2744H427.86V33.4619H428.798V31.8213H429.704ZM436.997 34.8369V35.5713H431.638V34.8369H436.997ZM436.997 36.9932V37.7119H431.638V36.9932H436.997ZM440.361 31.415C441.236 31.415 441.887 31.7171 442.314 32.3213C442.741 32.915 442.955 33.8213 442.955 35.04C442.955 36.4255 442.736 37.4515 442.298 38.1182C441.861 38.7744 441.205 39.1025 440.33 39.1025C439.684 39.1025 439.158 38.9411 438.752 38.6182C438.345 38.2848 438.106 37.7952 438.033 37.1494H438.939C438.991 37.5244 439.142 37.8109 439.392 38.0088C439.653 38.2067 439.965 38.3057 440.33 38.3057C440.882 38.3057 441.293 38.0661 441.564 37.5869C441.845 37.1077 442.002 36.3734 442.033 35.3838L442.017 35.3682C441.84 35.6911 441.595 35.9463 441.283 36.1338C440.981 36.3109 440.637 36.3994 440.252 36.3994C439.522 36.3994 438.944 36.1755 438.517 35.7275C438.09 35.2796 437.877 34.665 437.877 33.8838C437.877 33.165 438.111 32.5765 438.58 32.1182C439.048 31.6494 439.642 31.415 440.361 31.415ZM438.845 34.0088C438.845 34.4463 438.991 34.8265 439.283 35.1494C439.575 35.4619 439.923 35.6182 440.33 35.6182C440.778 35.6182 441.147 35.4567 441.439 35.1338C441.731 34.8109 441.877 34.415 441.877 33.9463C441.877 33.4567 441.736 33.0505 441.455 32.7275C441.173 32.3942 440.793 32.2275 440.314 32.2275C439.856 32.2275 439.496 32.389 439.236 32.7119C438.976 33.0244 438.845 33.4567 438.845 34.0088ZM446.397 31.415C446.824 31.415 447.194 31.488 447.506 31.6338C447.819 31.7692 448.079 31.9775 448.288 32.2588C448.715 32.8005 448.928 33.8057 448.928 35.2744C448.928 36.0036 448.876 36.6182 448.772 37.1182C448.668 37.6077 448.506 37.9932 448.288 38.2744C448.079 38.5452 447.819 38.7536 447.506 38.8994C447.194 39.0348 446.824 39.1025 446.397 39.1025C445.564 39.1025 444.939 38.8213 444.522 38.2588C444.105 37.6963 443.897 36.7015 443.897 35.2744C443.897 33.8265 444.105 32.8213 444.522 32.2588C444.949 31.6963 445.574 31.415 446.397 31.415ZM444.85 35.2588C444.85 35.863 444.881 36.363 444.944 36.7588C445.017 37.1546 445.116 37.4619 445.241 37.6807C445.511 38.0973 445.897 38.3057 446.397 38.3057C446.959 38.3057 447.366 38.0661 447.616 37.5869C447.73 37.3369 447.814 37.0244 447.866 36.6494C447.928 36.2744 447.959 35.8213 447.959 35.29C447.959 35.113 447.954 34.915 447.944 34.6963C447.944 34.4775 447.928 34.2588 447.897 34.04C447.876 33.8109 447.834 33.5869 447.772 33.3682C447.709 33.1494 447.621 32.9567 447.506 32.79C447.392 32.6234 447.246 32.488 447.069 32.3838C446.892 32.2796 446.668 32.2275 446.397 32.2275C446.157 32.2275 445.939 32.2796 445.741 32.3838C445.553 32.4775 445.392 32.6286 445.256 32.8369C444.985 33.2536 444.85 34.0609 444.85 35.2588Z" fill="white"/>
<path d="M879.819 31.8213V33.4619H880.913V34.2744H879.819V37.7119C879.819 37.9932 879.908 38.1442 880.085 38.165C880.272 38.1755 880.465 38.1807 880.663 38.1807H880.913V38.9775H880.179C879.679 38.9775 879.34 38.889 879.163 38.7119C878.996 38.5348 878.913 38.238 878.913 37.8213V34.2744H877.976V33.4619H878.913V31.8213H879.819ZM887.113 34.8369V35.5713H881.754V34.8369H887.113ZM887.113 36.9932V37.7119H881.754V36.9932H887.113ZM891.43 31.415V38.9775H890.523V33.5713H888.555V32.8369H888.586C889.232 32.8369 889.727 32.7223 890.07 32.4932C890.424 32.264 890.643 31.9046 890.727 31.415H891.43ZM896.466 31.415C897.184 31.415 897.747 31.5921 898.153 31.9463C898.559 32.3005 898.762 32.7692 898.762 33.3525C898.762 33.6755 898.674 33.9775 898.497 34.2588C898.32 34.54 898.059 34.7588 897.716 34.915C898.153 35.0505 898.486 35.2796 898.716 35.6025C898.945 35.9255 899.059 36.3265 899.059 36.8057C899.059 37.4932 898.825 38.0505 898.356 38.4775C897.887 38.8942 897.283 39.1025 896.544 39.1025C895.773 39.1025 895.153 38.8994 894.684 38.4932C894.216 38.0869 893.981 37.5244 893.981 36.8057C893.981 36.3577 894.096 35.9671 894.325 35.6338C894.554 35.3005 894.882 35.0609 895.309 34.915C894.976 34.7796 894.716 34.5713 894.528 34.29C894.341 33.9984 894.247 33.6859 894.247 33.3525C894.247 32.7796 894.46 32.3161 894.887 31.9619C895.314 31.5973 895.841 31.415 896.466 31.415ZM895.216 33.3838C895.216 33.7484 895.335 34.0452 895.575 34.2744C895.814 34.4932 896.137 34.6025 896.544 34.6025C896.929 34.6025 897.231 34.4932 897.45 34.2744C897.679 34.0557 897.794 33.7588 897.794 33.3838C897.794 33.0192 897.679 32.738 897.45 32.54C897.231 32.3317 896.919 32.2275 896.512 32.2275C896.127 32.2275 895.814 32.3369 895.575 32.5557C895.335 32.764 895.216 33.04 895.216 33.3838ZM894.95 36.8369C894.95 37.2848 895.096 37.6442 895.387 37.915C895.689 38.1755 896.075 38.3057 896.544 38.3057C896.992 38.3057 897.361 38.1702 897.653 37.8994C897.945 37.6182 898.091 37.264 898.091 36.8369C898.091 36.4411 897.939 36.1025 897.637 35.8213C897.335 35.54 896.966 35.3994 896.528 35.3994C896.08 35.3994 895.705 35.5348 895.403 35.8057C895.101 36.0765 894.95 36.4202 894.95 36.8369ZM902.439 31.415C902.866 31.415 903.236 31.488 903.548 31.6338C903.861 31.7692 904.121 31.9775 904.329 32.2588C904.757 32.8005 904.97 33.8057 904.97 35.2744C904.97 36.0036 904.918 36.6182 904.814 37.1182C904.71 37.6077 904.548 37.9932 904.329 38.2744C904.121 38.5452 903.861 38.7536 903.548 38.8994C903.236 39.0348 902.866 39.1025 902.439 39.1025C901.606 39.1025 900.981 38.8213 900.564 38.2588C900.147 37.6963 899.939 36.7015 899.939 35.2744C899.939 33.8265 900.147 32.8213 900.564 32.2588C900.991 31.6963 901.616 31.415 902.439 31.415ZM900.892 35.2588C900.892 35.863 900.923 36.363 900.986 36.7588C901.059 37.1546 901.158 37.4619 901.283 37.6807C901.553 38.0973 901.939 38.3057 902.439 38.3057C903.001 38.3057 903.408 38.0661 903.658 37.5869C903.772 37.3369 903.856 37.0244 903.908 36.6494C903.97 36.2744 904.001 35.8213 904.001 35.29C904.001 35.113 903.996 34.915 903.986 34.6963C903.986 34.4775 903.97 34.2588 903.939 34.04C903.918 33.8109 903.876 33.5869 903.814 33.3682C903.751 33.1494 903.663 32.9567 903.548 32.79C903.434 32.6234 903.288 32.488 903.111 32.3838C902.934 32.2796 902.71 32.2275 902.439 32.2275C902.199 32.2275 901.981 32.2796 901.783 32.3838C901.595 32.4775 901.434 32.6286 901.298 32.8369C901.027 33.2536 900.892 34.0609 900.892 35.2588Z" fill="white"/>
</g>
</g>
<defs>
<clipPath id="clip0_6_1061">
<rect width="960" height="460.724" fill="white"/>
</clipPath>
</defs>
</svg>
