<svg width="961" height="462" viewBox="0 0 961 462" fill="none" xmlns="http://www.w3.org/2000/svg">
<g clip-path="url(#clip0_8_2126)">
<mask id="mask0_8_2126" style="mask-type:luminance" maskUnits="userSpaceOnUse" x="0" y="0" width="961" height="462">
<path d="M0.5 0.5H960.5V461.224H0.5V0.5Z" fill="white"/>
</mask>
<g mask="url(#mask0_8_2126)">
<path fill-rule="evenodd" clip-rule="evenodd" d="M70.6208 232.558H439.629V278.259H70.6208V232.558Z" stroke="#595959" stroke-miterlimit="10" stroke-linejoin="round"/>
<path d="M235.451 242.458C236.503 242.458 237.384 242.734 238.092 243.286C238.8 243.828 239.227 244.583 239.373 245.552H238.108C237.962 244.906 237.655 244.411 237.186 244.068C236.717 243.714 236.134 243.536 235.436 243.536C234.425 243.536 233.634 243.891 233.061 244.599C232.498 245.307 232.217 246.234 232.217 247.38C232.217 248.599 232.493 249.568 233.045 250.286C233.608 251.005 234.41 251.365 235.451 251.365C236.222 251.365 236.858 251.12 237.358 250.63C237.858 250.141 238.139 249.474 238.201 248.63H239.467C239.332 249.859 238.905 250.802 238.186 251.458C237.467 252.115 236.519 252.443 235.342 252.443C233.977 252.443 232.905 251.99 232.123 251.083C231.342 250.177 230.951 248.974 230.951 247.474C230.951 245.995 231.352 244.792 232.155 243.865C232.967 242.927 234.066 242.458 235.451 242.458ZM243.827 245.161C244.868 245.161 245.686 245.5 246.28 246.177C246.873 246.844 247.17 247.708 247.17 248.771C247.17 249.844 246.863 250.714 246.248 251.38C245.644 252.036 244.837 252.365 243.827 252.365C242.827 252.365 242.019 252.042 241.405 251.396C240.79 250.74 240.483 249.865 240.483 248.771C240.483 247.677 240.785 246.802 241.389 246.146C241.993 245.49 242.806 245.161 243.827 245.161ZM241.67 248.771C241.67 249.563 241.873 250.193 242.28 250.661C242.686 251.13 243.202 251.365 243.827 251.365C244.441 251.365 244.952 251.13 245.358 250.661C245.764 250.182 245.967 249.552 245.967 248.771C245.967 247.99 245.764 247.359 245.358 246.88C244.962 246.401 244.446 246.161 243.811 246.161C243.207 246.161 242.696 246.396 242.28 246.865C241.873 247.333 241.67 247.969 241.67 248.771ZM251.824 245.161C252.324 245.161 252.735 245.266 253.058 245.474C253.381 245.672 253.6 245.958 253.714 246.333C253.954 245.958 254.261 245.672 254.636 245.474C255.011 245.266 255.428 245.161 255.886 245.161C256.657 245.161 257.23 245.339 257.605 245.693C257.98 246.036 258.167 246.51 258.167 247.115V252.208H257.042V247.646C257.042 247.146 256.933 246.776 256.714 246.536C256.506 246.286 256.167 246.161 255.699 246.161C255.136 246.161 254.693 246.328 254.37 246.661C254.058 246.984 253.902 247.391 253.902 247.88V252.208H252.761V247.646C252.761 247.146 252.657 246.776 252.449 246.536C252.24 246.286 251.917 246.161 251.48 246.161C251.115 246.161 250.792 246.25 250.511 246.427C250.24 246.594 250.027 246.828 249.87 247.13C249.714 247.432 249.636 247.688 249.636 247.896V252.208H248.511V245.318H249.574V246.333H249.605C249.865 245.938 250.178 245.646 250.542 245.458C250.907 245.26 251.334 245.161 251.824 245.161ZM263.193 245.161C263.693 245.161 264.104 245.266 264.427 245.474C264.75 245.672 264.969 245.958 265.083 246.333C265.323 245.958 265.63 245.672 266.005 245.474C266.38 245.266 266.797 245.161 267.255 245.161C268.026 245.161 268.599 245.339 268.974 245.693C269.349 246.036 269.537 246.51 269.537 247.115V252.208H268.412V247.646C268.412 247.146 268.302 246.776 268.083 246.536C267.875 246.286 267.537 246.161 267.068 246.161C266.505 246.161 266.063 246.328 265.74 246.661C265.427 246.984 265.271 247.391 265.271 247.88V252.208H264.13V247.646C264.13 247.146 264.026 246.776 263.818 246.536C263.61 246.286 263.287 246.161 262.849 246.161C262.485 246.161 262.162 246.25 261.88 246.427C261.61 246.594 261.396 246.828 261.24 247.13C261.083 247.432 261.005 247.688 261.005 247.896V252.208H259.88V245.318H260.943V246.333H260.974C261.235 245.938 261.547 245.646 261.912 245.458C262.276 245.26 262.703 245.161 263.193 245.161ZM272.437 242.693V244.083H271.312V242.693H272.437ZM272.437 245.318V252.208H271.312V245.318H272.437ZM275.773 243.255V245.318H277.148V246.318H275.773V250.63C275.773 250.974 275.888 251.156 276.117 251.177C276.346 251.198 276.586 251.208 276.836 251.208H277.148V252.208H276.211C275.596 252.208 275.179 252.099 274.961 251.88C274.752 251.661 274.648 251.292 274.648 250.771V246.318H273.461V245.318H274.648V243.255H275.773Z" fill="#595959"/>
<path d="M280.049 250.88L279.814 251.911H278.549L278.783 250.88H280.049ZM279.674 252.615L278.705 257.208H277.439L278.408 252.615H279.674Z" fill="#595959"/>
<path d="M247.943 258.755C249.036 258.755 249.849 259.13 250.38 259.88C250.911 260.63 251.177 261.766 251.177 263.286C251.177 265.026 250.901 266.307 250.349 267.13C249.807 267.953 248.99 268.365 247.896 268.365C247.083 268.365 246.422 268.161 245.911 267.755C245.411 267.339 245.12 266.729 245.036 265.927H246.161C246.224 266.385 246.411 266.74 246.724 266.99C247.047 267.24 247.437 267.365 247.896 267.365C248.594 267.365 249.115 267.068 249.458 266.474C249.802 265.87 249.995 264.953 250.036 263.724L250.005 263.693C249.786 264.099 249.484 264.417 249.099 264.646C248.713 264.875 248.281 264.99 247.802 264.99C246.885 264.99 246.161 264.708 245.63 264.146C245.099 263.583 244.833 262.813 244.833 261.833C244.833 260.938 245.125 260.203 245.708 259.63C246.292 259.047 247.036 258.755 247.943 258.755ZM246.036 261.99C246.036 262.531 246.219 263.005 246.583 263.411C246.948 263.807 247.385 264.005 247.896 264.005C248.458 264.005 248.922 263.802 249.286 263.396C249.651 262.99 249.833 262.495 249.833 261.911C249.833 261.307 249.656 260.797 249.302 260.38C248.958 259.964 248.484 259.755 247.88 259.755C247.297 259.755 246.844 259.958 246.521 260.365C246.198 260.76 246.036 261.302 246.036 261.99ZM255.496 258.755C256.027 258.755 256.485 258.844 256.871 259.021C257.256 259.188 257.584 259.448 257.855 259.802C258.386 260.479 258.652 261.734 258.652 263.568C258.652 264.484 258.584 265.255 258.449 265.88C258.324 266.495 258.126 266.979 257.855 267.333C257.595 267.667 257.267 267.922 256.871 268.099C256.485 268.276 256.027 268.365 255.496 268.365C254.444 268.365 253.657 268.016 253.136 267.318C252.616 266.609 252.355 265.359 252.355 263.568C252.355 261.755 252.616 260.505 253.136 259.818C253.668 259.109 254.454 258.755 255.496 258.755ZM253.543 263.552C253.543 264.313 253.584 264.943 253.668 265.443C253.761 265.932 253.886 266.313 254.043 266.583C254.376 267.104 254.86 267.365 255.496 267.365C256.194 267.365 256.699 267.063 257.011 266.458C257.157 266.156 257.267 265.771 257.339 265.302C257.412 264.823 257.449 264.255 257.449 263.599C257.449 263.37 257.444 263.12 257.433 262.849C257.433 262.578 257.412 262.302 257.371 262.021C257.339 261.74 257.282 261.464 257.199 261.193C257.126 260.922 257.022 260.682 256.886 260.474C256.741 260.266 256.553 260.094 256.324 259.958C256.105 259.823 255.824 259.755 255.48 259.755C255.178 259.755 254.907 259.823 254.668 259.958C254.438 260.083 254.235 260.276 254.058 260.536C253.714 261.047 253.543 262.052 253.543 263.552ZM262.346 261.161C263.273 261.161 263.96 261.344 264.408 261.708C264.867 262.063 265.117 262.599 265.158 263.318H264.033V263.302C264.002 262.938 263.84 262.656 263.549 262.458C263.257 262.26 262.887 262.161 262.439 262.161C261.981 262.161 261.617 262.24 261.346 262.396C261.085 262.542 260.955 262.755 260.955 263.036C260.955 263.286 261.07 263.495 261.299 263.661C261.538 263.818 261.893 263.943 262.361 264.036L263.424 264.286C264.09 264.432 264.596 264.661 264.939 264.974C265.294 265.276 265.471 265.682 265.471 266.193C265.471 266.87 265.205 267.401 264.674 267.786C264.153 268.172 263.439 268.365 262.533 268.365C261.658 268.365 260.96 268.172 260.439 267.786C259.929 267.391 259.653 266.807 259.611 266.036H260.752C260.762 266.464 260.929 266.792 261.252 267.021C261.585 267.25 262.033 267.365 262.596 267.365C263.148 267.365 263.564 267.281 263.846 267.115C264.127 266.938 264.268 266.677 264.268 266.333C264.268 266.031 264.127 265.792 263.846 265.615C263.564 265.427 262.992 265.25 262.127 265.083C261.262 264.906 260.653 264.667 260.299 264.365C259.945 264.052 259.768 263.635 259.768 263.115C259.768 262.51 260.012 262.036 260.502 261.693C260.992 261.339 261.606 261.161 262.346 261.161Z" fill="#595959"/>
<path fill-rule="evenodd" clip-rule="evenodd" d="M439.631 232.558H638.372V278.259H439.631V232.558Z" stroke="#595959" stroke-miterlimit="10" stroke-linejoin="round"/>
<path d="M523.3 242.693C524.123 242.693 524.8 242.911 525.331 243.349C525.862 243.786 526.128 244.401 526.128 245.193C526.128 245.818 525.993 246.339 525.722 246.755C525.451 247.161 525.034 247.443 524.472 247.599V247.615C524.961 247.719 525.315 247.948 525.534 248.302C525.763 248.646 525.899 249.25 525.94 250.115C525.961 250.667 526.013 251.104 526.097 251.427C526.18 251.74 526.3 252 526.456 252.208H525.05C524.966 252.104 524.914 252 524.894 251.896C524.873 251.792 524.852 251.651 524.831 251.474L524.769 250.427C524.758 249.938 524.654 249.443 524.456 248.943C524.258 248.432 523.826 248.167 523.159 248.146H520.019V252.208H518.769V242.693H523.3ZM522.737 247.083C523.435 247.083 523.961 246.948 524.315 246.677C524.68 246.396 524.862 245.964 524.862 245.38C524.862 244.87 524.716 244.474 524.425 244.193C524.144 243.901 523.743 243.755 523.222 243.755H520.019V247.083H522.737ZM530.571 245.161C531.561 245.161 532.326 245.521 532.868 246.24C533.42 246.948 533.696 247.859 533.696 248.974V249.099H528.524V249.193C528.524 249.849 528.717 250.375 529.102 250.771C529.488 251.167 530.014 251.365 530.68 251.365C531.18 251.365 531.576 251.25 531.868 251.021C532.17 250.781 532.368 250.448 532.462 250.021H533.587C533.43 250.781 533.092 251.365 532.571 251.771C532.061 252.167 531.415 252.365 530.633 252.365C529.915 252.365 529.305 252.203 528.805 251.88C528.305 251.557 527.936 251.104 527.696 250.521C527.456 249.927 527.337 249.328 527.337 248.724C527.337 247.703 527.639 246.854 528.243 246.177C528.857 245.5 529.633 245.161 530.571 245.161ZM528.524 248.099H532.493C532.451 247.536 532.243 247.073 531.868 246.708C531.503 246.344 531.045 246.161 530.493 246.161C529.972 246.161 529.524 246.339 529.149 246.693C528.785 247.036 528.576 247.505 528.524 248.099ZM535.464 245.318L537.402 251.068H537.417L539.308 245.318H540.48L537.964 252.208H536.761L534.198 245.318H535.464ZM544.394 245.161C545.383 245.161 546.149 245.521 546.691 246.24C547.243 246.948 547.519 247.859 547.519 248.974V249.099H542.347V249.193C542.347 249.849 542.54 250.375 542.925 250.771C543.31 251.167 543.836 251.365 544.503 251.365C545.003 251.365 545.399 251.25 545.691 251.021C545.993 250.781 546.191 250.448 546.284 250.021H547.409C547.253 250.781 546.915 251.365 546.394 251.771C545.883 252.167 545.237 252.365 544.456 252.365C543.737 252.365 543.128 252.203 542.628 251.88C542.128 251.557 541.758 251.104 541.519 250.521C541.279 249.927 541.159 249.328 541.159 248.724C541.159 247.703 541.461 246.854 542.066 246.177C542.68 245.5 543.456 245.161 544.394 245.161ZM542.347 248.099H546.316C546.274 247.536 546.066 247.073 545.691 246.708C545.326 246.344 544.868 246.161 544.316 246.161C543.795 246.161 543.347 246.339 542.972 246.693C542.607 247.036 542.399 247.505 542.347 248.099ZM551.505 245.161C552.443 245.161 553.104 245.328 553.49 245.661C553.886 245.995 554.084 246.443 554.084 247.005C554.084 249.391 554.084 250.714 554.084 250.974C554.084 251.234 554.203 251.365 554.443 251.365C554.495 251.365 554.552 251.359 554.615 251.349C554.677 251.339 554.735 251.323 554.787 251.302V252.177C554.683 252.24 554.563 252.286 554.427 252.318C554.292 252.349 554.146 252.365 553.99 252.365C553.677 252.365 553.438 252.281 553.271 252.115C553.104 251.938 553.021 251.667 553.021 251.302C552.719 251.656 552.365 251.922 551.959 252.099C551.552 252.276 551.099 252.365 550.599 252.365C549.88 252.365 549.318 252.198 548.912 251.865C548.516 251.531 548.318 251.057 548.318 250.443C548.318 249.818 548.516 249.328 548.912 248.974C549.308 248.609 550.235 248.333 551.693 248.146C552.183 248.083 552.516 247.99 552.693 247.865C552.87 247.74 552.959 247.552 552.959 247.302C552.959 246.917 552.834 246.63 552.584 246.443C552.344 246.255 551.959 246.161 551.427 246.161C550.865 246.161 550.443 246.266 550.162 246.474C549.88 246.682 549.729 247.01 549.709 247.458H548.584C548.615 246.698 548.88 246.125 549.38 245.74C549.891 245.354 550.599 245.161 551.505 245.161ZM549.505 250.349C549.505 250.672 549.62 250.922 549.849 251.099C550.089 251.276 550.422 251.365 550.849 251.365C551.485 251.365 551.99 251.208 552.365 250.896C552.75 250.573 552.943 250.219 552.943 249.833V248.646C552.755 248.781 552.511 248.875 552.209 248.927C551.907 248.969 551.5 249.026 550.99 249.099C550.49 249.172 550.115 249.307 549.865 249.505C549.625 249.703 549.505 249.984 549.505 250.349ZM557.039 242.693V252.208H555.914V242.693H557.039Z" fill="#595959"/>
<path d="M560.454 250.88L560.219 251.911H558.954L559.188 250.88H560.454ZM560.079 252.615L559.11 257.208H557.844L558.813 252.615H560.079Z" fill="#595959"/>
<path d="M533.835 258.755V264.99H535.116V265.99H533.835V268.208H532.772V265.99H528.632V264.896L532.929 258.755H533.835ZM532.741 260.38L529.601 264.99H532.772V260.38H532.741ZM541.935 258.927V259.911H538.122L537.622 262.63L537.638 262.661C537.836 262.443 538.086 262.276 538.388 262.161C538.69 262.047 539.029 261.99 539.404 261.99C540.32 261.99 541.055 262.276 541.607 262.849C542.169 263.422 542.451 264.208 542.451 265.208C542.451 266.115 542.143 266.87 541.529 267.474C540.925 268.068 540.133 268.365 539.154 268.365C538.31 268.365 537.602 268.125 537.029 267.646C536.456 267.156 536.159 266.5 536.138 265.677V265.661H537.263C537.305 266.161 537.508 266.573 537.872 266.896C538.247 267.208 538.706 267.365 539.247 267.365C539.831 267.365 540.31 267.167 540.685 266.771C541.06 266.375 541.247 265.828 541.247 265.13C541.247 264.484 541.044 263.969 540.638 263.583C540.232 263.188 539.727 262.99 539.122 262.99C538.789 262.99 538.471 263.063 538.169 263.208C537.878 263.354 537.607 263.578 537.357 263.88L536.388 263.818L537.263 258.927H541.935ZM546.222 261.161C547.149 261.161 547.837 261.344 548.285 261.708C548.743 262.063 548.993 262.599 549.035 263.318H547.91V263.302C547.879 262.938 547.717 262.656 547.426 262.458C547.134 262.26 546.764 262.161 546.316 262.161C545.858 262.161 545.493 262.24 545.222 262.396C544.962 262.542 544.832 262.755 544.832 263.036C544.832 263.286 544.946 263.495 545.176 263.661C545.415 263.818 545.769 263.943 546.238 264.036L547.301 264.286C547.967 264.432 548.472 264.661 548.816 264.974C549.17 265.276 549.347 265.682 549.347 266.193C549.347 266.87 549.082 267.401 548.551 267.786C548.03 268.172 547.316 268.365 546.41 268.365C545.535 268.365 544.837 268.172 544.316 267.786C543.806 267.391 543.53 266.807 543.488 266.036H544.629C544.639 266.464 544.806 266.792 545.129 267.021C545.462 267.25 545.91 267.365 546.472 267.365C547.024 267.365 547.441 267.281 547.722 267.115C548.004 266.938 548.144 266.677 548.144 266.333C548.144 266.031 548.004 265.792 547.722 265.615C547.441 265.427 546.868 265.25 546.004 265.083C545.139 264.906 544.53 264.667 544.176 264.365C543.821 264.052 543.644 263.635 543.644 263.115C543.644 262.51 543.889 262.036 544.379 261.693C544.868 261.339 545.483 261.161 546.222 261.161Z" fill="#595959"/>
<path fill-rule="evenodd" clip-rule="evenodd" d="M638.393 232.558H727.243V278.259H638.393V232.558Z" stroke="#595959" stroke-miterlimit="10" stroke-linejoin="round"/>
<path d="M673.464 244.443C674.422 244.443 675.177 244.672 675.729 245.13C676.292 245.589 676.589 246.26 676.62 247.146H675.542C675.479 246.563 675.271 246.125 674.917 245.833C674.563 245.542 674.063 245.396 673.417 245.396C672.813 245.396 672.339 245.521 671.995 245.771C671.662 246.021 671.495 246.38 671.495 246.849C671.495 247.193 671.636 247.474 671.917 247.693C672.209 247.901 672.985 248.13 674.245 248.38C675.162 248.568 675.844 248.859 676.292 249.255C676.75 249.641 676.979 250.177 676.979 250.865C676.979 251.656 676.651 252.281 675.995 252.74C675.349 253.188 674.563 253.411 673.636 253.411C672.594 253.411 671.745 253.151 671.089 252.63C670.433 252.109 670.104 251.365 670.104 250.396H671.183C671.183 251.042 671.412 251.547 671.87 251.911C672.328 252.276 672.927 252.458 673.667 252.458C674.365 252.458 674.901 252.323 675.276 252.052C675.651 251.781 675.839 251.396 675.839 250.896C675.839 250.49 675.667 250.167 675.323 249.927C674.979 249.677 674.349 249.464 673.433 249.286C672.214 249.057 671.396 248.76 670.979 248.396C670.563 248.021 670.354 247.536 670.354 246.943C670.354 246.172 670.646 245.563 671.229 245.115C671.823 244.667 672.568 244.443 673.464 244.443ZM679.271 244.646V245.896H678.255V244.646H679.271ZM679.271 247.005V253.208H678.255V247.005H679.271ZM683.39 246.865C683.817 246.865 684.187 246.958 684.499 247.146C684.822 247.333 685.072 247.583 685.249 247.896V247.005H686.218V252.74C686.218 253.719 685.983 254.458 685.515 254.958C685.046 255.469 684.322 255.724 683.343 255.724C682.634 255.724 682.035 255.568 681.546 255.255C681.056 254.943 680.796 254.495 680.765 253.911H681.78C681.801 254.224 681.973 254.469 682.296 254.646C682.619 254.823 682.983 254.911 683.39 254.911C683.994 254.911 684.452 254.714 684.765 254.318C685.088 253.922 685.249 253.328 685.249 252.536V252.146H685.233C685.077 252.49 684.822 252.766 684.468 252.974C684.124 253.182 683.733 253.286 683.296 253.286C682.452 253.286 681.78 252.995 681.28 252.411C680.78 251.828 680.53 251.068 680.53 250.13C680.53 249.182 680.78 248.401 681.28 247.786C681.78 247.172 682.483 246.865 683.39 246.865ZM681.608 250.021C681.608 250.75 681.759 251.328 682.062 251.755C682.374 252.172 682.806 252.38 683.358 252.38C683.921 252.38 684.369 252.161 684.702 251.724C685.035 251.286 685.202 250.703 685.202 249.974C685.202 249.318 685.046 248.786 684.733 248.38C684.431 247.964 683.994 247.755 683.421 247.755C682.858 247.755 682.416 247.964 682.093 248.38C681.77 248.786 681.608 249.333 681.608 250.021ZM690.765 246.865C691.504 246.865 692.041 247.057 692.374 247.443C692.718 247.818 692.89 248.365 692.89 249.083V253.208H691.874V248.974C691.874 248.62 691.759 248.328 691.53 248.099C691.312 247.87 690.999 247.755 690.593 247.755C690.02 247.755 689.572 247.932 689.249 248.286C688.926 248.641 688.765 249.099 688.765 249.661V253.208H687.749V247.005H688.718V247.99H688.733C688.963 247.604 689.239 247.323 689.562 247.146C689.895 246.958 690.296 246.865 690.765 246.865Z" fill="#595959"/>
<path d="M696.157 251.88L695.923 252.911H694.657L694.892 251.88H696.157ZM695.782 253.615L694.813 258.208H693.548L694.517 253.615H695.782Z" fill="#595959"/>
<path d="M676.355 262.881C676.303 263.402 676.132 263.819 675.84 264.131C675.559 264.444 675.194 264.6 674.746 264.6C674.444 264.6 674.1 264.538 673.715 264.413C673.34 264.277 672.954 264.131 672.559 263.975C672.152 263.819 671.824 263.741 671.574 263.741C671.345 263.741 671.158 263.819 671.012 263.975C670.866 264.121 670.767 264.345 670.715 264.647H669.949C670.001 264.116 670.168 263.699 670.449 263.397C670.73 263.085 671.095 262.928 671.543 262.928C671.96 262.928 672.522 263.069 673.23 263.35C673.928 263.631 674.428 263.772 674.73 263.772C674.96 263.772 675.147 263.699 675.293 263.553C675.439 263.397 675.533 263.173 675.574 262.881H676.355ZM676.355 265.163C676.303 265.694 676.132 266.111 675.84 266.413C675.559 266.715 675.194 266.866 674.746 266.866C674.34 266.866 673.777 266.725 673.059 266.444C672.35 266.163 671.855 266.022 671.574 266.022C671.345 266.022 671.158 266.1 671.012 266.256C670.866 266.402 670.767 266.621 670.715 266.913H669.949C670.001 266.392 670.168 265.98 670.449 265.678C670.741 265.366 671.105 265.21 671.543 265.21C671.96 265.21 672.522 265.35 673.23 265.631C673.939 265.913 674.439 266.053 674.73 266.053C674.96 266.053 675.147 265.98 675.293 265.835C675.439 265.678 675.533 265.454 675.574 265.163H676.355ZM681.01 259.413V267.928H679.994V261.835H677.791V261.006H677.822C678.541 261.006 679.098 260.881 679.494 260.631C679.89 260.371 680.14 259.965 680.244 259.413H681.01ZM686.746 259.413C687.225 259.413 687.637 259.491 687.98 259.647C688.335 259.803 688.637 260.038 688.887 260.35C689.355 260.965 689.59 262.1 689.59 263.756C689.59 264.579 689.533 265.272 689.418 265.835C689.303 266.387 689.126 266.819 688.887 267.131C688.647 267.444 688.35 267.678 687.996 267.835C687.642 267.991 687.225 268.069 686.746 268.069C685.809 268.069 685.105 267.756 684.637 267.131C684.158 266.496 683.918 265.371 683.918 263.756C683.918 262.121 684.158 260.991 684.637 260.366C685.105 259.73 685.809 259.413 686.746 259.413ZM684.996 263.741C684.996 264.418 685.033 264.98 685.105 265.428C685.189 265.876 685.303 266.22 685.449 266.46C685.751 266.939 686.184 267.178 686.746 267.178C687.382 267.178 687.835 266.902 688.105 266.35C688.251 266.079 688.355 265.73 688.418 265.303C688.48 264.876 688.512 264.366 688.512 263.772C688.512 263.574 688.507 263.355 688.496 263.116C688.496 262.866 688.48 262.616 688.449 262.366C688.418 262.105 688.366 261.855 688.293 261.616C688.23 261.366 688.132 261.147 687.996 260.96C687.871 260.772 687.704 260.621 687.496 260.506C687.298 260.381 687.048 260.319 686.746 260.319C686.475 260.319 686.23 260.376 686.012 260.491C685.803 260.605 685.621 260.777 685.465 261.006C685.152 261.475 684.996 262.387 684.996 263.741ZM692.92 261.585C693.753 261.585 694.373 261.746 694.779 262.069C695.186 262.392 695.41 262.876 695.451 263.522H694.436V263.506C694.404 263.184 694.258 262.934 693.998 262.756C693.738 262.569 693.404 262.475 692.998 262.475C692.592 262.475 692.269 262.548 692.029 262.694C691.79 262.829 691.67 263.022 691.67 263.272C691.67 263.501 691.774 263.689 691.982 263.835C692.191 263.97 692.508 264.085 692.936 264.178L693.889 264.397C694.493 264.533 694.951 264.736 695.264 265.006C695.576 265.277 695.732 265.647 695.732 266.116C695.732 266.73 695.493 267.21 695.014 267.553C694.545 267.897 693.904 268.069 693.092 268.069C692.3 268.069 691.67 267.892 691.201 267.538C690.743 267.184 690.498 266.663 690.467 265.975H691.482C691.493 266.361 691.644 266.658 691.936 266.866C692.238 267.074 692.644 267.178 693.154 267.178C693.644 267.178 694.014 267.1 694.264 266.944C694.524 266.788 694.654 266.553 694.654 266.241C694.654 265.97 694.524 265.756 694.264 265.6C694.014 265.434 693.498 265.272 692.717 265.116C691.936 264.96 691.383 264.741 691.061 264.46C690.748 264.178 690.592 263.809 690.592 263.35C690.592 262.809 690.811 262.381 691.248 262.069C691.696 261.746 692.253 261.585 692.92 261.585Z" fill="#595959"/>
<path fill-rule="evenodd" clip-rule="evenodd" d="M727.195 232.558H816.046V278.259H727.195V232.558Z" stroke="#595959" stroke-miterlimit="10" stroke-linejoin="round"/>
<path d="M758.185 244.366V245.319H753.701V248.037H757.638V249.006H753.701V252.928H752.56V244.366H758.185ZM760.357 244.366V245.616H759.341V244.366H760.357ZM760.357 246.725V252.928H759.341V246.725H760.357ZM764.96 246.584C765.7 246.584 766.236 246.777 766.57 247.162C766.914 247.537 767.085 248.084 767.085 248.803V252.928H766.07V248.694C766.07 248.34 765.955 248.048 765.726 247.819C765.507 247.59 765.195 247.475 764.789 247.475C764.216 247.475 763.768 247.652 763.445 248.006C763.122 248.36 762.96 248.819 762.96 249.381V252.928H761.945V246.725H762.914V247.709H762.929C763.158 247.324 763.434 247.043 763.757 246.866C764.091 246.678 764.492 246.584 764.96 246.584ZM771.166 246.584C772.009 246.584 772.603 246.735 772.947 247.037C773.301 247.34 773.478 247.741 773.478 248.241C773.478 250.397 773.478 251.595 773.478 251.834C773.478 252.064 773.587 252.178 773.806 252.178C773.858 252.178 773.91 252.173 773.962 252.162C774.014 252.142 774.067 252.126 774.119 252.116V252.897C774.025 252.959 773.916 253.001 773.791 253.022C773.666 253.053 773.53 253.069 773.384 253.069C773.103 253.069 772.889 252.991 772.744 252.834C772.598 252.678 772.525 252.439 772.525 252.116C772.254 252.439 771.936 252.678 771.572 252.834C771.207 252.991 770.796 253.069 770.337 253.069C769.702 253.069 769.202 252.918 768.837 252.616C768.473 252.314 768.291 251.886 768.291 251.334C768.291 250.772 768.468 250.329 768.822 250.006C769.176 249.683 770.009 249.439 771.322 249.272C771.77 249.209 772.072 249.126 772.228 249.022C772.395 248.907 772.478 248.735 772.478 248.506C772.478 248.162 772.363 247.907 772.134 247.741C771.916 247.564 771.567 247.475 771.087 247.475C770.587 247.475 770.207 247.574 769.947 247.772C769.697 247.959 769.561 248.256 769.541 248.662H768.525C768.556 247.975 768.796 247.459 769.244 247.116C769.702 246.761 770.343 246.584 771.166 246.584ZM769.369 251.256C769.369 251.548 769.473 251.777 769.681 251.944C769.889 252.1 770.186 252.178 770.572 252.178C771.145 252.178 771.603 252.037 771.947 251.756C772.291 251.465 772.462 251.142 772.462 250.787V249.725C772.285 249.84 772.061 249.923 771.791 249.975C771.52 250.017 771.155 250.069 770.697 250.131C770.249 250.194 769.916 250.319 769.697 250.506C769.478 250.683 769.369 250.933 769.369 251.256ZM776.142 244.366V252.928H775.126V244.366H776.142ZM778.808 244.366V245.616H777.792V244.366H778.808ZM778.808 246.725V252.928H777.792V246.725H778.808ZM784.958 246.725V247.412L781.162 252.022H785.13V252.928H779.896V252.147L783.646 247.631H780.13V246.725H784.958ZM788.517 246.584C789.413 246.584 790.106 246.907 790.595 247.553C791.085 248.189 791.33 249.006 791.33 250.006V250.131H786.689V250.209C786.689 250.803 786.861 251.282 787.205 251.647C787.548 252.001 788.022 252.178 788.626 252.178C789.074 252.178 789.429 252.074 789.689 251.866C789.96 251.647 790.137 251.345 790.22 250.959H791.236C791.1 251.647 790.798 252.173 790.33 252.537C789.861 252.892 789.278 253.069 788.58 253.069C787.934 253.069 787.382 252.923 786.923 252.631C786.475 252.34 786.142 251.933 785.923 251.412C785.715 250.881 785.611 250.34 785.611 249.787C785.611 248.871 785.887 248.11 786.439 247.506C786.991 246.892 787.684 246.584 788.517 246.584ZM786.689 249.225H790.251C790.22 248.725 790.038 248.308 789.705 247.975C789.371 247.642 788.955 247.475 788.455 247.475C787.986 247.475 787.585 247.636 787.251 247.959C786.918 248.272 786.731 248.694 786.689 249.225Z" fill="#595959"/>
<path d="M765.159 261.881C765.107 262.402 764.935 262.819 764.643 263.131C764.362 263.444 763.997 263.6 763.549 263.6C763.247 263.6 762.903 263.537 762.518 263.412C762.143 263.277 761.758 263.131 761.362 262.975C760.956 262.819 760.627 262.741 760.377 262.741C760.148 262.741 759.961 262.819 759.815 262.975C759.669 263.121 759.57 263.345 759.518 263.647H758.752C758.805 263.116 758.971 262.699 759.252 262.397C759.534 262.084 759.898 261.928 760.346 261.928C760.763 261.928 761.325 262.069 762.034 262.35C762.732 262.631 763.232 262.772 763.534 262.772C763.763 262.772 763.95 262.699 764.096 262.553C764.242 262.397 764.336 262.173 764.377 261.881H765.159ZM765.159 264.162C765.107 264.694 764.935 265.11 764.643 265.412C764.362 265.715 763.997 265.866 763.549 265.866C763.143 265.866 762.581 265.725 761.862 265.444C761.153 265.162 760.659 265.022 760.377 265.022C760.148 265.022 759.961 265.1 759.815 265.256C759.669 265.402 759.57 265.621 759.518 265.912H758.752C758.805 265.392 758.971 264.98 759.252 264.678C759.544 264.366 759.909 264.209 760.346 264.209C760.763 264.209 761.325 264.35 762.034 264.631C762.742 264.912 763.242 265.053 763.534 265.053C763.763 265.053 763.95 264.98 764.096 264.834C764.242 264.678 764.336 264.454 764.377 264.162H765.159ZM769.813 258.412V266.928H768.797V260.834H766.594V260.006H766.625C767.344 260.006 767.902 259.881 768.297 259.631C768.693 259.371 768.943 258.965 769.047 258.412H769.813ZM775.549 258.412C776.028 258.412 776.44 258.491 776.784 258.647C777.138 258.803 777.44 259.037 777.69 259.35C778.159 259.965 778.393 261.1 778.393 262.756C778.393 263.579 778.336 264.272 778.221 264.834C778.107 265.386 777.93 265.819 777.69 266.131C777.45 266.444 777.153 266.678 776.799 266.834C776.445 266.991 776.028 267.069 775.549 267.069C774.612 267.069 773.909 266.756 773.44 266.131C772.961 265.496 772.721 264.371 772.721 262.756C772.721 261.121 772.961 259.991 773.44 259.366C773.909 258.73 774.612 258.412 775.549 258.412ZM773.799 262.741C773.799 263.418 773.836 263.98 773.909 264.428C773.992 264.876 774.107 265.22 774.252 265.459C774.555 265.939 774.987 266.178 775.549 266.178C776.185 266.178 776.638 265.902 776.909 265.35C777.055 265.079 777.159 264.73 777.221 264.303C777.284 263.876 777.315 263.366 777.315 262.772C777.315 262.574 777.31 262.355 777.299 262.116C777.299 261.866 777.284 261.616 777.252 261.366C777.221 261.105 777.169 260.855 777.096 260.616C777.034 260.366 776.935 260.147 776.799 259.959C776.674 259.772 776.508 259.621 776.299 259.506C776.101 259.381 775.851 259.319 775.549 259.319C775.278 259.319 775.034 259.376 774.815 259.491C774.607 259.605 774.424 259.777 774.268 260.006C773.956 260.475 773.799 261.386 773.799 262.741ZM781.723 260.584C782.556 260.584 783.176 260.746 783.583 261.069C783.989 261.392 784.213 261.876 784.254 262.522H783.239V262.506C783.208 262.183 783.062 261.933 782.801 261.756C782.541 261.569 782.208 261.475 781.801 261.475C781.395 261.475 781.072 261.548 780.833 261.694C780.593 261.829 780.473 262.022 780.473 262.272C780.473 262.501 780.577 262.689 780.786 262.834C780.994 262.97 781.312 263.084 781.739 263.178L782.692 263.397C783.296 263.532 783.754 263.735 784.067 264.006C784.379 264.277 784.536 264.647 784.536 265.116C784.536 265.73 784.296 266.209 783.817 266.553C783.348 266.897 782.708 267.069 781.895 267.069C781.103 267.069 780.473 266.892 780.004 266.537C779.546 266.183 779.301 265.662 779.27 264.975H780.286C780.296 265.36 780.447 265.657 780.739 265.866C781.041 266.074 781.447 266.178 781.958 266.178C782.447 266.178 782.817 266.1 783.067 265.944C783.327 265.787 783.458 265.553 783.458 265.241C783.458 264.97 783.327 264.756 783.067 264.6C782.817 264.433 782.301 264.272 781.52 264.116C780.739 263.959 780.187 263.741 779.864 263.459C779.551 263.178 779.395 262.808 779.395 262.35C779.395 261.808 779.614 261.381 780.051 261.069C780.499 260.746 781.056 260.584 781.723 260.584Z" fill="#595959"/>
<path d="M70.6211 215.154C70.6211 211.792 71.9567 208.567 74.3342 206.19C76.7116 203.813 79.9361 202.477 83.2983 202.477H307.016C314.017 202.477 319.693 196.801 319.693 189.8C319.693 196.801 325.368 202.477 332.37 202.477H800.621C807.622 202.477 813.298 208.153 813.298 215.154" stroke="#E62058" stroke-miterlimit="10" stroke-linejoin="round"/>
<path d="M70.5779 159.365C70.5779 156.003 71.9135 152.778 74.2909 150.401C76.6684 148.024 79.8929 146.688 83.2551 146.688H241.973C248.975 146.688 254.65 141.012 254.65 134.011C254.65 141.012 260.326 146.688 267.328 146.688H423.066C430.067 146.688 435.743 152.364 435.743 159.365" stroke="#E62058" stroke-miterlimit="10" stroke-linejoin="round"/>
<path d="M442.605 159.366C442.605 156.004 443.941 152.779 446.318 150.402C448.695 148.025 451.92 146.689 455.282 146.689H654.359C661.36 146.689 667.036 141.013 667.036 134.012C667.036 141.013 672.711 146.689 679.713 146.689H875.156C882.158 146.689 887.833 152.365 887.833 159.366" stroke="#E62058" stroke-miterlimit="10" stroke-linejoin="round"/>
<path fill-rule="evenodd" clip-rule="evenodd" d="M440.109 302.539H892.676V348.24H440.109V302.539Z" stroke="#595959" stroke-miterlimit="10" stroke-linejoin="round"/>
<path d="M641.588 312.44C642.64 312.44 643.521 312.716 644.229 313.268C644.937 313.81 645.364 314.565 645.51 315.534H644.245C644.099 314.888 643.792 314.393 643.323 314.049C642.854 313.695 642.271 313.518 641.573 313.518C640.562 313.518 639.771 313.872 639.198 314.58C638.635 315.289 638.354 316.216 638.354 317.362C638.354 318.58 638.63 319.549 639.182 320.268C639.745 320.987 640.547 321.346 641.588 321.346C642.359 321.346 642.995 321.101 643.495 320.612C643.995 320.122 644.276 319.455 644.338 318.612H645.604C645.469 319.841 645.042 320.784 644.323 321.44C643.604 322.096 642.656 322.424 641.479 322.424C640.114 322.424 639.042 321.971 638.26 321.065C637.479 320.159 637.088 318.955 637.088 317.455C637.088 315.976 637.489 314.773 638.292 313.846C639.104 312.909 640.203 312.44 641.588 312.44ZM649.964 315.143C651.005 315.143 651.823 315.481 652.417 316.159C653.01 316.825 653.307 317.69 653.307 318.752C653.307 319.825 653 320.695 652.385 321.362C651.781 322.018 650.974 322.346 649.964 322.346C648.964 322.346 648.156 322.023 647.542 321.377C646.927 320.721 646.62 319.846 646.62 318.752C646.62 317.659 646.922 316.784 647.526 316.127C648.13 315.471 648.943 315.143 649.964 315.143ZM647.807 318.752C647.807 319.544 648.01 320.174 648.417 320.643C648.823 321.112 649.339 321.346 649.964 321.346C650.578 321.346 651.089 321.112 651.495 320.643C651.901 320.164 652.104 319.534 652.104 318.752C652.104 317.971 651.901 317.341 651.495 316.862C651.099 316.382 650.583 316.143 649.948 316.143C649.344 316.143 648.833 316.377 648.417 316.846C648.01 317.315 647.807 317.95 647.807 318.752ZM657.961 315.143C658.461 315.143 658.872 315.247 659.195 315.455C659.518 315.653 659.737 315.94 659.851 316.315C660.091 315.94 660.398 315.653 660.773 315.455C661.148 315.247 661.565 315.143 662.023 315.143C662.794 315.143 663.367 315.32 663.742 315.674C664.117 316.018 664.304 316.492 664.304 317.096V322.19H663.179V317.627C663.179 317.127 663.07 316.757 662.851 316.518C662.643 316.268 662.304 316.143 661.836 316.143C661.273 316.143 660.83 316.31 660.507 316.643C660.195 316.966 660.039 317.372 660.039 317.862V322.19H658.898V317.627C658.898 317.127 658.794 316.757 658.586 316.518C658.377 316.268 658.054 316.143 657.617 316.143C657.252 316.143 656.929 316.231 656.648 316.409C656.377 316.575 656.164 316.81 656.007 317.112C655.851 317.414 655.773 317.669 655.773 317.877V322.19H654.648V315.299H655.711V316.315H655.742C656.002 315.919 656.315 315.627 656.679 315.44C657.044 315.242 657.471 315.143 657.961 315.143ZM669.33 315.143C669.83 315.143 670.241 315.247 670.564 315.455C670.887 315.653 671.106 315.94 671.22 316.315C671.46 315.94 671.767 315.653 672.142 315.455C672.517 315.247 672.934 315.143 673.392 315.143C674.163 315.143 674.736 315.32 675.111 315.674C675.486 316.018 675.674 316.492 675.674 317.096V322.19H674.549V317.627C674.549 317.127 674.439 316.757 674.22 316.518C674.012 316.268 673.674 316.143 673.205 316.143C672.642 316.143 672.2 316.31 671.877 316.643C671.564 316.966 671.408 317.372 671.408 317.862V322.19H670.267V317.627C670.267 317.127 670.163 316.757 669.955 316.518C669.746 316.268 669.424 316.143 668.986 316.143C668.621 316.143 668.299 316.231 668.017 316.409C667.746 316.575 667.533 316.81 667.377 317.112C667.22 317.414 667.142 317.669 667.142 317.877V322.19H666.017V315.299H667.08V316.315H667.111C667.371 315.919 667.684 315.627 668.049 315.44C668.413 315.242 668.84 315.143 669.33 315.143ZM678.574 312.674V314.065H677.449V312.674H678.574ZM678.574 315.299V322.19H677.449V315.299H678.574ZM681.91 313.237V315.299H683.285V316.299H681.91V320.612C681.91 320.955 682.025 321.138 682.254 321.159C682.483 321.179 682.723 321.19 682.973 321.19H683.285V322.19H682.348C681.733 322.19 681.316 322.08 681.098 321.862C680.889 321.643 680.785 321.273 680.785 320.752V316.299H679.598V315.299H680.785V313.237H681.91Z" fill="#595959"/>
<path d="M686.186 320.862L685.951 321.893H684.686L684.92 320.862H686.186ZM685.811 322.596L684.842 327.19H683.576L684.545 322.596H685.811ZM688.997 322.705V324.471H690.778V325.424H688.997V327.19H688.06V325.424H686.278V324.471H688.06V322.705H688.997ZM695.526 320.971L694.214 327.19H692.87L693.714 323.159H692.198L692.401 322.205C692.964 322.185 693.401 322.08 693.714 321.893C694.036 321.695 694.297 321.388 694.495 320.971H695.526Z" fill="#595959"/>
<path d="M659.21 328.737C660.304 328.737 661.117 329.112 661.648 329.862C662.179 330.612 662.445 331.747 662.445 333.268C662.445 335.007 662.169 336.289 661.617 337.112C661.075 337.935 660.257 338.346 659.164 338.346C658.351 338.346 657.69 338.143 657.179 337.737C656.679 337.32 656.388 336.711 656.304 335.909H657.429C657.492 336.367 657.679 336.721 657.992 336.971C658.315 337.221 658.705 337.346 659.164 337.346C659.861 337.346 660.382 337.049 660.726 336.455C661.07 335.851 661.263 334.935 661.304 333.705L661.273 333.674C661.054 334.08 660.752 334.398 660.367 334.627C659.981 334.856 659.549 334.971 659.07 334.971C658.153 334.971 657.429 334.69 656.898 334.127C656.367 333.565 656.101 332.794 656.101 331.815C656.101 330.919 656.393 330.185 656.976 329.612C657.559 329.028 658.304 328.737 659.21 328.737ZM657.304 331.971C657.304 332.513 657.486 332.987 657.851 333.393C658.216 333.789 658.653 333.987 659.164 333.987C659.726 333.987 660.19 333.784 660.554 333.377C660.919 332.971 661.101 332.476 661.101 331.893C661.101 331.289 660.924 330.778 660.57 330.362C660.226 329.945 659.752 329.737 659.148 329.737C658.565 329.737 658.111 329.94 657.789 330.346C657.466 330.742 657.304 331.284 657.304 331.971ZM666.764 328.737C667.295 328.737 667.753 328.825 668.139 329.002C668.524 329.169 668.852 329.429 669.123 329.784C669.654 330.461 669.92 331.716 669.92 333.549C669.92 334.466 669.852 335.237 669.717 335.862C669.592 336.476 669.394 336.961 669.123 337.315C668.863 337.648 668.534 337.903 668.139 338.08C667.753 338.257 667.295 338.346 666.764 338.346C665.711 338.346 664.925 337.997 664.404 337.299C663.883 336.591 663.623 335.341 663.623 333.549C663.623 331.737 663.883 330.487 664.404 329.799C664.935 329.091 665.722 328.737 666.764 328.737ZM664.81 333.534C664.81 334.294 664.852 334.924 664.935 335.424C665.029 335.914 665.154 336.294 665.31 336.565C665.644 337.086 666.128 337.346 666.764 337.346C667.461 337.346 667.967 337.044 668.279 336.44C668.425 336.138 668.534 335.752 668.607 335.284C668.68 334.804 668.717 334.237 668.717 333.58C668.717 333.351 668.711 333.101 668.701 332.83C668.701 332.56 668.68 332.284 668.639 332.002C668.607 331.721 668.55 331.445 668.467 331.174C668.394 330.903 668.29 330.664 668.154 330.455C668.008 330.247 667.821 330.075 667.592 329.94C667.373 329.804 667.092 329.737 666.748 329.737C666.446 329.737 666.175 329.804 665.935 329.94C665.706 330.065 665.503 330.257 665.326 330.518C664.982 331.028 664.81 332.034 664.81 333.534ZM673.614 331.143C674.541 331.143 675.228 331.325 675.676 331.69C676.134 332.044 676.384 332.58 676.426 333.299H675.301V333.284C675.27 332.919 675.108 332.638 674.817 332.44C674.525 332.242 674.155 332.143 673.707 332.143C673.249 332.143 672.884 332.221 672.614 332.377C672.353 332.523 672.223 332.737 672.223 333.018C672.223 333.268 672.337 333.476 672.567 333.643C672.806 333.799 673.16 333.924 673.629 334.018L674.692 334.268C675.358 334.414 675.864 334.643 676.207 334.955C676.561 335.257 676.739 335.664 676.739 336.174C676.739 336.851 676.473 337.382 675.942 337.768C675.421 338.153 674.707 338.346 673.801 338.346C672.926 338.346 672.228 338.153 671.707 337.768C671.197 337.372 670.921 336.789 670.879 336.018H672.02C672.03 336.445 672.197 336.773 672.52 337.002C672.853 337.231 673.301 337.346 673.864 337.346C674.416 337.346 674.832 337.263 675.114 337.096C675.395 336.919 675.535 336.659 675.535 336.315C675.535 336.013 675.395 335.773 675.114 335.596C674.832 335.409 674.259 335.231 673.395 335.065C672.53 334.888 671.921 334.648 671.567 334.346C671.212 334.034 671.035 333.617 671.035 333.096C671.035 332.492 671.28 332.018 671.77 331.674C672.259 331.32 672.874 331.143 673.614 331.143Z" fill="#595959"/>
<path d="M892.148 91.4344V378.395" stroke="#595959" stroke-miterlimit="10" stroke-linejoin="round" stroke-dasharray="4 3"/>
<path d="M439.069 90.458V379.371" stroke="#595959" stroke-miterlimit="10" stroke-linejoin="round" stroke-dasharray="4 3"/>
<path d="M68.8542 92.0958V377.734" stroke="#595959" stroke-miterlimit="10" stroke-linejoin="round" stroke-dasharray="4 3"/>
<path d="M277.187 167.828L279.906 176.078H279.937L282.687 167.828H284L280.609 177.344H279.172L275.812 167.828H277.187ZM287.237 170.297C288.279 170.297 289.097 170.635 289.691 171.312C290.284 171.979 290.581 172.844 290.581 173.906C290.581 174.979 290.274 175.849 289.659 176.516C289.055 177.172 288.248 177.5 287.237 177.5C286.237 177.5 285.43 177.177 284.816 176.531C284.201 175.875 283.894 175 283.894 173.906C283.894 172.812 284.196 171.937 284.8 171.281C285.404 170.625 286.217 170.297 287.237 170.297ZM285.081 173.906C285.081 174.698 285.284 175.328 285.691 175.797C286.097 176.266 286.612 176.5 287.237 176.5C287.852 176.5 288.362 176.266 288.769 175.797C289.175 175.318 289.378 174.687 289.378 173.906C289.378 173.125 289.175 172.495 288.769 172.016C288.373 171.536 287.857 171.297 287.222 171.297C286.618 171.297 286.107 171.531 285.691 172C285.284 172.469 285.081 173.104 285.081 173.906ZM293.484 168.391V170.453H294.859V171.453H293.484V175.766C293.484 176.109 293.599 176.292 293.828 176.312C294.057 176.333 294.297 176.344 294.547 176.344H294.859V177.344H293.922C293.307 177.344 292.891 177.234 292.672 177.016C292.464 176.797 292.359 176.427 292.359 175.906V171.453H291.172V170.453H292.359V168.391H293.484ZM297.307 167.828V169.219H296.182V167.828H297.307ZM297.307 170.453V177.344H296.182V170.453H297.307ZM302.409 170.297C303.242 170.297 303.846 170.51 304.221 170.937C304.596 171.365 304.784 171.969 304.784 172.75V177.344H303.643V172.641C303.643 172.245 303.518 171.922 303.268 171.672C303.018 171.422 302.674 171.297 302.237 171.297C301.601 171.297 301.101 171.495 300.737 171.891C300.383 172.276 300.206 172.781 300.206 173.406V177.344H299.081V170.453H300.143V171.547H300.174C300.424 171.12 300.732 170.807 301.096 170.609C301.461 170.401 301.898 170.297 302.409 170.297ZM309.29 170.297C309.769 170.297 310.186 170.401 310.54 170.609C310.894 170.818 311.165 171.094 311.353 171.437H311.368V170.453H312.431V176.828C312.431 177.911 312.17 178.734 311.649 179.297C311.129 179.859 310.326 180.141 309.243 180.141C308.451 180.141 307.785 179.963 307.243 179.609C306.701 179.266 306.415 178.771 306.384 178.125H307.509C307.53 178.469 307.717 178.74 308.071 178.937C308.436 179.135 308.842 179.234 309.29 179.234C309.967 179.234 310.483 179.01 310.837 178.562C311.191 178.125 311.368 177.474 311.368 176.609V176.172H311.337C311.16 176.557 310.879 176.865 310.493 177.094C310.108 177.312 309.67 177.422 309.181 177.422C308.254 177.422 307.509 177.104 306.946 176.469C306.394 175.823 306.118 174.979 306.118 173.937C306.118 172.885 306.394 172.016 306.946 171.328C307.509 170.641 308.29 170.297 309.29 170.297ZM307.306 173.797C307.306 174.62 307.478 175.266 307.821 175.734C308.165 176.193 308.644 176.422 309.259 176.422C309.884 176.422 310.379 176.182 310.743 175.703C311.118 175.213 311.306 174.568 311.306 173.766C311.306 173.026 311.134 172.432 310.79 171.984C310.446 171.526 309.962 171.297 309.337 171.297C308.701 171.297 308.201 171.526 307.837 171.984C307.483 172.432 307.306 173.036 307.306 173.797ZM322.568 167.828C323.391 167.828 324.068 168.047 324.599 168.484C325.131 168.922 325.396 169.536 325.396 170.328C325.396 170.953 325.261 171.474 324.99 171.891C324.719 172.297 324.302 172.578 323.74 172.734V172.75C324.23 172.854 324.584 173.083 324.802 173.437C325.032 173.781 325.167 174.385 325.209 175.25C325.23 175.802 325.282 176.24 325.365 176.562C325.448 176.875 325.568 177.135 325.724 177.344H324.318C324.235 177.24 324.183 177.135 324.162 177.031C324.141 176.927 324.12 176.786 324.099 176.609L324.037 175.562C324.026 175.073 323.922 174.578 323.724 174.078C323.526 173.568 323.094 173.302 322.427 173.281H319.287V177.344H318.037V167.828H322.568ZM322.006 172.219C322.704 172.219 323.23 172.083 323.584 171.812C323.948 171.531 324.131 171.099 324.131 170.516C324.131 170.005 323.985 169.609 323.693 169.328C323.412 169.036 323.011 168.891 322.49 168.891H319.287V172.219H322.006ZM329.949 170.297C330.99 170.297 331.808 170.635 332.402 171.312C332.996 171.979 333.292 172.844 333.292 173.906C333.292 174.979 332.985 175.849 332.371 176.516C331.766 177.172 330.959 177.5 329.949 177.5C328.949 177.5 328.141 177.177 327.527 176.531C326.912 175.875 326.605 175 326.605 173.906C326.605 172.812 326.907 171.937 327.511 171.281C328.115 170.625 328.928 170.297 329.949 170.297ZM327.792 173.906C327.792 174.698 327.996 175.328 328.402 175.797C328.808 176.266 329.324 176.5 329.949 176.5C330.563 176.5 331.074 176.266 331.48 175.797C331.886 175.318 332.089 174.687 332.089 173.906C332.089 173.125 331.886 172.495 331.48 172.016C331.084 171.536 330.568 171.297 329.933 171.297C329.329 171.297 328.818 171.531 328.402 172C327.996 172.469 327.792 173.104 327.792 173.906ZM335.758 170.453V175.156C335.758 175.542 335.883 175.865 336.133 176.125C336.383 176.375 336.727 176.5 337.164 176.5C337.81 176.5 338.31 176.302 338.664 175.906C339.019 175.51 339.196 175.005 339.196 174.391V170.453H340.336V177.344H339.274V176.25H339.243C338.993 176.687 338.675 177.005 338.289 177.203C337.914 177.401 337.482 177.5 336.993 177.5C336.19 177.5 335.597 177.297 335.211 176.891C334.826 176.474 334.633 175.859 334.633 175.047V170.453H335.758ZM345.374 170.297C346.207 170.297 346.811 170.51 347.186 170.937C347.561 171.365 347.749 171.969 347.749 172.75V177.344H346.608V172.641C346.608 172.245 346.483 171.922 346.233 171.672C345.983 171.422 345.639 171.297 345.202 171.297C344.566 171.297 344.066 171.495 343.702 171.891C343.348 172.276 343.171 172.781 343.171 173.406V177.344H342.046V170.453H343.108V171.547H343.139C343.389 171.12 343.697 170.807 344.061 170.609C344.426 170.401 344.863 170.297 345.374 170.297ZM355.614 167.828V177.344H354.474V176.406H354.443C354.265 176.771 353.984 177.047 353.599 177.234C353.213 177.411 352.765 177.5 352.255 177.5C351.286 177.5 350.515 177.167 349.943 176.5C349.37 175.833 349.083 174.958 349.083 173.875C349.083 172.812 349.359 171.953 349.911 171.297C350.474 170.63 351.245 170.297 352.224 170.297C352.672 170.297 353.099 170.391 353.505 170.578C353.911 170.755 354.224 171.021 354.443 171.375H354.474V167.828H355.614ZM350.271 173.953C350.271 174.693 350.463 175.302 350.849 175.781C351.234 176.26 351.755 176.5 352.411 176.5C353.078 176.5 353.594 176.26 353.958 175.781C354.333 175.302 354.521 174.677 354.521 173.906C354.521 173.125 354.328 172.495 353.943 172.016C353.568 171.536 353.031 171.297 352.333 171.297C351.677 171.297 351.166 171.536 350.802 172.016C350.448 172.484 350.271 173.13 350.271 173.953Z" fill="#595959"/>
<path d="M363.968 167.828L363.608 169.391H361.702L362.062 167.828H363.968ZM363.405 170.453L361.937 177.344H360.03L361.499 170.453H363.405Z" fill="#595959"/>
<path d="M214.443 112.061L217.162 120.311H217.193L219.943 112.061H221.256L217.865 121.576H216.427L213.068 112.061H214.443ZM224.493 114.53C225.535 114.53 226.353 114.868 226.946 115.545C227.54 116.212 227.837 117.076 227.837 118.139C227.837 119.212 227.53 120.082 226.915 120.748C226.311 121.405 225.504 121.733 224.493 121.733C223.493 121.733 222.686 121.41 222.071 120.764C221.457 120.108 221.15 119.233 221.15 118.139C221.15 117.045 221.452 116.17 222.056 115.514C222.66 114.858 223.472 114.53 224.493 114.53ZM222.337 118.139C222.337 118.931 222.54 119.561 222.946 120.03C223.353 120.498 223.868 120.733 224.493 120.733C225.108 120.733 225.618 120.498 226.025 120.03C226.431 119.55 226.634 118.92 226.634 118.139C226.634 117.358 226.431 116.728 226.025 116.248C225.629 115.769 225.113 115.53 224.478 115.53C223.874 115.53 223.363 115.764 222.946 116.233C222.54 116.701 222.337 117.337 222.337 118.139ZM230.74 112.623V114.686H232.115V115.686H230.74V119.998C230.74 120.342 230.855 120.524 231.084 120.545C231.313 120.566 231.553 120.576 231.803 120.576H232.115V121.576H231.178C230.563 121.576 230.147 121.467 229.928 121.248C229.72 121.03 229.615 120.66 229.615 120.139V115.686H228.428V114.686H229.615V112.623H230.74ZM234.563 112.061V113.451H233.438V112.061H234.563ZM234.563 114.686V121.576H233.438V114.686H234.563ZM239.665 114.53C240.498 114.53 241.102 114.743 241.477 115.17C241.852 115.597 242.04 116.201 242.04 116.983V121.576H240.899V116.873C240.899 116.478 240.774 116.155 240.524 115.905C240.274 115.655 239.93 115.53 239.493 115.53C238.857 115.53 238.357 115.728 237.993 116.123C237.639 116.509 237.462 117.014 237.462 117.639V121.576H236.337V114.686H237.399V115.78H237.43C237.68 115.353 237.988 115.04 238.352 114.842C238.717 114.634 239.154 114.53 239.665 114.53ZM246.546 114.53C247.025 114.53 247.442 114.634 247.796 114.842C248.15 115.05 248.421 115.326 248.608 115.67H248.624V114.686H249.686V121.061C249.686 122.144 249.426 122.967 248.905 123.53C248.384 124.092 247.582 124.373 246.499 124.373C245.707 124.373 245.041 124.196 244.499 123.842C243.957 123.498 243.671 123.004 243.64 122.358H244.765C244.785 122.701 244.973 122.972 245.327 123.17C245.692 123.368 246.098 123.467 246.546 123.467C247.223 123.467 247.739 123.243 248.093 122.795C248.447 122.358 248.624 121.707 248.624 120.842V120.405H248.593C248.416 120.79 248.134 121.097 247.749 121.326C247.364 121.545 246.926 121.655 246.436 121.655C245.509 121.655 244.765 121.337 244.202 120.701C243.65 120.056 243.374 119.212 243.374 118.17C243.374 117.118 243.65 116.248 244.202 115.561C244.765 114.873 245.546 114.53 246.546 114.53ZM244.561 118.03C244.561 118.853 244.733 119.498 245.077 119.967C245.421 120.425 245.9 120.655 246.515 120.655C247.14 120.655 247.634 120.415 247.999 119.936C248.374 119.446 248.561 118.8 248.561 117.998C248.561 117.259 248.39 116.665 248.046 116.217C247.702 115.759 247.218 115.53 246.593 115.53C245.957 115.53 245.457 115.759 245.093 116.217C244.739 116.665 244.561 117.269 244.561 118.03ZM261.855 112.061V113.123H256.543V116.155H261.496V117.217H256.543V120.514H261.902V121.576H255.293V112.061H261.855ZM266.637 114.53C267.627 114.53 268.403 114.868 268.965 115.545C269.528 116.222 269.809 117.092 269.809 118.155C269.809 119.217 269.528 120.082 268.965 120.748C268.403 121.405 267.637 121.733 266.668 121.733C266.241 121.733 265.819 121.644 265.403 121.467C264.997 121.29 264.674 121.019 264.434 120.655H264.418V124.217H263.278V114.686H264.418V115.623H264.434C264.611 115.269 264.892 114.998 265.278 114.811C265.663 114.623 266.116 114.53 266.637 114.53ZM264.372 118.123C264.372 118.925 264.564 119.561 264.95 120.03C265.335 120.498 265.866 120.733 266.543 120.733C267.2 120.733 267.705 120.498 268.059 120.03C268.424 119.561 268.606 118.91 268.606 118.076C268.606 117.337 268.413 116.728 268.028 116.248C267.653 115.769 267.132 115.53 266.465 115.53C265.799 115.53 265.283 115.774 264.918 116.264C264.554 116.743 264.372 117.363 264.372 118.123ZM274.116 114.53C275.158 114.53 275.975 114.868 276.569 115.545C277.163 116.212 277.46 117.076 277.46 118.139C277.46 119.212 277.152 120.082 276.538 120.748C275.934 121.405 275.126 121.733 274.116 121.733C273.116 121.733 272.309 121.41 271.694 120.764C271.079 120.108 270.772 119.233 270.772 118.139C270.772 117.045 271.074 116.17 271.678 115.514C272.283 114.858 273.095 114.53 274.116 114.53ZM271.96 118.139C271.96 118.931 272.163 119.561 272.569 120.03C272.975 120.498 273.491 120.733 274.116 120.733C274.73 120.733 275.241 120.498 275.647 120.03C276.053 119.55 276.257 118.92 276.257 118.139C276.257 117.358 276.053 116.728 275.647 116.248C275.251 115.769 274.736 115.53 274.1 115.53C273.496 115.53 272.986 115.764 272.569 116.233C272.163 116.701 271.96 117.337 271.96 118.139ZM281.675 114.53C282.509 114.53 283.186 114.733 283.707 115.139C284.238 115.535 284.55 116.123 284.644 116.905H283.472C283.379 116.457 283.181 116.118 282.879 115.889C282.587 115.649 282.217 115.53 281.769 115.53C281.061 115.53 280.524 115.764 280.16 116.233C279.795 116.701 279.613 117.363 279.613 118.217C279.613 118.978 279.795 119.587 280.16 120.045C280.524 120.504 281.014 120.733 281.629 120.733C282.181 120.733 282.613 120.587 282.925 120.295C283.248 119.993 283.446 119.582 283.519 119.061H284.675C284.55 119.915 284.227 120.576 283.707 121.045C283.186 121.504 282.498 121.733 281.644 121.733C280.644 121.733 279.858 121.42 279.285 120.795C278.712 120.16 278.425 119.3 278.425 118.217C278.425 117.092 278.712 116.196 279.285 115.53C279.868 114.863 280.665 114.53 281.675 114.53ZM287.084 112.061V115.701H287.115C287.282 115.326 287.558 115.04 287.943 114.842C288.339 114.634 288.787 114.53 289.287 114.53C290.121 114.53 290.725 114.743 291.1 115.17C291.475 115.597 291.662 116.201 291.662 116.983V121.576H290.522V116.873C290.522 116.478 290.397 116.155 290.147 115.905C289.897 115.655 289.553 115.53 289.115 115.53C288.48 115.53 287.98 115.728 287.615 116.123C287.261 116.509 287.084 117.014 287.084 117.639V121.576H285.959V112.061H287.084Z" fill="#595959"/>
<path d="M295.012 120.248L294.778 121.28H293.512L293.747 120.248H295.012ZM294.637 121.983L293.668 126.576H292.403L293.372 121.983H294.637Z" fill="#595959"/>
<path d="M621.744 112.061L624.463 120.311H624.494L627.244 112.061H628.557L625.166 121.576H623.729L620.369 112.061H621.744ZM631.794 114.53C632.836 114.53 633.654 114.868 634.247 115.545C634.841 116.212 635.138 117.076 635.138 118.139C635.138 119.212 634.831 120.082 634.216 120.748C633.612 121.405 632.805 121.733 631.794 121.733C630.794 121.733 629.987 121.41 629.372 120.764C628.758 120.108 628.451 119.233 628.451 118.139C628.451 117.045 628.753 116.17 629.357 115.514C629.961 114.858 630.774 114.53 631.794 114.53ZM629.638 118.139C629.638 118.931 629.841 119.561 630.247 120.03C630.654 120.498 631.169 120.733 631.794 120.733C632.409 120.733 632.919 120.498 633.326 120.03C633.732 119.55 633.935 118.92 633.935 118.139C633.935 117.358 633.732 116.728 633.326 116.248C632.93 115.769 632.414 115.53 631.779 115.53C631.175 115.53 630.664 115.764 630.247 116.233C629.841 116.701 629.638 117.337 629.638 118.139ZM638.041 112.623V114.686H639.416V115.686H638.041V119.998C638.041 120.342 638.156 120.524 638.385 120.545C638.614 120.566 638.854 120.576 639.104 120.576H639.416V121.576H638.479C637.864 121.576 637.448 121.467 637.229 121.248C637.021 121.03 636.916 120.66 636.916 120.139V115.686H635.729V114.686H636.916V112.623H638.041ZM641.864 112.061V113.451H640.739V112.061H641.864ZM641.864 114.686V121.576H640.739V114.686H641.864ZM646.966 114.53C647.799 114.53 648.403 114.743 648.778 115.17C649.153 115.597 649.341 116.201 649.341 116.983V121.576H648.2V116.873C648.2 116.478 648.075 116.155 647.825 115.905C647.575 115.655 647.231 115.53 646.794 115.53C646.158 115.53 645.658 115.728 645.294 116.123C644.94 116.509 644.763 117.014 644.763 117.639V121.576H643.638V114.686H644.7V115.78H644.731C644.981 115.353 645.289 115.04 645.653 114.842C646.018 114.634 646.455 114.53 646.966 114.53ZM653.847 114.53C654.326 114.53 654.743 114.634 655.097 114.842C655.451 115.05 655.722 115.326 655.909 115.67H655.925V114.686H656.987V121.061C656.987 122.144 656.727 122.967 656.206 123.53C655.685 124.092 654.883 124.373 653.8 124.373C653.008 124.373 652.342 124.196 651.8 123.842C651.258 123.498 650.972 123.004 650.941 122.358H652.066C652.086 122.701 652.274 122.972 652.628 123.17C652.993 123.368 653.399 123.467 653.847 123.467C654.524 123.467 655.04 123.243 655.394 122.795C655.748 122.358 655.925 121.707 655.925 120.842V120.405H655.894C655.717 120.79 655.435 121.097 655.05 121.326C654.665 121.545 654.227 121.655 653.737 121.655C652.81 121.655 652.066 121.337 651.503 120.701C650.951 120.056 650.675 119.212 650.675 118.17C650.675 117.118 650.951 116.248 651.503 115.561C652.066 114.873 652.847 114.53 653.847 114.53ZM651.862 118.03C651.862 118.853 652.034 119.498 652.378 119.967C652.722 120.425 653.201 120.655 653.816 120.655C654.441 120.655 654.935 120.415 655.3 119.936C655.675 119.446 655.862 118.8 655.862 117.998C655.862 117.259 655.691 116.665 655.347 116.217C655.003 115.759 654.519 115.53 653.894 115.53C653.258 115.53 652.758 115.759 652.394 116.217C652.04 116.665 651.862 117.269 651.862 118.03ZM669.156 112.061V113.123H663.844V116.155H668.797V117.217H663.844V120.514H669.203V121.576H662.594V112.061H669.156ZM673.938 114.53C674.928 114.53 675.704 114.868 676.266 115.545C676.829 116.222 677.11 117.092 677.11 118.155C677.11 119.217 676.829 120.082 676.266 120.748C675.704 121.405 674.938 121.733 673.969 121.733C673.542 121.733 673.121 121.644 672.704 121.467C672.298 121.29 671.975 121.019 671.735 120.655H671.719V124.217H670.579V114.686H671.719V115.623H671.735C671.912 115.269 672.193 114.998 672.579 114.811C672.964 114.623 673.417 114.53 673.938 114.53ZM671.673 118.123C671.673 118.925 671.865 119.561 672.251 120.03C672.636 120.498 673.167 120.733 673.844 120.733C674.501 120.733 675.006 120.498 675.36 120.03C675.725 119.561 675.907 118.91 675.907 118.076C675.907 117.337 675.714 116.728 675.329 116.248C674.954 115.769 674.433 115.53 673.766 115.53C673.1 115.53 672.584 115.774 672.219 116.264C671.855 116.743 671.673 117.363 671.673 118.123ZM681.417 114.53C682.459 114.53 683.276 114.868 683.87 115.545C684.464 116.212 684.761 117.076 684.761 118.139C684.761 119.212 684.453 120.082 683.839 120.748C683.235 121.405 682.427 121.733 681.417 121.733C680.417 121.733 679.61 121.41 678.995 120.764C678.38 120.108 678.073 119.233 678.073 118.139C678.073 117.045 678.375 116.17 678.979 115.514C679.584 114.858 680.396 114.53 681.417 114.53ZM679.261 118.139C679.261 118.931 679.464 119.561 679.87 120.03C680.276 120.498 680.792 120.733 681.417 120.733C682.032 120.733 682.542 120.498 682.948 120.03C683.354 119.55 683.558 118.92 683.558 118.139C683.558 117.358 683.354 116.728 682.948 116.248C682.552 115.769 682.037 115.53 681.401 115.53C680.797 115.53 680.287 115.764 679.87 116.233C679.464 116.701 679.261 117.337 679.261 118.139ZM688.976 114.53C689.81 114.53 690.487 114.733 691.008 115.139C691.539 115.535 691.851 116.123 691.945 116.905H690.773C690.68 116.457 690.482 116.118 690.18 115.889C689.888 115.649 689.518 115.53 689.07 115.53C688.362 115.53 687.825 115.764 687.461 116.233C687.096 116.701 686.914 117.363 686.914 118.217C686.914 118.978 687.096 119.587 687.461 120.045C687.825 120.504 688.315 120.733 688.93 120.733C689.482 120.733 689.914 120.587 690.226 120.295C690.549 119.993 690.747 119.582 690.82 119.061H691.976C691.851 119.915 691.529 120.576 691.008 121.045C690.487 121.504 689.799 121.733 688.945 121.733C687.945 121.733 687.159 121.42 686.586 120.795C686.013 120.16 685.726 119.3 685.726 118.217C685.726 117.092 686.013 116.196 686.586 115.53C687.169 114.863 687.966 114.53 688.976 114.53ZM694.385 112.061V115.701H694.416C694.583 115.326 694.859 115.04 695.244 114.842C695.64 114.634 696.088 114.53 696.588 114.53C697.422 114.53 698.026 114.743 698.401 115.17C698.776 115.597 698.963 116.201 698.963 116.983V121.576H697.823V116.873C697.823 116.478 697.698 116.155 697.448 115.905C697.198 115.655 696.854 115.53 696.416 115.53C695.781 115.53 695.281 115.728 694.916 116.123C694.562 116.509 694.385 117.014 694.385 117.639V121.576H693.26V112.061H694.385Z" fill="#595959"/>
<path d="M702.313 120.248L702.079 121.28H700.813L701.048 120.248H702.313ZM701.938 121.983L700.97 126.576H699.704L700.673 121.983H701.938ZM705.125 122.092V123.858H706.906V124.811H705.125V126.576H704.187V124.811H702.406V123.858H704.187V122.092H705.125ZM711.654 120.358L710.341 126.576H708.998L709.841 122.545H708.326L708.529 121.592C709.091 121.571 709.529 121.467 709.841 121.28C710.164 121.082 710.425 120.774 710.623 120.358H711.654Z" fill="#595959"/>
<path d="M64.9204 75.5811V77.2217H66.0142V78.0342H64.9204V81.4717C64.9204 81.753 65.009 81.904 65.186 81.9249C65.3735 81.9353 65.5662 81.9405 65.7642 81.9405H66.0142V82.7374H65.2798C64.7798 82.7374 64.4412 82.6488 64.2642 82.4717C64.0975 82.2947 64.0142 81.9978 64.0142 81.5811V78.0342H63.0767V77.2217H64.0142V75.5811H64.9204ZM72.214 78.5967V79.3311H66.8546V78.5967H72.214ZM72.214 80.753V81.4717H66.8546V80.753H72.214ZM75.6869 75.1749C76.114 75.1749 76.4838 75.2478 76.7963 75.3936C77.1088 75.529 77.3692 75.7374 77.5775 76.0186C78.0046 76.5603 78.2182 77.5655 78.2182 79.0342C78.2182 79.7634 78.1661 80.378 78.0619 80.878C77.9578 81.3676 77.7963 81.753 77.5775 82.0342C77.3692 82.3051 77.1088 82.5134 76.7963 82.6592C76.4838 82.7947 76.114 82.8624 75.6869 82.8624C74.8536 82.8624 74.2286 82.5811 73.8119 82.0186C73.3953 81.4561 73.1869 80.4613 73.1869 79.0342C73.1869 77.5863 73.3953 76.5811 73.8119 76.0186C74.239 75.4561 74.864 75.1749 75.6869 75.1749ZM74.14 79.0186C74.14 79.6228 74.1713 80.1228 74.2338 80.5186C74.3067 80.9144 74.4057 81.2217 74.5307 81.4405C74.8015 81.8572 75.1869 82.0655 75.6869 82.0655C76.2494 82.0655 76.6557 81.8259 76.9057 81.3467C77.0203 81.0967 77.1036 80.7842 77.1557 80.4092C77.2182 80.0342 77.2494 79.5811 77.2494 79.0499C77.2494 78.8728 77.2442 78.6749 77.2338 78.4561C77.2338 78.2374 77.2182 78.0186 77.1869 77.7999C77.1661 77.5707 77.1244 77.3467 77.0619 77.128C76.9994 76.9092 76.9109 76.7165 76.7963 76.5499C76.6817 76.3832 76.5359 76.2478 76.3588 76.1436C76.1817 76.0394 75.9578 75.9874 75.6869 75.9874C75.4473 75.9874 75.2286 76.0394 75.0307 76.1436C74.8432 76.2374 74.6817 76.3884 74.5463 76.5967C74.2755 77.0134 74.14 77.8207 74.14 79.0186Z" fill="#595959"/>
<path d="M429.508 75.5811V77.2217H430.602V78.0342H429.508V81.4717C429.508 81.753 429.597 81.904 429.774 81.9249C429.961 81.9353 430.154 81.9405 430.352 81.9405H430.602V82.7374H429.868C429.368 82.7374 429.029 82.6488 428.852 82.4717C428.685 82.2947 428.602 81.9978 428.602 81.5811V78.0342H427.665V77.2217H428.602V75.5811H429.508ZM436.802 78.5967V79.3311H431.443V78.5967H436.802ZM436.802 80.753V81.4717H431.443V80.753H436.802ZM440.165 75.1749C441.04 75.1749 441.691 75.4769 442.119 76.0811C442.546 76.6749 442.759 77.5811 442.759 78.7999C442.759 80.1853 442.54 81.2113 442.103 81.878C441.665 82.5342 441.009 82.8624 440.134 82.8624C439.488 82.8624 438.962 82.7009 438.556 82.378C438.15 82.0447 437.91 81.5551 437.837 80.9092H438.744C438.796 81.2842 438.947 81.5707 439.197 81.7686C439.457 81.9665 439.77 82.0655 440.134 82.0655C440.686 82.0655 441.098 81.8259 441.369 81.3467C441.65 80.8676 441.806 80.1332 441.837 79.1436L441.822 79.128C441.645 79.4509 441.4 79.7061 441.087 79.8936C440.785 80.0707 440.441 80.1592 440.056 80.1592C439.327 80.1592 438.749 79.9353 438.322 79.4874C437.895 79.0394 437.681 78.4249 437.681 77.6436C437.681 76.9249 437.915 76.3363 438.384 75.878C438.853 75.4092 439.447 75.1749 440.165 75.1749ZM438.65 77.7686C438.65 78.2061 438.796 78.5863 439.087 78.9092C439.379 79.2217 439.728 79.378 440.134 79.378C440.582 79.378 440.952 79.2165 441.244 78.8936C441.535 78.5707 441.681 78.1749 441.681 77.7061C441.681 77.2165 441.54 76.8103 441.259 76.4874C440.978 76.154 440.598 75.9874 440.119 75.9874C439.66 75.9874 439.301 76.1488 439.04 76.4717C438.78 76.7842 438.65 77.2165 438.65 77.7686ZM446.201 75.1749C446.628 75.1749 446.998 75.2478 447.311 75.3936C447.623 75.529 447.884 75.7374 448.092 76.0186C448.519 76.5603 448.733 77.5655 448.733 79.0342C448.733 79.7634 448.68 80.378 448.576 80.878C448.472 81.3676 448.311 81.753 448.092 82.0342C447.884 82.3051 447.623 82.5134 447.311 82.6592C446.998 82.7947 446.628 82.8624 446.201 82.8624C445.368 82.8624 444.743 82.5811 444.326 82.0186C443.91 81.4561 443.701 80.4613 443.701 79.0342C443.701 77.5863 443.91 76.5811 444.326 76.0186C444.753 75.4561 445.378 75.1749 446.201 75.1749ZM444.654 79.0186C444.654 79.6228 444.686 80.1228 444.748 80.5186C444.821 80.9144 444.92 81.2217 445.045 81.4405C445.316 81.8572 445.701 82.0655 446.201 82.0655C446.764 82.0655 447.17 81.8259 447.42 81.3467C447.535 81.0967 447.618 80.7842 447.67 80.4092C447.733 80.0342 447.764 79.5811 447.764 79.0499C447.764 78.8728 447.759 78.6749 447.748 78.4561C447.748 78.2374 447.733 78.0186 447.701 77.7999C447.68 77.5707 447.639 77.3467 447.576 77.128C447.514 76.9092 447.425 76.7165 447.311 76.5499C447.196 76.3832 447.05 76.2478 446.873 76.1436C446.696 76.0394 446.472 75.9874 446.201 75.9874C445.962 75.9874 445.743 76.0394 445.545 76.1436C445.358 76.2374 445.196 76.3884 445.061 76.5967C444.79 77.0134 444.654 77.8207 444.654 79.0186ZM451.69 77.0967C452.43 77.0967 452.977 77.2426 453.331 77.5342C453.696 77.8259 453.899 78.2582 453.94 78.8311H453.034V78.8155C453.003 78.5238 452.873 78.2999 452.643 78.1436C452.414 77.9769 452.117 77.8936 451.753 77.8936C451.388 77.8936 451.102 77.9561 450.893 78.0811C450.685 78.2061 450.581 78.378 450.581 78.5967C450.581 78.8051 450.675 78.9717 450.862 79.0967C451.05 79.2217 451.331 79.3259 451.706 79.4092L452.55 79.5967C453.081 79.7217 453.487 79.904 453.768 80.1436C454.05 80.3832 454.19 80.7113 454.19 81.128C454.19 81.6697 453.977 82.0967 453.55 82.4092C453.133 82.7113 452.565 82.8624 451.847 82.8624C451.138 82.8624 450.576 82.7061 450.159 82.3936C449.753 82.0811 449.534 81.6176 449.503 81.003H450.409C450.419 81.3467 450.555 81.6124 450.815 81.7999C451.076 81.9769 451.435 82.0655 451.893 82.0655C452.331 82.0655 452.659 81.9978 452.878 81.8624C453.107 81.7165 453.222 81.5082 453.222 81.2374C453.222 80.9978 453.107 80.8051 452.878 80.6592C452.659 80.5134 452.206 80.3728 451.518 80.2374C450.821 80.1019 450.331 79.9092 450.05 79.6592C449.768 79.4092 449.628 79.0811 449.628 78.6749C449.628 78.1853 449.821 77.7999 450.206 77.5186C450.602 77.2374 451.097 77.0967 451.69 77.0967Z" fill="#595959"/>
<path d="M879.625 75.5811V77.2217H880.719V78.0342H879.625V81.4717C879.625 81.753 879.714 81.904 879.891 81.9249C880.078 81.9353 880.271 81.9405 880.469 81.9405H880.719V82.7374H879.984C879.484 82.7374 879.146 82.6488 878.969 82.4717C878.802 82.2947 878.719 81.9978 878.719 81.5811V78.0342H877.781V77.2217H878.719V75.5811H879.625ZM886.919 78.5967V79.3311H881.559V78.5967H886.919ZM886.919 80.753V81.4717H881.559V80.753H886.919ZM891.235 75.1749V82.7374H890.329V77.3311H888.36V76.5967H888.391C889.037 76.5967 889.532 76.4822 889.876 76.253C890.23 76.0238 890.449 75.6644 890.532 75.1749H891.235ZM896.271 75.1749C896.99 75.1749 897.552 75.3519 897.959 75.7061C898.365 76.0603 898.568 76.529 898.568 77.1124C898.568 77.4353 898.479 77.7374 898.302 78.0186C898.125 78.2999 897.865 78.5186 897.521 78.6749C897.959 78.8103 898.292 79.0394 898.521 79.3624C898.75 79.6853 898.865 80.0863 898.865 80.5655C898.865 81.253 898.63 81.8103 898.162 82.2374C897.693 82.654 897.089 82.8624 896.349 82.8624C895.578 82.8624 894.959 82.6592 894.49 82.253C894.021 81.8467 893.787 81.2842 893.787 80.5655C893.787 80.1176 893.901 79.7269 894.13 79.3936C894.36 79.0603 894.688 78.8207 895.115 78.6749C894.782 78.5394 894.521 78.3311 894.334 78.0499C894.146 77.7582 894.052 77.4457 894.052 77.1124C894.052 76.5394 894.266 76.0759 894.693 75.7217C895.12 75.3572 895.646 75.1749 896.271 75.1749ZM895.021 77.1436C895.021 77.5082 895.141 77.8051 895.38 78.0342C895.62 78.253 895.943 78.3624 896.349 78.3624C896.735 78.3624 897.037 78.253 897.255 78.0342C897.485 77.8155 897.599 77.5186 897.599 77.1436C897.599 76.779 897.485 76.4978 897.255 76.2999C897.037 76.0915 896.724 75.9874 896.318 75.9874C895.933 75.9874 895.62 76.0967 895.38 76.3155C895.141 76.5238 895.021 76.7999 895.021 77.1436ZM894.755 80.5967C894.755 81.0447 894.901 81.404 895.193 81.6749C895.495 81.9353 895.88 82.0655 896.349 82.0655C896.797 82.0655 897.167 81.9301 897.459 81.6592C897.75 81.378 897.896 81.0238 897.896 80.5967C897.896 80.2009 897.745 79.8624 897.443 79.5811C897.141 79.2999 896.771 79.1592 896.334 79.1592C895.886 79.1592 895.511 79.2947 895.209 79.5655C894.907 79.8363 894.755 80.1801 894.755 80.5967ZM902.245 75.1749C902.672 75.1749 903.041 75.2478 903.354 75.3936C903.666 75.529 903.927 75.7374 904.135 76.0186C904.562 76.5603 904.776 77.5655 904.776 79.0342C904.776 79.7634 904.724 80.378 904.62 80.878C904.515 81.3676 904.354 81.753 904.135 82.0342C903.927 82.3051 903.666 82.5134 903.354 82.6592C903.041 82.7947 902.672 82.8624 902.245 82.8624C901.411 82.8624 900.786 82.5811 900.37 82.0186C899.953 81.4561 899.745 80.4613 899.745 79.0342C899.745 77.5863 899.953 76.5811 900.37 76.0186C900.797 75.4561 901.422 75.1749 902.245 75.1749ZM900.698 79.0186C900.698 79.6228 900.729 80.1228 900.791 80.5186C900.864 80.9144 900.963 81.2217 901.088 81.4405C901.359 81.8572 901.745 82.0655 902.245 82.0655C902.807 82.0655 903.213 81.8259 903.463 81.3467C903.578 81.0967 903.661 80.7842 903.713 80.4092C903.776 80.0342 903.807 79.5811 903.807 79.0499C903.807 78.8728 903.802 78.6749 903.791 78.4561C903.791 78.2374 903.776 78.0186 903.745 77.7999C903.724 77.5707 903.682 77.3467 903.62 77.128C903.557 76.9092 903.468 76.7165 903.354 76.5499C903.239 76.3832 903.093 76.2478 902.916 76.1436C902.739 76.0394 902.515 75.9874 902.245 75.9874C902.005 75.9874 901.786 76.0394 901.588 76.1436C901.401 76.2374 901.239 76.3884 901.104 76.5967C900.833 77.0134 900.698 77.8207 900.698 79.0186ZM907.733 77.0967C908.473 77.0967 909.02 77.2426 909.374 77.5342C909.739 77.8259 909.942 78.2582 909.983 78.8311H909.077V78.8155C909.046 78.5238 908.916 78.2999 908.687 78.1436C908.457 77.9769 908.161 77.8936 907.796 77.8936C907.431 77.8936 907.145 77.9561 906.937 78.0811C906.728 78.2061 906.624 78.378 906.624 78.5967C906.624 78.8051 906.718 78.9717 906.905 79.0967C907.093 79.2217 907.374 79.3259 907.749 79.4092L908.593 79.5967C909.124 79.7217 909.53 79.904 909.812 80.1436C910.093 80.3832 910.233 80.7113 910.233 81.128C910.233 81.6697 910.02 82.0967 909.593 82.4092C909.176 82.7113 908.608 82.8624 907.89 82.8624C907.181 82.8624 906.619 82.7061 906.202 82.3936C905.796 82.0811 905.577 81.6176 905.546 81.003H906.452C906.463 81.3467 906.598 81.6124 906.858 81.7999C907.119 81.9769 907.478 82.0655 907.937 82.0655C908.374 82.0655 908.702 81.9978 908.921 81.8624C909.15 81.7165 909.265 81.5082 909.265 81.2374C909.265 80.9978 909.15 80.8051 908.921 80.6592C908.702 80.5134 908.249 80.3728 907.562 80.2374C906.864 80.1019 906.374 79.9092 906.093 79.6592C905.812 79.4092 905.671 79.0811 905.671 78.6749C905.671 78.1853 905.864 77.7999 906.249 77.5186C906.645 77.2374 907.14 77.0967 907.733 77.0967Z" fill="#595959"/>
</g>
</g>
<defs>
<clipPath id="clip0_8_2126">
<rect width="960" height="460.724" fill="white" transform="translate(0.5 0.5)"/>
</clipPath>
</defs>
</svg>
