<svg width="900" height="462" viewBox="0 0 900 462" fill="none" xmlns="http://www.w3.org/2000/svg">
<g clip-path="url(#clip0_8_1940)">
<mask id="mask0_8_1940" style="mask-type:luminance" maskUnits="userSpaceOnUse" x="0" y="0" width="900" height="462">
<path d="M0 0.5H899.528V461.224H0V0.5Z" fill="white"/>
</mask>
<g mask="url(#mask0_8_1940)">
<path fill-rule="evenodd" clip-rule="evenodd" d="M53.3596 322.175C53.3596 313.982 60.0014 307.34 68.1945 307.34H856.54C860.475 307.34 864.248 308.903 867.03 311.685C869.812 314.467 871.375 318.24 871.375 322.175V381.513C871.375 389.706 864.734 396.348 856.54 396.348H68.1945C60.0014 396.348 53.3596 389.706 53.3596 381.513V322.175Z" stroke="#E62058" stroke-miterlimit="10" stroke-linejoin="round" stroke-dasharray="8 6"/>
<path fill-rule="evenodd" clip-rule="evenodd" d="M343.005 57.7784C343.005 52.8034 347.038 48.7703 352.013 48.7703H572.548C574.937 48.7703 577.229 49.7194 578.918 51.4087C580.607 53.0981 581.556 55.3893 581.556 57.7784V93.8095C581.556 98.7845 577.523 102.818 572.548 102.818H352.013C347.038 102.818 343.005 98.7845 343.005 93.8095V57.7784Z" stroke="#E62058" stroke-miterlimit="10" stroke-linejoin="round"/>
<path d="M453.546 70.2321V71.5133H447.562V75.1383H452.812V76.4196H447.562V81.654H446.046V70.2321H453.546ZM456.453 70.2321V81.654H455.093V70.2321H456.453ZM461.945 73.1852C463.07 73.1852 463.867 73.3883 464.336 73.7946C464.815 74.1904 465.054 74.7269 465.054 75.404C465.054 78.2685 465.054 79.8571 465.054 80.1696C465.054 80.4821 465.195 80.6383 465.476 80.6383C465.539 80.6383 465.606 80.6331 465.679 80.6227C465.752 80.6019 465.825 80.581 465.898 80.5602V81.6227C465.773 81.6956 465.627 81.7529 465.461 81.7946C465.294 81.8363 465.117 81.8571 464.929 81.8571C464.554 81.8571 464.268 81.7529 464.07 81.5446C463.872 81.3258 463.773 80.9977 463.773 80.5602C463.408 80.9873 462.981 81.3102 462.492 81.529C462.002 81.7477 461.455 81.8571 460.851 81.8571C459.997 81.8571 459.325 81.654 458.836 81.2477C458.356 80.8415 458.117 80.2685 458.117 79.529C458.117 78.779 458.351 78.1904 458.82 77.7633C459.299 77.3258 460.419 76.9977 462.179 76.779C462.773 76.6956 463.174 76.581 463.382 76.4352C463.591 76.279 463.695 76.0498 463.695 75.7477C463.695 75.2894 463.549 74.9508 463.257 74.7321C462.966 74.5029 462.497 74.3883 461.851 74.3883C461.184 74.3883 460.679 74.5185 460.336 74.779C460.002 75.029 459.825 75.4196 459.804 75.9508H458.445C458.487 75.0342 458.809 74.3467 459.414 73.8883C460.018 73.4196 460.862 73.1852 461.945 73.1852ZM459.554 79.4196C459.554 79.805 459.695 80.1071 459.976 80.3258C460.257 80.5342 460.653 80.6383 461.164 80.6383C461.924 80.6383 462.533 80.4508 462.992 80.0758C463.45 79.6904 463.679 79.2633 463.679 78.7946V77.3727C463.45 77.5394 463.153 77.654 462.789 77.7165C462.424 77.7685 461.94 77.8363 461.336 77.9196C460.731 78.0029 460.283 78.1644 459.992 78.404C459.7 78.6435 459.554 78.9821 459.554 79.4196ZM471.273 73.1852C471.304 73.1852 471.33 73.1852 471.351 73.1852C471.382 73.1852 471.419 73.1852 471.461 73.1852V74.6227C470.44 74.6227 469.684 74.8935 469.195 75.4352C468.716 75.9769 468.476 76.8154 468.476 77.9508V81.654H467.117V73.3727H468.398V75.1227H468.429C468.742 74.4665 469.132 73.9821 469.601 73.6696C470.07 73.3467 470.627 73.1852 471.273 73.1852ZM475.64 73.1852C476.828 73.1852 477.75 73.6123 478.406 74.4665C479.062 75.3206 479.39 76.4196 479.39 77.7633V77.9196H473.187V78.029C473.187 78.8102 473.416 79.4404 473.875 79.9196C474.333 80.3988 474.963 80.6383 475.765 80.6383C476.369 80.6383 476.849 80.4977 477.203 80.2165C477.567 79.9352 477.802 79.5394 477.906 79.029H479.25C479.073 79.9456 478.671 80.6488 478.046 81.1383C477.432 81.6175 476.656 81.8571 475.718 81.8571C474.854 81.8571 474.119 81.6592 473.515 81.2633C472.911 80.8675 472.463 80.3206 472.171 79.6227C471.89 78.9144 471.75 78.1956 471.75 77.4665C471.75 76.2477 472.114 75.2321 472.843 74.4196C473.583 73.5967 474.515 73.1852 475.64 73.1852ZM473.187 76.7165H477.937C477.895 76.0498 477.651 75.4977 477.203 75.0602C476.765 74.6123 476.213 74.3883 475.546 74.3883C474.921 74.3883 474.385 74.6019 473.937 75.029C473.5 75.4456 473.25 76.0081 473.187 76.7165Z" fill="#595959"/>
<path fill-rule="evenodd" clip-rule="evenodd" d="M76.79 221.29C76.79 216.315 80.8231 212.282 85.7981 212.282H252.286C254.675 212.282 256.966 213.231 258.656 214.921C260.345 216.61 261.294 218.901 261.294 221.29V257.321C261.294 262.296 257.261 266.329 252.286 266.329H85.7981C80.8231 266.329 76.79 262.296 76.79 257.321L76.79 221.29Z" stroke="#E62058" stroke-miterlimit="10" stroke-linejoin="round"/>
<path d="M141.753 233.744C143.482 233.744 144.81 234.202 145.737 235.119C146.675 236.036 147.144 237.39 147.144 239.181C147.144 241.192 146.68 242.692 145.753 243.681C144.836 244.671 143.503 245.166 141.753 245.166H137.737V233.744H141.753ZM141.847 243.885C142.982 243.885 143.894 243.515 144.581 242.775C145.279 242.025 145.628 240.895 145.628 239.385C145.628 237.874 145.31 236.77 144.675 236.072C144.05 235.374 143.123 235.025 141.894 235.025H139.253V243.885H141.847ZM153.401 233.744L157.87 245.166H156.183L154.948 241.728H150.104L148.823 245.166H147.261L151.729 233.744H153.401ZM152.526 235.119L150.589 240.447H154.464L152.558 235.119H152.526ZM164.948 233.744V243.885H170.995V245.166H163.433V233.744H164.948ZM175.487 236.697C176.612 236.697 177.409 236.9 177.878 237.306C178.357 237.702 178.597 238.239 178.597 238.916C178.597 241.78 178.597 243.369 178.597 243.681C178.597 243.994 178.737 244.15 179.019 244.15C179.081 244.15 179.149 244.145 179.222 244.135C179.295 244.114 179.368 244.093 179.44 244.072V245.135C179.315 245.207 179.17 245.265 179.003 245.306C178.836 245.348 178.659 245.369 178.472 245.369C178.097 245.369 177.81 245.265 177.612 245.056C177.414 244.838 177.315 244.51 177.315 244.072C176.951 244.499 176.524 244.822 176.034 245.041C175.545 245.26 174.998 245.369 174.394 245.369C173.539 245.369 172.868 245.166 172.378 244.76C171.899 244.353 171.659 243.78 171.659 243.041C171.659 242.291 171.894 241.702 172.362 241.275C172.841 240.838 173.961 240.51 175.722 240.291C176.315 240.207 176.716 240.093 176.925 239.947C177.133 239.791 177.237 239.562 177.237 239.26C177.237 238.801 177.091 238.463 176.8 238.244C176.508 238.015 176.039 237.9 175.394 237.9C174.727 237.9 174.222 238.03 173.878 238.291C173.545 238.541 173.368 238.931 173.347 239.463H171.987C172.029 238.546 172.352 237.858 172.956 237.4C173.56 236.931 174.404 236.697 175.487 236.697ZM173.097 242.931C173.097 243.317 173.237 243.619 173.519 243.838C173.8 244.046 174.196 244.15 174.706 244.15C175.466 244.15 176.076 243.963 176.534 243.588C176.993 243.202 177.222 242.775 177.222 242.306V240.885C176.993 241.051 176.696 241.166 176.331 241.228C175.966 241.28 175.482 241.348 174.878 241.431C174.274 241.515 173.826 241.676 173.534 241.916C173.243 242.155 173.097 242.494 173.097 242.931ZM181.347 236.885L183.753 243.65H183.784L186.112 236.885H187.55L184.034 246.056C183.67 247.004 183.315 247.645 182.972 247.978C182.628 248.312 182.154 248.478 181.55 248.478C181.383 248.478 181.222 248.468 181.065 248.447C180.909 248.426 180.758 248.39 180.612 248.338V247.088C180.737 247.129 180.868 247.171 181.003 247.213C181.138 247.254 181.274 247.275 181.409 247.275C181.961 247.275 182.347 246.999 182.565 246.447C182.784 245.895 182.956 245.452 183.081 245.119L179.8 236.885H181.347ZM192.144 236.697C193.331 236.697 194.253 237.124 194.909 237.978C195.565 238.832 195.894 239.931 195.894 241.275V241.431H189.69V241.541C189.69 242.322 189.92 242.952 190.378 243.431C190.836 243.911 191.466 244.15 192.269 244.15C192.873 244.15 193.352 244.01 193.706 243.728C194.071 243.447 194.305 243.051 194.409 242.541H195.753C195.576 243.457 195.175 244.161 194.55 244.65C193.935 245.129 193.159 245.369 192.222 245.369C191.357 245.369 190.623 245.171 190.019 244.775C189.414 244.379 188.966 243.832 188.675 243.135C188.394 242.426 188.253 241.707 188.253 240.978C188.253 239.76 188.618 238.744 189.347 237.931C190.086 237.108 191.019 236.697 192.144 236.697ZM189.69 240.228H194.44C194.399 239.562 194.154 239.01 193.706 238.572C193.269 238.124 192.716 237.9 192.05 237.9C191.425 237.9 190.888 238.114 190.44 238.541C190.003 238.957 189.753 239.52 189.69 240.228ZM201.409 236.697C201.44 236.697 201.466 236.697 201.487 236.697C201.519 236.697 201.555 236.697 201.597 236.697V238.135C200.576 238.135 199.821 238.405 199.331 238.947C198.852 239.489 198.612 240.327 198.612 241.463V245.166H197.253V236.885H198.534V238.635H198.565C198.878 237.978 199.269 237.494 199.737 237.181C200.206 236.858 200.763 236.697 201.409 236.697Z" fill="#595959"/>
<path fill-rule="evenodd" clip-rule="evenodd" d="M343.005 221.29C343.005 216.315 347.038 212.282 352.013 212.282H572.548C574.937 212.282 577.229 213.231 578.918 214.921C580.607 216.61 581.556 218.901 581.556 221.29V257.321C581.556 262.296 577.523 266.329 572.548 266.329H352.013C347.038 266.329 343.005 262.296 343.005 257.321V221.29Z" stroke="#E62058" stroke-miterlimit="10" stroke-linejoin="round"/>
<path d="M391.453 233.744V235.025H385.468V238.65H390.718V239.931H385.468V245.166H383.953V233.744H391.453ZM397.156 233.744C398.885 233.744 400.213 234.202 401.14 235.119C402.078 236.036 402.546 237.39 402.546 239.181C402.546 241.192 402.083 242.692 401.156 243.681C400.239 244.671 398.906 245.166 397.156 245.166H393.14V233.744H397.156ZM397.25 243.885C398.385 243.885 399.296 243.515 399.984 242.775C400.682 242.025 401.031 240.895 401.031 239.385C401.031 237.874 400.713 236.77 400.078 236.072C399.453 235.374 398.526 235.025 397.296 235.025H394.656V243.885H397.25ZM409.25 233.463C410.52 233.463 411.578 233.791 412.421 234.447C413.276 235.103 413.786 236.015 413.953 237.181H412.437C412.27 236.4 411.906 235.801 411.343 235.385C410.781 234.957 410.078 234.744 409.234 234.744C408.026 234.744 407.078 235.171 406.39 236.025C405.713 236.879 405.375 237.994 405.375 239.369C405.375 240.827 405.708 241.989 406.375 242.853C407.052 243.718 408.01 244.15 409.25 244.15C410.187 244.15 410.953 243.858 411.546 243.275C412.14 242.681 412.474 241.874 412.546 240.853H414.078C413.911 242.332 413.395 243.468 412.531 244.26C411.666 245.051 410.531 245.447 409.125 245.447C407.489 245.447 406.198 244.905 405.25 243.822C404.312 242.728 403.843 241.28 403.843 239.478C403.843 237.707 404.328 236.265 405.296 235.15C406.276 234.025 407.593 233.463 409.25 233.463ZM425.187 233.744L429.656 245.166H427.968L426.734 241.728H421.89L420.609 245.166H419.046L423.515 233.744H425.187ZM424.312 235.119L422.375 240.447H426.25L424.343 235.119H424.312ZM432.351 234.416V236.885H433.992V238.088H432.351V243.275C432.351 243.681 432.487 243.9 432.757 243.931C433.028 243.952 433.315 243.963 433.617 243.963H433.992V245.166H432.867C432.127 245.166 431.627 245.036 431.367 244.775C431.117 244.504 430.992 244.056 430.992 243.431V238.088H429.57V236.885H430.992V234.416H432.351ZM437.39 234.416V236.885H439.031V238.088H437.39V243.275C437.39 243.681 437.526 243.9 437.796 243.931C438.067 243.952 438.354 243.963 438.656 243.963H439.031V245.166H437.906C437.166 245.166 436.666 245.036 436.406 244.775C436.156 244.504 436.031 244.056 436.031 243.431V238.088H434.609V236.885H436.031V234.416H437.39ZM443.781 236.697C444.968 236.697 445.89 237.124 446.546 237.978C447.203 238.832 447.531 239.931 447.531 241.275V241.431H441.328V241.541C441.328 242.322 441.557 242.952 442.015 243.431C442.474 243.911 443.104 244.15 443.906 244.15C444.51 244.15 444.989 244.01 445.343 243.728C445.708 243.447 445.942 243.051 446.046 242.541H447.39C447.213 243.457 446.812 244.161 446.187 244.65C445.573 245.129 444.796 245.369 443.859 245.369C442.994 245.369 442.26 245.171 441.656 244.775C441.052 244.379 440.604 243.832 440.312 243.135C440.031 242.426 439.89 241.707 439.89 240.978C439.89 239.76 440.255 238.744 440.984 237.931C441.724 237.108 442.656 236.697 443.781 236.697ZM441.328 240.228H446.078C446.036 239.562 445.791 239.01 445.343 238.572C444.906 238.124 444.354 237.9 443.687 237.9C443.062 237.9 442.526 238.114 442.078 238.541C441.64 238.957 441.39 239.52 441.328 240.228ZM451.687 236.697C452.802 236.697 453.63 236.916 454.171 237.353C454.713 237.78 455.01 238.426 455.062 239.291H453.703V239.275C453.661 238.838 453.468 238.499 453.125 238.26C452.781 238.02 452.333 237.9 451.781 237.9C451.239 237.9 450.807 237.994 450.484 238.181C450.171 238.358 450.015 238.614 450.015 238.947C450.015 239.249 450.156 239.499 450.437 239.697C450.718 239.885 451.14 240.041 451.703 240.166L452.984 240.447C453.786 240.624 454.395 240.9 454.812 241.275C455.229 241.64 455.437 242.129 455.437 242.744C455.437 243.556 455.119 244.197 454.484 244.666C453.859 245.135 453 245.369 451.906 245.369C450.854 245.369 450.015 245.129 449.39 244.65C448.776 244.171 448.448 243.473 448.406 242.556H449.765C449.786 243.067 449.989 243.463 450.375 243.744C450.77 244.015 451.307 244.15 451.984 244.15C452.64 244.15 453.135 244.046 453.468 243.838C453.812 243.629 453.984 243.322 453.984 242.916C453.984 242.551 453.817 242.26 453.484 242.041C453.151 241.822 452.463 241.608 451.421 241.4C450.38 241.202 449.645 240.916 449.218 240.541C448.791 240.166 448.578 239.671 448.578 239.056C448.578 238.327 448.869 237.754 449.453 237.338C450.046 236.911 450.791 236.697 451.687 236.697ZM458.828 234.416V236.885H460.468V238.088H458.828V243.275C458.828 243.681 458.963 243.9 459.234 243.931C459.505 243.952 459.791 243.963 460.093 243.963H460.468V245.166H459.343C458.604 245.166 458.104 245.036 457.843 244.775C457.593 244.504 457.468 244.056 457.468 243.431V238.088H456.046V236.885H457.468V234.416H458.828ZM465.351 236.697C466.476 236.697 467.273 236.9 467.742 237.306C468.221 237.702 468.461 238.239 468.461 238.916C468.461 241.78 468.461 243.369 468.461 243.681C468.461 243.994 468.601 244.15 468.882 244.15C468.945 244.15 469.013 244.145 469.086 244.135C469.158 244.114 469.231 244.093 469.304 244.072V245.135C469.179 245.207 469.033 245.265 468.867 245.306C468.7 245.348 468.523 245.369 468.336 245.369C467.961 245.369 467.674 245.265 467.476 245.056C467.278 244.838 467.179 244.51 467.179 244.072C466.815 244.499 466.388 244.822 465.898 245.041C465.408 245.26 464.862 245.369 464.257 245.369C463.403 245.369 462.731 245.166 462.242 244.76C461.763 244.353 461.523 243.78 461.523 243.041C461.523 242.291 461.757 241.702 462.226 241.275C462.705 240.838 463.825 240.51 465.586 240.291C466.179 240.207 466.58 240.093 466.789 239.947C466.997 239.791 467.101 239.562 467.101 239.26C467.101 238.801 466.955 238.463 466.664 238.244C466.372 238.015 465.903 237.9 465.257 237.9C464.591 237.9 464.086 238.03 463.742 238.291C463.408 238.541 463.231 238.931 463.211 239.463H461.851C461.893 238.546 462.216 237.858 462.82 237.4C463.424 236.931 464.268 236.697 465.351 236.697ZM462.961 242.931C462.961 243.317 463.101 243.619 463.382 243.838C463.664 244.046 464.059 244.15 464.57 244.15C465.33 244.15 465.94 243.963 466.398 243.588C466.856 243.202 467.086 242.775 467.086 242.306V240.885C466.856 241.051 466.559 241.166 466.195 241.228C465.83 241.28 465.346 241.348 464.742 241.431C464.138 241.515 463.69 241.676 463.398 241.916C463.106 242.155 462.961 242.494 462.961 242.931ZM472.461 234.416V236.885H474.101V238.088H472.461V243.275C472.461 243.681 472.596 243.9 472.867 243.931C473.138 243.952 473.424 243.963 473.726 243.963H474.101V245.166H472.976C472.237 245.166 471.737 245.036 471.476 244.775C471.226 244.504 471.101 244.056 471.101 243.431V238.088H469.679V236.885H471.101V234.416H472.461ZM477.046 233.744V235.4H475.687V233.744H477.046ZM477.046 236.885V245.166H475.687V236.885H477.046ZM482.726 236.697C483.976 236.697 484.955 237.103 485.664 237.916C486.382 238.718 486.742 239.76 486.742 241.041C486.742 242.322 486.377 243.364 485.648 244.166C484.919 244.968 483.945 245.369 482.726 245.369C481.528 245.369 480.559 244.978 479.82 244.197C479.08 243.405 478.711 242.353 478.711 241.041C478.711 239.728 479.07 238.676 479.789 237.885C480.518 237.093 481.497 236.697 482.726 236.697ZM480.148 241.041C480.148 241.989 480.388 242.744 480.867 243.306C481.356 243.869 481.976 244.15 482.726 244.15C483.476 244.15 484.091 243.869 484.57 243.306C485.059 242.733 485.304 241.978 485.304 241.041C485.304 240.093 485.059 239.332 484.57 238.76C484.091 238.187 483.471 237.9 482.711 237.9C481.981 237.9 481.372 238.181 480.882 238.744C480.393 239.306 480.148 240.072 480.148 241.041ZM492.351 236.697C493.351 236.697 494.075 236.952 494.523 237.463C494.971 237.973 495.195 238.702 495.195 239.65V245.166H493.836V239.51C493.836 239.041 493.684 238.655 493.382 238.353C493.091 238.051 492.679 237.9 492.148 237.9C491.377 237.9 490.778 238.135 490.351 238.603C489.924 239.072 489.711 239.681 489.711 240.431V245.166H488.351V236.885H489.632V238.197H489.664C489.966 237.687 490.336 237.312 490.773 237.072C491.211 236.822 491.737 236.697 492.351 236.697ZM506.757 233.463C508.028 233.463 509.086 233.791 509.929 234.447C510.783 235.103 511.294 236.015 511.461 237.181H509.945C509.778 236.4 509.414 235.801 508.851 235.385C508.289 234.957 507.586 234.744 506.742 234.744C505.533 234.744 504.586 235.171 503.898 236.025C503.221 236.879 502.882 237.994 502.882 239.369C502.882 240.827 503.216 241.989 503.882 242.853C504.559 243.718 505.518 244.15 506.757 244.15C507.695 244.15 508.461 243.858 509.054 243.275C509.648 242.681 509.981 241.874 510.054 240.853H511.586C511.419 242.332 510.903 243.468 510.039 244.26C509.174 245.051 508.039 245.447 506.632 245.447C504.997 245.447 503.705 244.905 502.757 243.822C501.82 242.728 501.351 241.28 501.351 239.478C501.351 237.707 501.836 236.265 502.804 235.15C503.783 234.025 505.101 233.463 506.757 233.463ZM514.687 233.744V245.166H513.328V233.744H514.687ZM518.242 233.744V235.4H516.882V233.744H518.242ZM518.242 236.885V245.166H516.882V236.885H518.242ZM523.796 236.697C524.984 236.697 525.906 237.124 526.562 237.978C527.218 238.832 527.546 239.931 527.546 241.275V241.431H521.343V241.541C521.343 242.322 521.572 242.952 522.031 243.431C522.489 243.911 523.119 244.15 523.921 244.15C524.526 244.15 525.005 244.01 525.359 243.728C525.724 243.447 525.958 243.051 526.062 242.541H527.406C527.229 243.457 526.828 244.161 526.203 244.65C525.588 245.129 524.812 245.369 523.875 245.369C523.01 245.369 522.276 245.171 521.671 244.775C521.067 244.379 520.619 243.832 520.328 243.135C520.046 242.426 519.906 241.707 519.906 240.978C519.906 239.76 520.27 238.744 521 237.931C521.739 237.108 522.671 236.697 523.796 236.697ZM521.343 240.228H526.093C526.052 239.562 525.807 239.01 525.359 238.572C524.921 238.124 524.369 237.9 523.703 237.9C523.078 237.9 522.541 238.114 522.093 238.541C521.656 238.957 521.406 239.52 521.343 240.228ZM532.953 236.697C533.953 236.697 534.677 236.952 535.125 237.463C535.572 237.973 535.796 238.702 535.796 239.65V245.166H534.437V239.51C534.437 239.041 534.286 238.655 533.984 238.353C533.692 238.051 533.281 237.9 532.75 237.9C531.979 237.9 531.38 238.135 530.953 238.603C530.526 239.072 530.312 239.681 530.312 240.431V245.166H528.953V236.885H530.234V238.197H530.265C530.567 237.687 530.937 237.312 531.375 237.072C531.812 236.822 532.338 236.697 532.953 236.697ZM539.742 234.416V236.885H541.382V238.088H539.742V243.275C539.742 243.681 539.877 243.9 540.148 243.931C540.419 243.952 540.705 243.963 541.007 243.963H541.382V245.166H540.257C539.518 245.166 539.018 245.036 538.757 244.775C538.507 244.504 538.382 244.056 538.382 243.431V238.088H536.961V236.885H538.382V234.416H539.742Z" fill="#595959"/>
<path fill-rule="evenodd" clip-rule="evenodd" d="M170.879 333.637C170.879 328.662 174.912 324.629 179.887 324.629H277.336C279.725 324.629 282.016 325.578 283.705 327.267C285.395 328.956 286.344 331.248 286.344 333.637V369.668C286.344 374.643 282.311 378.676 277.336 378.676H179.887C174.912 378.676 170.879 374.643 170.879 369.668V333.637Z" stroke="#E62058" stroke-miterlimit="10" stroke-linejoin="round"/>
<path d="M209.842 346.09C211.259 346.09 212.217 346.377 212.717 346.95C213.227 347.512 213.483 348.158 213.483 348.887C213.483 349.491 213.332 350.017 213.03 350.465C212.738 350.903 212.321 351.231 211.78 351.45V351.481C212.488 351.627 213.03 351.945 213.405 352.434C213.78 352.924 213.967 353.523 213.967 354.231C213.967 355.158 213.639 355.939 212.983 356.575C212.337 357.2 211.524 357.512 210.545 357.512H204.967V346.09H209.842ZM209.608 350.997C210.368 350.997 210.951 350.856 211.358 350.575C211.764 350.283 211.967 349.814 211.967 349.168C211.967 348.564 211.795 348.116 211.451 347.825C211.118 347.523 210.509 347.372 209.623 347.372H206.483V350.997H209.608ZM210.358 356.231C210.972 356.231 211.472 356.049 211.858 355.684C212.243 355.309 212.436 354.809 212.436 354.184C212.436 353.538 212.217 353.059 211.78 352.747C211.342 352.434 210.717 352.278 209.905 352.278H206.483V356.231H210.358ZM217.147 346.09V347.747H215.787V346.09H217.147ZM217.147 349.231V357.512H215.787V349.231H217.147ZM221.155 346.762V349.231H222.795V350.434H221.155V355.622C221.155 356.028 221.29 356.247 221.561 356.278C221.832 356.299 222.118 356.309 222.42 356.309H222.795V357.512H221.67C220.931 357.512 220.431 357.382 220.17 357.122C219.92 356.851 219.795 356.403 219.795 355.778V350.434H218.373V349.231H219.795V346.762H221.155ZM227.756 349.043C228.766 349.043 229.584 349.283 230.209 349.762C230.845 350.241 231.214 350.95 231.319 351.887H229.912C229.808 351.356 229.574 350.95 229.209 350.668C228.855 350.387 228.407 350.247 227.865 350.247C227.022 350.247 226.381 350.528 225.944 351.09C225.506 351.653 225.287 352.45 225.287 353.481C225.287 354.398 225.501 355.132 225.928 355.684C226.365 356.226 226.959 356.497 227.709 356.497C228.365 356.497 228.886 356.32 229.272 355.965C229.657 355.611 229.891 355.116 229.975 354.481H231.365C231.22 355.512 230.834 356.309 230.209 356.872C229.584 357.434 228.756 357.715 227.725 357.715C226.516 357.715 225.569 357.335 224.881 356.575C224.194 355.814 223.85 354.783 223.85 353.481C223.85 352.127 224.199 351.049 224.897 350.247C225.595 349.445 226.548 349.043 227.756 349.043ZM236.459 349.043C237.709 349.043 238.688 349.45 239.397 350.262C240.115 351.064 240.475 352.106 240.475 353.387C240.475 354.668 240.11 355.71 239.381 356.512C238.652 357.314 237.678 357.715 236.459 357.715C235.261 357.715 234.293 357.325 233.553 356.543C232.813 355.752 232.444 354.7 232.444 353.387C232.444 352.075 232.803 351.023 233.522 350.231C234.251 349.439 235.23 349.043 236.459 349.043ZM233.881 353.387C233.881 354.335 234.121 355.09 234.6 355.653C235.089 356.215 235.709 356.497 236.459 356.497C237.209 356.497 237.824 356.215 238.303 355.653C238.793 355.08 239.037 354.325 239.037 353.387C239.037 352.439 238.793 351.679 238.303 351.106C237.824 350.533 237.204 350.247 236.444 350.247C235.714 350.247 235.105 350.528 234.615 351.09C234.126 351.653 233.881 352.418 233.881 353.387ZM243.522 346.09V347.747H242.162V346.09H243.522ZM243.522 349.231V357.512H242.162V349.231H243.522ZM249.639 349.043C250.639 349.043 251.363 349.299 251.811 349.809C252.259 350.32 252.483 351.049 252.483 351.997V357.512H251.123V351.856C251.123 351.387 250.972 351.002 250.67 350.7C250.378 350.398 249.967 350.247 249.436 350.247C248.665 350.247 248.066 350.481 247.639 350.95C247.212 351.418 246.998 352.028 246.998 352.778V357.512H245.639V349.231H246.92V350.543H246.951C247.253 350.033 247.623 349.658 248.061 349.418C248.498 349.168 249.024 349.043 249.639 349.043Z" fill="#595959"/>
<path fill-rule="evenodd" clip-rule="evenodd" d="M314.879 333.637C314.879 328.662 318.912 324.629 323.887 324.629H421.336C423.725 324.629 426.016 325.578 427.705 327.267C429.395 328.956 430.344 331.248 430.344 333.637V369.668C430.344 374.643 426.311 378.676 421.336 378.676H323.887C318.912 378.676 314.879 374.643 314.879 369.668V333.637Z" stroke="#E62058" stroke-miterlimit="10" stroke-linejoin="round"/>
<path d="M354.643 346.09L357.502 350.543L360.471 346.09H362.174L358.393 351.637L362.408 357.512H360.549L357.487 352.793L354.315 357.512H352.596L356.58 351.637L352.83 346.09H354.643ZM369.088 346.09C370.078 346.09 370.89 346.356 371.526 346.887C372.161 347.408 372.479 348.137 372.479 349.075C372.479 349.825 372.312 350.45 371.979 350.95C371.656 351.439 371.161 351.778 370.494 351.965V351.997C371.078 352.111 371.505 352.382 371.776 352.809C372.046 353.236 372.203 353.965 372.244 354.997C372.276 355.663 372.338 356.189 372.432 356.575C372.536 356.95 372.687 357.262 372.885 357.512H371.182C371.088 357.387 371.026 357.262 370.994 357.137C370.974 357.012 370.947 356.846 370.916 356.637L370.854 355.372C370.843 354.788 370.718 354.195 370.479 353.59C370.239 352.976 369.718 352.653 368.916 352.622H365.151V357.512H363.635V346.09H369.088ZM368.401 351.356C369.244 351.356 369.88 351.189 370.307 350.856C370.744 350.523 370.963 350.007 370.963 349.309C370.963 348.695 370.791 348.221 370.447 347.887C370.104 347.543 369.619 347.372 368.994 347.372H365.151V351.356H368.401ZM379.674 346.09C380.726 346.09 381.559 346.377 382.174 346.95C382.799 347.512 383.112 348.351 383.112 349.465C383.112 350.58 382.799 351.424 382.174 351.997C381.559 352.559 380.763 352.84 379.783 352.84H376.112V357.512H374.596V346.09H379.674ZM379.252 351.559C379.981 351.559 380.554 351.387 380.971 351.043C381.388 350.7 381.596 350.174 381.596 349.465C381.596 348.757 381.388 348.231 380.971 347.887C380.565 347.543 379.961 347.372 379.158 347.372H376.112V351.559H379.252ZM386.479 346.09V356.231H392.526V357.512H384.963V346.09H386.479Z" fill="#595959"/>
<path fill-rule="evenodd" clip-rule="evenodd" d="M458.879 333.637C458.879 328.662 462.912 324.629 467.887 324.629H565.336C567.725 324.629 570.016 325.578 571.705 327.267C573.395 328.956 574.344 331.248 574.344 333.637V369.668C574.344 374.643 570.311 378.676 565.336 378.676H467.887C462.912 378.676 458.879 374.643 458.879 369.668V333.637Z" stroke="#E62058" stroke-miterlimit="10" stroke-linejoin="round"/>
<path d="M487.643 346.09C489.372 346.09 490.7 346.549 491.627 347.465C492.565 348.382 493.033 349.736 493.033 351.528C493.033 353.538 492.57 355.038 491.643 356.028C490.726 357.017 489.393 357.512 487.643 357.512H483.627V346.09H487.643ZM487.737 356.231C488.872 356.231 489.783 355.861 490.471 355.122C491.169 354.372 491.518 353.241 491.518 351.731C491.518 350.221 491.2 349.116 490.565 348.418C489.94 347.721 489.013 347.372 487.783 347.372H485.143V356.231H487.737ZM498.237 349.043C499.487 349.043 500.466 349.45 501.174 350.262C501.893 351.064 502.252 352.106 502.252 353.387C502.252 354.668 501.888 355.71 501.158 356.512C500.429 357.314 499.455 357.715 498.237 357.715C497.039 357.715 496.07 357.325 495.33 356.543C494.591 355.752 494.221 354.7 494.221 353.387C494.221 352.075 494.58 351.023 495.299 350.231C496.028 349.439 497.007 349.043 498.237 349.043ZM495.658 353.387C495.658 354.335 495.898 355.09 496.377 355.653C496.867 356.215 497.487 356.497 498.237 356.497C498.987 356.497 499.601 356.215 500.08 355.653C500.57 355.08 500.815 354.325 500.815 353.387C500.815 352.439 500.57 351.679 500.08 351.106C499.601 350.533 498.981 350.247 498.221 350.247C497.492 350.247 496.882 350.528 496.393 351.09C495.903 351.653 495.658 352.418 495.658 353.387ZM507.221 349.043C507.804 349.043 508.304 349.168 508.721 349.418C509.148 349.668 509.476 350.002 509.705 350.418H509.721V349.231H510.987V356.887C510.987 358.189 510.674 359.179 510.049 359.856C509.424 360.533 508.461 360.872 507.158 360.872C506.211 360.872 505.414 360.663 504.768 360.247C504.122 359.83 503.778 359.231 503.737 358.45H505.096C505.117 358.866 505.341 359.195 505.768 359.434C506.195 359.674 506.684 359.793 507.237 359.793C508.039 359.793 508.653 359.528 509.08 358.997C509.507 358.465 509.721 357.674 509.721 356.622V356.106H509.69C509.471 356.564 509.132 356.929 508.674 357.2C508.216 357.471 507.69 357.606 507.096 357.606C505.981 357.606 505.086 357.221 504.408 356.45C503.742 355.679 503.408 354.668 503.408 353.418C503.408 352.148 503.742 351.101 504.408 350.278C505.086 349.455 506.023 349.043 507.221 349.043ZM504.846 353.247C504.846 354.236 505.049 355.012 505.455 355.575C505.872 356.127 506.45 356.403 507.19 356.403C507.94 356.403 508.533 356.116 508.971 355.543C509.419 354.96 509.643 354.179 509.643 353.2C509.643 352.314 509.434 351.601 509.018 351.059C508.612 350.517 508.033 350.247 507.283 350.247C506.523 350.247 505.924 350.523 505.487 351.075C505.059 351.616 504.846 352.34 504.846 353.247ZM516.487 349.043C517.674 349.043 518.596 349.471 519.252 350.325C519.908 351.179 520.237 352.278 520.237 353.622V353.778H514.033V353.887C514.033 354.668 514.263 355.299 514.721 355.778C515.179 356.257 515.81 356.497 516.612 356.497C517.216 356.497 517.695 356.356 518.049 356.075C518.414 355.793 518.648 355.398 518.752 354.887H520.096C519.919 355.804 519.518 356.507 518.893 356.997C518.278 357.476 517.502 357.715 516.565 357.715C515.7 357.715 514.966 357.517 514.362 357.122C513.757 356.726 513.31 356.179 513.018 355.481C512.737 354.773 512.596 354.054 512.596 353.325C512.596 352.106 512.961 351.09 513.69 350.278C514.429 349.455 515.362 349.043 516.487 349.043ZM514.033 352.575H518.783C518.742 351.908 518.497 351.356 518.049 350.918C517.612 350.471 517.06 350.247 516.393 350.247C515.768 350.247 515.231 350.46 514.783 350.887C514.346 351.304 514.096 351.866 514.033 352.575ZM525.096 349.043C526.106 349.043 526.924 349.283 527.549 349.762C528.185 350.241 528.554 350.95 528.658 351.887H527.252C527.148 351.356 526.914 350.95 526.549 350.668C526.195 350.387 525.747 350.247 525.205 350.247C524.362 350.247 523.721 350.528 523.283 351.09C522.846 351.653 522.627 352.45 522.627 353.481C522.627 354.398 522.841 355.132 523.268 355.684C523.705 356.226 524.299 356.497 525.049 356.497C525.705 356.497 526.226 356.32 526.612 355.965C526.997 355.611 527.231 355.116 527.315 354.481H528.705C528.56 355.512 528.174 356.309 527.549 356.872C526.924 357.434 526.096 357.715 525.065 357.715C523.856 357.715 522.908 357.335 522.221 356.575C521.533 355.814 521.19 354.783 521.19 353.481C521.19 352.127 521.539 351.049 522.237 350.247C522.935 349.445 523.888 349.043 525.096 349.043ZM533.799 349.043C535.049 349.043 536.028 349.45 536.737 350.262C537.455 351.064 537.815 352.106 537.815 353.387C537.815 354.668 537.45 355.71 536.721 356.512C535.992 357.314 535.018 357.715 533.799 357.715C532.601 357.715 531.632 357.325 530.893 356.543C530.153 355.752 529.783 354.7 529.783 353.387C529.783 352.075 530.143 351.023 530.862 350.231C531.591 349.439 532.57 349.043 533.799 349.043ZM531.221 353.387C531.221 354.335 531.461 355.09 531.94 355.653C532.429 356.215 533.049 356.497 533.799 356.497C534.549 356.497 535.164 356.215 535.643 355.653C536.132 355.08 536.377 354.325 536.377 353.387C536.377 352.439 536.132 351.679 535.643 351.106C535.164 350.533 534.544 350.247 533.783 350.247C533.054 350.247 532.445 350.528 531.955 351.09C531.466 351.653 531.221 352.418 531.221 353.387ZM540.862 346.09V347.747H539.502V346.09H540.862ZM540.862 349.231V357.512H539.502V349.231H540.862ZM546.979 349.043C547.979 349.043 548.703 349.299 549.151 349.809C549.599 350.32 549.823 351.049 549.823 351.997V357.512H548.463V351.856C548.463 351.387 548.312 351.002 548.01 350.7C547.718 350.398 547.307 350.247 546.776 350.247C546.005 350.247 545.406 350.481 544.979 350.95C544.552 351.418 544.338 352.028 544.338 352.778V357.512H542.979V349.231H544.26V350.543H544.291C544.593 350.033 544.963 349.658 545.401 349.418C545.838 349.168 546.364 349.043 546.979 349.043Z" fill="#595959"/>
<path fill-rule="evenodd" clip-rule="evenodd" d="M602.879 333.637C602.879 328.662 606.912 324.629 611.887 324.629H709.336C711.725 324.629 714.016 325.578 715.705 327.267C717.395 328.956 718.344 331.248 718.344 333.637V369.668C718.344 374.643 714.311 378.676 709.336 378.676H611.887C606.912 378.676 602.879 374.643 602.879 369.668V333.637Z" stroke="#E62058" stroke-miterlimit="10" stroke-linejoin="round"/>
<path d="M635.655 346.09V347.372H629.28V350.997H635.217V352.278H629.28V356.231H635.701V357.512H627.764V346.09H635.655ZM638.92 346.762V349.231H640.561V350.434H638.92V355.622C638.92 356.028 639.056 356.247 639.326 356.278C639.597 356.299 639.884 356.309 640.186 356.309H640.561V357.512H639.436C638.696 357.512 638.196 357.382 637.936 357.122C637.686 356.851 637.561 356.403 637.561 355.778V350.434H636.139V349.231H637.561V346.762H638.92ZM643.428 346.09V350.45H643.459C643.657 350.012 643.99 349.668 644.459 349.418C644.938 349.168 645.475 349.043 646.069 349.043C647.069 349.043 647.793 349.299 648.24 349.809C648.688 350.32 648.912 351.049 648.912 351.997V357.512H647.553V351.856C647.553 351.387 647.402 351.002 647.1 350.7C646.808 350.398 646.397 350.247 645.865 350.247C645.095 350.247 644.496 350.481 644.069 350.95C643.642 351.418 643.428 352.028 643.428 352.778V357.512H642.069V346.09H643.428ZM654.405 349.043C655.592 349.043 656.514 349.471 657.17 350.325C657.826 351.179 658.155 352.278 658.155 353.622V353.778H651.951V353.887C651.951 354.668 652.181 355.299 652.639 355.778C653.097 356.257 653.727 356.497 654.53 356.497C655.134 356.497 655.613 356.356 655.967 356.075C656.332 355.793 656.566 355.398 656.67 354.887H658.014C657.837 355.804 657.436 356.507 656.811 356.997C656.196 357.476 655.42 357.715 654.483 357.715C653.618 357.715 652.884 357.517 652.28 357.122C651.675 356.726 651.227 356.179 650.936 355.481C650.655 354.773 650.514 354.054 650.514 353.325C650.514 352.106 650.878 351.09 651.608 350.278C652.347 349.455 653.28 349.043 654.405 349.043ZM651.951 352.575H656.701C656.66 351.908 656.415 351.356 655.967 350.918C655.53 350.471 654.977 350.247 654.311 350.247C653.686 350.247 653.149 350.46 652.701 350.887C652.264 351.304 652.014 351.866 651.951 352.575ZM663.67 349.043C663.701 349.043 663.727 349.043 663.748 349.043C663.78 349.043 663.816 349.043 663.858 349.043V350.481C662.837 350.481 662.082 350.752 661.592 351.293C661.113 351.835 660.873 352.674 660.873 353.809V357.512H659.514V349.231H660.795V350.981H660.826C661.139 350.325 661.53 349.84 661.998 349.528C662.467 349.205 663.024 349.043 663.67 349.043ZM668.037 349.043C669.225 349.043 670.147 349.471 670.803 350.325C671.459 351.179 671.787 352.278 671.787 353.622V353.778H665.584V353.887C665.584 354.668 665.813 355.299 666.272 355.778C666.73 356.257 667.36 356.497 668.162 356.497C668.767 356.497 669.246 356.356 669.6 356.075C669.964 355.793 670.199 355.398 670.303 354.887H671.647C671.47 355.804 671.069 356.507 670.444 356.997C669.829 357.476 669.053 357.715 668.115 357.715C667.251 357.715 666.517 357.517 665.912 357.122C665.308 356.726 664.86 356.179 664.569 355.481C664.287 354.773 664.147 354.054 664.147 353.325C664.147 352.106 664.511 351.09 665.24 350.278C665.98 349.455 666.912 349.043 668.037 349.043ZM665.584 352.575H670.334C670.293 351.908 670.048 351.356 669.6 350.918C669.162 350.471 668.61 350.247 667.944 350.247C667.319 350.247 666.782 350.46 666.334 350.887C665.897 351.304 665.647 351.866 665.584 352.575ZM674.553 349.231V354.872C674.553 355.34 674.699 355.731 674.99 356.043C675.293 356.346 675.709 356.497 676.24 356.497C677.022 356.497 677.621 356.262 678.037 355.793C678.464 355.314 678.678 354.705 678.678 353.965V349.231H680.037V357.512H678.756V356.2H678.725C678.423 356.721 678.043 357.106 677.584 357.356C677.136 357.596 676.621 357.715 676.037 357.715C675.069 357.715 674.35 357.465 673.881 356.965C673.423 356.465 673.194 355.726 673.194 354.747V349.231H674.553ZM686.076 349.043C686.681 349.043 687.17 349.168 687.545 349.418C687.931 349.658 688.196 350.002 688.342 350.45C688.623 350.012 688.988 349.668 689.436 349.418C689.894 349.168 690.399 349.043 690.951 349.043C691.878 349.043 692.566 349.257 693.014 349.684C693.462 350.101 693.686 350.668 693.686 351.387V357.512H692.326V352.028C692.326 351.434 692.201 350.991 691.951 350.7C691.701 350.398 691.295 350.247 690.733 350.247C690.056 350.247 689.524 350.445 689.139 350.84C688.764 351.236 688.576 351.726 688.576 352.309V357.512H687.201V352.028C687.201 351.434 687.076 350.991 686.826 350.7C686.576 350.398 686.186 350.247 685.655 350.247C685.227 350.247 684.847 350.351 684.514 350.559C684.181 350.767 683.92 351.054 683.733 351.418C683.545 351.773 683.451 352.075 683.451 352.325V357.512H682.092V349.231H683.373V350.45H683.405C683.717 349.981 684.092 349.632 684.53 349.403C684.977 349.163 685.493 349.043 686.076 349.043Z" fill="#595959"/>
<path fill-rule="evenodd" clip-rule="evenodd" d="M746.879 333.637C746.879 328.662 750.912 324.629 755.887 324.629H853.336C855.725 324.629 858.016 325.578 859.705 327.267C861.395 328.956 862.344 331.248 862.344 333.637V369.668C862.344 374.643 858.311 378.676 853.336 378.676H755.887C750.912 378.676 746.879 374.643 746.879 369.668V333.637Z" stroke="#E62058" stroke-miterlimit="10" stroke-linejoin="round"/>
<path d="M778.686 345.809C779.8 345.809 780.769 346.07 781.592 346.59C782.415 347.101 783.05 347.82 783.498 348.747C783.946 349.674 784.17 350.689 784.17 351.793C784.17 352.908 783.946 353.929 783.498 354.856C783.05 355.783 782.41 356.507 781.576 357.028C780.753 357.538 779.79 357.793 778.686 357.793C777.592 357.793 776.628 357.538 775.795 357.028C774.972 356.507 774.337 355.788 773.889 354.872C773.441 353.945 773.217 352.918 773.217 351.793C773.217 350.064 773.712 348.637 774.701 347.512C775.701 346.377 777.03 345.809 778.686 345.809ZM774.733 351.793C774.733 352.648 774.889 353.445 775.201 354.184C775.514 354.913 775.967 355.481 776.561 355.887C777.165 356.293 777.873 356.497 778.686 356.497C779.915 356.497 780.878 356.059 781.576 355.184C782.285 354.299 782.639 353.168 782.639 351.793C782.639 350.439 782.29 349.32 781.592 348.434C780.894 347.538 779.92 347.09 778.67 347.09C777.451 347.09 776.488 347.538 775.78 348.434C775.082 349.33 774.733 350.45 774.733 351.793ZM789.873 349.043C791.05 349.043 791.977 349.45 792.655 350.262C793.342 351.075 793.686 352.122 793.686 353.403C793.686 354.684 793.347 355.726 792.67 356.528C791.993 357.32 791.071 357.715 789.905 357.715C789.394 357.715 788.889 357.606 788.389 357.387C787.899 357.168 787.514 356.84 787.233 356.403H787.201V360.684H785.842V349.231H787.201V350.356H787.233C787.441 349.929 787.774 349.606 788.233 349.387C788.701 349.158 789.248 349.043 789.873 349.043ZM787.155 353.372C787.155 354.33 787.384 355.09 787.842 355.653C788.311 356.215 788.951 356.497 789.764 356.497C790.545 356.497 791.149 356.215 791.576 355.653C792.014 355.09 792.233 354.309 792.233 353.309C792.233 352.413 792.003 351.679 791.545 351.106C791.097 350.533 790.472 350.247 789.67 350.247C788.868 350.247 788.248 350.538 787.811 351.122C787.373 351.705 787.155 352.455 787.155 353.372ZM798.717 349.043C799.905 349.043 800.826 349.471 801.483 350.325C802.139 351.179 802.467 352.278 802.467 353.622V353.778H796.264V353.887C796.264 354.668 796.493 355.299 796.951 355.778C797.41 356.257 798.04 356.497 798.842 356.497C799.446 356.497 799.925 356.356 800.28 356.075C800.644 355.793 800.878 355.398 800.983 354.887H802.326C802.149 355.804 801.748 356.507 801.123 356.997C800.509 357.476 799.733 357.715 798.795 357.715C797.931 357.715 797.196 357.517 796.592 357.122C795.988 356.726 795.54 356.179 795.248 355.481C794.967 354.773 794.826 354.054 794.826 353.325C794.826 352.106 795.191 351.09 795.92 350.278C796.66 349.455 797.592 349.043 798.717 349.043ZM796.264 352.575H801.014C800.972 351.908 800.727 351.356 800.28 350.918C799.842 350.471 799.29 350.247 798.623 350.247C797.998 350.247 797.462 350.46 797.014 350.887C796.576 351.304 796.326 351.866 796.264 352.575ZM807.873 349.043C808.873 349.043 809.597 349.299 810.045 349.809C810.493 350.32 810.717 351.049 810.717 351.997V357.512H809.358V351.856C809.358 351.387 809.207 351.002 808.905 350.7C808.613 350.398 808.201 350.247 807.67 350.247C806.899 350.247 806.3 350.481 805.873 350.95C805.446 351.418 805.233 352.028 805.233 352.778V357.512H803.873V349.231H805.155V350.543H805.186C805.488 350.033 805.858 349.658 806.295 349.418C806.733 349.168 807.259 349.043 807.873 349.043ZM817.772 346.09L822.24 357.512H820.553L819.319 354.075H814.475L813.194 357.512H811.631L816.1 346.09H817.772ZM816.897 347.465L814.959 352.793H818.834L816.928 347.465H816.897ZM828.436 346.09C829.488 346.09 830.321 346.377 830.936 346.95C831.561 347.512 831.873 348.351 831.873 349.465C831.873 350.58 831.561 351.424 830.936 351.997C830.321 352.559 829.524 352.84 828.545 352.84H824.873V357.512H823.358V346.09H828.436ZM828.014 351.559C828.743 351.559 829.316 351.387 829.733 351.043C830.149 350.7 830.358 350.174 830.358 349.465C830.358 348.757 830.149 348.231 829.733 347.887C829.326 347.543 828.722 347.372 827.92 347.372H824.873V351.559H828.014ZM835.303 346.09V357.512H833.787V346.09H835.303Z" fill="#595959"/>
<path d="M81.8086 345.396L85.0742 355.287H85.1055L88.4023 345.396H89.9805L85.918 356.818H84.1836L80.1523 345.396H81.8086ZM93.7383 348.349C94.9258 348.349 95.8477 348.776 96.5039 349.63C97.1602 350.485 97.4883 351.584 97.4883 352.927V353.084H91.2852V353.193C91.2852 353.974 91.5143 354.604 91.9727 355.084C92.431 355.563 93.0612 355.802 93.8633 355.802C94.4674 355.802 94.9466 355.662 95.3008 355.38C95.6654 355.099 95.8997 354.703 96.0039 354.193H97.3477C97.1706 355.11 96.7695 355.813 96.1445 356.302C95.5299 356.782 94.7539 357.021 93.8164 357.021C92.9518 357.021 92.2174 356.823 91.6133 356.427C91.0091 356.032 90.5612 355.485 90.2695 354.787C89.9883 354.078 89.8477 353.36 89.8477 352.63C89.8477 351.412 90.2122 350.396 90.9414 349.584C91.681 348.761 92.6133 348.349 93.7383 348.349ZM91.2852 351.88H96.0352C95.9935 351.214 95.7487 350.662 95.3008 350.224C94.8633 349.776 94.3112 349.552 93.6445 349.552C93.0195 349.552 92.4831 349.766 92.0352 350.193C91.5977 350.61 91.3477 351.172 91.2852 351.88ZM103.004 348.349C103.035 348.349 103.061 348.349 103.082 348.349C103.113 348.349 103.15 348.349 103.191 348.349V349.787C102.171 349.787 101.415 350.058 100.926 350.599C100.447 351.141 100.207 351.979 100.207 353.115V356.818H98.8477V348.537H100.129V350.287H100.16C100.473 349.63 100.863 349.146 101.332 348.834C101.801 348.511 102.358 348.349 103.004 348.349ZM105.66 345.396V347.052H104.301V345.396H105.66ZM105.66 348.537V356.818H104.301V348.537H105.66ZM110.605 345.255C110.72 345.255 110.871 345.271 111.059 345.302C111.246 345.323 111.392 345.354 111.496 345.396V346.568C111.392 346.537 111.262 346.511 111.105 346.49C110.96 346.469 110.835 346.459 110.73 346.459C110.355 346.459 110.09 346.537 109.934 346.693C109.777 346.849 109.699 347.068 109.699 347.349V348.537H111.293V349.74H109.699V356.818H108.34V349.74H106.949V348.537H108.34V347.255C108.34 346.641 108.527 346.157 108.902 345.802C109.288 345.438 109.855 345.255 110.605 345.255ZM113.965 345.396V347.052H112.605V345.396H113.965ZM113.965 348.537V356.818H112.605V348.537H113.965ZM119.504 348.349C120.691 348.349 121.613 348.776 122.27 349.63C122.926 350.485 123.254 351.584 123.254 352.927V353.084H117.051V353.193C117.051 353.974 117.28 354.604 117.738 355.084C118.197 355.563 118.827 355.802 119.629 355.802C120.233 355.802 120.712 355.662 121.066 355.38C121.431 355.099 121.665 354.703 121.77 354.193H123.113C122.936 355.11 122.535 355.813 121.91 356.302C121.296 356.782 120.52 357.021 119.582 357.021C118.717 357.021 117.983 356.823 117.379 356.427C116.775 356.032 116.327 355.485 116.035 354.787C115.754 354.078 115.613 353.36 115.613 352.63C115.613 351.412 115.978 350.396 116.707 349.584C117.447 348.761 118.379 348.349 119.504 348.349ZM117.051 351.88H121.801C121.759 351.214 121.514 350.662 121.066 350.224C120.629 349.776 120.077 349.552 119.41 349.552C118.785 349.552 118.249 349.766 117.801 350.193C117.363 350.61 117.113 351.172 117.051 351.88ZM128.77 348.349C128.801 348.349 128.827 348.349 128.848 348.349C128.879 348.349 128.915 348.349 128.957 348.349V349.787C127.936 349.787 127.181 350.058 126.691 350.599C126.212 351.141 125.973 351.979 125.973 353.115V356.818H124.613V348.537H125.895V350.287H125.926C126.238 349.63 126.629 349.146 127.098 348.834C127.566 348.511 128.124 348.349 128.77 348.349ZM132.738 348.349C133.853 348.349 134.681 348.568 135.223 349.005C135.764 349.433 136.061 350.078 136.113 350.943H134.754V350.927C134.712 350.49 134.52 350.151 134.176 349.912C133.832 349.672 133.384 349.552 132.832 349.552C132.29 349.552 131.858 349.646 131.535 349.834C131.223 350.011 131.066 350.266 131.066 350.599C131.066 350.901 131.207 351.151 131.488 351.349C131.77 351.537 132.191 351.693 132.754 351.818L134.035 352.099C134.837 352.276 135.447 352.552 135.863 352.927C136.28 353.292 136.488 353.782 136.488 354.396C136.488 355.209 136.171 355.849 135.535 356.318C134.91 356.787 134.051 357.021 132.957 357.021C131.905 357.021 131.066 356.782 130.441 356.302C129.827 355.823 129.499 355.125 129.457 354.209H130.816C130.837 354.719 131.04 355.115 131.426 355.396C131.822 355.667 132.358 355.802 133.035 355.802C133.691 355.802 134.186 355.698 134.52 355.49C134.863 355.282 135.035 354.974 135.035 354.568C135.035 354.203 134.868 353.912 134.535 353.693C134.202 353.474 133.514 353.261 132.473 353.052C131.431 352.854 130.697 352.568 130.27 352.193C129.842 351.818 129.629 351.323 129.629 350.709C129.629 349.979 129.921 349.407 130.504 348.99C131.098 348.563 131.842 348.349 132.738 348.349Z" fill="#595959"/>
<path d="M343.005 75.794H318.005V239.322H343.068" stroke="#E62058" stroke-miterlimit="10" stroke-linejoin="round"/>
<path d="M581.556 239.306H606.556V75.8097H585.047" stroke="#E62058" stroke-miterlimit="10" stroke-linejoin="round"/>
<path fill-rule="evenodd" clip-rule="evenodd" d="M585.047 75.8097L586.171 74.6851L583.081 75.8097L586.171 76.9343L585.047 75.8097Z" fill="#E62058" stroke="#E62058" stroke-miterlimit="10"/>
<path d="M606.556 239.306H729.656V75.8097H606.619" stroke="#E62058" stroke-miterlimit="10" stroke-linejoin="round"/>
<path d="M228.612 324.629V295.479H462.281V269.756" stroke="#E62058" stroke-miterlimit="10" stroke-linejoin="round"/>
<path fill-rule="evenodd" clip-rule="evenodd" d="M462.281 269.756L463.405 270.881L462.281 267.791L461.156 270.881L462.281 269.756Z" fill="#E62058" stroke="#E62058" stroke-miterlimit="10"/>
<path d="M372.612 324.629V295.479H462.281V269.756" stroke="#E62058" stroke-miterlimit="10" stroke-linejoin="round"/>
<path fill-rule="evenodd" clip-rule="evenodd" d="M462.281 269.756L463.405 270.881L462.281 267.791L461.156 270.881L462.281 269.756Z" fill="#E62058" stroke="#E62058" stroke-miterlimit="10"/>
<path d="M516.612 324.629V295.479H462.281V269.756" stroke="#E62058" stroke-miterlimit="10" stroke-linejoin="round"/>
<path fill-rule="evenodd" clip-rule="evenodd" d="M462.281 269.756L463.405 270.881L462.281 267.791L461.156 270.881L462.281 269.756Z" fill="#E62058" stroke="#E62058" stroke-miterlimit="10"/>
<path fill-rule="evenodd" clip-rule="evenodd" d="M572.58 144.214H630.533V158.86H572.58V144.214Z" fill="white"/>
<path d="M660.612 324.629V295.479H462.281V269.756" stroke="#E62058" stroke-miterlimit="10" stroke-linejoin="round"/>
<path fill-rule="evenodd" clip-rule="evenodd" d="M462.281 269.756L463.405 270.881L462.281 267.791L461.156 270.881L462.281 269.756Z" fill="#E62058" stroke="#E62058" stroke-miterlimit="10"/>
<path d="M804.612 324.629V295.479H462.281V269.756" stroke="#E62058" stroke-miterlimit="10" stroke-linejoin="round"/>
<path fill-rule="evenodd" clip-rule="evenodd" d="M462.281 269.756L463.405 270.881L462.281 267.791L461.156 270.881L462.281 269.756Z" fill="#E62058" stroke="#E62058" stroke-miterlimit="10"/>
<path d="M264.721 239.306H339.568" stroke="#E62058" stroke-miterlimit="10" stroke-linejoin="round"/>
<path fill-rule="evenodd" clip-rule="evenodd" d="M264.721 239.306L265.846 238.181L262.756 239.306L265.846 240.43L264.721 239.306Z" fill="#E62058" stroke="#E62058" stroke-miterlimit="10"/>
<path fill-rule="evenodd" clip-rule="evenodd" d="M339.568 239.306L338.443 240.43L341.533 239.306L338.443 238.181L339.568 239.306Z" fill="#E62058" stroke="#E62058" stroke-miterlimit="10"/>
<path d="M582.668 147.01C583.605 147.01 584.241 147.203 584.574 147.588C584.918 147.963 585.09 148.39 585.09 148.869C585.09 149.276 584.991 149.63 584.793 149.932C584.595 150.223 584.319 150.442 583.965 150.588V150.604C584.433 150.708 584.793 150.921 585.043 151.244C585.293 151.567 585.418 151.963 585.418 152.432C585.418 153.057 585.199 153.578 584.761 153.994C584.324 154.411 583.782 154.619 583.136 154.619H579.418V147.01H582.668ZM582.511 150.276C583.011 150.276 583.397 150.182 583.668 149.994C583.938 149.807 584.074 149.499 584.074 149.072C584.074 148.666 583.959 148.364 583.73 148.166C583.511 147.968 583.105 147.869 582.511 147.869H580.433V150.276H582.511ZM583.011 153.76C583.418 153.76 583.751 153.64 584.011 153.401C584.272 153.151 584.402 152.817 584.402 152.401C584.402 151.973 584.256 151.656 583.965 151.447C583.673 151.239 583.251 151.135 582.699 151.135H580.433V153.76H583.011ZM587.53 147.01V148.119H586.624V147.01H587.53ZM587.53 149.104V154.619H586.624V149.104H587.53ZM590.195 147.463V149.104H591.288V149.916H590.195V153.354C590.195 153.635 590.283 153.786 590.46 153.807C590.648 153.817 590.84 153.822 591.038 153.822H591.288V154.619H590.554C590.054 154.619 589.715 154.531 589.538 154.354C589.372 154.177 589.288 153.88 589.288 153.463V149.916H588.351V149.104H589.288V147.463H590.195ZM595.668 147.01L597.84 153.604H597.855L600.058 147.01H601.105L598.402 154.619H597.246L594.558 147.01H595.668ZM603.698 148.979C604.531 148.979 605.182 149.249 605.651 149.791C606.13 150.333 606.37 151.026 606.37 151.869C606.37 152.723 606.125 153.416 605.635 153.947C605.156 154.479 604.51 154.744 603.698 154.744C602.896 154.744 602.25 154.484 601.76 153.963C601.271 153.442 601.026 152.744 601.026 151.869C601.026 150.994 601.265 150.296 601.745 149.776C602.224 149.244 602.875 148.979 603.698 148.979ZM601.979 151.869C601.979 152.505 602.14 153.01 602.463 153.385C602.786 153.76 603.198 153.947 603.698 153.947C604.187 153.947 604.594 153.76 604.917 153.385C605.25 152.999 605.417 152.494 605.417 151.869C605.417 151.244 605.255 150.739 604.932 150.354C604.609 149.968 604.193 149.776 603.682 149.776C603.203 149.776 602.797 149.968 602.463 150.354C602.14 150.729 601.979 151.234 601.979 151.869ZM608.692 147.463V149.104H609.786V149.916H608.692V153.354C608.692 153.635 608.78 153.786 608.957 153.807C609.145 153.817 609.338 153.822 609.536 153.822H609.786V154.619H609.051C608.551 154.619 608.213 154.531 608.036 154.354C607.869 154.177 607.786 153.88 607.786 153.463V149.916H606.848V149.104H607.786V147.463H608.692ZM611.751 147.01V148.119H610.845V147.01H611.751ZM611.751 149.104V154.619H610.845V149.104H611.751ZM615.822 148.979C616.488 148.979 616.973 149.151 617.275 149.494C617.577 149.838 617.728 150.322 617.728 150.947V154.619H616.822V150.854C616.822 150.541 616.717 150.286 616.509 150.088C616.311 149.88 616.035 149.776 615.681 149.776C615.181 149.776 614.785 149.937 614.493 150.26C614.212 150.572 614.072 150.979 614.072 151.479V154.619H613.165V149.104H614.009V149.979H614.04C614.238 149.635 614.483 149.385 614.775 149.229C615.066 149.062 615.415 148.979 615.822 148.979ZM621.326 148.979C621.712 148.979 622.045 149.062 622.326 149.229C622.607 149.395 622.826 149.619 622.982 149.901V149.104H623.842V154.213C623.842 155.078 623.633 155.734 623.217 156.182C622.8 156.63 622.154 156.854 621.279 156.854C620.654 156.854 620.123 156.713 619.686 156.432C619.258 156.161 619.029 155.765 618.998 155.244H619.904C619.925 155.526 620.076 155.744 620.357 155.901C620.649 156.057 620.972 156.135 621.326 156.135C621.868 156.135 622.279 155.958 622.561 155.604C622.842 155.249 622.982 154.723 622.982 154.026V153.682H622.967C622.821 153.984 622.592 154.229 622.279 154.416C621.977 154.593 621.633 154.682 621.248 154.682C620.498 154.682 619.899 154.427 619.451 153.916C619.014 153.395 618.795 152.723 618.795 151.901C618.795 151.057 619.014 150.359 619.451 149.807C619.899 149.255 620.524 148.979 621.326 148.979ZM619.748 151.791C619.748 152.437 619.883 152.947 620.154 153.322C620.436 153.697 620.816 153.885 621.295 153.885C621.795 153.885 622.191 153.692 622.482 153.307C622.785 152.921 622.936 152.406 622.936 151.76C622.936 151.166 622.8 150.687 622.529 150.322C622.258 149.958 621.868 149.776 621.357 149.776C620.857 149.776 620.462 149.958 620.17 150.322C619.889 150.687 619.748 151.177 619.748 151.791Z" fill="#595959"/>
<path fill-rule="evenodd" clip-rule="evenodd" d="M223.018 144.214H386.42V158.86H223.018V144.214Z" fill="white"/>
<path d="M244.703 146.822C245.546 146.822 246.25 147.041 246.812 147.479C247.385 147.916 247.723 148.526 247.828 149.307H246.828C246.713 148.786 246.468 148.385 246.093 148.104C245.718 147.822 245.25 147.682 244.687 147.682C243.885 147.682 243.255 147.968 242.796 148.541C242.338 149.104 242.109 149.843 242.109 150.76C242.109 151.729 242.333 152.505 242.781 153.088C243.229 153.661 243.869 153.947 244.703 153.947C245.317 153.947 245.822 153.749 246.218 153.354C246.625 152.958 246.848 152.427 246.89 151.76H247.906C247.802 152.739 247.458 153.494 246.875 154.026C246.302 154.546 245.546 154.807 244.609 154.807C243.526 154.807 242.666 154.447 242.031 153.729C241.406 152.999 241.093 152.036 241.093 150.838C241.093 149.651 241.416 148.687 242.062 147.947C242.718 147.197 243.598 146.822 244.703 146.822ZM251.398 148.979C252.232 148.979 252.883 149.249 253.351 149.791C253.831 150.333 254.07 151.026 254.07 151.869C254.07 152.723 253.825 153.416 253.336 153.947C252.857 154.479 252.211 154.744 251.398 154.744C250.596 154.744 249.95 154.484 249.461 153.963C248.971 153.442 248.726 152.744 248.726 151.869C248.726 150.994 248.966 150.296 249.445 149.776C249.924 149.244 250.575 148.979 251.398 148.979ZM249.679 151.869C249.679 152.505 249.841 153.01 250.164 153.385C250.487 153.76 250.898 153.947 251.398 153.947C251.888 153.947 252.294 153.76 252.617 153.385C252.95 152.999 253.117 152.494 253.117 151.869C253.117 151.244 252.956 150.739 252.633 150.354C252.31 149.968 251.893 149.776 251.383 149.776C250.903 149.776 250.497 149.968 250.164 150.354C249.841 150.729 249.679 151.234 249.679 151.869ZM256.095 147.01V154.619H255.189V147.01H256.095ZM258.463 147.01V154.619H257.557V147.01H258.463ZM262.158 148.979C262.95 148.979 263.565 149.265 264.002 149.838C264.44 150.411 264.658 151.14 264.658 152.026V152.135H260.533V152.197C260.533 152.729 260.685 153.156 260.987 153.479C261.299 153.791 261.721 153.947 262.252 153.947C262.648 153.947 262.966 153.854 263.205 153.666C263.445 153.479 263.601 153.213 263.674 152.869H264.565C264.45 153.484 264.185 153.953 263.768 154.276C263.351 154.588 262.836 154.744 262.221 154.744C261.638 154.744 261.143 154.614 260.737 154.354C260.341 154.093 260.049 153.729 259.862 153.26C259.674 152.791 259.58 152.317 259.58 151.838C259.58 151.026 259.825 150.348 260.315 149.807C260.804 149.255 261.419 148.979 262.158 148.979ZM260.533 151.338H263.69C263.669 150.89 263.507 150.52 263.205 150.229C262.914 149.927 262.544 149.776 262.096 149.776C261.679 149.776 261.325 149.916 261.033 150.197C260.742 150.479 260.575 150.859 260.533 151.338ZM267.898 148.979C268.564 148.979 269.106 149.14 269.523 149.463C269.95 149.786 270.2 150.26 270.273 150.885H269.335C269.262 150.52 269.106 150.244 268.866 150.057C268.627 149.869 268.33 149.776 267.976 149.776C267.413 149.776 266.986 149.968 266.695 150.354C266.403 150.729 266.257 151.255 266.257 151.932C266.257 152.546 266.398 153.036 266.679 153.401C266.971 153.765 267.366 153.947 267.866 153.947C268.304 153.947 268.648 153.828 268.898 153.588C269.158 153.348 269.32 153.02 269.382 152.604H270.304C270.2 153.291 269.939 153.822 269.523 154.197C269.106 154.562 268.554 154.744 267.866 154.744C267.075 154.744 266.45 154.494 265.991 153.994C265.533 153.484 265.304 152.796 265.304 151.932C265.304 151.036 265.533 150.322 265.991 149.791C266.46 149.249 267.096 148.979 267.898 148.979ZM272.574 147.463V149.104H273.668V149.916H272.574V153.354C272.574 153.635 272.663 153.786 272.84 153.807C273.027 153.817 273.22 153.822 273.418 153.822H273.668V154.619H272.934C272.434 154.619 272.095 154.531 271.918 154.354C271.751 154.177 271.668 153.88 271.668 153.463V149.916H270.731V149.104H271.668V147.463H272.574ZM280.969 147.01L283.938 154.619H282.829L282 152.322H278.782L277.922 154.619H276.875L279.844 147.01H280.969ZM280.375 147.932L279.094 151.479H281.672L280.407 147.932H280.375ZM285.733 147.463V149.104H286.827V149.916H285.733V153.354C285.733 153.635 285.822 153.786 285.999 153.807C286.186 153.817 286.379 153.822 286.577 153.822H286.827V154.619H286.093C285.593 154.619 285.254 154.531 285.077 154.354C284.91 154.177 284.827 153.88 284.827 153.463V149.916H283.89V149.104H284.827V147.463H285.733ZM289.089 147.463V149.104H290.183V149.916H289.089V153.354C289.089 153.635 289.178 153.786 289.355 153.807C289.543 153.817 289.735 153.822 289.933 153.822H290.183V154.619H289.449C288.949 154.619 288.61 154.531 288.433 154.354C288.266 154.177 288.183 153.88 288.183 153.463V149.916H287.246V149.104H288.183V147.463H289.089ZM293.347 148.979C294.138 148.979 294.753 149.265 295.19 149.838C295.628 150.411 295.847 151.14 295.847 152.026V152.135H291.722V152.197C291.722 152.729 291.873 153.156 292.175 153.479C292.487 153.791 292.909 153.947 293.44 153.947C293.836 153.947 294.154 153.854 294.393 153.666C294.633 153.479 294.789 153.213 294.862 152.869H295.753C295.638 153.484 295.373 153.953 294.956 154.276C294.539 154.588 294.024 154.744 293.409 154.744C292.826 154.744 292.331 154.614 291.925 154.354C291.529 154.093 291.237 153.729 291.05 153.26C290.862 152.791 290.768 152.317 290.768 151.838C290.768 151.026 291.013 150.348 291.503 149.807C291.992 149.255 292.607 148.979 293.347 148.979ZM291.722 151.338H294.878C294.857 150.89 294.696 150.52 294.393 150.229C294.102 149.927 293.732 149.776 293.284 149.776C292.867 149.776 292.513 149.916 292.222 150.197C291.93 150.479 291.763 150.859 291.722 151.338ZM298.617 148.979C299.357 148.979 299.903 149.124 300.258 149.416C300.622 149.708 300.825 150.14 300.867 150.713H299.961V150.697C299.929 150.406 299.799 150.182 299.57 150.026C299.341 149.859 299.044 149.776 298.679 149.776C298.315 149.776 298.028 149.838 297.82 149.963C297.612 150.088 297.508 150.26 297.508 150.479C297.508 150.687 297.601 150.854 297.789 150.979C297.976 151.104 298.258 151.208 298.633 151.291L299.476 151.479C300.008 151.604 300.414 151.786 300.695 152.026C300.976 152.265 301.117 152.593 301.117 153.01C301.117 153.552 300.903 153.979 300.476 154.291C300.06 154.593 299.492 154.744 298.773 154.744C298.065 154.744 297.502 154.588 297.086 154.276C296.679 153.963 296.461 153.499 296.429 152.885H297.336C297.346 153.229 297.482 153.494 297.742 153.682C298.002 153.859 298.362 153.947 298.82 153.947C299.258 153.947 299.586 153.88 299.804 153.744C300.034 153.598 300.148 153.39 300.148 153.119C300.148 152.88 300.034 152.687 299.804 152.541C299.586 152.395 299.133 152.255 298.445 152.119C297.747 151.984 297.258 151.791 296.976 151.541C296.695 151.291 296.554 150.963 296.554 150.557C296.554 150.067 296.747 149.682 297.133 149.401C297.528 149.119 298.023 148.979 298.617 148.979ZM303.367 147.463V149.104H304.461V149.916H303.367V153.354C303.367 153.635 303.456 153.786 303.633 153.807C303.82 153.817 304.013 153.822 304.211 153.822H304.461V154.619H303.726C303.226 154.619 302.888 154.531 302.711 154.354C302.544 154.177 302.461 153.88 302.461 153.463V149.916H301.523V149.104H302.461V147.463H303.367ZM307.723 148.979C308.473 148.979 309.004 149.114 309.317 149.385C309.629 149.656 309.786 150.015 309.786 150.463C309.786 152.369 309.786 153.427 309.786 153.635C309.786 153.843 309.879 153.947 310.067 153.947C310.109 153.947 310.155 153.942 310.207 153.932C310.26 153.921 310.306 153.911 310.348 153.901V154.604C310.265 154.645 310.166 154.677 310.051 154.697C309.947 154.729 309.832 154.744 309.707 154.744C309.457 154.744 309.265 154.677 309.129 154.541C308.994 154.395 308.926 154.182 308.926 153.901C308.687 154.182 308.405 154.395 308.082 154.541C307.76 154.677 307.395 154.744 306.989 154.744C306.426 154.744 305.984 154.614 305.661 154.354C305.338 154.083 305.176 153.697 305.176 153.197C305.176 152.708 305.332 152.317 305.645 152.026C305.957 151.734 306.697 151.515 307.864 151.369C308.26 151.317 308.525 151.244 308.661 151.151C308.806 151.046 308.879 150.895 308.879 150.697C308.879 150.385 308.78 150.156 308.582 150.01C308.395 149.854 308.088 149.776 307.661 149.776C307.213 149.776 306.874 149.864 306.645 150.041C306.426 150.208 306.306 150.468 306.286 150.822H305.379C305.411 150.218 305.624 149.76 306.02 149.447C306.426 149.135 306.994 148.979 307.723 148.979ZM306.129 153.135C306.129 153.395 306.223 153.598 306.411 153.744C306.598 153.88 306.859 153.947 307.192 153.947C307.702 153.947 308.109 153.822 308.411 153.572C308.723 153.312 308.879 153.026 308.879 152.713V151.776C308.723 151.88 308.52 151.953 308.27 151.994C308.03 152.026 307.713 152.072 307.317 152.135C306.911 152.187 306.609 152.296 306.411 152.463C306.223 152.619 306.129 152.843 306.129 153.135ZM312.447 147.463V149.104H313.54V149.916H312.447V153.354C312.447 153.635 312.535 153.786 312.712 153.807C312.9 153.817 313.093 153.822 313.29 153.822H313.54V154.619H312.806C312.306 154.619 311.968 154.531 311.79 154.354C311.624 154.177 311.54 153.88 311.54 153.463V149.916H310.603V149.104H311.54V147.463H312.447ZM315.506 147.01V148.119H314.6V147.01H315.506ZM315.506 149.104V154.619H314.6V149.104H315.506ZM319.295 148.979C320.129 148.979 320.78 149.249 321.248 149.791C321.728 150.333 321.967 151.026 321.967 151.869C321.967 152.723 321.722 153.416 321.233 153.947C320.754 154.479 320.108 154.744 319.295 154.744C318.493 154.744 317.847 154.484 317.358 153.963C316.868 153.442 316.623 152.744 316.623 151.869C316.623 150.994 316.863 150.296 317.342 149.776C317.821 149.244 318.472 148.979 319.295 148.979ZM317.576 151.869C317.576 152.505 317.738 153.01 318.061 153.385C318.384 153.76 318.795 153.947 319.295 153.947C319.785 153.947 320.191 153.76 320.514 153.385C320.847 152.999 321.014 152.494 321.014 151.869C321.014 151.244 320.853 150.739 320.53 150.354C320.207 149.968 319.79 149.776 319.28 149.776C318.8 149.776 318.394 149.968 318.061 150.354C317.738 150.729 317.576 151.234 317.576 151.869ZM325.696 148.979C326.362 148.979 326.847 149.151 327.149 149.494C327.451 149.838 327.602 150.322 327.602 150.947V154.619H326.696V150.854C326.696 150.541 326.591 150.286 326.383 150.088C326.185 149.88 325.909 149.776 325.555 149.776C325.055 149.776 324.659 149.937 324.367 150.26C324.086 150.572 323.946 150.979 323.946 151.479V154.619H323.039V149.104H323.883V149.979H323.914C324.112 149.635 324.357 149.385 324.649 149.229C324.94 149.062 325.289 148.979 325.696 148.979ZM335.692 147.01C336.359 147.01 336.9 147.187 337.317 147.541C337.744 147.885 337.958 148.374 337.958 149.01C337.958 149.51 337.848 149.927 337.63 150.26C337.411 150.583 337.083 150.807 336.645 150.932V150.947C337.031 151.031 337.312 151.213 337.489 151.494C337.676 151.776 337.781 152.26 337.801 152.947C337.822 153.385 337.864 153.734 337.926 153.994C337.999 154.244 338.098 154.453 338.223 154.619H337.098C337.036 154.536 336.994 154.453 336.973 154.369C336.952 154.286 336.937 154.177 336.926 154.041L336.88 153.197C336.869 152.802 336.786 152.406 336.63 152.01C336.473 151.604 336.124 151.39 335.583 151.369H333.083V154.619H332.067V147.01H335.692ZM335.239 150.526C335.801 150.526 336.228 150.416 336.52 150.197C336.812 149.968 336.958 149.624 336.958 149.166C336.958 148.749 336.838 148.432 336.598 148.213C336.369 147.984 336.046 147.869 335.63 147.869H333.083V150.526H335.239ZM341.508 148.979C342.299 148.979 342.914 149.265 343.352 149.838C343.789 150.411 344.008 151.14 344.008 152.026V152.135H339.883V152.197C339.883 152.729 340.034 153.156 340.336 153.479C340.648 153.791 341.07 153.947 341.602 153.947C341.997 153.947 342.315 153.854 342.555 153.666C342.794 153.479 342.951 153.213 343.023 152.869H343.914C343.799 153.484 343.534 153.953 343.117 154.276C342.701 154.588 342.185 154.744 341.57 154.744C340.987 154.744 340.492 154.614 340.086 154.354C339.69 154.093 339.398 153.729 339.211 153.26C339.023 152.791 338.93 152.317 338.93 151.838C338.93 151.026 339.174 150.348 339.664 149.807C340.154 149.255 340.768 148.979 341.508 148.979ZM339.883 151.338H343.039C343.018 150.89 342.857 150.52 342.555 150.229C342.263 149.927 341.893 149.776 341.445 149.776C341.029 149.776 340.674 149.916 340.383 150.197C340.091 150.479 339.924 150.859 339.883 151.338ZM347.153 148.979C347.518 148.979 347.862 149.052 348.184 149.197C348.507 149.343 348.757 149.557 348.934 149.838H348.966V149.104H349.872V156.729H348.966V153.869H348.934C348.799 154.161 348.575 154.38 348.263 154.526C347.95 154.671 347.591 154.744 347.184 154.744C346.414 154.744 345.799 154.479 345.341 153.947C344.882 153.416 344.653 152.718 344.653 151.854C344.653 150.999 344.877 150.307 345.325 149.776C345.773 149.244 346.382 148.979 347.153 148.979ZM345.606 151.916C345.606 152.499 345.757 152.984 346.059 153.369C346.372 153.755 346.789 153.947 347.309 153.947C347.841 153.947 348.252 153.755 348.544 153.369C348.846 152.984 348.997 152.484 348.997 151.869C348.997 151.244 348.846 150.739 348.544 150.354C348.242 149.968 347.809 149.776 347.247 149.776C346.726 149.776 346.32 149.968 346.028 150.354C345.747 150.729 345.606 151.249 345.606 151.916ZM352.173 149.104V152.869C352.173 153.182 352.272 153.442 352.47 153.651C352.668 153.848 352.939 153.947 353.282 153.947C353.803 153.947 354.204 153.791 354.486 153.479C354.777 153.156 354.923 152.749 354.923 152.26V149.104H355.829V154.619H354.97V153.744H354.954C354.746 154.098 354.491 154.354 354.189 154.51C353.887 154.666 353.543 154.744 353.157 154.744C352.512 154.744 352.032 154.583 351.72 154.26C351.418 153.927 351.267 153.432 351.267 152.776V149.104H352.173ZM359.475 148.979C360.266 148.979 360.881 149.265 361.318 149.838C361.756 150.411 361.975 151.14 361.975 152.026V152.135H357.85V152.197C357.85 152.729 358.001 153.156 358.303 153.479C358.615 153.791 359.037 153.947 359.568 153.947C359.964 153.947 360.282 153.854 360.521 153.666C360.761 153.479 360.917 153.213 360.99 152.869H361.881C361.766 153.484 361.501 153.953 361.084 154.276C360.667 154.588 360.152 154.744 359.537 154.744C358.954 154.744 358.459 154.614 358.053 154.354C357.657 154.093 357.365 153.729 357.178 153.26C356.99 152.791 356.896 152.317 356.896 151.838C356.896 151.026 357.141 150.348 357.631 149.807C358.12 149.255 358.735 148.979 359.475 148.979ZM357.85 151.338H361.006C360.985 150.89 360.824 150.52 360.521 150.229C360.23 149.927 359.86 149.776 359.412 149.776C358.995 149.776 358.641 149.916 358.35 150.197C358.058 150.479 357.891 150.859 357.85 151.338ZM364.745 148.979C365.485 148.979 366.032 149.124 366.386 149.416C366.75 149.708 366.953 150.14 366.995 150.713H366.089V150.697C366.058 150.406 365.927 150.182 365.698 150.026C365.469 149.859 365.172 149.776 364.808 149.776C364.443 149.776 364.157 149.838 363.948 149.963C363.74 150.088 363.636 150.26 363.636 150.479C363.636 150.687 363.729 150.854 363.917 150.979C364.104 151.104 364.386 151.208 364.761 151.291L365.604 151.479C366.136 151.604 366.542 151.786 366.823 152.026C367.104 152.265 367.245 152.593 367.245 153.01C367.245 153.552 367.032 153.979 366.604 154.291C366.188 154.593 365.62 154.744 364.901 154.744C364.193 154.744 363.63 154.588 363.214 154.276C362.808 153.963 362.589 153.499 362.558 152.885H363.464C363.474 153.229 363.61 153.494 363.87 153.682C364.13 153.859 364.49 153.947 364.948 153.947C365.386 153.947 365.714 153.88 365.933 153.744C366.162 153.598 366.276 153.39 366.276 153.119C366.276 152.88 366.162 152.687 365.933 152.541C365.714 152.395 365.261 152.255 364.573 152.119C363.875 151.984 363.386 151.791 363.104 151.541C362.823 151.291 362.683 150.963 362.683 150.557C362.683 150.067 362.875 149.682 363.261 149.401C363.657 149.119 364.151 148.979 364.745 148.979ZM369.495 147.463V149.104H370.589V149.916H369.495V153.354C369.495 153.635 369.584 153.786 369.761 153.807C369.948 153.817 370.141 153.822 370.339 153.822H370.589V154.619H369.854C369.354 154.619 369.016 154.531 368.839 154.354C368.672 154.177 368.589 153.88 368.589 153.463V149.916H367.651V149.104H368.589V147.463H369.495ZM373.429 148.979C374.169 148.979 374.716 149.124 375.07 149.416C375.434 149.708 375.638 150.14 375.679 150.713H374.773V150.697C374.742 150.406 374.612 150.182 374.382 150.026C374.153 149.859 373.856 149.776 373.492 149.776C373.127 149.776 372.841 149.838 372.632 149.963C372.424 150.088 372.32 150.26 372.32 150.479C372.32 150.687 372.414 150.854 372.601 150.979C372.789 151.104 373.07 151.208 373.445 151.291L374.289 151.479C374.82 151.604 375.226 151.786 375.507 152.026C375.789 152.265 375.929 152.593 375.929 153.01C375.929 153.552 375.716 153.979 375.289 154.291C374.872 154.593 374.304 154.744 373.586 154.744C372.877 154.744 372.315 154.588 371.898 154.276C371.492 153.963 371.273 153.499 371.242 152.885H372.148C372.158 153.229 372.294 153.494 372.554 153.682C372.815 153.859 373.174 153.947 373.632 153.947C374.07 153.947 374.398 153.88 374.617 153.744C374.846 153.598 374.961 153.39 374.961 153.119C374.961 152.88 374.846 152.687 374.617 152.541C374.398 152.395 373.945 152.255 373.257 152.119C372.559 151.984 372.07 151.791 371.789 151.541C371.507 151.291 371.367 150.963 371.367 150.557C371.367 150.067 371.559 149.682 371.945 149.401C372.341 149.119 372.836 148.979 373.429 148.979Z" fill="#595959"/>
<path fill-rule="evenodd" clip-rule="evenodd" d="M700.551 144.214H758.504V158.86H700.551V144.214Z" fill="white"/>
<path d="M708.714 147.01C709.38 147.01 709.922 147.187 710.339 147.541C710.766 147.885 710.979 148.374 710.979 149.01C710.979 149.51 710.87 149.927 710.651 150.26C710.432 150.583 710.104 150.807 709.667 150.932V150.947C710.052 151.031 710.334 151.213 710.511 151.494C710.698 151.776 710.802 152.26 710.823 152.947C710.844 153.385 710.886 153.734 710.948 153.994C711.021 154.244 711.12 154.453 711.245 154.619H710.12C710.057 154.536 710.016 154.453 709.995 154.369C709.974 154.286 709.959 154.177 709.948 154.041L709.901 153.197C709.891 152.802 709.807 152.406 709.651 152.01C709.495 151.604 709.146 151.39 708.604 151.369H706.104V154.619H705.089V147.01H708.714ZM708.261 150.526C708.823 150.526 709.25 150.416 709.542 150.197C709.834 149.968 709.979 149.624 709.979 149.166C709.979 148.749 709.86 148.432 709.62 148.213C709.391 147.984 709.068 147.869 708.651 147.869H706.104V150.526H708.261ZM714.529 148.979C715.321 148.979 715.936 149.265 716.373 149.838C716.811 150.411 717.029 151.14 717.029 152.026V152.135H712.904V152.197C712.904 152.729 713.056 153.156 713.358 153.479C713.67 153.791 714.092 153.947 714.623 153.947C715.019 153.947 715.337 153.854 715.576 153.666C715.816 153.479 715.972 153.213 716.045 152.869H716.936C716.821 153.484 716.556 153.953 716.139 154.276C715.722 154.588 715.207 154.744 714.592 154.744C714.009 154.744 713.514 154.614 713.108 154.354C712.712 154.093 712.42 153.729 712.233 153.26C712.045 152.791 711.951 152.317 711.951 151.838C711.951 151.026 712.196 150.348 712.686 149.807C713.175 149.255 713.79 148.979 714.529 148.979ZM712.904 151.338H716.061C716.04 150.89 715.878 150.52 715.576 150.229C715.285 149.927 714.915 149.776 714.467 149.776C714.05 149.776 713.696 149.916 713.404 150.197C713.113 150.479 712.946 150.859 712.904 151.338ZM719.8 148.979C720.54 148.979 721.086 149.124 721.441 149.416C721.805 149.708 722.008 150.14 722.05 150.713H721.144V150.697C721.112 150.406 720.982 150.182 720.753 150.026C720.524 149.859 720.227 149.776 719.862 149.776C719.498 149.776 719.211 149.838 719.003 149.963C718.795 150.088 718.691 150.26 718.691 150.479C718.691 150.687 718.784 150.854 718.972 150.979C719.159 151.104 719.441 151.208 719.816 151.291L720.659 151.479C721.191 151.604 721.597 151.786 721.878 152.026C722.159 152.265 722.3 152.593 722.3 153.01C722.3 153.552 722.086 153.979 721.659 154.291C721.243 154.593 720.675 154.744 719.956 154.744C719.248 154.744 718.685 154.588 718.269 154.276C717.862 153.963 717.644 153.499 717.612 152.885H718.519C718.529 153.229 718.665 153.494 718.925 153.682C719.185 153.859 719.545 153.947 720.003 153.947C720.441 153.947 720.769 153.88 720.987 153.744C721.217 153.598 721.331 153.39 721.331 153.119C721.331 152.88 721.217 152.687 720.987 152.541C720.769 152.395 720.316 152.255 719.628 152.119C718.93 151.984 718.441 151.791 718.159 151.541C717.878 151.291 717.737 150.963 717.737 150.557C717.737 150.067 717.93 149.682 718.316 149.401C718.711 149.119 719.206 148.979 719.8 148.979ZM725.675 148.979C726.508 148.979 727.159 149.249 727.628 149.791C728.107 150.333 728.347 151.026 728.347 151.869C728.347 152.723 728.102 153.416 727.612 153.947C727.133 154.479 726.487 154.744 725.675 154.744C724.873 154.744 724.227 154.484 723.737 153.963C723.248 153.442 723.003 152.744 723.003 151.869C723.003 150.994 723.243 150.296 723.722 149.776C724.201 149.244 724.852 148.979 725.675 148.979ZM723.956 151.869C723.956 152.505 724.118 153.01 724.441 153.385C724.763 153.76 725.175 153.947 725.675 153.947C726.165 153.947 726.571 153.76 726.894 153.385C727.227 152.999 727.394 152.494 727.394 151.869C727.394 151.244 727.232 150.739 726.909 150.354C726.586 149.968 726.17 149.776 725.659 149.776C725.18 149.776 724.774 149.968 724.441 150.354C724.118 150.729 723.956 151.234 723.956 151.869ZM730.372 147.01V154.619H729.466V147.01H730.372ZM732.693 149.104V152.869C732.693 153.182 732.792 153.442 732.99 153.651C733.187 153.848 733.458 153.947 733.802 153.947C734.323 153.947 734.724 153.791 735.005 153.479C735.297 153.156 735.443 152.749 735.443 152.26V149.104H736.349V154.619H735.49V153.744H735.474C735.266 154.098 735.01 154.354 734.708 154.51C734.406 154.666 734.062 154.744 733.677 154.744C733.031 154.744 732.552 154.583 732.24 154.26C731.937 153.927 731.786 153.432 731.786 152.776V149.104H732.693ZM738.963 147.463V149.104H740.057V149.916H738.963V153.354C738.963 153.635 739.051 153.786 739.229 153.807C739.416 153.817 739.609 153.822 739.807 153.822H740.057V154.619H739.322C738.822 154.619 738.484 154.531 738.307 154.354C738.14 154.177 738.057 153.88 738.057 153.463V149.916H737.119V149.104H738.057V147.463H738.963ZM742.022 147.01V148.119H741.116V147.01H742.022ZM742.022 149.104V154.619H741.116V149.104H742.022ZM745.812 148.979C746.645 148.979 747.296 149.249 747.765 149.791C748.244 150.333 748.483 151.026 748.483 151.869C748.483 152.723 748.239 153.416 747.749 153.947C747.27 154.479 746.624 154.744 745.812 154.744C745.009 154.744 744.364 154.484 743.874 153.963C743.384 153.442 743.14 152.744 743.14 151.869C743.14 150.994 743.379 150.296 743.858 149.776C744.338 149.244 744.989 148.979 745.812 148.979ZM744.093 151.869C744.093 152.505 744.254 153.01 744.577 153.385C744.9 153.76 745.312 153.947 745.812 153.947C746.301 153.947 746.707 153.76 747.03 153.385C747.364 152.999 747.53 152.494 747.53 151.869C747.53 151.244 747.369 150.739 747.046 150.354C746.723 149.968 746.306 149.776 745.796 149.776C745.317 149.776 744.91 149.968 744.577 150.354C744.254 150.729 744.093 151.234 744.093 151.869ZM752.212 148.979C752.878 148.979 753.363 149.151 753.665 149.494C753.967 149.838 754.118 150.322 754.118 150.947V154.619H753.212V150.854C753.212 150.541 753.108 150.286 752.899 150.088C752.701 149.88 752.425 149.776 752.071 149.776C751.571 149.776 751.175 149.937 750.884 150.26C750.602 150.572 750.462 150.979 750.462 151.479V154.619H749.556V149.104H750.399V149.979H750.431C750.628 149.635 750.873 149.385 751.165 149.229C751.457 149.062 751.806 148.979 752.212 148.979Z" fill="#595959"/>
</g>
</g>
<defs>
<clipPath id="clip0_8_1940">
<rect width="899.528" height="460.724" fill="white" transform="translate(0 0.5)"/>
</clipPath>
</defs>
</svg>
