<svg version="1.1" viewBox="0.0 0.0 899.5275590551181 460.7244094488189" fill="none" stroke="none" stroke-linecap="square" stroke-miterlimit="10" xmlns:xlink="http://www.w3.org/1999/xlink" xmlns="http://www.w3.org/2000/svg"><clipPath id="p.0"><path d="m0 0l899.5276 0l0 460.7244l-899.5276 0l0 -460.7244z" clip-rule="nonzero"/></clipPath><g clip-path="url(#p.0)"><path fill="#000000" fill-opacity="0.0" d="m0 0l899.5276 0l0 460.7244l-899.5276 0z" fill-rule="evenodd"/><path fill="#000000" fill-opacity="0.0" d="m53.35958 321.67484l0 0c0 -8.193115 6.6418304 -14.83493 14.834938 -14.83493l788.3459 0c3.9344482 0 7.7077637 1.5629578 10.489868 4.3450317c2.7821045 2.7821045 4.3450317 6.55542 4.3450317 10.489899l0 59.337982c0 8.193115 -6.6417847 14.834961 -14.8349 14.834961l-788.3459 0c-8.193108 0 -14.834938 -6.6418457 -14.834938 -14.834961z" fill-rule="evenodd"/><path stroke="#ef4a82" stroke-width="2.0" stroke-linejoin="round" stroke-linecap="butt" stroke-dasharray="8.0,6.0" d="m53.35958 321.67484l0 0c0 -8.193115 6.6418304 -14.83493 14.834938 -14.83493l788.3459 0c3.9344482 0 7.7077637 1.5629578 10.489868 4.3450317c2.7821045 2.7821045 4.3450317 6.55542 4.3450317 10.489899l0 59.337982c0 8.193115 -6.6417847 14.834961 -14.8349 14.834961l-788.3459 0c-8.193108 0 -14.834938 -6.6418457 -14.834938 -14.834961z" fill-rule="evenodd"/><path fill="#000000" fill-opacity="0.0" d="m343.00525 57.278397l0 0c0 -4.9750137 4.0330505 -9.008057 9.008057 -9.008057l220.5351 0c2.389038 0 4.680298 0.94906235 6.369629 2.638401c1.689331 1.6893349 2.6384277 3.9805717 2.6384277 6.3696556l0 36.031136c0 4.975006 -4.033081 9.008057 -9.008057 9.008057l-220.5351 0c-4.975006 0 -9.008057 -4.0330505 -9.008057 -9.008057z" fill-rule="evenodd"/><path stroke="#ef4a82" stroke-width="2.0" stroke-linejoin="round" stroke-linecap="butt" d="m343.00525 57.278397l0 0c0 -4.9750137 4.0330505 -9.008057 9.008057 -9.008057l220.5351 0c2.389038 0 4.680298 0.94906235 6.369629 2.638401c1.689331 1.6893349 2.6384277 3.9805717 2.6384277 6.3696556l0 36.031136c0 4.975006 -4.033081 9.008057 -9.008057 9.008057l-220.5351 0c-4.975006 0 -9.008057 -4.0330505 -9.008057 -9.008057z" fill-rule="evenodd"/><path fill="#ffffff" d="m453.54648 69.732086l0 1.28125l-5.984375 0l0 3.625l5.25 0l0 1.28125l-5.25 0l0 5.234375l-1.515625 0l0 -11.421875l7.5 0zm2.90625 0l0 11.421875l-1.359375 0l0 -11.421875l1.359375 0zm5.4921875 2.953125q1.6875 0 2.390625 0.609375q0.71875 0.59375 0.71875 1.609375q0 4.296875 0 4.765625q0 0.46875 0.421875 0.46875q0.09375 0 0.203125 -0.015625q0.109375 -0.03125 0.21875 -0.0625l0 1.0625q-0.1875 0.109375 -0.4375 0.171875q-0.25 0.0625 -0.53125 0.0625q-0.5625 0 -0.859375 -0.3125q-0.296875 -0.328125 -0.296875 -0.984375q-0.546875 0.640625 -1.28125 0.96875q-0.734375 0.328125 -1.640625 0.328125q-1.28125 0 -2.015625 -0.609375q-0.71875 -0.609375 -0.71875 -1.71875q0 -1.125 0.703125 -1.765625q0.71875 -0.65625 3.359375 -0.984375q0.890625 -0.125 1.203125 -0.34375q0.3125 -0.234375 0.3125 -0.6875q0 -0.6875 -0.4375 -1.015625q-0.4375 -0.34375 -1.40625 -0.34375q-1.0 0 -1.515625 0.390625q-0.5 0.375 -0.53125 1.171875l-1.359375 0q0.0625 -1.375 0.96875 -2.0625q0.90625 -0.703125 2.53125 -0.703125zm-2.390625 6.234375q0 0.578125 0.421875 0.90625q0.421875 0.3125 1.1875 0.3125q1.140625 0 1.828125 -0.5625q0.6875 -0.578125 0.6875 -1.28125l0 -1.421875q-0.34375 0.25 -0.890625 0.34375q-0.546875 0.078125 -1.453125 0.203125q-0.90625 0.125 -1.34375 0.484375q-0.4375 0.359375 -0.4375 1.015625zm11.71875 -6.234375q0.046875 0 0.078125 0q0.046875 0 0.109375 0l0 1.4375q-1.53125 0 -2.265625 0.8125q-0.71875 0.8125 -0.71875 2.515625l0 3.703125l-1.359375 0l0 -8.28125l1.28125 0l0 1.75l0.03125 0q0.46875 -0.984375 1.171875 -1.453125q0.703125 -0.484375 1.671875 -0.484375zm4.3671875 0q1.78125 0 2.765625 1.28125q0.984375 1.28125 0.984375 3.296875l0 0.15625l-6.203125 0l0 0.109375q0 1.171875 0.6875 1.890625q0.6875 0.71875 1.890625 0.71875q0.90625 0 1.4375 -0.421875q0.546875 -0.421875 0.703125 -1.1875l1.34375 0q-0.265625 1.375 -1.203125 2.109375q-0.921875 0.71875 -2.328125 0.71875q-1.296875 0 -2.203125 -0.59375q-0.90625 -0.59375 -1.34375 -1.640625q-0.421875 -1.0625 -0.421875 -2.15625q0 -1.828125 1.09375 -3.046875q1.109375 -1.234375 2.796875 -1.234375zm-2.453125 3.53125l4.75 0q-0.0625 -1.0 -0.734375 -1.65625q-0.65625 -0.671875 -1.65625 -0.671875q-0.9375 0 -1.609375 0.640625q-0.65625 0.625 -0.75 1.6875z" fill-rule="nonzero"/><path fill="#000000" fill-opacity="0.0" d="m76.79002 220.7902l0 0c0 -4.975006 4.033043 -9.008057 9.008057 -9.008057l166.48782 0c2.3890839 0 4.680313 0.94906616 6.3696747 2.6383972c1.689331 1.6893463 2.6383972 3.9805756 2.6383972 6.3696594l0 36.031143c0 4.975006 -4.0330505 9.008057 -9.008072 9.008057l-166.48782 0c-4.9750137 0 -9.008057 -4.0330505 -9.008057 -9.008057z" fill-rule="evenodd"/><path stroke="#ef4a82" stroke-width="2.0" stroke-linejoin="round" stroke-linecap="butt" d="m76.79002 220.7902l0 0c0 -4.975006 4.033043 -9.008057 9.008057 -9.008057l166.48782 0c2.3890839 0 4.680313 0.94906616 6.3696747 2.6383972c1.689331 1.6893463 2.6383972 3.9805756 2.6383972 6.3696594l0 36.031143c0 4.975006 -4.0330505 9.008057 -9.008072 9.008057l-166.48782 0c-4.9750137 0 -9.008057 -4.0330505 -9.008057 -9.008057z" fill-rule="evenodd"/><path fill="#ffffff" d="m141.75293 233.2439q2.59375 0 3.984375 1.375q1.40625 1.375 1.40625 4.0625q0 3.015625 -1.390625 4.5q-1.375 1.484375 -4.0 1.484375l-4.015625 0l0 -11.421875l4.015625 0zm0.09375 10.140625q1.703125 0 2.734375 -1.109375q1.046875 -1.125 1.046875 -3.390625q0 -2.265625 -0.953125 -3.3125q-0.9375 -1.046875 -2.78125 -1.046875l-2.640625 0l0 8.859375l2.59375 0zm11.5546875 -10.140625l4.46875 11.421875l-1.6875 0l-1.234375 -3.4375l-4.84375 0l-1.28125 3.4375l-1.5625 0l4.46875 -11.421875l1.671875 0zm-0.875 1.375l-1.9375 5.328125l3.875 0l-1.90625 -5.328125l-0.03125 0zm12.421875 -1.375l0 10.140625l6.046875 0l0 1.28125l-7.5625 0l0 -11.421875l1.515625 0zm10.5390625 2.953125q1.6875 0 2.390625 0.609375q0.71875 0.59375 0.71875 1.609375q0 4.296875 0 4.765625q0 0.46875 0.421875 0.46875q0.09375 0 0.203125 -0.015625q0.109375 -0.03125 0.21875 -0.0625l0 1.0625q-0.1875 0.109375 -0.4375 0.171875q-0.25 0.0625 -0.53125 0.0625q-0.5625 0 -0.859375 -0.3125q-0.296875 -0.328125 -0.296875 -0.984375q-0.546875 0.640625 -1.28125 0.96875q-0.734375 0.328125 -1.640625 0.328125q-1.28125 0 -2.015625 -0.609375q-0.71875 -0.609375 -0.71875 -1.71875q0 -1.125 0.703125 -1.765625q0.71875 -0.65625 3.359375 -0.984375q0.890625 -0.125 1.203125 -0.34375q0.3125 -0.234375 0.3125 -0.6875q0 -0.6875 -0.4375 -1.015625q-0.4375 -0.34375 -1.40625 -0.34375q-1.0 0 -1.515625 0.390625q-0.5 0.375 -0.53125 1.171875l-1.359375 0q0.0625 -1.375 0.96875 -2.0625q0.90625 -0.703125 2.53125 -0.703125zm-2.390625 6.234375q0 0.578125 0.421875 0.90625q0.421875 0.3125 1.1875 0.3125q1.140625 0 1.828125 -0.5625q0.6875 -0.578125 0.6875 -1.28125l0 -1.421875q-0.34375 0.25 -0.890625 0.34375q-0.546875 0.078125 -1.453125 0.203125q-0.90625 0.125 -1.34375 0.484375q-0.4375 0.359375 -0.4375 1.015625zm8.25 -6.046875l2.40625 6.765625l0.03125 0l2.328125 -6.765625l1.4375 0l-3.515625 9.171875q-0.546875 1.421875 -1.0625 1.921875q-0.515625 0.5 -1.421875 0.5q-0.25 0 -0.484375 -0.03125q-0.234375 -0.03125 -0.453125 -0.109375l0 -1.25q0.1875 0.0625 0.390625 0.125q0.203125 0.0625 0.40625 0.0625q0.828125 0 1.15625 -0.828125q0.328125 -0.828125 0.515625 -1.328125l-3.28125 -8.234375l1.546875 0zm10.796875 -0.1875q1.78125 0 2.765625 1.28125q0.984375 1.28125 0.984375 3.296875l0 0.15625l-6.203125 0l0 0.109375q0 1.171875 0.6875 1.890625q0.6875 0.71875 1.890625 0.71875q0.90625 0 1.4375 -0.421875q0.546875 -0.421875 0.703125 -1.1875l1.34375 0q-0.265625 1.375 -1.203125 2.109375q-0.921875 0.71875 -2.328125 0.71875q-1.296875 0 -2.203125 -0.59375q-0.90625 -0.59375 -1.34375 -1.640625q-0.421875 -1.0625 -0.421875 -2.15625q0 -1.828125 1.09375 -3.046875q1.109375 -1.234375 2.796875 -1.234375zm-2.453125 3.53125l4.75 0q-0.0625 -1.0 -0.734375 -1.65625q-0.65625 -0.671875 -1.65625 -0.671875q-0.9375 0 -1.609375 0.640625q-0.65625 0.625 -0.75 1.6875zm11.71875 -3.53125q0.046875 0 0.078125 0q0.046875 0 0.109375 0l0 1.4375q-1.53125 0 -2.265625 0.8125q-0.71875 0.8125 -0.71875 2.515625l0 3.703125l-1.359375 0l0 -8.28125l1.28125 0l0 1.75l0.03125 0q0.46875 -0.984375 1.171875 -1.453125q0.703125 -0.484375 1.671875 -0.484375z" fill-rule="nonzero"/><path fill="#000000" fill-opacity="0.0" d="m343.00525 220.7902l0 0c0 -4.975006 4.0330505 -9.008057 9.008057 -9.008057l220.5351 0c2.389038 0 4.680298 0.94906616 6.369629 2.6383972c1.689331 1.6893463 2.6384277 3.9805756 2.6384277 6.3696594l0 36.031143c0 4.975006 -4.033081 9.008057 -9.008057 9.008057l-220.5351 0c-4.975006 0 -9.008057 -4.0330505 -9.008057 -9.008057z" fill-rule="evenodd"/><path stroke="#ef4a82" stroke-width="2.0" stroke-linejoin="round" stroke-linecap="butt" d="m343.00525 220.7902l0 0c0 -4.975006 4.0330505 -9.008057 9.008057 -9.008057l220.5351 0c2.389038 0 4.680298 0.94906616 6.369629 2.6383972c1.689331 1.6893463 2.6384277 3.9805756 2.6384277 6.3696594l0 36.031143c0 4.975006 -4.033081 9.008057 -9.008057 9.008057l-220.5351 0c-4.975006 0 -9.008057 -4.0330505 -9.008057 -9.008057z" fill-rule="evenodd"/><path fill="#ffffff" d="m391.45273 233.2439l0 1.28125l-5.984375 0l0 3.625l5.25 0l0 1.28125l-5.25 0l0 5.234375l-1.515625 0l0 -11.421875l7.5 0zm5.703125 0q2.59375 0 3.984375 1.375q1.40625 1.375 1.40625 4.0625q0 3.015625 -1.390625 4.5q-1.375 1.484375 -4.0 1.484375l-4.015625 0l0 -11.421875l4.015625 0zm0.09375 10.140625q1.703125 0 2.734375 -1.109375q1.046875 -1.125 1.046875 -3.390625q0 -2.265625 -0.953125 -3.3125q-0.9375 -1.046875 -2.78125 -1.046875l-2.640625 0l0 8.859375l2.59375 0zm12.0 -10.421875q1.90625 0 3.171875 0.984375q1.28125 0.984375 1.53125 2.734375l-1.515625 0q-0.25 -1.171875 -1.09375 -1.796875q-0.84375 -0.640625 -2.109375 -0.640625q-1.8125 0 -2.84375 1.28125q-1.015625 1.28125 -1.015625 3.34375q0 2.1875 1.0 3.484375q1.015625 1.296875 2.875 1.296875q1.40625 0 2.296875 -0.875q0.890625 -0.890625 1.0 -2.421875l1.53125 0q-0.25 2.21875 -1.546875 3.40625q-1.296875 1.1875 -3.40625 1.1875q-2.453125 0 -3.875 -1.625q-1.40625 -1.640625 -1.40625 -4.34375q0 -2.65625 1.453125 -4.328125q1.46875 -1.6875 3.953125 -1.6875zm15.9375 0.28125l4.46875 11.421875l-1.6875 0l-1.234375 -3.4375l-4.84375 0l-1.28125 3.4375l-1.5625 0l4.46875 -11.421875l1.671875 0zm-0.875 1.375l-1.9375 5.328125l3.875 0l-1.90625 -5.328125l-0.03125 0zm8.0390625 -0.703125l0 2.46875l1.640625 0l0 1.203125l-1.640625 0l0 5.1875q0 0.609375 0.40625 0.65625q0.40625 0.03125 0.859375 0.03125l0.375 0l0 1.203125l-1.125 0q-1.109375 0 -1.5 -0.390625q-0.375 -0.40625 -0.375 -1.34375l0 -5.34375l-1.421875 0l0 -1.203125l1.421875 0l0 -2.46875l1.359375 0zm5.0390625 0l0 2.46875l1.640625 0l0 1.203125l-1.640625 0l0 5.1875q0 0.609375 0.40625 0.65625q0.40625 0.03125 0.859375 0.03125l0.375 0l0 1.203125l-1.125 0q-1.109375 0 -1.5 -0.390625q-0.375 -0.40625 -0.375 -1.34375l0 -5.34375l-1.421875 0l0 -1.203125l1.421875 0l0 -2.46875l1.359375 0zm6.390625 2.28125q1.78125 0 2.765625 1.28125q0.984375 1.28125 0.984375 3.296875l0 0.15625l-6.203125 0l0 0.109375q0 1.171875 0.6875 1.890625q0.6875 0.71875 1.890625 0.71875q0.90625 0 1.4375 -0.421875q0.546875 -0.421875 0.703125 -1.1875l1.34375 0q-0.265625 1.375 -1.203125 2.109375q-0.921875 0.71875 -2.328125 0.71875q-1.296875 0 -2.203125 -0.59375q-0.90625 -0.59375 -1.34375 -1.640625q-0.421875 -1.0625 -0.421875 -2.15625q0 -1.828125 1.09375 -3.046875q1.109375 -1.234375 2.796875 -1.234375zm-2.453125 3.53125l4.75 0q-0.0625 -1.0 -0.734375 -1.65625q-0.65625 -0.671875 -1.65625 -0.671875q-0.9375 0 -1.609375 0.640625q-0.65625 0.625 -0.75 1.6875zm10.359375 -3.53125q1.671875 0 2.484375 0.65625q0.8125 0.640625 0.890625 1.9375l-1.359375 0l0 -0.015625q-0.0625 -0.65625 -0.578125 -1.015625q-0.515625 -0.359375 -1.34375 -0.359375q-0.8125 0 -1.296875 0.28125q-0.46875 0.265625 -0.46875 0.765625q0 0.453125 0.421875 0.75q0.421875 0.28125 1.265625 0.46875l1.28125 0.28125q1.203125 0.265625 1.828125 0.828125q0.625 0.546875 0.625 1.46875q0 1.21875 -0.953125 1.921875q-0.9375 0.703125 -2.578125 0.703125q-1.578125 0 -2.515625 -0.71875q-0.921875 -0.71875 -0.984375 -2.09375l1.359375 0q0.03125 0.765625 0.609375 1.1875q0.59375 0.40625 1.609375 0.40625q0.984375 0 1.484375 -0.3125q0.515625 -0.3125 0.515625 -0.921875q0 -0.546875 -0.5 -0.875q-0.5 -0.328125 -2.0625 -0.640625q-1.5625 -0.296875 -2.203125 -0.859375q-0.640625 -0.5625 -0.640625 -1.484375q0 -1.09375 0.875 -1.71875q0.890625 -0.640625 2.234375 -0.640625zm7.140625 -2.28125l0 2.46875l1.640625 0l0 1.203125l-1.640625 0l0 5.1875q0 0.609375 0.40625 0.65625q0.40625 0.03125 0.859375 0.03125l0.375 0l0 1.203125l-1.125 0q-1.109375 0 -1.5 -0.390625q-0.375 -0.40625 -0.375 -1.34375l0 -5.34375l-1.421875 0l0 -1.203125l1.421875 0l0 -2.46875l1.359375 0zm6.5234375 2.28125q1.6875 0 2.390625 0.609375q0.71875 0.59375 0.71875 1.609375q0 4.296875 0 4.765625q0 0.46875 0.421875 0.46875q0.09375 0 0.203125 -0.015625q0.109375 -0.03125 0.21875 -0.0625l0 1.0625q-0.1875 0.109375 -0.4375 0.171875q-0.25 0.0625 -0.53125 0.0625q-0.5625 0 -0.859375 -0.3125q-0.296875 -0.328125 -0.296875 -0.984375q-0.546875 0.640625 -1.28125 0.96875q-0.734375 0.328125 -1.640625 0.328125q-1.28125 0 -2.015625 -0.609375q-0.71875 -0.609375 -0.71875 -1.71875q0 -1.125 0.703125 -1.765625q0.71875 -0.65625 3.359375 -0.984375q0.890625 -0.125 1.203125 -0.34375q0.3125 -0.234375 0.3125 -0.6875q0 -0.6875 -0.4375 -1.015625q-0.4375 -0.34375 -1.40625 -0.34375q-1.0 0 -1.515625 0.390625q-0.5 0.375 -0.53125 1.171875l-1.359375 0q0.0625 -1.375 0.96875 -2.0625q0.90625 -0.703125 2.53125 -0.703125zm-2.390625 6.234375q0 0.578125 0.421875 0.90625q0.421875 0.3125 1.1875 0.3125q1.140625 0 1.828125 -0.5625q0.6875 -0.578125 0.6875 -1.28125l0 -1.421875q-0.34375 0.25 -0.890625 0.34375q-0.546875 0.078125 -1.453125 0.203125q-0.90625 0.125 -1.34375 0.484375q-0.4375 0.359375 -0.4375 1.015625zm9.5 -8.515625l0 2.46875l1.640625 0l0 1.203125l-1.640625 0l0 5.1875q0 0.609375 0.40625 0.65625q0.40625 0.03125 0.859375 0.03125l0.375 0l0 1.203125l-1.125 0q-1.109375 0 -1.5 -0.390625q-0.375 -0.40625 -0.375 -1.34375l0 -5.34375l-1.421875 0l0 -1.203125l1.421875 0l0 -2.46875l1.359375 0zm4.5859375 -0.671875l0 1.65625l-1.359375 0l0 -1.65625l1.359375 0zm0 3.140625l0 8.28125l-1.359375 0l0 -8.28125l1.359375 0zm5.6796875 -0.1875q1.875 0 2.9375 1.21875q1.078125 1.203125 1.078125 3.125q0 1.921875 -1.09375 3.125q-1.09375 1.203125 -2.921875 1.203125q-1.796875 0 -2.90625 -1.171875q-1.109375 -1.1875 -1.109375 -3.15625q0 -1.96875 1.078125 -3.15625q1.09375 -1.1875 2.9375 -1.1875zm-2.578125 4.34375q0 1.421875 0.71875 2.265625q0.734375 0.84375 1.859375 0.84375q1.125 0 1.84375 -0.84375q0.734375 -0.859375 0.734375 -2.265625q0 -1.421875 -0.734375 -2.28125q-0.71875 -0.859375 -1.859375 -0.859375q-1.09375 0 -1.828125 0.84375q-0.734375 0.84375 -0.734375 2.296875zm12.203125 -4.34375q1.5 0 2.171875 0.765625q0.671875 0.765625 0.671875 2.1875l0 5.515625l-1.359375 0l0 -5.65625q0 -0.703125 -0.453125 -1.15625q-0.4375 -0.453125 -1.234375 -0.453125q-1.15625 0 -1.796875 0.703125q-0.640625 0.703125 -0.640625 1.828125l0 4.734375l-1.359375 0l0 -8.28125l1.28125 0l0 1.3125l0.03125 0q0.453125 -0.765625 1.109375 -1.125q0.65625 -0.375 1.578125 -0.375zm14.40625 -3.234375q1.90625 0 3.171875 0.984375q1.28125 0.984375 1.53125 2.734375l-1.515625 0q-0.25 -1.171875 -1.09375 -1.796875q-0.84375 -0.640625 -2.109375 -0.640625q-1.8125 0 -2.84375 1.28125q-1.015625 1.28125 -1.015625 3.34375q0 2.1875 1.0 3.484375q1.015625 1.296875 2.875 1.296875q1.40625 0 2.296875 -0.875q0.890625 -0.890625 1.0 -2.421875l1.53125 0q-0.25 2.21875 -1.546875 3.40625q-1.296875 1.1875 -3.40625 1.1875q-2.453125 0 -3.875 -1.625q-1.40625 -1.640625 -1.40625 -4.34375q0 -2.65625 1.453125 -4.328125q1.46875 -1.6875 3.953125 -1.6875zm7.929657 0.28125l0 11.421875l-1.359375 0l0 -11.421875l1.359375 0zm3.5546875 0l0 1.65625l-1.359375 0l0 -1.65625l1.359375 0zm0 3.140625l0 8.28125l-1.359375 0l0 -8.28125l1.359375 0zm5.5546875 -0.1875q1.78125 0 2.765625 1.28125q0.984375 1.28125 0.984375 3.296875l0 0.15625l-6.203125 0l0 0.109375q0 1.171875 0.6875 1.890625q0.6875 0.71875 1.890625 0.71875q0.90625 0 1.4375 -0.421875q0.546875 -0.421875 0.703125 -1.1875l1.34375 0q-0.265625 1.375 -1.203125 2.109375q-0.921875 0.71875 -2.328125 0.71875q-1.296875 0 -2.203125 -0.59375q-0.90625 -0.59375 -1.34375 -1.640625q-0.421875 -1.0625 -0.421875 -2.15625q0 -1.828125 1.09375 -3.046875q1.109375 -1.234375 2.796875 -1.234375zm-2.453125 3.53125l4.75 0q-0.0625 -1.0 -0.734375 -1.65625q-0.65625 -0.671875 -1.65625 -0.671875q-0.9375 0 -1.609375 0.640625q-0.65625 0.625 -0.75 1.6875zm11.609375 -3.53125q1.5 0 2.171875 0.765625q0.671875 0.765625 0.671875 2.1875l0 5.515625l-1.359375 0l0 -5.65625q0 -0.703125 -0.453125 -1.15625q-0.4375 -0.453125 -1.234375 -0.453125q-1.15625 0 -1.796875 0.703125q-0.640625 0.703125 -0.640625 1.828125l0 4.734375l-1.359375 0l0 -8.28125l1.28125 0l0 1.3125l0.03125 0q0.453125 -0.765625 1.109375 -1.125q0.65625 -0.375 1.578125 -0.375zm6.7890625 -2.28125l0 2.46875l1.640625 0l0 1.203125l-1.640625 0l0 5.1875q0 0.609375 0.40625 0.65625q0.40625 0.03125 0.859375 0.03125l0.375 0l0 1.203125l-1.125 0q-1.109375 0 -1.5 -0.390625q-0.375 -0.40625 -0.375 -1.34375l0 -5.34375l-1.421875 0l0 -1.203125l1.421875 0l0 -2.46875l1.359375 0z" fill-rule="nonzero"/><path fill="#000000" fill-opacity="0.0" d="m170.87927 333.13666l0 0c0 -4.975006 4.0330353 -9.008057 9.008041 -9.008057l97.44847 0c2.3890686 0 4.680298 0.94906616 6.3696594 2.6383972c1.689331 1.6893616 2.6383972 3.9805908 2.6383972 6.3696594l0 36.031128c0 4.9750366 -4.0330505 9.008057 -9.008057 9.008057l-97.44847 0c-4.975006 0 -9.008041 -4.03302 -9.008041 -9.008057z" fill-rule="evenodd"/><path stroke="#ef4a82" stroke-width="2.0" stroke-linejoin="round" stroke-linecap="butt" d="m170.87927 333.13666l0 0c0 -4.975006 4.0330353 -9.008057 9.008041 -9.008057l97.44847 0c2.3890686 0 4.680298 0.94906616 6.3696594 2.6383972c1.689331 1.6893616 2.6383972 3.9805908 2.6383972 6.3696594l0 36.031128c0 4.9750366 -4.0330505 9.008057 -9.008057 9.008057l-97.44847 0c-4.975006 0 -9.008041 -4.03302 -9.008041 -9.008057z" fill-rule="evenodd"/><path fill="#ffffff" d="m209.84201 345.59036q2.125 0 2.875 0.859375q0.765625 0.84375 0.765625 1.9375q0 0.90625 -0.453125 1.578125q-0.4375 0.65625 -1.25 0.984375l0 0.03125q1.0625 0.21875 1.625 0.953125q0.5625 0.734375 0.5625 1.796875q0 1.390625 -0.984375 2.34375q-0.96875 0.9375 -2.4375 0.9375l-5.578125 0l0 -11.421875l4.875 0zm-0.234375 4.90625q1.140625 0 1.75 -0.421875q0.609375 -0.4375 0.609375 -1.40625q0 -0.90625 -0.515625 -1.34375q-0.5 -0.453125 -1.828125 -0.453125l-3.140625 0l0 3.625l3.125 0zm0.75 5.234375q0.921875 0 1.5 -0.546875q0.578125 -0.5625 0.578125 -1.5q0 -0.96875 -0.65625 -1.4375q-0.65625 -0.46875 -1.875 -0.46875l-3.421875 0l0 3.953125l3.875 0zm6.7890625 -10.140625l0 1.65625l-1.359375 0l0 -1.65625l1.359375 0zm0 3.140625l0 8.28125l-1.359375 0l0 -8.28125l1.359375 0zm4.0078125 -2.46875l0 2.46875l1.640625 0l0 1.203125l-1.640625 0l0 5.1875q0 0.609375 0.40625 0.65625q0.40625 0.03125 0.859375 0.03125l0.375 0l0 1.203125l-1.125 0q-1.109375 0 -1.5 -0.390625q-0.375 -0.40625 -0.375 -1.34375l0 -5.34375l-1.421875 0l0 -1.203125l1.421875 0l0 -2.46875l1.359375 0zm6.6015625 2.28125q1.515625 0 2.453125 0.71875q0.953125 0.71875 1.109375 2.125l-1.40625 0q-0.15625 -0.796875 -0.703125 -1.21875q-0.53125 -0.421875 -1.34375 -0.421875q-1.265625 0 -1.921875 0.84375q-0.65625 0.84375 -0.65625 2.390625q0 1.375 0.640625 2.203125q0.65625 0.8125 1.78125 0.8125q0.984375 0 1.5625 -0.53125q0.578125 -0.53125 0.703125 -1.484375l1.390625 0q-0.21875 1.546875 -1.15625 2.390625q-0.9375 0.84375 -2.484375 0.84375q-1.8125 0 -2.84375 -1.140625q-1.03125 -1.140625 -1.03125 -3.09375q0 -2.03125 1.046875 -3.234375q1.046875 -1.203125 2.859375 -1.203125zm8.703125 0q1.8750153 0 2.9375153 1.21875q1.078125 1.203125 1.078125 3.125q0 1.921875 -1.09375 3.125q-1.09375 1.203125 -2.9218903 1.203125q-1.796875 0 -2.90625 -1.171875q-1.109375 -1.1875 -1.109375 -3.15625q0 -1.96875 1.078125 -3.15625q1.09375 -1.1875 2.9375 -1.1875zm-2.578125 4.34375q0 1.421875 0.71875 2.265625q0.734375 0.84375 1.859375 0.84375q1.1250153 0 1.8437653 -0.84375q0.734375 -0.859375 0.734375 -2.265625q0 -1.421875 -0.734375 -2.28125q-0.71875 -0.859375 -1.8593903 -0.859375q-1.09375 0 -1.828125 0.84375q-0.734375 0.84375 -0.734375 2.296875zm9.64064 -7.296875l0 1.65625l-1.359375 0l0 -1.65625l1.359375 0zm0 3.140625l0 8.28125l-1.359375 0l0 -8.28125l1.359375 0zm6.1171875 -0.1875q1.5 0 2.171875 0.765625q0.671875 0.765625 0.671875 2.1875l0 5.515625l-1.359375 0l0 -5.65625q0 -0.703125 -0.453125 -1.15625q-0.4375 -0.453125 -1.234375 -0.453125q-1.15625 0 -1.796875 0.703125q-0.640625 0.703125 -0.640625 1.828125l0 4.734375l-1.359375 0l0 -8.28125l1.28125 0l0 1.3125l0.03125 0q0.453125 -0.765625 1.109375 -1.125q0.65625 -0.375 1.578125 -0.375z" fill-rule="nonzero"/><path fill="#000000" fill-opacity="0.0" d="m314.87927 333.13666l0 0c0 -4.975006 4.0330505 -9.008057 9.008057 -9.008057l97.448456 0c2.3890686 0 4.680298 0.94906616 6.3696594 2.6383972c1.689331 1.6893616 2.6383972 3.9805908 2.6383972 6.3696594l0 36.031128c0 4.9750366 -4.0330505 9.008057 -9.008057 9.008057l-97.448456 0c-4.975006 0 -9.008057 -4.03302 -9.008057 -9.008057z" fill-rule="evenodd"/><path stroke="#ef4a82" stroke-width="2.0" stroke-linejoin="round" stroke-linecap="butt" d="m314.87927 333.13666l0 0c0 -4.975006 4.0330505 -9.008057 9.008057 -9.008057l97.448456 0c2.3890686 0 4.680298 0.94906616 6.3696594 2.6383972c1.689331 1.6893616 2.6383972 3.9805908 2.6383972 6.3696594l0 36.031128c0 4.9750366 -4.0330505 9.008057 -9.008057 9.008057l-97.448456 0c-4.975006 0 -9.008057 -4.03302 -9.008057 -9.008057z" fill-rule="evenodd"/><path fill="#ffffff" d="m354.6428 345.59036l2.859375 4.453125l2.96875 -4.453125l1.703125 0l-3.78125 5.546875l4.015625 5.875l-1.859375 0l-3.0625 -4.71875l-3.171875 4.71875l-1.71875 0l3.984375 -5.875l-3.75 -5.546875l1.8125 0zm14.4453125 0q1.484375 0 2.4375 0.796875q0.953125 0.78125 0.953125 2.1875q0 1.125 -0.5 1.875q-0.484375 0.734375 -1.484375 1.015625l0 0.03125q0.875 0.171875 1.28125 0.8125q0.40625 0.640625 0.46875 2.1875q0.046875 1.0 0.1875 1.578125q0.15625 0.5625 0.453125 0.9375l-1.703125 0q-0.140625 -0.1875 -0.1875 -0.375q-0.03125 -0.1875 -0.078125 -0.5l-0.0625 -1.265625q-0.015625 -0.875 -0.375 -1.78125q-0.359375 -0.921875 -1.5625 -0.96875l-3.765625 0l0 4.890625l-1.515625 0l0 -11.421875l5.453125 0zm-0.6875 5.265625q1.265625 0 1.90625 -0.5q0.65625 -0.5 0.65625 -1.546875q0 -0.921875 -0.515625 -1.421875q-0.515625 -0.515625 -1.453125 -0.515625l-3.84375 0l0 3.984375l3.25 0zm11.2734375 -5.265625q1.578125 0 2.5 0.859375q0.9375 0.84375 0.9375 2.515625q0 1.671875 -0.9375 2.53125q-0.921875 0.84375 -2.390625 0.84375l-3.671875 0l0 4.671875l-1.515625 0l0 -11.421875l5.078125 0zm-0.421875 5.46875q1.09375 0 1.71875 -0.515625q0.625 -0.515625 0.625 -1.578125q0 -1.0625 -0.625 -1.578125q-0.609375 -0.515625 -1.8125 -0.515625l-3.046875 0l0 4.1875l3.140625 0zm7.2265625 -5.46875l0 10.140625l6.046875 0l0 1.28125l-7.5625 0l0 -11.421875l1.515625 0z" fill-rule="nonzero"/><path fill="#000000" fill-opacity="0.0" d="m458.87927 333.13666l0 0c0 -4.975006 4.0330505 -9.008057 9.008057 -9.008057l97.448425 0c2.3890991 0 4.680359 0.94906616 6.36969 2.6383972c1.689331 1.6893616 2.6383667 3.9805908 2.6383667 6.3696594l0 36.031128c0 4.9750366 -4.03302 9.008057 -9.008057 9.008057l-97.448425 0c-4.975006 0 -9.008057 -4.03302 -9.008057 -9.008057z" fill-rule="evenodd"/><path stroke="#ef4a82" stroke-width="2.0" stroke-linejoin="round" stroke-linecap="butt" d="m458.87927 333.13666l0 0c0 -4.975006 4.0330505 -9.008057 9.008057 -9.008057l97.448425 0c2.3890991 0 4.680359 0.94906616 6.36969 2.6383972c1.689331 1.6893616 2.6383667 3.9805908 2.6383667 6.3696594l0 36.031128c0 4.9750366 -4.03302 9.008057 -9.008057 9.008057l-97.448425 0c-4.975006 0 -9.008057 -4.03302 -9.008057 -9.008057z" fill-rule="evenodd"/><path fill="#ffffff" d="m487.6428 345.59036q2.59375 0 3.984375 1.375q1.40625 1.375 1.40625 4.0625q0 3.015625 -1.390625 4.5q-1.375 1.484375 -4.0 1.484375l-4.015625 0l0 -11.421875l4.015625 0zm0.09375 10.140625q1.703125 0 2.734375 -1.109375q1.046875 -1.125 1.046875 -3.390625q0 -2.265625 -0.953125 -3.3125q-0.9375 -1.046875 -2.78125 -1.046875l-2.640625 0l0 8.859375l2.59375 0zm10.5 -7.1875q1.875 0 2.9375 1.21875q1.078125 1.203125 1.078125 3.125q0 1.921875 -1.09375 3.125q-1.09375 1.203125 -2.921875 1.203125q-1.796875 0 -2.90625 -1.171875q-1.109375 -1.1875 -1.109375 -3.15625q0 -1.96875 1.078125 -3.15625q1.09375 -1.1875 2.9375 -1.1875zm-2.578125 4.34375q0 1.421875 0.71875 2.265625q0.734375 0.84375 1.859375 0.84375q1.125 0 1.84375 -0.84375q0.734375 -0.859375 0.734375 -2.265625q0 -1.421875 -0.734375 -2.28125q-0.71875 -0.859375 -1.859375 -0.859375q-1.09375 0 -1.828125 0.84375q-0.734375 0.84375 -0.734375 2.296875zm11.5625 -4.34375q0.875 0 1.5 0.375q0.640625 0.375 0.984375 1.0l0.015625 0l0 -1.1875l1.265625 0l0 7.65625q0 1.953125 -0.9375 2.96875q-0.9375 1.015625 -2.890625 1.015625q-1.421875 0 -2.390625 -0.625q-0.96875 -0.625 -1.03125 -1.796875l1.359375 0q0.03125 0.625 0.671875 0.984375q0.640625 0.359375 1.46875 0.359375q1.203125 0 1.84375 -0.796875q0.640625 -0.796875 0.640625 -2.375l0 -0.515625l-0.03125 0q-0.328125 0.6875 -1.015625 1.09375q-0.6875 0.40625 -1.578125 0.40625q-1.671875 0 -2.6875 -1.15625q-1.0 -1.15625 -1.0 -3.03125q0 -1.90625 1.0 -3.140625q1.015625 -1.234375 2.8125 -1.234375zm-2.375 4.203125q0 1.484375 0.609375 2.328125q0.625 0.828125 1.734375 0.828125q1.125 0 1.78125 -0.859375q0.671875 -0.875 0.671875 -2.34375q0 -1.328125 -0.625 -2.140625q-0.609375 -0.8125 -1.734375 -0.8125q-1.140625 0 -1.796875 0.828125q-0.640625 0.8125 -0.640625 2.171875zm11.6406555 -4.203125q1.78125 0 2.765625 1.28125q0.984375 1.28125 0.984375 3.296875l0 0.15625l-6.203125 0l0 0.109375q0 1.171875 0.6875 1.890625q0.6875 0.71875 1.890625 0.71875q0.90625 0 1.4375 -0.421875q0.546875 -0.421875 0.703125 -1.1875l1.34375 0q-0.265625 1.375 -1.203125 2.109375q-0.921875 0.71875 -2.328125 0.71875q-1.296875 0 -2.203125 -0.59375q-0.90625 -0.59375 -1.34375 -1.640625q-0.421875 -1.0625 -0.421875 -2.15625q0 -1.828125 1.09375 -3.046875q1.109375 -1.234375 2.796875 -1.234375zm-2.453125 3.53125l4.75 0q-0.0625 -1.0 -0.734375 -1.65625q-0.65625 -0.671875 -1.65625 -0.671875q-0.9375 0 -1.609375 0.640625q-0.65625 0.625 -0.75 1.6875zm11.0625 -3.53125q1.515625 0 2.453125 0.71875q0.953125 0.71875 1.109375 2.125l-1.40625 0q-0.15625 -0.796875 -0.703125 -1.21875q-0.53125 -0.421875 -1.34375 -0.421875q-1.265625 0 -1.921875 0.84375q-0.65625 0.84375 -0.65625 2.390625q0 1.375 0.640625 2.203125q0.65625 0.8125 1.78125 0.8125q0.984375 0 1.5625 -0.53125q0.578125 -0.53125 0.703125 -1.484375l1.390625 0q-0.21875 1.546875 -1.15625 2.390625q-0.9375 0.84375 -2.484375 0.84375q-1.8125 0 -2.84375 -1.140625q-1.03125 -1.140625 -1.03125 -3.09375q0 -2.03125 1.046875 -3.234375q1.046875 -1.203125 2.859375 -1.203125zm8.703125 0q1.875 0 2.9375 1.21875q1.078125 1.203125 1.078125 3.125q0 1.921875 -1.09375 3.125q-1.09375 1.203125 -2.921875 1.203125q-1.796875 0 -2.90625 -1.171875q-1.109375 -1.1875 -1.109375 -3.15625q0 -1.96875 1.078125 -3.15625q1.09375 -1.1875 2.9375 -1.1875zm-2.578125 4.34375q0 1.421875 0.71875 2.265625q0.734375 0.84375 1.859375 0.84375q1.125 0 1.84375 -0.84375q0.734375 -0.859375 0.734375 -2.265625q0 -1.421875 -0.734375 -2.28125q-0.71875 -0.859375 -1.859375 -0.859375q-1.09375 0 -1.828125 0.84375q-0.734375 0.84375 -0.734375 2.296875zm9.640625 -7.296875l0 1.65625l-1.359375 0l0 -1.65625l1.359375 0zm0 3.140625l0 8.28125l-1.359375 0l0 -8.28125l1.359375 0zm6.1171875 -0.1875q1.5 0 2.171875 0.765625q0.671875 0.765625 0.671875 2.1875l0 5.515625l-1.359375 0l0 -5.65625q0 -0.703125 -0.453125 -1.15625q-0.4375 -0.453125 -1.234375 -0.453125q-1.15625 0 -1.796875 0.703125q-0.640625 0.703125 -0.640625 1.828125l0 4.734375l-1.359375 0l0 -8.28125l1.28125 0l0 1.3125l0.03125 0q0.453125 -0.765625 1.109375 -1.125q0.65625 -0.375 1.578125 -0.375z" fill-rule="nonzero"/><path fill="#000000" fill-opacity="0.0" d="m602.8793 333.13666l0 0c0 -4.975006 4.03302 -9.008057 9.008057 -9.008057l97.448425 0c2.3890991 0 4.680359 0.94906616 6.36969 2.6383972c1.689331 1.6893616 2.6383667 3.9805908 2.6383667 6.3696594l0 36.031128c0 4.9750366 -4.03302 9.008057 -9.008057 9.008057l-97.448425 0c-4.9750366 0 -9.008057 -4.03302 -9.008057 -9.008057z" fill-rule="evenodd"/><path stroke="#ef4a82" stroke-width="2.0" stroke-linejoin="round" stroke-linecap="butt" d="m602.8793 333.13666l0 0c0 -4.975006 4.03302 -9.008057 9.008057 -9.008057l97.448425 0c2.3890991 0 4.680359 0.94906616 6.36969 2.6383972c1.689331 1.6893616 2.6383667 3.9805908 2.6383667 6.3696594l0 36.031128c0 4.9750366 -4.03302 9.008057 -9.008057 9.008057l-97.448425 0c-4.9750366 0 -9.008057 -4.03302 -9.008057 -9.008057z" fill-rule="evenodd"/><path fill="#ffffff" d="m635.65454 345.59036l0 1.28125l-6.375 0l0 3.625l5.9375 0l0 1.28125l-5.9375 0l0 3.953125l6.421875 0l0 1.28125l-7.9375 0l0 -11.421875l7.890625 0zm3.265625 0.671875l0 2.46875l1.640625 0l0 1.203125l-1.640625 0l0 5.1875q0 0.609375 0.40625 0.65625q0.40625 0.03125 0.859375 0.03125l0.375 0l0 1.203125l-1.125 0q-1.109375 0 -1.5 -0.390625q-0.375 -0.40625 -0.375 -1.34375l0 -5.34375l-1.421875 0l0 -1.203125l1.421875 0l0 -2.46875l1.359375 0zm4.5078125 -0.671875l0 4.359375l0.03125 0q0.296875 -0.65625 1.0 -1.03125q0.71875 -0.375 1.609375 -0.375q1.5 0 2.171875 0.765625q0.671875 0.765625 0.671875 2.1875l0 5.515625l-1.359375 0l0 -5.65625q0 -0.703125 -0.453125 -1.15625q-0.4375 -0.453125 -1.234375 -0.453125q-1.15625 0 -1.796875 0.703125q-0.640625 0.703125 -0.640625 1.828125l0 4.734375l-1.359375 0l0 -11.421875l1.359375 0zm10.9765625 2.953125q1.78125 0 2.765625 1.28125q0.984375 1.28125 0.984375 3.296875l0 0.15625l-6.203125 0l0 0.109375q0 1.171875 0.6875 1.890625q0.6875 0.71875 1.890625 0.71875q0.90625 0 1.4375 -0.421875q0.546875 -0.421875 0.703125 -1.1875l1.34375 0q-0.265625 1.375 -1.203125 2.109375q-0.921875 0.71875 -2.328125 0.71875q-1.296875 0 -2.203125 -0.59375q-0.90625 -0.59375 -1.34375 -1.640625q-0.421875 -1.0625 -0.421875 -2.15625q0 -1.828125 1.09375 -3.046875q1.109375 -1.234375 2.796875 -1.234375zm-2.453125 3.53125l4.75 0q-0.0625 -1.0 -0.734375 -1.65625q-0.65625 -0.671875 -1.65625 -0.671875q-0.9375 0 -1.609375 0.640625q-0.65625 0.625 -0.75 1.6875zm11.71875 -3.53125q0.046875 0 0.078125 0q0.046875 0 0.109375 0l0 1.4375q-1.53125 0 -2.265625 0.8125q-0.71875 0.8125 -0.71875 2.515625l0 3.703125l-1.359375 0l0 -8.28125l1.28125 0l0 1.75l0.03125 0q0.46875 -0.984375 1.171875 -1.453125q0.703125 -0.484375 1.671875 -0.484375zm4.3671875 0q1.78125 0 2.765625 1.28125q0.984375 1.28125 0.984375 3.296875l0 0.15625l-6.203125 0l0 0.109375q0 1.171875 0.6875 1.890625q0.6875 0.71875 1.890625 0.71875q0.90625 0 1.4375 -0.421875q0.546875 -0.421875 0.703125 -1.1875l1.34375 0q-0.265625 1.375 -1.203125 2.109375q-0.921875 0.71875 -2.328125 0.71875q-1.296875 0 -2.203125 -0.59375q-0.90625 -0.59375 -1.34375 -1.640625q-0.421875 -1.0625 -0.421875 -2.15625q0 -1.828125 1.09375 -3.046875q1.109375 -1.234375 2.796875 -1.234375zm-2.453125 3.53125l4.75 0q-0.0625 -1.0 -0.734375 -1.65625q-0.65625 -0.671875 -1.65625 -0.671875q-0.9375 0 -1.609375 0.640625q-0.65625 0.625 -0.75 1.6875zm8.96875 -3.34375l0 5.640625q0 0.703125 0.4375 1.171875q0.453125 0.453125 1.25 0.453125q1.171875 0 1.796875 -0.703125q0.640625 -0.71875 0.640625 -1.828125l0 -4.734375l1.359375 0l0 8.28125l-1.28125 0l0 -1.3125l-0.03125 0q-0.453125 0.78125 -1.140625 1.15625q-0.671875 0.359375 -1.546875 0.359375q-1.453125 0 -2.15625 -0.75q-0.6875 -0.75 -0.6875 -2.21875l0 -5.515625l1.359375 0zm11.5234375 -0.1875q0.90625 0 1.46875 0.375q0.578125 0.359375 0.796875 1.03125q0.421875 -0.65625 1.09375 -1.03125q0.6875 -0.375 1.515625 -0.375q1.390625 0 2.0625 0.640625q0.671875 0.625 0.671875 1.703125l0 6.125l-1.359375 0l0 -5.484375q0 -0.890625 -0.375 -1.328125q-0.375 -0.453125 -1.21875 -0.453125q-1.015625 0 -1.59375 0.59375q-0.5625 0.59375 -0.5625 1.46875l0 5.203125l-1.375 0l0 -5.484375q0 -0.890625 -0.375 -1.328125q-0.375 -0.453125 -1.171875 -0.453125q-0.640625 0 -1.140625 0.3125q-0.5 0.3125 -0.78125 0.859375q-0.28125 0.53125 -0.28125 0.90625l0 5.1875l-1.359375 0l0 -8.28125l1.28125 0l0 1.21875l0.03125 0q0.46875 -0.703125 1.125 -1.046875q0.671875 -0.359375 1.546875 -0.359375z" fill-rule="nonzero"/><path fill="#000000" fill-opacity="0.0" d="m746.8793 333.13666l0 0c0 -4.975006 4.03302 -9.008057 9.008057 -9.008057l97.448425 0c2.3890991 0 4.680359 0.94906616 6.36969 2.6383972c1.689331 1.6893616 2.6383667 3.9805908 2.6383667 6.3696594l0 36.031128c0 4.9750366 -4.03302 9.008057 -9.008057 9.008057l-97.448425 0c-4.9750366 0 -9.008057 -4.03302 -9.008057 -9.008057z" fill-rule="evenodd"/><path stroke="#ef4a82" stroke-width="2.0" stroke-linejoin="round" stroke-linecap="butt" d="m746.8793 333.13666l0 0c0 -4.975006 4.03302 -9.008057 9.008057 -9.008057l97.448425 0c2.3890991 0 4.680359 0.94906616 6.36969 2.6383972c1.689331 1.6893616 2.6383667 3.9805908 2.6383667 6.3696594l0 36.031128c0 4.9750366 -4.03302 9.008057 -9.008057 9.008057l-97.448425 0c-4.9750366 0 -9.008057 -4.03302 -9.008057 -9.008057z" fill-rule="evenodd"/><path fill="#ffffff" d="m778.6858 345.3091q1.671875 0 2.90625 0.78125q1.234375 0.765625 1.90625 2.15625q0.671875 1.390625 0.671875 3.046875q0 1.671875 -0.671875 3.0625q-0.671875 1.390625 -1.921875 2.171875q-1.234375 0.765625 -2.890625 0.765625q-1.640625 0 -2.890625 -0.765625q-1.234375 -0.78125 -1.90625 -2.15625q-0.671875 -1.390625 -0.671875 -3.078125q0 -2.59375 1.484375 -4.28125q1.5 -1.703125 3.984375 -1.703125zm-3.953125 5.984375q0 1.28125 0.46875 2.390625q0.46875 1.09375 1.359375 1.703125q0.90625 0.609375 2.125 0.609375q1.84375 0 2.890625 -1.3125q1.0625 -1.328125 1.0625 -3.390625q0 -2.03125 -1.046875 -3.359375q-1.046875 -1.34375 -2.921875 -1.34375q-1.828125 0 -2.890625 1.34375q-1.046875 1.34375 -1.046875 3.359375zm15.140625 -2.75q1.765625 0 2.78125 1.21875q1.03125 1.21875 1.03125 3.140625q0 1.921875 -1.015625 3.125q-1.015625 1.1875 -2.765625 1.1875q-0.765625 0 -1.515625 -0.328125q-0.734375 -0.328125 -1.15625 -0.984375l-0.03125 0l0 4.28125l-1.359375 0l0 -11.453125l1.359375 0l0 1.125l0.03125 0q0.3125 -0.640625 1.0 -0.96875q0.703125 -0.34375 1.640625 -0.34375zm-2.71875 4.328125q0 1.4375 0.6875 2.28125q0.703125 0.84375 1.921875 0.84375q1.171875 0 1.8125 -0.84375q0.65625 -0.84375 0.65625 -2.34375q0 -1.34375 -0.6875 -2.203125q-0.671875 -0.859375 -1.875 -0.859375q-1.203125 0 -1.859375 0.875q-0.65625 0.875 -0.65625 2.25zm11.5625 -4.328125q1.78125 0 2.765625 1.28125q0.984375 1.28125 0.984375 3.296875l0 0.15625l-6.203125 0l0 0.109375q0 1.171875 0.6875 1.890625q0.6875 0.71875 1.890625 0.71875q0.90625 0 1.4375 -0.421875q0.546875 -0.421875 0.703125 -1.1875l1.34375 0q-0.265625 1.375 -1.203125 2.109375q-0.921875 0.71875 -2.328125 0.71875q-1.296875 0 -2.203125 -0.59375q-0.90625 -0.59375 -1.34375 -1.640625q-0.421875 -1.0625 -0.421875 -2.15625q0 -1.828125 1.09375 -3.046875q1.109375 -1.234375 2.796875 -1.234375zm-2.453125 3.53125l4.75 0q-0.0625 -1.0 -0.734375 -1.65625q-0.65625 -0.671875 -1.65625 -0.671875q-0.9375 0 -1.609375 0.640625q-0.65625 0.625 -0.75 1.6875zm11.609375 -3.53125q1.5 0 2.171875 0.765625q0.671875 0.765625 0.671875 2.1875l0 5.515625l-1.359375 0l0 -5.65625q0 -0.703125 -0.453125 -1.15625q-0.4375 -0.453125 -1.234375 -0.453125q-1.15625 0 -1.796875 0.703125q-0.640625 0.703125 -0.640625 1.828125l0 4.734375l-1.359375 0l0 -8.28125l1.28125 0l0 1.3125l0.03125 0q0.453125 -0.765625 1.109375 -1.125q0.65625 -0.375 1.578125 -0.375zm9.8984375 -2.953125l4.46875 11.421875l-1.6875 0l-1.234375 -3.4375l-4.84375 0l-1.28125 3.4375l-1.5625 0l4.46875 -11.421875l1.671875 0zm-0.875 1.375l-1.9375 5.328125l3.875 0l-1.90625 -5.328125l-0.03125 0zm11.5390625 -1.375q1.578125 0 2.5 0.859375q0.9375 0.84375 0.9375 2.515625q0 1.671875 -0.9375 2.53125q-0.921875 0.84375 -2.390625 0.84375l-3.671875 0l0 4.671875l-1.515625 0l0 -11.421875l5.078125 0zm-0.421875 5.46875q1.09375 0 1.71875 -0.515625q0.625 -0.515625 0.625 -1.578125q0 -1.0625 -0.625 -1.578125q-0.609375 -0.515625 -1.8125 -0.515625l-3.046875 0l0 4.1875l3.140625 0zm7.2890625 -5.46875l0 11.421875l-1.515625 0l0 -11.421875l1.515625 0z" fill-rule="nonzero"/><path fill="#000000" fill-opacity="0.0" d="m71.16798 331.958l94.29922 0l0 38.771637l-94.29922 0z" fill-rule="evenodd"/><path fill="#ffffff" d="m81.8086 344.89612l3.265625 9.890625l0.03125 0l3.296875 -9.890625l1.578125 0l-4.0625 11.421875l-1.734375 0l-4.03125 -11.421875l1.65625 0zm11.9296875 2.953125q1.78125 0 2.765625 1.28125q0.984375 1.28125 0.984375 3.296875l0 0.15625l-6.203125 0l0 0.109375q0 1.171875 0.6875 1.890625q0.6875 0.71875 1.890625 0.71875q0.90625 0 1.4375 -0.421875q0.546875 -0.421875 0.703125 -1.1875l1.34375 0q-0.265625 1.375 -1.203125 2.109375q-0.921875 0.71875 -2.328125 0.71875q-1.296875 0 -2.203125 -0.59375q-0.90625 -0.59375 -1.34375 -1.640625q-0.421875 -1.0625 -0.421875 -2.15625q0 -1.828125 1.09375 -3.046875q1.109375 -1.234375 2.796875 -1.234375zm-2.453125 3.53125l4.75 0q-0.0625 -1.0 -0.734375 -1.65625q-0.65625 -0.671875 -1.65625 -0.671875q-0.9375 0 -1.609375 0.640625q-0.65625 0.625 -0.75 1.6875zm11.71875 -3.53125q0.046875 0 0.078125 0q0.046875 0 0.109375 0l0 1.4375q-1.53125 0 -2.265625 0.8125q-0.71875 0.8125 -0.71875 2.515625l0 3.703125l-1.359375 0l0 -8.28125l1.28125 0l0 1.75l0.03125 0q0.46875 -0.984375 1.171875 -1.453125q0.703125 -0.484375 1.671875 -0.484375zm2.65625 -2.953125l0 1.65625l-1.359375 0l0 -1.65625l1.359375 0zm0 3.140625l0 8.28125l-1.359375 0l0 -8.28125l1.359375 0zm4.9453125 -3.28125q0.171875 0 0.453125 0.046875q0.28125 0.03125 0.4375 0.09375l0 1.171875q-0.15625 -0.046875 -0.390625 -0.078125q-0.21875 -0.03125 -0.375 -0.03125q-0.5625 0 -0.796875 0.234375q-0.234375 0.234375 -0.234375 0.65625l0 1.1875l1.59375 0l0 1.203125l-1.59375 0l0 7.078125l-1.359375 0l0 -7.078125l-1.390625 0l0 -1.203125l1.390625 0l0 -1.28125q0 -0.921875 0.5625 -1.453125q0.578125 -0.546875 1.703125 -0.546875zm3.359375 0.140625l0 1.65625l-1.359375 0l0 -1.65625l1.359375 0zm0 3.140625l0 8.28125l-1.359375 0l0 -8.28125l1.359375 0zm5.5390625 -0.1875q1.78125 0 2.765625 1.28125q0.984375 1.28125 0.984375 3.296875l0 0.15625l-6.203125 0l0 0.109375q0 1.171875 0.6875 1.890625q0.6875 0.71875 1.890625 0.71875q0.90625 0 1.4375 -0.421875q0.546875 -0.421875 0.703125 -1.1875l1.34375 0q-0.265625 1.375 -1.203125 2.109375q-0.921875 0.71875 -2.328125 0.71875q-1.296875 0 -2.203125 -0.59375q-0.90625 -0.59375 -1.34375 -1.640625q-0.421875 -1.0625 -0.421875 -2.15625q0 -1.828125 1.09375 -3.046875q1.109375 -1.234375 2.796875 -1.234375zm-2.453125 3.53125l4.75 0q-0.0625 -1.0 -0.734375 -1.65625q-0.65625 -0.671875 -1.65625 -0.671875q-0.9375 0 -1.609375 0.640625q-0.65625 0.625 -0.75 1.6875zm11.718758 -3.53125q0.046875 0 0.078125 0q0.046875 0 0.109375 0l0 1.4375q-1.5312576 0 -2.2656326 0.8125q-0.71875 0.8125 -0.71875 2.515625l0 3.703125l-1.359375 0l0 -8.28125l1.28125 0l0 1.75l0.03125 0q0.46875 -0.984375 1.171875 -1.453125q0.703125 -0.484375 1.6718826 -0.484375zm3.96875 0q1.671875 0 2.484375 0.65625q0.8125 0.640625 0.890625 1.9375l-1.359375 0l0 -0.015625q-0.0625 -0.65625 -0.578125 -1.015625q-0.515625 -0.359375 -1.34375 -0.359375q-0.8125 0 -1.296875 0.28125q-0.46875 0.265625 -0.46875 0.765625q0 0.453125 0.421875 0.75q0.421875 0.28125 1.265625 0.46875l1.28125 0.28125q1.203125 0.265625 1.828125 0.828125q0.625 0.546875 0.625 1.46875q0 1.21875 -0.953125 1.921875q-0.9375 0.703125 -2.578125 0.703125q-1.578125 0 -2.515625 -0.71875q-0.921875 -0.71875 -0.984375 -2.09375l1.359375 0q0.03125 0.765625 0.609375 1.1875q0.59375 0.40625 1.609375 0.40625q0.984375 0 1.484375 -0.3125q0.515625 -0.3125 0.515625 -0.921875q0 -0.546875 -0.5 -0.875q-0.5 -0.328125 -2.0625 -0.640625q-1.5625 -0.296875 -2.203125 -0.859375q-0.640625 -0.5625 -0.640625 -1.484375q0 -1.09375 0.875 -1.71875q0.890625 -0.640625 2.234375 -0.640625z" fill-rule="nonzero"/><path fill="#000000" fill-opacity="0.0" d="m343.00525 75.29396l-25.0 0l0 163.52756l25.062988 0" fill-rule="evenodd"/><path stroke="#ef4a82" stroke-width="1.0" stroke-linejoin="round" stroke-linecap="butt" d="m343.00525 75.29396l-25.0 0l0 163.52756l25.062988 0" fill-rule="evenodd"/><path fill="#000000" fill-opacity="0.0" d="m581.55646 238.80577l25.0 0l0 -163.49606l-24.937012 0" fill-rule="evenodd"/><path stroke="#ef4a82" stroke-width="1.0" stroke-linejoin="round" stroke-linecap="butt" d="m581.55646 238.80577l25.0 0l0 -163.49606l-21.509949 0" fill-rule="evenodd"/><path fill="#ef4a82" stroke="#ef4a82" stroke-width="1.0" stroke-linecap="butt" d="m585.0465 75.30971l1.1245728 -1.1245804l-3.0897827 1.1245804l3.0897827 1.124588z" fill-rule="evenodd"/><path fill="#000000" fill-opacity="0.0" d="m606.55646 238.80577l123.09973 0l0 -163.49606l-123.03674 0" fill-rule="evenodd"/><path stroke="#ef4a82" stroke-width="1.0" stroke-linejoin="round" stroke-linecap="butt" d="m606.55646 238.80577l123.09973 0l0 -163.49606l-123.03674 0" fill-rule="evenodd"/><path fill="#000000" fill-opacity="0.0" d="m228.61154 324.1286l0 -29.149597l233.66931 0l0 -29.149597" fill-rule="evenodd"/><path stroke="#ef4a82" stroke-width="1.0" stroke-linejoin="round" stroke-linecap="butt" d="m228.61154 324.1286l0 -29.149597l233.66931 0l0 -25.722534" fill-rule="evenodd"/><path fill="#ef4a82" stroke="#ef4a82" stroke-width="1.0" stroke-linecap="butt" d="m462.28085 269.25647l1.1245728 1.1246033l-1.1245728 -3.0897827l-1.1246033 3.0897827z" fill-rule="evenodd"/><path fill="#000000" fill-opacity="0.0" d="m372.61154 324.1286l0 -29.149597l89.66931 0l0 -29.149597" fill-rule="evenodd"/><path stroke="#ef4a82" stroke-width="1.0" stroke-linejoin="round" stroke-linecap="butt" d="m372.61154 324.1286l0 -29.149597l89.66931 0l0 -25.722534" fill-rule="evenodd"/><path fill="#ef4a82" stroke="#ef4a82" stroke-width="1.0" stroke-linecap="butt" d="m462.28085 269.25647l1.1245728 1.1246033l-1.1245728 -3.0897827l-1.1246033 3.0897827z" fill-rule="evenodd"/><path fill="#000000" fill-opacity="0.0" d="m516.6116 324.1286l0 -29.149597l-54.33072 0l0 -29.149597" fill-rule="evenodd"/><path stroke="#ef4a82" stroke-width="1.0" stroke-linejoin="round" stroke-linecap="butt" d="m516.6116 324.1286l0 -29.149597l-54.33072 0l0 -25.722534" fill-rule="evenodd"/><path fill="#ef4a82" stroke="#ef4a82" stroke-width="1.0" stroke-linecap="butt" d="m462.28085 269.25647l1.1245728 1.1246033l-1.1245728 -3.0897827l-1.1246033 3.0897827z" fill-rule="evenodd"/><path fill="#000000" fill-opacity="0.0" d="m660.6116 324.1286l0 -29.149597l-198.33072 0l0 -29.149597" fill-rule="evenodd"/><path stroke="#ef4a82" stroke-width="1.0" stroke-linejoin="round" stroke-linecap="butt" d="m660.6116 324.1286l0 -29.149597l-198.33072 0l0 -25.722534" fill-rule="evenodd"/><path fill="#ef4a82" stroke="#ef4a82" stroke-width="1.0" stroke-linecap="butt" d="m462.28085 269.25647l1.1245728 1.1246033l-1.1245728 -3.0897827l-1.1246033 3.0897827z" fill-rule="evenodd"/><path fill="#000000" fill-opacity="0.0" d="m804.6116 324.1286l0 -29.149597l-342.33072 0l0 -29.149597" fill-rule="evenodd"/><path stroke="#ef4a82" stroke-width="1.0" stroke-linejoin="round" stroke-linecap="butt" d="m804.6116 324.1286l0 -29.149597l-342.33072 0l0 -25.722534" fill-rule="evenodd"/><path fill="#ef4a82" stroke="#ef4a82" stroke-width="1.0" stroke-linecap="butt" d="m462.28085 269.25647l1.1245728 1.1246033l-1.1245728 -3.0897827l-1.1246033 3.0897827z" fill-rule="evenodd"/><path fill="#000000" fill-opacity="0.0" d="m261.29398 238.80577l81.700775 0" fill-rule="evenodd"/><path stroke="#ef4a82" stroke-width="1.0" stroke-linejoin="round" stroke-linecap="butt" d="m264.72104 238.80577l74.84662 0" fill-rule="evenodd"/><path fill="#ef4a82" stroke="#ef4a82" stroke-width="1.0" stroke-linecap="butt" d="m264.72104 238.80577l1.1246033 -1.1245728l-3.0897827 1.1245728l3.0897827 1.124588z" fill-rule="evenodd"/><path fill="#ef4a82" stroke="#ef4a82" stroke-width="1.0" stroke-linecap="butt" d="m339.56766 238.80577l-1.1245728 1.124588l3.0897522 -1.124588l-3.0897522 -1.1245728z" fill-rule="evenodd"/><path fill="#000000" d="m223.01837 143.71391l163.40158 0l0 14.64566l-163.40158 0z" fill-rule="evenodd"/><path fill="#000000" d="m700.5512 143.71391l57.95276 0l0 14.64566l-57.95276 0z" fill-rule="evenodd"/><path fill="#000000" d="m572.5801 143.71391l57.95276 0l0 14.64566l-57.95276 0z" fill-rule="evenodd"/><path fill="#000000" fill-opacity="0.0" d="m682.3779 134.87927l94.299255 0l0 32.314957l-94.299255 0z" fill-rule="evenodd"/><path fill="#ffffff" d="m708.71375 146.50989q1.0 0 1.625 0.53125q0.640625 0.515625 0.640625 1.46875q0 0.75 -0.328125 1.25q-0.328125 0.484375 -0.984375 0.671875l0 0.015625q0.578125 0.125 0.84375 0.546875q0.28125 0.421875 0.3125 1.453125q0.03125 0.65625 0.125 1.046875q0.109375 0.375 0.296875 0.625l-1.125 0q-0.09375 -0.125 -0.125 -0.25q-0.03125 -0.125 -0.046875 -0.328125l-0.046875 -0.84375q-0.015625 -0.59375 -0.25 -1.1875q-0.234375 -0.609375 -1.046875 -0.640625l-2.5 0l0 3.25l-1.015625 0l0 -7.609375l3.625 0zm-0.453125 3.515625q0.84375 0 1.28125 -0.328125q0.4375 -0.34375 0.4375 -1.03125q0 -0.625 -0.359375 -0.953125q-0.34375 -0.34375 -0.96875 -0.34375l-2.546875 0l0 2.65625l2.15625 0zm6.26886 -1.546875q1.1875 0 1.84375 0.859375q0.65625 0.859375 0.65625 2.1875l0 0.109375l-4.125 0l0 0.0625q0 0.796875 0.453125 1.28125q0.46875 0.46875 1.265625 0.46875q0.59375 0 0.953125 -0.28125q0.359375 -0.28125 0.46875 -0.796875l0.890625 0q-0.171875 0.921875 -0.796875 1.40625q-0.625 0.46875 -1.546875 0.46875q-0.875 0 -1.484375 -0.390625q-0.59375 -0.390625 -0.875 -1.09375q-0.28125 -0.703125 -0.28125 -1.421875q0 -1.21875 0.734375 -2.03125q0.734375 -0.828125 1.84375 -0.828125zm-1.625 2.359375l3.15625 0q-0.03125 -0.671875 -0.484375 -1.109375q-0.4375 -0.453125 -1.109375 -0.453125q-0.625 0 -1.0625 0.421875q-0.4375 0.421875 -0.5 1.140625zm6.895447 -2.359375q1.109375 0 1.640625 0.4375q0.546875 0.4375 0.609375 1.296875l-0.90625 0l0 -0.015625q-0.046875 -0.4375 -0.390625 -0.671875q-0.34375 -0.25 -0.890625 -0.25q-0.546875 0 -0.859375 0.1875q-0.3125 0.1875 -0.3125 0.515625q0 0.3125 0.28125 0.5q0.28125 0.1875 0.84375 0.3125l0.84375 0.1875q0.796875 0.1875 1.21875 0.546875q0.421875 0.359375 0.421875 0.984375q0 0.8125 -0.640625 1.28125q-0.625 0.453125 -1.703125 0.453125q-1.0625 0 -1.6875 -0.46875q-0.609375 -0.46875 -0.65625 -1.390625l0.90625 0q0.015625 0.515625 0.40625 0.796875q0.390625 0.265625 1.078125 0.265625q0.65625 0 0.984375 -0.203125q0.34375 -0.21875 0.34375 -0.625q0 -0.359375 -0.34375 -0.578125q-0.328125 -0.21875 -1.359375 -0.421875q-1.046875 -0.203125 -1.46875 -0.578125q-0.421875 -0.375 -0.421875 -0.984375q0 -0.734375 0.578125 -1.15625q0.59375 -0.421875 1.484375 -0.421875zm5.875 0q1.25 0 1.953125 0.8125q0.71875 0.8125 0.71875 2.078125q0 1.28125 -0.734375 2.078125q-0.71875 0.796875 -1.9375 0.796875q-1.203125 0 -1.9375 -0.78125q-0.734375 -0.78125 -0.734375 -2.09375q0 -1.3125 0.71875 -2.09375q0.71875 -0.796875 1.953125 -0.796875zm-1.71875 2.890625q0 0.953125 0.484375 1.515625q0.484375 0.5625 1.234375 0.5625q0.734375 0 1.21875 -0.5625q0.5 -0.578125 0.5 -1.515625q0 -0.9375 -0.484375 -1.515625q-0.484375 -0.578125 -1.25 -0.578125q-0.71875 0 -1.21875 0.578125q-0.484375 0.5625 -0.484375 1.515625zm6.4158936 -4.859375l0 7.609375l-0.90625 0l0 -7.609375l0.90625 0zm2.3206177 2.09375l0 3.765625q0 0.46875 0.296875 0.78125q0.296875 0.296875 0.8125 0.296875q0.78125 0 1.203125 -0.46875q0.4375 -0.484375 0.4375 -1.21875l0 -3.15625l0.90625 0l0 5.515625l-0.859375 0l0 -0.875l-0.015625 0q-0.3125 0.53125 -0.765625 0.765625q-0.453125 0.234375 -1.03125 0.234375q-0.96875 0 -1.4375 -0.484375q-0.453125 -0.5 -0.453125 -1.484375l0 -3.671875l0.90625 0zm6.2702637 -1.640625l0 1.640625l1.09375 0l0 0.8125l-1.09375 0l0 3.4375q0 0.421875 0.265625 0.453125q0.28125 0.015625 0.578125 0.015625l0.25 0l0 0.796875l-0.734375 0q-0.75 0 -1.015625 -0.265625q-0.25 -0.265625 -0.25 -0.890625l0 -3.546875l-0.9375 0l0 -0.8125l0.9375 0l0 -1.640625l0.90625 0zm3.059204 -0.453125l0 1.109375l-0.90625 0l0 -1.109375l0.90625 0zm0 2.09375l0 5.515625l-0.90625 0l0 -5.515625l0.90625 0zm3.7893677 -0.125q1.25 0 1.953125 0.8125q0.71875 0.8125 0.71875 2.078125q0 1.28125 -0.734375 2.078125q-0.71875 0.796875 -1.9375 0.796875q-1.203125 0 -1.9375 -0.78125q-0.734375 -0.78125 -0.734375 -2.09375q0 -1.3125 0.71875 -2.09375q0.71875 -0.796875 1.953125 -0.796875zm-1.71875 2.890625q0 0.953125 0.484375 1.515625q0.484375 0.5625 1.234375 0.5625q0.734375 0 1.21875 -0.5625q0.5 -0.578125 0.5 -1.515625q0 -0.9375 -0.484375 -1.515625q-0.484375 -0.578125 -1.25 -0.578125q-0.71875 0 -1.21875 0.578125q-0.484375 0.5625 -0.484375 1.515625zm8.119019 -2.890625q1.0 0 1.453125 0.515625q0.453125 0.515625 0.453125 1.453125l0 3.671875l-0.90625 0l0 -3.765625q0 -0.46875 -0.3125 -0.765625q-0.296875 -0.3125 -0.828125 -0.3125q-0.75 0 -1.1875 0.484375q-0.421875 0.46875 -0.421875 1.21875l0 3.140625l-0.90625 0l0 -5.515625l0.84375 0l0 0.875l0.03125 0q0.296875 -0.515625 0.734375 -0.75q0.4375 -0.25 1.046875 -0.25z" fill-rule="nonzero"/><path fill="#000000" fill-opacity="0.0" d="m554.4068 134.87927l94.299255 0l0 32.314957l-94.299255 0z" fill-rule="evenodd"/><path fill="#ffffff" d="m582.66766 146.50989q1.40625 0 1.90625 0.578125q0.515625 0.5625 0.515625 1.28125q0 0.609375 -0.296875 1.0625q-0.296875 0.4375 -0.828125 0.65625l0 0.015625q0.703125 0.15625 1.078125 0.640625q0.375 0.484375 0.375 1.1875q0 0.9375 -0.65625 1.5625q-0.65625 0.625 -1.625 0.625l-3.71875 0l0 -7.609375l3.25 0zm-0.15625 3.265625q0.75 0 1.15625 -0.28125q0.40625 -0.28125 0.40625 -0.921875q0 -0.609375 -0.34375 -0.90625q-0.328125 -0.296875 -1.21875 -0.296875l-2.078125 0l0 2.40625l2.078125 0zm0.5 3.484375q0.609375 0 1.0 -0.359375q0.390625 -0.375 0.390625 -1.0q0 -0.640625 -0.4375 -0.953125q-0.4375 -0.3125 -1.265625 -0.3125l-2.265625 0l0 2.625l2.578125 0zm4.51886 -6.75l0 1.109375l-0.90625 0l0 -1.109375l0.90625 0zm0 2.09375l0 5.515625l-0.90625 0l0 -5.515625l0.90625 0zm2.6643677 -1.640625l0 1.640625l1.09375 0l0 0.8125l-1.09375 0l0 3.4375q0 0.421875 0.265625 0.453125q0.28125 0.015625 0.578125 0.015625l0.25 0l0 0.796875l-0.734375 0q-0.75 0 -1.015625 -0.265625q-0.25 -0.265625 -0.25 -0.890625l0 -3.546875l-0.9375 0l0 -0.8125l0.9375 0l0 -1.640625l0.90625 0zm5.4730225 -0.453125l2.171875 6.59375l0.015625 0l2.203125 -6.59375l1.046875 0l-2.703125 7.609375l-1.15625 0l-2.6875 -7.609375l1.109375 0zm8.03009 1.96875q1.25 0 1.953125 0.8125q0.71875 0.8125 0.71875 2.078125q0 1.28125 -0.734375 2.078125q-0.71875 0.796875 -1.9375 0.796875q-1.203125 0 -1.9375 -0.78125q-0.734375 -0.78125 -0.734375 -2.09375q0 -1.3125 0.71875 -2.09375q0.71875 -0.796875 1.953125 -0.796875zm-1.71875 2.890625q0 0.953125 0.484375 1.515625q0.484375 0.5625 1.234375 0.5625q0.734375 0 1.21875 -0.5625q0.5 -0.578125 0.5 -1.515625q0 -0.9375 -0.484375 -1.515625q-0.484375 -0.578125 -1.25 -0.578125q-0.71875 0 -1.21875 0.578125q-0.484375 0.5625 -0.484375 1.515625zm6.7127686 -4.40625l0 1.640625l1.09375 0l0 0.8125l-1.09375 0l0 3.4375q0 0.421875 0.265625 0.453125q0.28125 0.015625 0.578125 0.015625l0.25 0l0 0.796875l-0.734375 0q-0.75 0 -1.015625 -0.265625q-0.25 -0.265625 -0.25 -0.890625l0 -3.546875l-0.9375 0l0 -0.8125l0.9375 0l0 -1.640625l0.90625 0zm3.059204 -0.453125l0 1.109375l-0.90625 0l0 -1.109375l0.90625 0zm0 2.09375l0 5.515625l-0.90625 0l0 -5.515625l0.90625 0zm4.0706177 -0.125q1.0 0 1.453125 0.515625q0.453125 0.515625 0.453125 1.453125l0 3.671875l-0.90625 0l0 -3.765625q0 -0.46875 -0.3125 -0.765625q-0.296875 -0.3125 -0.828125 -0.3125q-0.75 0 -1.1875 0.484375q-0.421875 0.46875 -0.421875 1.21875l0 3.140625l-0.90625 0l0 -5.515625l0.84375 0l0 0.875l0.03125 0q0.296875 -0.515625 0.734375 -0.75q0.4375 -0.25 1.046875 -0.25zm5.5045776 0q0.578125 0 1.0 0.25q0.421875 0.25 0.65625 0.671875l0 0l0 -0.796875l0.859375 0l0 5.109375q0 1.296875 -0.625 1.96875q-0.625 0.671875 -1.9375 0.671875q-0.9375 0 -1.59375 -0.421875q-0.640625 -0.40625 -0.6875 -1.1875l0.90625 0q0.03125 0.421875 0.453125 0.65625q0.4375 0.234375 0.96875 0.234375q0.8125 0 1.234375 -0.53125q0.421875 -0.53125 0.421875 -1.578125l0 -0.34375l-0.015625 0q-0.21875 0.453125 -0.6875 0.734375q-0.453125 0.265625 -1.03125 0.265625q-1.125 0 -1.796875 -0.765625q-0.65625 -0.78125 -0.65625 -2.015625q0 -1.265625 0.65625 -2.09375q0.671875 -0.828125 1.875 -0.828125zm-1.578125 2.8125q0 0.96875 0.40625 1.53125q0.421875 0.5625 1.140625 0.5625q0.75 0 1.1875 -0.578125q0.453125 -0.578125 0.453125 -1.546875q0 -0.890625 -0.40625 -1.4375q-0.40625 -0.546875 -1.171875 -0.546875q-0.75 0 -1.1875 0.546875q-0.421875 0.546875 -0.421875 1.46875z" fill-rule="nonzero"/><path fill="#000000" fill-opacity="0.0" d="m179.32283 134.87927l258.2362 0l0 32.314957l-258.2362 0z" fill-rule="evenodd"/><path fill="#ffffff" d="m244.70262 146.32239q1.265625 0 2.109375 0.65625q0.859375 0.65625 1.015625 1.828125l-1.0 0q-0.171875 -0.78125 -0.734375 -1.203125q-0.5625 -0.421875 -1.40625 -0.421875q-1.203125 0 -1.890625 0.859375q-0.6875 0.84375 -0.6875 2.21875q0 1.453125 0.671875 2.328125q0.671875 0.859375 1.921875 0.859375q0.921875 0 1.515625 -0.59375q0.609375 -0.59375 0.671875 -1.59375l1.015625 0q-0.15625 1.46875 -1.03125 2.265625q-0.859375 0.78125 -2.265625 0.78125q-1.625 0 -2.578125 -1.078125q-0.9375 -1.09375 -0.9375 -2.890625q0 -1.78125 0.96875 -2.890625q0.984375 -1.125 2.640625 -1.125zm6.6956024 2.15625q1.25 0 1.953125 0.8125q0.71875 0.8125 0.71875 2.078125q0 1.28125 -0.734375 2.078125q-0.71875 0.796875 -1.9375 0.796875q-1.203125 0 -1.9375 -0.78125q-0.734375 -0.78125 -0.734375 -2.09375q0 -1.3125 0.71875 -2.09375q0.71875 -0.796875 1.953125 -0.796875zm-1.71875 2.890625q0 0.953125 0.484375 1.515625q0.484375 0.5625 1.234375 0.5625q0.734375 0 1.21875 -0.5625q0.5 -0.578125 0.5 -1.515625q0 -0.9375 -0.484375 -1.515625q-0.484375 -0.578125 -1.25 -0.578125q-0.71875 0 -1.21875 0.578125q-0.484375 0.5625 -0.484375 1.515625zm6.4158936 -4.859375l0 7.609375l-0.90625 0l0 -7.609375l0.90625 0zm2.3674927 0l0 7.609375l-0.90625 0l0 -7.609375l0.90625 0zm3.6955872 1.96875q1.1875 0 1.84375 0.859375q0.65625 0.859375 0.65625 2.1875l0 0.109375l-4.125 0l0 0.0625q0 0.796875 0.453125 1.28125q0.46875 0.46875 1.265625 0.46875q0.59375 0 0.953125 -0.28125q0.359375 -0.28125 0.46875 -0.796875l0.890625 0q-0.171875 0.921875 -0.796875 1.40625q-0.625 0.46875 -1.546875 0.46875q-0.875 0 -1.484375 -0.390625q-0.59375 -0.390625 -0.875 -1.09375q-0.28125 -0.703125 -0.28125 -1.421875q0 -1.21875 0.734375 -2.03125q0.734375 -0.828125 1.84375 -0.828125zm-1.625 2.359375l3.15625 0q-0.03125 -0.671875 -0.484375 -1.109375q-0.4375 -0.453125 -1.109375 -0.453125q-0.625 0 -1.0625 0.421875q-0.4375 0.421875 -0.5 1.140625zm7.364197 -2.359375q1.0 0 1.625 0.484375q0.640625 0.484375 0.75 1.421875l-0.9375 0q-0.109375 -0.546875 -0.46875 -0.828125q-0.359375 -0.28125 -0.890625 -0.28125q-0.84375 0 -1.28125 0.578125q-0.4375 0.5625 -0.4375 1.578125q0 0.921875 0.421875 1.46875q0.4375 0.546875 1.1875 0.546875q0.65625 0 1.03125 -0.359375q0.390625 -0.359375 0.484375 -0.984375l0.921875 0q-0.15625 1.03125 -0.78125 1.59375q-0.625 0.546875 -1.65625 0.546875q-1.1875 0 -1.875 -0.75q-0.6875 -0.765625 -0.6875 -2.0625q0 -1.34375 0.6875 -2.140625q0.703125 -0.8125 1.90625 -0.8125zm4.676697 -1.515625l0 1.640625l1.09375 0l0 0.8125l-1.09375 0l0 3.4375q0 0.421875 0.265625 0.453125q0.28125 0.015625 0.578125 0.015625l0.25 0l0 0.796875l-0.734375 0q-0.75 0 -1.015625 -0.265625q-0.25 -0.265625 -0.25 -0.890625l0 -3.546875l-0.9375 0l0 -0.8125l0.9375 0l0 -1.640625l0.90625 0zm8.394867 -0.453125l2.96875 7.609375l-1.109375 0l-0.828125 -2.296875l-3.21875 0l-0.859375 2.296875l-1.046875 0l2.96875 -7.609375l1.125 0zm-0.59375 0.921875l-1.28125 3.546875l2.578125 0l-1.265625 -3.546875l-0.03125 0zm5.357849 -0.46875l0 1.640625l1.09375 0l0 0.8125l-1.09375 0l0 3.4375q0 0.421875 0.265625 0.453125q0.28125 0.015625 0.578125 0.015625l0.25 0l0 0.796875l-0.734375 0q-0.75 0 -1.015625 -0.265625q-0.25 -0.265625 -0.25 -0.890625l0 -3.546875l-0.9375 0l0 -0.8125l0.9375 0l0 -1.640625l0.90625 0zm3.356079 0l0 1.640625l1.09375 0l0 0.8125l-1.09375 0l0 3.4375q0 0.421875 0.265625 0.453125q0.28125 0.015625 0.578125 0.015625l0.25 0l0 0.796875l-0.734375 0q-0.75 0 -1.015625 -0.265625q-0.25 -0.265625 -0.25 -0.890625l0 -3.546875l-0.9375 0l0 -0.8125l0.9375 0l0 -1.640625l0.90625 0zm4.257141 1.515625q1.1875 0 1.84375 0.859375q0.65625 0.859375 0.65625 2.1875l0 0.109375l-4.125 0l0 0.0625q0 0.796875 0.453125 1.28125q0.46875 0.46875 1.265625 0.46875q0.59375 0 0.953125 -0.28125q0.359375 -0.28125 0.46875 -0.796875l0.890625 0q-0.171875 0.921875 -0.796875 1.40625q-0.625 0.46875 -1.546875 0.46875q-0.875 0 -1.484375 -0.390625q-0.59375 -0.390625 -0.875 -1.09375q-0.28125 -0.703125 -0.28125 -1.421875q0 -1.21875 0.734375 -2.03125q0.734375 -0.828125 1.84375 -0.828125zm-1.625 2.359375l3.15625 0q-0.03125 -0.671875 -0.484375 -1.109375q-0.4375 -0.453125 -1.109375 -0.453125q-0.625 0 -1.0625 0.421875q-0.4375 0.421875 -0.5 1.140625zm6.895447 -2.359375q1.109375 0 1.640625 0.4375q0.546875 0.4375 0.609375 1.296875l-0.90625 0l0 -0.015625q-0.046875 -0.4375 -0.390625 -0.671875q-0.34375 -0.25 -0.890625 -0.25q-0.546875 0 -0.859375 0.1875q-0.3125 0.1875 -0.3125 0.515625q0 0.3125 0.28125 0.5q0.28125 0.1875 0.84375 0.3125l0.84375 0.1875q0.796875 0.1875 1.21875 0.546875q0.421875 0.359375 0.421875 0.984375q0 0.8125 -0.640625 1.28125q-0.625 0.453125 -1.703125 0.453125q-1.0625 0 -1.6875 -0.46875q-0.609375 -0.46875 -0.65625 -1.390625l0.90625 0q0.015625 0.515625 0.40625 0.796875q0.390625 0.265625 1.078125 0.265625q0.65625 0 0.984375 -0.203125q0.34375 -0.21875 0.34375 -0.625q0 -0.359375 -0.34375 -0.578125q-0.328125 -0.21875 -1.359375 -0.421875q-1.046875 -0.203125 -1.46875 -0.578125q-0.421875 -0.375 -0.421875 -0.984375q0 -0.734375 0.578125 -1.15625q0.59375 -0.421875 1.484375 -0.421875zm4.75 -1.515625l0 1.640625l1.09375 0l0 0.8125l-1.09375 0l0 3.4375q0 0.421875 0.265625 0.453125q0.28125 0.015625 0.578125 0.015625l0.25 0l0 0.796875l-0.734375 0q-0.75 0 -1.015625 -0.265625q-0.25 -0.265625 -0.25 -0.890625l0 -3.546875l-0.9375 0l0 -0.8125l0.9375 0l0 -1.640625l0.90625 0zm4.3561096 1.515625q1.125 0 1.59375 0.40625q0.46875 0.40625 0.46875 1.078125q0 2.859375 0 3.171875q0 0.3125 0.28125 0.3125q0.0625 0 0.140625 -0.015625q0.078125 -0.015625 0.140625 -0.03125l0 0.703125q-0.125 0.0625 -0.296875 0.09375q-0.15625 0.046875 -0.34375 0.046875q-0.375 0 -0.578125 -0.203125q-0.203125 -0.21875 -0.203125 -0.640625q-0.359375 0.421875 -0.84375 0.640625q-0.484375 0.203125 -1.09375 0.203125q-0.84375 0 -1.328125 -0.390625q-0.484375 -0.40625 -0.484375 -1.15625q0 -0.734375 0.46875 -1.171875q0.46875 -0.4375 2.21875 -0.65625q0.59375 -0.078125 0.796875 -0.21875q0.21875 -0.15625 0.21875 -0.453125q0 -0.46875 -0.296875 -0.6875q-0.28125 -0.234375 -0.921875 -0.234375q-0.671875 0 -1.015625 0.265625q-0.328125 0.25 -0.359375 0.78125l-0.90625 0q0.046875 -0.90625 0.640625 -1.375q0.609375 -0.46875 1.703125 -0.46875zm-1.59375 4.15625q0 0.390625 0.28125 0.609375q0.28125 0.203125 0.78125 0.203125q0.765625 0 1.21875 -0.375q0.46875 -0.390625 0.46875 -0.859375l0 -0.9375q-0.234375 0.15625 -0.609375 0.21875q-0.359375 0.046875 -0.953125 0.140625q-0.609375 0.078125 -0.90625 0.328125q-0.28125 0.234375 -0.28125 0.671875zm6.317322 -5.671875l0 1.640625l1.09375 0l0 0.8125l-1.09375 0l0 3.4375q0 0.421875 0.265625 0.453125q0.28125 0.015625 0.578125 0.015625l0.25 0l0 0.796875l-0.734375 0q-0.75 0 -1.015625 -0.265625q-0.25 -0.265625 -0.25 -0.890625l0 -3.546875l-0.9375 0l0 -0.8125l0.9375 0l0 -1.640625l0.90625 0zm3.059204 -0.453125l0 1.109375l-0.90625 0l0 -1.109375l0.90625 0zm0 2.09375l0 5.515625l-0.90625 0l0 -5.515625l0.90625 0zm3.7893677 -0.125q1.25 0 1.953125 0.8125q0.71875 0.8125 0.71875 2.078125q0 1.28125 -0.734375 2.078125q-0.71875 0.796875 -1.9375 0.796875q-1.203125 0 -1.9375 -0.78125q-0.734375 -0.78125 -0.734375 -2.09375q0 -1.3125 0.71875 -2.09375q0.71875 -0.796875 1.953125 -0.796875zm-1.71875 2.890625q0 0.953125 0.484375 1.515625q0.484375 0.5625 1.234375 0.5625q0.734375 0 1.21875 -0.5625q0.5 -0.578125 0.5 -1.515625q0 -0.9375 -0.484375 -1.515625q-0.484375 -0.578125 -1.25 -0.578125q-0.71875 0 -1.21875 0.578125q-0.484375 0.5625 -0.484375 1.515625zm8.119019 -2.890625q1.0 0 1.453125 0.515625q0.453125 0.515625 0.453125 1.453125l0 3.671875l-0.90625 0l0 -3.765625q0 -0.46875 -0.3125 -0.765625q-0.296875 -0.3125 -0.828125 -0.3125q-0.75 0 -1.1875 0.484375q-0.421875 0.46875 -0.421875 1.21875l0 3.140625l-0.90625 0l0 -5.515625l0.84375 0l0 0.875l0.03125 0q0.296875 -0.515625 0.734375 -0.75q0.4375 -0.25 1.046875 -0.25zm9.996521 -1.96875q1.0 0 1.625 0.53125q0.640625 0.515625 0.640625 1.46875q0 0.75 -0.328125 1.25q-0.328125 0.484375 -0.984375 0.671875l0 0.015625q0.578125 0.125 0.84375 0.546875q0.28125 0.421875 0.3125 1.453125q0.03125 0.65625 0.125 1.046875q0.109375 0.375 0.296875 0.625l-1.125 0q-0.09375 -0.125 -0.125 -0.25q-0.03125 -0.125 -0.046875 -0.328125l-0.046875 -0.84375q-0.015625 -0.59375 -0.25 -1.1875q-0.234375 -0.609375 -1.046875 -0.640625l-2.5 0l0 3.25l-1.015625 0l0 -7.609375l3.625 0zm-0.453125 3.515625q0.84375 0 1.28125 -0.328125q0.4375 -0.34375 0.4375 -1.03125q0 -0.625 -0.359375 -0.953125q-0.34375 -0.34375 -0.96875 -0.34375l-2.546875 0l0 2.65625l2.15625 0zm6.2688904 -1.546875q1.1875 0 1.84375 0.859375q0.65625 0.859375 0.65625 2.1875l0 0.109375l-4.125 0l0 0.0625q0 0.796875 0.453125 1.28125q0.46875 0.46875 1.265625 0.46875q0.59375 0 0.953125 -0.28125q0.359375 -0.28125 0.46875 -0.796875l0.890625 0q-0.171875 0.921875 -0.796875 1.40625q-0.625 0.46875 -1.546875 0.46875q-0.875 0 -1.484375 -0.390625q-0.59375 -0.390625 -0.875 -1.09375q-0.28125 -0.703125 -0.28125 -1.421875q0 -1.21875 0.734375 -2.03125q0.734375 -0.828125 1.84375 -0.828125zm-1.625 2.359375l3.15625 0q-0.03125 -0.671875 -0.484375 -1.109375q-0.4375 -0.453125 -1.109375 -0.453125q-0.625 0 -1.0625 0.421875q-0.4375 0.421875 -0.5 1.140625zm7.270447 -2.359375q0.546875 0 1.03125 0.21875q0.484375 0.21875 0.75 0.640625l0.03125 0l0 -0.734375l0.90625 0l0 7.625l-0.90625 0l0 -2.859375l-0.03125 0q-0.203125 0.4375 -0.671875 0.65625q-0.46875 0.21875 -1.078125 0.21875q-1.15625 0 -1.84375 -0.796875q-0.6875 -0.796875 -0.6875 -2.09375q0 -1.28125 0.671875 -2.078125q0.671875 -0.796875 1.828125 -0.796875zm-1.546875 2.9375q0 0.875 0.453125 1.453125q0.46875 0.578125 1.25 0.578125q0.796875 0 1.234375 -0.578125q0.453125 -0.578125 0.453125 -1.5q0 -0.9375 -0.453125 -1.515625q-0.453125 -0.578125 -1.296875 -0.578125q-0.78125 0 -1.21875 0.578125q-0.421875 0.5625 -0.421875 1.5625zm6.566742 -2.8125l0 3.765625q0 0.46875 0.296875 0.78125q0.296875 0.296875 0.8125 0.296875q0.78125 0 1.203125 -0.46875q0.4375 -0.484375 0.4375 -1.21875l0 -3.15625l0.90625 0l0 5.515625l-0.859375 0l0 -0.875l-0.015625 0q-0.3125 0.53125 -0.765625 0.765625q-0.453125 0.234375 -1.03125 0.234375q-0.96875 0 -1.4375 -0.484375q-0.453125 -0.5 -0.453125 -1.484375l0 -3.671875l0.90625 0zm7.3015137 -0.125q1.1875 0 1.84375 0.859375q0.65625 0.859375 0.65625 2.1875l0 0.109375l-4.125 0l0 0.0625q0 0.796875 0.453125 1.28125q0.46875 0.46875 1.265625 0.46875q0.59375 0 0.953125 -0.28125q0.359375 -0.28125 0.46875 -0.796875l0.890625 0q-0.171875 0.921875 -0.796875 1.40625q-0.625 0.46875 -1.546875 0.46875q-0.875 0 -1.484375 -0.390625q-0.59375 -0.390625 -0.875 -1.09375q-0.28125 -0.703125 -0.28125 -1.421875q0 -1.21875 0.734375 -2.03125q0.734375 -0.828125 1.84375 -0.828125zm-1.625 2.359375l3.15625 0q-0.03125 -0.671875 -0.484375 -1.109375q-0.4375 -0.453125 -1.109375 -0.453125q-0.625 0 -1.0625 0.421875q-0.4375 0.421875 -0.5 1.140625zm6.895447 -2.359375q1.109375 0 1.640625 0.4375q0.546875 0.4375 0.609375 1.296875l-0.90625 0l0 -0.015625q-0.046875 -0.4375 -0.390625 -0.671875q-0.34375 -0.25 -0.890625 -0.25q-0.546875 0 -0.859375 0.1875q-0.3125 0.1875 -0.3125 0.515625q0 0.3125 0.28125 0.5q0.28125 0.1875 0.84375 0.3125l0.84375 0.1875q0.796875 0.1875 1.21875 0.546875q0.421875 0.359375 0.421875 0.984375q0 0.8125 -0.640625 1.28125q-0.625 0.453125 -1.703125 0.453125q-1.0625 0 -1.6875 -0.46875q-0.609375 -0.46875 -0.65625 -1.390625l0.90625 0q0.015625 0.515625 0.40625 0.796875q0.390625 0.265625 1.078125 0.265625q0.65625 0 0.984375 -0.203125q0.34375 -0.21875 0.34375 -0.625q0 -0.359375 -0.34375 -0.578125q-0.328125 -0.21875 -1.359375 -0.421875q-1.046875 -0.203125 -1.46875 -0.578125q-0.421875 -0.375 -0.421875 -0.984375q0 -0.734375 0.578125 -1.15625q0.59375 -0.421875 1.484375 -0.421875zm4.75 -1.515625l0 1.640625l1.09375 0l0 0.8125l-1.09375 0l0 3.4375q0 0.421875 0.265625 0.453125q0.28125 0.015625 0.578125 0.015625l0.25 0l0 0.796875l-0.734375 0q-0.75 0 -1.015625 -0.265625q-0.25 -0.265625 -0.25 -0.890625l0 -3.546875l-0.9375 0l0 -0.8125l0.9375 0l0 -1.640625l0.90625 0zm3.934204 1.515625q1.109375 0 1.640625 0.4375q0.546875 0.4375 0.609375 1.296875l-0.90625 0l0 -0.015625q-0.046875 -0.4375 -0.390625 -0.671875q-0.34375 -0.25 -0.890625 -0.25q-0.546875 0 -0.859375 0.1875q-0.3125 0.1875 -0.3125 0.515625q0 0.3125 0.28125 0.5q0.28125 0.1875 0.84375 0.3125l0.84375 0.1875q0.796875 0.1875 1.21875 0.546875q0.421875 0.359375 0.421875 0.984375q0 0.8125 -0.640625 1.28125q-0.625 0.453125 -1.703125 0.453125q-1.0625 0 -1.6875 -0.46875q-0.609375 -0.46875 -0.65625 -1.390625l0.90625 0q0.015625 0.515625 0.40625 0.796875q0.390625 0.265625 1.078125 0.265625q0.65625 0 0.984375 -0.203125q0.34375 -0.21875 0.34375 -0.625q0 -0.359375 -0.34375 -0.578125q-0.328125 -0.21875 -1.359375 -0.421875q-1.046875 -0.203125 -1.46875 -0.578125q-0.421875 -0.375 -0.421875 -0.984375q0 -0.734375 0.578125 -1.15625q0.59375 -0.421875 1.484375 -0.421875z" fill-rule="nonzero"/></g></svg>