<svg width="901" height="462" viewBox="0 0 901 462" fill="none" xmlns="http://www.w3.org/2000/svg">
<g clip-path="url(#clip0_8_1940)">
<mask id="mask0_8_1940" style="mask-type:luminance" maskUnits="userSpaceOnUse" x="0" y="0" width="901" height="462">
<path d="M0.5 0.5H900.028V461.224H0.5V0.5Z" fill="white"/>
</mask>
<g mask="url(#mask0_8_1940)">
<path fill-rule="evenodd" clip-rule="evenodd" d="M53.8596 322.175C53.8596 313.982 60.5014 307.34 68.6945 307.34H857.04C860.975 307.34 864.748 308.903 867.53 311.685C870.312 314.467 871.875 318.24 871.875 322.175V381.513C871.875 389.706 865.234 396.348 857.04 396.348H68.6945C60.5014 396.348 53.8596 389.706 53.8596 381.513V322.175Z" stroke="#E62058" stroke-width="2" stroke-miterlimit="10" stroke-linejoin="round" stroke-dasharray="8 6"/>
<path fill-rule="evenodd" clip-rule="evenodd" d="M343.505 57.7784C343.505 52.8034 347.538 48.7703 352.513 48.7703H573.048C575.437 48.7703 577.729 49.7194 579.418 51.4087C581.107 53.0981 582.056 55.3893 582.056 57.7784V93.8095C582.056 98.7845 578.023 102.818 573.048 102.818H352.513C347.538 102.818 343.505 98.7845 343.505 93.8095V57.7784Z" stroke="#E62058" stroke-width="2" stroke-miterlimit="10" stroke-linejoin="round"/>
<path d="M454.046 70.2321V71.5133H448.062V75.1383H453.312V76.4196H448.062V81.654H446.546V70.2321H454.046ZM456.953 70.2321V81.654H455.593V70.2321H456.953ZM462.445 73.1852C463.57 73.1852 464.367 73.3883 464.836 73.7946C465.315 74.1904 465.554 74.7269 465.554 75.404C465.554 78.2685 465.554 79.8571 465.554 80.1696C465.554 80.4821 465.695 80.6383 465.976 80.6383C466.039 80.6383 466.106 80.6331 466.179 80.6227C466.252 80.6019 466.325 80.581 466.398 80.5602V81.6227C466.273 81.6956 466.127 81.7529 465.961 81.7946C465.794 81.8363 465.617 81.8571 465.429 81.8571C465.054 81.8571 464.768 81.7529 464.57 81.5446C464.372 81.3258 464.273 80.9977 464.273 80.5602C463.908 80.9873 463.481 81.3102 462.992 81.529C462.502 81.7477 461.955 81.8571 461.351 81.8571C460.497 81.8571 459.825 81.654 459.336 81.2477C458.856 80.8415 458.617 80.2685 458.617 79.529C458.617 78.779 458.851 78.1904 459.32 77.7633C459.799 77.3258 460.919 76.9977 462.679 76.779C463.273 76.6956 463.674 76.581 463.882 76.4352C464.091 76.279 464.195 76.0498 464.195 75.7477C464.195 75.2894 464.049 74.9508 463.757 74.7321C463.466 74.5029 462.997 74.3883 462.351 74.3883C461.684 74.3883 461.179 74.5185 460.836 74.779C460.502 75.029 460.325 75.4196 460.304 75.9508H458.945C458.987 75.0342 459.309 74.3467 459.914 73.8883C460.518 73.4196 461.362 73.1852 462.445 73.1852ZM460.054 79.4196C460.054 79.805 460.195 80.1071 460.476 80.3258C460.757 80.5342 461.153 80.6383 461.664 80.6383C462.424 80.6383 463.033 80.4508 463.492 80.0758C463.95 79.6904 464.179 79.2633 464.179 78.7946V77.3727C463.95 77.5394 463.653 77.654 463.289 77.7165C462.924 77.7685 462.44 77.8363 461.836 77.9196C461.231 78.0029 460.783 78.1644 460.492 78.404C460.2 78.6435 460.054 78.9821 460.054 79.4196ZM471.773 73.1852C471.804 73.1852 471.83 73.1852 471.851 73.1852C471.882 73.1852 471.919 73.1852 471.961 73.1852V74.6227C470.94 74.6227 470.184 74.8935 469.695 75.4352C469.216 75.9769 468.976 76.8154 468.976 77.9508V81.654H467.617V73.3727H468.898V75.1227H468.929C469.242 74.4665 469.632 73.9821 470.101 73.6696C470.57 73.3467 471.127 73.1852 471.773 73.1852ZM476.14 73.1852C477.328 73.1852 478.25 73.6123 478.906 74.4665C479.562 75.3206 479.89 76.4196 479.89 77.7633V77.9196H473.687V78.029C473.687 78.8102 473.916 79.4404 474.375 79.9196C474.833 80.3988 475.463 80.6383 476.265 80.6383C476.869 80.6383 477.349 80.4977 477.703 80.2165C478.067 79.9352 478.302 79.5394 478.406 79.029H479.75C479.573 79.9456 479.171 80.6488 478.546 81.1383C477.932 81.6175 477.156 81.8571 476.218 81.8571C475.354 81.8571 474.619 81.6592 474.015 81.2633C473.411 80.8675 472.963 80.3206 472.671 79.6227C472.39 78.9144 472.25 78.1956 472.25 77.4665C472.25 76.2477 472.614 75.2321 473.343 74.4196C474.083 73.5967 475.015 73.1852 476.14 73.1852ZM473.687 76.7165H478.437C478.395 76.0498 478.151 75.4977 477.703 75.0602C477.265 74.6123 476.713 74.3883 476.046 74.3883C475.421 74.3883 474.885 74.6019 474.437 75.029C474 75.4456 473.75 76.0081 473.687 76.7165Z" fill="#595959"/>
<path fill-rule="evenodd" clip-rule="evenodd" d="M77.29 221.29C77.29 216.315 81.3231 212.282 86.2981 212.282H252.786C255.175 212.282 257.466 213.231 259.156 214.921C260.845 216.61 261.794 218.901 261.794 221.29V257.321C261.794 262.296 257.761 266.329 252.786 266.329H86.2981C81.3231 266.329 77.29 262.296 77.29 257.321L77.29 221.29Z" stroke="#E62058" stroke-width="2" stroke-miterlimit="10" stroke-linejoin="round"/>
<path d="M142.253 233.744C143.982 233.744 145.31 234.202 146.237 235.119C147.175 236.036 147.644 237.39 147.644 239.181C147.644 241.192 147.18 242.692 146.253 243.681C145.336 244.671 144.003 245.166 142.253 245.166H138.237V233.744H142.253ZM142.347 243.885C143.482 243.885 144.394 243.515 145.081 242.775C145.779 242.025 146.128 240.895 146.128 239.385C146.128 237.874 145.81 236.77 145.175 236.072C144.55 235.374 143.623 235.025 142.394 235.025H139.753V243.885H142.347ZM153.901 233.744L158.37 245.166H156.683L155.448 241.728H150.604L149.323 245.166H147.761L152.229 233.744H153.901ZM153.026 235.119L151.089 240.447H154.964L153.058 235.119H153.026ZM165.448 233.744V243.885H171.495V245.166H163.933V233.744H165.448ZM175.987 236.697C177.112 236.697 177.909 236.9 178.378 237.306C178.857 237.702 179.097 238.239 179.097 238.916C179.097 241.78 179.097 243.369 179.097 243.681C179.097 243.994 179.237 244.15 179.519 244.15C179.581 244.15 179.649 244.145 179.722 244.135C179.795 244.114 179.868 244.093 179.94 244.072V245.135C179.815 245.207 179.67 245.265 179.503 245.306C179.336 245.348 179.159 245.369 178.972 245.369C178.597 245.369 178.31 245.265 178.112 245.056C177.914 244.838 177.815 244.51 177.815 244.072C177.451 244.499 177.024 244.822 176.534 245.041C176.045 245.26 175.498 245.369 174.894 245.369C174.039 245.369 173.368 245.166 172.878 244.76C172.399 244.353 172.159 243.78 172.159 243.041C172.159 242.291 172.394 241.702 172.862 241.275C173.341 240.838 174.461 240.51 176.222 240.291C176.815 240.207 177.216 240.093 177.425 239.947C177.633 239.791 177.737 239.562 177.737 239.26C177.737 238.801 177.591 238.463 177.3 238.244C177.008 238.015 176.539 237.9 175.894 237.9C175.227 237.9 174.722 238.03 174.378 238.291C174.045 238.541 173.868 238.931 173.847 239.463H172.487C172.529 238.546 172.852 237.858 173.456 237.4C174.06 236.931 174.904 236.697 175.987 236.697ZM173.597 242.931C173.597 243.317 173.737 243.619 174.019 243.838C174.3 244.046 174.696 244.15 175.206 244.15C175.966 244.15 176.576 243.963 177.034 243.588C177.493 243.202 177.722 242.775 177.722 242.306V240.885C177.493 241.051 177.196 241.166 176.831 241.228C176.466 241.28 175.982 241.348 175.378 241.431C174.774 241.515 174.326 241.676 174.034 241.916C173.743 242.155 173.597 242.494 173.597 242.931ZM181.847 236.885L184.253 243.65H184.284L186.612 236.885H188.05L184.534 246.056C184.17 247.004 183.815 247.645 183.472 247.978C183.128 248.312 182.654 248.478 182.05 248.478C181.883 248.478 181.722 248.468 181.565 248.447C181.409 248.426 181.258 248.39 181.112 248.338V247.088C181.237 247.129 181.368 247.171 181.503 247.213C181.638 247.254 181.774 247.275 181.909 247.275C182.461 247.275 182.847 246.999 183.065 246.447C183.284 245.895 183.456 245.452 183.581 245.119L180.3 236.885H181.847ZM192.644 236.697C193.831 236.697 194.753 237.124 195.409 237.978C196.065 238.832 196.394 239.931 196.394 241.275V241.431H190.19V241.541C190.19 242.322 190.42 242.952 190.878 243.431C191.336 243.911 191.966 244.15 192.769 244.15C193.373 244.15 193.852 244.01 194.206 243.728C194.571 243.447 194.805 243.051 194.909 242.541H196.253C196.076 243.457 195.675 244.161 195.05 244.65C194.435 245.129 193.659 245.369 192.722 245.369C191.857 245.369 191.123 245.171 190.519 244.775C189.914 244.379 189.466 243.832 189.175 243.135C188.894 242.426 188.753 241.707 188.753 240.978C188.753 239.76 189.118 238.744 189.847 237.931C190.586 237.108 191.519 236.697 192.644 236.697ZM190.19 240.228H194.94C194.899 239.562 194.654 239.01 194.206 238.572C193.769 238.124 193.216 237.9 192.55 237.9C191.925 237.9 191.388 238.114 190.94 238.541C190.503 238.957 190.253 239.52 190.19 240.228ZM201.909 236.697C201.94 236.697 201.966 236.697 201.987 236.697C202.019 236.697 202.055 236.697 202.097 236.697V238.135C201.076 238.135 200.321 238.405 199.831 238.947C199.352 239.489 199.112 240.327 199.112 241.463V245.166H197.753V236.885H199.034V238.635H199.065C199.378 237.978 199.769 237.494 200.237 237.181C200.706 236.858 201.263 236.697 201.909 236.697Z" fill="#595959"/>
<path fill-rule="evenodd" clip-rule="evenodd" d="M343.505 221.29C343.505 216.315 347.538 212.282 352.513 212.282H573.048C575.437 212.282 577.729 213.231 579.418 214.921C581.107 216.61 582.056 218.901 582.056 221.29V257.321C582.056 262.296 578.023 266.329 573.048 266.329H352.513C347.538 266.329 343.505 262.296 343.505 257.321V221.29Z" stroke="#E62058" stroke-width="2" stroke-miterlimit="10" stroke-linejoin="round"/>
<path d="M391.953 233.744V235.025H385.968V238.65H391.218V239.931H385.968V245.166H384.453V233.744H391.953ZM397.656 233.744C399.385 233.744 400.713 234.202 401.64 235.119C402.578 236.036 403.046 237.39 403.046 239.181C403.046 241.192 402.583 242.692 401.656 243.681C400.739 244.671 399.406 245.166 397.656 245.166H393.64V233.744H397.656ZM397.75 243.885C398.885 243.885 399.796 243.515 400.484 242.775C401.182 242.025 401.531 240.895 401.531 239.385C401.531 237.874 401.213 236.77 400.578 236.072C399.953 235.374 399.026 235.025 397.796 235.025H395.156V243.885H397.75ZM409.75 233.463C411.02 233.463 412.078 233.791 412.921 234.447C413.776 235.103 414.286 236.015 414.453 237.181H412.937C412.77 236.4 412.406 235.801 411.843 235.385C411.281 234.957 410.578 234.744 409.734 234.744C408.526 234.744 407.578 235.171 406.89 236.025C406.213 236.879 405.875 237.994 405.875 239.369C405.875 240.827 406.208 241.989 406.875 242.853C407.552 243.718 408.51 244.15 409.75 244.15C410.687 244.15 411.453 243.858 412.046 243.275C412.64 242.681 412.974 241.874 413.046 240.853H414.578C414.411 242.332 413.895 243.468 413.031 244.26C412.166 245.051 411.031 245.447 409.625 245.447C407.989 245.447 406.698 244.905 405.75 243.822C404.812 242.728 404.343 241.28 404.343 239.478C404.343 237.707 404.828 236.265 405.796 235.15C406.776 234.025 408.093 233.463 409.75 233.463ZM425.687 233.744L430.156 245.166H428.468L427.234 241.728H422.39L421.109 245.166H419.546L424.015 233.744H425.687ZM424.812 235.119L422.875 240.447H426.75L424.843 235.119H424.812ZM432.851 234.416V236.885H434.492V238.088H432.851V243.275C432.851 243.681 432.987 243.9 433.257 243.931C433.528 243.952 433.815 243.963 434.117 243.963H434.492V245.166H433.367C432.627 245.166 432.127 245.036 431.867 244.775C431.617 244.504 431.492 244.056 431.492 243.431V238.088H430.07V236.885H431.492V234.416H432.851ZM437.89 234.416V236.885H439.531V238.088H437.89V243.275C437.89 243.681 438.026 243.9 438.296 243.931C438.567 243.952 438.854 243.963 439.156 243.963H439.531V245.166H438.406C437.666 245.166 437.166 245.036 436.906 244.775C436.656 244.504 436.531 244.056 436.531 243.431V238.088H435.109V236.885H436.531V234.416H437.89ZM444.281 236.697C445.468 236.697 446.39 237.124 447.046 237.978C447.703 238.832 448.031 239.931 448.031 241.275V241.431H441.828V241.541C441.828 242.322 442.057 242.952 442.515 243.431C442.974 243.911 443.604 244.15 444.406 244.15C445.01 244.15 445.489 244.01 445.843 243.728C446.208 243.447 446.442 243.051 446.546 242.541H447.89C447.713 243.457 447.312 244.161 446.687 244.65C446.073 245.129 445.296 245.369 444.359 245.369C443.494 245.369 442.76 245.171 442.156 244.775C441.552 244.379 441.104 243.832 440.812 243.135C440.531 242.426 440.39 241.707 440.39 240.978C440.39 239.76 440.755 238.744 441.484 237.931C442.224 237.108 443.156 236.697 444.281 236.697ZM441.828 240.228H446.578C446.536 239.562 446.291 239.01 445.843 238.572C445.406 238.124 444.854 237.9 444.187 237.9C443.562 237.9 443.026 238.114 442.578 238.541C442.14 238.957 441.89 239.52 441.828 240.228ZM452.187 236.697C453.302 236.697 454.13 236.916 454.671 237.353C455.213 237.78 455.51 238.426 455.562 239.291H454.203V239.275C454.161 238.838 453.968 238.499 453.625 238.26C453.281 238.02 452.833 237.9 452.281 237.9C451.739 237.9 451.307 237.994 450.984 238.181C450.671 238.358 450.515 238.614 450.515 238.947C450.515 239.249 450.656 239.499 450.937 239.697C451.218 239.885 451.64 240.041 452.203 240.166L453.484 240.447C454.286 240.624 454.895 240.9 455.312 241.275C455.729 241.64 455.937 242.129 455.937 242.744C455.937 243.556 455.619 244.197 454.984 244.666C454.359 245.135 453.5 245.369 452.406 245.369C451.354 245.369 450.515 245.129 449.89 244.65C449.276 244.171 448.948 243.473 448.906 242.556H450.265C450.286 243.067 450.489 243.463 450.875 243.744C451.27 244.015 451.807 244.15 452.484 244.15C453.14 244.15 453.635 244.046 453.968 243.838C454.312 243.629 454.484 243.322 454.484 242.916C454.484 242.551 454.317 242.26 453.984 242.041C453.651 241.822 452.963 241.608 451.921 241.4C450.88 241.202 450.145 240.916 449.718 240.541C449.291 240.166 449.078 239.671 449.078 239.056C449.078 238.327 449.369 237.754 449.953 237.338C450.546 236.911 451.291 236.697 452.187 236.697ZM459.328 234.416V236.885H460.968V238.088H459.328V243.275C459.328 243.681 459.463 243.9 459.734 243.931C460.005 243.952 460.291 243.963 460.593 243.963H460.968V245.166H459.843C459.104 245.166 458.604 245.036 458.343 244.775C458.093 244.504 457.968 244.056 457.968 243.431V238.088H456.546V236.885H457.968V234.416H459.328ZM465.851 236.697C466.976 236.697 467.773 236.9 468.242 237.306C468.721 237.702 468.961 238.239 468.961 238.916C468.961 241.78 468.961 243.369 468.961 243.681C468.961 243.994 469.101 244.15 469.382 244.15C469.445 244.15 469.513 244.145 469.586 244.135C469.658 244.114 469.731 244.093 469.804 244.072V245.135C469.679 245.207 469.533 245.265 469.367 245.306C469.2 245.348 469.023 245.369 468.836 245.369C468.461 245.369 468.174 245.265 467.976 245.056C467.778 244.838 467.679 244.51 467.679 244.072C467.315 244.499 466.888 244.822 466.398 245.041C465.908 245.26 465.362 245.369 464.757 245.369C463.903 245.369 463.231 245.166 462.742 244.76C462.263 244.353 462.023 243.78 462.023 243.041C462.023 242.291 462.257 241.702 462.726 241.275C463.205 240.838 464.325 240.51 466.086 240.291C466.679 240.207 467.08 240.093 467.289 239.947C467.497 239.791 467.601 239.562 467.601 239.26C467.601 238.801 467.455 238.463 467.164 238.244C466.872 238.015 466.403 237.9 465.757 237.9C465.091 237.9 464.586 238.03 464.242 238.291C463.908 238.541 463.731 238.931 463.711 239.463H462.351C462.393 238.546 462.716 237.858 463.32 237.4C463.924 236.931 464.768 236.697 465.851 236.697ZM463.461 242.931C463.461 243.317 463.601 243.619 463.882 243.838C464.164 244.046 464.559 244.15 465.07 244.15C465.83 244.15 466.44 243.963 466.898 243.588C467.356 243.202 467.586 242.775 467.586 242.306V240.885C467.356 241.051 467.059 241.166 466.695 241.228C466.33 241.28 465.846 241.348 465.242 241.431C464.638 241.515 464.19 241.676 463.898 241.916C463.606 242.155 463.461 242.494 463.461 242.931ZM472.961 234.416V236.885H474.601V238.088H472.961V243.275C472.961 243.681 473.096 243.9 473.367 243.931C473.638 243.952 473.924 243.963 474.226 243.963H474.601V245.166H473.476C472.737 245.166 472.237 245.036 471.976 244.775C471.726 244.504 471.601 244.056 471.601 243.431V238.088H470.179V236.885H471.601V234.416H472.961ZM477.546 233.744V235.4H476.187V233.744H477.546ZM477.546 236.885V245.166H476.187V236.885H477.546ZM483.226 236.697C484.476 236.697 485.455 237.103 486.164 237.916C486.882 238.718 487.242 239.76 487.242 241.041C487.242 242.322 486.877 243.364 486.148 244.166C485.419 244.968 484.445 245.369 483.226 245.369C482.028 245.369 481.059 244.978 480.32 244.197C479.58 243.405 479.211 242.353 479.211 241.041C479.211 239.728 479.57 238.676 480.289 237.885C481.018 237.093 481.997 236.697 483.226 236.697ZM480.648 241.041C480.648 241.989 480.888 242.744 481.367 243.306C481.856 243.869 482.476 244.15 483.226 244.15C483.976 244.15 484.591 243.869 485.07 243.306C485.559 242.733 485.804 241.978 485.804 241.041C485.804 240.093 485.559 239.332 485.07 238.76C484.591 238.187 483.971 237.9 483.211 237.9C482.481 237.9 481.872 238.181 481.382 238.744C480.893 239.306 480.648 240.072 480.648 241.041ZM492.851 236.697C493.851 236.697 494.575 236.952 495.023 237.463C495.471 237.973 495.695 238.702 495.695 239.65V245.166H494.336V239.51C494.336 239.041 494.184 238.655 493.882 238.353C493.591 238.051 493.179 237.9 492.648 237.9C491.877 237.9 491.278 238.135 490.851 238.603C490.424 239.072 490.211 239.681 490.211 240.431V245.166H488.851V236.885H490.132V238.197H490.164C490.466 237.687 490.836 237.312 491.273 237.072C491.711 236.822 492.237 236.697 492.851 236.697ZM507.257 233.463C508.528 233.463 509.586 233.791 510.429 234.447C511.283 235.103 511.794 236.015 511.961 237.181H510.445C510.278 236.4 509.914 235.801 509.351 235.385C508.789 234.957 508.086 234.744 507.242 234.744C506.033 234.744 505.086 235.171 504.398 236.025C503.721 236.879 503.382 237.994 503.382 239.369C503.382 240.827 503.716 241.989 504.382 242.853C505.059 243.718 506.018 244.15 507.257 244.15C508.195 244.15 508.961 243.858 509.554 243.275C510.148 242.681 510.481 241.874 510.554 240.853H512.086C511.919 242.332 511.403 243.468 510.539 244.26C509.674 245.051 508.539 245.447 507.132 245.447C505.497 245.447 504.205 244.905 503.257 243.822C502.32 242.728 501.851 241.28 501.851 239.478C501.851 237.707 502.336 236.265 503.304 235.15C504.283 234.025 505.601 233.463 507.257 233.463ZM515.187 233.744V245.166H513.828V233.744H515.187ZM518.742 233.744V235.4H517.382V233.744H518.742ZM518.742 236.885V245.166H517.382V236.885H518.742ZM524.296 236.697C525.484 236.697 526.406 237.124 527.062 237.978C527.718 238.832 528.046 239.931 528.046 241.275V241.431H521.843V241.541C521.843 242.322 522.072 242.952 522.531 243.431C522.989 243.911 523.619 244.15 524.421 244.15C525.026 244.15 525.505 244.01 525.859 243.728C526.224 243.447 526.458 243.051 526.562 242.541H527.906C527.729 243.457 527.328 244.161 526.703 244.65C526.088 245.129 525.312 245.369 524.375 245.369C523.51 245.369 522.776 245.171 522.171 244.775C521.567 244.379 521.119 243.832 520.828 243.135C520.546 242.426 520.406 241.707 520.406 240.978C520.406 239.76 520.77 238.744 521.5 237.931C522.239 237.108 523.171 236.697 524.296 236.697ZM521.843 240.228H526.593C526.552 239.562 526.307 239.01 525.859 238.572C525.421 238.124 524.869 237.9 524.203 237.9C523.578 237.9 523.041 238.114 522.593 238.541C522.156 238.957 521.906 239.52 521.843 240.228ZM533.453 236.697C534.453 236.697 535.177 236.952 535.625 237.463C536.072 237.973 536.296 238.702 536.296 239.65V245.166H534.937V239.51C534.937 239.041 534.786 238.655 534.484 238.353C534.192 238.051 533.781 237.9 533.25 237.9C532.479 237.9 531.88 238.135 531.453 238.603C531.026 239.072 530.812 239.681 530.812 240.431V245.166H529.453V236.885H530.734V238.197H530.765C531.067 237.687 531.437 237.312 531.875 237.072C532.312 236.822 532.838 236.697 533.453 236.697ZM540.242 234.416V236.885H541.882V238.088H540.242V243.275C540.242 243.681 540.377 243.9 540.648 243.931C540.919 243.952 541.205 243.963 541.507 243.963H541.882V245.166H540.757C540.018 245.166 539.518 245.036 539.257 244.775C539.007 244.504 538.882 244.056 538.882 243.431V238.088H537.461V236.885H538.882V234.416H540.242Z" fill="#595959"/>
<path fill-rule="evenodd" clip-rule="evenodd" d="M171.379 333.637C171.379 328.662 175.412 324.629 180.387 324.629H277.836C280.225 324.629 282.516 325.578 284.205 327.267C285.895 328.956 286.844 331.248 286.844 333.637V369.668C286.844 374.643 282.811 378.676 277.836 378.676H180.387C175.412 378.676 171.379 374.643 171.379 369.668V333.637Z" stroke="#E62058" stroke-width="2" stroke-miterlimit="10" stroke-linejoin="round"/>
<path d="M210.342 346.09C211.759 346.09 212.717 346.377 213.217 346.95C213.727 347.512 213.983 348.158 213.983 348.887C213.983 349.491 213.832 350.017 213.53 350.465C213.238 350.903 212.821 351.231 212.28 351.45V351.481C212.988 351.627 213.53 351.944 213.905 352.434C214.28 352.924 214.467 353.523 214.467 354.231C214.467 355.158 214.139 355.939 213.483 356.575C212.837 357.2 212.024 357.512 211.045 357.512H205.467V346.09H210.342ZM210.108 350.997C210.868 350.997 211.451 350.856 211.858 350.575C212.264 350.283 212.467 349.814 212.467 349.168C212.467 348.564 212.295 348.116 211.951 347.825C211.618 347.523 211.009 347.372 210.123 347.372H206.983V350.997H210.108ZM210.858 356.231C211.472 356.231 211.972 356.049 212.358 355.684C212.743 355.309 212.936 354.809 212.936 354.184C212.936 353.538 212.717 353.059 212.28 352.747C211.842 352.434 211.217 352.278 210.405 352.278H206.983V356.231H210.858ZM217.647 346.09V347.747H216.287V346.09H217.647ZM217.647 349.231V357.512H216.287V349.231H217.647ZM221.655 346.762V349.231H223.295V350.434H221.655V355.622C221.655 356.028 221.79 356.247 222.061 356.278C222.332 356.299 222.618 356.309 222.92 356.309H223.295V357.512H222.17C221.431 357.512 220.931 357.382 220.67 357.122C220.42 356.851 220.295 356.403 220.295 355.778V350.434H218.873V349.231H220.295V346.762H221.655ZM228.256 349.043C229.266 349.043 230.084 349.283 230.709 349.762C231.345 350.241 231.714 350.95 231.819 351.887H230.412C230.308 351.356 230.074 350.95 229.709 350.668C229.355 350.387 228.907 350.247 228.365 350.247C227.522 350.247 226.881 350.528 226.444 351.09C226.006 351.653 225.787 352.45 225.787 353.481C225.787 354.398 226.001 355.132 226.428 355.684C226.865 356.226 227.459 356.497 228.209 356.497C228.865 356.497 229.386 356.319 229.772 355.965C230.157 355.611 230.391 355.116 230.475 354.481H231.865C231.72 355.512 231.334 356.309 230.709 356.872C230.084 357.434 229.256 357.715 228.225 357.715C227.016 357.715 226.069 357.335 225.381 356.575C224.694 355.814 224.35 354.783 224.35 353.481C224.35 352.127 224.699 351.049 225.397 350.247C226.095 349.444 227.048 349.043 228.256 349.043ZM236.959 349.043C238.209 349.043 239.188 349.45 239.897 350.262C240.615 351.064 240.975 352.106 240.975 353.387C240.975 354.668 240.61 355.71 239.881 356.512C239.152 357.314 238.178 357.715 236.959 357.715C235.761 357.715 234.793 357.325 234.053 356.543C233.313 355.752 232.944 354.7 232.944 353.387C232.944 352.075 233.303 351.023 234.022 350.231C234.751 349.439 235.73 349.043 236.959 349.043ZM234.381 353.387C234.381 354.335 234.621 355.09 235.1 355.653C235.589 356.215 236.209 356.497 236.959 356.497C237.709 356.497 238.324 356.215 238.803 355.653C239.293 355.08 239.537 354.325 239.537 353.387C239.537 352.439 239.293 351.679 238.803 351.106C238.324 350.533 237.704 350.247 236.944 350.247C236.214 350.247 235.605 350.528 235.115 351.09C234.626 351.653 234.381 352.418 234.381 353.387ZM244.022 346.09V347.747H242.662V346.09H244.022ZM244.022 349.231V357.512H242.662V349.231H244.022ZM250.139 349.043C251.139 349.043 251.863 349.299 252.311 349.809C252.759 350.319 252.983 351.049 252.983 351.997V357.512H251.623V351.856C251.623 351.387 251.472 351.002 251.17 350.7C250.878 350.398 250.467 350.247 249.936 350.247C249.165 350.247 248.566 350.481 248.139 350.95C247.712 351.418 247.498 352.028 247.498 352.778V357.512H246.139V349.231H247.42V350.543H247.451C247.753 350.033 248.123 349.658 248.561 349.418C248.998 349.168 249.524 349.043 250.139 349.043Z" fill="#595959"/>
<path fill-rule="evenodd" clip-rule="evenodd" d="M315.379 333.637C315.379 328.662 319.412 324.629 324.387 324.629H421.836C424.225 324.629 426.516 325.578 428.205 327.267C429.895 328.956 430.844 331.248 430.844 333.637V369.668C430.844 374.643 426.811 378.676 421.836 378.676H324.387C319.412 378.676 315.379 374.643 315.379 369.668V333.637Z" stroke="#E62058" stroke-width="2" stroke-miterlimit="10" stroke-linejoin="round"/>
<path d="M355.143 346.09L358.002 350.543L360.971 346.09H362.674L358.893 351.637L362.908 357.512H361.049L357.987 352.793L354.815 357.512H353.096L357.08 351.637L353.33 346.09H355.143ZM369.588 346.09C370.578 346.09 371.39 346.356 372.026 346.887C372.661 347.408 372.979 348.137 372.979 349.075C372.979 349.825 372.812 350.45 372.479 350.95C372.156 351.439 371.661 351.778 370.994 351.965V351.997C371.578 352.111 372.005 352.382 372.276 352.809C372.546 353.236 372.703 353.965 372.744 354.997C372.776 355.663 372.838 356.189 372.932 356.575C373.036 356.95 373.187 357.262 373.385 357.512H371.682C371.588 357.387 371.526 357.262 371.494 357.137C371.474 357.012 371.447 356.846 371.416 356.637L371.354 355.372C371.343 354.788 371.218 354.194 370.979 353.59C370.739 352.976 370.218 352.653 369.416 352.622H365.651V357.512H364.135V346.09H369.588ZM368.901 351.356C369.744 351.356 370.38 351.189 370.807 350.856C371.244 350.523 371.463 350.007 371.463 349.309C371.463 348.694 371.291 348.221 370.947 347.887C370.604 347.543 370.119 347.372 369.494 347.372H365.651V351.356H368.901ZM380.174 346.09C381.226 346.09 382.059 346.377 382.674 346.95C383.299 347.512 383.612 348.351 383.612 349.465C383.612 350.58 383.299 351.424 382.674 351.997C382.059 352.559 381.263 352.84 380.283 352.84H376.612V357.512H375.096V346.09H380.174ZM379.752 351.559C380.481 351.559 381.054 351.387 381.471 351.043C381.888 350.7 382.096 350.174 382.096 349.465C382.096 348.757 381.888 348.231 381.471 347.887C381.065 347.543 380.461 347.372 379.658 347.372H376.612V351.559H379.752ZM386.979 346.09V356.231H393.026V357.512H385.463V346.09H386.979Z" fill="#595959"/>
<path fill-rule="evenodd" clip-rule="evenodd" d="M459.379 333.637C459.379 328.662 463.412 324.629 468.387 324.629H565.836C568.225 324.629 570.516 325.578 572.205 327.267C573.895 328.956 574.844 331.248 574.844 333.637V369.668C574.844 374.643 570.811 378.676 565.836 378.676H468.387C463.412 378.676 459.379 374.643 459.379 369.668V333.637Z" stroke="#E62058" stroke-width="2" stroke-miterlimit="10" stroke-linejoin="round"/>
<path d="M488.143 346.09C489.872 346.09 491.2 346.549 492.127 347.465C493.065 348.382 493.533 349.736 493.533 351.528C493.533 353.538 493.07 355.038 492.143 356.028C491.226 357.017 489.893 357.512 488.143 357.512H484.127V346.09H488.143ZM488.237 356.231C489.372 356.231 490.283 355.861 490.971 355.122C491.669 354.372 492.018 353.241 492.018 351.731C492.018 350.221 491.7 349.116 491.065 348.418C490.44 347.721 489.513 347.372 488.283 347.372H485.643V356.231H488.237ZM498.737 349.043C499.987 349.043 500.966 349.45 501.674 350.262C502.393 351.064 502.752 352.106 502.752 353.387C502.752 354.668 502.388 355.71 501.658 356.512C500.929 357.314 499.955 357.715 498.737 357.715C497.539 357.715 496.57 357.325 495.83 356.543C495.091 355.752 494.721 354.7 494.721 353.387C494.721 352.075 495.08 351.023 495.799 350.231C496.528 349.439 497.507 349.043 498.737 349.043ZM496.158 353.387C496.158 354.335 496.398 355.09 496.877 355.653C497.367 356.215 497.987 356.497 498.737 356.497C499.487 356.497 500.101 356.215 500.58 355.653C501.07 355.08 501.315 354.325 501.315 353.387C501.315 352.439 501.07 351.679 500.58 351.106C500.101 350.533 499.481 350.247 498.721 350.247C497.992 350.247 497.382 350.528 496.893 351.09C496.403 351.653 496.158 352.418 496.158 353.387ZM507.721 349.043C508.304 349.043 508.804 349.168 509.221 349.418C509.648 349.668 509.976 350.002 510.205 350.418H510.221V349.231H511.487V356.887C511.487 358.189 511.174 359.179 510.549 359.856C509.924 360.533 508.961 360.872 507.658 360.872C506.711 360.872 505.914 360.663 505.268 360.247C504.622 359.83 504.278 359.231 504.237 358.45H505.596C505.617 358.866 505.841 359.194 506.268 359.434C506.695 359.674 507.184 359.793 507.737 359.793C508.539 359.793 509.153 359.528 509.58 358.997C510.007 358.465 510.221 357.674 510.221 356.622V356.106H510.19C509.971 356.564 509.632 356.929 509.174 357.2C508.716 357.471 508.19 357.606 507.596 357.606C506.481 357.606 505.586 357.221 504.908 356.45C504.242 355.679 503.908 354.668 503.908 353.418C503.908 352.148 504.242 351.101 504.908 350.278C505.586 349.455 506.523 349.043 507.721 349.043ZM505.346 353.247C505.346 354.236 505.549 355.012 505.955 355.575C506.372 356.127 506.95 356.403 507.69 356.403C508.44 356.403 509.033 356.116 509.471 355.543C509.919 354.96 510.143 354.179 510.143 353.2C510.143 352.314 509.934 351.601 509.518 351.059C509.112 350.517 508.533 350.247 507.783 350.247C507.023 350.247 506.424 350.523 505.987 351.075C505.559 351.616 505.346 352.34 505.346 353.247ZM516.987 349.043C518.174 349.043 519.096 349.471 519.752 350.325C520.408 351.179 520.737 352.278 520.737 353.622V353.778H514.533V353.887C514.533 354.668 514.763 355.299 515.221 355.778C515.679 356.257 516.31 356.497 517.112 356.497C517.716 356.497 518.195 356.356 518.549 356.075C518.914 355.793 519.148 355.398 519.252 354.887H520.596C520.419 355.804 520.018 356.507 519.393 356.997C518.778 357.476 518.002 357.715 517.065 357.715C516.2 357.715 515.466 357.517 514.862 357.122C514.257 356.726 513.81 356.179 513.518 355.481C513.237 354.773 513.096 354.054 513.096 353.325C513.096 352.106 513.461 351.09 514.19 350.278C514.929 349.455 515.862 349.043 516.987 349.043ZM514.533 352.575H519.283C519.242 351.908 518.997 351.356 518.549 350.918C518.112 350.471 517.56 350.247 516.893 350.247C516.268 350.247 515.731 350.46 515.283 350.887C514.846 351.304 514.596 351.866 514.533 352.575ZM525.596 349.043C526.606 349.043 527.424 349.283 528.049 349.762C528.685 350.241 529.054 350.95 529.158 351.887H527.752C527.648 351.356 527.414 350.95 527.049 350.668C526.695 350.387 526.247 350.247 525.705 350.247C524.862 350.247 524.221 350.528 523.783 351.09C523.346 351.653 523.127 352.45 523.127 353.481C523.127 354.398 523.341 355.132 523.768 355.684C524.205 356.226 524.799 356.497 525.549 356.497C526.205 356.497 526.726 356.319 527.112 355.965C527.497 355.611 527.731 355.116 527.815 354.481H529.205C529.06 355.512 528.674 356.309 528.049 356.872C527.424 357.434 526.596 357.715 525.565 357.715C524.356 357.715 523.408 357.335 522.721 356.575C522.033 355.814 521.69 354.783 521.69 353.481C521.69 352.127 522.039 351.049 522.737 350.247C523.435 349.444 524.388 349.043 525.596 349.043ZM534.299 349.043C535.549 349.043 536.528 349.45 537.237 350.262C537.955 351.064 538.315 352.106 538.315 353.387C538.315 354.668 537.95 355.71 537.221 356.512C536.492 357.314 535.518 357.715 534.299 357.715C533.101 357.715 532.132 357.325 531.393 356.543C530.653 355.752 530.283 354.7 530.283 353.387C530.283 352.075 530.643 351.023 531.362 350.231C532.091 349.439 533.07 349.043 534.299 349.043ZM531.721 353.387C531.721 354.335 531.961 355.09 532.44 355.653C532.929 356.215 533.549 356.497 534.299 356.497C535.049 356.497 535.664 356.215 536.143 355.653C536.632 355.08 536.877 354.325 536.877 353.387C536.877 352.439 536.632 351.679 536.143 351.106C535.664 350.533 535.044 350.247 534.283 350.247C533.554 350.247 532.945 350.528 532.455 351.09C531.966 351.653 531.721 352.418 531.721 353.387ZM541.362 346.09V347.747H540.002V346.09H541.362ZM541.362 349.231V357.512H540.002V349.231H541.362ZM547.479 349.043C548.479 349.043 549.203 349.299 549.651 349.809C550.099 350.319 550.323 351.049 550.323 351.997V357.512H548.963V351.856C548.963 351.387 548.812 351.002 548.51 350.7C548.218 350.398 547.807 350.247 547.276 350.247C546.505 350.247 545.906 350.481 545.479 350.95C545.052 351.418 544.838 352.028 544.838 352.778V357.512H543.479V349.231H544.76V350.543H544.791C545.093 350.033 545.463 349.658 545.901 349.418C546.338 349.168 546.864 349.043 547.479 349.043Z" fill="#595959"/>
<path fill-rule="evenodd" clip-rule="evenodd" d="M603.379 333.637C603.379 328.662 607.412 324.629 612.387 324.629H709.836C712.225 324.629 714.516 325.578 716.205 327.267C717.895 328.956 718.844 331.248 718.844 333.637V369.668C718.844 374.643 714.811 378.676 709.836 378.676H612.387C607.412 378.676 603.379 374.643 603.379 369.668V333.637Z" stroke="#E62058" stroke-width="2" stroke-miterlimit="10" stroke-linejoin="round"/>
<path d="M636.155 346.09V347.372H629.78V350.997H635.717V352.278H629.78V356.231H636.201V357.512H628.264V346.09H636.155ZM639.42 346.762V349.231H641.061V350.434H639.42V355.622C639.42 356.028 639.556 356.247 639.826 356.278C640.097 356.299 640.384 356.309 640.686 356.309H641.061V357.512H639.936C639.196 357.512 638.696 357.382 638.436 357.122C638.186 356.851 638.061 356.403 638.061 355.778V350.434H636.639V349.231H638.061V346.762H639.42ZM643.928 346.09V350.45H643.959C644.157 350.012 644.49 349.668 644.959 349.418C645.438 349.168 645.975 349.043 646.569 349.043C647.569 349.043 648.293 349.299 648.74 349.809C649.188 350.319 649.412 351.049 649.412 351.997V357.512H648.053V351.856C648.053 351.387 647.902 351.002 647.6 350.7C647.308 350.398 646.897 350.247 646.365 350.247C645.595 350.247 644.996 350.481 644.569 350.95C644.142 351.418 643.928 352.028 643.928 352.778V357.512H642.569V346.09H643.928ZM654.905 349.043C656.092 349.043 657.014 349.471 657.67 350.325C658.326 351.179 658.655 352.278 658.655 353.622V353.778H652.451V353.887C652.451 354.668 652.681 355.299 653.139 355.778C653.597 356.257 654.227 356.497 655.03 356.497C655.634 356.497 656.113 356.356 656.467 356.075C656.832 355.793 657.066 355.398 657.17 354.887H658.514C658.337 355.804 657.936 356.507 657.311 356.997C656.696 357.476 655.92 357.715 654.983 357.715C654.118 357.715 653.384 357.517 652.78 357.122C652.175 356.726 651.727 356.179 651.436 355.481C651.155 354.773 651.014 354.054 651.014 353.325C651.014 352.106 651.378 351.09 652.108 350.278C652.847 349.455 653.78 349.043 654.905 349.043ZM652.451 352.575H657.201C657.16 351.908 656.915 351.356 656.467 350.918C656.03 350.471 655.477 350.247 654.811 350.247C654.186 350.247 653.649 350.46 653.201 350.887C652.764 351.304 652.514 351.866 652.451 352.575ZM664.17 349.043C664.201 349.043 664.227 349.043 664.248 349.043C664.28 349.043 664.316 349.043 664.358 349.043V350.481C663.337 350.481 662.582 350.752 662.092 351.293C661.613 351.835 661.373 352.674 661.373 353.809V357.512H660.014V349.231H661.295V350.981H661.326C661.639 350.325 662.03 349.84 662.498 349.528C662.967 349.205 663.524 349.043 664.17 349.043ZM668.537 349.043C669.725 349.043 670.647 349.471 671.303 350.325C671.959 351.179 672.287 352.278 672.287 353.622V353.778H666.084V353.887C666.084 354.668 666.313 355.299 666.772 355.778C667.23 356.257 667.86 356.497 668.662 356.497C669.267 356.497 669.746 356.356 670.1 356.075C670.464 355.793 670.699 355.398 670.803 354.887H672.147C671.97 355.804 671.569 356.507 670.944 356.997C670.329 357.476 669.553 357.715 668.615 357.715C667.751 357.715 667.017 357.517 666.412 357.122C665.808 356.726 665.36 356.179 665.069 355.481C664.787 354.773 664.647 354.054 664.647 353.325C664.647 352.106 665.011 351.09 665.74 350.278C666.48 349.455 667.412 349.043 668.537 349.043ZM666.084 352.575H670.834C670.793 351.908 670.548 351.356 670.1 350.918C669.662 350.471 669.11 350.247 668.444 350.247C667.819 350.247 667.282 350.46 666.834 350.887C666.397 351.304 666.147 351.866 666.084 352.575ZM675.053 349.231V354.872C675.053 355.34 675.199 355.731 675.49 356.043C675.793 356.346 676.209 356.497 676.74 356.497C677.522 356.497 678.121 356.262 678.537 355.793C678.964 355.314 679.178 354.705 679.178 353.965V349.231H680.537V357.512H679.256V356.2H679.225C678.923 356.721 678.543 357.106 678.084 357.356C677.636 357.596 677.121 357.715 676.537 357.715C675.569 357.715 674.85 357.465 674.381 356.965C673.923 356.465 673.694 355.726 673.694 354.747V349.231H675.053ZM686.576 349.043C687.181 349.043 687.67 349.168 688.045 349.418C688.431 349.658 688.696 350.002 688.842 350.45C689.123 350.012 689.488 349.668 689.936 349.418C690.394 349.168 690.899 349.043 691.451 349.043C692.378 349.043 693.066 349.257 693.514 349.684C693.962 350.101 694.186 350.668 694.186 351.387V357.512H692.826V352.028C692.826 351.434 692.701 350.991 692.451 350.7C692.201 350.398 691.795 350.247 691.233 350.247C690.556 350.247 690.024 350.444 689.639 350.84C689.264 351.236 689.076 351.726 689.076 352.309V357.512H687.701V352.028C687.701 351.434 687.576 350.991 687.326 350.7C687.076 350.398 686.686 350.247 686.155 350.247C685.727 350.247 685.347 350.351 685.014 350.559C684.681 350.767 684.42 351.054 684.233 351.418C684.045 351.773 683.951 352.075 683.951 352.325V357.512H682.592V349.231H683.873V350.45H683.905C684.217 349.981 684.592 349.632 685.03 349.403C685.477 349.163 685.993 349.043 686.576 349.043Z" fill="#595959"/>
<path fill-rule="evenodd" clip-rule="evenodd" d="M747.379 333.637C747.379 328.662 751.412 324.629 756.387 324.629H853.836C856.225 324.629 858.516 325.578 860.205 327.267C861.895 328.956 862.844 331.248 862.844 333.637V369.668C862.844 374.643 858.811 378.676 853.836 378.676H756.387C751.412 378.676 747.379 374.643 747.379 369.668V333.637Z" stroke="#E62058" stroke-width="2" stroke-miterlimit="10" stroke-linejoin="round"/>
<path d="M779.186 345.809C780.3 345.809 781.269 346.069 782.092 346.59C782.915 347.101 783.55 347.819 783.998 348.747C784.446 349.674 784.67 350.689 784.67 351.793C784.67 352.908 784.446 353.929 783.998 354.856C783.55 355.783 782.91 356.507 782.076 357.028C781.253 357.538 780.29 357.793 779.186 357.793C778.092 357.793 777.128 357.538 776.295 357.028C775.472 356.507 774.837 355.788 774.389 354.872C773.941 353.944 773.717 352.918 773.717 351.793C773.717 350.064 774.212 348.637 775.201 347.512C776.201 346.377 777.53 345.809 779.186 345.809ZM775.233 351.793C775.233 352.648 775.389 353.444 775.701 354.184C776.014 354.913 776.467 355.481 777.061 355.887C777.665 356.293 778.373 356.497 779.186 356.497C780.415 356.497 781.378 356.059 782.076 355.184C782.785 354.299 783.139 353.168 783.139 351.793C783.139 350.439 782.79 349.319 782.092 348.434C781.394 347.538 780.42 347.09 779.17 347.09C777.951 347.09 776.988 347.538 776.28 348.434C775.582 349.33 775.233 350.45 775.233 351.793ZM790.373 349.043C791.55 349.043 792.477 349.45 793.155 350.262C793.842 351.075 794.186 352.122 794.186 353.403C794.186 354.684 793.847 355.726 793.17 356.528C792.493 357.319 791.571 357.715 790.405 357.715C789.894 357.715 789.389 357.606 788.889 357.387C788.399 357.168 788.014 356.84 787.733 356.403H787.701V360.684H786.342V349.231H787.701V350.356H787.733C787.941 349.929 788.274 349.606 788.733 349.387C789.201 349.158 789.748 349.043 790.373 349.043ZM787.655 353.372C787.655 354.33 787.884 355.09 788.342 355.653C788.811 356.215 789.451 356.497 790.264 356.497C791.045 356.497 791.649 356.215 792.076 355.653C792.514 355.09 792.733 354.309 792.733 353.309C792.733 352.413 792.503 351.679 792.045 351.106C791.597 350.533 790.972 350.247 790.17 350.247C789.368 350.247 788.748 350.538 788.311 351.122C787.873 351.705 787.655 352.455 787.655 353.372ZM799.217 349.043C800.405 349.043 801.326 349.471 801.983 350.325C802.639 351.179 802.967 352.278 802.967 353.622V353.778H796.764V353.887C796.764 354.668 796.993 355.299 797.451 355.778C797.91 356.257 798.54 356.497 799.342 356.497C799.946 356.497 800.425 356.356 800.78 356.075C801.144 355.793 801.378 355.398 801.483 354.887H802.826C802.649 355.804 802.248 356.507 801.623 356.997C801.009 357.476 800.233 357.715 799.295 357.715C798.431 357.715 797.696 357.517 797.092 357.122C796.488 356.726 796.04 356.179 795.748 355.481C795.467 354.773 795.326 354.054 795.326 353.325C795.326 352.106 795.691 351.09 796.42 350.278C797.16 349.455 798.092 349.043 799.217 349.043ZM796.764 352.575H801.514C801.472 351.908 801.227 351.356 800.78 350.918C800.342 350.471 799.79 350.247 799.123 350.247C798.498 350.247 797.962 350.46 797.514 350.887C797.076 351.304 796.826 351.866 796.764 352.575ZM808.373 349.043C809.373 349.043 810.097 349.299 810.545 349.809C810.993 350.319 811.217 351.049 811.217 351.997V357.512H809.858V351.856C809.858 351.387 809.707 351.002 809.405 350.7C809.113 350.398 808.701 350.247 808.17 350.247C807.399 350.247 806.8 350.481 806.373 350.95C805.946 351.418 805.733 352.028 805.733 352.778V357.512H804.373V349.231H805.655V350.543H805.686C805.988 350.033 806.358 349.658 806.795 349.418C807.233 349.168 807.759 349.043 808.373 349.043ZM818.272 346.09L822.74 357.512H821.053L819.819 354.075H814.975L813.694 357.512H812.131L816.6 346.09H818.272ZM817.397 347.465L815.459 352.793H819.334L817.428 347.465H817.397ZM828.936 346.09C829.988 346.09 830.821 346.377 831.436 346.95C832.061 347.512 832.373 348.351 832.373 349.465C832.373 350.58 832.061 351.424 831.436 351.997C830.821 352.559 830.024 352.84 829.045 352.84H825.373V357.512H823.858V346.09H828.936ZM828.514 351.559C829.243 351.559 829.816 351.387 830.233 351.043C830.649 350.7 830.858 350.174 830.858 349.465C830.858 348.757 830.649 348.231 830.233 347.887C829.826 347.543 829.222 347.372 828.42 347.372H825.373V351.559H828.514ZM835.803 346.09V357.512H834.287V346.09H835.803Z" fill="#595959"/>
<path d="M82.3086 345.396L85.5742 355.287H85.6055L88.9023 345.396H90.4805L86.418 356.818H84.6836L80.6523 345.396H82.3086ZM94.2383 348.349C95.4258 348.349 96.3477 348.776 97.0039 349.63C97.6602 350.485 97.9883 351.584 97.9883 352.927V353.084H91.7852V353.193C91.7852 353.974 92.0143 354.604 92.4727 355.084C92.931 355.563 93.5612 355.802 94.3633 355.802C94.9674 355.802 95.4466 355.662 95.8008 355.38C96.1654 355.099 96.3997 354.703 96.5039 354.193H97.8477C97.6706 355.11 97.2695 355.813 96.6445 356.302C96.0299 356.782 95.2539 357.021 94.3164 357.021C93.4518 357.021 92.7174 356.823 92.1133 356.427C91.5091 356.032 91.0612 355.485 90.7695 354.787C90.4883 354.078 90.3477 353.36 90.3477 352.63C90.3477 351.412 90.7122 350.396 91.4414 349.584C92.181 348.761 93.1133 348.349 94.2383 348.349ZM91.7852 351.88H96.5352C96.4935 351.214 96.2487 350.662 95.8008 350.224C95.3633 349.776 94.8112 349.552 94.1445 349.552C93.5195 349.552 92.9831 349.766 92.5352 350.193C92.0977 350.61 91.8477 351.172 91.7852 351.88ZM103.504 348.349C103.535 348.349 103.561 348.349 103.582 348.349C103.613 348.349 103.65 348.349 103.691 348.349V349.787C102.671 349.787 101.915 350.058 101.426 350.599C100.947 351.141 100.707 351.979 100.707 353.115V356.818H99.3477V348.537H100.629V350.287H100.66C100.973 349.63 101.363 349.146 101.832 348.834C102.301 348.511 102.858 348.349 103.504 348.349ZM106.16 345.396V347.052H104.801V345.396H106.16ZM106.16 348.537V356.818H104.801V348.537H106.16ZM111.105 345.255C111.22 345.255 111.371 345.271 111.559 345.302C111.746 345.323 111.892 345.354 111.996 345.396V346.568C111.892 346.537 111.762 346.511 111.605 346.49C111.46 346.469 111.335 346.459 111.23 346.459C110.855 346.459 110.59 346.537 110.434 346.693C110.277 346.849 110.199 347.068 110.199 347.349V348.537H111.793V349.74H110.199V356.818H108.84V349.74H107.449V348.537H108.84V347.255C108.84 346.641 109.027 346.157 109.402 345.802C109.788 345.438 110.355 345.255 111.105 345.255ZM114.465 345.396V347.052H113.105V345.396H114.465ZM114.465 348.537V356.818H113.105V348.537H114.465ZM120.004 348.349C121.191 348.349 122.113 348.776 122.77 349.63C123.426 350.485 123.754 351.584 123.754 352.927V353.084H117.551V353.193C117.551 353.974 117.78 354.604 118.238 355.084C118.697 355.563 119.327 355.802 120.129 355.802C120.733 355.802 121.212 355.662 121.566 355.38C121.931 355.099 122.165 354.703 122.27 354.193H123.613C123.436 355.11 123.035 355.813 122.41 356.302C121.796 356.782 121.02 357.021 120.082 357.021C119.217 357.021 118.483 356.823 117.879 356.427C117.275 356.032 116.827 355.485 116.535 354.787C116.254 354.078 116.113 353.36 116.113 352.63C116.113 351.412 116.478 350.396 117.207 349.584C117.947 348.761 118.879 348.349 120.004 348.349ZM117.551 351.88H122.301C122.259 351.214 122.014 350.662 121.566 350.224C121.129 349.776 120.577 349.552 119.91 349.552C119.285 349.552 118.749 349.766 118.301 350.193C117.863 350.61 117.613 351.172 117.551 351.88ZM129.27 348.349C129.301 348.349 129.327 348.349 129.348 348.349C129.379 348.349 129.415 348.349 129.457 348.349V349.787C128.436 349.787 127.681 350.058 127.191 350.599C126.712 351.141 126.473 351.979 126.473 353.115V356.818H125.113V348.537H126.395V350.287H126.426C126.738 349.63 127.129 349.146 127.598 348.834C128.066 348.511 128.624 348.349 129.27 348.349ZM133.238 348.349C134.353 348.349 135.181 348.568 135.723 349.005C136.264 349.433 136.561 350.078 136.613 350.943H135.254V350.927C135.212 350.49 135.02 350.151 134.676 349.912C134.332 349.672 133.884 349.552 133.332 349.552C132.79 349.552 132.358 349.646 132.035 349.834C131.723 350.011 131.566 350.266 131.566 350.599C131.566 350.901 131.707 351.151 131.988 351.349C132.27 351.537 132.691 351.693 133.254 351.818L134.535 352.099C135.337 352.276 135.947 352.552 136.363 352.927C136.78 353.292 136.988 353.782 136.988 354.396C136.988 355.209 136.671 355.849 136.035 356.318C135.41 356.787 134.551 357.021 133.457 357.021C132.405 357.021 131.566 356.782 130.941 356.302C130.327 355.823 129.999 355.125 129.957 354.209H131.316C131.337 354.719 131.54 355.115 131.926 355.396C132.322 355.667 132.858 355.802 133.535 355.802C134.191 355.802 134.686 355.698 135.02 355.49C135.363 355.282 135.535 354.974 135.535 354.568C135.535 354.203 135.368 353.912 135.035 353.693C134.702 353.474 134.014 353.261 132.973 353.052C131.931 352.854 131.197 352.568 130.77 352.193C130.342 351.818 130.129 351.323 130.129 350.709C130.129 349.979 130.421 349.407 131.004 348.99C131.598 348.563 132.342 348.349 133.238 348.349Z" fill="#595959"/>
<path d="M343.505 75.7939H318.505V239.322H343.568" stroke="#E62058" stroke-miterlimit="10" stroke-linejoin="round"/>
<path d="M582.056 239.306H607.056V75.8097H585.547" stroke="#E62058" stroke-miterlimit="10" stroke-linejoin="round"/>
<path fill-rule="evenodd" clip-rule="evenodd" d="M585.547 75.8097L586.671 74.6851L583.581 75.8097L586.671 76.9343L585.547 75.8097Z" fill="#E62058" stroke="#E62058" stroke-miterlimit="10"/>
<path d="M607.056 239.306H730.156V75.8097H607.119" stroke="#E62058" stroke-miterlimit="10" stroke-linejoin="round"/>
<path d="M229.112 324.629V295.479H462.781V269.756" stroke="#E62058" stroke-miterlimit="10" stroke-linejoin="round"/>
<path fill-rule="evenodd" clip-rule="evenodd" d="M462.781 269.756L463.905 270.881L462.781 267.791L461.656 270.881L462.781 269.756Z" fill="#E62058" stroke="#E62058" stroke-miterlimit="10"/>
<path d="M373.112 324.629V295.479H462.781V269.756" stroke="#E62058" stroke-miterlimit="10" stroke-linejoin="round"/>
<path fill-rule="evenodd" clip-rule="evenodd" d="M462.781 269.756L463.905 270.881L462.781 267.791L461.656 270.881L462.781 269.756Z" fill="#E62058" stroke="#E62058" stroke-miterlimit="10"/>
<path d="M517.112 324.629V295.479H462.781V269.756" stroke="#E62058" stroke-miterlimit="10" stroke-linejoin="round"/>
<path fill-rule="evenodd" clip-rule="evenodd" d="M462.781 269.756L463.905 270.881L462.781 267.791L461.656 270.881L462.781 269.756Z" fill="#E62058" stroke="#E62058" stroke-miterlimit="10"/>
<path fill-rule="evenodd" clip-rule="evenodd" d="M573.08 144.214H631.033V158.86H573.08V144.214Z" fill="white"/>
<path d="M661.112 324.629V295.479H462.781V269.756" stroke="#E62058" stroke-miterlimit="10" stroke-linejoin="round"/>
<path fill-rule="evenodd" clip-rule="evenodd" d="M462.781 269.756L463.905 270.881L462.781 267.791L461.656 270.881L462.781 269.756Z" fill="#E62058" stroke="#E62058" stroke-miterlimit="10"/>
<path d="M805.112 324.629V295.479H462.781V269.756" stroke="#E62058" stroke-miterlimit="10" stroke-linejoin="round"/>
<path fill-rule="evenodd" clip-rule="evenodd" d="M462.781 269.756L463.905 270.881L462.781 267.791L461.656 270.881L462.781 269.756Z" fill="#E62058" stroke="#E62058" stroke-miterlimit="10"/>
<path d="M265.221 239.306H340.068" stroke="#E62058" stroke-miterlimit="10" stroke-linejoin="round"/>
<path fill-rule="evenodd" clip-rule="evenodd" d="M265.221 239.306L266.346 238.181L263.256 239.306L266.346 240.43L265.221 239.306Z" fill="#E62058" stroke="#E62058" stroke-miterlimit="10"/>
<path fill-rule="evenodd" clip-rule="evenodd" d="M340.068 239.306L338.943 240.43L342.033 239.306L338.943 238.181L340.068 239.306Z" fill="#E62058" stroke="#E62058" stroke-miterlimit="10"/>
<path d="M583.168 147.01C584.105 147.01 584.741 147.203 585.074 147.588C585.418 147.963 585.59 148.39 585.59 148.869C585.59 149.276 585.491 149.63 585.293 149.932C585.095 150.223 584.819 150.442 584.465 150.588V150.604C584.933 150.708 585.293 150.921 585.543 151.244C585.793 151.567 585.918 151.963 585.918 152.432C585.918 153.057 585.699 153.578 585.261 153.994C584.824 154.411 584.282 154.619 583.636 154.619H579.918V147.01H583.168ZM583.011 150.276C583.511 150.276 583.897 150.182 584.168 149.994C584.438 149.807 584.574 149.499 584.574 149.072C584.574 148.666 584.459 148.364 584.23 148.166C584.011 147.968 583.605 147.869 583.011 147.869H580.933V150.276H583.011ZM583.511 153.76C583.918 153.76 584.251 153.64 584.511 153.401C584.772 153.151 584.902 152.817 584.902 152.401C584.902 151.973 584.756 151.656 584.465 151.447C584.173 151.239 583.751 151.135 583.199 151.135H580.933V153.76H583.511ZM588.03 147.01V148.119H587.124V147.01H588.03ZM588.03 149.104V154.619H587.124V149.104H588.03ZM590.695 147.463V149.104H591.788V149.916H590.695V153.354C590.695 153.635 590.783 153.786 590.96 153.807C591.148 153.817 591.34 153.822 591.538 153.822H591.788V154.619H591.054C590.554 154.619 590.215 154.531 590.038 154.354C589.872 154.177 589.788 153.88 589.788 153.463V149.916H588.851V149.104H589.788V147.463H590.695ZM596.168 147.01L598.34 153.604H598.355L600.558 147.01H601.605L598.902 154.619H597.746L595.058 147.01H596.168ZM604.198 148.979C605.031 148.979 605.682 149.249 606.151 149.791C606.63 150.333 606.87 151.026 606.87 151.869C606.87 152.723 606.625 153.416 606.135 153.947C605.656 154.479 605.01 154.744 604.198 154.744C603.396 154.744 602.75 154.484 602.26 153.963C601.771 153.442 601.526 152.744 601.526 151.869C601.526 150.994 601.765 150.296 602.245 149.776C602.724 149.244 603.375 148.979 604.198 148.979ZM602.479 151.869C602.479 152.505 602.64 153.01 602.963 153.385C603.286 153.76 603.698 153.947 604.198 153.947C604.687 153.947 605.094 153.76 605.417 153.385C605.75 152.999 605.917 152.494 605.917 151.869C605.917 151.244 605.755 150.739 605.432 150.354C605.109 149.968 604.693 149.776 604.182 149.776C603.703 149.776 603.297 149.968 602.963 150.354C602.64 150.729 602.479 151.234 602.479 151.869ZM609.192 147.463V149.104H610.286V149.916H609.192V153.354C609.192 153.635 609.28 153.786 609.457 153.807C609.645 153.817 609.838 153.822 610.036 153.822H610.286V154.619H609.551C609.051 154.619 608.713 154.531 608.536 154.354C608.369 154.177 608.286 153.88 608.286 153.463V149.916H607.348V149.104H608.286V147.463H609.192ZM612.251 147.01V148.119H611.345V147.01H612.251ZM612.251 149.104V154.619H611.345V149.104H612.251ZM616.322 148.979C616.988 148.979 617.473 149.151 617.775 149.494C618.077 149.838 618.228 150.322 618.228 150.947V154.619H617.322V150.854C617.322 150.541 617.217 150.286 617.009 150.088C616.811 149.88 616.535 149.776 616.181 149.776C615.681 149.776 615.285 149.937 614.993 150.26C614.712 150.572 614.572 150.979 614.572 151.479V154.619H613.665V149.104H614.509V149.979H614.54C614.738 149.635 614.983 149.385 615.275 149.229C615.566 149.062 615.915 148.979 616.322 148.979ZM621.826 148.979C622.212 148.979 622.545 149.062 622.826 149.229C623.107 149.395 623.326 149.619 623.482 149.901V149.104H624.342V154.213C624.342 155.078 624.133 155.734 623.717 156.182C623.3 156.63 622.654 156.854 621.779 156.854C621.154 156.854 620.623 156.713 620.186 156.432C619.758 156.161 619.529 155.765 619.498 155.244H620.404C620.425 155.526 620.576 155.744 620.857 155.901C621.149 156.057 621.472 156.135 621.826 156.135C622.368 156.135 622.779 155.958 623.061 155.604C623.342 155.249 623.482 154.723 623.482 154.026V153.682H623.467C623.321 153.984 623.092 154.229 622.779 154.416C622.477 154.593 622.133 154.682 621.748 154.682C620.998 154.682 620.399 154.427 619.951 153.916C619.514 153.395 619.295 152.723 619.295 151.901C619.295 151.057 619.514 150.359 619.951 149.807C620.399 149.255 621.024 148.979 621.826 148.979ZM620.248 151.791C620.248 152.437 620.383 152.947 620.654 153.322C620.936 153.697 621.316 153.885 621.795 153.885C622.295 153.885 622.691 153.692 622.982 153.307C623.285 152.921 623.436 152.406 623.436 151.76C623.436 151.166 623.3 150.687 623.029 150.322C622.758 149.958 622.368 149.776 621.857 149.776C621.357 149.776 620.962 149.958 620.67 150.322C620.389 150.687 620.248 151.177 620.248 151.791Z" fill="#595959"/>
<path fill-rule="evenodd" clip-rule="evenodd" d="M223.518 144.214H386.92V158.86H223.518V144.214Z" fill="white"/>
<path d="M245.203 146.822C246.046 146.822 246.75 147.041 247.312 147.479C247.885 147.916 248.223 148.526 248.328 149.307H247.328C247.213 148.786 246.968 148.385 246.593 148.104C246.218 147.822 245.75 147.682 245.187 147.682C244.385 147.682 243.755 147.968 243.296 148.541C242.838 149.104 242.609 149.843 242.609 150.76C242.609 151.729 242.833 152.505 243.281 153.088C243.729 153.661 244.369 153.947 245.203 153.947C245.817 153.947 246.322 153.749 246.718 153.354C247.125 152.958 247.348 152.427 247.39 151.76H248.406C248.302 152.739 247.958 153.494 247.375 154.026C246.802 154.546 246.046 154.807 245.109 154.807C244.026 154.807 243.166 154.447 242.531 153.729C241.906 152.999 241.593 152.036 241.593 150.838C241.593 149.651 241.916 148.687 242.562 147.947C243.218 147.197 244.098 146.822 245.203 146.822ZM251.898 148.979C252.732 148.979 253.383 149.249 253.851 149.791C254.331 150.333 254.57 151.026 254.57 151.869C254.57 152.723 254.325 153.416 253.836 153.947C253.357 154.479 252.711 154.744 251.898 154.744C251.096 154.744 250.45 154.484 249.961 153.963C249.471 153.442 249.226 152.744 249.226 151.869C249.226 150.994 249.466 150.296 249.945 149.776C250.424 149.244 251.075 148.979 251.898 148.979ZM250.179 151.869C250.179 152.505 250.341 153.01 250.664 153.385C250.987 153.76 251.398 153.947 251.898 153.947C252.388 153.947 252.794 153.76 253.117 153.385C253.45 152.999 253.617 152.494 253.617 151.869C253.617 151.244 253.456 150.739 253.133 150.354C252.81 149.968 252.393 149.776 251.883 149.776C251.403 149.776 250.997 149.968 250.664 150.354C250.341 150.729 250.179 151.234 250.179 151.869ZM256.595 147.01V154.619H255.689V147.01H256.595ZM258.963 147.01V154.619H258.057V147.01H258.963ZM262.658 148.979C263.45 148.979 264.065 149.265 264.502 149.838C264.94 150.411 265.158 151.14 265.158 152.026V152.135H261.033V152.197C261.033 152.729 261.185 153.156 261.487 153.479C261.799 153.791 262.221 153.947 262.752 153.947C263.148 153.947 263.466 153.854 263.705 153.666C263.945 153.479 264.101 153.213 264.174 152.869H265.065C264.95 153.484 264.685 153.953 264.268 154.276C263.851 154.588 263.336 154.744 262.721 154.744C262.138 154.744 261.643 154.614 261.237 154.354C260.841 154.093 260.549 153.729 260.362 153.26C260.174 152.791 260.08 152.317 260.08 151.838C260.08 151.026 260.325 150.348 260.815 149.807C261.304 149.255 261.919 148.979 262.658 148.979ZM261.033 151.338H264.19C264.169 150.89 264.007 150.52 263.705 150.229C263.414 149.927 263.044 149.776 262.596 149.776C262.179 149.776 261.825 149.916 261.533 150.197C261.242 150.479 261.075 150.859 261.033 151.338ZM268.398 148.979C269.064 148.979 269.606 149.14 270.023 149.463C270.45 149.786 270.7 150.26 270.773 150.885H269.835C269.762 150.52 269.606 150.244 269.366 150.057C269.127 149.869 268.83 149.776 268.476 149.776C267.913 149.776 267.486 149.968 267.195 150.354C266.903 150.729 266.757 151.255 266.757 151.932C266.757 152.546 266.898 153.036 267.179 153.401C267.471 153.765 267.866 153.947 268.366 153.947C268.804 153.947 269.148 153.828 269.398 153.588C269.658 153.348 269.82 153.02 269.882 152.604H270.804C270.7 153.291 270.439 153.822 270.023 154.197C269.606 154.562 269.054 154.744 268.366 154.744C267.575 154.744 266.95 154.494 266.491 153.994C266.033 153.484 265.804 152.796 265.804 151.932C265.804 151.036 266.033 150.322 266.491 149.791C266.96 149.249 267.596 148.979 268.398 148.979ZM273.074 147.463V149.104H274.168V149.916H273.074V153.354C273.074 153.635 273.163 153.786 273.34 153.807C273.527 153.817 273.72 153.822 273.918 153.822H274.168V154.619H273.434C272.934 154.619 272.595 154.531 272.418 154.354C272.251 154.177 272.168 153.88 272.168 153.463V149.916H271.231V149.104H272.168V147.463H273.074ZM281.469 147.01L284.438 154.619H283.329L282.5 152.322H279.282L278.422 154.619H277.375L280.344 147.01H281.469ZM280.875 147.932L279.594 151.479H282.172L280.907 147.932H280.875ZM286.233 147.463V149.104H287.327V149.916H286.233V153.354C286.233 153.635 286.322 153.786 286.499 153.807C286.686 153.817 286.879 153.822 287.077 153.822H287.327V154.619H286.593C286.093 154.619 285.754 154.531 285.577 154.354C285.41 154.177 285.327 153.88 285.327 153.463V149.916H284.39V149.104H285.327V147.463H286.233ZM289.589 147.463V149.104H290.683V149.916H289.589V153.354C289.589 153.635 289.678 153.786 289.855 153.807C290.043 153.817 290.235 153.822 290.433 153.822H290.683V154.619H289.949C289.449 154.619 289.11 154.531 288.933 154.354C288.766 154.177 288.683 153.88 288.683 153.463V149.916H287.746V149.104H288.683V147.463H289.589ZM293.847 148.979C294.638 148.979 295.253 149.265 295.69 149.838C296.128 150.411 296.347 151.14 296.347 152.026V152.135H292.222V152.197C292.222 152.729 292.373 153.156 292.675 153.479C292.987 153.791 293.409 153.947 293.94 153.947C294.336 153.947 294.654 153.854 294.893 153.666C295.133 153.479 295.289 153.213 295.362 152.869H296.253C296.138 153.484 295.873 153.953 295.456 154.276C295.039 154.588 294.524 154.744 293.909 154.744C293.326 154.744 292.831 154.614 292.425 154.354C292.029 154.093 291.737 153.729 291.55 153.26C291.362 152.791 291.268 152.317 291.268 151.838C291.268 151.026 291.513 150.348 292.003 149.807C292.492 149.255 293.107 148.979 293.847 148.979ZM292.222 151.338H295.378C295.357 150.89 295.196 150.52 294.893 150.229C294.602 149.927 294.232 149.776 293.784 149.776C293.367 149.776 293.013 149.916 292.722 150.197C292.43 150.479 292.263 150.859 292.222 151.338ZM299.117 148.979C299.857 148.979 300.403 149.124 300.758 149.416C301.122 149.708 301.325 150.14 301.367 150.713H300.461V150.697C300.429 150.406 300.299 150.182 300.07 150.026C299.841 149.859 299.544 149.776 299.179 149.776C298.815 149.776 298.528 149.838 298.32 149.963C298.112 150.088 298.008 150.26 298.008 150.479C298.008 150.687 298.101 150.854 298.289 150.979C298.476 151.104 298.758 151.208 299.133 151.291L299.976 151.479C300.508 151.604 300.914 151.786 301.195 152.026C301.476 152.265 301.617 152.593 301.617 153.01C301.617 153.552 301.403 153.979 300.976 154.291C300.56 154.593 299.992 154.744 299.273 154.744C298.565 154.744 298.002 154.588 297.586 154.276C297.179 153.963 296.961 153.499 296.929 152.885H297.836C297.846 153.229 297.982 153.494 298.242 153.682C298.502 153.859 298.862 153.947 299.32 153.947C299.758 153.947 300.086 153.88 300.304 153.744C300.534 153.598 300.648 153.39 300.648 153.119C300.648 152.88 300.534 152.687 300.304 152.541C300.086 152.395 299.633 152.255 298.945 152.119C298.247 151.984 297.758 151.791 297.476 151.541C297.195 151.291 297.054 150.963 297.054 150.557C297.054 150.067 297.247 149.682 297.633 149.401C298.028 149.119 298.523 148.979 299.117 148.979ZM303.867 147.463V149.104H304.961V149.916H303.867V153.354C303.867 153.635 303.956 153.786 304.133 153.807C304.32 153.817 304.513 153.822 304.711 153.822H304.961V154.619H304.226C303.726 154.619 303.388 154.531 303.211 154.354C303.044 154.177 302.961 153.88 302.961 153.463V149.916H302.023V149.104H302.961V147.463H303.867ZM308.223 148.979C308.973 148.979 309.504 149.114 309.817 149.385C310.129 149.656 310.286 150.015 310.286 150.463C310.286 152.369 310.286 153.427 310.286 153.635C310.286 153.843 310.379 153.947 310.567 153.947C310.609 153.947 310.655 153.942 310.707 153.932C310.76 153.921 310.806 153.911 310.848 153.901V154.604C310.765 154.645 310.666 154.677 310.551 154.697C310.447 154.729 310.332 154.744 310.207 154.744C309.957 154.744 309.765 154.677 309.629 154.541C309.494 154.395 309.426 154.182 309.426 153.901C309.187 154.182 308.905 154.395 308.582 154.541C308.26 154.677 307.895 154.744 307.489 154.744C306.926 154.744 306.484 154.614 306.161 154.354C305.838 154.083 305.676 153.697 305.676 153.197C305.676 152.708 305.832 152.317 306.145 152.026C306.457 151.734 307.197 151.515 308.364 151.369C308.76 151.317 309.025 151.244 309.161 151.151C309.306 151.046 309.379 150.895 309.379 150.697C309.379 150.385 309.28 150.156 309.082 150.01C308.895 149.854 308.588 149.776 308.161 149.776C307.713 149.776 307.374 149.864 307.145 150.041C306.926 150.208 306.806 150.468 306.786 150.822H305.879C305.911 150.218 306.124 149.76 306.52 149.447C306.926 149.135 307.494 148.979 308.223 148.979ZM306.629 153.135C306.629 153.395 306.723 153.598 306.911 153.744C307.098 153.88 307.359 153.947 307.692 153.947C308.202 153.947 308.609 153.822 308.911 153.572C309.223 153.312 309.379 153.026 309.379 152.713V151.776C309.223 151.88 309.02 151.953 308.77 151.994C308.53 152.026 308.213 152.072 307.817 152.135C307.411 152.187 307.109 152.296 306.911 152.463C306.723 152.619 306.629 152.843 306.629 153.135ZM312.947 147.463V149.104H314.04V149.916H312.947V153.354C312.947 153.635 313.035 153.786 313.212 153.807C313.4 153.817 313.593 153.822 313.79 153.822H314.04V154.619H313.306C312.806 154.619 312.468 154.531 312.29 154.354C312.124 154.177 312.04 153.88 312.04 153.463V149.916H311.103V149.104H312.04V147.463H312.947ZM316.006 147.01V148.119H315.1V147.01H316.006ZM316.006 149.104V154.619H315.1V149.104H316.006ZM319.795 148.979C320.629 148.979 321.28 149.249 321.748 149.791C322.228 150.333 322.467 151.026 322.467 151.869C322.467 152.723 322.222 153.416 321.733 153.947C321.254 154.479 320.608 154.744 319.795 154.744C318.993 154.744 318.347 154.484 317.858 153.963C317.368 153.442 317.123 152.744 317.123 151.869C317.123 150.994 317.363 150.296 317.842 149.776C318.321 149.244 318.972 148.979 319.795 148.979ZM318.076 151.869C318.076 152.505 318.238 153.01 318.561 153.385C318.884 153.76 319.295 153.947 319.795 153.947C320.285 153.947 320.691 153.76 321.014 153.385C321.347 152.999 321.514 152.494 321.514 151.869C321.514 151.244 321.353 150.739 321.03 150.354C320.707 149.968 320.29 149.776 319.78 149.776C319.3 149.776 318.894 149.968 318.561 150.354C318.238 150.729 318.076 151.234 318.076 151.869ZM326.196 148.979C326.862 148.979 327.347 149.151 327.649 149.494C327.951 149.838 328.102 150.322 328.102 150.947V154.619H327.196V150.854C327.196 150.541 327.091 150.286 326.883 150.088C326.685 149.88 326.409 149.776 326.055 149.776C325.555 149.776 325.159 149.937 324.867 150.26C324.586 150.572 324.446 150.979 324.446 151.479V154.619H323.539V149.104H324.383V149.979H324.414C324.612 149.635 324.857 149.385 325.149 149.229C325.44 149.062 325.789 148.979 326.196 148.979ZM336.192 147.01C336.859 147.01 337.4 147.187 337.817 147.541C338.244 147.885 338.458 148.374 338.458 149.01C338.458 149.51 338.348 149.927 338.13 150.26C337.911 150.583 337.583 150.807 337.145 150.932V150.947C337.531 151.031 337.812 151.213 337.989 151.494C338.176 151.776 338.281 152.26 338.301 152.947C338.322 153.385 338.364 153.734 338.426 153.994C338.499 154.244 338.598 154.453 338.723 154.619H337.598C337.536 154.536 337.494 154.453 337.473 154.369C337.452 154.286 337.437 154.177 337.426 154.041L337.38 153.197C337.369 152.802 337.286 152.406 337.13 152.01C336.973 151.604 336.624 151.39 336.083 151.369H333.583V154.619H332.567V147.01H336.192ZM335.739 150.526C336.301 150.526 336.728 150.416 337.02 150.197C337.312 149.968 337.458 149.624 337.458 149.166C337.458 148.749 337.338 148.432 337.098 148.213C336.869 147.984 336.546 147.869 336.13 147.869H333.583V150.526H335.739ZM342.008 148.979C342.799 148.979 343.414 149.265 343.852 149.838C344.289 150.411 344.508 151.14 344.508 152.026V152.135H340.383V152.197C340.383 152.729 340.534 153.156 340.836 153.479C341.148 153.791 341.57 153.947 342.102 153.947C342.497 153.947 342.815 153.854 343.055 153.666C343.294 153.479 343.451 153.213 343.523 152.869H344.414C344.299 153.484 344.034 153.953 343.617 154.276C343.201 154.588 342.685 154.744 342.07 154.744C341.487 154.744 340.992 154.614 340.586 154.354C340.19 154.093 339.898 153.729 339.711 153.26C339.523 152.791 339.43 152.317 339.43 151.838C339.43 151.026 339.674 150.348 340.164 149.807C340.654 149.255 341.268 148.979 342.008 148.979ZM340.383 151.338H343.539C343.518 150.89 343.357 150.52 343.055 150.229C342.763 149.927 342.393 149.776 341.945 149.776C341.529 149.776 341.174 149.916 340.883 150.197C340.591 150.479 340.424 150.859 340.383 151.338ZM347.653 148.979C348.018 148.979 348.362 149.052 348.684 149.197C349.007 149.343 349.257 149.557 349.434 149.838H349.466V149.104H350.372V156.729H349.466V153.869H349.434C349.299 154.161 349.075 154.38 348.763 154.526C348.45 154.671 348.091 154.744 347.684 154.744C346.914 154.744 346.299 154.479 345.841 153.947C345.382 153.416 345.153 152.718 345.153 151.854C345.153 150.999 345.377 150.307 345.825 149.776C346.273 149.244 346.882 148.979 347.653 148.979ZM346.106 151.916C346.106 152.499 346.257 152.984 346.559 153.369C346.872 153.755 347.289 153.947 347.809 153.947C348.341 153.947 348.752 153.755 349.044 153.369C349.346 152.984 349.497 152.484 349.497 151.869C349.497 151.244 349.346 150.739 349.044 150.354C348.742 149.968 348.309 149.776 347.747 149.776C347.226 149.776 346.82 149.968 346.528 150.354C346.247 150.729 346.106 151.249 346.106 151.916ZM352.673 149.104V152.869C352.673 153.182 352.772 153.442 352.97 153.651C353.168 153.848 353.439 153.947 353.782 153.947C354.303 153.947 354.704 153.791 354.986 153.479C355.277 153.156 355.423 152.749 355.423 152.26V149.104H356.329V154.619H355.47V153.744H355.454C355.246 154.098 354.991 154.354 354.689 154.51C354.387 154.666 354.043 154.744 353.657 154.744C353.012 154.744 352.532 154.583 352.22 154.26C351.918 153.927 351.767 153.432 351.767 152.776V149.104H352.673ZM359.975 148.979C360.766 148.979 361.381 149.265 361.818 149.838C362.256 150.411 362.475 151.14 362.475 152.026V152.135H358.35V152.197C358.35 152.729 358.501 153.156 358.803 153.479C359.115 153.791 359.537 153.947 360.068 153.947C360.464 153.947 360.782 153.854 361.021 153.666C361.261 153.479 361.417 153.213 361.49 152.869H362.381C362.266 153.484 362.001 153.953 361.584 154.276C361.167 154.588 360.652 154.744 360.037 154.744C359.454 154.744 358.959 154.614 358.553 154.354C358.157 154.093 357.865 153.729 357.678 153.26C357.49 152.791 357.396 152.317 357.396 151.838C357.396 151.026 357.641 150.348 358.131 149.807C358.62 149.255 359.235 148.979 359.975 148.979ZM358.35 151.338H361.506C361.485 150.89 361.324 150.52 361.021 150.229C360.73 149.927 360.36 149.776 359.912 149.776C359.495 149.776 359.141 149.916 358.85 150.197C358.558 150.479 358.391 150.859 358.35 151.338ZM365.245 148.979C365.985 148.979 366.532 149.124 366.886 149.416C367.25 149.708 367.453 150.14 367.495 150.713H366.589V150.697C366.558 150.406 366.427 150.182 366.198 150.026C365.969 149.859 365.672 149.776 365.308 149.776C364.943 149.776 364.657 149.838 364.448 149.963C364.24 150.088 364.136 150.26 364.136 150.479C364.136 150.687 364.229 150.854 364.417 150.979C364.604 151.104 364.886 151.208 365.261 151.291L366.104 151.479C366.636 151.604 367.042 151.786 367.323 152.026C367.604 152.265 367.745 152.593 367.745 153.01C367.745 153.552 367.532 153.979 367.104 154.291C366.688 154.593 366.12 154.744 365.401 154.744C364.693 154.744 364.13 154.588 363.714 154.276C363.308 153.963 363.089 153.499 363.058 152.885H363.964C363.974 153.229 364.11 153.494 364.37 153.682C364.63 153.859 364.99 153.947 365.448 153.947C365.886 153.947 366.214 153.88 366.433 153.744C366.662 153.598 366.776 153.39 366.776 153.119C366.776 152.88 366.662 152.687 366.433 152.541C366.214 152.395 365.761 152.255 365.073 152.119C364.375 151.984 363.886 151.791 363.604 151.541C363.323 151.291 363.183 150.963 363.183 150.557C363.183 150.067 363.375 149.682 363.761 149.401C364.157 149.119 364.651 148.979 365.245 148.979ZM369.995 147.463V149.104H371.089V149.916H369.995V153.354C369.995 153.635 370.084 153.786 370.261 153.807C370.448 153.817 370.641 153.822 370.839 153.822H371.089V154.619H370.354C369.854 154.619 369.516 154.531 369.339 154.354C369.172 154.177 369.089 153.88 369.089 153.463V149.916H368.151V149.104H369.089V147.463H369.995ZM373.929 148.979C374.669 148.979 375.216 149.124 375.57 149.416C375.934 149.708 376.138 150.14 376.179 150.713H375.273V150.697C375.242 150.406 375.112 150.182 374.882 150.026C374.653 149.859 374.356 149.776 373.992 149.776C373.627 149.776 373.341 149.838 373.132 149.963C372.924 150.088 372.82 150.26 372.82 150.479C372.82 150.687 372.914 150.854 373.101 150.979C373.289 151.104 373.57 151.208 373.945 151.291L374.789 151.479C375.32 151.604 375.726 151.786 376.007 152.026C376.289 152.265 376.429 152.593 376.429 153.01C376.429 153.552 376.216 153.979 375.789 154.291C375.372 154.593 374.804 154.744 374.086 154.744C373.377 154.744 372.815 154.588 372.398 154.276C371.992 153.963 371.773 153.499 371.742 152.885H372.648C372.658 153.229 372.794 153.494 373.054 153.682C373.315 153.859 373.674 153.947 374.132 153.947C374.57 153.947 374.898 153.88 375.117 153.744C375.346 153.598 375.461 153.39 375.461 153.119C375.461 152.88 375.346 152.687 375.117 152.541C374.898 152.395 374.445 152.255 373.757 152.119C373.059 151.984 372.57 151.791 372.289 151.541C372.007 151.291 371.867 150.963 371.867 150.557C371.867 150.067 372.059 149.682 372.445 149.401C372.841 149.119 373.336 148.979 373.929 148.979Z" fill="#595959"/>
<path fill-rule="evenodd" clip-rule="evenodd" d="M701.051 144.214H759.004V158.86H701.051V144.214Z" fill="white"/>
<path d="M709.214 147.01C709.88 147.01 710.422 147.187 710.839 147.541C711.266 147.885 711.479 148.374 711.479 149.01C711.479 149.51 711.37 149.927 711.151 150.26C710.932 150.583 710.604 150.807 710.167 150.932V150.947C710.552 151.031 710.834 151.213 711.011 151.494C711.198 151.776 711.302 152.26 711.323 152.947C711.344 153.385 711.386 153.734 711.448 153.994C711.521 154.244 711.62 154.453 711.745 154.619H710.62C710.557 154.536 710.516 154.453 710.495 154.369C710.474 154.286 710.459 154.177 710.448 154.041L710.401 153.197C710.391 152.802 710.307 152.406 710.151 152.01C709.995 151.604 709.646 151.39 709.104 151.369H706.604V154.619H705.589V147.01H709.214ZM708.761 150.526C709.323 150.526 709.75 150.416 710.042 150.197C710.334 149.968 710.479 149.624 710.479 149.166C710.479 148.749 710.36 148.432 710.12 148.213C709.891 147.984 709.568 147.869 709.151 147.869H706.604V150.526H708.761ZM715.029 148.979C715.821 148.979 716.436 149.265 716.873 149.838C717.311 150.411 717.529 151.14 717.529 152.026V152.135H713.404V152.197C713.404 152.729 713.556 153.156 713.858 153.479C714.17 153.791 714.592 153.947 715.123 153.947C715.519 153.947 715.837 153.854 716.076 153.666C716.316 153.479 716.472 153.213 716.545 152.869H717.436C717.321 153.484 717.056 153.953 716.639 154.276C716.222 154.588 715.707 154.744 715.092 154.744C714.509 154.744 714.014 154.614 713.608 154.354C713.212 154.093 712.92 153.729 712.733 153.26C712.545 152.791 712.451 152.317 712.451 151.838C712.451 151.026 712.696 150.348 713.186 149.807C713.675 149.255 714.29 148.979 715.029 148.979ZM713.404 151.338H716.561C716.54 150.89 716.378 150.52 716.076 150.229C715.785 149.927 715.415 149.776 714.967 149.776C714.55 149.776 714.196 149.916 713.904 150.197C713.613 150.479 713.446 150.859 713.404 151.338ZM720.3 148.979C721.04 148.979 721.586 149.124 721.941 149.416C722.305 149.708 722.508 150.14 722.55 150.713H721.644V150.697C721.612 150.406 721.482 150.182 721.253 150.026C721.024 149.859 720.727 149.776 720.362 149.776C719.998 149.776 719.711 149.838 719.503 149.963C719.295 150.088 719.191 150.26 719.191 150.479C719.191 150.687 719.284 150.854 719.472 150.979C719.659 151.104 719.941 151.208 720.316 151.291L721.159 151.479C721.691 151.604 722.097 151.786 722.378 152.026C722.659 152.265 722.8 152.593 722.8 153.01C722.8 153.552 722.586 153.979 722.159 154.291C721.743 154.593 721.175 154.744 720.456 154.744C719.748 154.744 719.185 154.588 718.769 154.276C718.362 153.963 718.144 153.499 718.112 152.885H719.019C719.029 153.229 719.165 153.494 719.425 153.682C719.685 153.859 720.045 153.947 720.503 153.947C720.941 153.947 721.269 153.88 721.487 153.744C721.717 153.598 721.831 153.39 721.831 153.119C721.831 152.88 721.717 152.687 721.487 152.541C721.269 152.395 720.816 152.255 720.128 152.119C719.43 151.984 718.941 151.791 718.659 151.541C718.378 151.291 718.237 150.963 718.237 150.557C718.237 150.067 718.43 149.682 718.816 149.401C719.211 149.119 719.706 148.979 720.3 148.979ZM726.175 148.979C727.008 148.979 727.659 149.249 728.128 149.791C728.607 150.333 728.847 151.026 728.847 151.869C728.847 152.723 728.602 153.416 728.112 153.947C727.633 154.479 726.987 154.744 726.175 154.744C725.373 154.744 724.727 154.484 724.237 153.963C723.748 153.442 723.503 152.744 723.503 151.869C723.503 150.994 723.743 150.296 724.222 149.776C724.701 149.244 725.352 148.979 726.175 148.979ZM724.456 151.869C724.456 152.505 724.618 153.01 724.941 153.385C725.263 153.76 725.675 153.947 726.175 153.947C726.665 153.947 727.071 153.76 727.394 153.385C727.727 152.999 727.894 152.494 727.894 151.869C727.894 151.244 727.732 150.739 727.409 150.354C727.086 149.968 726.67 149.776 726.159 149.776C725.68 149.776 725.274 149.968 724.941 150.354C724.618 150.729 724.456 151.234 724.456 151.869ZM730.872 147.01V154.619H729.966V147.01H730.872ZM733.193 149.104V152.869C733.193 153.182 733.292 153.442 733.49 153.651C733.687 153.848 733.958 153.947 734.302 153.947C734.823 153.947 735.224 153.791 735.505 153.479C735.797 153.156 735.943 152.749 735.943 152.26V149.104H736.849V154.619H735.99V153.744H735.974C735.766 154.098 735.51 154.354 735.208 154.51C734.906 154.666 734.562 154.744 734.177 154.744C733.531 154.744 733.052 154.583 732.74 154.26C732.437 153.927 732.286 153.432 732.286 152.776V149.104H733.193ZM739.463 147.463V149.104H740.557V149.916H739.463V153.354C739.463 153.635 739.551 153.786 739.729 153.807C739.916 153.817 740.109 153.822 740.307 153.822H740.557V154.619H739.822C739.322 154.619 738.984 154.531 738.807 154.354C738.64 154.177 738.557 153.88 738.557 153.463V149.916H737.619V149.104H738.557V147.463H739.463ZM742.522 147.01V148.119H741.616V147.01H742.522ZM742.522 149.104V154.619H741.616V149.104H742.522ZM746.312 148.979C747.145 148.979 747.796 149.249 748.265 149.791C748.744 150.333 748.983 151.026 748.983 151.869C748.983 152.723 748.739 153.416 748.249 153.947C747.77 154.479 747.124 154.744 746.312 154.744C745.509 154.744 744.864 154.484 744.374 153.963C743.884 153.442 743.64 152.744 743.64 151.869C743.64 150.994 743.879 150.296 744.358 149.776C744.838 149.244 745.489 148.979 746.312 148.979ZM744.593 151.869C744.593 152.505 744.754 153.01 745.077 153.385C745.4 153.76 745.812 153.947 746.312 153.947C746.801 153.947 747.207 153.76 747.53 153.385C747.864 152.999 748.03 152.494 748.03 151.869C748.03 151.244 747.869 150.739 747.546 150.354C747.223 149.968 746.806 149.776 746.296 149.776C745.817 149.776 745.41 149.968 745.077 150.354C744.754 150.729 744.593 151.234 744.593 151.869ZM752.712 148.979C753.378 148.979 753.863 149.151 754.165 149.494C754.467 149.838 754.618 150.322 754.618 150.947V154.619H753.712V150.854C753.712 150.541 753.608 150.286 753.399 150.088C753.201 149.88 752.925 149.776 752.571 149.776C752.071 149.776 751.675 149.937 751.384 150.26C751.102 150.572 750.962 150.979 750.962 151.479V154.619H750.056V149.104H750.899V149.979H750.931C751.128 149.635 751.373 149.385 751.665 149.229C751.957 149.062 752.306 148.979 752.712 148.979Z" fill="#595959"/>
</g>
</g>
<defs>
<clipPath id="clip0_8_1940">
<rect width="899.528" height="460.724" fill="white" transform="translate(0.5 0.5)"/>
</clipPath>
</defs>
</svg>
