<svg width="900" height="461" viewBox="0 0 900 461" fill="none" xmlns="http://www.w3.org/2000/svg">
<g clip-path="url(#clip0_6_533)">
<mask id="mask0_6_533" style="mask-type:luminance" maskUnits="userSpaceOnUse" x="0" y="0" width="900" height="461">
<path d="M0 0H899.528V460.724H0V0Z" fill="white"/>
</mask>
<g mask="url(#mask0_6_533)">
<path fill-rule="evenodd" clip-rule="evenodd" d="M53.3596 321.675C53.3596 313.482 60.0014 306.84 68.1945 306.84H856.54C860.475 306.84 864.248 308.403 867.03 311.185C869.812 313.967 871.375 317.74 871.375 321.675V381.013C871.375 389.206 864.734 395.848 856.54 395.848H68.1945C60.0014 395.848 53.3596 389.206 53.3596 381.013V321.675Z" stroke="#E62058" stroke-miterlimit="10" stroke-linejoin="round" stroke-dasharray="8 6"/>
<path fill-rule="evenodd" clip-rule="evenodd" d="M343.005 57.2784C343.005 52.3034 347.038 48.2704 352.013 48.2704H572.548C574.937 48.2704 577.229 49.2194 578.918 50.9088C580.607 52.5981 581.556 54.8894 581.556 57.2784V93.3096C581.556 98.2846 577.523 102.318 572.548 102.318H352.013C347.038 102.318 343.005 98.2846 343.005 93.3096V57.2784Z" stroke="#E62058" stroke-miterlimit="10" stroke-linejoin="round"/>
<path d="M453.546 69.7321V71.0133H447.562V74.6383H452.812V75.9196H447.562V81.1539H446.046V69.7321H453.546ZM456.453 69.7321V81.1539H455.093V69.7321H456.453ZM461.945 72.6852C463.07 72.6852 463.867 72.8883 464.336 73.2946C464.815 73.6904 465.054 74.2268 465.054 74.9039C465.054 77.7685 465.054 79.3571 465.054 79.6696C465.054 79.9821 465.195 80.1383 465.476 80.1383C465.539 80.1383 465.606 80.1331 465.679 80.1227C465.752 80.1018 465.825 80.081 465.898 80.0602V81.1227C465.773 81.1956 465.627 81.2529 465.461 81.2946C465.294 81.3362 465.117 81.3571 464.929 81.3571C464.554 81.3571 464.268 81.2529 464.07 81.0446C463.872 80.8258 463.773 80.4977 463.773 80.0602C463.408 80.4873 462.981 80.8102 462.492 81.0289C462.002 81.2477 461.455 81.3571 460.851 81.3571C459.997 81.3571 459.325 81.1539 458.836 80.7477C458.356 80.3414 458.117 79.7685 458.117 79.0289C458.117 78.2789 458.351 77.6904 458.82 77.2633C459.299 76.8258 460.419 76.4977 462.179 76.2789C462.773 76.1956 463.174 76.081 463.382 75.9352C463.591 75.7789 463.695 75.5498 463.695 75.2477C463.695 74.7893 463.549 74.4508 463.257 74.2321C462.966 74.0029 462.497 73.8883 461.851 73.8883C461.184 73.8883 460.679 74.0185 460.336 74.2789C460.002 74.5289 459.825 74.9196 459.804 75.4508H458.445C458.487 74.5341 458.809 73.8466 459.414 73.3883C460.018 72.9196 460.862 72.6852 461.945 72.6852ZM459.554 78.9196C459.554 79.305 459.695 79.6071 459.976 79.8258C460.257 80.0341 460.653 80.1383 461.164 80.1383C461.924 80.1383 462.533 79.9508 462.992 79.5758C463.45 79.1904 463.679 78.7633 463.679 78.2946V76.8727C463.45 77.0393 463.153 77.1539 462.789 77.2164C462.424 77.2685 461.94 77.3362 461.336 77.4196C460.731 77.5029 460.283 77.6643 459.992 77.9039C459.7 78.1435 459.554 78.4821 459.554 78.9196ZM471.273 72.6852C471.304 72.6852 471.33 72.6852 471.351 72.6852C471.382 72.6852 471.419 72.6852 471.461 72.6852V74.1227C470.44 74.1227 469.684 74.3935 469.195 74.9352C468.716 75.4768 468.476 76.3154 468.476 77.4508V81.1539H467.117V72.8727H468.398V74.6227H468.429C468.742 73.9664 469.132 73.4821 469.601 73.1696C470.07 72.8466 470.627 72.6852 471.273 72.6852ZM475.64 72.6852C476.828 72.6852 477.75 73.1123 478.406 73.9664C479.062 74.8206 479.39 75.9196 479.39 77.2633V77.4196H473.187V77.5289C473.187 78.3102 473.416 78.9404 473.875 79.4196C474.333 79.8987 474.963 80.1383 475.765 80.1383C476.369 80.1383 476.849 79.9977 477.203 79.7164C477.567 79.4352 477.802 79.0393 477.906 78.5289H479.25C479.073 79.4456 478.671 80.1487 478.046 80.6383C477.432 81.1175 476.656 81.3571 475.718 81.3571C474.854 81.3571 474.119 81.1591 473.515 80.7633C472.911 80.3675 472.463 79.8206 472.171 79.1227C471.89 78.4143 471.75 77.6956 471.75 76.9664C471.75 75.7477 472.114 74.7321 472.843 73.9196C473.583 73.0966 474.515 72.6852 475.64 72.6852ZM473.187 76.2164H477.937C477.895 75.5498 477.651 74.9977 477.203 74.5602C476.765 74.1123 476.213 73.8883 475.546 73.8883C474.921 73.8883 474.385 74.1018 473.937 74.5289C473.5 74.9456 473.25 75.5081 473.187 76.2164Z" fill="white"/>
<path fill-rule="evenodd" clip-rule="evenodd" d="M76.79 220.79C76.79 215.815 80.8231 211.782 85.7981 211.782H252.286C254.675 211.782 256.966 212.731 258.656 214.421C260.345 216.11 261.294 218.401 261.294 220.79V256.821C261.294 261.796 257.261 265.829 252.286 265.829H85.7981C80.8231 265.829 76.79 261.796 76.79 256.821L76.79 220.79Z" stroke="#E62058" stroke-miterlimit="10" stroke-linejoin="round"/>
<path d="M141.753 233.244C143.482 233.244 144.81 233.702 145.737 234.619C146.675 235.536 147.144 236.89 147.144 238.681C147.144 240.692 146.68 242.192 145.753 243.181C144.836 244.171 143.503 244.666 141.753 244.666H137.737V233.244H141.753ZM141.847 243.385C142.982 243.385 143.894 243.015 144.581 242.275C145.279 241.525 145.628 240.395 145.628 238.885C145.628 237.374 145.31 236.27 144.675 235.572C144.05 234.874 143.123 234.525 141.894 234.525H139.253V243.385H141.847ZM153.401 233.244L157.87 244.666H156.183L154.948 241.228H150.104L148.823 244.666H147.261L151.729 233.244H153.401ZM152.526 234.619L150.589 239.947H154.464L152.558 234.619H152.526ZM164.948 233.244V243.385H170.995V244.666H163.433V233.244H164.948ZM175.487 236.197C176.612 236.197 177.409 236.4 177.878 236.806C178.357 237.202 178.597 237.739 178.597 238.416C178.597 241.28 178.597 242.869 178.597 243.181C178.597 243.494 178.737 243.65 179.019 243.65C179.081 243.65 179.149 243.645 179.222 243.635C179.295 243.614 179.368 243.593 179.44 243.572V244.635C179.315 244.707 179.17 244.765 179.003 244.806C178.836 244.848 178.659 244.869 178.472 244.869C178.097 244.869 177.81 244.765 177.612 244.556C177.414 244.338 177.315 244.01 177.315 243.572C176.951 243.999 176.524 244.322 176.034 244.541C175.545 244.76 174.998 244.869 174.394 244.869C173.539 244.869 172.868 244.666 172.378 244.26C171.899 243.853 171.659 243.28 171.659 242.541C171.659 241.791 171.894 241.202 172.362 240.775C172.841 240.338 173.961 240.01 175.722 239.791C176.315 239.707 176.716 239.593 176.925 239.447C177.133 239.291 177.237 239.062 177.237 238.76C177.237 238.301 177.091 237.963 176.8 237.744C176.508 237.515 176.039 237.4 175.394 237.4C174.727 237.4 174.222 237.53 173.878 237.791C173.545 238.041 173.368 238.431 173.347 238.963H171.987C172.029 238.046 172.352 237.358 172.956 236.9C173.56 236.431 174.404 236.197 175.487 236.197ZM173.097 242.431C173.097 242.817 173.237 243.119 173.519 243.338C173.8 243.546 174.196 243.65 174.706 243.65C175.466 243.65 176.076 243.463 176.534 243.088C176.993 242.702 177.222 242.275 177.222 241.806V240.385C176.993 240.551 176.696 240.666 176.331 240.728C175.966 240.78 175.482 240.848 174.878 240.931C174.274 241.015 173.826 241.176 173.534 241.416C173.243 241.655 173.097 241.994 173.097 242.431ZM181.347 236.385L183.753 243.15H183.784L186.112 236.385H187.55L184.034 245.556C183.67 246.504 183.315 247.145 182.972 247.478C182.628 247.812 182.154 247.978 181.55 247.978C181.383 247.978 181.222 247.968 181.065 247.947C180.909 247.926 180.758 247.89 180.612 247.838V246.588C180.737 246.629 180.868 246.671 181.003 246.713C181.138 246.754 181.274 246.775 181.409 246.775C181.961 246.775 182.347 246.499 182.565 245.947C182.784 245.395 182.956 244.952 183.081 244.619L179.8 236.385H181.347ZM192.144 236.197C193.331 236.197 194.253 236.624 194.909 237.478C195.565 238.332 195.894 239.431 195.894 240.775V240.931H189.69V241.041C189.69 241.822 189.92 242.452 190.378 242.931C190.836 243.411 191.466 243.65 192.269 243.65C192.873 243.65 193.352 243.51 193.706 243.228C194.071 242.947 194.305 242.551 194.409 242.041H195.753C195.576 242.957 195.175 243.661 194.55 244.15C193.935 244.629 193.159 244.869 192.222 244.869C191.357 244.869 190.623 244.671 190.019 244.275C189.414 243.879 188.966 243.332 188.675 242.635C188.394 241.926 188.253 241.207 188.253 240.478C188.253 239.26 188.618 238.244 189.347 237.431C190.086 236.608 191.019 236.197 192.144 236.197ZM189.69 239.728H194.44C194.399 239.062 194.154 238.51 193.706 238.072C193.269 237.624 192.716 237.4 192.05 237.4C191.425 237.4 190.888 237.614 190.44 238.041C190.003 238.457 189.753 239.02 189.69 239.728ZM201.409 236.197C201.44 236.197 201.466 236.197 201.487 236.197C201.519 236.197 201.555 236.197 201.597 236.197V237.635C200.576 237.635 199.821 237.905 199.331 238.447C198.852 238.989 198.612 239.827 198.612 240.963V244.666H197.253V236.385H198.534V238.135H198.565C198.878 237.478 199.269 236.994 199.737 236.681C200.206 236.358 200.763 236.197 201.409 236.197Z" fill="white"/>
<path fill-rule="evenodd" clip-rule="evenodd" d="M343.005 220.79C343.005 215.815 347.038 211.782 352.013 211.782H572.548C574.937 211.782 577.229 212.731 578.918 214.421C580.607 216.11 581.556 218.401 581.556 220.79V256.821C581.556 261.796 577.523 265.829 572.548 265.829H352.013C347.038 265.829 343.005 261.796 343.005 256.821V220.79Z" stroke="#E62058" stroke-miterlimit="10" stroke-linejoin="round"/>
<path d="M391.453 233.244V234.525H385.468V238.15H390.718V239.431H385.468V244.666H383.953V233.244H391.453ZM397.156 233.244C398.885 233.244 400.213 233.702 401.14 234.619C402.078 235.536 402.546 236.89 402.546 238.681C402.546 240.692 402.083 242.192 401.156 243.181C400.239 244.171 398.906 244.666 397.156 244.666H393.14V233.244H397.156ZM397.25 243.385C398.385 243.385 399.296 243.015 399.984 242.275C400.682 241.525 401.031 240.395 401.031 238.885C401.031 237.374 400.713 236.27 400.078 235.572C399.453 234.874 398.526 234.525 397.296 234.525H394.656V243.385H397.25ZM409.25 232.963C410.52 232.963 411.578 233.291 412.421 233.947C413.276 234.603 413.786 235.515 413.953 236.681H412.437C412.27 235.9 411.906 235.301 411.343 234.885C410.781 234.457 410.078 234.244 409.234 234.244C408.026 234.244 407.078 234.671 406.39 235.525C405.713 236.379 405.375 237.494 405.375 238.869C405.375 240.327 405.708 241.489 406.375 242.353C407.052 243.218 408.01 243.65 409.25 243.65C410.187 243.65 410.953 243.358 411.546 242.775C412.14 242.181 412.474 241.374 412.546 240.353H414.078C413.911 241.832 413.395 242.968 412.531 243.76C411.666 244.551 410.531 244.947 409.125 244.947C407.489 244.947 406.198 244.405 405.25 243.322C404.312 242.228 403.843 240.78 403.843 238.978C403.843 237.207 404.328 235.765 405.296 234.65C406.276 233.525 407.593 232.963 409.25 232.963ZM425.187 233.244L429.656 244.666H427.968L426.734 241.228H421.89L420.609 244.666H419.046L423.515 233.244H425.187ZM424.312 234.619L422.375 239.947H426.25L424.343 234.619H424.312ZM432.351 233.916V236.385H433.992V237.588H432.351V242.775C432.351 243.181 432.487 243.4 432.757 243.431C433.028 243.452 433.315 243.463 433.617 243.463H433.992V244.666H432.867C432.127 244.666 431.627 244.536 431.367 244.275C431.117 244.004 430.992 243.556 430.992 242.931V237.588H429.57V236.385H430.992V233.916H432.351ZM437.39 233.916V236.385H439.031V237.588H437.39V242.775C437.39 243.181 437.526 243.4 437.796 243.431C438.067 243.452 438.354 243.463 438.656 243.463H439.031V244.666H437.906C437.166 244.666 436.666 244.536 436.406 244.275C436.156 244.004 436.031 243.556 436.031 242.931V237.588H434.609V236.385H436.031V233.916H437.39ZM443.781 236.197C444.968 236.197 445.89 236.624 446.546 237.478C447.203 238.332 447.531 239.431 447.531 240.775V240.931H441.328V241.041C441.328 241.822 441.557 242.452 442.015 242.931C442.474 243.411 443.104 243.65 443.906 243.65C444.51 243.65 444.989 243.51 445.343 243.228C445.708 242.947 445.942 242.551 446.046 242.041H447.39C447.213 242.957 446.812 243.661 446.187 244.15C445.573 244.629 444.796 244.869 443.859 244.869C442.994 244.869 442.26 244.671 441.656 244.275C441.052 243.879 440.604 243.332 440.312 242.635C440.031 241.926 439.89 241.207 439.89 240.478C439.89 239.26 440.255 238.244 440.984 237.431C441.724 236.608 442.656 236.197 443.781 236.197ZM441.328 239.728H446.078C446.036 239.062 445.791 238.51 445.343 238.072C444.906 237.624 444.354 237.4 443.687 237.4C443.062 237.4 442.526 237.614 442.078 238.041C441.64 238.457 441.39 239.02 441.328 239.728ZM451.687 236.197C452.802 236.197 453.63 236.416 454.171 236.853C454.713 237.28 455.01 237.926 455.062 238.791H453.703V238.775C453.661 238.338 453.468 237.999 453.125 237.76C452.781 237.52 452.333 237.4 451.781 237.4C451.239 237.4 450.807 237.494 450.484 237.681C450.171 237.858 450.015 238.114 450.015 238.447C450.015 238.749 450.156 238.999 450.437 239.197C450.718 239.385 451.14 239.541 451.703 239.666L452.984 239.947C453.786 240.124 454.395 240.4 454.812 240.775C455.229 241.14 455.437 241.629 455.437 242.244C455.437 243.056 455.119 243.697 454.484 244.166C453.859 244.635 453 244.869 451.906 244.869C450.854 244.869 450.015 244.629 449.39 244.15C448.776 243.671 448.448 242.973 448.406 242.056H449.765C449.786 242.567 449.989 242.963 450.375 243.244C450.77 243.515 451.307 243.65 451.984 243.65C452.64 243.65 453.135 243.546 453.468 243.338C453.812 243.129 453.984 242.822 453.984 242.416C453.984 242.051 453.817 241.76 453.484 241.541C453.151 241.322 452.463 241.108 451.421 240.9C450.38 240.702 449.645 240.416 449.218 240.041C448.791 239.666 448.578 239.171 448.578 238.556C448.578 237.827 448.869 237.254 449.453 236.838C450.046 236.411 450.791 236.197 451.687 236.197ZM458.828 233.916V236.385H460.468V237.588H458.828V242.775C458.828 243.181 458.963 243.4 459.234 243.431C459.505 243.452 459.791 243.463 460.093 243.463H460.468V244.666H459.343C458.604 244.666 458.104 244.536 457.843 244.275C457.593 244.004 457.468 243.556 457.468 242.931V237.588H456.046V236.385H457.468V233.916H458.828ZM465.351 236.197C466.476 236.197 467.273 236.4 467.742 236.806C468.221 237.202 468.461 237.739 468.461 238.416C468.461 241.28 468.461 242.869 468.461 243.181C468.461 243.494 468.601 243.65 468.882 243.65C468.945 243.65 469.013 243.645 469.086 243.635C469.158 243.614 469.231 243.593 469.304 243.572V244.635C469.179 244.707 469.033 244.765 468.867 244.806C468.7 244.848 468.523 244.869 468.336 244.869C467.961 244.869 467.674 244.765 467.476 244.556C467.278 244.338 467.179 244.01 467.179 243.572C466.815 243.999 466.388 244.322 465.898 244.541C465.408 244.76 464.862 244.869 464.257 244.869C463.403 244.869 462.731 244.666 462.242 244.26C461.763 243.853 461.523 243.28 461.523 242.541C461.523 241.791 461.757 241.202 462.226 240.775C462.705 240.338 463.825 240.01 465.586 239.791C466.179 239.707 466.58 239.593 466.789 239.447C466.997 239.291 467.101 239.062 467.101 238.76C467.101 238.301 466.955 237.963 466.664 237.744C466.372 237.515 465.903 237.4 465.257 237.4C464.591 237.4 464.086 237.53 463.742 237.791C463.408 238.041 463.231 238.431 463.211 238.963H461.851C461.893 238.046 462.216 237.358 462.82 236.9C463.424 236.431 464.268 236.197 465.351 236.197ZM462.961 242.431C462.961 242.817 463.101 243.119 463.382 243.338C463.664 243.546 464.06 243.65 464.57 243.65C465.33 243.65 465.94 243.463 466.398 243.088C466.856 242.702 467.086 242.275 467.086 241.806V240.385C466.856 240.551 466.56 240.666 466.195 240.728C465.83 240.78 465.346 240.848 464.742 240.931C464.138 241.015 463.69 241.176 463.398 241.416C463.106 241.655 462.961 241.994 462.961 242.431ZM472.461 233.916V236.385H474.101V237.588H472.461V242.775C472.461 243.181 472.596 243.4 472.867 243.431C473.138 243.452 473.424 243.463 473.726 243.463H474.101V244.666H472.976C472.237 244.666 471.737 244.536 471.476 244.275C471.226 244.004 471.101 243.556 471.101 242.931V237.588H469.679V236.385H471.101V233.916H472.461ZM477.046 233.244V234.9H475.687V233.244H477.046ZM477.046 236.385V244.666H475.687V236.385H477.046ZM482.726 236.197C483.976 236.197 484.955 236.603 485.664 237.416C486.382 238.218 486.742 239.26 486.742 240.541C486.742 241.822 486.377 242.864 485.648 243.666C484.919 244.468 483.945 244.869 482.726 244.869C481.528 244.869 480.56 244.478 479.82 243.697C479.08 242.905 478.711 241.853 478.711 240.541C478.711 239.228 479.07 238.176 479.789 237.385C480.518 236.593 481.497 236.197 482.726 236.197ZM480.148 240.541C480.148 241.489 480.388 242.244 480.867 242.806C481.356 243.369 481.976 243.65 482.726 243.65C483.476 243.65 484.091 243.369 484.57 242.806C485.06 242.233 485.304 241.478 485.304 240.541C485.304 239.593 485.06 238.832 484.57 238.26C484.091 237.687 483.471 237.4 482.711 237.4C481.981 237.4 481.372 237.681 480.882 238.244C480.393 238.806 480.148 239.572 480.148 240.541ZM492.351 236.197C493.351 236.197 494.075 236.452 494.523 236.963C494.971 237.473 495.195 238.202 495.195 239.15V244.666H493.836V239.01C493.836 238.541 493.685 238.155 493.382 237.853C493.091 237.551 492.679 237.4 492.148 237.4C491.377 237.4 490.778 237.635 490.351 238.103C489.924 238.572 489.711 239.181 489.711 239.931V244.666H488.351V236.385H489.632V237.697H489.664C489.966 237.187 490.336 236.812 490.773 236.572C491.211 236.322 491.737 236.197 492.351 236.197ZM506.757 232.963C508.028 232.963 509.086 233.291 509.929 233.947C510.783 234.603 511.294 235.515 511.461 236.681H509.945C509.778 235.9 509.414 235.301 508.851 234.885C508.289 234.457 507.586 234.244 506.742 234.244C505.533 234.244 504.586 234.671 503.898 235.525C503.221 236.379 502.882 237.494 502.882 238.869C502.882 240.327 503.216 241.489 503.882 242.353C504.56 243.218 505.518 243.65 506.757 243.65C507.695 243.65 508.461 243.358 509.054 242.775C509.648 242.181 509.981 241.374 510.054 240.353H511.586C511.419 241.832 510.903 242.968 510.039 243.76C509.174 244.551 508.039 244.947 506.632 244.947C504.997 244.947 503.705 244.405 502.757 243.322C501.82 242.228 501.351 240.78 501.351 238.978C501.351 237.207 501.836 235.765 502.804 234.65C503.783 233.525 505.101 232.963 506.757 232.963ZM514.687 233.244V244.666H513.328V233.244H514.687ZM518.242 233.244V234.9H516.882V233.244H518.242ZM518.242 236.385V244.666H516.882V236.385H518.242ZM523.796 236.197C524.984 236.197 525.906 236.624 526.562 237.478C527.218 238.332 527.546 239.431 527.546 240.775V240.931H521.343V241.041C521.343 241.822 521.572 242.452 522.031 242.931C522.489 243.411 523.119 243.65 523.921 243.65C524.526 243.65 525.005 243.51 525.359 243.228C525.724 242.947 525.958 242.551 526.062 242.041H527.406C527.229 242.957 526.828 243.661 526.203 244.15C525.588 244.629 524.812 244.869 523.875 244.869C523.01 244.869 522.276 244.671 521.671 244.275C521.067 243.879 520.619 243.332 520.328 242.635C520.046 241.926 519.906 241.207 519.906 240.478C519.906 239.26 520.27 238.244 521 237.431C521.739 236.608 522.671 236.197 523.796 236.197ZM521.343 239.728H526.093C526.052 239.062 525.807 238.51 525.359 238.072C524.921 237.624 524.369 237.4 523.703 237.4C523.078 237.4 522.541 237.614 522.093 238.041C521.656 238.457 521.406 239.02 521.343 239.728ZM532.953 236.197C533.953 236.197 534.677 236.452 535.125 236.963C535.572 237.473 535.796 238.202 535.796 239.15V244.666H534.437V239.01C534.437 238.541 534.286 238.155 533.984 237.853C533.692 237.551 533.281 237.4 532.75 237.4C531.979 237.4 531.38 237.635 530.953 238.103C530.526 238.572 530.312 239.181 530.312 239.931V244.666H528.953V236.385H530.234V237.697H530.265C530.567 237.187 530.937 236.812 531.375 236.572C531.812 236.322 532.338 236.197 532.953 236.197ZM539.742 233.916V236.385H541.382V237.588H539.742V242.775C539.742 243.181 539.877 243.4 540.148 243.431C540.419 243.452 540.705 243.463 541.007 243.463H541.382V244.666H540.257C539.518 244.666 539.018 244.536 538.757 244.275C538.507 244.004 538.382 243.556 538.382 242.931V237.588H536.961V236.385H538.382V233.916H539.742Z" fill="white"/>
<path fill-rule="evenodd" clip-rule="evenodd" d="M170.879 333.137C170.879 328.162 174.912 324.129 179.887 324.129H277.336C279.725 324.129 282.016 325.078 283.705 326.767C285.395 328.456 286.344 330.748 286.344 333.137V369.168C286.344 374.143 282.311 378.176 277.336 378.176H179.887C174.912 378.176 170.879 374.143 170.879 369.168V333.137Z" stroke="#E62058" stroke-miterlimit="10" stroke-linejoin="round"/>
<path d="M209.842 345.59C211.259 345.59 212.217 345.877 212.717 346.45C213.227 347.012 213.483 347.658 213.483 348.387C213.483 348.991 213.332 349.517 213.03 349.965C212.738 350.403 212.321 350.731 211.78 350.95V350.981C212.488 351.127 213.03 351.444 213.405 351.934C213.78 352.424 213.967 353.023 213.967 353.731C213.967 354.658 213.639 355.439 212.983 356.075C212.337 356.7 211.524 357.012 210.545 357.012H204.967V345.59H209.842ZM209.608 350.497C210.368 350.497 210.951 350.356 211.358 350.075C211.764 349.783 211.967 349.314 211.967 348.668C211.967 348.064 211.795 347.616 211.451 347.325C211.118 347.023 210.509 346.872 209.623 346.872H206.483V350.497H209.608ZM210.358 355.731C210.972 355.731 211.472 355.549 211.858 355.184C212.243 354.809 212.436 354.309 212.436 353.684C212.436 353.038 212.217 352.559 211.78 352.247C211.342 351.934 210.717 351.778 209.905 351.778H206.483V355.731H210.358ZM217.147 345.59V347.247H215.787V345.59H217.147ZM217.147 348.731V357.012H215.787V348.731H217.147ZM221.155 346.262V348.731H222.795V349.934H221.155V355.122C221.155 355.528 221.29 355.747 221.561 355.778C221.832 355.799 222.118 355.809 222.42 355.809H222.795V357.012H221.67C220.931 357.012 220.431 356.882 220.17 356.622C219.92 356.351 219.795 355.903 219.795 355.278V349.934H218.373V348.731H219.795V346.262H221.155ZM227.756 348.543C228.766 348.543 229.584 348.783 230.209 349.262C230.845 349.741 231.214 350.45 231.319 351.387H229.912C229.808 350.856 229.574 350.45 229.209 350.168C228.855 349.887 228.407 349.747 227.865 349.747C227.022 349.747 226.381 350.028 225.944 350.59C225.506 351.153 225.287 351.95 225.287 352.981C225.287 353.898 225.501 354.632 225.928 355.184C226.365 355.726 226.959 355.997 227.709 355.997C228.365 355.997 228.886 355.819 229.272 355.465C229.657 355.111 229.891 354.616 229.975 353.981H231.365C231.22 355.012 230.834 355.809 230.209 356.372C229.584 356.934 228.756 357.215 227.725 357.215C226.516 357.215 225.569 356.835 224.881 356.075C224.194 355.314 223.85 354.283 223.85 352.981C223.85 351.627 224.199 350.549 224.897 349.747C225.595 348.944 226.548 348.543 227.756 348.543ZM236.459 348.543C237.709 348.543 238.688 348.95 239.397 349.762C240.115 350.564 240.475 351.606 240.475 352.887C240.475 354.168 240.11 355.21 239.381 356.012C238.652 356.814 237.678 357.215 236.459 357.215C235.261 357.215 234.293 356.825 233.553 356.043C232.813 355.252 232.444 354.2 232.444 352.887C232.444 351.575 232.803 350.523 233.522 349.731C234.251 348.939 235.23 348.543 236.459 348.543ZM233.881 352.887C233.881 353.835 234.121 354.59 234.6 355.153C235.089 355.715 235.709 355.997 236.459 355.997C237.209 355.997 237.824 355.715 238.303 355.153C238.793 354.58 239.037 353.825 239.037 352.887C239.037 351.939 238.793 351.179 238.303 350.606C237.824 350.033 237.204 349.747 236.444 349.747C235.714 349.747 235.105 350.028 234.615 350.59C234.126 351.153 233.881 351.918 233.881 352.887ZM243.522 345.59V347.247H242.162V345.59H243.522ZM243.522 348.731V357.012H242.162V348.731H243.522ZM249.639 348.543C250.639 348.543 251.363 348.799 251.811 349.309C252.259 349.819 252.483 350.549 252.483 351.497V357.012H251.123V351.356C251.123 350.887 250.972 350.502 250.67 350.2C250.378 349.898 249.967 349.747 249.436 349.747C248.665 349.747 248.066 349.981 247.639 350.45C247.212 350.918 246.998 351.528 246.998 352.278V357.012H245.639V348.731H246.92V350.043H246.951C247.253 349.533 247.623 349.158 248.061 348.918C248.498 348.668 249.024 348.543 249.639 348.543Z" fill="white"/>
<path fill-rule="evenodd" clip-rule="evenodd" d="M314.879 333.137C314.879 328.162 318.912 324.129 323.887 324.129H421.336C423.725 324.129 426.016 325.078 427.705 326.767C429.395 328.456 430.344 330.748 430.344 333.137V369.168C430.344 374.143 426.311 378.176 421.336 378.176H323.887C318.912 378.176 314.879 374.143 314.879 369.168V333.137Z" stroke="#E62058" stroke-miterlimit="10" stroke-linejoin="round"/>
<path d="M354.643 345.59L357.502 350.043L360.471 345.59H362.174L358.393 351.137L362.408 357.012H360.549L357.487 352.293L354.315 357.012H352.596L356.58 351.137L352.83 345.59H354.643ZM369.088 345.59C370.078 345.59 370.89 345.856 371.526 346.387C372.161 346.908 372.479 347.637 372.479 348.575C372.479 349.325 372.312 349.95 371.979 350.45C371.656 350.939 371.161 351.278 370.494 351.465V351.497C371.078 351.611 371.505 351.882 371.776 352.309C372.046 352.736 372.203 353.465 372.244 354.497C372.276 355.163 372.338 355.689 372.432 356.075C372.536 356.45 372.687 356.762 372.885 357.012H371.182C371.088 356.887 371.026 356.762 370.994 356.637C370.974 356.512 370.947 356.346 370.916 356.137L370.854 354.872C370.843 354.288 370.718 353.694 370.479 353.09C370.239 352.476 369.718 352.153 368.916 352.122H365.151V357.012H363.635V345.59H369.088ZM368.401 350.856C369.244 350.856 369.88 350.689 370.307 350.356C370.744 350.023 370.963 349.507 370.963 348.809C370.963 348.194 370.791 347.721 370.447 347.387C370.104 347.043 369.619 346.872 368.994 346.872H365.151V350.856H368.401ZM379.674 345.59C380.726 345.59 381.559 345.877 382.174 346.45C382.799 347.012 383.112 347.851 383.112 348.965C383.112 350.08 382.799 350.924 382.174 351.497C381.559 352.059 380.763 352.34 379.783 352.34H376.112V357.012H374.596V345.59H379.674ZM379.252 351.059C379.981 351.059 380.554 350.887 380.971 350.543C381.388 350.2 381.596 349.674 381.596 348.965C381.596 348.257 381.388 347.731 380.971 347.387C380.565 347.043 379.961 346.872 379.158 346.872H376.112V351.059H379.252ZM386.479 345.59V355.731H392.526V357.012H384.963V345.59H386.479Z" fill="white"/>
<path fill-rule="evenodd" clip-rule="evenodd" d="M458.879 333.137C458.879 328.162 462.912 324.129 467.887 324.129H565.336C567.725 324.129 570.016 325.078 571.705 326.767C573.395 328.456 574.344 330.748 574.344 333.137V369.168C574.344 374.143 570.311 378.176 565.336 378.176H467.887C462.912 378.176 458.879 374.143 458.879 369.168V333.137Z" stroke="#E62058" stroke-miterlimit="10" stroke-linejoin="round"/>
<path d="M487.643 345.59C489.372 345.59 490.7 346.049 491.627 346.965C492.565 347.882 493.033 349.236 493.033 351.028C493.033 353.038 492.57 354.538 491.643 355.528C490.726 356.517 489.393 357.012 487.643 357.012H483.627V345.59H487.643ZM487.737 355.731C488.872 355.731 489.783 355.361 490.471 354.622C491.169 353.872 491.518 352.741 491.518 351.231C491.518 349.721 491.2 348.616 490.565 347.918C489.94 347.221 489.013 346.872 487.783 346.872H485.143V355.731H487.737ZM498.237 348.543C499.487 348.543 500.466 348.95 501.174 349.762C501.893 350.564 502.252 351.606 502.252 352.887C502.252 354.168 501.888 355.21 501.158 356.012C500.429 356.814 499.455 357.215 498.237 357.215C497.039 357.215 496.07 356.825 495.33 356.043C494.591 355.252 494.221 354.2 494.221 352.887C494.221 351.575 494.58 350.523 495.299 349.731C496.028 348.939 497.007 348.543 498.237 348.543ZM495.658 352.887C495.658 353.835 495.898 354.59 496.377 355.153C496.867 355.715 497.487 355.997 498.237 355.997C498.987 355.997 499.601 355.715 500.08 355.153C500.57 354.58 500.815 353.825 500.815 352.887C500.815 351.939 500.57 351.179 500.08 350.606C499.601 350.033 498.981 349.747 498.221 349.747C497.492 349.747 496.882 350.028 496.393 350.59C495.903 351.153 495.658 351.918 495.658 352.887ZM507.221 348.543C507.804 348.543 508.304 348.668 508.721 348.918C509.148 349.168 509.476 349.502 509.705 349.918H509.721V348.731H510.987V356.387C510.987 357.689 510.674 358.679 510.049 359.356C509.424 360.033 508.461 360.372 507.158 360.372C506.211 360.372 505.414 360.163 504.768 359.747C504.122 359.33 503.778 358.731 503.737 357.95H505.096C505.117 358.366 505.341 358.694 505.768 358.934C506.195 359.174 506.684 359.293 507.237 359.293C508.039 359.293 508.653 359.028 509.08 358.497C509.507 357.965 509.721 357.174 509.721 356.122V355.606H509.69C509.471 356.064 509.132 356.429 508.674 356.7C508.216 356.971 507.69 357.106 507.096 357.106C505.981 357.106 505.086 356.721 504.408 355.95C503.742 355.179 503.408 354.168 503.408 352.918C503.408 351.648 503.742 350.601 504.408 349.778C505.086 348.955 506.023 348.543 507.221 348.543ZM504.846 352.747C504.846 353.736 505.049 354.512 505.455 355.075C505.872 355.627 506.45 355.903 507.19 355.903C507.94 355.903 508.533 355.616 508.971 355.043C509.419 354.46 509.643 353.679 509.643 352.7C509.643 351.814 509.434 351.101 509.018 350.559C508.612 350.017 508.033 349.747 507.283 349.747C506.523 349.747 505.924 350.023 505.487 350.575C505.059 351.116 504.846 351.84 504.846 352.747ZM516.487 348.543C517.674 348.543 518.596 348.971 519.252 349.825C519.908 350.679 520.237 351.778 520.237 353.122V353.278H514.033V353.387C514.033 354.168 514.263 354.799 514.721 355.278C515.179 355.757 515.81 355.997 516.612 355.997C517.216 355.997 517.695 355.856 518.049 355.575C518.414 355.293 518.648 354.898 518.752 354.387H520.096C519.919 355.304 519.518 356.007 518.893 356.497C518.278 356.976 517.502 357.215 516.565 357.215C515.7 357.215 514.966 357.017 514.362 356.622C513.757 356.226 513.31 355.679 513.018 354.981C512.737 354.273 512.596 353.554 512.596 352.825C512.596 351.606 512.961 350.59 513.69 349.778C514.429 348.955 515.362 348.543 516.487 348.543ZM514.033 352.075H518.783C518.742 351.408 518.497 350.856 518.049 350.418C517.612 349.971 517.06 349.747 516.393 349.747C515.768 349.747 515.231 349.96 514.783 350.387C514.346 350.804 514.096 351.366 514.033 352.075ZM525.096 348.543C526.106 348.543 526.924 348.783 527.549 349.262C528.185 349.741 528.554 350.45 528.658 351.387H527.252C527.148 350.856 526.914 350.45 526.549 350.168C526.195 349.887 525.747 349.747 525.205 349.747C524.362 349.747 523.721 350.028 523.283 350.59C522.846 351.153 522.627 351.95 522.627 352.981C522.627 353.898 522.841 354.632 523.268 355.184C523.705 355.726 524.299 355.997 525.049 355.997C525.705 355.997 526.226 355.819 526.612 355.465C526.997 355.111 527.231 354.616 527.315 353.981H528.705C528.56 355.012 528.174 355.809 527.549 356.372C526.924 356.934 526.096 357.215 525.065 357.215C523.856 357.215 522.908 356.835 522.221 356.075C521.533 355.314 521.19 354.283 521.19 352.981C521.19 351.627 521.539 350.549 522.237 349.747C522.935 348.944 523.888 348.543 525.096 348.543ZM533.799 348.543C535.049 348.543 536.028 348.95 536.737 349.762C537.455 350.564 537.815 351.606 537.815 352.887C537.815 354.168 537.45 355.21 536.721 356.012C535.992 356.814 535.018 357.215 533.799 357.215C532.601 357.215 531.632 356.825 530.893 356.043C530.153 355.252 529.783 354.2 529.783 352.887C529.783 351.575 530.143 350.523 530.862 349.731C531.591 348.939 532.57 348.543 533.799 348.543ZM531.221 352.887C531.221 353.835 531.461 354.59 531.94 355.153C532.429 355.715 533.049 355.997 533.799 355.997C534.549 355.997 535.164 355.715 535.643 355.153C536.132 354.58 536.377 353.825 536.377 352.887C536.377 351.939 536.132 351.179 535.643 350.606C535.164 350.033 534.544 349.747 533.783 349.747C533.054 349.747 532.445 350.028 531.955 350.59C531.466 351.153 531.221 351.918 531.221 352.887ZM540.862 345.59V347.247H539.502V345.59H540.862ZM540.862 348.731V357.012H539.502V348.731H540.862ZM546.979 348.543C547.979 348.543 548.703 348.799 549.151 349.309C549.599 349.819 549.823 350.549 549.823 351.497V357.012H548.463V351.356C548.463 350.887 548.312 350.502 548.01 350.2C547.718 349.898 547.307 349.747 546.776 349.747C546.005 349.747 545.406 349.981 544.979 350.45C544.552 350.918 544.338 351.528 544.338 352.278V357.012H542.979V348.731H544.26V350.043H544.291C544.593 349.533 544.963 349.158 545.401 348.918C545.838 348.668 546.364 348.543 546.979 348.543Z" fill="white"/>
<path fill-rule="evenodd" clip-rule="evenodd" d="M602.879 333.137C602.879 328.162 606.912 324.129 611.887 324.129H709.336C711.725 324.129 714.016 325.078 715.705 326.767C717.395 328.456 718.344 330.748 718.344 333.137V369.168C718.344 374.143 714.311 378.176 709.336 378.176H611.887C606.912 378.176 602.879 374.143 602.879 369.168V333.137Z" stroke="#E62058" stroke-miterlimit="10" stroke-linejoin="round"/>
<path d="M635.655 345.59V346.872H629.28V350.497H635.217V351.778H629.28V355.731H635.701V357.012H627.764V345.59H635.655ZM638.92 346.262V348.731H640.561V349.934H638.92V355.122C638.92 355.528 639.056 355.747 639.326 355.778C639.597 355.799 639.884 355.809 640.186 355.809H640.561V357.012H639.436C638.696 357.012 638.196 356.882 637.936 356.622C637.686 356.351 637.561 355.903 637.561 355.278V349.934H636.139V348.731H637.561V346.262H638.92ZM643.428 345.59V349.95H643.459C643.657 349.512 643.99 349.168 644.459 348.918C644.938 348.668 645.475 348.543 646.069 348.543C647.069 348.543 647.793 348.799 648.24 349.309C648.688 349.819 648.912 350.549 648.912 351.497V357.012H647.553V351.356C647.553 350.887 647.402 350.502 647.1 350.2C646.808 349.898 646.397 349.747 645.865 349.747C645.095 349.747 644.496 349.981 644.069 350.45C643.642 350.918 643.428 351.528 643.428 352.278V357.012H642.069V345.59H643.428ZM654.405 348.543C655.592 348.543 656.514 348.971 657.17 349.825C657.826 350.679 658.155 351.778 658.155 353.122V353.278H651.951V353.387C651.951 354.168 652.181 354.799 652.639 355.278C653.097 355.757 653.727 355.997 654.53 355.997C655.134 355.997 655.613 355.856 655.967 355.575C656.332 355.293 656.566 354.898 656.67 354.387H658.014C657.837 355.304 657.436 356.007 656.811 356.497C656.196 356.976 655.42 357.215 654.483 357.215C653.618 357.215 652.884 357.017 652.28 356.622C651.675 356.226 651.227 355.679 650.936 354.981C650.655 354.273 650.514 353.554 650.514 352.825C650.514 351.606 650.878 350.59 651.608 349.778C652.347 348.955 653.28 348.543 654.405 348.543ZM651.951 352.075H656.701C656.66 351.408 656.415 350.856 655.967 350.418C655.53 349.971 654.977 349.747 654.311 349.747C653.686 349.747 653.149 349.96 652.701 350.387C652.264 350.804 652.014 351.366 651.951 352.075ZM663.67 348.543C663.701 348.543 663.727 348.543 663.748 348.543C663.78 348.543 663.816 348.543 663.858 348.543V349.981C662.837 349.981 662.082 350.252 661.592 350.793C661.113 351.335 660.873 352.174 660.873 353.309V357.012H659.514V348.731H660.795V350.481H660.826C661.139 349.825 661.53 349.34 661.998 349.028C662.467 348.705 663.024 348.543 663.67 348.543ZM668.037 348.543C669.225 348.543 670.147 348.971 670.803 349.825C671.459 350.679 671.787 351.778 671.787 353.122V353.278H665.584V353.387C665.584 354.168 665.813 354.799 666.272 355.278C666.73 355.757 667.36 355.997 668.162 355.997C668.767 355.997 669.246 355.856 669.6 355.575C669.964 355.293 670.199 354.898 670.303 354.387H671.647C671.47 355.304 671.069 356.007 670.444 356.497C669.829 356.976 669.053 357.215 668.115 357.215C667.251 357.215 666.517 357.017 665.912 356.622C665.308 356.226 664.86 355.679 664.569 354.981C664.287 354.273 664.147 353.554 664.147 352.825C664.147 351.606 664.511 350.59 665.24 349.778C665.98 348.955 666.912 348.543 668.037 348.543ZM665.584 352.075H670.334C670.293 351.408 670.048 350.856 669.6 350.418C669.162 349.971 668.61 349.747 667.944 349.747C667.319 349.747 666.782 349.96 666.334 350.387C665.897 350.804 665.647 351.366 665.584 352.075ZM674.553 348.731V354.372C674.553 354.84 674.699 355.231 674.99 355.543C675.293 355.846 675.709 355.997 676.24 355.997C677.022 355.997 677.621 355.762 678.037 355.293C678.464 354.814 678.678 354.205 678.678 353.465V348.731H680.037V357.012H678.756V355.7H678.725C678.423 356.221 678.043 356.606 677.584 356.856C677.136 357.096 676.621 357.215 676.037 357.215C675.069 357.215 674.35 356.965 673.881 356.465C673.423 355.965 673.194 355.226 673.194 354.247V348.731H674.553ZM686.076 348.543C686.681 348.543 687.17 348.668 687.545 348.918C687.931 349.158 688.196 349.502 688.342 349.95C688.623 349.512 688.988 349.168 689.436 348.918C689.894 348.668 690.399 348.543 690.951 348.543C691.879 348.543 692.566 348.757 693.014 349.184C693.462 349.601 693.686 350.168 693.686 350.887V357.012H692.326V351.528C692.326 350.934 692.201 350.491 691.951 350.2C691.701 349.898 691.295 349.747 690.733 349.747C690.056 349.747 689.524 349.944 689.139 350.34C688.764 350.736 688.576 351.226 688.576 351.809V357.012H687.201V351.528C687.201 350.934 687.076 350.491 686.826 350.2C686.576 349.898 686.186 349.747 685.655 349.747C685.227 349.747 684.847 349.851 684.514 350.059C684.181 350.267 683.92 350.554 683.733 350.918C683.545 351.273 683.451 351.575 683.451 351.825V357.012H682.092V348.731H683.373V349.95H683.405C683.717 349.481 684.092 349.132 684.53 348.903C684.977 348.663 685.493 348.543 686.076 348.543Z" fill="white"/>
<path fill-rule="evenodd" clip-rule="evenodd" d="M746.879 333.137C746.879 328.162 750.912 324.129 755.887 324.129H853.336C855.725 324.129 858.016 325.078 859.705 326.767C861.395 328.456 862.344 330.748 862.344 333.137V369.168C862.344 374.143 858.311 378.176 853.336 378.176H755.887C750.912 378.176 746.879 374.143 746.879 369.168V333.137Z" stroke="#E62058" stroke-miterlimit="10" stroke-linejoin="round"/>
<path d="M778.686 345.309C779.8 345.309 780.769 345.569 781.592 346.09C782.415 346.601 783.05 347.319 783.498 348.247C783.946 349.174 784.17 350.189 784.17 351.293C784.17 352.408 783.946 353.429 783.498 354.356C783.05 355.283 782.41 356.007 781.576 356.528C780.753 357.038 779.79 357.293 778.686 357.293C777.592 357.293 776.628 357.038 775.795 356.528C774.972 356.007 774.337 355.288 773.889 354.372C773.441 353.444 773.217 352.418 773.217 351.293C773.217 349.564 773.712 348.137 774.701 347.012C775.701 345.877 777.03 345.309 778.686 345.309ZM774.733 351.293C774.733 352.148 774.889 352.944 775.201 353.684C775.514 354.413 775.967 354.981 776.561 355.387C777.165 355.793 777.873 355.997 778.686 355.997C779.915 355.997 780.878 355.559 781.576 354.684C782.285 353.799 782.639 352.668 782.639 351.293C782.639 349.939 782.29 348.819 781.592 347.934C780.894 347.038 779.92 346.59 778.67 346.59C777.451 346.59 776.488 347.038 775.78 347.934C775.082 348.83 774.733 349.95 774.733 351.293ZM789.873 348.543C791.05 348.543 791.977 348.95 792.655 349.762C793.342 350.575 793.686 351.622 793.686 352.903C793.686 354.184 793.347 355.226 792.67 356.028C791.993 356.819 791.071 357.215 789.905 357.215C789.394 357.215 788.889 357.106 788.389 356.887C787.899 356.668 787.514 356.34 787.233 355.903H787.201V360.184H785.842V348.731H787.201V349.856H787.233C787.441 349.429 787.774 349.106 788.233 348.887C788.701 348.658 789.248 348.543 789.873 348.543ZM787.155 352.872C787.155 353.83 787.384 354.59 787.842 355.153C788.311 355.715 788.951 355.997 789.764 355.997C790.545 355.997 791.149 355.715 791.576 355.153C792.014 354.59 792.233 353.809 792.233 352.809C792.233 351.913 792.003 351.179 791.545 350.606C791.097 350.033 790.472 349.747 789.67 349.747C788.868 349.747 788.248 350.038 787.811 350.622C787.373 351.205 787.155 351.955 787.155 352.872ZM798.717 348.543C799.905 348.543 800.826 348.971 801.483 349.825C802.139 350.679 802.467 351.778 802.467 353.122V353.278H796.264V353.387C796.264 354.168 796.493 354.799 796.951 355.278C797.41 355.757 798.04 355.997 798.842 355.997C799.446 355.997 799.925 355.856 800.28 355.575C800.644 355.293 800.878 354.898 800.983 354.387H802.326C802.149 355.304 801.748 356.007 801.123 356.497C800.509 356.976 799.733 357.215 798.795 357.215C797.931 357.215 797.196 357.017 796.592 356.622C795.988 356.226 795.54 355.679 795.248 354.981C794.967 354.273 794.826 353.554 794.826 352.825C794.826 351.606 795.191 350.59 795.92 349.778C796.66 348.955 797.592 348.543 798.717 348.543ZM796.264 352.075H801.014C800.972 351.408 800.727 350.856 800.28 350.418C799.842 349.971 799.29 349.747 798.623 349.747C797.998 349.747 797.462 349.96 797.014 350.387C796.576 350.804 796.326 351.366 796.264 352.075ZM807.873 348.543C808.873 348.543 809.597 348.799 810.045 349.309C810.493 349.819 810.717 350.549 810.717 351.497V357.012H809.358V351.356C809.358 350.887 809.207 350.502 808.905 350.2C808.613 349.898 808.201 349.747 807.67 349.747C806.899 349.747 806.3 349.981 805.873 350.45C805.446 350.918 805.233 351.528 805.233 352.278V357.012H803.873V348.731H805.155V350.043H805.186C805.488 349.533 805.858 349.158 806.295 348.918C806.733 348.668 807.259 348.543 807.873 348.543ZM817.772 345.59L822.24 357.012H820.553L819.319 353.575H814.475L813.194 357.012H811.631L816.1 345.59H817.772ZM816.897 346.965L814.959 352.293H818.834L816.928 346.965H816.897ZM828.436 345.59C829.488 345.59 830.321 345.877 830.936 346.45C831.561 347.012 831.873 347.851 831.873 348.965C831.873 350.08 831.561 350.924 830.936 351.497C830.321 352.059 829.524 352.34 828.545 352.34H824.873V357.012H823.358V345.59H828.436ZM828.014 351.059C828.743 351.059 829.316 350.887 829.733 350.543C830.149 350.2 830.358 349.674 830.358 348.965C830.358 348.257 830.149 347.731 829.733 347.387C829.326 347.043 828.722 346.872 827.92 346.872H824.873V351.059H828.014ZM835.303 345.59V357.012H833.787V345.59H835.303Z" fill="white"/>
<path d="M81.8086 344.896L85.0742 354.787H85.1055L88.4024 344.896H89.9805L85.918 356.318H84.1836L80.1524 344.896H81.8086ZM93.7383 347.849C94.9258 347.849 95.8477 348.276 96.5039 349.13C97.1602 349.985 97.4883 351.084 97.4883 352.427V352.584H91.2852V352.693C91.2852 353.474 91.5143 354.104 91.9727 354.584C92.431 355.063 93.0612 355.302 93.8633 355.302C94.4675 355.302 94.9466 355.162 95.3008 354.88C95.6654 354.599 95.8997 354.203 96.0039 353.693H97.3477C97.1706 354.61 96.7695 355.313 96.1445 355.802C95.53 356.282 94.7539 356.521 93.8164 356.521C92.9518 356.521 92.2175 356.323 91.6133 355.927C91.0091 355.532 90.5612 354.985 90.2695 354.287C89.9883 353.578 89.8477 352.86 89.8477 352.13C89.8477 350.912 90.2122 349.896 90.9414 349.084C91.681 348.261 92.6133 347.849 93.7383 347.849ZM91.2852 351.38H96.0352C95.9935 350.714 95.7487 350.162 95.3008 349.724C94.8633 349.276 94.3112 349.052 93.6445 349.052C93.0195 349.052 92.4831 349.266 92.0352 349.693C91.5977 350.11 91.3477 350.672 91.2852 351.38ZM103.004 347.849C103.035 347.849 103.061 347.849 103.082 347.849C103.113 347.849 103.15 347.849 103.191 347.849V349.287C102.171 349.287 101.415 349.558 100.926 350.099C100.447 350.641 100.207 351.479 100.207 352.615V356.318H98.8477V348.037H100.129V349.787H100.16C100.473 349.13 100.863 348.646 101.332 348.334C101.801 348.011 102.358 347.849 103.004 347.849ZM105.66 344.896V346.552H104.301V344.896H105.66ZM105.66 348.037V356.318H104.301V348.037H105.66ZM110.605 344.755C110.72 344.755 110.871 344.771 111.059 344.802C111.246 344.823 111.392 344.854 111.496 344.896V346.068C111.392 346.037 111.262 346.011 111.105 345.99C110.96 345.969 110.835 345.959 110.73 345.959C110.355 345.959 110.09 346.037 109.934 346.193C109.777 346.349 109.699 346.568 109.699 346.849V348.037H111.293V349.24H109.699V356.318H108.34V349.24H106.949V348.037H108.34V346.755C108.34 346.141 108.527 345.657 108.902 345.302C109.288 344.938 109.855 344.755 110.605 344.755ZM113.965 344.896V346.552H112.605V344.896H113.965ZM113.965 348.037V356.318H112.605V348.037H113.965ZM119.504 347.849C120.691 347.849 121.613 348.276 122.27 349.13C122.926 349.985 123.254 351.084 123.254 352.427V352.584H117.051V352.693C117.051 353.474 117.28 354.104 117.738 354.584C118.197 355.063 118.827 355.302 119.629 355.302C120.233 355.302 120.712 355.162 121.066 354.88C121.431 354.599 121.665 354.203 121.77 353.693H123.113C122.936 354.61 122.535 355.313 121.91 355.802C121.296 356.282 120.52 356.521 119.582 356.521C118.717 356.521 117.983 356.323 117.379 355.927C116.775 355.532 116.327 354.985 116.035 354.287C115.754 353.578 115.613 352.86 115.613 352.13C115.613 350.912 115.978 349.896 116.707 349.084C117.447 348.261 118.379 347.849 119.504 347.849ZM117.051 351.38H121.801C121.759 350.714 121.514 350.162 121.066 349.724C120.629 349.276 120.077 349.052 119.41 349.052C118.785 349.052 118.249 349.266 117.801 349.693C117.363 350.11 117.113 350.672 117.051 351.38ZM128.77 347.849C128.801 347.849 128.827 347.849 128.848 347.849C128.879 347.849 128.915 347.849 128.957 347.849V349.287C127.936 349.287 127.181 349.558 126.691 350.099C126.212 350.641 125.973 351.479 125.973 352.615V356.318H124.613V348.037H125.895V349.787H125.926C126.238 349.13 126.629 348.646 127.098 348.334C127.566 348.011 128.124 347.849 128.77 347.849ZM132.738 347.849C133.853 347.849 134.681 348.068 135.223 348.505C135.764 348.933 136.061 349.578 136.113 350.443H134.754V350.427C134.712 349.99 134.52 349.651 134.176 349.412C133.832 349.172 133.384 349.052 132.832 349.052C132.29 349.052 131.858 349.146 131.535 349.334C131.223 349.511 131.066 349.766 131.066 350.099C131.066 350.401 131.207 350.651 131.488 350.849C131.77 351.037 132.191 351.193 132.754 351.318L134.035 351.599C134.837 351.776 135.447 352.052 135.863 352.427C136.28 352.792 136.488 353.282 136.488 353.896C136.488 354.709 136.171 355.349 135.535 355.818C134.91 356.287 134.051 356.521 132.957 356.521C131.905 356.521 131.066 356.282 130.441 355.802C129.827 355.323 129.499 354.625 129.457 353.709H130.816C130.837 354.219 131.04 354.615 131.426 354.896C131.822 355.167 132.358 355.302 133.035 355.302C133.691 355.302 134.186 355.198 134.52 354.99C134.863 354.782 135.035 354.474 135.035 354.068C135.035 353.703 134.869 353.412 134.535 353.193C134.202 352.974 133.514 352.761 132.473 352.552C131.431 352.354 130.697 352.068 130.27 351.693C129.842 351.318 129.629 350.823 129.629 350.209C129.629 349.479 129.921 348.907 130.504 348.49C131.098 348.063 131.842 347.849 132.738 347.849Z" fill="white"/>
<path d="M343.005 75.2939H318.005V238.822H343.068" stroke="white" stroke-miterlimit="10" stroke-linejoin="round"/>
<path d="M581.556 238.806H606.556V75.3097H585.047" stroke="white" stroke-miterlimit="10" stroke-linejoin="round"/>
<path fill-rule="evenodd" clip-rule="evenodd" d="M585.047 75.3098L586.171 74.1852L583.081 75.3098L586.171 76.4343L585.047 75.3098Z" fill="white" stroke="white" stroke-miterlimit="10"/>
<path d="M606.556 238.806H729.656V75.3097H606.619" stroke="white" stroke-miterlimit="10" stroke-linejoin="round"/>
<path d="M228.612 324.129V294.979H462.281V269.256" stroke="white" stroke-miterlimit="10" stroke-linejoin="round"/>
<path fill-rule="evenodd" clip-rule="evenodd" d="M462.281 269.256L463.405 270.381L462.281 267.291L461.156 270.381L462.281 269.256Z" fill="#E62058" stroke="#E62058" stroke-miterlimit="10"/>
<path d="M372.612 324.129V294.979H462.281V269.256" stroke="white" stroke-miterlimit="10" stroke-linejoin="round"/>
<path fill-rule="evenodd" clip-rule="evenodd" d="M462.281 269.256L463.405 270.381L462.281 267.291L461.156 270.381L462.281 269.256Z" fill="#E62058" stroke="#E62058" stroke-miterlimit="10"/>
<path d="M516.612 324.129V294.979H462.281V269.256" stroke="white" stroke-miterlimit="10" stroke-linejoin="round"/>
<path fill-rule="evenodd" clip-rule="evenodd" d="M462.281 269.256L463.405 270.381L462.281 267.291L461.156 270.381L462.281 269.256Z" fill="#E62058" stroke="#E62058" stroke-miterlimit="10"/>
<path d="M660.612 324.129V294.979H462.281V269.256" stroke="white" stroke-miterlimit="10" stroke-linejoin="round"/>
<path fill-rule="evenodd" clip-rule="evenodd" d="M462.281 269.256L463.405 270.381L462.281 267.291L461.156 270.381L462.281 269.256Z" fill="#E62058" stroke="#E62058" stroke-miterlimit="10"/>
<path d="M804.612 324.129V294.979H462.281V269.256" stroke="white" stroke-miterlimit="10" stroke-linejoin="round"/>
<path fill-rule="evenodd" clip-rule="evenodd" d="M462.281 269.256L463.405 270.381L462.281 267.291L461.156 270.381L462.281 269.256Z" fill="white" stroke="white" stroke-miterlimit="10"/>
<path d="M264.721 238.806H339.568" stroke="white" stroke-miterlimit="10" stroke-linejoin="round"/>
<path fill-rule="evenodd" clip-rule="evenodd" d="M264.721 238.806L265.846 237.681L262.756 238.806L265.846 239.93L264.721 238.806Z" fill="white" stroke="white" stroke-miterlimit="10"/>
<path fill-rule="evenodd" clip-rule="evenodd" d="M339.568 238.806L338.443 239.93L341.533 238.806L338.443 237.681L339.568 238.806Z" fill="white" stroke="white" stroke-miterlimit="10"/>
<path fill-rule="evenodd" clip-rule="evenodd" d="M223.018 143.714H386.42V158.36H223.018V143.714Z" fill="black"/>
<path fill-rule="evenodd" clip-rule="evenodd" d="M700.551 143.714H758.504V158.36H700.551V143.714Z" fill="black"/>
<path fill-rule="evenodd" clip-rule="evenodd" d="M572.58 143.714H630.533V158.36H572.58V143.714Z" fill="black"/>
<path d="M708.714 146.51C709.38 146.51 709.922 146.687 710.339 147.041C710.766 147.385 710.979 147.874 710.979 148.51C710.979 149.01 710.87 149.427 710.651 149.76C710.432 150.083 710.104 150.307 709.667 150.432V150.447C710.052 150.531 710.334 150.713 710.511 150.994C710.698 151.276 710.802 151.76 710.823 152.447C710.844 152.885 710.886 153.234 710.948 153.494C711.021 153.744 711.12 153.953 711.245 154.119H710.12C710.057 154.036 710.016 153.953 709.995 153.869C709.974 153.786 709.959 153.677 709.948 153.541L709.901 152.697C709.891 152.302 709.807 151.906 709.651 151.51C709.495 151.104 709.146 150.89 708.604 150.869H706.104V154.119H705.089V146.51H708.714ZM708.261 150.026C708.823 150.026 709.25 149.916 709.542 149.697C709.834 149.468 709.979 149.124 709.979 148.666C709.979 148.249 709.86 147.932 709.62 147.713C709.391 147.484 709.068 147.369 708.651 147.369H706.104V150.026H708.261ZM714.529 148.479C715.321 148.479 715.936 148.765 716.373 149.338C716.811 149.911 717.029 150.64 717.029 151.526V151.635H712.904V151.697C712.904 152.229 713.056 152.656 713.358 152.979C713.67 153.291 714.092 153.447 714.623 153.447C715.019 153.447 715.337 153.354 715.576 153.166C715.816 152.979 715.972 152.713 716.045 152.369H716.936C716.821 152.984 716.556 153.453 716.139 153.776C715.722 154.088 715.207 154.244 714.592 154.244C714.009 154.244 713.514 154.114 713.108 153.854C712.712 153.593 712.42 153.229 712.233 152.76C712.045 152.291 711.951 151.817 711.951 151.338C711.951 150.526 712.196 149.848 712.686 149.307C713.175 148.755 713.79 148.479 714.529 148.479ZM712.904 150.838H716.061C716.04 150.39 715.878 150.02 715.576 149.729C715.285 149.427 714.915 149.276 714.467 149.276C714.05 149.276 713.696 149.416 713.404 149.697C713.113 149.979 712.946 150.359 712.904 150.838ZM719.8 148.479C720.54 148.479 721.086 148.624 721.441 148.916C721.805 149.208 722.008 149.64 722.05 150.213H721.144V150.197C721.112 149.906 720.982 149.682 720.753 149.526C720.524 149.359 720.227 149.276 719.862 149.276C719.498 149.276 719.211 149.338 719.003 149.463C718.795 149.588 718.691 149.76 718.691 149.979C718.691 150.187 718.784 150.354 718.972 150.479C719.159 150.604 719.441 150.708 719.816 150.791L720.659 150.979C721.191 151.104 721.597 151.286 721.878 151.526C722.159 151.765 722.3 152.093 722.3 152.51C722.3 153.052 722.086 153.479 721.659 153.791C721.243 154.093 720.675 154.244 719.956 154.244C719.248 154.244 718.685 154.088 718.269 153.776C717.862 153.463 717.644 152.999 717.612 152.385H718.519C718.529 152.729 718.665 152.994 718.925 153.182C719.185 153.359 719.545 153.447 720.003 153.447C720.441 153.447 720.769 153.38 720.987 153.244C721.217 153.098 721.331 152.89 721.331 152.619C721.331 152.38 721.217 152.187 720.987 152.041C720.769 151.895 720.316 151.755 719.628 151.619C718.93 151.484 718.441 151.291 718.159 151.041C717.878 150.791 717.737 150.463 717.737 150.057C717.737 149.567 717.93 149.182 718.316 148.901C718.711 148.619 719.206 148.479 719.8 148.479ZM725.675 148.479C726.508 148.479 727.159 148.749 727.628 149.291C728.107 149.833 728.347 150.526 728.347 151.369C728.347 152.223 728.102 152.916 727.612 153.447C727.133 153.979 726.487 154.244 725.675 154.244C724.873 154.244 724.227 153.984 723.737 153.463C723.248 152.942 723.003 152.244 723.003 151.369C723.003 150.494 723.243 149.796 723.722 149.276C724.201 148.744 724.852 148.479 725.675 148.479ZM723.956 151.369C723.956 152.005 724.118 152.51 724.441 152.885C724.763 153.26 725.175 153.447 725.675 153.447C726.165 153.447 726.571 153.26 726.894 152.885C727.227 152.499 727.394 151.994 727.394 151.369C727.394 150.744 727.232 150.239 726.909 149.854C726.586 149.468 726.17 149.276 725.659 149.276C725.18 149.276 724.774 149.468 724.441 149.854C724.118 150.229 723.956 150.734 723.956 151.369ZM730.372 146.51V154.119H729.466V146.51H730.372ZM732.693 148.604V152.369C732.693 152.682 732.792 152.942 732.99 153.151C733.187 153.348 733.458 153.447 733.802 153.447C734.323 153.447 734.724 153.291 735.005 152.979C735.297 152.656 735.443 152.249 735.443 151.76V148.604H736.349V154.119H735.49V153.244H735.474C735.266 153.598 735.01 153.854 734.708 154.01C734.406 154.166 734.062 154.244 733.677 154.244C733.031 154.244 732.552 154.083 732.24 153.76C731.937 153.427 731.786 152.932 731.786 152.276V148.604H732.693ZM738.963 146.963V148.604H740.057V149.416H738.963V152.854C738.963 153.135 739.051 153.286 739.229 153.307C739.416 153.317 739.609 153.322 739.807 153.322H740.057V154.119H739.322C738.822 154.119 738.484 154.031 738.307 153.854C738.14 153.677 738.057 153.38 738.057 152.963V149.416H737.119V148.604H738.057V146.963H738.963ZM742.022 146.51V147.619H741.116V146.51H742.022ZM742.022 148.604V154.119H741.116V148.604H742.022ZM745.812 148.479C746.645 148.479 747.296 148.749 747.765 149.291C748.244 149.833 748.483 150.526 748.483 151.369C748.483 152.223 748.239 152.916 747.749 153.447C747.27 153.979 746.624 154.244 745.812 154.244C745.009 154.244 744.364 153.984 743.874 153.463C743.384 152.942 743.14 152.244 743.14 151.369C743.14 150.494 743.379 149.796 743.858 149.276C744.338 148.744 744.989 148.479 745.812 148.479ZM744.093 151.369C744.093 152.005 744.254 152.51 744.577 152.885C744.9 153.26 745.312 153.447 745.812 153.447C746.301 153.447 746.707 153.26 747.03 152.885C747.364 152.499 747.53 151.994 747.53 151.369C747.53 150.744 747.369 150.239 747.046 149.854C746.723 149.468 746.306 149.276 745.796 149.276C745.317 149.276 744.91 149.468 744.577 149.854C744.254 150.229 744.093 150.734 744.093 151.369ZM752.212 148.479C752.878 148.479 753.363 148.651 753.665 148.994C753.967 149.338 754.118 149.822 754.118 150.447V154.119H753.212V150.354C753.212 150.041 753.108 149.786 752.899 149.588C752.701 149.38 752.425 149.276 752.071 149.276C751.571 149.276 751.175 149.437 750.884 149.76C750.602 150.072 750.462 150.479 750.462 150.979V154.119H749.556V148.604H750.399V149.479H750.431C750.628 149.135 750.873 148.885 751.165 148.729C751.457 148.562 751.806 148.479 752.212 148.479Z" fill="white"/>
<path d="M582.668 146.51C583.605 146.51 584.241 146.703 584.574 147.088C584.918 147.463 585.09 147.89 585.09 148.369C585.09 148.776 584.991 149.13 584.793 149.432C584.595 149.723 584.319 149.942 583.965 150.088V150.104C584.433 150.208 584.793 150.421 585.043 150.744C585.293 151.067 585.418 151.463 585.418 151.932C585.418 152.557 585.199 153.078 584.761 153.494C584.324 153.911 583.782 154.119 583.136 154.119H579.418V146.51H582.668ZM582.511 149.776C583.011 149.776 583.397 149.682 583.668 149.494C583.938 149.307 584.074 148.999 584.074 148.572C584.074 148.166 583.959 147.864 583.73 147.666C583.511 147.468 583.105 147.369 582.511 147.369H580.433V149.776H582.511ZM583.011 153.26C583.418 153.26 583.751 153.14 584.011 152.901C584.272 152.651 584.402 152.317 584.402 151.901C584.402 151.473 584.256 151.156 583.965 150.947C583.673 150.739 583.251 150.635 582.699 150.635H580.433V153.26H583.011ZM587.53 146.51V147.619H586.624V146.51H587.53ZM587.53 148.604V154.119H586.624V148.604H587.53ZM590.195 146.963V148.604H591.288V149.416H590.195V152.854C590.195 153.135 590.283 153.286 590.46 153.307C590.648 153.317 590.84 153.322 591.038 153.322H591.288V154.119H590.554C590.054 154.119 589.715 154.031 589.538 153.854C589.372 153.677 589.288 153.38 589.288 152.963V149.416H588.351V148.604H589.288V146.963H590.195ZM595.668 146.51L597.84 153.104H597.855L600.058 146.51H601.105L598.402 154.119H597.246L594.558 146.51H595.668ZM603.698 148.479C604.531 148.479 605.182 148.749 605.651 149.291C606.13 149.833 606.37 150.526 606.37 151.369C606.37 152.223 606.125 152.916 605.635 153.447C605.156 153.979 604.51 154.244 603.698 154.244C602.896 154.244 602.25 153.984 601.76 153.463C601.271 152.942 601.026 152.244 601.026 151.369C601.026 150.494 601.265 149.796 601.745 149.276C602.224 148.744 602.875 148.479 603.698 148.479ZM601.979 151.369C601.979 152.005 602.14 152.51 602.463 152.885C602.786 153.26 603.198 153.447 603.698 153.447C604.187 153.447 604.594 153.26 604.917 152.885C605.25 152.499 605.417 151.994 605.417 151.369C605.417 150.744 605.255 150.239 604.932 149.854C604.609 149.468 604.193 149.276 603.682 149.276C603.203 149.276 602.797 149.468 602.463 149.854C602.14 150.229 601.979 150.734 601.979 151.369ZM608.692 146.963V148.604H609.786V149.416H608.692V152.854C608.692 153.135 608.78 153.286 608.957 153.307C609.145 153.317 609.338 153.322 609.536 153.322H609.786V154.119H609.051C608.551 154.119 608.213 154.031 608.036 153.854C607.869 153.677 607.786 153.38 607.786 152.963V149.416H606.848V148.604H607.786V146.963H608.692ZM611.751 146.51V147.619H610.845V146.51H611.751ZM611.751 148.604V154.119H610.845V148.604H611.751ZM615.822 148.479C616.488 148.479 616.973 148.651 617.275 148.994C617.577 149.338 617.728 149.822 617.728 150.447V154.119H616.822V150.354C616.822 150.041 616.717 149.786 616.509 149.588C616.311 149.38 616.035 149.276 615.681 149.276C615.181 149.276 614.785 149.437 614.493 149.76C614.212 150.072 614.072 150.479 614.072 150.979V154.119H613.165V148.604H614.009V149.479H614.04C614.238 149.135 614.483 148.885 614.775 148.729C615.066 148.562 615.415 148.479 615.822 148.479ZM621.326 148.479C621.712 148.479 622.045 148.562 622.326 148.729C622.607 148.895 622.826 149.119 622.982 149.401V148.604H623.842V153.713C623.842 154.578 623.633 155.234 623.217 155.682C622.8 156.13 622.154 156.354 621.279 156.354C620.654 156.354 620.123 156.213 619.686 155.932C619.258 155.661 619.029 155.265 618.998 154.744H619.904C619.925 155.026 620.076 155.244 620.357 155.401C620.649 155.557 620.972 155.635 621.326 155.635C621.868 155.635 622.279 155.458 622.561 155.104C622.842 154.749 622.982 154.223 622.982 153.526V153.182H622.967C622.821 153.484 622.592 153.729 622.279 153.916C621.977 154.093 621.633 154.182 621.248 154.182C620.498 154.182 619.899 153.927 619.451 153.416C619.014 152.895 618.795 152.223 618.795 151.401C618.795 150.557 619.014 149.859 619.451 149.307C619.899 148.755 620.524 148.479 621.326 148.479ZM619.748 151.291C619.748 151.937 619.883 152.447 620.154 152.822C620.436 153.197 620.816 153.385 621.295 153.385C621.795 153.385 622.191 153.192 622.482 152.807C622.785 152.421 622.936 151.906 622.936 151.26C622.936 150.666 622.8 150.187 622.529 149.822C622.258 149.458 621.868 149.276 621.357 149.276C620.857 149.276 620.462 149.458 620.17 149.822C619.889 150.187 619.748 150.677 619.748 151.291Z" fill="white"/>
<path d="M244.703 146.322C245.546 146.322 246.25 146.541 246.812 146.979C247.385 147.416 247.723 148.026 247.828 148.807H246.828C246.713 148.286 246.468 147.885 246.093 147.604C245.718 147.322 245.25 147.182 244.687 147.182C243.885 147.182 243.255 147.468 242.796 148.041C242.338 148.604 242.109 149.343 242.109 150.26C242.109 151.229 242.333 152.005 242.781 152.588C243.229 153.161 243.869 153.447 244.703 153.447C245.317 153.447 245.822 153.249 246.218 152.854C246.625 152.458 246.848 151.927 246.89 151.26H247.906C247.802 152.239 247.458 152.994 246.875 153.526C246.302 154.046 245.546 154.307 244.609 154.307C243.526 154.307 242.666 153.947 242.031 153.229C241.406 152.499 241.093 151.536 241.093 150.338C241.093 149.151 241.416 148.187 242.062 147.447C242.718 146.697 243.598 146.322 244.703 146.322ZM251.398 148.479C252.232 148.479 252.883 148.749 253.351 149.291C253.831 149.833 254.07 150.526 254.07 151.369C254.07 152.223 253.825 152.916 253.336 153.447C252.857 153.979 252.211 154.244 251.398 154.244C250.596 154.244 249.95 153.984 249.461 153.463C248.971 152.942 248.726 152.244 248.726 151.369C248.726 150.494 248.966 149.796 249.445 149.276C249.924 148.744 250.575 148.479 251.398 148.479ZM249.679 151.369C249.679 152.005 249.841 152.51 250.164 152.885C250.487 153.26 250.898 153.447 251.398 153.447C251.888 153.447 252.294 153.26 252.617 152.885C252.95 152.499 253.117 151.994 253.117 151.369C253.117 150.744 252.956 150.239 252.633 149.854C252.31 149.468 251.893 149.276 251.383 149.276C250.903 149.276 250.497 149.468 250.164 149.854C249.841 150.229 249.679 150.734 249.679 151.369ZM256.095 146.51V154.119H255.189V146.51H256.095ZM258.463 146.51V154.119H257.557V146.51H258.463ZM262.158 148.479C262.95 148.479 263.565 148.765 264.002 149.338C264.44 149.911 264.658 150.64 264.658 151.526V151.635H260.533V151.697C260.533 152.229 260.685 152.656 260.987 152.979C261.299 153.291 261.721 153.447 262.252 153.447C262.648 153.447 262.966 153.354 263.205 153.166C263.445 152.979 263.601 152.713 263.674 152.369H264.565C264.45 152.984 264.185 153.453 263.768 153.776C263.351 154.088 262.836 154.244 262.221 154.244C261.638 154.244 261.143 154.114 260.737 153.854C260.341 153.593 260.049 153.229 259.862 152.76C259.674 152.291 259.58 151.817 259.58 151.338C259.58 150.526 259.825 149.848 260.315 149.307C260.804 148.755 261.419 148.479 262.158 148.479ZM260.533 150.838H263.69C263.669 150.39 263.507 150.02 263.205 149.729C262.914 149.427 262.544 149.276 262.096 149.276C261.679 149.276 261.325 149.416 261.033 149.697C260.742 149.979 260.575 150.359 260.533 150.838ZM267.898 148.479C268.564 148.479 269.106 148.64 269.523 148.963C269.95 149.286 270.2 149.76 270.273 150.385H269.335C269.262 150.02 269.106 149.744 268.866 149.557C268.627 149.369 268.33 149.276 267.976 149.276C267.413 149.276 266.986 149.468 266.695 149.854C266.403 150.229 266.257 150.755 266.257 151.432C266.257 152.046 266.398 152.536 266.679 152.901C266.971 153.265 267.366 153.447 267.866 153.447C268.304 153.447 268.648 153.328 268.898 153.088C269.158 152.848 269.32 152.52 269.382 152.104H270.304C270.2 152.791 269.939 153.322 269.523 153.697C269.106 154.062 268.554 154.244 267.866 154.244C267.075 154.244 266.45 153.994 265.991 153.494C265.533 152.984 265.304 152.296 265.304 151.432C265.304 150.536 265.533 149.822 265.991 149.291C266.46 148.749 267.096 148.479 267.898 148.479ZM272.574 146.963V148.604H273.668V149.416H272.574V152.854C272.574 153.135 272.663 153.286 272.84 153.307C273.027 153.317 273.22 153.322 273.418 153.322H273.668V154.119H272.934C272.434 154.119 272.095 154.031 271.918 153.854C271.751 153.677 271.668 153.38 271.668 152.963V149.416H270.731V148.604H271.668V146.963H272.574ZM280.969 146.51L283.938 154.119H282.829L282 151.822H278.782L277.922 154.119H276.875L279.844 146.51H280.969ZM280.375 147.432L279.094 150.979H281.672L280.407 147.432H280.375ZM285.733 146.963V148.604H286.827V149.416H285.733V152.854C285.733 153.135 285.822 153.286 285.999 153.307C286.186 153.317 286.379 153.322 286.577 153.322H286.827V154.119H286.093C285.593 154.119 285.254 154.031 285.077 153.854C284.91 153.677 284.827 153.38 284.827 152.963V149.416H283.89V148.604H284.827V146.963H285.733ZM289.089 146.963V148.604H290.183V149.416H289.089V152.854C289.089 153.135 289.178 153.286 289.355 153.307C289.543 153.317 289.735 153.322 289.933 153.322H290.183V154.119H289.449C288.949 154.119 288.61 154.031 288.433 153.854C288.266 153.677 288.183 153.38 288.183 152.963V149.416H287.246V148.604H288.183V146.963H289.089ZM293.347 148.479C294.138 148.479 294.753 148.765 295.19 149.338C295.628 149.911 295.847 150.64 295.847 151.526V151.635H291.722V151.697C291.722 152.229 291.873 152.656 292.175 152.979C292.487 153.291 292.909 153.447 293.44 153.447C293.836 153.447 294.154 153.354 294.393 153.166C294.633 152.979 294.789 152.713 294.862 152.369H295.753C295.638 152.984 295.373 153.453 294.956 153.776C294.539 154.088 294.024 154.244 293.409 154.244C292.826 154.244 292.331 154.114 291.925 153.854C291.529 153.593 291.237 153.229 291.05 152.76C290.862 152.291 290.768 151.817 290.768 151.338C290.768 150.526 291.013 149.848 291.503 149.307C291.992 148.755 292.607 148.479 293.347 148.479ZM291.722 150.838H294.878C294.857 150.39 294.695 150.02 294.393 149.729C294.102 149.427 293.732 149.276 293.284 149.276C292.867 149.276 292.513 149.416 292.222 149.697C291.93 149.979 291.763 150.359 291.722 150.838ZM298.617 148.479C299.357 148.479 299.903 148.624 300.258 148.916C300.622 149.208 300.825 149.64 300.867 150.213H299.961V150.197C299.929 149.906 299.799 149.682 299.57 149.526C299.341 149.359 299.044 149.276 298.679 149.276C298.315 149.276 298.028 149.338 297.82 149.463C297.612 149.588 297.508 149.76 297.508 149.979C297.508 150.187 297.601 150.354 297.789 150.479C297.976 150.604 298.258 150.708 298.633 150.791L299.476 150.979C300.008 151.104 300.414 151.286 300.695 151.526C300.976 151.765 301.117 152.093 301.117 152.51C301.117 153.052 300.903 153.479 300.476 153.791C300.06 154.093 299.492 154.244 298.773 154.244C298.065 154.244 297.502 154.088 297.086 153.776C296.679 153.463 296.461 152.999 296.429 152.385H297.336C297.346 152.729 297.482 152.994 297.742 153.182C298.002 153.359 298.362 153.447 298.82 153.447C299.258 153.447 299.586 153.38 299.804 153.244C300.034 153.098 300.148 152.89 300.148 152.619C300.148 152.38 300.034 152.187 299.804 152.041C299.586 151.895 299.133 151.755 298.445 151.619C297.747 151.484 297.258 151.291 296.976 151.041C296.695 150.791 296.554 150.463 296.554 150.057C296.554 149.567 296.747 149.182 297.133 148.901C297.528 148.619 298.023 148.479 298.617 148.479ZM303.367 146.963V148.604H304.461V149.416H303.367V152.854C303.367 153.135 303.456 153.286 303.633 153.307C303.82 153.317 304.013 153.322 304.211 153.322H304.461V154.119H303.726C303.226 154.119 302.888 154.031 302.711 153.854C302.544 153.677 302.461 153.38 302.461 152.963V149.416H301.523V148.604H302.461V146.963H303.367ZM307.723 148.479C308.473 148.479 309.004 148.614 309.317 148.885C309.629 149.156 309.786 149.515 309.786 149.963C309.786 151.869 309.786 152.927 309.786 153.135C309.786 153.343 309.879 153.447 310.067 153.447C310.109 153.447 310.155 153.442 310.207 153.432C310.26 153.421 310.306 153.411 310.348 153.401V154.104C310.265 154.145 310.166 154.177 310.051 154.197C309.947 154.229 309.832 154.244 309.707 154.244C309.457 154.244 309.265 154.177 309.129 154.041C308.994 153.895 308.926 153.682 308.926 153.401C308.687 153.682 308.405 153.895 308.082 154.041C307.76 154.177 307.395 154.244 306.989 154.244C306.426 154.244 305.984 154.114 305.661 153.854C305.338 153.583 305.176 153.197 305.176 152.697C305.176 152.208 305.332 151.817 305.645 151.526C305.957 151.234 306.697 151.015 307.864 150.869C308.26 150.817 308.525 150.744 308.661 150.651C308.806 150.546 308.879 150.395 308.879 150.197C308.879 149.885 308.78 149.656 308.582 149.51C308.395 149.354 308.088 149.276 307.661 149.276C307.213 149.276 306.874 149.364 306.645 149.541C306.426 149.708 306.306 149.968 306.286 150.322H305.379C305.411 149.718 305.624 149.26 306.02 148.947C306.426 148.635 306.994 148.479 307.723 148.479ZM306.129 152.635C306.129 152.895 306.223 153.098 306.411 153.244C306.598 153.38 306.859 153.447 307.192 153.447C307.702 153.447 308.109 153.322 308.411 153.072C308.723 152.812 308.879 152.526 308.879 152.213V151.276C308.723 151.38 308.52 151.453 308.27 151.494C308.03 151.526 307.713 151.572 307.317 151.635C306.911 151.687 306.609 151.796 306.411 151.963C306.223 152.119 306.129 152.343 306.129 152.635ZM312.447 146.963V148.604H313.54V149.416H312.447V152.854C312.447 153.135 312.535 153.286 312.712 153.307C312.9 153.317 313.093 153.322 313.29 153.322H313.54V154.119H312.806C312.306 154.119 311.968 154.031 311.79 153.854C311.624 153.677 311.54 153.38 311.54 152.963V149.416H310.603V148.604H311.54V146.963H312.447ZM315.506 146.51V147.619H314.6V146.51H315.506ZM315.506 148.604V154.119H314.6V148.604H315.506ZM319.295 148.479C320.129 148.479 320.78 148.749 321.248 149.291C321.728 149.833 321.967 150.526 321.967 151.369C321.967 152.223 321.722 152.916 321.233 153.447C320.754 153.979 320.108 154.244 319.295 154.244C318.493 154.244 317.847 153.984 317.358 153.463C316.868 152.942 316.623 152.244 316.623 151.369C316.623 150.494 316.863 149.796 317.342 149.276C317.821 148.744 318.472 148.479 319.295 148.479ZM317.576 151.369C317.576 152.005 317.738 152.51 318.061 152.885C318.384 153.26 318.795 153.447 319.295 153.447C319.785 153.447 320.191 153.26 320.514 152.885C320.847 152.499 321.014 151.994 321.014 151.369C321.014 150.744 320.853 150.239 320.53 149.854C320.207 149.468 319.79 149.276 319.28 149.276C318.8 149.276 318.394 149.468 318.061 149.854C317.738 150.229 317.576 150.734 317.576 151.369ZM325.696 148.479C326.362 148.479 326.847 148.651 327.149 148.994C327.451 149.338 327.602 149.822 327.602 150.447V154.119H326.696V150.354C326.696 150.041 326.591 149.786 326.383 149.588C326.185 149.38 325.909 149.276 325.555 149.276C325.055 149.276 324.659 149.437 324.367 149.76C324.086 150.072 323.946 150.479 323.946 150.979V154.119H323.039V148.604H323.883V149.479H323.914C324.112 149.135 324.357 148.885 324.649 148.729C324.94 148.562 325.289 148.479 325.696 148.479ZM335.692 146.51C336.359 146.51 336.9 146.687 337.317 147.041C337.744 147.385 337.958 147.874 337.958 148.51C337.958 149.01 337.848 149.427 337.63 149.76C337.411 150.083 337.083 150.307 336.645 150.432V150.447C337.031 150.531 337.312 150.713 337.489 150.994C337.676 151.276 337.781 151.76 337.801 152.447C337.822 152.885 337.864 153.234 337.926 153.494C337.999 153.744 338.098 153.953 338.223 154.119H337.098C337.036 154.036 336.994 153.953 336.973 153.869C336.952 153.786 336.937 153.677 336.926 153.541L336.88 152.697C336.869 152.302 336.786 151.906 336.63 151.51C336.473 151.104 336.124 150.89 335.583 150.869H333.083V154.119H332.067V146.51H335.692ZM335.239 150.026C335.801 150.026 336.228 149.916 336.52 149.697C336.812 149.468 336.958 149.124 336.958 148.666C336.958 148.249 336.838 147.932 336.598 147.713C336.369 147.484 336.046 147.369 335.63 147.369H333.083V150.026H335.239ZM341.508 148.479C342.299 148.479 342.914 148.765 343.352 149.338C343.789 149.911 344.008 150.64 344.008 151.526V151.635H339.883V151.697C339.883 152.229 340.034 152.656 340.336 152.979C340.648 153.291 341.07 153.447 341.602 153.447C341.997 153.447 342.315 153.354 342.555 153.166C342.794 152.979 342.951 152.713 343.023 152.369H343.914C343.799 152.984 343.534 153.453 343.117 153.776C342.701 154.088 342.185 154.244 341.57 154.244C340.987 154.244 340.492 154.114 340.086 153.854C339.69 153.593 339.398 153.229 339.211 152.76C339.023 152.291 338.93 151.817 338.93 151.338C338.93 150.526 339.174 149.848 339.664 149.307C340.154 148.755 340.768 148.479 341.508 148.479ZM339.883 150.838H343.039C343.018 150.39 342.857 150.02 342.555 149.729C342.263 149.427 341.893 149.276 341.445 149.276C341.029 149.276 340.674 149.416 340.383 149.697C340.091 149.979 339.924 150.359 339.883 150.838ZM347.153 148.479C347.518 148.479 347.862 148.552 348.184 148.697C348.507 148.843 348.757 149.057 348.934 149.338H348.966V148.604H349.872V156.229H348.966V153.369H348.934C348.799 153.661 348.575 153.88 348.263 154.026C347.95 154.171 347.591 154.244 347.184 154.244C346.414 154.244 345.799 153.979 345.341 153.447C344.882 152.916 344.653 152.218 344.653 151.354C344.653 150.499 344.877 149.807 345.325 149.276C345.773 148.744 346.382 148.479 347.153 148.479ZM345.606 151.416C345.606 151.999 345.757 152.484 346.059 152.869C346.372 153.255 346.789 153.447 347.309 153.447C347.841 153.447 348.252 153.255 348.544 152.869C348.846 152.484 348.997 151.984 348.997 151.369C348.997 150.744 348.846 150.239 348.544 149.854C348.242 149.468 347.809 149.276 347.247 149.276C346.726 149.276 346.32 149.468 346.028 149.854C345.747 150.229 345.606 150.749 345.606 151.416ZM352.173 148.604V152.369C352.173 152.682 352.272 152.942 352.47 153.151C352.668 153.348 352.939 153.447 353.282 153.447C353.803 153.447 354.204 153.291 354.486 152.979C354.777 152.656 354.923 152.249 354.923 151.76V148.604H355.829V154.119H354.97V153.244H354.954C354.746 153.598 354.491 153.854 354.189 154.01C353.887 154.166 353.543 154.244 353.157 154.244C352.512 154.244 352.032 154.083 351.72 153.76C351.418 153.427 351.267 152.932 351.267 152.276V148.604H352.173ZM359.475 148.479C360.266 148.479 360.881 148.765 361.318 149.338C361.756 149.911 361.975 150.64 361.975 151.526V151.635H357.85V151.697C357.85 152.229 358.001 152.656 358.303 152.979C358.615 153.291 359.037 153.447 359.568 153.447C359.964 153.447 360.282 153.354 360.521 153.166C360.761 152.979 360.917 152.713 360.99 152.369H361.881C361.766 152.984 361.501 153.453 361.084 153.776C360.667 154.088 360.152 154.244 359.537 154.244C358.954 154.244 358.459 154.114 358.053 153.854C357.657 153.593 357.365 153.229 357.178 152.76C356.99 152.291 356.896 151.817 356.896 151.338C356.896 150.526 357.141 149.848 357.631 149.307C358.12 148.755 358.735 148.479 359.475 148.479ZM357.85 150.838H361.006C360.985 150.39 360.824 150.02 360.521 149.729C360.23 149.427 359.86 149.276 359.412 149.276C358.995 149.276 358.641 149.416 358.35 149.697C358.058 149.979 357.891 150.359 357.85 150.838ZM364.745 148.479C365.485 148.479 366.032 148.624 366.386 148.916C366.75 149.208 366.953 149.64 366.995 150.213H366.089V150.197C366.058 149.906 365.927 149.682 365.698 149.526C365.469 149.359 365.172 149.276 364.808 149.276C364.443 149.276 364.157 149.338 363.948 149.463C363.74 149.588 363.636 149.76 363.636 149.979C363.636 150.187 363.729 150.354 363.917 150.479C364.104 150.604 364.386 150.708 364.761 150.791L365.604 150.979C366.136 151.104 366.542 151.286 366.823 151.526C367.104 151.765 367.245 152.093 367.245 152.51C367.245 153.052 367.032 153.479 366.604 153.791C366.188 154.093 365.62 154.244 364.901 154.244C364.193 154.244 363.63 154.088 363.214 153.776C362.808 153.463 362.589 152.999 362.558 152.385H363.464C363.474 152.729 363.61 152.994 363.87 153.182C364.13 153.359 364.49 153.447 364.948 153.447C365.386 153.447 365.714 153.38 365.933 153.244C366.162 153.098 366.276 152.89 366.276 152.619C366.276 152.38 366.162 152.187 365.933 152.041C365.714 151.895 365.261 151.755 364.573 151.619C363.875 151.484 363.386 151.291 363.104 151.041C362.823 150.791 362.683 150.463 362.683 150.057C362.683 149.567 362.875 149.182 363.261 148.901C363.657 148.619 364.151 148.479 364.745 148.479ZM369.495 146.963V148.604H370.589V149.416H369.495V152.854C369.495 153.135 369.584 153.286 369.761 153.307C369.948 153.317 370.141 153.322 370.339 153.322H370.589V154.119H369.854C369.354 154.119 369.016 154.031 368.839 153.854C368.672 153.677 368.589 153.38 368.589 152.963V149.416H367.651V148.604H368.589V146.963H369.495ZM373.429 148.479C374.169 148.479 374.716 148.624 375.07 148.916C375.434 149.208 375.638 149.64 375.679 150.213H374.773V150.197C374.742 149.906 374.612 149.682 374.382 149.526C374.153 149.359 373.856 149.276 373.492 149.276C373.127 149.276 372.841 149.338 372.632 149.463C372.424 149.588 372.32 149.76 372.32 149.979C372.32 150.187 372.414 150.354 372.601 150.479C372.789 150.604 373.07 150.708 373.445 150.791L374.289 150.979C374.82 151.104 375.226 151.286 375.507 151.526C375.789 151.765 375.929 152.093 375.929 152.51C375.929 153.052 375.716 153.479 375.289 153.791C374.872 154.093 374.304 154.244 373.586 154.244C372.877 154.244 372.315 154.088 371.898 153.776C371.492 153.463 371.273 152.999 371.242 152.385H372.148C372.158 152.729 372.294 152.994 372.554 153.182C372.815 153.359 373.174 153.447 373.632 153.447C374.07 153.447 374.398 153.38 374.617 153.244C374.846 153.098 374.961 152.89 374.961 152.619C374.961 152.38 374.846 152.187 374.617 152.041C374.398 151.895 373.945 151.755 373.257 151.619C372.559 151.484 372.07 151.291 371.789 151.041C371.507 150.791 371.367 150.463 371.367 150.057C371.367 149.567 371.559 149.182 371.945 148.901C372.341 148.619 372.836 148.479 373.429 148.479Z" fill="white"/>
</g>
</g>
<defs>
<clipPath id="clip0_6_533">
<rect width="899.528" height="460.724" fill="white"/>
</clipPath>
</defs>
</svg>
