<?xml version="1.0" standalone="no"?>
<!DOCTYPE svg PUBLIC "-//W3C//DTD SVG 20010904//EN"
 "http://www.w3.org/TR/2001/REC-SVG-20010904/DTD/svg10.dtd">
<svg version="1.0" xmlns="http://www.w3.org/2000/svg"
 width="1081.000000pt" height="1080.000000pt" viewBox="0 0 1081.000000 1080.000000"
 preserveAspectRatio="xMidYMid meet">

<g transform="translate(0.000000,1080.000000) scale(0.100000,-0.100000)"
fill="#000000" stroke="none">
<path d="M3198 9632 c-14 -6 42 -126 361 -777 321 -656 380 -770 397 -767 10
2 27 4 37 5 14 2 51 -67 172 -313 85 -173 159 -316 164 -318 5 -2 34 8 64 22
l56 25 -73 153 c-40 84 -113 231 -161 327 -80 161 -86 176 -70 188 10 7 23 14
29 16 6 2 -2 31 -21 73 -72 158 -645 1320 -660 1336 -8 9 -37 22 -64 27 -55
12 -204 14 -231 3z"/>
<path d="M7357 9622 l-49 -17 -300 -610 c-165 -335 -320 -652 -344 -703 l-43
-93 24 -11 c14 -6 25 -16 25 -23 0 -6 -70 -152 -155 -324 -85 -172 -155 -317
-155 -322 0 -9 92 -59 110 -59 7 0 83 146 171 325 l159 325 31 -16 c17 -8 33
-14 35 -11 8 7 754 1529 754 1537 0 15 -32 20 -123 20 -60 -1 -109 -7 -140
-18z"/>
<path d="M2731 9286 c-57 -57 -92 -100 -88 -108 6 -18 894 -1308 912 -1327 12
-12 18 -12 40 3 15 10 31 14 35 9 4 -4 94 -134 200 -288 106 -154 196 -284
201 -289 13 -14 123 62 111 77 -5 7 -98 142 -207 301 -153 223 -195 290 -184
297 8 5 20 13 28 17 10 7 -98 171 -465 706 -264 382 -481 696 -484 696 -3 0
-48 -42 -99 -94z"/>
<path d="M7500 8693 c-261 -378 -476 -692 -478 -698 -1 -5 9 -17 22 -25 l25
-15 -204 -295 c-112 -162 -204 -298 -205 -302 0 -3 23 -23 51 -44 43 -31 53
-35 64 -23 7 8 100 140 206 294 105 154 194 282 196 284 2 3 17 -3 34 -13 17
-10 34 -14 39 -10 4 5 213 308 465 673 l458 663 -99 99 -100 100 -474 -688z"/>
<path d="M4100 9068 c0 -4 56 -185 125 -403 69 -218 125 -398 125 -400 0 -2
14 1 31 7 17 6 34 7 38 2 4 -5 54 -157 111 -339 56 -181 106 -333 110 -338 3
-4 33 1 66 11 44 14 58 23 56 35 -1 9 -48 159 -103 334 -55 175 -102 325 -105
335 -3 12 3 18 26 23 16 4 30 10 30 13 0 4 -21 75 -47 159 l-47 152 -208 208
c-114 114 -208 205 -208 201z"/>
<path d="M6492 8857 l-203 -203 -49 -153 -48 -153 29 -10 c16 -5 29 -14 29
-20 0 -5 -47 -158 -105 -341 -58 -182 -104 -336 -101 -342 4 -10 115 -50 120
-43 2 2 52 157 112 346 l108 343 36 -6 36 -6 123 391 c68 215 122 392 119 395
-2 2 -95 -87 -206 -198z"/>
<path d="M2241 8796 l-94 -94 523 -563 c288 -310 531 -573 541 -584 18 -19 19
-19 46 7 l28 26 244 -264 c134 -145 247 -264 251 -264 3 0 26 20 50 45 l44 45
-20 22 c-11 13 -110 120 -219 238 -109 118 -210 227 -224 242 l-25 28 22 23
22 23 -540 582 c-298 320 -544 582 -548 582 -4 0 -50 -42 -101 -94z"/>
<path d="M8240 8656 c-118 -127 -361 -388 -539 -579 l-323 -348 22 -24 22 -23
-244 -262 c-133 -143 -243 -264 -243 -268 0 -4 21 -26 47 -50 l46 -43 248 266
247 265 27 -25 27 -26 542 582 542 582 -93 94 c-51 51 -97 93 -103 92 -5 0
-107 -105 -225 -233z"/>
<path d="M5332 8083 l3 -368 65 0 65 0 3 368 2 367 -70 0 -70 0 2 -367z"/>
<path d="M4900 8411 c-42 -7 -44 35 20 -383 27 -180 50 -333 50 -339 0 -12
118 -4 132 9 4 4 -18 165 -47 357 -30 193 -55 353 -55 358 0 8 -48 7 -100 -2z"/>
<path d="M5809 8419 c-1 -2 -27 -165 -58 -361 -40 -251 -53 -359 -45 -362 6
-2 36 -7 66 -11 56 -7 56 -7 62 21 26 132 106 688 99 694 -8 8 -122 25 -124
19z"/>
<path d="M1760 8315 c-52 -52 -92 -96 -89 -98 2 -2 281 -226 619 -497 338
-271 623 -500 632 -508 15 -13 20 -11 41 14 l24 28 272 -217 c150 -120 278
-220 285 -223 7 -3 31 17 54 44 l41 49 -284 229 -285 228 22 23 c13 14 18 27
12 32 -40 37 -1235 991 -1241 991 -5 0 -51 -43 -103 -95z"/>
<path d="M8330 7924 c-333 -267 -611 -491 -619 -499 -13 -12 -12 -17 5 -36 23
-25 48 -2 -303 -281 -133 -106 -242 -195 -242 -198 0 -3 19 -27 42 -54 l43
-49 277 221 c152 122 281 222 286 222 5 0 18 -12 28 -26 l19 -25 284 227 c157
125 444 356 639 512 l353 284 -93 94 c-52 52 -98 94 -104 94 -5 0 -282 -219
-615 -486z"/>
<path d="M1309 7862 c-30 -32 -66 -81 -82 -109 l-27 -51 82 -50 c46 -27 384
-226 752 -442 504 -295 671 -389 677 -379 31 55 11 63 342 -132 170 -99 310
-179 312 -177 8 9 65 106 65 111 0 3 -140 87 -310 187 l-311 182 17 25 c9 14
12 29 7 33 -10 9 -1461 860 -1467 860 -2 0 -28 -26 -57 -58z"/>
<path d="M8705 7491 c-470 -275 -729 -433 -728 -442 1 -8 3 -22 5 -33 2 -15
-58 -54 -304 -198 l-306 -180 35 -59 35 -59 32 19 c17 10 157 92 310 181 296
173 279 167 311 116 8 -14 123 50 758 421 482 282 747 443 747 453 0 32 -137
211 -160 210 -3 -1 -333 -193 -735 -429z"/>
<path d="M1266 7181 c10 -17 113 -125 229 -239 l210 -209 405 -162 c223 -88
408 -161 412 -161 3 0 11 14 17 30 5 17 14 30 18 30 5 0 154 -58 333 -130 178
-71 327 -127 331 -122 9 9 51 114 47 117 -2 1 -149 61 -328 133 -334 135 -333
134 -319 180 3 9 -208 98 -664 282 -367 148 -677 272 -689 276 -20 6 -20 6 -2
-25z"/>
<path d="M8865 6937 c-515 -206 -679 -276 -676 -287 2 -8 5 -22 8 -30 3 -12
-68 -45 -322 -145 -180 -72 -329 -135 -331 -141 -3 -5 7 -35 20 -66 l25 -56
333 133 333 133 13 -31 c7 -17 14 -33 16 -35 2 -1 190 72 418 163 l415 166
210 212 c190 192 248 258 226 257 -4 -1 -314 -123 -688 -273z"/>
<path d="M2274 6171 c77 -77 143 -138 146 -136 4 2 159 -32 345 -76 187 -44
344 -78 350 -75 12 4 40 114 32 122 -4 4 -671 164 -684 164 -2 0 -3 14 -1 32
l3 32 -155 38 c-85 20 -159 37 -165 38 -5 0 53 -63 129 -139z"/>
<path d="M8487 6272 l-148 -36 5 -31 6 -30 -341 -80 c-188 -43 -343 -84 -346
-91 -2 -6 2 -36 9 -65 10 -41 18 -54 31 -53 9 1 166 37 348 79 231 54 333 74
338 66 7 -10 281 256 281 272 0 11 -27 7 -183 -31z"/>
<path d="M8063 5691 c-183 -15 -335 -29 -337 -32 -2 -2 -1 -31 3 -64 l6 -60
95 3 c152 4 604 42 613 51 5 5 5 35 0 67 -7 49 -12 59 -28 60 -11 1 -170 -10
-352 -25z"/>
<path d="M2366 5673 c-6 -38 -8 -93 -3 -94 1 0 160 -13 352 -28 255 -21 352
-25 357 -17 10 15 10 126 0 126 -4 0 -145 11 -312 25 -168 14 -324 25 -346 25
-40 0 -42 -1 -48 -37z"/>
<path d="M2695 5263 c-170 -13 -316 -26 -324 -29 -11 -3 -12 -18 -7 -66 3 -34
8 -63 10 -65 7 -7 691 49 699 57 5 4 5 35 1 69 -7 61 -7 61 -38 60 -17 -1
-170 -12 -341 -26z"/>
<path d="M7736 5259 c-3 -17 -6 -46 -6 -65 0 -30 3 -34 33 -38 33 -5 532 -44
622 -49 l50 -2 9 63 c5 34 7 64 5 67 -5 4 -628 55 -677 55 -25 0 -30 -5 -36
-31z"/>
<path d="M7691 4902 c-23 -92 -23 -92 1 -100 13 -5 166 -42 341 -83 l319 -74
-6 -37 c-5 -29 -3 -38 11 -42 45 -14 316 -76 319 -73 2 2 -59 65 -135 141
l-139 139 -333 78 c-184 43 -342 81 -351 83 -13 3 -20 -5 -27 -32z"/>
<path d="M2765 4855 c-170 -41 -319 -74 -330 -75 -12 0 -76 -56 -165 -146
-166 -166 -172 -156 60 -100 l135 32 0 38 0 39 165 38 c91 21 243 57 338 80
l174 41 -7 27 c-21 89 -26 101 -43 100 -9 0 -156 -34 -327 -74z"/>
<path d="M7592 4559 c-40 -92 -67 -71 275 -209 170 -67 316 -127 325 -131 15
-8 16 -13 3 -43 l-14 -34 686 -276 c377 -152 688 -274 691 -271 9 8 -60 83
-255 277 l-198 197 -403 160 c-221 89 -407 161 -412 161 -6 0 -15 -11 -20 -25
l-9 -25 -48 19 c-62 25 -574 231 -590 238 -8 3 -20 -12 -31 -38z"/>
<path d="M2880 4469 c-329 -133 -340 -137 -340 -118 -1 48 -8 46 -426 -121
l-409 -163 -208 -206 c-199 -196 -254 -257 -245 -266 2 -3 303 115 669 261
365 147 674 270 687 275 22 8 22 10 6 40 -8 17 -12 35 -7 39 4 4 148 62 318
130 171 68 313 126 317 129 13 11 -33 121 -51 121 -9 0 -149 -55 -311 -121z"/>
<path d="M3035 4103 c-165 -96 -301 -171 -303 -165 -1 5 -9 17 -16 27 -11 16
-76 -20 -757 -418 -410 -240 -745 -442 -747 -451 -7 -34 122 -206 155 -206 13
0 1443 829 1467 850 4 5 0 22 -10 39 -10 17 -16 32 -13 34 2 2 138 81 302 177
l297 173 -26 46 c-15 25 -32 51 -38 58 -8 9 -84 -31 -311 -164z"/>
<path d="M7433 4223 l-31 -58 286 -168 c158 -92 293 -171 300 -176 12 -7 11
-14 -3 -41 -9 -17 -15 -33 -13 -35 15 -15 1448 -850 1464 -853 17 -3 34 10 73
58 48 58 91 128 91 148 0 6 -336 207 -746 448 l-746 437 -18 -23 c-10 -14 -24
-21 -32 -17 -9 3 -142 80 -298 171 -155 91 -285 166 -288 166 -4 0 -22 -26
-39 -57z"/>
<path d="M3258 3775 c-147 -118 -270 -215 -274 -215 -3 0 -14 10 -24 22 l-18
22 -623 -499 c-342 -275 -629 -505 -636 -510 -10 -8 9 -32 85 -108 l99 -98
614 492 c338 270 618 495 623 500 6 5 3 16 -6 26 -8 10 -18 23 -21 30 -4 7 98
95 263 228 l269 217 -41 54 c-22 30 -41 54 -42 54 0 -1 -121 -97 -268 -215z"/>
<path d="M7241 3938 c-31 -41 -38 -55 -28 -63 7 -5 128 -102 268 -214 139
-112 256 -206 258 -207 2 -2 -7 -17 -19 -34 -13 -18 -19 -35 -13 -39 5 -3 285
-228 621 -498 337 -271 616 -493 620 -493 17 0 196 190 187 198 -8 7 -1213
974 -1254 1006 -10 8 -18 5 -32 -13 -12 -14 -23 -20 -32 -14 -7 4 -125 98
-262 209 -138 110 -255 203 -262 207 -7 5 -27 -12 -52 -45z"/>
<path d="M7007 3682 l-46 -47 236 -254 237 -254 -28 -24 -28 -24 38 -42 c21
-23 265 -286 543 -585 l504 -544 99 98 98 99 -59 60 c-32 33 -264 283 -516
555 -252 272 -468 506 -481 519 l-23 25 -24 -22 -24 -23 -220 238 c-121 131
-229 246 -240 255 -18 17 -21 16 -66 -30z"/>
<path d="M3511 3469 l-233 -250 -24 22 c-15 14 -28 19 -33 13 -40 -44 -985
-1061 -1022 -1099 l-49 -51 98 -97 98 -98 542 582 542 583 -25 26 -25 26 235
254 236 253 -43 44 c-23 23 -47 43 -53 43 -6 0 -116 -113 -244 -251z"/>
<path d="M3815 3214 c-193 -279 -197 -285 -217 -268 -13 13 -24 15 -34 9 -18
-12 -924 -1325 -924 -1340 0 -12 187 -201 193 -194 2 2 219 316 482 697 l478
694 -28 22 -29 23 187 271 c103 149 190 278 193 286 5 12 -34 45 -92 79 -7 4
-89 -105 -209 -279z"/>
<path d="M6738 3463 c-27 -19 -48 -38 -48 -41 1 -4 88 -133 194 -287 l194
-280 -27 -17 c-14 -10 -26 -22 -26 -27 0 -5 214 -320 475 -700 l475 -691 99
99 99 99 -64 94 c-35 52 -244 356 -464 675 l-400 581 -27 -16 c-27 -16 -29
-15 -46 8 -9 14 -96 139 -193 279 -96 140 -179 256 -185 257 -5 1 -30 -13 -56
-33z"/>
<path d="M4154 3005 c-132 -272 -151 -305 -169 -300 -11 4 -26 7 -34 8 -8 1
-148 -272 -387 -758 -205 -418 -374 -765 -374 -771 0 -40 267 -26 304 15 11
12 696 1396 696 1406 0 1 -13 8 -30 15 -16 7 -30 15 -30 19 0 3 65 138 145
300 80 161 145 299 145 307 0 12 -87 64 -108 64 -5 0 -76 -137 -158 -305z"/>
<path d="M6438 3284 c-27 -13 -48 -29 -48 -34 0 -6 65 -143 145 -307 80 -163
145 -299 145 -303 0 -3 -14 -13 -30 -21 l-31 -14 206 -420 c529 -1079 483
-991 524 -1004 83 -27 272 -26 270 2 0 7 -168 354 -373 772 -388 791 -377 771
-426 752 -12 -5 -49 64 -162 296 -81 166 -153 303 -160 304 -7 1 -34 -9 -60
-23z"/>
<path d="M4582 3032 c-24 -75 -70 -221 -103 -324 l-60 -187 -34 6 -33 5 -21
-68 c-12 -38 -68 -215 -125 -394 -56 -179 -101 -327 -99 -330 2 -2 95 87 207
199 l203 203 47 147 c25 80 46 152 46 158 0 6 -13 16 -30 21 -17 7 -28 16 -25
24 42 127 195 621 195 631 0 11 -88 47 -116 47 -5 0 -28 -62 -52 -138z"/>
<path d="M6108 3152 c-27 -8 -48 -20 -48 -25 0 -5 43 -145 95 -310 53 -166 98
-310 101 -320 4 -13 -2 -20 -25 -28 -17 -6 -31 -16 -31 -21 0 -6 21 -77 46
-158 l47 -148 203 -203 c112 -112 205 -201 207 -199 3 4 -241 790 -248 798 -1
1 -15 -2 -30 -8 -15 -6 -30 -9 -32 -7 -2 3 -49 149 -105 326 -78 248 -105 321
-117 320 -9 0 -37 -8 -63 -17z"/>
<path d="M4965 3049 c-20 -113 -95 -608 -95 -626 0 -23 10 -28 81 -38 l47 -6
10 58 c44 255 94 614 86 622 -5 5 -35 12 -66 16 l-57 7 -6 -33z"/>
<path d="M5752 3073 c-18 -3 -35 -10 -38 -17 -3 -7 18 -160 45 -339 28 -178
51 -328 51 -332 0 -7 84 4 116 15 21 8 20 9 -28 322 -26 172 -50 323 -53 336
-6 23 -15 24 -93 15z"/>
<path d="M5344 3041 c-2 -2 -4 -159 -4 -348 l0 -343 64 0 c58 0 64 2 70 23 3
12 6 165 6 339 0 243 -3 319 -12 325 -13 8 -116 11 -124 4z"/>
</g>
</svg>
