<svg width="500" height="141" viewBox="0 0 500 141" fill="none" xmlns="http://www.w3.org/2000/svg">
<path d="M45 107.5C44.7239 107.5 44.5 107.724 44.5 108C44.5 108.276 44.7239 108.5 45 108.5V107.5ZM490.354 108.354C490.549 108.158 490.549 107.842 490.354 107.646L487.172 104.464C486.976 104.269 486.66 104.269 486.464 104.464C486.269 104.66 486.269 104.976 486.464 105.172L489.293 108L486.464 110.828C486.269 111.024 486.269 111.34 486.464 111.536C486.66 111.731 486.976 111.731 487.172 111.536L490.354 108.354ZM45 108.5H490V107.5H45V108.5Z" fill="#595959"/>
<path d="M106.5 101C106.5 101.276 106.724 101.5 107 101.5C107.276 101.5 107.5 101.276 107.5 101L106.5 101ZM107.354 72.6464C107.158 72.4512 106.842 72.4512 106.646 72.6464L103.464 75.8284C103.269 76.0237 103.269 76.3403 103.464 76.5355C103.66 76.7308 103.976 76.7308 104.172 76.5355L107 73.7071L109.828 76.5355C110.024 76.7308 110.34 76.7308 110.536 76.5355C110.731 76.3403 110.731 76.0237 110.536 75.8284L107.354 72.6464ZM107.5 101L107.5 73L106.5 73L106.5 101L107.5 101Z" fill="#595959"/>
<path d="M167.5 101C167.5 101.276 167.724 101.5 168 101.5C168.276 101.5 168.5 101.276 168.5 101L167.5 101ZM168.354 72.6464C168.158 72.4512 167.842 72.4512 167.646 72.6464L164.464 75.8284C164.269 76.0237 164.269 76.3403 164.464 76.5355C164.66 76.7308 164.976 76.7308 165.172 76.5355L168 73.7071L170.828 76.5355C171.024 76.7308 171.34 76.7308 171.536 76.5355C171.731 76.3403 171.731 76.0237 171.536 75.8284L168.354 72.6464ZM168.5 101L168.5 73L167.5 73L167.5 101L168.5 101Z" fill="#595959"/>
<path d="M175.5 73C175.5 72.7239 175.276 72.5 175 72.5C174.724 72.5 174.5 72.7239 174.5 73L175.5 73ZM174.646 101.354C174.842 101.549 175.158 101.549 175.354 101.354L178.536 98.1716C178.731 97.9763 178.731 97.6597 178.536 97.4645C178.34 97.2692 178.024 97.2692 177.828 97.4645L175 100.293L172.172 97.4645C171.976 97.2692 171.66 97.2692 171.464 97.4645C171.269 97.6597 171.269 97.9763 171.464 98.1716L174.646 101.354ZM174.5 73L174.5 101L175.5 101L175.5 73L174.5 73Z" fill="#595959"/>
<path d="M235.5 101C235.5 101.276 235.724 101.5 236 101.5C236.276 101.5 236.5 101.276 236.5 101L235.5 101ZM236.354 72.6464C236.158 72.4512 235.842 72.4512 235.646 72.6464L232.464 75.8284C232.269 76.0237 232.269 76.3403 232.464 76.5355C232.66 76.7308 232.976 76.7308 233.172 76.5355L236 73.7071L238.828 76.5355C239.024 76.7308 239.34 76.7308 239.536 76.5355C239.731 76.3403 239.731 76.0237 239.536 75.8284L236.354 72.6464ZM236.5 101L236.5 73L235.5 73L235.5 101L236.5 101Z" fill="#595959"/>
<path d="M362.5 101C362.5 101.276 362.724 101.5 363 101.5C363.276 101.5 363.5 101.276 363.5 101L362.5 101ZM363.354 72.6464C363.158 72.4512 362.842 72.4512 362.646 72.6464L359.464 75.8284C359.269 76.0237 359.269 76.3403 359.464 76.5355C359.66 76.7308 359.976 76.7308 360.172 76.5355L363 73.7071L365.828 76.5355C366.024 76.7308 366.34 76.7308 366.536 76.5355C366.731 76.3403 366.731 76.0237 366.536 75.8284L363.354 72.6464ZM363.5 101L363.5 73L362.5 73L362.5 101L363.5 101Z" fill="#595959"/>
<path d="M431.5 101C431.5 101.276 431.724 101.5 432 101.5C432.276 101.5 432.5 101.276 432.5 101L431.5 101ZM432.354 72.6464C432.158 72.4512 431.842 72.4512 431.646 72.6464L428.464 75.8284C428.269 76.0237 428.269 76.3403 428.464 76.5355C428.66 76.7308 428.976 76.7308 429.172 76.5355L432 73.7071L434.828 76.5355C435.024 76.7308 435.34 76.7308 435.536 76.5355C435.731 76.3403 435.731 76.0237 435.536 75.8284L432.354 72.6464ZM432.5 101L432.5 73L431.5 73L431.5 101L432.5 101Z" fill="#595959"/>
<path d="M167.5 34C167.5 34.2761 167.724 34.5 168 34.5C168.276 34.5 168.5 34.2761 168.5 34H167.5ZM106.646 34.3536C106.842 34.5488 107.158 34.5488 107.354 34.3536L110.536 31.1716C110.731 30.9763 110.731 30.6597 110.536 30.4645C110.34 30.2692 110.024 30.2692 109.828 30.4645L107 33.2929L104.172 30.4645C103.976 30.2692 103.66 30.2692 103.464 30.4645C103.269 30.6597 103.269 30.9763 103.464 31.1716L106.646 34.3536ZM168.5 34V29.5H167.5V34H168.5ZM164 25H111V26H164V25ZM106.5 29.5V34H107.5V29.5H106.5ZM111 25C108.515 25 106.5 27.0147 106.5 29.5H107.5C107.5 27.567 109.067 26 111 26V25ZM168.5 29.5C168.5 27.0147 166.485 25 164 25V26C165.933 26 167.5 27.567 167.5 29.5H168.5Z" fill="#595959"/>
<path d="M365.5 34C365.5 34.2761 365.724 34.5 366 34.5C366.276 34.5 366.5 34.2761 366.5 34H365.5ZM174.646 34.3536C174.842 34.5488 175.158 34.5488 175.354 34.3536L178.536 31.1716C178.731 30.9763 178.731 30.6597 178.536 30.4645C178.34 30.2692 178.024 30.2692 177.828 30.4645L175 33.2929L172.172 30.4645C171.976 30.2692 171.66 30.2692 171.464 30.4645C171.269 30.6597 171.269 30.9763 171.464 31.1716L174.646 34.3536ZM366.5 34V29.5H365.5V34H366.5ZM362 25H179V26H362V25ZM174.5 29.5V34H175.5V29.5H174.5ZM179 25C176.515 25 174.5 27.0147 174.5 29.5H175.5C175.5 27.567 177.067 26 179 26V25ZM366.5 29.5C366.5 27.0147 364.485 25 362 25V26C363.933 26 365.5 27.567 365.5 29.5H366.5Z" fill="#595959"/>
<path d="M430.5 34C430.5 34.2761 430.724 34.5 431 34.5C431.276 34.5 431.5 34.2761 431.5 34H430.5ZM235.646 34.3536C235.842 34.5488 236.158 34.5488 236.354 34.3536L239.536 31.1716C239.731 30.9763 239.731 30.6597 239.536 30.4645C239.34 30.2692 239.024 30.2692 238.828 30.4645L236 33.2929L233.172 30.4645C232.976 30.2692 232.66 30.2692 232.464 30.4645C232.269 30.6597 232.269 30.9763 232.464 31.1716L235.646 34.3536ZM431.5 34V16.5H430.5V34H431.5ZM427 12H240V13H427V12ZM235.5 16.5V34H236.5V16.5H235.5ZM240 12C237.515 12 235.5 14.0147 235.5 16.5H236.5C236.5 14.567 238.067 13 240 13V12ZM431.5 16.5C431.5 14.0147 429.485 12 427 12V13C428.933 13 430.5 14.567 430.5 16.5H431.5Z" fill="#595959"/>
<path d="M370.5 73C370.5 72.7239 370.276 72.5 370 72.5C369.724 72.5 369.5 72.7239 369.5 73L370.5 73ZM369.646 101.354C369.842 101.549 370.158 101.549 370.354 101.354L373.536 98.1716C373.731 97.9763 373.731 97.6597 373.536 97.4645C373.34 97.2692 373.024 97.2692 372.828 97.4645L370 100.293L367.172 97.4645C366.976 97.2692 366.66 97.2692 366.464 97.4645C366.269 97.6597 366.269 97.9763 366.464 98.1716L369.646 101.354ZM369.5 73L369.5 101L370.5 101L370.5 73L369.5 73Z" fill="#595959"/>
<rect x="7.5" y="91.5" width="34" height="34" rx="3.5" stroke="#595959" stroke-linejoin="round" stroke-dasharray="4 4"/>
<path d="M19.5382 108.665V106.345H20.1782V108.625C20.1782 109.15 20.4632 109.44 20.9832 109.44C21.5032 109.44 21.7932 109.145 21.7932 108.625V106.345H22.4332V108.665C22.4332 109.52 21.8732 110.06 20.9832 110.06C20.0982 110.06 19.5382 109.525 19.5382 108.665ZM22.9063 109.25H23.4863C23.4913 109.465 23.6513 109.6 23.9313 109.6C24.2163 109.6 24.3713 109.485 24.3713 109.305C24.3713 109.18 24.3063 109.09 24.0863 109.04L23.6413 108.935C23.1963 108.835 22.9813 108.625 22.9813 108.23C22.9813 107.745 23.3913 107.455 23.9613 107.455C24.5163 107.455 24.8913 107.775 24.8963 108.255H24.3163C24.3113 108.045 24.1713 107.91 23.9363 107.91C23.6963 107.91 23.5563 108.02 23.5563 108.205C23.5563 108.345 23.6663 108.435 23.8763 108.485L24.3213 108.59C24.7363 108.685 24.9463 108.875 24.9463 109.255C24.9463 109.755 24.5213 110.065 23.9113 110.065C23.2963 110.065 22.9063 109.735 22.9063 109.25ZM26.5157 110.065C25.7807 110.065 25.2657 109.53 25.2657 108.765C25.2657 107.99 25.7707 107.455 26.4957 107.455C27.2357 107.455 27.7057 107.95 27.7057 108.72V108.905L25.8457 108.91C25.8907 109.345 26.1207 109.565 26.5257 109.565C26.8607 109.565 27.0807 109.435 27.1507 109.2H27.7157C27.6107 109.74 27.1607 110.065 26.5157 110.065ZM26.5007 107.955C26.1407 107.955 25.9207 108.15 25.8607 108.52H27.1007C27.1007 108.18 26.8657 107.955 26.5007 107.955ZM29.7439 107.52V108.085H29.5189C29.0789 108.085 28.8039 108.32 28.8039 108.8V110H28.1939V107.535H28.7689L28.8039 107.895C28.9089 107.65 29.1439 107.485 29.4739 107.485C29.5589 107.485 29.6439 107.495 29.7439 107.52Z" fill="#595959"/>
<rect x="219.5" y="36.5" width="34" height="34" rx="3.5" stroke="#E7125E" stroke-linejoin="round"/>
<path d="M233.739 50.005H232.379V51.5H231.739V47.845H233.999V48.435H232.379V49.43H233.739V50.005ZM235.891 51.5H234.576V47.845H235.856C236.936 47.845 237.681 48.59 237.681 49.68C237.681 50.755 236.951 51.5 235.891 51.5ZM235.796 48.435H235.216V50.91H235.831C236.561 50.91 237.006 50.44 237.006 49.68C237.006 48.905 236.551 48.435 235.796 48.435ZM239.822 51.56C238.757 51.56 238.067 50.82 238.067 49.675C238.067 48.54 238.782 47.785 239.852 47.785C240.717 47.785 241.362 48.29 241.487 49.075H240.812C240.687 48.65 240.322 48.4 239.837 48.4C239.162 48.4 238.737 48.89 238.737 49.67C238.737 50.445 239.167 50.945 239.837 50.945C240.332 50.945 240.712 50.685 240.832 50.28H241.497C241.357 51.05 240.687 51.56 239.822 51.56ZM229.248 57.185H228.298L228.088 58.5H227.748L228.313 54.92H229.548C230.158 54.92 230.578 55.325 230.578 55.915C230.578 56.68 230.053 57.185 229.248 57.185ZM229.478 55.23H228.603L228.343 56.875H229.233C229.853 56.875 230.228 56.515 230.228 55.93C230.228 55.51 229.933 55.23 229.478 55.23ZM232.306 56.05L232.261 56.345H232.071C231.646 56.345 231.311 56.645 231.241 57.105L231.016 58.5H230.691L231.071 56.08H231.366L231.331 56.485C231.466 56.21 231.746 56.025 232.071 56.025C232.151 56.025 232.231 56.035 232.306 56.05ZM232.288 57.46C232.288 56.665 232.908 56.015 233.668 56.015C234.303 56.015 234.733 56.465 234.733 57.115C234.733 57.915 234.113 58.56 233.358 58.56C232.723 58.56 232.288 58.115 232.288 57.46ZM232.623 57.445C232.623 57.95 232.918 58.265 233.388 58.265C233.943 58.265 234.398 57.755 234.398 57.13C234.398 56.625 234.103 56.31 233.633 56.31C233.078 56.31 232.623 56.82 232.623 57.445ZM235.576 58.5H235.246L235.586 56.36H235.116L235.161 56.08H235.631L235.751 55.315H236.076L235.956 56.08H236.431L236.386 56.36H235.911L235.576 58.5ZM236.477 57.46C236.477 56.665 237.097 56.015 237.857 56.015C238.492 56.015 238.922 56.465 238.922 57.115C238.922 57.915 238.302 58.56 237.547 58.56C236.912 58.56 236.477 58.115 236.477 57.46ZM236.812 57.445C236.812 57.95 237.107 58.265 237.577 58.265C238.132 58.265 238.587 57.755 238.587 57.13C238.587 56.625 238.292 56.31 237.822 56.31C237.267 56.31 236.812 56.82 236.812 57.445ZM239.26 57.485C239.26 56.655 239.825 56.015 240.555 56.015C241.1 56.015 241.445 56.315 241.505 56.84H241.165C241.13 56.515 240.895 56.315 240.545 56.315C240.01 56.315 239.595 56.82 239.595 57.47C239.595 57.95 239.875 58.265 240.3 58.265C240.655 58.265 240.945 58.065 241.065 57.74H241.405C241.25 58.245 240.82 58.56 240.295 58.56C239.68 58.56 239.26 58.12 239.26 57.485ZM241.804 57.46C241.804 56.665 242.424 56.015 243.184 56.015C243.819 56.015 244.249 56.465 244.249 57.115C244.249 57.915 243.629 58.56 242.874 58.56C242.239 58.56 241.804 58.115 241.804 57.46ZM242.139 57.445C242.139 57.95 242.434 58.265 242.904 58.265C243.459 58.265 243.914 57.755 243.914 57.13C243.914 56.625 243.619 56.31 243.149 56.31C242.594 56.31 242.139 56.82 242.139 57.445ZM244.927 58.5H244.602L245.177 54.855H245.502L244.927 58.5Z" fill="#595959"/>
<rect x="414.5" y="36.5" width="34" height="34" rx="3.5" stroke="#E7125E" stroke-linejoin="round"/>
<path d="M425.57 48.875C425.57 48.275 426.04 47.855 426.715 47.855C427.37 47.855 427.82 48.23 427.86 48.815H427.515C427.47 48.405 427.18 48.175 426.705 48.175C426.23 48.175 425.915 48.44 425.915 48.85C425.915 49.155 426.07 49.34 426.43 49.465L426.965 49.65C427.445 49.815 427.665 50.095 427.665 50.53C427.665 51.14 427.165 51.565 426.445 51.565C425.74 51.565 425.33 51.235 425.265 50.61H425.615C425.66 51.015 425.955 51.25 426.455 51.25C426.97 51.25 427.32 50.965 427.32 50.545C427.32 50.245 427.185 50.075 426.845 49.96L426.32 49.775C425.805 49.6 425.57 49.315 425.57 48.875ZM428.413 51.5H428.088L428.468 49.08H428.748L428.733 49.435C428.893 49.175 429.173 49.015 429.503 49.015C429.873 49.015 430.123 49.22 430.183 49.55C430.348 49.22 430.663 49.015 431.038 49.015C431.548 49.015 431.853 49.39 431.773 49.915L431.528 51.5H431.203L431.438 49.985C431.503 49.565 431.323 49.315 430.948 49.315C430.578 49.315 430.273 49.595 430.208 50L429.973 51.5H429.643L429.888 49.975C429.953 49.575 429.763 49.315 429.393 49.315C429.023 49.315 428.718 49.595 428.653 49.995L428.413 51.5ZM432.904 51.56C432.474 51.56 432.194 51.305 432.194 50.915C432.194 50.435 432.564 50.125 433.209 50.07L433.999 50.01L434.009 49.94C434.089 49.525 433.889 49.295 433.459 49.295C433.049 49.295 432.814 49.475 432.759 49.82H432.444C432.519 49.31 432.904 49.015 433.479 49.015C434.094 49.015 434.429 49.37 434.339 49.93L434.094 51.5H433.809L433.839 51.075C433.654 51.375 433.299 51.56 432.904 51.56ZM433.004 51.285C433.499 51.285 433.859 50.94 433.944 50.395L433.964 50.26L433.244 50.32C432.779 50.36 432.524 50.57 432.524 50.9C432.524 51.135 432.709 51.285 433.004 51.285ZM436.403 49.05L436.358 49.345H436.168C435.743 49.345 435.408 49.645 435.338 50.105L435.113 51.5H434.788L435.168 49.08H435.463L435.428 49.485C435.563 49.21 435.843 49.025 436.168 49.025C436.248 49.025 436.328 49.035 436.403 49.05ZM437.105 51.5H436.775L437.115 49.36H436.645L436.69 49.08H437.16L437.28 48.315H437.605L437.485 49.08H437.96L437.915 49.36H437.44L437.105 51.5ZM422.825 57.485C422.825 56.655 423.39 56.015 424.12 56.015C424.665 56.015 425.01 56.315 425.07 56.84H424.73C424.695 56.515 424.46 56.315 424.11 56.315C423.575 56.315 423.16 56.82 423.16 57.47C423.16 57.95 423.44 58.265 423.865 58.265C424.22 58.265 424.51 58.065 424.63 57.74H424.97C424.815 58.245 424.385 58.56 423.86 58.56C423.245 58.56 422.825 58.12 422.825 57.485ZM425.369 57.46C425.369 56.665 425.989 56.015 426.749 56.015C427.384 56.015 427.814 56.465 427.814 57.115C427.814 57.915 427.194 58.56 426.439 58.56C425.804 58.56 425.369 58.115 425.369 57.46ZM425.704 57.445C425.704 57.95 425.999 58.265 426.469 58.265C427.024 58.265 427.479 57.755 427.479 57.13C427.479 56.625 427.184 56.31 426.714 56.31C426.159 56.31 425.704 56.82 425.704 57.445ZM428.477 58.5H428.152L428.532 56.08H428.817L428.792 56.515C429.017 56.18 429.292 56.015 429.662 56.015C430.217 56.015 430.542 56.425 430.447 57.025L430.217 58.5H429.887L430.112 57.095C430.197 56.59 430.002 56.315 429.577 56.315C429.107 56.315 428.767 56.67 428.677 57.24L428.477 58.5ZM431.436 58.5H431.106L431.446 56.36H430.976L431.021 56.08H431.491L431.611 55.315H431.936L431.816 56.08H432.291L432.246 56.36H431.771L431.436 58.5ZM433.976 56.05L433.931 56.345H433.741C433.316 56.345 432.981 56.645 432.911 57.105L432.686 58.5H432.361L432.741 56.08H433.036L433.001 56.485C433.136 56.21 433.416 56.025 433.741 56.025C433.821 56.025 433.901 56.035 433.976 56.05ZM434.633 58.56C434.203 58.56 433.923 58.305 433.923 57.915C433.923 57.435 434.293 57.125 434.938 57.07L435.728 57.01L435.738 56.94C435.818 56.525 435.618 56.295 435.188 56.295C434.778 56.295 434.543 56.475 434.488 56.82H434.173C434.248 56.31 434.633 56.015 435.208 56.015C435.823 56.015 436.158 56.37 436.068 56.93L435.823 58.5H435.538L435.568 58.075C435.383 58.375 435.028 58.56 434.633 58.56ZM434.733 58.285C435.228 58.285 435.588 57.94 435.673 57.395L435.693 57.26L434.973 57.32C434.508 57.36 434.253 57.57 434.253 57.9C434.253 58.135 434.438 58.285 434.733 58.285ZM436.516 57.485C436.516 56.655 437.081 56.015 437.811 56.015C438.356 56.015 438.701 56.315 438.761 56.84H438.421C438.386 56.515 438.151 56.315 437.801 56.315C437.266 56.315 436.851 56.82 436.851 57.47C436.851 57.95 437.131 58.265 437.556 58.265C437.911 58.265 438.201 58.065 438.321 57.74H438.661C438.506 58.245 438.076 58.56 437.551 58.56C436.936 58.56 436.516 58.12 436.516 57.485ZM439.59 58.5H439.26L439.6 56.36H439.13L439.175 56.08H439.645L439.765 55.315H440.09L439.97 56.08H440.445L440.4 56.36H439.925L439.59 58.5Z" fill="#595959"/>
<rect x="90.5" y="37.5" width="33" height="33" rx="16.5" stroke="#E7125E" stroke-linejoin="round" stroke-dasharray="4 4"/>
<path d="M99.8131 52H97.4631V48.3H99.8131V49.05H98.2731V49.775H99.6381V50.485H98.2731V51.25H99.8131V52ZM101.016 52H100.141L100.981 50.79L100.141 49.5H101.031L101.491 50.26L101.921 49.5H102.781L101.956 50.775L102.751 52H101.866L101.436 51.28L101.016 52ZM104.228 52H103.458V50.14H102.983V49.5H103.458V48.725H104.228V49.5H104.703V50.14H104.228V52ZM106.184 52.065C105.429 52.065 104.889 51.515 104.889 50.745C104.889 49.965 105.414 49.42 106.169 49.42C106.954 49.42 107.444 49.935 107.444 50.75V50.945L105.629 50.955C105.674 51.285 105.859 51.44 106.199 51.44C106.489 51.44 106.694 51.335 106.749 51.155H107.454C107.364 51.71 106.869 52.065 106.184 52.065ZM106.174 50.045C105.869 50.045 105.699 50.18 105.639 50.48H106.679C106.679 50.215 106.484 50.045 106.174 50.045ZM109.62 49.5V50.225H109.375C108.935 50.225 108.67 50.42 108.67 50.915V52H107.9V49.505H108.625L108.665 49.875C108.77 49.63 108.99 49.465 109.325 49.465C109.415 49.465 109.515 49.475 109.62 49.5ZM110.78 52H110.01V49.5H110.735L110.785 49.76C110.94 49.545 111.225 49.42 111.55 49.42C112.145 49.42 112.49 49.8 112.49 50.455V52H111.72V50.64C111.72 50.325 111.545 50.12 111.28 50.12C110.975 50.12 110.78 50.32 110.78 50.63V52ZM113.797 52.065C113.267 52.065 112.937 51.755 112.937 51.265C112.937 50.805 113.262 50.52 113.862 50.475L114.562 50.42V50.38C114.562 50.135 114.412 50.005 114.137 50.005C113.812 50.005 113.637 50.13 113.637 50.355H112.997C112.997 49.79 113.462 49.42 114.177 49.42C114.902 49.42 115.312 49.825 115.312 50.54V52H114.632L114.582 51.67C114.502 51.9 114.172 52.065 113.797 52.065ZM114.067 51.495C114.362 51.495 114.567 51.35 114.567 51.065V50.93L114.177 50.965C113.842 50.995 113.722 51.07 113.722 51.23C113.722 51.41 113.832 51.495 114.067 51.495ZM116.634 52H115.864V48.23H116.634V52ZM103.208 59H101.758V55.3H103.158C104.243 55.3 104.998 56.06 104.998 57.16C104.998 58.24 104.263 59 103.208 59ZM103.078 56.05H102.568V58.25H103.128C103.768 58.25 104.143 57.845 104.143 57.16C104.143 56.46 103.748 56.05 103.078 56.05ZM106.221 59.065C105.691 59.065 105.361 58.755 105.361 58.265C105.361 57.805 105.686 57.52 106.286 57.475L106.986 57.42V57.38C106.986 57.135 106.836 57.005 106.561 57.005C106.236 57.005 106.061 57.13 106.061 57.355H105.421C105.421 56.79 105.886 56.42 106.601 56.42C107.326 56.42 107.736 56.825 107.736 57.54V59H107.056L107.006 58.67C106.926 58.9 106.596 59.065 106.221 59.065ZM106.491 58.495C106.786 58.495 106.991 58.35 106.991 58.065V57.93L106.601 57.965C106.266 57.995 106.146 58.07 106.146 58.23C106.146 58.41 106.256 58.495 106.491 58.495ZM109.274 59H108.504V57.14H108.029V56.5H108.504V55.725H109.274V56.5H109.749V57.14H109.274V59ZM110.85 59.065C110.32 59.065 109.99 58.755 109.99 58.265C109.99 57.805 110.315 57.52 110.915 57.475L111.615 57.42V57.38C111.615 57.135 111.465 57.005 111.19 57.005C110.865 57.005 110.69 57.13 110.69 57.355H110.05C110.05 56.79 110.515 56.42 111.23 56.42C111.955 56.42 112.365 56.825 112.365 57.54V59H111.685L111.635 58.67C111.555 58.9 111.225 59.065 110.85 59.065ZM111.12 58.495C111.415 58.495 111.62 58.35 111.62 58.065V57.93L111.23 57.965C110.895 57.995 110.775 58.07 110.775 58.23C110.775 58.41 110.885 58.495 111.12 58.495Z" fill="#595959"/>
<path d="M164.541 56L163.161 52.345H163.841L164.641 54.45C164.721 54.67 164.791 54.885 164.871 55.18C164.961 54.86 165.036 54.635 165.106 54.45L165.896 52.345H166.561L165.201 56H164.541ZM167.612 56.065C166.877 56.065 166.362 55.53 166.362 54.765C166.362 53.99 166.867 53.455 167.592 53.455C168.332 53.455 168.802 53.95 168.802 54.72V54.905L166.942 54.91C166.987 55.345 167.217 55.565 167.622 55.565C167.957 55.565 168.177 55.435 168.247 55.2H168.812C168.707 55.74 168.257 56.065 167.612 56.065ZM167.597 53.955C167.237 53.955 167.017 54.15 166.957 54.52H168.197C168.197 54.18 167.962 53.955 167.597 53.955ZM170.841 53.52V54.085H170.616C170.176 54.085 169.901 54.32 169.901 54.8V56H169.291V53.535H169.866L169.901 53.895C170.006 53.65 170.241 53.485 170.571 53.485C170.656 53.485 170.741 53.495 170.841 53.52ZM171.558 53.035C171.348 53.035 171.183 52.87 171.183 52.665C171.183 52.46 171.348 52.3 171.558 52.3C171.758 52.3 171.923 52.46 171.923 52.665C171.923 52.87 171.758 53.035 171.558 53.035ZM171.253 56V53.53H171.863V56H171.253ZM174.219 56V54.04H173.209V56H172.604V54.04H172.249V53.53H172.604V53.23C172.604 52.56 172.954 52.28 173.454 52.28C173.549 52.28 173.664 52.285 173.769 52.305V52.825H173.554C173.279 52.825 173.209 52.985 173.209 53.23V53.53H174.829V56H174.219ZM174.524 53.025C174.319 53.025 174.159 52.865 174.159 52.66C174.159 52.46 174.319 52.3 174.524 52.3C174.724 52.3 174.884 52.46 174.884 52.66C174.884 52.865 174.724 53.025 174.524 53.025ZM176.563 56.065C175.828 56.065 175.313 55.53 175.313 54.765C175.313 53.99 175.818 53.455 176.543 53.455C177.283 53.455 177.753 53.95 177.753 54.72V54.905L175.893 54.91C175.938 55.345 176.168 55.565 176.573 55.565C176.908 55.565 177.128 55.435 177.198 55.2H177.763C177.658 55.74 177.208 56.065 176.563 56.065ZM176.548 53.955C176.188 53.955 175.968 54.15 175.908 54.52H177.148C177.148 54.18 176.913 53.955 176.548 53.955ZM179.791 53.52V54.085H179.566C179.126 54.085 178.851 54.32 178.851 54.8V56H178.241V53.535H178.816L178.851 53.895C178.956 53.65 179.191 53.485 179.521 53.485C179.606 53.485 179.691 53.495 179.791 53.52ZM165.089 60.375C165.089 59.775 165.559 59.355 166.234 59.355C166.889 59.355 167.339 59.73 167.379 60.315H167.034C166.989 59.905 166.699 59.675 166.224 59.675C165.749 59.675 165.434 59.94 165.434 60.35C165.434 60.655 165.589 60.84 165.949 60.965L166.484 61.15C166.964 61.315 167.184 61.595 167.184 62.03C167.184 62.64 166.684 63.065 165.964 63.065C165.259 63.065 164.849 62.735 164.784 62.11H165.134C165.179 62.515 165.474 62.75 165.974 62.75C166.489 62.75 166.839 62.465 166.839 62.045C166.839 61.745 166.704 61.575 166.364 61.46L165.839 61.275C165.324 61.1 165.089 60.815 165.089 60.375ZM168.643 63.06C168.028 63.06 167.608 62.62 167.608 61.985C167.608 61.155 168.172 60.515 168.903 60.515C169.568 60.515 169.962 61.01 169.858 61.665L169.833 61.83H167.938C167.933 61.875 167.933 61.92 167.933 61.97C167.933 62.46 168.213 62.775 168.648 62.775C169.003 62.775 169.308 62.59 169.428 62.28H169.758C169.598 62.765 169.158 63.06 168.643 63.06ZM168.893 60.8C168.463 60.8 168.108 61.125 167.983 61.59H169.538C169.613 61.115 169.343 60.8 168.893 60.8ZM171.806 60.55L171.761 60.845H171.571C171.146 60.845 170.811 61.145 170.741 61.605L170.516 63H170.191L170.571 60.58H170.866L170.831 60.985C170.966 60.71 171.246 60.525 171.571 60.525C171.651 60.525 171.731 60.535 171.806 60.55ZM172.608 63L172.018 60.58H172.348L172.723 62.165C172.753 62.315 172.783 62.45 172.813 62.655C172.888 62.5 172.958 62.355 173.063 62.165L173.943 60.58H174.303L172.933 63H172.608ZM175.273 63.06C174.658 63.06 174.238 62.62 174.238 61.985C174.238 61.155 174.803 60.515 175.533 60.515C176.198 60.515 176.593 61.01 176.488 61.665L176.463 61.83H174.568C174.563 61.875 174.563 61.92 174.563 61.97C174.563 62.46 174.843 62.775 175.278 62.775C175.633 62.775 175.938 62.59 176.058 62.28H176.388C176.228 62.765 175.788 63.06 175.273 63.06ZM175.523 60.8C175.093 60.8 174.738 61.125 174.613 61.59H176.168C176.243 61.115 175.973 60.8 175.523 60.8ZM178.436 60.55L178.391 60.845H178.201C177.776 60.845 177.441 61.145 177.371 61.605L177.146 63H176.821L177.201 60.58H177.496L177.461 60.985C177.596 60.71 177.876 60.525 178.201 60.525C178.281 60.525 178.361 60.535 178.436 60.55Z" fill="#595959"/>
<path d="M80.0772 86.79C80.0772 86.05 80.5972 85.515 81.3072 85.515C82.0172 85.515 82.5372 86.05 82.5372 86.79C82.5372 87.525 82.0172 88.06 81.3072 88.06C80.5972 88.06 80.0772 87.525 80.0772 86.79ZM80.4272 86.785C80.4272 87.355 80.7872 87.75 81.3072 87.75C81.8222 87.75 82.1872 87.355 82.1872 86.785C82.1872 86.225 81.8222 85.825 81.3072 85.825C80.7872 85.825 80.4272 86.225 80.4272 86.785ZM83.389 88H83.089V84.355H83.434V86.05C83.604 85.695 83.934 85.515 84.344 85.515C85.049 85.515 85.459 86.065 85.459 86.795C85.459 87.52 85.039 88.06 84.334 88.06C83.929 88.06 83.594 87.88 83.424 87.505L83.389 88ZM83.439 86.785C83.439 87.345 83.749 87.745 84.279 87.745C84.804 87.745 85.109 87.345 85.109 86.785C85.109 86.23 84.804 85.825 84.279 85.825C83.749 85.825 83.439 86.23 83.439 86.785ZM85.8039 87.32H86.1339C86.1339 87.6 86.3439 87.775 86.6839 87.775C87.0589 87.775 87.2789 87.615 87.2789 87.355C87.2789 87.155 87.1789 87.04 86.8939 86.97L86.4789 86.865C86.0589 86.76 85.8539 86.54 85.8539 86.21C85.8539 85.785 86.2089 85.515 86.7289 85.515C87.2389 85.515 87.5689 85.795 87.5839 86.245H87.2489C87.2389 85.965 87.0439 85.8 86.7189 85.8C86.3789 85.8 86.1889 85.945 86.1889 86.205C86.1889 86.39 86.3189 86.52 86.5839 86.585L86.9989 86.69C87.4189 86.795 87.6089 86.99 87.6089 87.34C87.6089 87.775 87.2389 88.06 86.6889 88.06C86.1439 88.06 85.8039 87.77 85.8039 87.32ZM89.1919 88.06C88.4819 88.06 88.0069 87.55 88.0069 86.79C88.0069 86.035 88.4769 85.515 89.1669 85.515C89.8219 85.515 90.2669 85.98 90.2669 86.665V86.835H88.3419C88.3669 87.425 88.6769 87.765 89.1969 87.765C89.5919 87.765 89.8469 87.595 89.9369 87.275H90.2669C90.1369 87.785 89.7619 88.06 89.1919 88.06ZM89.1669 85.81C88.7119 85.81 88.4119 86.11 88.3519 86.585H89.9219C89.9219 86.12 89.6219 85.81 89.1669 85.81ZM92.0835 85.55V85.86H91.8935C91.4485 85.86 91.1635 86.16 91.1635 86.62V88H90.8185V85.58H91.1435L91.1685 85.955C91.2635 85.695 91.5185 85.525 91.8585 85.525C91.9335 85.525 91.9985 85.53 92.0835 85.55ZM93.2904 88L92.3004 85.58H92.6704L93.2954 87.14C93.3604 87.315 93.4254 87.48 93.4704 87.64C93.5154 87.475 93.5804 87.315 93.6504 87.14L94.2854 85.58H94.6404L93.6354 88H93.2904ZM95.9546 88.06C95.2446 88.06 94.7696 87.55 94.7696 86.79C94.7696 86.035 95.2396 85.515 95.9296 85.515C96.5846 85.515 97.0296 85.98 97.0296 86.665V86.835H95.1046C95.1296 87.425 95.4396 87.765 95.9596 87.765C96.3546 87.765 96.6096 87.595 96.6996 87.275H97.0296C96.8996 87.785 96.5246 88.06 95.9546 88.06ZM95.9296 85.81C95.4746 85.81 95.1746 86.11 95.1146 86.585H96.6846C96.6846 86.12 96.3846 85.81 95.9296 85.81ZM98.8462 85.55V85.86H98.6562C98.2112 85.86 97.9262 86.16 97.9262 86.62V88H97.5812V85.58H97.9062L97.9312 85.955C98.0262 85.695 98.2812 85.525 98.6212 85.525C98.6962 85.525 98.7612 85.53 98.8462 85.55ZM99.0998 87.32H99.4298C99.4298 87.6 99.6398 87.775 99.9798 87.775C100.355 87.775 100.575 87.615 100.575 87.355C100.575 87.155 100.475 87.04 100.19 86.97L99.7748 86.865C99.3548 86.76 99.1498 86.54 99.1498 86.21C99.1498 85.785 99.5048 85.515 100.025 85.515C100.535 85.515 100.865 85.795 100.88 86.245H100.545C100.535 85.965 100.34 85.8 100.015 85.8C99.6748 85.8 99.4848 85.945 99.4848 86.205C99.4848 86.39 99.6148 86.52 99.8798 86.585L100.295 86.69C100.715 86.795 100.905 86.99 100.905 87.34C100.905 87.775 100.535 88.06 99.9848 88.06C99.4398 88.06 99.0998 87.77 99.0998 87.32Z" fill="#595959"/>
<path d="M153.45 85.32H153.78C153.78 85.6 153.99 85.775 154.33 85.775C154.705 85.775 154.925 85.615 154.925 85.355C154.925 85.155 154.825 85.04 154.54 84.97L154.125 84.865C153.705 84.76 153.5 84.54 153.5 84.21C153.5 83.785 153.855 83.515 154.375 83.515C154.885 83.515 155.215 83.795 155.23 84.245H154.895C154.885 83.965 154.69 83.8 154.365 83.8C154.025 83.8 153.835 83.945 153.835 84.205C153.835 84.39 153.965 84.52 154.23 84.585L154.645 84.69C155.065 84.795 155.255 84.99 155.255 85.34C155.255 85.775 154.885 86.06 154.335 86.06C153.79 86.06 153.45 85.77 153.45 85.32ZM156.838 86.06C156.128 86.06 155.653 85.55 155.653 84.79C155.653 84.035 156.123 83.515 156.813 83.515C157.468 83.515 157.913 83.98 157.913 84.665V84.835H155.988C156.013 85.425 156.323 85.765 156.843 85.765C157.238 85.765 157.493 85.595 157.583 85.275H157.913C157.783 85.785 157.408 86.06 156.838 86.06ZM156.813 83.81C156.358 83.81 156.058 84.11 155.998 84.585H157.568C157.568 84.12 157.268 83.81 156.813 83.81ZM158.809 86H158.464V83.58H158.764L158.814 84C158.974 83.69 159.294 83.515 159.644 83.515C160.309 83.515 160.584 83.91 160.584 84.52V86H160.239V84.595C160.239 84.03 159.984 83.83 159.584 83.83C159.089 83.83 158.809 84.19 158.809 84.735V86ZM162.222 86.06C161.517 86.06 161.102 85.52 161.102 84.795C161.102 84.065 161.517 83.515 162.237 83.515C162.637 83.515 162.957 83.69 163.127 84.04V82.355H163.472V86H163.172L163.137 85.505C162.967 85.88 162.627 86.06 162.222 86.06ZM162.282 85.745C162.812 85.745 163.122 85.345 163.122 84.785C163.122 84.23 162.812 83.825 162.282 83.825C161.757 83.825 161.452 84.23 161.452 84.785C161.452 85.345 161.757 85.745 162.282 85.745ZM163.987 85.32H164.317C164.317 85.6 164.527 85.775 164.867 85.775C165.242 85.775 165.462 85.615 165.462 85.355C165.462 85.155 165.362 85.04 165.077 84.97L164.662 84.865C164.242 84.76 164.037 84.54 164.037 84.21C164.037 83.785 164.392 83.515 164.912 83.515C165.422 83.515 165.752 83.795 165.767 84.245H165.432C165.422 83.965 165.227 83.8 164.902 83.8C164.562 83.8 164.372 83.945 164.372 84.205C164.372 84.39 164.502 84.52 164.767 84.585L165.182 84.69C165.602 84.795 165.792 84.99 165.792 85.34C165.792 85.775 165.422 86.06 164.872 86.06C164.327 86.06 163.987 85.77 163.987 85.32ZM157.759 93.06C157.054 93.06 156.639 92.52 156.639 91.795C156.639 91.065 157.054 90.515 157.774 90.515C158.174 90.515 158.494 90.69 158.664 91.04V89.355H159.009V93H158.709L158.674 92.505C158.504 92.88 158.164 93.06 157.759 93.06ZM157.819 92.745C158.349 92.745 158.659 92.345 158.659 91.785C158.659 91.23 158.349 90.825 157.819 90.825C157.294 90.825 156.989 91.23 156.989 91.785C156.989 92.345 157.294 92.745 157.819 92.745ZM160.424 93.06C159.909 93.06 159.604 92.77 159.604 92.345C159.604 91.9 159.944 91.62 160.509 91.575L161.309 91.51V91.43C161.309 90.955 161.024 90.805 160.669 90.805C160.249 90.805 159.999 90.995 159.999 91.32H159.684C159.684 90.83 160.084 90.515 160.679 90.515C161.239 90.515 161.649 90.795 161.649 91.435V93H161.359L161.314 92.575C161.164 92.88 160.834 93.06 160.424 93.06ZM160.504 92.78C161.014 92.78 161.309 92.425 161.309 91.9V91.77L160.594 91.825C160.139 91.865 159.954 92.065 159.954 92.335C159.954 92.63 160.174 92.78 160.504 92.78ZM162.853 93H162.513V90.87H162.028V90.58H162.513V89.815H162.853V90.58H163.338V90.87H162.853V93ZM164.443 93.06C163.928 93.06 163.623 92.77 163.623 92.345C163.623 91.9 163.963 91.62 164.528 91.575L165.328 91.51V91.43C165.328 90.955 165.043 90.805 164.688 90.805C164.268 90.805 164.018 90.995 164.018 91.32H163.703C163.703 90.83 164.103 90.515 164.698 90.515C165.258 90.515 165.668 90.795 165.668 91.435V93H165.378L165.333 92.575C165.183 92.88 164.853 93.06 164.443 93.06ZM164.523 92.78C165.033 92.78 165.328 92.425 165.328 91.9V91.77L164.613 91.825C164.158 91.865 163.973 92.065 163.973 92.335C163.973 92.63 164.193 92.78 164.523 92.78Z" fill="#595959"/>
<path d="M178.36 87.055V83.58H178.66L178.695 84.07C178.865 83.695 179.205 83.515 179.61 83.515C180.31 83.515 180.73 84.05 180.73 84.78C180.73 85.51 180.325 86.06 179.61 86.06C179.2 86.06 178.875 85.885 178.705 85.535V87.055H178.36ZM178.71 84.79C178.71 85.345 179.02 85.75 179.55 85.75C180.075 85.75 180.38 85.345 180.38 84.79C180.38 84.23 180.075 83.83 179.55 83.83C179.02 83.83 178.71 84.23 178.71 84.79ZM182.545 83.55V83.86H182.355C181.91 83.86 181.625 84.16 181.625 84.62V86H181.28V83.58H181.605L181.63 83.955C181.725 83.695 181.98 83.525 182.32 83.525C182.395 83.525 182.46 83.53 182.545 83.55ZM183.926 86.06C183.216 86.06 182.741 85.55 182.741 84.79C182.741 84.035 183.211 83.515 183.901 83.515C184.556 83.515 185.001 83.98 185.001 84.665V84.835H183.076C183.101 85.425 183.411 85.765 183.931 85.765C184.326 85.765 184.581 85.595 184.671 85.275H185.001C184.871 85.785 184.496 86.06 183.926 86.06ZM183.901 83.81C183.446 83.81 183.146 84.11 183.086 84.585H184.656C184.656 84.12 184.356 83.81 183.901 83.81ZM185.552 87.055V83.58H185.852L185.887 84.07C186.057 83.695 186.397 83.515 186.802 83.515C187.502 83.515 187.922 84.05 187.922 84.78C187.922 85.51 187.517 86.06 186.802 86.06C186.392 86.06 186.067 85.885 185.897 85.535V87.055H185.552ZM185.902 84.79C185.902 85.345 186.212 85.75 186.742 85.75C187.267 85.75 187.572 85.345 187.572 84.79C187.572 84.23 187.267 83.83 186.742 83.83C186.212 83.83 185.902 84.23 185.902 84.79ZM189.167 86.06C188.652 86.06 188.347 85.77 188.347 85.345C188.347 84.9 188.687 84.62 189.252 84.575L190.052 84.51V84.43C190.052 83.955 189.767 83.805 189.412 83.805C188.992 83.805 188.742 83.995 188.742 84.32H188.427C188.427 83.83 188.827 83.515 189.422 83.515C189.982 83.515 190.392 83.795 190.392 84.435V86H190.102L190.057 85.575C189.907 85.88 189.577 86.06 189.167 86.06ZM189.247 85.78C189.757 85.78 190.052 85.425 190.052 84.9V84.77L189.337 84.825C188.882 84.865 188.697 85.065 188.697 85.335C188.697 85.63 188.917 85.78 189.247 85.78ZM192.35 83.55V83.86H192.16C191.715 83.86 191.43 84.16 191.43 84.62V86H191.085V83.58H191.41L191.435 83.955C191.53 83.695 191.785 83.525 192.125 83.525C192.2 83.525 192.265 83.53 192.35 83.55ZM193.73 86.06C193.02 86.06 192.545 85.55 192.545 84.79C192.545 84.035 193.015 83.515 193.705 83.515C194.36 83.515 194.805 83.98 194.805 84.665V84.835H192.88C192.905 85.425 193.215 85.765 193.735 85.765C194.13 85.765 194.385 85.595 194.475 85.275H194.805C194.675 85.785 194.3 86.06 193.73 86.06ZM193.705 83.81C193.25 83.81 192.95 84.11 192.89 84.585H194.46C194.46 84.12 194.16 83.81 193.705 83.81ZM195.152 85.32H195.482C195.482 85.6 195.692 85.775 196.032 85.775C196.407 85.775 196.627 85.615 196.627 85.355C196.627 85.155 196.527 85.04 196.242 84.97L195.827 84.865C195.407 84.76 195.202 84.54 195.202 84.21C195.202 83.785 195.557 83.515 196.077 83.515C196.587 83.515 196.917 83.795 196.932 84.245H196.597C196.587 83.965 196.392 83.8 196.067 83.8C195.727 83.8 195.537 83.945 195.537 84.205C195.537 84.39 195.667 84.52 195.932 84.585L196.347 84.69C196.767 84.795 196.957 84.99 196.957 85.34C196.957 85.775 196.587 86.06 196.037 86.06C195.492 86.06 195.152 85.77 195.152 85.32ZM179.625 90.55V90.86H179.435C178.99 90.86 178.705 91.16 178.705 91.62V93H178.36V90.58H178.685L178.71 90.955C178.805 90.695 179.06 90.525 179.4 90.525C179.475 90.525 179.54 90.53 179.625 90.55ZM181.006 93.06C180.296 93.06 179.821 92.55 179.821 91.79C179.821 91.035 180.291 90.515 180.981 90.515C181.636 90.515 182.081 90.98 182.081 91.665V91.835H180.156C180.181 92.425 180.491 92.765 181.011 92.765C181.406 92.765 181.661 92.595 181.751 92.275H182.081C181.951 92.785 181.576 93.06 181.006 93.06ZM180.981 90.81C180.526 90.81 180.226 91.11 180.166 91.585H181.736C181.736 91.12 181.436 90.81 180.981 90.81ZM182.462 91.78C182.462 91.05 182.882 90.515 183.582 90.515C183.987 90.515 184.322 90.695 184.497 91.07L184.532 90.58H184.832V94.055H184.487V92.535C184.317 92.885 183.992 93.06 183.582 93.06C182.867 93.06 182.462 92.51 182.462 91.78ZM182.812 91.79C182.812 92.345 183.117 92.75 183.642 92.75C184.172 92.75 184.482 92.345 184.482 91.79C184.482 91.23 184.172 90.83 183.642 90.83C183.117 90.83 182.812 91.23 182.812 91.79ZM187.252 90.58H187.597V93H187.297L187.252 92.59C187.117 92.87 186.782 93.06 186.402 93.06C185.832 93.06 185.522 92.67 185.522 92.08V90.575H185.872V91.97C185.872 92.545 186.127 92.75 186.512 92.75C186.977 92.75 187.252 92.44 187.252 91.865V90.58ZM189.282 93.06C188.572 93.06 188.097 92.55 188.097 91.79C188.097 91.035 188.567 90.515 189.257 90.515C189.912 90.515 190.357 90.98 190.357 91.665V91.835H188.432C188.457 92.425 188.767 92.765 189.287 92.765C189.682 92.765 189.937 92.595 190.027 92.275H190.357C190.227 92.785 189.852 93.06 189.282 93.06ZM189.257 90.81C188.802 90.81 188.502 91.11 188.442 91.585H190.012C190.012 91.12 189.712 90.81 189.257 90.81ZM190.704 92.32H191.034C191.034 92.6 191.244 92.775 191.584 92.775C191.959 92.775 192.179 92.615 192.179 92.355C192.179 92.155 192.079 92.04 191.794 91.97L191.379 91.865C190.959 91.76 190.754 91.54 190.754 91.21C190.754 90.785 191.109 90.515 191.629 90.515C192.139 90.515 192.469 90.795 192.484 91.245H192.149C192.139 90.965 191.944 90.8 191.619 90.8C191.279 90.8 191.089 90.945 191.089 91.205C191.089 91.39 191.219 91.52 191.484 91.585L191.899 91.69C192.319 91.795 192.509 91.99 192.509 92.34C192.509 92.775 192.139 93.06 191.589 93.06C191.044 93.06 190.704 92.77 190.704 92.32ZM193.632 93H193.292V90.87H192.807V90.58H193.292V89.815H193.632V90.58H194.117V90.87H193.632V93Z" fill="#595959"/>
<path d="M218.541 82.32H218.871C218.871 82.6 219.081 82.775 219.421 82.775C219.796 82.775 220.016 82.615 220.016 82.355C220.016 82.155 219.916 82.04 219.631 81.97L219.216 81.865C218.796 81.76 218.591 81.54 218.591 81.21C218.591 80.785 218.946 80.515 219.466 80.515C219.976 80.515 220.306 80.795 220.321 81.245H219.986C219.976 80.965 219.781 80.8 219.456 80.8C219.116 80.8 218.926 80.945 218.926 81.205C218.926 81.39 219.056 81.52 219.321 81.585L219.736 81.69C220.156 81.795 220.346 81.99 220.346 82.34C220.346 82.775 219.976 83.06 219.426 83.06C218.881 83.06 218.541 82.77 218.541 82.32ZM222.614 80.58H222.959V83H222.659L222.614 82.59C222.479 82.87 222.144 83.06 221.764 83.06C221.194 83.06 220.884 82.67 220.884 82.08V80.575H221.234V81.97C221.234 82.545 221.489 82.75 221.874 82.75C222.339 82.75 222.614 82.44 222.614 81.865V80.58ZM223.977 83H223.677V79.355H224.022V81.05C224.192 80.695 224.522 80.515 224.932 80.515C225.637 80.515 226.047 81.065 226.047 81.795C226.047 82.52 225.627 83.06 224.922 83.06C224.517 83.06 224.182 82.88 224.012 82.505L223.977 83ZM224.027 81.785C224.027 82.345 224.337 82.745 224.867 82.745C225.392 82.745 225.697 82.345 225.697 81.785C225.697 81.23 225.392 80.825 224.867 80.825C224.337 80.825 224.027 81.23 224.027 81.785ZM226.942 83H226.597V80.58H226.897L226.937 80.925C227.057 80.67 227.327 80.515 227.667 80.515C228.047 80.515 228.332 80.715 228.447 81.03C228.557 80.715 228.852 80.515 229.242 80.515C229.767 80.515 230.112 80.855 230.112 81.415V83H229.777V81.485C229.777 81.07 229.547 80.825 229.177 80.825C228.772 80.825 228.532 81.13 228.532 81.505V83H228.192V81.48C228.192 81.07 227.957 80.83 227.592 80.83C227.187 80.83 226.942 81.13 226.942 81.5V83ZM230.976 79.915C230.836 79.915 230.721 79.8 230.721 79.66C230.721 79.52 230.836 79.4 230.976 79.4C231.116 79.4 231.236 79.52 231.236 79.66C231.236 79.8 231.116 79.915 230.976 79.915ZM230.806 83V80.58H231.151V83H230.806ZM232.426 83H232.086V80.87H231.601V80.58H232.086V79.815H232.426V80.58H232.911V80.87H232.426V83ZM211.482 90.06C210.967 90.06 210.662 89.77 210.662 89.345C210.662 88.9 211.002 88.62 211.567 88.575L212.367 88.51V88.43C212.367 87.955 212.082 87.805 211.727 87.805C211.307 87.805 211.057 87.995 211.057 88.32H210.742C210.742 87.83 211.142 87.515 211.737 87.515C212.297 87.515 212.707 87.795 212.707 88.435V90H212.417L212.372 89.575C212.222 89.88 211.892 90.06 211.482 90.06ZM211.562 89.78C212.072 89.78 212.367 89.425 212.367 88.9V88.77L211.652 88.825C211.197 88.865 211.012 89.065 211.012 89.335C211.012 89.63 211.232 89.78 211.562 89.78ZM213.91 90H213.57V87.87H213.085V87.58H213.57V86.815H213.91V87.58H214.395V87.87H213.91V90ZM215.419 90H215.079V87.87H214.594V87.58H215.079V86.815H215.419V87.58H215.904V87.87H215.419V90ZM217.344 90.06C216.634 90.06 216.159 89.55 216.159 88.79C216.159 88.035 216.629 87.515 217.319 87.515C217.974 87.515 218.419 87.98 218.419 88.665V88.835H216.494C216.519 89.425 216.829 89.765 217.349 89.765C217.744 89.765 217.999 89.595 218.089 89.275H218.419C218.289 89.785 217.914 90.06 217.344 90.06ZM217.319 87.81C216.864 87.81 216.564 88.11 216.504 88.585H218.074C218.074 88.12 217.774 87.81 217.319 87.81ZM218.765 89.32H219.095C219.095 89.6 219.305 89.775 219.645 89.775C220.02 89.775 220.24 89.615 220.24 89.355C220.24 89.155 220.14 89.04 219.855 88.97L219.44 88.865C219.02 88.76 218.815 88.54 218.815 88.21C218.815 87.785 219.17 87.515 219.69 87.515C220.2 87.515 220.53 87.795 220.545 88.245H220.21C220.2 87.965 220.005 87.8 219.68 87.8C219.34 87.8 219.15 87.945 219.15 88.205C219.15 88.39 219.28 88.52 219.545 88.585L219.96 88.69C220.38 88.795 220.57 88.99 220.57 89.34C220.57 89.775 220.2 90.06 219.65 90.06C219.105 90.06 218.765 89.77 218.765 89.32ZM221.693 90H221.353V87.87H220.868V87.58H221.353V86.815H221.693V87.58H222.178V87.87H221.693V90ZM223.284 90.06C222.769 90.06 222.464 89.77 222.464 89.345C222.464 88.9 222.804 88.62 223.369 88.575L224.169 88.51V88.43C224.169 87.955 223.884 87.805 223.529 87.805C223.109 87.805 222.859 87.995 222.859 88.32H222.544C222.544 87.83 222.944 87.515 223.539 87.515C224.099 87.515 224.509 87.795 224.509 88.435V90H224.219L224.174 89.575C224.024 89.88 223.694 90.06 223.284 90.06ZM223.364 89.78C223.874 89.78 224.169 89.425 224.169 88.9V88.77L223.454 88.825C222.999 88.865 222.814 89.065 222.814 89.335C222.814 89.63 223.034 89.78 223.364 89.78ZM225.712 90H225.372V87.87H224.887V87.58H225.372V86.815H225.712V87.58H226.197V87.87H225.712V90ZM226.816 86.915C226.676 86.915 226.561 86.8 226.561 86.66C226.561 86.52 226.676 86.4 226.816 86.4C226.956 86.4 227.076 86.52 227.076 86.66C227.076 86.8 226.956 86.915 226.816 86.915ZM226.646 90V87.58H226.991V90H226.646ZM227.541 88.79C227.541 88.05 228.061 87.515 228.771 87.515C229.481 87.515 230.001 88.05 230.001 88.79C230.001 89.525 229.481 90.06 228.771 90.06C228.061 90.06 227.541 89.525 227.541 88.79ZM227.891 88.785C227.891 89.355 228.251 89.75 228.771 89.75C229.286 89.75 229.651 89.355 229.651 88.785C229.651 88.225 229.286 87.825 228.771 87.825C228.251 87.825 227.891 88.225 227.891 88.785ZM230.897 90H230.552V87.58H230.852L230.902 88C231.062 87.69 231.382 87.515 231.732 87.515C232.397 87.515 232.672 87.91 232.672 88.52V90H232.327V88.595C232.327 88.03 232.072 87.83 231.672 87.83C231.177 87.83 230.897 88.19 230.897 88.735V90ZM218.419 94.55V94.86H218.229C217.784 94.86 217.499 95.16 217.499 95.62V97H217.154V94.58H217.479L217.504 94.955C217.599 94.695 217.854 94.525 218.194 94.525C218.269 94.525 218.334 94.53 218.419 94.55ZM219.8 97.06C219.09 97.06 218.615 96.55 218.615 95.79C218.615 95.035 219.085 94.515 219.775 94.515C220.43 94.515 220.875 94.98 220.875 95.665V95.835H218.95C218.975 96.425 219.285 96.765 219.805 96.765C220.2 96.765 220.455 96.595 220.545 96.275H220.875C220.745 96.785 220.37 97.06 219.8 97.06ZM219.775 94.81C219.32 94.81 219.02 95.11 218.96 95.585H220.53C220.53 95.12 220.23 94.81 219.775 94.81ZM221.256 95.78C221.256 95.05 221.676 94.515 222.376 94.515C222.781 94.515 223.116 94.695 223.291 95.07L223.326 94.58H223.626V98.055H223.281V96.535C223.111 96.885 222.786 97.06 222.376 97.06C221.661 97.06 221.256 96.51 221.256 95.78ZM221.606 95.79C221.606 96.345 221.911 96.75 222.436 96.75C222.966 96.75 223.276 96.345 223.276 95.79C223.276 95.23 222.966 94.83 222.436 94.83C221.911 94.83 221.606 95.23 221.606 95.79ZM226.046 94.58H226.391V97H226.091L226.046 96.59C225.911 96.87 225.576 97.06 225.196 97.06C224.626 97.06 224.316 96.67 224.316 96.08V94.575H224.666V95.97C224.666 96.545 224.921 96.75 225.306 96.75C225.771 96.75 226.046 96.44 226.046 95.865V94.58ZM228.076 97.06C227.366 97.06 226.891 96.55 226.891 95.79C226.891 95.035 227.361 94.515 228.051 94.515C228.706 94.515 229.151 94.98 229.151 95.665V95.835H227.226C227.251 96.425 227.561 96.765 228.081 96.765C228.476 96.765 228.731 96.595 228.821 96.275H229.151C229.021 96.785 228.646 97.06 228.076 97.06ZM228.051 94.81C227.596 94.81 227.296 95.11 227.236 95.585H228.806C228.806 95.12 228.506 94.81 228.051 94.81ZM229.498 96.32H229.828C229.828 96.6 230.038 96.775 230.378 96.775C230.753 96.775 230.973 96.615 230.973 96.355C230.973 96.155 230.873 96.04 230.588 95.97L230.173 95.865C229.753 95.76 229.548 95.54 229.548 95.21C229.548 94.785 229.903 94.515 230.423 94.515C230.933 94.515 231.263 94.795 231.278 95.245H230.943C230.933 94.965 230.738 94.8 230.413 94.8C230.073 94.8 229.883 94.945 229.883 95.205C229.883 95.39 230.013 95.52 230.278 95.585L230.693 95.69C231.113 95.795 231.303 95.99 231.303 96.34C231.303 96.775 230.933 97.06 230.383 97.06C229.838 97.06 229.498 96.77 229.498 96.32ZM232.426 97H232.086V94.87H231.601V94.58H232.086V93.815H232.426V94.58H232.911V94.87H232.426V97Z" fill="#595959"/>
<path d="M343.251 80.55V80.86H343.061C342.616 80.86 342.331 81.16 342.331 81.62V83H341.986V80.58H342.311L342.336 80.955C342.431 80.695 342.686 80.525 343.026 80.525C343.101 80.525 343.166 80.53 343.251 80.55ZM344.632 83.06C343.922 83.06 343.447 82.55 343.447 81.79C343.447 81.035 343.917 80.515 344.607 80.515C345.262 80.515 345.707 80.98 345.707 81.665V81.835H343.782C343.807 82.425 344.117 82.765 344.637 82.765C345.032 82.765 345.287 82.595 345.377 82.275H345.707C345.577 82.785 345.202 83.06 344.632 83.06ZM344.607 80.81C344.152 80.81 343.852 81.11 343.792 81.585H345.362C345.362 81.12 345.062 80.81 344.607 80.81ZM346.088 81.78C346.088 81.05 346.508 80.515 347.208 80.515C347.613 80.515 347.948 80.695 348.123 81.07L348.158 80.58H348.458V84.055H348.113V82.535C347.943 82.885 347.618 83.06 347.208 83.06C346.493 83.06 346.088 82.51 346.088 81.78ZM346.438 81.79C346.438 82.345 346.743 82.75 347.268 82.75C347.798 82.75 348.108 82.345 348.108 81.79C348.108 81.23 347.798 80.83 347.268 80.83C346.743 80.83 346.438 81.23 346.438 81.79ZM350.878 80.58H351.223V83H350.923L350.878 82.59C350.743 82.87 350.408 83.06 350.028 83.06C349.458 83.06 349.148 82.67 349.148 82.08V80.575H349.498V81.97C349.498 82.545 349.753 82.75 350.138 82.75C350.603 82.75 350.878 82.44 350.878 81.865V80.58ZM352.908 83.06C352.198 83.06 351.723 82.55 351.723 81.79C351.723 81.035 352.193 80.515 352.883 80.515C353.538 80.515 353.983 80.98 353.983 81.665V81.835H352.058C352.083 82.425 352.393 82.765 352.913 82.765C353.308 82.765 353.563 82.595 353.653 82.275H353.983C353.853 82.785 353.478 83.06 352.908 83.06ZM352.883 80.81C352.428 80.81 352.128 81.11 352.068 81.585H353.638C353.638 81.12 353.338 80.81 352.883 80.81ZM354.33 82.32H354.66C354.66 82.6 354.87 82.775 355.21 82.775C355.585 82.775 355.805 82.615 355.805 82.355C355.805 82.155 355.705 82.04 355.42 81.97L355.005 81.865C354.585 81.76 354.38 81.54 354.38 81.21C354.38 80.785 354.735 80.515 355.255 80.515C355.765 80.515 356.095 80.795 356.11 81.245H355.775C355.765 80.965 355.57 80.8 355.245 80.8C354.905 80.8 354.715 80.945 354.715 81.205C354.715 81.39 354.845 81.52 355.11 81.585L355.525 81.69C355.945 81.795 356.135 81.99 356.135 82.34C356.135 82.775 355.765 83.06 355.215 83.06C354.67 83.06 354.33 82.77 354.33 82.32ZM357.258 83H356.918V80.87H356.433V80.58H356.918V79.815H357.258V80.58H357.743V80.87H357.258V83ZM357.987 82.32H358.317C358.317 82.6 358.527 82.775 358.867 82.775C359.242 82.775 359.462 82.615 359.462 82.355C359.462 82.155 359.362 82.04 359.077 81.97L358.662 81.865C358.242 81.76 358.037 81.54 358.037 81.21C358.037 80.785 358.392 80.515 358.912 80.515C359.422 80.515 359.752 80.795 359.767 81.245H359.432C359.422 80.965 359.227 80.8 358.902 80.8C358.562 80.8 358.372 80.945 358.372 81.205C358.372 81.39 358.502 81.52 358.767 81.585L359.182 81.69C359.602 81.795 359.792 81.99 359.792 82.34C359.792 82.775 359.422 83.06 358.872 83.06C358.327 83.06 357.987 82.77 357.987 82.32ZM348.661 91.055V87.58H348.961L348.996 88.07C349.166 87.695 349.506 87.515 349.911 87.515C350.611 87.515 351.031 88.05 351.031 88.78C351.031 89.51 350.626 90.06 349.911 90.06C349.501 90.06 349.176 89.885 349.006 89.535V91.055H348.661ZM349.011 88.79C349.011 89.345 349.321 89.75 349.851 89.75C350.376 89.75 350.681 89.345 350.681 88.79C350.681 88.23 350.376 87.83 349.851 87.83C349.321 87.83 349.011 88.23 349.011 88.79ZM352.846 87.55V87.86H352.656C352.211 87.86 351.926 88.16 351.926 88.62V90H351.581V87.58H351.906L351.931 87.955C352.026 87.695 352.281 87.525 352.621 87.525C352.696 87.525 352.761 87.53 352.846 87.55ZM353.042 88.79C353.042 88.05 353.562 87.515 354.272 87.515C354.982 87.515 355.502 88.05 355.502 88.79C355.502 89.525 354.982 90.06 354.272 90.06C353.562 90.06 353.042 89.525 353.042 88.79ZM353.392 88.785C353.392 89.355 353.752 89.75 354.272 89.75C354.787 89.75 355.152 89.355 355.152 88.785C355.152 88.225 354.787 87.825 354.272 87.825C353.752 87.825 353.392 88.225 353.392 88.785ZM355.883 88.79C355.883 88.05 356.403 87.515 357.113 87.515C357.823 87.515 358.343 88.05 358.343 88.79C358.343 89.525 357.823 90.06 357.113 90.06C356.403 90.06 355.883 89.525 355.883 88.79ZM356.233 88.785C356.233 89.355 356.593 89.75 357.113 89.75C357.628 89.75 357.993 89.355 357.993 88.785C357.993 88.225 357.628 87.825 357.113 87.825C356.593 87.825 356.233 88.225 356.233 88.785ZM358.606 87.58H358.976V87.11C358.976 86.565 359.276 86.355 359.646 86.355C359.731 86.355 359.831 86.36 359.911 86.375V86.67H359.706C359.401 86.67 359.321 86.825 359.321 87.11V87.58H359.891V87.87H359.321V90H358.976V87.87H358.606V87.58ZM341.778 97.06C341.263 97.06 340.958 96.77 340.958 96.345C340.958 95.9 341.298 95.62 341.863 95.575L342.663 95.51V95.43C342.663 94.955 342.378 94.805 342.023 94.805C341.603 94.805 341.353 94.995 341.353 95.32H341.038C341.038 94.83 341.438 94.515 342.033 94.515C342.593 94.515 343.003 94.795 343.003 95.435V97H342.713L342.668 96.575C342.518 96.88 342.188 97.06 341.778 97.06ZM341.858 96.78C342.368 96.78 342.663 96.425 342.663 95.9V95.77L341.948 95.825C341.493 95.865 341.308 96.065 341.308 96.335C341.308 96.63 341.528 96.78 341.858 96.78ZM344.04 97H343.695V94.58H343.995L344.045 95C344.205 94.69 344.525 94.515 344.875 94.515C345.54 94.515 345.815 94.91 345.815 95.52V97H345.47V95.595C345.47 95.03 345.215 94.83 344.815 94.83C344.32 94.83 344.04 95.19 344.04 95.735V97ZM347.453 97.06C346.748 97.06 346.333 96.52 346.333 95.795C346.333 95.065 346.748 94.515 347.468 94.515C347.868 94.515 348.188 94.69 348.358 95.04V93.355H348.703V97H348.403L348.368 96.505C348.198 96.88 347.858 97.06 347.453 97.06ZM347.513 96.745C348.043 96.745 348.353 96.345 348.353 95.785C348.353 95.23 348.043 94.825 347.513 94.825C346.988 94.825 346.683 95.23 346.683 95.785C346.683 96.345 346.988 96.745 347.513 96.745ZM351.759 97.06C351.054 97.06 350.639 96.52 350.639 95.795C350.639 95.065 351.054 94.515 351.774 94.515C352.174 94.515 352.494 94.69 352.664 95.04V93.355H353.009V97H352.709L352.674 96.505C352.504 96.88 352.164 97.06 351.759 97.06ZM351.819 96.745C352.349 96.745 352.659 96.345 352.659 95.785C352.659 95.23 352.349 94.825 351.819 94.825C351.294 94.825 350.989 95.23 350.989 95.785C350.989 96.345 351.294 96.745 351.819 96.745ZM354.424 97.06C353.909 97.06 353.604 96.77 353.604 96.345C353.604 95.9 353.944 95.62 354.509 95.575L355.309 95.51V95.43C355.309 94.955 355.024 94.805 354.669 94.805C354.249 94.805 353.999 94.995 353.999 95.32H353.684C353.684 94.83 354.084 94.515 354.679 94.515C355.239 94.515 355.649 94.795 355.649 95.435V97H355.359L355.314 96.575C355.164 96.88 354.834 97.06 354.424 97.06ZM354.504 96.78C355.014 96.78 355.309 96.425 355.309 95.9V95.77L354.594 95.825C354.139 95.865 353.954 96.065 353.954 96.335C353.954 96.63 354.174 96.78 354.504 96.78ZM356.853 97H356.513V94.87H356.028V94.58H356.513V93.815H356.853V94.58H357.338V94.87H356.853V97ZM358.443 97.06C357.928 97.06 357.623 96.77 357.623 96.345C357.623 95.9 357.963 95.62 358.528 95.575L359.328 95.51V95.43C359.328 94.955 359.043 94.805 358.688 94.805C358.268 94.805 358.018 94.995 358.018 95.32H357.703C357.703 94.83 358.103 94.515 358.698 94.515C359.258 94.515 359.668 94.795 359.668 95.435V97H359.378L359.333 96.575C359.183 96.88 358.853 97.06 358.443 97.06ZM358.523 96.78C359.033 96.78 359.328 96.425 359.328 95.9V95.77L358.613 95.825C358.158 95.865 357.973 96.065 357.973 96.335C357.973 96.63 358.193 96.78 358.523 96.78Z" fill="#595959"/>
<path d="M415.45 82.32H415.78C415.78 82.6 415.99 82.775 416.33 82.775C416.705 82.775 416.925 82.615 416.925 82.355C416.925 82.155 416.825 82.04 416.54 81.97L416.125 81.865C415.705 81.76 415.5 81.54 415.5 81.21C415.5 80.785 415.855 80.515 416.375 80.515C416.885 80.515 417.215 80.795 417.23 81.245H416.895C416.885 80.965 416.69 80.8 416.365 80.8C416.025 80.8 415.835 80.945 415.835 81.205C415.835 81.39 415.965 81.52 416.23 81.585L416.645 81.69C417.065 81.795 417.255 81.99 417.255 82.34C417.255 82.775 416.885 83.06 416.335 83.06C415.79 83.06 415.45 82.77 415.45 82.32ZM418.838 83.06C418.128 83.06 417.653 82.55 417.653 81.79C417.653 81.035 418.123 80.515 418.813 80.515C419.468 80.515 419.913 80.98 419.913 81.665V81.835H417.988C418.013 82.425 418.323 82.765 418.843 82.765C419.238 82.765 419.493 82.595 419.583 82.275H419.913C419.783 82.785 419.408 83.06 418.838 83.06ZM418.813 80.81C418.358 80.81 418.058 81.11 417.998 81.585H419.568C419.568 81.12 419.268 80.81 418.813 80.81ZM420.809 83H420.464V80.58H420.764L420.814 81C420.974 80.69 421.294 80.515 421.644 80.515C422.309 80.515 422.584 80.91 422.584 81.52V83H422.239V81.595C422.239 81.03 421.984 80.83 421.584 80.83C421.089 80.83 420.809 81.19 420.809 81.735V83ZM424.222 83.06C423.517 83.06 423.102 82.52 423.102 81.795C423.102 81.065 423.517 80.515 424.237 80.515C424.637 80.515 424.957 80.69 425.127 81.04V79.355H425.472V83H425.172L425.137 82.505C424.967 82.88 424.627 83.06 424.222 83.06ZM424.282 82.745C424.812 82.745 425.122 82.345 425.122 81.785C425.122 81.23 424.812 80.825 424.282 80.825C423.757 80.825 423.452 81.23 423.452 81.785C423.452 82.345 423.757 82.745 424.282 82.745ZM425.987 82.32H426.317C426.317 82.6 426.527 82.775 426.867 82.775C427.242 82.775 427.462 82.615 427.462 82.355C427.462 82.155 427.362 82.04 427.077 81.97L426.662 81.865C426.242 81.76 426.037 81.54 426.037 81.21C426.037 80.785 426.392 80.515 426.912 80.515C427.422 80.515 427.752 80.795 427.767 81.245H427.432C427.422 80.965 427.227 80.8 426.902 80.8C426.562 80.8 426.372 80.945 426.372 81.205C426.372 81.39 426.502 81.52 426.767 81.585L427.182 81.69C427.602 81.795 427.792 81.99 427.792 82.34C427.792 82.775 427.422 83.06 426.872 83.06C426.327 83.06 425.987 82.77 425.987 82.32ZM416.661 91.055V87.58H416.961L416.996 88.07C417.166 87.695 417.506 87.515 417.911 87.515C418.611 87.515 419.031 88.05 419.031 88.78C419.031 89.51 418.626 90.06 417.911 90.06C417.501 90.06 417.176 89.885 417.006 89.535V91.055H416.661ZM417.011 88.79C417.011 89.345 417.321 89.75 417.851 89.75C418.376 89.75 418.681 89.345 418.681 88.79C418.681 88.23 418.376 87.83 417.851 87.83C417.321 87.83 417.011 88.23 417.011 88.79ZM420.846 87.55V87.86H420.656C420.211 87.86 419.926 88.16 419.926 88.62V90H419.581V87.58H419.906L419.931 87.955C420.026 87.695 420.281 87.525 420.621 87.525C420.696 87.525 420.761 87.53 420.846 87.55ZM421.042 88.79C421.042 88.05 421.562 87.515 422.272 87.515C422.982 87.515 423.502 88.05 423.502 88.79C423.502 89.525 422.982 90.06 422.272 90.06C421.562 90.06 421.042 89.525 421.042 88.79ZM421.392 88.785C421.392 89.355 421.752 89.75 422.272 89.75C422.787 89.75 423.152 89.355 423.152 88.785C423.152 88.225 422.787 87.825 422.272 87.825C421.752 87.825 421.392 88.225 421.392 88.785ZM423.883 88.79C423.883 88.05 424.403 87.515 425.113 87.515C425.823 87.515 426.343 88.05 426.343 88.79C426.343 89.525 425.823 90.06 425.113 90.06C424.403 90.06 423.883 89.525 423.883 88.79ZM424.233 88.785C424.233 89.355 424.593 89.75 425.113 89.75C425.628 89.75 425.993 89.355 425.993 88.785C425.993 88.225 425.628 87.825 425.113 87.825C424.593 87.825 424.233 88.225 424.233 88.785ZM426.606 87.58H426.976V87.11C426.976 86.565 427.276 86.355 427.646 86.355C427.731 86.355 427.831 86.36 427.911 86.375V86.67H427.706C427.401 86.67 427.321 86.825 427.321 87.11V87.58H427.891V87.87H427.321V90H426.976V87.87H426.606V87.58ZM409.778 97.06C409.263 97.06 408.958 96.77 408.958 96.345C408.958 95.9 409.298 95.62 409.863 95.575L410.663 95.51V95.43C410.663 94.955 410.378 94.805 410.023 94.805C409.603 94.805 409.353 94.995 409.353 95.32H409.038C409.038 94.83 409.438 94.515 410.033 94.515C410.593 94.515 411.003 94.795 411.003 95.435V97H410.713L410.668 96.575C410.518 96.88 410.188 97.06 409.778 97.06ZM409.858 96.78C410.368 96.78 410.663 96.425 410.663 95.9V95.77L409.948 95.825C409.493 95.865 409.308 96.065 409.308 96.335C409.308 96.63 409.528 96.78 409.858 96.78ZM412.04 97H411.695V94.58H411.995L412.045 95C412.205 94.69 412.525 94.515 412.875 94.515C413.54 94.515 413.815 94.91 413.815 95.52V97H413.47V95.595C413.47 95.03 413.215 94.83 412.815 94.83C412.32 94.83 412.04 95.19 412.04 95.735V97ZM415.453 97.06C414.748 97.06 414.333 96.52 414.333 95.795C414.333 95.065 414.748 94.515 415.468 94.515C415.868 94.515 416.188 94.69 416.358 95.04V93.355H416.703V97H416.403L416.368 96.505C416.198 96.88 415.858 97.06 415.453 97.06ZM415.513 96.745C416.043 96.745 416.353 96.345 416.353 95.785C416.353 95.23 416.043 94.825 415.513 94.825C414.988 94.825 414.683 95.23 414.683 95.785C414.683 96.345 414.988 96.745 415.513 96.745ZM419.759 97.06C419.054 97.06 418.639 96.52 418.639 95.795C418.639 95.065 419.054 94.515 419.774 94.515C420.174 94.515 420.494 94.69 420.664 95.04V93.355H421.009V97H420.709L420.674 96.505C420.504 96.88 420.164 97.06 419.759 97.06ZM419.819 96.745C420.349 96.745 420.659 96.345 420.659 95.785C420.659 95.23 420.349 94.825 419.819 94.825C419.294 94.825 418.989 95.23 418.989 95.785C418.989 96.345 419.294 96.745 419.819 96.745ZM422.424 97.06C421.909 97.06 421.604 96.77 421.604 96.345C421.604 95.9 421.944 95.62 422.509 95.575L423.309 95.51V95.43C423.309 94.955 423.024 94.805 422.669 94.805C422.249 94.805 421.999 94.995 421.999 95.32H421.684C421.684 94.83 422.084 94.515 422.679 94.515C423.239 94.515 423.649 94.795 423.649 95.435V97H423.359L423.314 96.575C423.164 96.88 422.834 97.06 422.424 97.06ZM422.504 96.78C423.014 96.78 423.309 96.425 423.309 95.9V95.77L422.594 95.825C422.139 95.865 421.954 96.065 421.954 96.335C421.954 96.63 422.174 96.78 422.504 96.78ZM424.853 97H424.513V94.87H424.028V94.58H424.513V93.815H424.853V94.58H425.338V94.87H424.853V97ZM426.443 97.06C425.928 97.06 425.623 96.77 425.623 96.345C425.623 95.9 425.963 95.62 426.528 95.575L427.328 95.51V95.43C427.328 94.955 427.043 94.805 426.688 94.805C426.268 94.805 426.018 94.995 426.018 95.32H425.703C425.703 94.83 426.103 94.515 426.698 94.515C427.258 94.515 427.668 94.795 427.668 95.435V97H427.378L427.333 96.575C427.183 96.88 426.853 97.06 426.443 97.06ZM426.523 96.78C427.033 96.78 427.328 96.425 427.328 95.9V95.77L426.613 95.825C426.158 95.865 425.973 96.065 425.973 96.335C425.973 96.63 426.193 96.78 426.523 96.78Z" fill="#595959"/>
<path d="M374.625 80.55V80.86H374.435C373.99 80.86 373.705 81.16 373.705 81.62V83H373.36V80.58H373.685L373.71 80.955C373.805 80.695 374.06 80.525 374.4 80.525C374.475 80.525 374.54 80.53 374.625 80.55ZM376.006 83.06C375.296 83.06 374.821 82.55 374.821 81.79C374.821 81.035 375.291 80.515 375.981 80.515C376.636 80.515 377.081 80.98 377.081 81.665V81.835H375.156C375.181 82.425 375.491 82.765 376.011 82.765C376.406 82.765 376.661 82.595 376.751 82.275H377.081C376.951 82.785 376.576 83.06 376.006 83.06ZM375.981 80.81C375.526 80.81 375.226 81.11 375.166 81.585H376.736C376.736 81.12 376.436 80.81 375.981 80.81ZM378.163 83H377.823V80.87H377.338V80.58H377.823V79.815H378.163V80.58H378.648V80.87H378.163V83ZM380.797 80.58H381.142V83H380.842L380.797 82.59C380.662 82.87 380.327 83.06 379.947 83.06C379.377 83.06 379.067 82.67 379.067 82.08V80.575H379.417V81.97C379.417 82.545 379.672 82.75 380.057 82.75C380.522 82.75 380.797 82.44 380.797 81.865V80.58ZM383.126 80.55V80.86H382.936C382.491 80.86 382.206 81.16 382.206 81.62V83H381.861V80.58H382.186L382.211 80.955C382.306 80.695 382.561 80.525 382.901 80.525C382.976 80.525 383.041 80.53 383.126 80.55ZM383.93 83H383.585V80.58H383.885L383.935 81C384.095 80.69 384.415 80.515 384.765 80.515C385.43 80.515 385.705 80.91 385.705 81.52V83H385.36V81.595C385.36 81.03 385.105 80.83 384.705 80.83C384.21 80.83 383.93 81.19 383.93 81.735V83ZM386.158 82.32H386.488C386.488 82.6 386.698 82.775 387.038 82.775C387.413 82.775 387.633 82.615 387.633 82.355C387.633 82.155 387.533 82.04 387.248 81.97L386.833 81.865C386.413 81.76 386.208 81.54 386.208 81.21C386.208 80.785 386.563 80.515 387.083 80.515C387.593 80.515 387.923 80.795 387.938 81.245H387.603C387.593 80.965 387.398 80.8 387.073 80.8C386.733 80.8 386.543 80.945 386.543 81.205C386.543 81.39 386.673 81.52 386.938 81.585L387.353 81.69C387.773 81.795 387.963 81.99 387.963 82.34C387.963 82.775 387.593 83.06 387.043 83.06C386.498 83.06 386.158 82.77 386.158 82.32ZM373.36 91.055V87.58H373.66L373.695 88.07C373.865 87.695 374.205 87.515 374.61 87.515C375.31 87.515 375.73 88.05 375.73 88.78C375.73 89.51 375.325 90.06 374.61 90.06C374.2 90.06 373.875 89.885 373.705 89.535V91.055H373.36ZM373.71 88.79C373.71 89.345 374.02 89.75 374.55 89.75C375.075 89.75 375.38 89.345 375.38 88.79C375.38 88.23 375.075 87.83 374.55 87.83C374.02 87.83 373.71 88.23 373.71 88.79ZM377.545 87.55V87.86H377.355C376.91 87.86 376.625 88.16 376.625 88.62V90H376.28V87.58H376.605L376.63 87.955C376.725 87.695 376.98 87.525 377.32 87.525C377.395 87.525 377.46 87.53 377.545 87.55ZM377.741 88.79C377.741 88.05 378.261 87.515 378.971 87.515C379.681 87.515 380.201 88.05 380.201 88.79C380.201 89.525 379.681 90.06 378.971 90.06C378.261 90.06 377.741 89.525 377.741 88.79ZM378.091 88.785C378.091 89.355 378.451 89.75 378.971 89.75C379.486 89.75 379.851 89.355 379.851 88.785C379.851 88.225 379.486 87.825 378.971 87.825C378.451 87.825 378.091 88.225 378.091 88.785ZM380.583 88.79C380.583 88.05 381.103 87.515 381.813 87.515C382.523 87.515 383.043 88.05 383.043 88.79C383.043 89.525 382.523 90.06 381.813 90.06C381.103 90.06 380.583 89.525 380.583 88.79ZM380.933 88.785C380.933 89.355 381.293 89.75 381.813 89.75C382.328 89.75 382.693 89.355 382.693 88.785C382.693 88.225 382.328 87.825 381.813 87.825C381.293 87.825 380.933 88.225 380.933 88.785ZM383.305 87.58H383.675V87.11C383.675 86.565 383.975 86.355 384.345 86.355C384.43 86.355 384.53 86.36 384.61 86.375V86.67H384.405C384.1 86.67 384.02 86.825 384.02 87.11V87.58H384.59V87.87H384.02V90H383.675V87.87H383.305V87.58ZM374.055 97.06C373.54 97.06 373.235 96.77 373.235 96.345C373.235 95.9 373.575 95.62 374.14 95.575L374.94 95.51V95.43C374.94 94.955 374.655 94.805 374.3 94.805C373.88 94.805 373.63 94.995 373.63 95.32H373.315C373.315 94.83 373.715 94.515 374.31 94.515C374.87 94.515 375.28 94.795 375.28 95.435V97H374.99L374.945 96.575C374.795 96.88 374.465 97.06 374.055 97.06ZM374.135 96.78C374.645 96.78 374.94 96.425 374.94 95.9V95.77L374.225 95.825C373.77 95.865 373.585 96.065 373.585 96.335C373.585 96.63 373.805 96.78 374.135 96.78ZM376.317 97H375.972V94.58H376.272L376.322 95C376.482 94.69 376.802 94.515 377.152 94.515C377.817 94.515 378.092 94.91 378.092 95.52V97H377.747V95.595C377.747 95.03 377.492 94.83 377.092 94.83C376.597 94.83 376.317 95.19 376.317 95.735V97ZM379.73 97.06C379.025 97.06 378.61 96.52 378.61 95.795C378.61 95.065 379.025 94.515 379.745 94.515C380.145 94.515 380.465 94.69 380.635 95.04V93.355H380.98V97H380.68L380.645 96.505C380.475 96.88 380.135 97.06 379.73 97.06ZM379.79 96.745C380.32 96.745 380.63 96.345 380.63 95.785C380.63 95.23 380.32 94.825 379.79 94.825C379.265 94.825 378.96 95.23 378.96 95.785C378.96 96.345 379.265 96.745 379.79 96.745ZM384.037 97.06C383.332 97.06 382.917 96.52 382.917 95.795C382.917 95.065 383.332 94.515 384.052 94.515C384.452 94.515 384.772 94.69 384.942 95.04V93.355H385.287V97H384.987L384.952 96.505C384.782 96.88 384.442 97.06 384.037 97.06ZM384.097 96.745C384.627 96.745 384.937 96.345 384.937 95.785C384.937 95.23 384.627 94.825 384.097 94.825C383.572 94.825 383.267 95.23 383.267 95.785C383.267 96.345 383.572 96.745 384.097 96.745ZM386.701 97.06C386.186 97.06 385.881 96.77 385.881 96.345C385.881 95.9 386.221 95.62 386.786 95.575L387.586 95.51V95.43C387.586 94.955 387.301 94.805 386.946 94.805C386.526 94.805 386.276 94.995 386.276 95.32H385.961C385.961 94.83 386.361 94.515 386.956 94.515C387.516 94.515 387.926 94.795 387.926 95.435V97H387.636L387.591 96.575C387.441 96.88 387.111 97.06 386.701 97.06ZM386.781 96.78C387.291 96.78 387.586 96.425 387.586 95.9V95.77L386.871 95.825C386.416 95.865 386.231 96.065 386.231 96.335C386.231 96.63 386.451 96.78 386.781 96.78ZM389.13 97H388.79V94.87H388.305V94.58H388.79V93.815H389.13V94.58H389.615V94.87H389.13V97ZM390.72 97.06C390.205 97.06 389.9 96.77 389.9 96.345C389.9 95.9 390.24 95.62 390.805 95.575L391.605 95.51V95.43C391.605 94.955 391.32 94.805 390.965 94.805C390.545 94.805 390.295 94.995 390.295 95.32H389.98C389.98 94.83 390.38 94.515 390.975 94.515C391.535 94.515 391.945 94.795 391.945 95.435V97H391.655L391.61 96.575C391.46 96.88 391.13 97.06 390.72 97.06ZM390.8 96.78C391.31 96.78 391.605 96.425 391.605 95.9V95.77L390.89 95.825C390.435 95.865 390.25 96.065 390.25 96.335C390.25 96.63 390.47 96.78 390.8 96.78Z" fill="#595959"/>
<path d="M126.428 21.795C126.428 21.035 126.893 20.515 127.598 20.515C128.158 20.515 128.568 20.84 128.663 21.34H128.318C128.228 21.005 127.938 20.82 127.603 20.82C127.113 20.82 126.768 21.195 126.768 21.79C126.768 22.365 127.088 22.75 127.578 22.75C127.938 22.75 128.228 22.55 128.323 22.24H128.673C128.558 22.735 128.128 23.06 127.578 23.06C126.893 23.06 126.428 22.555 126.428 21.795ZM129.026 21.79C129.026 21.05 129.546 20.515 130.256 20.515C130.966 20.515 131.486 21.05 131.486 21.79C131.486 22.525 130.966 23.06 130.256 23.06C129.546 23.06 129.026 22.525 129.026 21.79ZM129.376 21.785C129.376 22.355 129.736 22.75 130.256 22.75C130.771 22.75 131.136 22.355 131.136 21.785C131.136 21.225 130.771 20.825 130.256 20.825C129.736 20.825 129.376 21.225 129.376 21.785ZM132.398 23H132.053V19.355H132.398V23ZM133.491 23H133.146V19.355H133.491V23ZM135.24 23.06C134.53 23.06 134.055 22.55 134.055 21.79C134.055 21.035 134.525 20.515 135.215 20.515C135.87 20.515 136.315 20.98 136.315 21.665V21.835H134.39C134.415 22.425 134.725 22.765 135.245 22.765C135.64 22.765 135.895 22.595 135.985 22.275H136.315C136.185 22.785 135.81 23.06 135.24 23.06ZM135.215 20.81C134.76 20.81 134.46 21.11 134.4 21.585H135.97C135.97 21.12 135.67 20.81 135.215 20.81ZM136.697 21.795C136.697 21.035 137.162 20.515 137.867 20.515C138.427 20.515 138.837 20.84 138.932 21.34H138.587C138.497 21.005 138.207 20.82 137.872 20.82C137.382 20.82 137.037 21.195 137.037 21.79C137.037 22.365 137.357 22.75 137.847 22.75C138.207 22.75 138.497 22.55 138.592 22.24H138.942C138.827 22.735 138.397 23.06 137.847 23.06C137.162 23.06 136.697 22.555 136.697 21.795ZM140.019 23H139.679V20.87H139.194V20.58H139.679V19.815H140.019V20.58H140.504V20.87H140.019V23ZM140.749 22.32H141.079C141.079 22.6 141.289 22.775 141.629 22.775C142.004 22.775 142.224 22.615 142.224 22.355C142.224 22.155 142.124 22.04 141.839 21.97L141.424 21.865C141.004 21.76 140.799 21.54 140.799 21.21C140.799 20.785 141.154 20.515 141.674 20.515C142.184 20.515 142.514 20.795 142.529 21.245H142.194C142.184 20.965 141.989 20.8 141.664 20.8C141.324 20.8 141.134 20.945 141.134 21.205C141.134 21.39 141.264 21.52 141.529 21.585L141.944 21.69C142.364 21.795 142.554 21.99 142.554 22.34C142.554 22.775 142.184 23.06 141.634 23.06C141.089 23.06 140.749 22.77 140.749 22.32Z" fill="#595959"/>
<path d="M265.882 21.795C265.882 21.035 266.347 20.515 267.052 20.515C267.612 20.515 268.022 20.84 268.117 21.34H267.772C267.682 21.005 267.392 20.82 267.057 20.82C266.567 20.82 266.222 21.195 266.222 21.79C266.222 22.365 266.542 22.75 267.032 22.75C267.392 22.75 267.682 22.55 267.777 22.24H268.127C268.012 22.735 267.582 23.06 267.032 23.06C266.347 23.06 265.882 22.555 265.882 21.795ZM268.48 21.79C268.48 21.05 269 20.515 269.71 20.515C270.42 20.515 270.94 21.05 270.94 21.79C270.94 22.525 270.42 23.06 269.71 23.06C269 23.06 268.48 22.525 268.48 21.79ZM268.83 21.785C268.83 22.355 269.19 22.75 269.71 22.75C270.225 22.75 270.59 22.355 270.59 21.785C270.59 21.225 270.225 20.825 269.71 20.825C269.19 20.825 268.83 21.225 268.83 21.785ZM271.852 23H271.507V19.355H271.852V23ZM272.946 23H272.601V19.355H272.946V23ZM274.694 23.06C273.984 23.06 273.509 22.55 273.509 21.79C273.509 21.035 273.979 20.515 274.669 20.515C275.324 20.515 275.769 20.98 275.769 21.665V21.835H273.844C273.869 22.425 274.179 22.765 274.699 22.765C275.094 22.765 275.349 22.595 275.439 22.275H275.769C275.639 22.785 275.264 23.06 274.694 23.06ZM274.669 20.81C274.214 20.81 273.914 21.11 273.854 21.585H275.424C275.424 21.12 275.124 20.81 274.669 20.81ZM276.151 21.795C276.151 21.035 276.616 20.515 277.321 20.515C277.881 20.515 278.291 20.84 278.386 21.34H278.041C277.951 21.005 277.661 20.82 277.326 20.82C276.836 20.82 276.491 21.195 276.491 21.79C276.491 22.365 276.811 22.75 277.301 22.75C277.661 22.75 277.951 22.55 278.046 22.24H278.396C278.281 22.735 277.851 23.06 277.301 23.06C276.616 23.06 276.151 22.555 276.151 21.795ZM279.474 23H279.134V20.87H278.649V20.58H279.134V19.815H279.474V20.58H279.959V20.87H279.474V23ZM280.203 22.32H280.533C280.533 22.6 280.743 22.775 281.083 22.775C281.458 22.775 281.678 22.615 281.678 22.355C281.678 22.155 281.578 22.04 281.293 21.97L280.878 21.865C280.458 21.76 280.253 21.54 280.253 21.21C280.253 20.785 280.608 20.515 281.128 20.515C281.638 20.515 281.968 20.795 281.983 21.245H281.648C281.638 20.965 281.443 20.8 281.118 20.8C280.778 20.8 280.588 20.945 280.588 21.205C280.588 21.39 280.718 21.52 280.983 21.585L281.398 21.69C281.818 21.795 282.008 21.99 282.008 22.34C282.008 22.775 281.638 23.06 281.088 23.06C280.543 23.06 280.203 22.77 280.203 22.32ZM284.913 23.06C284.208 23.06 283.793 22.52 283.793 21.795C283.793 21.065 284.208 20.515 284.928 20.515C285.328 20.515 285.648 20.69 285.818 21.04V19.355H286.163V23H285.863L285.828 22.505C285.658 22.88 285.318 23.06 284.913 23.06ZM284.973 22.745C285.503 22.745 285.813 22.345 285.813 21.785C285.813 21.23 285.503 20.825 284.973 20.825C284.448 20.825 284.143 21.23 284.143 21.785C284.143 22.345 284.448 22.745 284.973 22.745ZM287.577 23.06C287.062 23.06 286.757 22.77 286.757 22.345C286.757 21.9 287.097 21.62 287.662 21.575L288.462 21.51V21.43C288.462 20.955 288.177 20.805 287.822 20.805C287.402 20.805 287.152 20.995 287.152 21.32H286.837C286.837 20.83 287.237 20.515 287.832 20.515C288.392 20.515 288.802 20.795 288.802 21.435V23H288.512L288.467 22.575C288.317 22.88 287.987 23.06 287.577 23.06ZM287.657 22.78C288.167 22.78 288.462 22.425 288.462 21.9V21.77L287.747 21.825C287.292 21.865 287.107 22.065 287.107 22.335C287.107 22.63 287.327 22.78 287.657 22.78ZM290.006 23H289.666V20.87H289.181V20.58H289.666V19.815H290.006V20.58H290.491V20.87H290.006V23ZM291.596 23.06C291.081 23.06 290.776 22.77 290.776 22.345C290.776 21.9 291.116 21.62 291.681 21.575L292.481 21.51V21.43C292.481 20.955 292.196 20.805 291.841 20.805C291.421 20.805 291.171 20.995 291.171 21.32H290.856C290.856 20.83 291.256 20.515 291.851 20.515C292.411 20.515 292.821 20.795 292.821 21.435V23H292.531L292.486 22.575C292.336 22.88 292.006 23.06 291.596 23.06ZM291.676 22.78C292.186 22.78 292.481 22.425 292.481 21.9V21.77L291.766 21.825C291.311 21.865 291.126 22.065 291.126 22.335C291.126 22.63 291.346 22.78 291.676 22.78ZM295.595 23.06C295.08 23.06 294.775 22.77 294.775 22.345C294.775 21.9 295.115 21.62 295.68 21.575L296.48 21.51V21.43C296.48 20.955 296.195 20.805 295.84 20.805C295.42 20.805 295.17 20.995 295.17 21.32H294.855C294.855 20.83 295.255 20.515 295.85 20.515C296.41 20.515 296.82 20.795 296.82 21.435V23H296.53L296.485 22.575C296.335 22.88 296.005 23.06 295.595 23.06ZM295.675 22.78C296.185 22.78 296.48 22.425 296.48 21.9V21.77L295.765 21.825C295.31 21.865 295.125 22.065 295.125 22.335C295.125 22.63 295.345 22.78 295.675 22.78ZM297.857 23H297.512V20.58H297.812L297.862 21C298.022 20.69 298.342 20.515 298.692 20.515C299.357 20.515 299.632 20.91 299.632 21.52V23H299.287V21.595C299.287 21.03 299.032 20.83 298.632 20.83C298.137 20.83 297.857 21.19 297.857 21.735V23ZM301.27 23.06C300.565 23.06 300.15 22.52 300.15 21.795C300.15 21.065 300.565 20.515 301.285 20.515C301.685 20.515 302.005 20.69 302.175 21.04V19.355H302.52V23H302.22L302.185 22.505C302.015 22.88 301.675 23.06 301.27 23.06ZM301.33 22.745C301.86 22.745 302.17 22.345 302.17 21.785C302.17 21.23 301.86 20.825 301.33 20.825C300.805 20.825 300.5 21.23 300.5 21.785C300.5 22.345 300.805 22.745 301.33 22.745ZM304.627 24.055V20.58H304.927L304.962 21.07C305.132 20.695 305.472 20.515 305.877 20.515C306.577 20.515 306.997 21.05 306.997 21.78C306.997 22.51 306.592 23.06 305.877 23.06C305.467 23.06 305.142 22.885 304.972 22.535V24.055H304.627ZM304.977 21.79C304.977 22.345 305.287 22.75 305.817 22.75C306.342 22.75 306.647 22.345 306.647 21.79C306.647 21.23 306.342 20.83 305.817 20.83C305.287 20.83 304.977 21.23 304.977 21.79ZM308.812 20.55V20.86H308.622C308.177 20.86 307.892 21.16 307.892 21.62V23H307.547V20.58H307.872L307.897 20.955C307.992 20.695 308.247 20.525 308.587 20.525C308.662 20.525 308.727 20.53 308.812 20.55ZM310.192 23.06C309.482 23.06 309.007 22.55 309.007 21.79C309.007 21.035 309.477 20.515 310.167 20.515C310.822 20.515 311.267 20.98 311.267 21.665V21.835H309.342C309.367 22.425 309.677 22.765 310.197 22.765C310.592 22.765 310.847 22.595 310.937 22.275H311.267C311.137 22.785 310.762 23.06 310.192 23.06ZM310.167 20.81C309.712 20.81 309.412 21.11 309.352 21.585H310.922C310.922 21.12 310.622 20.81 310.167 20.81ZM311.819 24.055V20.58H312.119L312.154 21.07C312.324 20.695 312.664 20.515 313.069 20.515C313.769 20.515 314.189 21.05 314.189 21.78C314.189 22.51 313.784 23.06 313.069 23.06C312.659 23.06 312.334 22.885 312.164 22.535V24.055H311.819ZM312.169 21.79C312.169 22.345 312.479 22.75 313.009 22.75C313.534 22.75 313.839 22.345 313.839 21.79C313.839 21.23 313.534 20.83 313.009 20.83C312.479 20.83 312.169 21.23 312.169 21.79ZM315.434 23.06C314.919 23.06 314.614 22.77 314.614 22.345C314.614 21.9 314.954 21.62 315.519 21.575L316.319 21.51V21.43C316.319 20.955 316.034 20.805 315.679 20.805C315.259 20.805 315.009 20.995 315.009 21.32H314.694C314.694 20.83 315.094 20.515 315.689 20.515C316.249 20.515 316.659 20.795 316.659 21.435V23H316.369L316.324 22.575C316.174 22.88 315.844 23.06 315.434 23.06ZM315.514 22.78C316.024 22.78 316.319 22.425 316.319 21.9V21.77L315.604 21.825C315.149 21.865 314.964 22.065 314.964 22.335C314.964 22.63 315.184 22.78 315.514 22.78ZM317.862 23H317.522V20.87H317.037V20.58H317.522V19.815H317.862V20.58H318.347V20.87H317.862V23ZM319.787 23.06C319.077 23.06 318.602 22.55 318.602 21.79C318.602 21.035 319.072 20.515 319.762 20.515C320.417 20.515 320.862 20.98 320.862 21.665V21.835H318.937C318.962 22.425 319.272 22.765 319.792 22.765C320.187 22.765 320.442 22.595 320.532 22.275H320.862C320.732 22.785 320.357 23.06 319.787 23.06ZM319.762 20.81C319.307 20.81 319.007 21.11 318.947 21.585H320.517C320.517 21.12 320.217 20.81 319.762 20.81ZM321.209 22.32H321.539C321.539 22.6 321.749 22.775 322.089 22.775C322.464 22.775 322.684 22.615 322.684 22.355C322.684 22.155 322.584 22.04 322.299 21.97L321.884 21.865C321.464 21.76 321.259 21.54 321.259 21.21C321.259 20.785 321.614 20.515 322.134 20.515C322.644 20.515 322.974 20.795 322.989 21.245H322.654C322.644 20.965 322.449 20.8 322.124 20.8C321.784 20.8 321.594 20.945 321.594 21.205C321.594 21.39 321.724 21.52 321.989 21.585L322.404 21.69C322.824 21.795 323.014 21.99 323.014 22.34C323.014 22.775 322.644 23.06 322.094 23.06C321.549 23.06 321.209 22.77 321.209 22.32ZM324.968 24.055V20.58H325.268L325.303 21.07C325.473 20.695 325.813 20.515 326.218 20.515C326.918 20.515 327.338 21.05 327.338 21.78C327.338 22.51 326.933 23.06 326.218 23.06C325.808 23.06 325.483 22.885 325.313 22.535V24.055H324.968ZM325.318 21.79C325.318 22.345 325.628 22.75 326.158 22.75C326.683 22.75 326.988 22.345 326.988 21.79C326.988 21.23 326.683 20.83 326.158 20.83C325.628 20.83 325.318 21.23 325.318 21.79ZM329.153 20.55V20.86H328.963C328.518 20.86 328.233 21.16 328.233 21.62V23H327.888V20.58H328.213L328.238 20.955C328.333 20.695 328.588 20.525 328.928 20.525C329.003 20.525 329.068 20.53 329.153 20.55ZM329.349 21.79C329.349 21.05 329.869 20.515 330.579 20.515C331.289 20.515 331.809 21.05 331.809 21.79C331.809 22.525 331.289 23.06 330.579 23.06C329.869 23.06 329.349 22.525 329.349 21.79ZM329.699 21.785C329.699 22.355 330.059 22.75 330.579 22.75C331.094 22.75 331.459 22.355 331.459 21.785C331.459 21.225 331.094 20.825 330.579 20.825C330.059 20.825 329.699 21.225 329.699 21.785ZM332.191 21.79C332.191 21.05 332.711 20.515 333.421 20.515C334.131 20.515 334.651 21.05 334.651 21.79C334.651 22.525 334.131 23.06 333.421 23.06C332.711 23.06 332.191 22.525 332.191 21.79ZM332.541 21.785C332.541 22.355 332.901 22.75 333.421 22.75C333.936 22.75 334.301 22.355 334.301 21.785C334.301 21.225 333.936 20.825 333.421 20.825C332.901 20.825 332.541 21.225 332.541 21.785ZM334.913 20.58H335.283V20.11C335.283 19.565 335.583 19.355 335.953 19.355C336.038 19.355 336.138 19.36 336.218 19.375V19.67H336.013C335.708 19.67 335.628 19.825 335.628 20.11V20.58H336.198V20.87H335.628V23H335.283V20.87H334.913V20.58Z" fill="#595959"/>
<path d="M285.352 116H284.992V112.42H286.327C287.052 112.42 287.492 112.82 287.492 113.455C287.492 113.97 287.222 114.33 286.762 114.455L287.527 116H287.127L286.397 114.515H285.352V116ZM285.352 112.745V114.19H286.337C286.832 114.19 287.122 113.92 287.122 113.465C287.122 113 286.817 112.745 286.327 112.745H285.352ZM287.77 114.79C287.77 114.05 288.29 113.515 289 113.515C289.71 113.515 290.23 114.05 290.23 114.79C290.23 115.525 289.71 116.06 289 116.06C288.29 116.06 287.77 115.525 287.77 114.79ZM288.12 114.785C288.12 115.355 288.48 115.75 289 115.75C289.515 115.75 289.88 115.355 289.88 114.785C289.88 114.225 289.515 113.825 289 113.825C288.48 113.825 288.12 114.225 288.12 114.785ZM292.423 113.58H292.768V116H292.468L292.423 115.59C292.288 115.87 291.953 116.06 291.573 116.06C291.003 116.06 290.693 115.67 290.693 115.08V113.575H291.043V114.97C291.043 115.545 291.298 115.75 291.683 115.75C292.148 115.75 292.423 115.44 292.423 114.865V113.58ZM293.831 116H293.486V113.58H293.786L293.836 114C293.996 113.69 294.316 113.515 294.666 113.515C295.331 113.515 295.606 113.91 295.606 114.52V116H295.261V114.595C295.261 114.03 295.006 113.83 294.606 113.83C294.111 113.83 293.831 114.19 293.831 114.735V116ZM297.244 116.06C296.539 116.06 296.124 115.52 296.124 114.795C296.124 114.065 296.539 113.515 297.259 113.515C297.659 113.515 297.979 113.69 298.149 114.04V112.355H298.494V116H298.194L298.159 115.505C297.989 115.88 297.649 116.06 297.244 116.06ZM297.304 115.745C297.834 115.745 298.144 115.345 298.144 114.785C298.144 114.23 297.834 113.825 297.304 113.825C296.779 113.825 296.474 114.23 296.474 114.785C296.474 115.345 296.779 115.745 297.304 115.745ZM302.196 116V113.87H301.046V116H300.701V113.87H300.331V113.58H300.701V113.11C300.701 112.565 300.996 112.355 301.356 112.355C301.441 112.355 301.546 112.36 301.626 112.375V112.675H301.416C301.126 112.675 301.046 112.825 301.046 113.11V113.58H302.541V116H302.196ZM302.366 112.89C302.226 112.89 302.126 112.79 302.126 112.65C302.126 112.51 302.226 112.405 302.366 112.405C302.501 112.405 302.606 112.51 302.606 112.65C302.606 112.79 302.501 112.89 302.366 112.89ZM303.592 116H303.247V113.58H303.547L303.597 114C303.757 113.69 304.077 113.515 304.427 113.515C305.092 113.515 305.367 113.91 305.367 114.52V116H305.022V114.595C305.022 114.03 304.767 113.83 304.367 113.83C303.872 113.83 303.592 114.19 303.592 114.735V116ZM306.75 116.06C306.235 116.06 305.93 115.77 305.93 115.345C305.93 114.9 306.27 114.62 306.835 114.575L307.635 114.51V114.43C307.635 113.955 307.35 113.805 306.995 113.805C306.575 113.805 306.325 113.995 306.325 114.32H306.01C306.01 113.83 306.41 113.515 307.005 113.515C307.565 113.515 307.975 113.795 307.975 114.435V116H307.685L307.64 115.575C307.49 115.88 307.16 116.06 306.75 116.06ZM306.83 115.78C307.34 115.78 307.635 115.425 307.635 114.9V114.77L306.92 114.825C306.465 114.865 306.28 115.065 306.28 115.335C306.28 115.63 306.5 115.78 306.83 115.78ZM309.027 116H308.682V112.355H309.027V116ZM309.931 112.915C309.791 112.915 309.676 112.8 309.676 112.66C309.676 112.52 309.791 112.4 309.931 112.4C310.071 112.4 310.191 112.52 310.191 112.66C310.191 112.8 310.071 112.915 309.931 112.915ZM309.761 116V113.58H310.106V116H309.761ZM310.62 115.32H310.95C310.95 115.6 311.16 115.775 311.5 115.775C311.875 115.775 312.095 115.615 312.095 115.355C312.095 115.155 311.995 115.04 311.71 114.97L311.295 114.865C310.875 114.76 310.67 114.54 310.67 114.21C310.67 113.785 311.025 113.515 311.545 113.515C312.055 113.515 312.385 113.795 312.4 114.245H312.065C312.055 113.965 311.86 113.8 311.535 113.8C311.195 113.8 311.005 113.945 311.005 114.205C311.005 114.39 311.135 114.52 311.4 114.585L311.815 114.69C312.235 114.795 312.425 114.99 312.425 115.34C312.425 115.775 312.055 116.06 311.505 116.06C310.96 116.06 310.62 115.77 310.62 115.32ZM314.008 116.06C313.298 116.06 312.823 115.55 312.823 114.79C312.823 114.035 313.293 113.515 313.983 113.515C314.638 113.515 315.083 113.98 315.083 114.665V114.835H313.158C313.183 115.425 313.493 115.765 314.013 115.765C314.408 115.765 314.663 115.595 314.753 115.275H315.083C314.953 115.785 314.578 116.06 314.008 116.06ZM313.983 113.81C313.528 113.81 313.228 114.11 313.168 114.585H314.738C314.738 114.12 314.438 113.81 313.983 113.81ZM315.43 115.32H315.76C315.76 115.6 315.97 115.775 316.31 115.775C316.685 115.775 316.905 115.615 316.905 115.355C316.905 115.155 316.805 115.04 316.52 114.97L316.105 114.865C315.685 114.76 315.48 114.54 315.48 114.21C315.48 113.785 315.835 113.515 316.355 113.515C316.865 113.515 317.195 113.795 317.21 114.245H316.875C316.865 113.965 316.67 113.8 316.345 113.8C316.005 113.8 315.815 113.945 315.815 114.205C315.815 114.39 315.945 114.52 316.21 114.585L316.625 114.69C317.045 114.795 317.235 114.99 317.235 115.34C317.235 115.775 316.865 116.06 316.315 116.06C315.77 116.06 315.43 115.77 315.43 115.32Z" fill="#595959"/>
<path d="M106.474 118.92H105.674V118.345H107.089V122H106.474V118.92Z" fill="#595959"/>
<path d="M172.793 121.995L170.258 122V121.52L171.453 120.51C171.948 120.09 172.113 119.85 172.113 119.5C172.113 119.085 171.888 118.85 171.503 118.85C171.103 118.85 170.853 119.13 170.848 119.6H170.213C170.218 118.8 170.728 118.28 171.503 118.28C172.283 118.28 172.768 118.725 172.768 119.465C172.768 119.975 172.488 120.36 171.933 120.835L171.273 121.4H172.793V121.995Z" fill="#595959"/>
<path d="M236.372 120.19H235.927V119.775L236.867 118.91H235.347V118.345H237.667V118.855L236.777 119.675C237.337 119.785 237.772 120.195 237.772 120.84C237.772 121.59 237.187 122.065 236.447 122.065C235.732 122.065 235.177 121.625 235.177 120.835H235.807C235.807 121.255 236.067 121.495 236.457 121.495C236.857 121.495 237.122 121.235 237.122 120.83C237.122 120.46 236.882 120.19 236.372 120.19Z" fill="#595959"/>
<path d="M365.685 119.42L366.475 118.345H367.205L366.33 119.51C366.42 119.485 366.515 119.47 366.605 119.47C367.36 119.47 367.87 120 367.87 120.74C367.87 121.52 367.29 122.065 366.51 122.065C365.72 122.065 365.13 121.485 365.13 120.735C365.13 120.295 365.275 119.975 365.685 119.42ZM365.785 120.74C365.785 121.185 366.08 121.495 366.51 121.495C366.925 121.495 367.225 121.185 367.225 120.74C367.225 120.3 366.93 119.995 366.51 119.995C366.075 119.995 365.785 120.3 365.785 120.74Z" fill="#595959"/>
<path d="M429.19 118.345H431.815V118.935L430.49 122H429.825L431.175 118.935H429.19V118.345Z" fill="#595959"/>
<path d="M307.189 10L306.199 7.58H306.569L307.194 9.14C307.259 9.315 307.324 9.48 307.369 9.64C307.414 9.475 307.479 9.315 307.549 9.14L308.184 7.58H308.539L307.534 10H307.189ZM309.853 10.06C309.143 10.06 308.668 9.55 308.668 8.79C308.668 8.035 309.138 7.515 309.828 7.515C310.483 7.515 310.928 7.98 310.928 8.665V8.835H309.003C309.028 9.425 309.338 9.765 309.858 9.765C310.253 9.765 310.508 9.595 310.598 9.275H310.928C310.798 9.785 310.423 10.06 309.853 10.06ZM309.828 7.81C309.373 7.81 309.073 8.11 309.013 8.585H310.583C310.583 8.12 310.283 7.81 309.828 7.81ZM312.745 7.55V7.86H312.555C312.11 7.86 311.825 8.16 311.825 8.62V10H311.48V7.58H311.805L311.83 7.955C311.925 7.695 312.18 7.525 312.52 7.525C312.595 7.525 312.66 7.53 312.745 7.55ZM313.373 6.915C313.233 6.915 313.118 6.8 313.118 6.66C313.118 6.52 313.233 6.4 313.373 6.4C313.513 6.4 313.633 6.52 313.633 6.66C313.633 6.8 313.513 6.915 313.373 6.915ZM313.203 10V7.58H313.548V10H313.203ZM315.863 10V7.87H314.713V10H314.368V7.87H313.998V7.58H314.368V7.11C314.368 6.565 314.663 6.355 315.023 6.355C315.108 6.355 315.213 6.36 315.293 6.375V6.675H315.083C314.793 6.675 314.713 6.825 314.713 7.11V7.58H316.208V10H315.863ZM316.033 6.89C315.893 6.89 315.793 6.79 315.793 6.65C315.793 6.51 315.893 6.405 316.033 6.405C316.168 6.405 316.273 6.51 316.273 6.65C316.273 6.79 316.168 6.89 316.033 6.89ZM317.929 10.06C317.219 10.06 316.744 9.55 316.744 8.79C316.744 8.035 317.214 7.515 317.904 7.515C318.559 7.515 319.004 7.98 319.004 8.665V8.835H317.079C317.104 9.425 317.414 9.765 317.934 9.765C318.329 9.765 318.584 9.595 318.674 9.275H319.004C318.874 9.785 318.499 10.06 317.929 10.06ZM317.904 7.81C317.449 7.81 317.149 8.11 317.089 8.585H318.659C318.659 8.12 318.359 7.81 317.904 7.81ZM319.351 9.32H319.681C319.681 9.6 319.891 9.775 320.231 9.775C320.606 9.775 320.826 9.615 320.826 9.355C320.826 9.155 320.726 9.04 320.441 8.97L320.026 8.865C319.606 8.76 319.401 8.54 319.401 8.21C319.401 7.785 319.756 7.515 320.276 7.515C320.786 7.515 321.116 7.795 321.131 8.245H320.796C320.786 7.965 320.591 7.8 320.266 7.8C319.926 7.8 319.736 7.945 319.736 8.205C319.736 8.39 319.866 8.52 320.131 8.585L320.546 8.69C320.966 8.795 321.156 8.99 321.156 9.34C321.156 9.775 320.786 10.06 320.236 10.06C319.691 10.06 319.351 9.77 319.351 9.32ZM324.06 10.06C323.355 10.06 322.94 9.52 322.94 8.795C322.94 8.065 323.355 7.515 324.075 7.515C324.475 7.515 324.795 7.69 324.965 8.04V6.355H325.31V10H325.01L324.975 9.505C324.805 9.88 324.465 10.06 324.06 10.06ZM324.12 9.745C324.65 9.745 324.96 9.345 324.96 8.785C324.96 8.23 324.65 7.825 324.12 7.825C323.595 7.825 323.29 8.23 323.29 8.785C323.29 9.345 323.595 9.745 324.12 9.745ZM326.725 10.06C326.21 10.06 325.905 9.77 325.905 9.345C325.905 8.9 326.245 8.62 326.81 8.575L327.61 8.51V8.43C327.61 7.955 327.325 7.805 326.97 7.805C326.55 7.805 326.3 7.995 326.3 8.32H325.985C325.985 7.83 326.385 7.515 326.98 7.515C327.54 7.515 327.95 7.795 327.95 8.435V10H327.66L327.615 9.575C327.465 9.88 327.135 10.06 326.725 10.06ZM326.805 9.78C327.315 9.78 327.61 9.425 327.61 8.9V8.77L326.895 8.825C326.44 8.865 326.255 9.065 326.255 9.335C326.255 9.63 326.475 9.78 326.805 9.78ZM329.154 10H328.814V7.87H328.329V7.58H328.814V6.815H329.154V7.58H329.639V7.87H329.154V10ZM330.744 10.06C330.229 10.06 329.924 9.77 329.924 9.345C329.924 8.9 330.264 8.62 330.829 8.575L331.629 8.51V8.43C331.629 7.955 331.344 7.805 330.989 7.805C330.569 7.805 330.319 7.995 330.319 8.32H330.004C330.004 7.83 330.404 7.515 330.999 7.515C331.559 7.515 331.969 7.795 331.969 8.435V10H331.679L331.634 9.575C331.484 9.88 331.154 10.06 330.744 10.06ZM330.824 9.78C331.334 9.78 331.629 9.425 331.629 8.9V8.77L330.914 8.825C330.459 8.865 330.274 9.065 330.274 9.335C330.274 9.63 330.494 9.78 330.824 9.78ZM334.558 10L333.758 7.58H334.113L334.588 9.04C334.643 9.2 334.688 9.365 334.738 9.56C334.778 9.365 334.858 9.12 334.883 9.04L335.363 7.58H335.718L336.193 9.04C336.238 9.17 336.298 9.38 336.343 9.56C336.393 9.36 336.403 9.3 336.488 9.04L336.968 7.58H337.328L336.508 10H336.173L335.673 8.48C335.613 8.3 335.573 8.15 335.543 8.005C335.508 8.135 335.468 8.28 335.403 8.48L334.903 10H334.558ZM337.929 6.915C337.789 6.915 337.674 6.8 337.674 6.66C337.674 6.52 337.789 6.4 337.929 6.4C338.069 6.4 338.189 6.52 338.189 6.66C338.189 6.8 338.069 6.915 337.929 6.915ZM337.759 10V7.58H338.104V10H337.759ZM339.378 10H339.038V7.87H338.553V7.58H339.038V6.815H339.378V7.58H339.863V7.87H339.378V10ZM340.658 9.995H340.313V6.355H340.658V8C340.813 7.71 341.108 7.515 341.513 7.515C342.148 7.515 342.433 7.91 342.433 8.52V10H342.088V8.595C342.088 8.03 341.823 7.83 341.448 7.83C340.928 7.83 340.658 8.215 340.658 8.68V9.995ZM344.507 11.055V7.58H344.807L344.842 8.07C345.012 7.695 345.352 7.515 345.757 7.515C346.457 7.515 346.877 8.05 346.877 8.78C346.877 9.51 346.472 10.06 345.757 10.06C345.347 10.06 345.022 9.885 344.852 9.535V11.055H344.507ZM344.857 8.79C344.857 9.345 345.167 9.75 345.697 9.75C346.222 9.75 346.527 9.345 346.527 8.79C346.527 8.23 346.222 7.83 345.697 7.83C345.167 7.83 344.857 8.23 344.857 8.79ZM348.692 7.55V7.86H348.502C348.057 7.86 347.772 8.16 347.772 8.62V10H347.427V7.58H347.752L347.777 7.955C347.872 7.695 348.127 7.525 348.467 7.525C348.542 7.525 348.607 7.53 348.692 7.55ZM348.888 8.79C348.888 8.05 349.408 7.515 350.118 7.515C350.828 7.515 351.348 8.05 351.348 8.79C351.348 9.525 350.828 10.06 350.118 10.06C349.408 10.06 348.888 9.525 348.888 8.79ZM349.238 8.785C349.238 9.355 349.598 9.75 350.118 9.75C350.633 9.75 350.998 9.355 350.998 8.785C350.998 8.225 350.633 7.825 350.118 7.825C349.598 7.825 349.238 8.225 349.238 8.785ZM351.73 8.79C351.73 8.05 352.25 7.515 352.96 7.515C353.67 7.515 354.19 8.05 354.19 8.79C354.19 9.525 353.67 10.06 352.96 10.06C352.25 10.06 351.73 9.525 351.73 8.79ZM352.08 8.785C352.08 9.355 352.44 9.75 352.96 9.75C353.475 9.75 353.84 9.355 353.84 8.785C353.84 8.225 353.475 7.825 352.96 7.825C352.44 7.825 352.08 8.225 352.08 8.785ZM354.452 7.58H354.822V7.11C354.822 6.565 355.122 6.355 355.492 6.355C355.577 6.355 355.677 6.36 355.757 6.375V6.67H355.552C355.247 6.67 355.167 6.825 355.167 7.11V7.58H355.737V7.87H355.167V10H354.822V7.87H354.452V7.58Z" fill="#595959"/>
<path d="M357.763 56H356.448V52.345H357.728C358.808 52.345 359.553 53.09 359.553 54.18C359.553 55.255 358.823 56 357.763 56ZM357.668 52.935H357.088V55.41H357.703C358.433 55.41 358.878 54.94 358.878 54.18C358.878 53.405 358.423 52.935 357.668 52.935ZM360.284 56H359.619L360.939 52.345H361.594L362.914 56H362.239L361.944 55.155H360.579L360.284 56ZM361.184 53.435L360.769 54.615H361.759L361.339 53.435C361.309 53.34 361.274 53.23 361.264 53.155C361.249 53.225 361.219 53.335 361.184 53.435ZM365.36 52.345V55.41H366.89V56H364.72V52.345H365.36ZM368.055 56.065C367.53 56.065 367.21 55.76 367.21 55.295C367.21 54.84 367.54 54.555 368.125 54.51L368.865 54.455V54.4C368.865 54.065 368.665 53.93 368.355 53.93C367.995 53.93 367.795 54.08 367.795 54.34H367.275C367.275 53.805 367.715 53.455 368.385 53.455C369.05 53.455 369.46 53.815 369.46 54.5V56H368.925L368.88 55.635C368.775 55.89 368.44 56.065 368.055 56.065ZM368.255 55.605C368.63 55.605 368.87 55.38 368.87 55V54.87L368.355 54.91C367.975 54.945 367.83 55.07 367.83 55.27C367.83 55.495 367.98 55.605 368.255 55.605ZM369.776 57.145V56.635H370.141C370.381 56.635 370.531 56.58 370.636 56.29L370.706 56.105L369.711 53.53H370.356L370.991 55.33L371.661 53.53H372.291L371.081 56.55C370.896 57.01 370.636 57.2 370.231 57.2C370.061 57.2 369.911 57.18 369.776 57.145ZM373.63 56.065C372.895 56.065 372.38 55.53 372.38 54.765C372.38 53.99 372.885 53.455 373.61 53.455C374.35 53.455 374.82 53.95 374.82 54.72V54.905L372.96 54.91C373.005 55.345 373.235 55.565 373.64 55.565C373.975 55.565 374.195 55.435 374.265 55.2H374.83C374.725 55.74 374.275 56.065 373.63 56.065ZM373.615 53.955C373.255 53.955 373.035 54.15 372.975 54.52H374.215C374.215 54.18 373.98 53.955 373.615 53.955ZM376.859 53.52V54.085H376.634C376.194 54.085 375.919 54.32 375.919 54.8V56H375.309V53.535H375.884L375.919 53.895C376.024 53.65 376.259 53.485 376.589 53.485C376.674 53.485 376.759 53.495 376.859 53.52ZM360.089 60.375C360.089 59.775 360.559 59.355 361.234 59.355C361.889 59.355 362.339 59.73 362.379 60.315H362.034C361.989 59.905 361.699 59.675 361.224 59.675C360.749 59.675 360.434 59.94 360.434 60.35C360.434 60.655 360.589 60.84 360.949 60.965L361.484 61.15C361.964 61.315 362.184 61.595 362.184 62.03C362.184 62.64 361.684 63.065 360.964 63.065C360.259 63.065 359.849 62.735 359.784 62.11H360.134C360.179 62.515 360.474 62.75 360.974 62.75C361.489 62.75 361.839 62.465 361.839 62.045C361.839 61.745 361.704 61.575 361.364 61.46L360.839 61.275C360.324 61.1 360.089 60.815 360.089 60.375ZM363.643 63.06C363.028 63.06 362.608 62.62 362.608 61.985C362.608 61.155 363.172 60.515 363.903 60.515C364.568 60.515 364.962 61.01 364.858 61.665L364.833 61.83H362.938C362.933 61.875 362.933 61.92 362.933 61.97C362.933 62.46 363.213 62.775 363.648 62.775C364.003 62.775 364.308 62.59 364.428 62.28H364.758C364.598 62.765 364.158 63.06 363.643 63.06ZM363.893 60.8C363.463 60.8 363.108 61.125 362.983 61.59H364.538C364.613 61.115 364.343 60.8 363.893 60.8ZM366.806 60.55L366.761 60.845H366.571C366.146 60.845 365.811 61.145 365.741 61.605L365.516 63H365.191L365.571 60.58H365.866L365.831 60.985C365.966 60.71 366.246 60.525 366.571 60.525C366.651 60.525 366.731 60.535 366.806 60.55ZM367.608 63L367.018 60.58H367.348L367.723 62.165C367.753 62.315 367.783 62.45 367.813 62.655C367.888 62.5 367.958 62.355 368.063 62.165L368.943 60.58H369.303L367.933 63H367.608ZM370.273 63.06C369.658 63.06 369.238 62.62 369.238 61.985C369.238 61.155 369.803 60.515 370.533 60.515C371.198 60.515 371.593 61.01 371.488 61.665L371.463 61.83H369.568C369.563 61.875 369.563 61.92 369.563 61.97C369.563 62.46 369.843 62.775 370.278 62.775C370.633 62.775 370.938 62.59 371.058 62.28H371.388C371.228 62.765 370.788 63.06 370.273 63.06ZM370.523 60.8C370.093 60.8 369.738 61.125 369.613 61.59H371.168C371.243 61.115 370.973 60.8 370.523 60.8ZM373.436 60.55L373.391 60.845H373.201C372.776 60.845 372.441 61.145 372.371 61.605L372.146 63H371.821L372.201 60.58H372.496L372.461 60.985C372.596 60.71 372.876 60.525 373.201 60.525C373.281 60.525 373.361 60.535 373.436 60.55Z" fill="#595959"/>
<path d="M189 41.4517V65.9844C188.2 67.6563 183.526 71 171.227 71C158.928 71 154.618 67.6563 154 65.9844V41.4517M189 41.4517C188.746 39.6345 184.835 36 171.227 36C157.62 36 154.073 39.6345 154 41.4517M189 41.4517C188.637 43.1236 184.573 46.4673 171.227 46.4673C157.882 46.4673 154.182 43.1236 154 41.4517" stroke="#E7125E" stroke-linejoin="round" stroke-dasharray="2 2"/>
<path d="M384 41.4517V65.9844C383.2 67.6563 378.526 71 366.227 71C353.928 71 349.618 67.6563 349 65.9844V41.4517M384 41.4517C383.746 39.6345 379.835 36 366.227 36C352.62 36 349.073 39.6345 349 41.4517M384 41.4517C383.637 43.1236 379.573 46.4673 366.227 46.4673C352.882 46.4673 349.182 43.1236 349 41.4517" stroke="#E7125E" stroke-linejoin="round" stroke-dasharray="2 2"/>
<rect x="107.242" y="103.757" width="6" height="6" rx="1" transform="rotate(45 107.242 103.757)" fill="#595959"/>
<rect x="171.242" y="103.757" width="6" height="6" rx="1" transform="rotate(45 171.242 103.757)" fill="#595959"/>
<rect x="236.242" y="103.757" width="6" height="6" rx="1" transform="rotate(45 236.242 103.757)" fill="#595959"/>
<rect x="366.242" y="103.757" width="6" height="6" rx="1" transform="rotate(45 366.242 103.757)" fill="#595959"/>
<rect x="431.242" y="103.757" width="6" height="6" rx="1" transform="rotate(45 431.242 103.757)" fill="#595959"/>
</svg>
