<?xml version="1.0" encoding="UTF-8"?>
<svg id="Layer_1" data-name="Layer 1" xmlns="http://www.w3.org/2000/svg" viewBox="0 0 1968.54 165.26">
  <defs>
    <style>
      .cls-1 {
        fill: #fff;
        stroke-width: 0px;
      }
    </style>
  </defs>
  <rect class="cls-1" x="506.84" y="0" width="2" height="165.26"/>
  <g>
    <path class="cls-1" d="M103.06,68.13l-65.72-.05c-17.91,0-32.82,14.17-33.28,32.38,0,.49.39.89.88.89l65.72.04h0c17.91,0,32.82-14.16,33.28-32.37,0-.49-.39-.89-.88-.89Z"/>
    <path class="cls-1" d="M136.36,18.25l-99.02-.05c-17.91,0-32.82,14.17-33.28,32.38,0,.49.39.89.88.89l99.02.04h0c17.91,0,32.82-14.16,33.28-32.37,0-.49-.39-.89-.88-.89Z"/>
    <circle class="cls-1" cx="20.7" cy="134.41" r="16.65"/>
    <rect class="cls-1" x="206.78" y="34.89" width="17.83" height="99.57"/>
    <path class="cls-1" d="M424.56,100.59c0-18.52-13.03-34.02-31.41-34.02-19.75,0-32.37,16.19-32.37,34.7,0,20.85,14.95,34.56,34.84,34.56,10.29,0,20.85-4.25,27.3-11.93l-10.15-10.15c-3.16,3.43-9.19,7.68-16.73,7.68-9.46,0-17.01-6.45-17.97-15.77h46.09c.27-1.51.41-3.29.41-5.08h0ZM378.88,92.64c.82-6.04,6.86-11.66,14.27-11.66s12.62,5.76,13.17,11.66h-27.44Z"/>
    <path class="cls-1" d="M287.03,74.24l-1.26-1.03c-5.38-4.39-12.11-6.71-19.46-6.71-18.31,0-32.66,15.27-32.66,34.76,0,8.71,3.03,17.01,8.52,23.37,6.06,7.05,15.45,11.25,25.12,11.25,7.02,0,13.23-2.25,18.46-6.7l1.27-1.08v6.38h16.01v-66.57h-16.01v6.33h.01ZM268.49,121.79c-10.69,0-19.39-9.14-19.39-20.37s8.7-20.37,19.39-20.37,19.39,9.14,19.39,20.37-8.7,20.37-19.39,20.37h0Z"/>
    <path class="cls-1" d="M349.55,66.51c-7.35,0-14.08,2.32-19.46,6.71l-1.26,1.03v-6.33h-16.01v66.57h15.99v-34.7c0-5.36,2.18-10.55,6.22-14.07,3.35-2.91,7.65-4.67,12.34-4.67,3.1,0,6.03.77,8.64,2.14l5.29-14.45c-3.63-1.45-7.58-2.24-11.75-2.24h0Z"/>
    <path class="cls-1" d="M159.78,134.47h16.73v-52.72h19v-13.92h-19v-2.88c0-6.55,1.03-9.18,2.7-11.3l.02-.02c2.35-2.79,6.01-4.21,10.85-4.21,1.48,0,3.37.21,4.87.53l2.54-14.09c-3.1-.75-6.12-1.07-9.94-1.07-8.16,0-15.51,2.77-20.69,7.79-4.89,4.75-7.08,11.43-7.08,21.66v3.58h-12.25v13.92h12.25v52.72h0Z"/>
  </g>
  <g>
    <path class="cls-1" d="M596.75,132.65V54.38h-29.91v-13.97h76.42v13.97h-30.04v78.27h-16.47Z"/>
    <path class="cls-1" d="M709.01,92.86v39.79h-15.81v-39c0-6.06-.26-9.75-3.56-12.91-3.03-3.03-6.19-3.29-10.01-3.29-5.67,0-14.36,2.9-14.36,18.58v36.63h-15.68V40.41h15.55v36.1c3.56-7.64,10.8-11.33,19.63-11.33s14.23,1.98,18.84,6.98c5.01,5.4,5.4,12.52,5.4,20.69Z"/>
    <path class="cls-1" d="M782.93,104.05h-49.01c.26,12.25,5.8,18.45,16.73,18.45,9.62,0,14.63-4.08,16.07-12.12l15.15,1.19c-3.43,15.15-14.23,22.66-31.1,22.66-10.28,0-18.18-3.29-23.85-9.09-6.06-6.19-8.83-14.89-8.83-25.56s2.9-18.84,8.83-25.17c5.8-6.06,13.7-9.22,23.72-9.22s19.24,3.95,24.77,10.94c5.27,6.59,7.91,16.6,7.51,27.93ZM737.34,82.71c-2.11,2.9-3.03,6.46-3.29,9.62h32.94c-.26-3.69-1.45-7.51-3.69-10.28-2.9-3.56-6.85-5.14-12.65-5.14-6.19,0-10.67,2.11-13.31,5.8Z"/>
    <path class="cls-1" d="M892.82,107.08c0,23.06-18.84,25.56-38.21,25.56h-35.05V40.41h33.6c17.13,0,36.1,2.64,36.1,25.03,0,9.49-4.88,16.21-12.39,19.9,10.15,3.69,15.94,10.41,15.94,21.74ZM836.03,53.72v25.3h16.07c11.07,0,21.08-.26,21.08-12.65s-10.01-12.65-20.95-12.65h-16.21ZM854.08,119.47c12.78,0,22.66-.4,22.66-13.18,0-13.83-11.99-14.1-22-14.1h-18.71v27.27h18.05Z"/>
    <path class="cls-1" d="M900.2,132.65V40.41h15.68v92.23h-15.68Z"/>
    <path class="cls-1" d="M922.73,99.71c0-20.03,12.78-34.52,33.73-34.52s33.47,14.63,33.47,34.52-13.18,34.52-33.47,34.52-33.73-13.04-33.73-34.52ZM968.72,118.02c3.16-3.82,4.48-9.88,4.48-18.31s-1.45-14.49-4.61-18.32c-2.63-3.16-6.59-4.74-12.12-4.74s-9.49,1.45-12.12,4.48c-3.43,3.69-4.88,9.88-4.88,18.58s1.45,14.89,4.88,18.58c2.63,3.03,6.59,4.48,12.12,4.48s9.62-1.58,12.25-4.74Z"/>
    <path class="cls-1" d="M995.86,99.71c0-20.29,12.25-34.52,33.34-34.52,17.52,0,26.88,9.88,29.51,23.32l-14.62,2.64c-1.71-7.38-4.88-14.1-14.89-14.1-6.06,0-10.01,1.84-12.52,5.14-2.9,3.95-3.82,10.01-3.82,17.52,0,14.23,3.29,22.66,16.34,22.66,8.3,0,12.78-4.08,14.89-12.25l15.02,1.58c-2.24,13.31-13.44,22.53-29.91,22.53-21.08,0-33.34-12.91-33.34-34.52Z"/>
    <path class="cls-1" d="M1109.44,132.65l-19.24-31.36-7.25,6.85v24.51h-15.68V40.41h15.68v50.33l23.45-23.98h20.16l-25.83,24.51,26.62,41.37h-17.92Z"/>
    <path class="cls-1" d="M1126.31,99.71c0-20.29,12.25-34.52,33.34-34.52,17.52,0,26.88,9.88,29.51,23.32l-14.62,2.64c-1.71-7.38-4.88-14.1-14.89-14.1-6.06,0-10.01,1.84-12.52,5.14-2.9,3.95-3.82,10.01-3.82,17.52,0,14.23,3.29,22.66,16.34,22.66,8.3,0,12.78-4.08,14.89-12.25l15.02,1.58c-2.24,13.31-13.44,22.53-29.91,22.53-21.08,0-33.34-12.91-33.34-34.52Z"/>
    <path class="cls-1" d="M1257.14,92.86v39.79h-15.81v-39c0-6.06-.26-9.75-3.56-12.91-3.03-3.03-6.19-3.29-10.01-3.29-5.67,0-14.36,2.9-14.36,18.58v36.63h-15.68V40.41h15.55v36.1c3.56-7.64,10.8-11.33,19.63-11.33s14.23,1.98,18.84,6.98c5.01,5.4,5.4,12.52,5.4,20.69Z"/>
    <path class="cls-1" d="M1325.26,120.79c0,4.35.92,8.17,2.24,11.33v.53h-15.68c-.53-2.5-.92-5.27-.92-9.35-3.43,6.46-10.54,10.94-21.34,10.94-12.12,0-22.79-6.46-22.79-19.76,0-14.1,11.73-18.05,23.72-20.29l19.63-3.69c0-4.35,0-7.51-1.84-10.15-1.84-2.5-5.14-3.69-10.54-3.69-9.09,0-13.31,3.16-13.44,12.39l-15.28-1.98c.4-7.77,3.29-13.31,8.3-16.73,4.88-3.43,12.12-5.14,21.34-5.14,17,0,26.62,7.38,26.62,21.74v33.86ZM1310.11,101.16l-17.13,3.69c-6.06,1.45-10.28,3.43-10.28,9.49,0,5.67,4.48,8.43,10.15,8.43,11.2,0,17.26-5.67,17.26-15.42v-6.19Z"/>
    <path class="cls-1" d="M1335.02,56.49v-16.87h15.68v16.87h-15.68ZM1335.02,132.65v-65.88h15.68v65.88h-15.68Z"/>
    <path class="cls-1" d="M1420.66,92.86v39.79h-15.81v-38.61c0-6.06-.26-10.28-3.69-13.44-2.9-2.9-6.06-3.16-9.88-3.16-5.8,0-14.36,3.16-14.36,19.11v36.1h-15.68v-65.88h15.55v10.01c3.29-8.04,10.41-11.59,19.9-11.59,8.56,0,13.97,2.11,18.45,6.72,5.14,5.27,5.53,13.04,5.53,20.95Z"/>
    <path class="cls-1" d="M1460.45,132.65V40.41h62.59v13.7h-46.25v25.17h41.37v13.57h-41.37v39.79h-16.34Z"/>
    <path class="cls-1" d="M1528.05,99.71c0-20.03,12.78-34.52,33.73-34.52s33.47,14.63,33.47,34.52-13.18,34.52-33.47,34.52-33.73-13.04-33.73-34.52ZM1574.03,118.02c3.16-3.82,4.48-9.88,4.48-18.31s-1.45-14.49-4.61-18.32c-2.63-3.16-6.59-4.74-12.12-4.74s-9.49,1.45-12.12,4.48c-3.43,3.69-4.88,9.88-4.88,18.58s1.45,14.89,4.88,18.58c2.63,3.03,6.59,4.48,12.12,4.48s9.62-1.58,12.25-4.74Z"/>
    <path class="cls-1" d="M1644.26,65.18l-.4,14.23c-.92-.13-2.11-.13-3.29-.13-12.39,0-20.16,5.01-20.16,23.19v30.17h-15.68v-65.88h15.55v11.86c2.11-6.85,8.7-12.52,19.37-13.31,1.05-.13,3.56-.13,4.61-.13Z"/>
    <path class="cls-1" d="M1674.7,132.65V40.41h32.81c28.99,0,45.33,18.31,45.33,46.12s-17.13,46.12-45.33,46.12h-32.81ZM1691.17,119.34h15.02c10.8,0,18.58-3.16,23.06-9.09,4.35-5.93,6.06-13.57,6.06-23.72s-1.32-17-5.8-23.58c-4.48-6.59-12.91-9.22-23.32-9.22h-15.02v65.62Z"/>
    <path class="cls-1" d="M1818.58,120.79c0,4.35.92,8.17,2.24,11.33v.53h-15.68c-.53-2.5-.92-5.27-.92-9.35-3.43,6.46-10.54,10.94-21.34,10.94-12.12,0-22.79-6.46-22.79-19.76,0-14.1,11.73-18.05,23.72-20.29l19.63-3.69c0-4.35,0-7.51-1.84-10.15-1.84-2.5-5.14-3.69-10.54-3.69-9.09,0-13.31,3.16-13.44,12.39l-15.28-1.98c.4-7.77,3.29-13.31,8.3-16.73,4.88-3.43,12.12-5.14,21.34-5.14,17,0,26.62,7.38,26.62,21.74v33.86ZM1803.43,101.16l-17.13,3.69c-6.06,1.45-10.28,3.43-10.28,9.49,0,5.67,4.48,8.43,10.15,8.43,11.2,0,17.26-5.67,17.26-15.42v-6.19Z"/>
    <path class="cls-1" d="M1834.66,116.04v-36.76h-9.49v-12.52h9.49v-18.31h15.42v18.31h13.44v12.52h-13.44v35.44c0,3.95,2.11,4.88,6.85,4.88,1.58,0,3.82-.26,6.06-.66l.26,13.57c-2.5.53-5.8.79-8.7.79-12.52,0-19.9-4.88-19.9-17.26Z"/>
    <path class="cls-1" d="M1930.19,120.79c0,4.35.92,8.17,2.24,11.33v.53h-15.68c-.53-2.5-.92-5.27-.92-9.35-3.43,6.46-10.54,10.94-21.34,10.94-12.12,0-22.79-6.46-22.79-19.76,0-14.1,11.73-18.05,23.72-20.29l19.63-3.69c0-4.35,0-7.51-1.84-10.15-1.84-2.5-5.14-3.69-10.54-3.69-9.09,0-13.31,3.16-13.44,12.39l-15.28-1.98c.4-7.77,3.29-13.31,8.3-16.73,4.88-3.43,12.12-5.14,21.34-5.14,17,0,26.62,7.38,26.62,21.74v33.86ZM1915.03,101.16l-17.13,3.69c-6.06,1.45-10.28,3.43-10.28,9.49,0,5.67,4.48,8.43,10.15,8.43,11.2,0,17.26-5.67,17.26-15.42v-6.19Z"/>
    <path class="cls-1" d="M1941.39,132.65v-17.79h17.13v17.79h-17.13Z"/>
  </g>
</svg>