<?xml version="1.0" encoding="UTF-8" standalone="no"?>
<svg
   id="Layer_1"
   viewBox="0 0 425.2 425.2"
   version="1.1"
   sodipodi:docname="flare_icon_dark.svg"
   inkscape:version="1.3.2 (091e20e, 2023-11-25)"
   xmlns:inkscape="http://www.inkscape.org/namespaces/inkscape"
   xmlns:sodipodi="http://sodipodi.sourceforge.net/DTD/sodipodi-0.dtd"
   xmlns="http://www.w3.org/2000/svg"
   xmlns:svg="http://www.w3.org/2000/svg">
  <sodipodi:namedview
     id="namedview2"
     pagecolor="#ffffff"
     bordercolor="#999999"
     borderopacity="1"
     inkscape:showpageshadow="0"
     inkscape:pageopacity="0"
     inkscape:pagecheckerboard="0"
     inkscape:deskcolor="#d1d1d1"
     inkscape:zoom="0.55503291"
     inkscape:cx="211.69916"
     inkscape:cy="213.50085"
     inkscape:window-width="1440"
     inkscape:window-height="774"
     inkscape:window-x="0"
     inkscape:window-y="25"
     inkscape:window-maximized="0"
     inkscape:current-layer="Layer_1" />
  <defs
     id="defs1">
    <style
       id="style1">.cls-1{fill:#e62359;}</style>
  </defs>
  <path
     class="cls-1"
     d="M299.96,168.13l-177.15-.13c-48.29,0-88.46,38.19-89.72,87.28-.03,1.31,1.04,2.39,2.36,2.4l177.15,.11v.03c48.29,0,88.46-38.19,89.72-87.28,.03-1.31-1.04-2.39-2.36-2.4Z"
     id="path1"
     style="fill:#ef4a82;fill-opacity:1" />
  <path
     class="cls-1"
     d="M389.74,33.65l-266.93-.13c-48.29,0-88.46,38.19-89.72,87.28-.03,1.31,1.04,2.39,2.36,2.4l266.93,.11v.03c48.29,0,88.46-38.19,89.72-87.28,.03-1.31-1.04-2.39-2.36-2.4Z"
     id="path2"
     style="fill:#ef4a82;fill-opacity:1" />
  <circle
     class="cls-1"
     cx="77.98"
     cy="346.79"
     r="44.89"
     transform="translate(-126.77 56.24) rotate(-22.5)"
     id="circle2"
     style="fill:#ef4a82;fill-opacity:1" />
</svg>
