<svg width="59" height="38" viewBox="0 0 59 38" fill="#000000" xmlns="http://www.w3.org/2000/svg">
<path d="M31.9562 0.116357C31.2904 0.0517139 30.6149 0.0161607 29.9297 0V5.53666C30.2852 5.55282 30.6375 5.58838 30.9834 5.63039L31.9562 0.116357Z"  />
<path d="M26.3203 5.85535C25.9754 5.93592 25.6338 6.02292 25.2986 6.12596L23.3047 0.648366C23.9705 0.499688 24.646 0.373634 25.3377 0.273438L26.3203 5.85535Z"  />
<path d="M23.1142 7.01534L23.1117 7.01663H23.115L23.1142 7.01534Z"  />
<path d="M24.0717 6.56413C23.7429 6.70274 23.4269 6.85422 23.1142 7.01534L19.9766 1.58016C20.6456 1.34745 21.3308 1.14059 22.029 0.953125L24.0717 6.56413Z"  />
<path d="M33.2824 6.12685C32.9463 6.02019 32.6037 5.93292 32.2578 5.85535H32.261L33.2436 0.273438C33.9321 0.373634 34.6108 0.50292 35.2766 0.648366L33.2824 6.12685Z"  />
<path d="M16.1426 16.024L3.17188 13.7362C3.89264 12.8893 4.70391 11.9876 5.61214 11.0664L16.414 14.9999C16.3074 15.3359 16.2201 15.6783 16.1426 16.024Z"  />
<path d="M18.5582 10.8442C18.3449 11.1222 18.1412 11.4131 17.9505 11.7104L10.0156 7.13049C10.7202 6.58425 11.4539 6.04449 12.2199 5.52734L18.5582 10.8442Z"  />
<path d="M16.8561 13.7888L16.8577 13.7849L16.8593 13.7855L16.8561 13.7888Z"  />
<path d="M16.8577 13.7849C16.993 13.4598 17.1476 13.1411 17.3086 12.8288L8.9438 8C8.12283 8.68198 7.35358 9.37689 6.63281 10.0653L16.8577 13.7849Z"  />
<path d="M19.3969 9.85079C19.6351 9.59342 19.883 9.34564 20.1436 9.10428L15.4894 3.55469C14.7557 3.94578 14.0478 4.35626 13.3594 4.78614L19.3969 9.85079Z"  />
<path d="M21.1355 8.27064C21.4167 8.05732 21.7076 7.85692 22.0017 7.66299L18.7534 2.03906C18.0423 2.32026 17.3474 2.62731 16.6719 2.95376L21.1322 8.27064H21.1355Z"  />
<path d="M55.4062 13.7362L42.4354 16.024C42.3547 15.6783 42.2674 15.3359 42.1641 14.9999L52.9659 11.0664C53.8741 11.9908 54.6886 12.8893 55.4062 13.7362Z"  />
<path d="M15.8246 19.6484H0C0.0872679 20.0751 0.258572 20.4888 0.520375 20.8573C0.969643 21.4908 1.5385 22.2632 2.22372 23.1165L15.9183 20.7021C15.8731 20.353 15.8407 20.004 15.8246 19.6484Z"  />
<path d="M15.9183 17.3011C15.8763 17.647 15.8407 17.9993 15.8246 18.3548H0C0.0872679 17.9282 0.258572 17.5177 0.520375 17.146C0.969643 16.5125 1.5385 15.74 2.22372 14.8867L15.9183 17.3011Z"  />
<path d="M42.75 19.6484C42.7338 20.004 42.6983 20.3563 42.6562 20.7021L56.3508 23.1165C57.0361 22.2632 57.6049 21.4908 58.0542 20.8573C58.316 20.4856 58.4873 20.0751 58.5746 19.6484H42.75Z"  />
<path d="M40.6233 11.7104C40.4293 11.4131 40.2289 11.1254 40.0156 10.8442L46.3539 5.52734C47.1231 6.04449 47.8536 6.58102 48.5582 7.13049L40.6233 11.7104Z"  />
<path d="M41.2734 12.8256L41.2747 12.8281L41.2734 12.8288V12.8256Z"  />
<path d="M41.2747 12.8281C41.4358 13.1408 41.5873 13.4567 41.7259 13.7855L51.9492 10.0653C51.2284 9.37366 50.4592 8.68198 49.6382 8L41.2747 12.8281Z"  />
<path d="M39.1874 9.85481C38.946 9.59414 38.6982 9.34628 38.4408 9.10805L43.095 3.55859C43.8287 3.94968 44.5366 4.36017 45.225 4.79004L39.1874 9.85481Z"  />
<path d="M36.5814 7.6669C36.8787 7.8576 37.1696 8.06122 37.4476 8.27454L41.9079 2.95766C41.2324 2.63122 40.5375 2.32417 39.8264 2.04297L36.5781 7.6669H36.5814Z"  />
<path d="M35.4599 7.02053C35.1464 6.85893 34.8264 6.70378 34.5 6.56803H34.5032L36.5459 0.957031C37.2441 1.1445 37.9293 1.35135 38.5984 1.58407L35.4599 7.02053Z"  />
<path d="M35.4599 30.9844L35.4575 30.9857L35.4567 30.9844H35.4599Z"  />
<path d="M35.4575 30.9857L38.5951 36.4208C37.9261 36.6536 37.2409 36.8604 36.5427 37.0479L34.5 31.4369C34.8288 31.2983 35.1448 31.1468 35.4575 30.9857Z"  />
<path d="M36.5859 30.3342C36.8801 30.1403 37.171 29.9399 37.4522 29.7266H37.4554L41.9157 35.0434C41.2402 35.3699 40.5453 35.6737 39.8342 35.9581L36.5859 30.3342Z"  />
<path d="M39.1843 28.1518L45.2218 33.2164C44.5333 33.6463 43.8255 34.0568 43.0918 34.4479L38.4375 28.8983C38.6982 28.6569 38.946 28.4092 39.1843 28.1518Z"  />
<path d="M33.2806 31.8788L33.2824 31.8782L33.2792 31.875L33.2806 31.8788Z"  />
<path d="M33.2806 31.8788C32.945 31.982 32.603 32.0691 32.2578 32.1465L33.2404 37.7284C33.9321 37.6282 34.6076 37.5022 35.2734 37.3535L33.2806 31.8788Z"  />
<path d="M40.6233 26.2891C40.4326 26.5864 40.2289 26.8773 40.0156 27.1553L46.3539 32.4722C47.1199 31.955 47.8536 31.4152 48.5582 30.869L40.6233 26.2891Z"  />
<path d="M29.9297 32.4609C30.2852 32.4448 30.6343 32.4124 30.9834 32.3672L31.9562 37.8812C31.2937 37.9459 30.6149 37.9814 29.9297 37.9976V32.4609Z"  />
<path d="M56.3508 14.8828L42.6562 17.2972C42.7015 17.6463 42.7338 17.9954 42.75 18.3509H58.5746C58.4873 17.9243 58.316 17.5105 58.0542 17.1421C57.6049 16.5086 57.0361 15.7361 56.3508 14.8828Z"  />
<path d="M42.4356 21.9766C42.358 22.3222 42.2707 22.6652 42.1641 23.0012L52.9659 26.9347C53.8741 26.0135 54.6886 25.1117 55.4062 24.2649L42.4356 21.9766Z"  />
<path d="M16.4094 23.0012C16.306 22.665 16.2187 22.3224 16.1379 21.9766L3.16406 24.2649C3.8816 25.1117 4.6961 26.0103 5.60433 26.9347L16.4062 23.0012H16.4094Z"  />
<path d="M41.7243 24.2187L41.7259 24.2148L41.7227 24.2181L41.7243 24.2187Z"  />
<path d="M41.7243 24.2187C41.589 24.5438 41.4344 24.8625 41.2734 25.1748L49.6382 30.0036C50.4592 29.3216 51.2284 28.6267 51.9492 27.9383L41.7243 24.2187Z"  />
<path d="M28.6437 0C27.9585 0.0161607 27.2798 0.0517145 26.6172 0.116357L27.5901 5.6304C27.9391 5.58515 28.2882 5.55282 28.6437 5.53666V0Z"  />
<path d="M19.3892 28.1484C19.6306 28.4091 19.8783 28.657 20.1357 28.8952L15.4815 34.4447C14.7478 34.0536 14.04 33.6431 13.3516 33.2132L19.3892 28.1484Z"  />
<path d="M17.304 25.1716C17.1424 24.858 16.9905 24.5413 16.8515 24.2148L6.625 27.935C7.34577 28.6267 8.11502 29.3184 8.93598 30.0004L17.3008 25.1716H17.304Z"  />
<path d="M21.1322 29.7266C21.4102 29.9399 21.7011 30.1435 21.9984 30.3342H22.0017L18.7534 35.9581C18.0423 35.6769 17.3474 35.3699 16.6719 35.0434L21.1322 29.7266Z"  />
<path d="M18.5582 27.1592C18.3449 26.878 18.1445 26.5903 17.9505 26.293L10.0156 30.8729C10.7202 31.4224 11.4507 31.9589 12.2199 32.4761L18.5582 27.1592Z"  />
<path d="M27.5901 32.3672C27.9359 32.4092 28.2882 32.4448 28.6437 32.4609V37.9976C27.9585 37.9814 27.283 37.9459 26.6172 37.8812L27.5901 32.3672Z"  />
<path d="M24.0749 31.4369C23.7485 31.3011 23.4285 31.146 23.115 30.9844L19.9766 36.4208C20.6456 36.6536 21.3308 36.8604 22.029 37.0479L24.0717 31.4369H24.0749Z"  />
<path d="M25.2911 31.8789C25.6273 31.9823 25.9699 32.0696 26.3157 32.1472L26.3125 32.1504L25.3299 37.7323C24.6414 37.6321 23.9627 37.5028 23.2969 37.3574L25.2911 31.8789Z"  />
</svg>
