<svg width="15" height="15" viewBox="0 0 15 15" fill="none" xmlns="http://www.w3.org/2000/svg">
<path d="M7.56437 0C11.6662 0 15 3.42812 15 7.49812C15 11.5669 11.6688 14.9919 7.5625 14.9919L0 15V7.36875C0 3.3 3.4575 0 7.56437 0ZM7.63687 2.85188C6.8404 2.8101 6.05722 3.05598 5.36328 3.44691C4.66935 3.83784 4.08822 4.40147 3.67625 5.08313C3.26768 5.76155 3.04412 6.53524 3.02789 7.32703C3.01166 8.11882 3.20332 8.90103 3.58375 9.59562L2.75 12.2563L5.74625 11.585C6.58467 11.9596 7.51541 12.0771 8.42061 11.9224C9.32581 11.7678 10.1648 11.348 10.8312 10.7162C11.494 10.0891 11.9522 9.27654 12.1459 8.38484C12.3396 7.49313 12.2598 6.56374 11.9169 5.71813C11.5701 4.8695 10.9781 4.14356 10.2166 3.63311C9.45506 3.12265 8.55864 2.85087 7.64188 2.8525L7.63687 2.85188Z" fill="#D1D1D1"/>
</svg>
