<svg width="17" height="13" viewBox="0 0 17 13" fill="none" xmlns="http://www.w3.org/2000/svg">
<path d="M14.3912 1.07763C13.3077 0.578841 12.1458 0.211357 10.9309 0.00088291C10.9088 -0.00317917 10.8867 0.00697219 10.8753 0.0272754C10.7259 0.293919 10.5604 0.641778 10.4444 0.915194C9.13779 0.718936 7.83784 0.718936 6.55798 0.915194C6.44204 0.635701 6.27051 0.293919 6.12041 0.0272754C6.10901 0.0076496 6.08691 -0.00250175 6.06479 0.00088291C4.8506 0.210684 3.68869 0.578169 2.6045 1.07763C2.59511 1.08169 2.58707 1.08846 2.58173 1.09725C0.377819 4.40058 -0.225923 7.62272 0.0702526 10.8049C0.0715927 10.8205 0.0803037 10.8354 0.0923653 10.8448C1.54644 11.9161 2.95496 12.5665 4.33732 12.9976C4.35945 13.0044 4.38289 12.9963 4.39697 12.978C4.72397 12.53 5.01546 12.0576 5.26538 11.5608C5.28013 11.5318 5.26605 11.4972 5.2359 11.4857C4.77355 11.3098 4.3333 11.0952 3.90981 10.8516C3.87631 10.832 3.87363 10.7839 3.90445 10.7609C3.99356 10.6939 4.08271 10.6242 4.1678 10.5538C4.1832 10.5409 4.20465 10.5382 4.22275 10.5464C7.00491 11.8207 10.0169 11.8207 12.7663 10.5464C12.7844 10.5376 12.8058 10.5403 12.8219 10.5531C12.907 10.6235 12.9961 10.6939 13.0859 10.7609C13.1167 10.7839 13.1147 10.832 13.0812 10.8516C12.6577 11.1 12.2175 11.3098 11.7544 11.4851C11.7243 11.4966 11.7109 11.5318 11.7256 11.5608C11.9809 12.0569 12.2724 12.5293 12.5934 12.9773C12.6068 12.9963 12.6309 13.0044 12.653 12.9976C14.0421 12.5665 15.4506 11.9161 16.9047 10.8448C16.9174 10.8354 16.9255 10.8211 16.9268 10.8056C17.2813 7.12662 16.3331 3.93091 14.4133 1.09793C14.4086 1.08846 14.4006 1.08169 14.3912 1.07763ZM5.68085 8.86728C4.84323 8.86728 4.15305 8.09578 4.15305 7.14829C4.15305 6.2008 4.82984 5.42929 5.68085 5.42929C6.53854 5.42929 7.22203 6.20757 7.20862 7.14829C7.20862 8.09578 6.53183 8.86728 5.68085 8.86728ZM11.3296 8.86728C10.492 8.86728 9.80184 8.09578 9.80184 7.14829C9.80184 6.2008 10.4786 5.42929 11.3296 5.42929C12.1873 5.42929 12.8708 6.20757 12.8574 7.14829C12.8574 8.09578 12.1873 8.86728 11.3296 8.86728Z" fill="#D1D1D1"/>
</svg>
