<svg width="19" height="19" viewBox="0 0 19 19" fill="none" xmlns="http://www.w3.org/2000/svg">
<path fill-rule="evenodd" clip-rule="evenodd" d="M9.50786 0C4.25026 0 0 4.35415 0 9.74082C0 14.0467 2.72329 17.6915 6.50121 18.9815C6.97355 19.0785 7.14656 18.7719 7.14656 18.514C7.14656 18.2882 7.13099 17.5142 7.13099 16.7077C4.48614 17.2883 3.93537 15.5465 3.93537 15.5465C3.51032 14.4176 2.88054 14.1274 2.88054 14.1274C2.01488 13.5307 2.9436 13.5307 2.9436 13.5307C3.90384 13.5952 4.40771 14.5306 4.40771 14.5306C5.2576 16.0142 6.62713 15.595 7.17809 15.3369C7.25672 14.7079 7.50875 14.2725 7.77635 14.0307C5.66688 13.8048 3.44746 12.9663 3.44746 9.22466C3.44746 8.16027 3.82502 7.28944 4.42327 6.61217C4.32889 6.37032 3.99823 5.37025 4.51786 4.03174C4.51786 4.03174 5.32066 3.77366 7.1308 5.03161C7.90578 4.81839 8.70501 4.70992 9.50786 4.70901C10.3107 4.70901 11.129 4.82202 11.8847 5.03161C13.6951 3.77366 14.4979 4.03174 14.4979 4.03174C15.0175 5.37025 14.6866 6.37032 14.5923 6.61217C15.2063 7.28944 15.5683 8.16027 15.5683 9.22466C15.5683 12.9663 13.3488 13.7886 11.2236 14.0307C11.57 14.337 11.869 14.9175 11.869 15.8368C11.869 17.1431 11.8534 18.1914 11.8534 18.5138C11.8534 18.7719 12.0266 19.0785 12.4987 18.9817C16.2767 17.6913 19 14.0467 19 9.74082C19.0155 4.35415 14.7497 0 9.50786 0Z" fill="#D1D1D1"/>
</svg>
