<svg width="16" height="17" viewBox="0 0 16 17" fill="none" xmlns="http://www.w3.org/2000/svg">
<path d="M16 1.25V15.75C16 16.0815 15.8761 16.3995 15.6554 16.6339C15.4348 16.8683 15.1355 17 14.8235 17H1.17647C0.864451 17 0.565211 16.8683 0.34458 16.6339C0.123949 16.3995 0 16.0815 0 15.75L0 1.25C0 0.918479 0.123949 0.600537 0.34458 0.366117C0.565211 0.131696 0.864451 0 1.17647 0L14.8235 0C15.1355 0 15.4348 0.131696 15.6554 0.366117C15.8761 0.600537 16 0.918479 16 1.25V1.25ZM4.70588 6.5H2.35294V14.5H4.70588V6.5ZM4.91765 3.75C4.91889 3.5609 4.88506 3.37338 4.81809 3.19817C4.75113 3.02296 4.65233 2.86347 4.52736 2.72883C4.40238 2.59418 4.25366 2.48701 4.0897 2.41343C3.92574 2.33985 3.74975 2.30131 3.57176 2.3H3.52941C3.16747 2.3 2.82035 2.45277 2.56442 2.7247C2.30849 2.99662 2.16471 3.36544 2.16471 3.75C2.16471 4.13456 2.30849 4.50338 2.56442 4.7753C2.82035 5.04723 3.16747 5.2 3.52941 5.2V5.2C3.70741 5.20465 3.88452 5.172 4.05063 5.1039C4.21674 5.0358 4.36859 4.93359 4.49751 4.80311C4.62643 4.67263 4.72989 4.51644 4.80198 4.34347C4.87407 4.17049 4.91337 3.98412 4.91765 3.795V3.75ZM13.6471 9.64C13.6471 7.235 12.2071 6.3 10.7765 6.3C10.3081 6.27508 9.8417 6.38108 9.42389 6.60743C9.00607 6.83378 8.65142 7.17257 8.39529 7.59H8.32941V6.5H6.11765V14.5H8.47059V10.245C8.43658 9.80922 8.56577 9.37677 8.83011 9.04161C9.09445 8.70645 9.47258 8.49565 9.88235 8.455H9.97176C10.72 8.455 11.2753 8.955 11.2753 10.215V14.5H13.6282L13.6471 9.64Z" fill="#D1D1D1"/>
</svg>
