<svg width="17" height="17" viewBox="0 0 17 17" fill="none" xmlns="http://www.w3.org/2000/svg">
<path d="M9.58902 8.66051C9.58902 11.3314 7.44242 13.4966 4.79459 13.4966C2.14677 13.4966 0 11.3309 0 8.66051C0 5.99007 2.1466 3.82422 4.79459 3.82422C7.44258 3.82422 9.58902 5.98958 9.58902 8.66051Z" fill="#D1D1D1"/>
<path d="M14.8493 8.66237C14.8493 11.1765 13.776 13.2154 12.452 13.2154C11.128 13.2154 10.0547 11.1765 10.0547 8.66237C10.0547 6.14827 11.1278 4.10938 12.4518 4.10938C13.7758 4.10938 14.8491 6.14761 14.8491 8.66237" fill="#D1D1D1"/>
<path d="M16.9986 8.66079C16.9986 10.9128 16.6212 12.7396 16.1555 12.7396C15.6898 12.7396 15.3125 10.9133 15.3125 8.66079C15.3125 6.40829 15.6899 4.58203 16.1555 4.58203C16.621 4.58203 16.9986 6.40812 16.9986 8.66079Z" fill="#D1D1D1"/>
</svg>
