<svg width="15" height="15" viewBox="0 0 15 15" fill="none" xmlns="http://www.w3.org/2000/svg">
<path fill-rule="evenodd" clip-rule="evenodd" d="M1.27385 7.05753C5.14978 5.36885 7.73434 4.25557 9.02753 3.71769C12.7199 2.18193 13.4871 1.91515 13.9872 1.90634C14.0971 1.90441 14.3431 1.93166 14.5024 2.06092C14.6369 2.17007 14.6739 2.3175 14.6916 2.42098C14.7093 2.52446 14.7313 2.76019 14.7138 2.94438C14.5137 5.04672 13.648 10.1486 13.2075 12.5032C13.0211 13.4996 12.6541 13.8336 12.2989 13.8663C11.5268 13.9374 10.9405 13.3561 10.1927 12.8659C9.02247 12.0988 8.36139 11.6213 7.22553 10.8728C5.91284 10.0077 6.7638 9.53228 7.5119 8.75528C7.70768 8.55193 11.1096 5.45766 11.1754 5.17696C11.1836 5.14186 11.1913 5.011 11.1135 4.9419C11.0358 4.8728 10.9211 4.89643 10.8383 4.91522C10.7209 4.94186 8.85151 6.17745 5.23011 8.622C4.6995 8.98636 4.21888 9.16389 3.78826 9.15458C3.31354 9.14433 2.40037 8.88617 1.72152 8.6655C0.888886 8.39485 0.227123 8.25175 0.284748 7.79209C0.314762 7.55267 0.644465 7.30782 1.27385 7.05753Z" fill="#D1D1D1"/>
</svg>
