<svg width="20" height="14" viewBox="0 0 20 14" fill="none" xmlns="http://www.w3.org/2000/svg">
<path fill-rule="evenodd" clip-rule="evenodd" d="M17.792 0.423075C18.6521 0.653843 19.3325 1.33334 19.5635 2.1923C19.9872 3.75641 20 7 20 7C20 7 20 10.2564 19.5764 11.8077C19.3453 12.6667 18.665 13.3461 17.8049 13.5769C16.2516 14 10 14 10 14C10 14 3.74839 14 2.19512 13.5769C1.33504 13.3461 0.654686 12.6667 0.42362 11.8077C0 10.2436 0 7 0 7C0 7 0 3.75641 0.410783 2.20513C0.641849 1.34615 1.32221 0.666668 2.18229 0.435901C3.73556 0.0128174 9.98716 0 9.98716 0C9.98716 0 16.2388 0 17.792 0.423075ZM13.1836 7L7.99743 10V4L13.1836 7Z" fill="#D1D1D1"/>
</svg>
