<?xml version="1.0" encoding="UTF-8"?>
<svg id="Layer_1" data-name="Layer 1" xmlns="http://www.w3.org/2000/svg" viewBox="0 0 1713.6 878.4">
  <defs>
    <style>
      .cls-1 {
        fill: #fff;
      }

      .cls-2 {
        fill: #e7125e;
      }

      .cls-2, .cls-3, .cls-4, .cls-5, .cls-6 {
        stroke-miterlimit: 10;
      }

      .cls-2, .cls-4, .cls-6 {
        stroke: #fff;
        stroke-width: 7.52px;
      }

      .cls-3 {
        fill: #f5a4b8;
        stroke: #f1f2f2;
        stroke-width: 2.99px;
      }

      .cls-4 {
        fill: #f1719e;
      }

      .cls-5 {
        fill: none;
        stroke: #595959;
        stroke-width: 2px;
      }

      .cls-6 {
        fill: #ec417e;
      }

      .cls-7 {
        fill: #595959;
      }
    </style>
  </defs>
  <g>
    <polyline class="cls-5" points="628.57 468.64 776.49 357.46 984.04 357.46"/>
    <path class="cls-7" d="m983.66,364.98c4.15,0,7.52-3.37,7.52-7.52s-3.37-7.52-7.52-7.52-7.52,3.37-7.52,7.52,3.37,7.52,7.52,7.52Z"/>
  </g>
  <g>
    <polyline class="cls-5" points="405.9 327.47 460.33 174.23 930.41 174.23"/>
    <path class="cls-7" d="m930.04,181.75c4.15,0,7.52-3.37,7.52-7.52s-3.37-7.52-7.52-7.52-7.52,3.37-7.52,7.52,3.37,7.52,7.52,7.52Z"/>
  </g>
  <g>
    <polyline class="cls-5" points="628.57 663.7 780.42 722.6 977.5 722.6"/>
    <path class="cls-7" d="m977.12,730.12c4.15,0,7.52-3.37,7.52-7.52s-3.37-7.52-7.52-7.52-7.52,3.37-7.52,7.52,3.37,7.52,7.52,7.52Z"/>
  </g>
  <g>
    <line class="cls-5" x1="669.15" y1="520.92" x2="984.04" y2="520.92"/>
    <path class="cls-7" d="m983.66,528.44c4.15,0,7.52-3.37,7.52-7.52s-3.37-7.52-7.52-7.52-7.52,3.37-7.52,7.52,3.37,7.52,7.52,7.52Z"/>
  </g>
  <g>
    <path class="cls-3" d="m488.3,526.9l251.58,11.74c.54-11.67.27-23.49-.81-35.13l-250.76,23.39Z"/>
    <path class="cls-6" d="m488.3,526.9l115.62,223.74c82.54-42.66,131.62-119.19,135.95-212l-251.58-11.74Z"/>
    <path class="cls-2" d="m488.3,526.9l11.74-251.58c-138.94-6.48-256.83,100.9-263.32,239.84-6.48,138.94,100.9,256.83,239.84,263.32,46.13,2.15,86.34-6.64,127.36-27.84l-115.62-223.74Z"/>
    <path class="cls-4" d="m488.3,526.9l250.76-23.39c-11.83-126.86-111.75-222.25-239.03-228.19l-11.74,251.58Z"/>
  </g>
  <circle class="cls-1" cx="489.55" cy="518.4" r="105.35"/>
  <g>
    <path class="cls-7" d="m1016.83,160.88h-10.4l-1.01,5.72.07.07c1.37-1.4,2.95-1.94,4.93-1.94,4.97,0,7.77,3.85,7.77,8.57,0,5.18-4.28,9.18-9.36,9.07-4.9,0-9.29-2.7-9.36-7.99h5.11c.25,2.23,1.91,3.78,4.14,3.78,2.66,0,4.36-2.34,4.36-4.86s-1.62-4.72-4.36-4.72c-1.84,0-2.84.65-3.85,2.02h-4.61l2.48-13.93h14.07v4.21Z"/>
    <path class="cls-7" d="m1028.89,156.16c6.26,0,8.42,4.32,8.42,6.77s-1.3,4.5-3.67,5.29v.07c2.99.68,4.72,2.99,4.72,6.16,0,5.29-4.75,7.92-9.43,7.92s-9.58-2.45-9.58-7.88c0-3.2,1.8-5.47,4.75-6.19v-.07c-2.45-.68-3.71-2.7-3.71-5.18,0-4.54,4.39-6.88,8.5-6.88Zm.04,22.35c2.45,0,4.32-1.73,4.32-4.25s-1.94-4.03-4.32-4.03-4.46,1.4-4.46,4,2.02,4.28,4.46,4.28Zm-.04-11.7c2.09,0,3.78-1.15,3.78-3.31,0-1.3-.61-3.49-3.78-3.49-2.05,0-3.85,1.26-3.85,3.49s1.8,3.31,3.85,3.31Z"/>
    <path class="cls-7" d="m1041.02,176.32h5.65v5.54h-5.65v-5.54Z"/>
    <path class="cls-7" d="m1057.08,166.85c2.2.18,5.36-.25,5.36-3.13,0-2.12-1.69-3.35-3.56-3.35-2.56,0-3.92,1.91-3.89,4.5h-4.86c.18-5.15,3.53-8.71,8.71-8.71,4.03,0,8.46,2.48,8.46,6.98,0,2.38-1.19,4.5-3.53,5.15v.07c2.77.61,4.46,2.92,4.46,5.72,0,5.29-4.43,8.28-9.36,8.28-5.65,0-9.47-3.38-9.36-9.18h4.86c.11,2.74,1.48,4.97,4.43,4.97,2.3,0,4.1-1.58,4.1-3.96,0-3.82-3.35-3.74-5.83-3.74v-3.6Z"/>
  </g>
  <g>
    <path class="cls-7" d="m1136.38,170.68c-.48-2.42-2.42-3.65-4.8-3.65-4.08,0-5.81,3.36-5.81,6.94,0,3.91,1.73,7.18,5.83,7.18,3,0,4.73-2.11,4.94-4.94h2.28c-.43,4.27-3.1,6.86-7.42,6.86-5.33,0-7.92-3.94-7.92-8.93s2.83-9.03,8.11-9.03c3.58,0,6.53,1.92,7.06,5.57h-2.28Z"/>
    <path class="cls-7" d="m1146.67,169.96c3.94,0,6.02,2.86,6.02,6.51s-2.09,6.48-6.02,6.48-6.02-2.86-6.02-6.48,2.09-6.51,6.02-6.51Zm0,11.19c2.14,0,3.86-1.68,3.86-4.68s-1.73-4.71-3.86-4.71-3.86,1.68-3.86,4.71,1.73,4.68,3.86,4.68Z"/>
    <path class="cls-7" d="m1155.09,170.25h1.92v1.82h.05c.91-1.39,2.3-2.11,4.01-2.11,1.51,0,2.9.6,3.41,2.11.84-1.32,2.3-2.11,3.89-2.11,2.47,0,4.13,1.03,4.13,3.6v9.1h-2.04v-8.14c0-1.54-.41-2.76-2.4-2.76s-3.24,1.25-3.24,3.17v7.73h-2.04v-8.14c0-1.61-.5-2.76-2.33-2.76-2.42,0-3.31,2.23-3.31,3.17v7.73h-2.04v-12.41Z"/>
    <path class="cls-7" d="m1175.57,170.25h1.92v1.82h.05c.91-1.39,2.3-2.11,4.01-2.11,1.51,0,2.9.6,3.41,2.11.84-1.32,2.3-2.11,3.89-2.11,2.47,0,4.13,1.03,4.13,3.6v9.1h-2.04v-8.14c0-1.54-.41-2.76-2.4-2.76s-3.24,1.25-3.24,3.17v7.73h-2.04v-8.14c0-1.61-.5-2.76-2.33-2.76-2.42,0-3.31,2.23-3.31,3.17v7.73h-2.04v-12.41Z"/>
    <path class="cls-7" d="m1206.31,182.65h-1.92v-1.97h-.05c-.86,1.54-2.26,2.26-4.03,2.26-3.26,0-4.27-1.87-4.27-4.54v-8.16h2.04v8.4c0,1.51.96,2.5,2.52,2.5,2.47,0,3.67-1.66,3.67-3.89v-7.01h2.04v12.41Z"/>
    <path class="cls-7" d="m1209.38,170.25h1.92v1.97h.05c.86-1.54,2.26-2.26,4.03-2.26,3.26,0,4.27,1.87,4.27,4.54v8.16h-2.04v-8.4c0-1.51-.96-2.5-2.52-2.5-2.47,0-3.67,1.66-3.67,3.89v7.01h-2.04v-12.41Z"/>
    <path class="cls-7" d="m1224.89,168.01h-2.04v-2.5h2.04v2.5Zm-2.04,2.23h2.04v12.41h-2.04v-12.41Z"/>
    <path class="cls-7" d="m1230.89,170.25h2.47v1.8h-2.47v7.7c0,.94.26,1.1,1.54,1.1h.94v1.8h-1.56c-2.11,0-2.95-.43-2.95-2.71v-7.9h-2.11v-1.8h2.11v-3.72h2.04v3.72Z"/>
    <path class="cls-7" d="m1240.49,184.31c-.94,2.42-1.78,3.31-3.6,3.31-.48,0-.96-.05-1.42-.22v-1.87c.38.12.79.29,1.2.29.84,0,1.3-.41,1.68-1.13l.84-2.11-4.92-12.34h2.3l3.62,10.15h.05l3.48-10.15h2.16l-5.4,14.06Z"/>
    <path class="cls-7" d="m1254.62,165.52h11.26v1.92h-8.98v5.45h7.87v1.92h-7.87v7.85h-2.28v-17.14Z"/>
    <path class="cls-7" d="m1268.4,165.52h2.28v15.22h9.07v1.92h-11.35v-17.14Z"/>
    <path class="cls-7" d="m1281.74,165.52h8.06c3.22,0,5.21,1.75,5.21,4.49,0,2.06-.91,3.77-2.98,4.34v.05c1.99.38,2.4,1.85,2.57,3.53.14,1.68.05,3.55,1.01,4.73h-2.54c-.65-.7-.29-2.54-.62-4.22-.24-1.68-.65-3.1-2.86-3.1h-5.57v7.32h-2.28v-17.14Zm7.03,7.9c2.14,0,3.96-.55,3.96-3.05,0-1.68-.91-2.93-3.05-2.93h-5.66v5.98h4.75Z"/>
    <path class="cls-7" d="m1315.51,182.61c-.36.21-.82.34-1.46.34-1.06,0-1.73-.58-1.73-1.92-1.13,1.32-2.64,1.92-4.37,1.92-2.26,0-4.1-1.01-4.1-3.48,0-2.81,2.09-3.41,4.2-3.82,2.26-.43,4.18-.29,4.18-1.82,0-1.78-1.46-2.06-2.76-2.06-1.73,0-3,.53-3.1,2.35h-2.04c.12-3.07,2.5-4.15,5.26-4.15,2.23,0,4.66.5,4.66,3.41v6.38c0,.96,0,1.39.65,1.39.17,0,.36-.02.62-.12v1.58Zm-3.31-6.36c-.79.58-2.33.6-3.7.84-1.34.24-2.5.72-2.5,2.23,0,1.34,1.15,1.82,2.4,1.82,2.69,0,3.79-1.68,3.79-2.81v-2.09Z"/>
    <path class="cls-7" d="m1317.53,165.52h2.04v17.14h-2.04v-17.14Z"/>
    <path class="cls-7" d="m1322.85,165.52h2.04v17.14h-2.04v-17.14Z"/>
    <path class="cls-7" d="m1333.41,169.96c3.94,0,6.02,2.86,6.02,6.51s-2.09,6.48-6.02,6.48-6.02-2.86-6.02-6.48,2.09-6.51,6.02-6.51Zm0,11.19c2.14,0,3.86-1.68,3.86-4.68s-1.73-4.71-3.86-4.71-3.86,1.68-3.86,4.71,1.73,4.68,3.86,4.68Z"/>
    <path class="cls-7" d="m1350.26,174.23c-.31-1.56-1.39-2.47-3.07-2.47-2.95,0-3.86,2.33-3.86,4.85,0,2.28,1.03,4.54,3.62,4.54,1.97,0,3.14-1.15,3.41-3.02h2.09c-.46,3.02-2.35,4.83-5.47,4.83-3.79,0-5.81-2.64-5.81-6.34s1.92-6.65,5.86-6.65c2.81,0,5.06,1.32,5.35,4.27h-2.11Z"/>
    <path class="cls-7" d="m1365.72,182.61c-.36.21-.82.34-1.46.34-1.06,0-1.73-.58-1.73-1.92-1.13,1.32-2.64,1.92-4.37,1.92-2.26,0-4.1-1.01-4.1-3.48,0-2.81,2.09-3.41,4.2-3.82,2.26-.43,4.18-.29,4.18-1.82,0-1.78-1.46-2.06-2.76-2.06-1.73,0-3,.53-3.1,2.35h-2.04c.12-3.07,2.5-4.15,5.26-4.15,2.23,0,4.66.5,4.66,3.41v6.38c0,.96,0,1.39.65,1.39.17,0,.36-.02.62-.12v1.58Zm-3.31-6.36c-.79.58-2.33.6-3.7.84-1.34.24-2.5.72-2.5,2.23,0,1.34,1.15,1.82,2.4,1.82,2.69,0,3.79-1.68,3.79-2.81v-2.09Z"/>
    <path class="cls-7" d="m1370.44,170.25h2.47v1.8h-2.47v7.7c0,.94.26,1.1,1.54,1.1h.94v1.8h-1.56c-2.11,0-2.95-.43-2.95-2.71v-7.9h-2.11v-1.8h2.11v-3.72h2.04v3.72Z"/>
    <path class="cls-7" d="m1377.33,168.01h-2.04v-2.5h2.04v2.5Zm-2.04,2.23h2.04v12.41h-2.04v-12.41Z"/>
    <path class="cls-7" d="m1385.85,169.96c3.94,0,6.02,2.86,6.02,6.51s-2.09,6.48-6.02,6.48-6.02-2.86-6.02-6.48,2.09-6.51,6.02-6.51Zm0,11.19c2.14,0,3.86-1.68,3.86-4.68s-1.73-4.71-3.86-4.71-3.86,1.68-3.86,4.71,1.73,4.68,3.86,4.68Z"/>
    <path class="cls-7" d="m1394.27,170.25h1.92v1.97h.05c.86-1.54,2.26-2.26,4.03-2.26,3.26,0,4.27,1.87,4.27,4.54v8.16h-2.04v-8.4c0-1.51-.96-2.5-2.52-2.5-2.47,0-3.67,1.66-3.67,3.89v7.01h-2.04v-12.41Z"/>
  </g>
  <g>
    <path class="cls-7" d="m1000.16,352.55c-.18-5.76,3.1-10.19,9.14-10.19,4.61,0,8.64,2.95,8.64,7.88,0,3.78-2.02,5.87-4.5,7.63s-5.44,3.2-7.27,5.79h11.92v4.39h-18.5c.04-5.83,3.6-8.31,7.96-11.27,2.23-1.51,5.25-3.06,5.29-6.16,0-2.38-1.58-3.89-3.78-3.89-3.02,0-4,3.13-4,5.8h-4.9Z"/>
    <path class="cls-7" d="m1020.18,352.55c-.18-5.76,3.1-10.19,9.14-10.19,4.61,0,8.64,2.95,8.64,7.88,0,3.78-2.02,5.87-4.5,7.63s-5.44,3.2-7.27,5.79h11.92v4.39h-18.5c.04-5.83,3.6-8.31,7.96-11.27,2.23-1.51,5.25-3.06,5.29-6.16,0-2.38-1.58-3.89-3.78-3.89-3.02,0-4,3.13-4,5.8h-4.9Z"/>
    <path class="cls-7" d="m1041.02,362.52h5.65v5.54h-5.65v-5.54Z"/>
    <path class="cls-7" d="m1054.92,361.58c.32,1.69,1.62,3.13,3.38,3.13,3.71,0,4.68-4.86,4.82-7.67l-.07-.07c-1.4,1.98-3.24,2.81-5.69,2.81-2.16,0-4.36-1.01-5.8-2.59-1.33-1.55-1.94-3.64-1.94-5.62,0-5.15,3.56-9.21,8.82-9.21,7.63,0,9.68,6.66,9.68,13.03s-2.74,13.17-9.9,13.17c-4.36,0-7.59-2.56-8.17-6.98h4.86Zm7.74-10.33c0-2.34-1.51-4.68-4.07-4.68s-3.85,2.34-3.85,4.61,1.22,4.75,3.85,4.75,4.07-2.2,4.07-4.68Z"/>
    <path class="cls-7" d="m1077.7,342.36c4.46,0,5.9,3.31,5.9,7.27s-1.87,6.77-6.08,6.77c-4.43,0-5.94-2.95-5.94-6.91s1.91-7.13,6.12-7.13Zm-.14,11.34c2.23,0,2.38-2.59,2.38-4.1,0-1.4-.11-4.54-2.23-4.54-2.3,0-2.45,2.84-2.45,4.5,0,1.55,0,4.14,2.3,4.14Zm15.37-11.63h3.06l-14.83,26.78h-3.13l14.9-26.78Zm3.35,12.45c4.46,0,5.9,3.13,5.9,7.09s-1.87,6.95-6.08,6.95c-4.43,0-5.94-3.13-5.94-7.09s1.91-6.95,6.12-6.95Zm-.14,11.34c2.23,0,2.38-2.81,2.38-4.32,0-1.4-.11-4.32-2.23-4.32-2.3,0-2.45,2.63-2.45,4.28,0,1.55,0,4.36,2.3,4.36Z"/>
  </g>
  <g>
    <path class="cls-7" d="m1124.33,351.71h11.26v1.92h-8.98v5.45h7.87v1.92h-7.87v7.85h-2.28v-17.14Z"/>
    <path class="cls-7" d="m1137.89,351.71h2.04v17.14h-2.04v-17.14Z"/>
    <path class="cls-7" d="m1154.09,368.8c-.36.22-.82.34-1.46.34-1.06,0-1.73-.58-1.73-1.92-1.13,1.32-2.64,1.92-4.37,1.92-2.26,0-4.1-1.01-4.1-3.48,0-2.81,2.09-3.41,4.2-3.82,2.26-.43,4.18-.29,4.18-1.82,0-1.78-1.46-2.06-2.76-2.06-1.73,0-3,.53-3.1,2.35h-2.04c.12-3.07,2.5-4.15,5.26-4.15,2.23,0,4.66.5,4.66,3.41v6.38c0,.96,0,1.39.65,1.39.17,0,.36-.02.62-.12v1.58Zm-3.31-6.36c-.79.58-2.33.6-3.7.84-1.34.24-2.5.72-2.5,2.23,0,1.34,1.15,1.82,2.4,1.82,2.69,0,3.79-1.68,3.79-2.81v-2.09Z"/>
    <path class="cls-7" d="m1155.91,356.44h1.92v2.62h.05c.98-1.99,2.35-2.98,4.56-2.9v2.16c-3.29,0-4.49,1.87-4.49,5.02v5.52h-2.04v-12.41Z"/>
    <path class="cls-7" d="m1174.13,364.92c-.55,2.74-2.52,4.22-5.3,4.22-3.96,0-5.83-2.74-5.95-6.53,0-3.72,2.45-6.46,5.83-6.46,4.39,0,5.74,4.1,5.62,7.1h-9.29c-.07,2.16,1.15,4.08,3.86,4.08,1.68,0,2.86-.82,3.22-2.42h2.02Zm-1.97-3.46c-.1-1.95-1.56-3.5-3.58-3.5-2.14,0-3.41,1.61-3.55,3.5h7.13Z"/>
    <path class="cls-7" d="m1183.44,351.71h5.88c5.28,0,8.23,2.64,8.23,8.16s-2.52,8.98-8.23,8.98h-5.88v-17.14Zm2.28,15.22h3.79c1.56,0,5.76-.43,5.76-6.75,0-4.08-1.51-6.55-5.71-6.55h-3.84v13.3Z"/>
    <path class="cls-7" d="m1210.58,364.92c-.55,2.74-2.52,4.22-5.3,4.22-3.96,0-5.83-2.74-5.95-6.53,0-3.72,2.45-6.46,5.83-6.46,4.39,0,5.74,4.1,5.62,7.1h-9.29c-.07,2.16,1.15,4.08,3.86,4.08,1.68,0,2.86-.82,3.22-2.42h2.02Zm-1.97-3.46c-.1-1.95-1.56-3.5-3.58-3.5-2.14,0-3.41,1.61-3.55,3.5h7.13Z"/>
    <path class="cls-7" d="m1218.48,368.85h-2.18l-4.61-12.41h2.28l3.48,10.35h.05l3.38-10.35h2.14l-4.54,12.41Z"/>
    <path class="cls-7" d="m1235.47,364.92c-.55,2.74-2.52,4.22-5.3,4.22-3.96,0-5.83-2.74-5.95-6.53,0-3.72,2.45-6.46,5.83-6.46,4.39,0,5.74,4.1,5.62,7.1h-9.29c-.07,2.16,1.15,4.08,3.86,4.08,1.68,0,2.86-.82,3.22-2.42h2.02Zm-1.97-3.46c-.1-1.95-1.56-3.5-3.58-3.5-2.14,0-3.41,1.61-3.55,3.5h7.13Z"/>
    <path class="cls-7" d="m1237.89,351.71h2.04v17.14h-2.04v-17.14Z"/>
    <path class="cls-7" d="m1248.45,356.16c3.94,0,6.02,2.86,6.02,6.5s-2.09,6.48-6.02,6.48-6.02-2.86-6.02-6.48,2.09-6.5,6.02-6.5Zm0,11.18c2.14,0,3.86-1.68,3.86-4.68s-1.73-4.7-3.86-4.7-3.86,1.68-3.86,4.7,1.73,4.68,3.86,4.68Z"/>
    <path class="cls-7" d="m1256.95,356.44h2.04v1.68h.05c.67-1.37,2.26-1.97,3.96-1.97,3.82,0,5.71,3.02,5.71,6.53s-1.87,6.46-5.66,6.46c-1.27,0-3.1-.48-4.01-1.94h-.05v6.41h-2.04v-17.16Zm5.76,1.51c-2.74,0-3.79,2.35-3.79,4.68,0,2.45,1.1,4.7,3.91,4.7s3.72-2.38,3.72-4.8-1.2-4.58-3.84-4.58Z"/>
    <path class="cls-7" d="m1271.11,356.44h1.92v1.82h.05c.91-1.39,2.3-2.11,4.01-2.11,1.51,0,2.9.6,3.41,2.11.84-1.32,2.3-2.11,3.89-2.11,2.47,0,4.13,1.03,4.13,3.6v9.1h-2.04v-8.14c0-1.54-.41-2.76-2.4-2.76s-3.24,1.25-3.24,3.17v7.73h-2.04v-8.14c0-1.61-.5-2.76-2.33-2.76-2.42,0-3.31,2.23-3.31,3.17v7.73h-2.04v-12.41Z"/>
    <path class="cls-7" d="m1302.17,364.92c-.55,2.74-2.52,4.22-5.3,4.22-3.96,0-5.83-2.74-5.95-6.53,0-3.72,2.45-6.46,5.83-6.46,4.39,0,5.74,4.1,5.62,7.1h-9.29c-.07,2.16,1.15,4.08,3.86,4.08,1.68,0,2.86-.82,3.22-2.42h2.02Zm-1.97-3.46c-.1-1.95-1.56-3.5-3.58-3.5-2.14,0-3.41,1.61-3.55,3.5h7.13Z"/>
    <path class="cls-7" d="m1304.47,356.44h1.92v1.97h.05c.86-1.54,2.26-2.26,4.03-2.26,3.26,0,4.27,1.87,4.27,4.54v8.16h-2.04v-8.4c0-1.51-.96-2.5-2.52-2.5-2.47,0-3.67,1.66-3.67,3.89v7.01h-2.04v-12.41Z"/>
    <path class="cls-7" d="m1320.64,356.44h2.47v1.8h-2.47v7.71c0,.94.26,1.1,1.54,1.1h.94v1.8h-1.56c-2.11,0-2.95-.43-2.95-2.71v-7.9h-2.11v-1.8h2.11v-3.72h2.04v3.72Z"/>
    <path class="cls-7" d="m1343.04,368.8c-.36.22-.82.34-1.46.34-1.06,0-1.73-.58-1.73-1.92-1.13,1.32-2.64,1.92-4.37,1.92-2.26,0-4.1-1.01-4.1-3.48,0-2.81,2.09-3.41,4.2-3.82,2.26-.43,4.18-.29,4.18-1.82,0-1.78-1.46-2.06-2.76-2.06-1.73,0-3,.53-3.1,2.35h-2.04c.12-3.07,2.5-4.15,5.26-4.15,2.23,0,4.66.5,4.66,3.41v6.38c0,.96,0,1.39.65,1.39.17,0,.36-.02.62-.12v1.58Zm-3.31-6.36c-.79.58-2.33.6-3.7.84-1.34.24-2.5.72-2.5,2.23,0,1.34,1.15,1.82,2.4,1.82,2.69,0,3.79-1.68,3.79-2.81v-2.09Z"/>
    <path class="cls-7" d="m1355.92,368.8c-.36.22-.82.34-1.46.34-1.06,0-1.73-.58-1.73-1.92-1.13,1.32-2.64,1.92-4.37,1.92-2.26,0-4.1-1.01-4.1-3.48,0-2.81,2.09-3.41,4.2-3.82,2.26-.43,4.18-.29,4.18-1.82,0-1.78-1.46-2.06-2.76-2.06-1.73,0-3,.53-3.1,2.35h-2.04c.12-3.07,2.5-4.15,5.26-4.15,2.23,0,4.66.5,4.66,3.41v6.38c0,.96,0,1.39.65,1.39.17,0,.36-.02.62-.12v1.58Zm-3.31-6.36c-.79.58-2.33.6-3.7.84-1.34.24-2.5.72-2.5,2.23,0,1.34,1.15,1.82,2.4,1.82,2.69,0,3.79-1.68,3.79-2.81v-2.09Z"/>
    <path class="cls-7" d="m1357.82,356.44h1.92v1.97h.05c.86-1.54,2.26-2.26,4.03-2.26,3.26,0,4.27,1.87,4.27,4.54v8.16h-2.04v-8.4c0-1.51-.96-2.5-2.52-2.5-2.47,0-3.67,1.66-3.67,3.89v7.01h-2.04v-12.41Z"/>
    <path class="cls-7" d="m1382.25,368.85h-2.04v-1.68h-.05c-.67,1.37-2.26,1.97-3.96,1.97-3.82,0-5.71-3.02-5.71-6.53s1.87-6.46,5.66-6.46c1.27,0,3.1.48,4.01,1.94h.05v-6.38h2.04v17.14Zm-5.76-1.51c2.74,0,3.79-2.35,3.79-4.68,0-2.45-1.1-4.7-3.91-4.7s-3.72,2.38-3.72,4.8,1.2,4.58,3.84,4.58Z"/>
    <path class="cls-7" d="m1392.5,351.71h2.28v17.14h-2.28v-17.14Z"/>
    <path class="cls-7" d="m1398.28,356.44h1.92v1.97h.05c.86-1.54,2.26-2.26,4.03-2.26,3.26,0,4.27,1.87,4.27,4.54v8.16h-2.04v-8.4c0-1.51-.96-2.5-2.52-2.5-2.47,0-3.67,1.66-3.67,3.89v7.01h-2.04v-12.41Z"/>
    <path class="cls-7" d="m1417.22,368.85h-2.18l-4.61-12.41h2.28l3.48,10.35h.05l3.38-10.35h2.14l-4.54,12.41Z"/>
    <path class="cls-7" d="m1434.21,364.92c-.55,2.74-2.52,4.22-5.3,4.22-3.96,0-5.83-2.74-5.95-6.53,0-3.72,2.45-6.46,5.83-6.46,4.39,0,5.74,4.1,5.62,7.1h-9.29c-.07,2.16,1.15,4.08,3.86,4.08,1.68,0,2.86-.82,3.22-2.42h2.02Zm-1.97-3.46c-.1-1.95-1.56-3.5-3.58-3.5-2.14,0-3.41,1.61-3.55,3.5h7.13Z"/>
    <path class="cls-7" d="m1437.76,364.94c.07,1.82,1.66,2.4,3.34,2.4,1.27,0,3-.29,3-1.85s-2.02-1.85-4.06-2.3c-2.02-.46-4.06-1.13-4.06-3.5,0-2.5,2.47-3.53,4.63-3.53,2.74,0,4.92.86,5.09,3.89h-2.04c-.14-1.58-1.54-2.09-2.88-2.09-1.22,0-2.64.34-2.64,1.58,0,1.46,2.16,1.7,4.06,2.16,2.04.46,4.06,1.13,4.06,3.53,0,2.95-2.76,3.91-5.28,3.91-2.79,0-5.14-1.13-5.26-4.2h2.04Z"/>
    <path class="cls-7" d="m1451.35,356.44h2.47v1.8h-2.47v7.71c0,.94.26,1.1,1.54,1.1h.94v1.8h-1.56c-2.11,0-2.95-.43-2.95-2.71v-7.9h-2.11v-1.8h2.11v-3.72h2.04v3.72Z"/>
    <path class="cls-7" d="m1456.07,356.44h1.92v1.82h.05c.91-1.39,2.3-2.11,4.01-2.11,1.51,0,2.9.6,3.41,2.11.84-1.32,2.3-2.11,3.89-2.11,2.47,0,4.13,1.03,4.13,3.6v9.1h-2.04v-8.14c0-1.54-.41-2.76-2.4-2.76s-3.24,1.25-3.24,3.17v7.73h-2.04v-8.14c0-1.61-.5-2.76-2.33-2.76-2.42,0-3.31,2.23-3.31,3.17v7.73h-2.04v-12.41Z"/>
    <path class="cls-7" d="m1487.13,364.92c-.55,2.74-2.52,4.22-5.3,4.22-3.96,0-5.83-2.74-5.95-6.53,0-3.72,2.45-6.46,5.83-6.46,4.39,0,5.74,4.1,5.62,7.1h-9.29c-.07,2.16,1.15,4.08,3.86,4.08,1.68,0,2.86-.82,3.22-2.42h2.02Zm-1.97-3.46c-.1-1.95-1.56-3.5-3.58-3.5-2.14,0-3.41,1.61-3.55,3.5h7.13Z"/>
    <path class="cls-7" d="m1489.43,356.44h1.92v1.97h.05c.86-1.54,2.26-2.26,4.03-2.26,3.26,0,4.27,1.87,4.27,4.54v8.16h-2.04v-8.4c0-1.51-.96-2.5-2.52-2.5-2.47,0-3.67,1.66-3.67,3.89v7.01h-2.04v-12.41Z"/>
    <path class="cls-7" d="m1505.61,356.44h2.47v1.8h-2.47v7.71c0,.94.26,1.1,1.54,1.1h.94v1.8h-1.56c-2.11,0-2.95-.43-2.95-2.71v-7.9h-2.11v-1.8h2.11v-3.72h2.04v3.72Z"/>
    <path class="cls-7" d="m1517.34,351.71h11.83v1.92h-9.55v5.45h8.9v1.92h-8.9v5.93h9.62v1.92h-11.91v-17.14Z"/>
    <path class="cls-7" d="m1531.67,356.44h1.92v1.97h.05c.86-1.54,2.26-2.26,4.03-2.26,3.26,0,4.27,1.87,4.27,4.54v8.16h-2.04v-8.4c0-1.51-.96-2.5-2.52-2.5-2.47,0-3.67,1.66-3.67,3.89v7.01h-2.04v-12.41Z"/>
    <path class="cls-7" d="m1547.85,356.44h2.47v1.8h-2.47v7.71c0,.94.26,1.1,1.54,1.1h.94v1.8h-1.56c-2.11,0-2.95-.43-2.95-2.71v-7.9h-2.11v-1.8h2.11v-3.72h2.04v3.72Z"/>
    <path class="cls-7" d="m1554.74,354.21h-2.04v-2.5h2.04v2.5Zm-2.04,2.23h2.04v12.41h-2.04v-12.41Z"/>
    <path class="cls-7" d="m1560.74,356.44h2.47v1.8h-2.47v7.71c0,.94.26,1.1,1.54,1.1h.94v1.8h-1.56c-2.11,0-2.95-.43-2.95-2.71v-7.9h-2.11v-1.8h2.11v-3.72h2.04v3.72Z"/>
    <path class="cls-7" d="m1567.62,354.21h-2.04v-2.5h2.04v2.5Zm-2.04,2.23h2.04v12.41h-2.04v-12.41Z"/>
    <path class="cls-7" d="m1581.38,364.92c-.55,2.74-2.52,4.22-5.3,4.22-3.96,0-5.83-2.74-5.95-6.53,0-3.72,2.45-6.46,5.83-6.46,4.39,0,5.74,4.1,5.62,7.1h-9.29c-.07,2.16,1.15,4.08,3.86,4.08,1.68,0,2.86-.82,3.22-2.42h2.02Zm-1.97-3.46c-.1-1.95-1.56-3.5-3.58-3.5-2.14,0-3.41,1.61-3.55,3.5h7.13Z"/>
    <path class="cls-7" d="m1584.93,364.94c.07,1.82,1.66,2.4,3.34,2.4,1.27,0,3-.29,3-1.85s-2.02-1.85-4.06-2.3c-2.02-.46-4.06-1.13-4.06-3.5,0-2.5,2.47-3.53,4.63-3.53,2.74,0,4.92.86,5.09,3.89h-2.04c-.14-1.58-1.54-2.09-2.88-2.09-1.22,0-2.64.34-2.64,1.58,0,1.46,2.16,1.7,4.06,2.16,2.04.46,4.06,1.13,4.06,3.53,0,2.95-2.76,3.91-5.28,3.91-2.79,0-5.14-1.13-5.26-4.2h2.04Z"/>
  </g>
  <g>
    <path class="cls-7" d="m1000.16,516.6c-.18-5.76,3.1-10.19,9.14-10.19,4.61,0,8.64,2.95,8.64,7.88,0,3.78-2.02,5.87-4.5,7.63s-5.44,3.2-7.27,5.79h11.92v4.39h-18.5c.04-5.83,3.6-8.32,7.96-11.27,2.23-1.51,5.25-3.06,5.29-6.16,0-2.38-1.58-3.89-3.78-3.89-3.02,0-4,3.13-4,5.79h-4.9Z"/>
    <path class="cls-7" d="m1021,526.57h5.65v5.54h-5.65v-5.54Z"/>
    <path class="cls-7" d="m1042.96,532.11h-5.11v-16.34h-6.33v-3.85c3.56.07,6.84-1.15,7.38-5h4.07v25.2Z"/>
    <path class="cls-7" d="m1057.69,506.41c4.46,0,5.9,3.31,5.9,7.27s-1.87,6.77-6.08,6.77c-4.43,0-5.94-2.95-5.94-6.91s1.91-7.13,6.12-7.13Zm-.14,11.34c2.23,0,2.38-2.59,2.38-4.1,0-1.4-.11-4.54-2.23-4.54-2.3,0-2.45,2.84-2.45,4.5,0,1.55,0,4.14,2.3,4.14Zm15.37-11.63h3.06l-14.83,26.78h-3.13l14.9-26.78Zm3.35,12.46c4.46,0,5.9,3.13,5.9,7.09s-1.87,6.95-6.08,6.95c-4.43,0-5.94-3.13-5.94-7.09s1.91-6.95,6.12-6.95Zm-.14,11.34c2.23,0,2.38-2.81,2.38-4.32,0-1.4-.11-4.32-2.23-4.32-2.3,0-2.45,2.63-2.45,4.28,0,1.55,0,4.36,2.3,4.36Z"/>
  </g>
  <g>
    <path class="cls-7" d="m1124.33,515.76h6.22c1.51,0,3.5,0,4.54.62,1.13.67,2.02,1.9,2.02,3.58,0,1.82-.96,3.19-2.54,3.84v.05c2.11.43,3.26,2.02,3.26,4.13,0,2.52-1.8,4.92-5.21,4.92h-8.28v-17.14Zm2.28,7.37h4.56c2.59,0,3.65-.94,3.65-2.74,0-2.38-1.68-2.71-3.65-2.71h-4.56v5.45Zm0,7.85h5.71c1.97,0,3.22-1.2,3.22-3.07,0-2.23-1.8-2.86-3.72-2.86h-5.21v5.93Z"/>
    <path class="cls-7" d="m1150.7,532.9h-1.92v-1.97h-.05c-.86,1.54-2.26,2.26-4.03,2.26-3.26,0-4.27-1.87-4.27-4.54v-8.16h2.04v8.4c0,1.51.96,2.5,2.52,2.5,2.47,0,3.67-1.66,3.67-3.89v-7.01h2.04v12.41Z"/>
    <path class="cls-7" d="m1153.7,520.49h1.92v2.62h.05c.98-1.99,2.35-2.98,4.56-2.9v2.16c-3.29,0-4.49,1.87-4.49,5.02v5.52h-2.04v-12.41Z"/>
    <path class="cls-7" d="m1162.2,520.49h1.92v1.97h.05c.86-1.54,2.26-2.26,4.03-2.26,3.26,0,4.27,1.87,4.27,4.54v8.16h-2.04v-8.4c0-1.51-.96-2.5-2.52-2.5-2.47,0-3.67,1.66-3.67,3.89v7.01h-2.04v-12.41Z"/>
    <path class="cls-7" d="m1186.13,528.96c-.55,2.74-2.52,4.22-5.3,4.22-3.96,0-5.83-2.74-5.95-6.53,0-3.72,2.45-6.46,5.83-6.46,4.39,0,5.74,4.1,5.62,7.11h-9.29c-.07,2.16,1.15,4.08,3.86,4.08,1.68,0,2.86-.82,3.22-2.42h2.02Zm-1.97-3.46c-.1-1.94-1.56-3.5-3.58-3.5-2.14,0-3.41,1.61-3.55,3.5h7.13Z"/>
    <path class="cls-7" d="m1199.52,532.9h-2.04v-1.68h-.05c-.67,1.37-2.26,1.97-3.96,1.97-3.82,0-5.71-3.02-5.71-6.53s1.87-6.46,5.66-6.46c1.27,0,3.1.48,4.01,1.94h.05v-6.38h2.04v17.14Zm-5.76-1.51c2.74,0,3.79-2.35,3.79-4.68,0-2.45-1.1-4.7-3.91-4.7s-3.72,2.38-3.72,4.8,1.2,4.58,3.84,4.58Z"/>
    <path class="cls-7" d="m1209.41,515.76h2.04v6.41h.05c.67-1.37,2.26-1.97,3.96-1.97,3.82,0,5.71,3.02,5.71,6.53s-1.87,6.46-5.66,6.46c-1.27,0-3.1-.48-4.01-1.94h-.05v1.66h-2.04v-17.14Zm5.76,6.24c-2.74,0-3.79,2.35-3.79,4.68,0,2.45,1.1,4.7,3.91,4.7s3.72-2.38,3.72-4.8-1.2-4.58-3.84-4.58Z"/>
    <path class="cls-7" d="m1234.56,532.85c-.36.22-.82.34-1.46.34-1.06,0-1.73-.58-1.73-1.92-1.13,1.32-2.64,1.92-4.37,1.92-2.26,0-4.1-1.01-4.1-3.48,0-2.81,2.09-3.41,4.2-3.82,2.26-.43,4.18-.29,4.18-1.82,0-1.78-1.46-2.06-2.76-2.06-1.73,0-3,.53-3.1,2.35h-2.04c.12-3.07,2.5-4.15,5.26-4.15,2.23,0,4.66.5,4.66,3.41v6.38c0,.96,0,1.39.65,1.39.17,0,.36-.02.62-.12v1.58Zm-3.31-6.36c-.79.58-2.33.6-3.7.84-1.34.24-2.5.72-2.5,2.23,0,1.34,1.15,1.82,2.4,1.82,2.69,0,3.79-1.68,3.79-2.81v-2.09Z"/>
    <path class="cls-7" d="m1244.88,524.48c-.31-1.56-1.39-2.47-3.07-2.47-2.95,0-3.86,2.33-3.86,4.85,0,2.28,1.03,4.54,3.62,4.54,1.97,0,3.14-1.15,3.41-3.02h2.09c-.46,3.02-2.35,4.82-5.47,4.82-3.79,0-5.81-2.64-5.81-6.34s1.92-6.65,5.86-6.65c2.81,0,5.06,1.32,5.35,4.27h-2.11Z"/>
    <path class="cls-7" d="m1249.46,515.76h2.04v10.15l5.66-5.42h2.74l-4.92,4.51,5.28,7.9h-2.59l-4.25-6.48-1.92,1.78v4.7h-2.04v-17.14Z"/>
    <path class="cls-7" d="m1272.38,528.96c-.55,2.74-2.52,4.22-5.3,4.22-3.96,0-5.83-2.74-5.95-6.53,0-3.72,2.45-6.46,5.83-6.46,4.39,0,5.74,4.1,5.62,7.11h-9.29c-.07,2.16,1.15,4.08,3.86,4.08,1.68,0,2.86-.82,3.22-2.42h2.02Zm-1.97-3.46c-.1-1.94-1.56-3.5-3.58-3.5-2.14,0-3.41,1.61-3.55,3.5h7.13Z"/>
    <path class="cls-7" d="m1274.61,520.49h1.92v2.62h.05c.98-1.99,2.35-2.98,4.56-2.9v2.16c-3.29,0-4.49,1.87-4.49,5.02v5.52h-2.04v-12.41Z"/>
    <path class="cls-7" d="m1292.18,520.49h2.47v1.8h-2.47v7.7c0,.94.26,1.1,1.54,1.1h.94v1.8h-1.56c-2.11,0-2.95-.43-2.95-2.71v-7.9h-2.11v-1.8h2.11v-3.72h2.04v3.72Z"/>
    <path class="cls-7" d="m1302.26,520.2c3.94,0,6.02,2.86,6.02,6.5s-2.09,6.48-6.02,6.48-6.02-2.86-6.02-6.48,2.09-6.5,6.02-6.5Zm0,11.19c2.14,0,3.86-1.68,3.86-4.68s-1.73-4.7-3.86-4.7-3.86,1.68-3.86,4.7,1.73,4.68,3.86,4.68Z"/>
    <path class="cls-7" d="m1310.8,515.76h2.04v10.15l5.66-5.42h2.74l-4.92,4.51,5.28,7.9h-2.59l-4.25-6.48-1.92,1.78v4.7h-2.04v-17.14Z"/>
    <path class="cls-7" d="m1333.72,528.96c-.55,2.74-2.52,4.22-5.3,4.22-3.96,0-5.83-2.74-5.95-6.53,0-3.72,2.45-6.46,5.83-6.46,4.39,0,5.74,4.1,5.62,7.11h-9.29c-.07,2.16,1.15,4.08,3.86,4.08,1.68,0,2.86-.82,3.22-2.42h2.02Zm-1.97-3.46c-.1-1.94-1.56-3.5-3.58-3.5-2.14,0-3.41,1.61-3.55,3.5h7.13Z"/>
    <path class="cls-7" d="m1336.03,520.49h1.92v1.97h.05c.86-1.54,2.26-2.26,4.03-2.26,3.26,0,4.27,1.87,4.27,4.54v8.16h-2.04v-8.4c0-1.51-.96-2.5-2.52-2.5-2.47,0-3.67,1.66-3.67,3.89v7.01h-2.04v-12.41Z"/>
    <path class="cls-7" d="m1350.62,528.99c.07,1.82,1.66,2.4,3.34,2.4,1.27,0,3-.29,3-1.85s-2.02-1.85-4.06-2.3c-2.02-.46-4.06-1.13-4.06-3.5,0-2.5,2.47-3.53,4.63-3.53,2.74,0,4.92.86,5.09,3.89h-2.04c-.14-1.58-1.54-2.09-2.88-2.09-1.22,0-2.64.34-2.64,1.58,0,1.46,2.16,1.7,4.06,2.16,2.04.46,4.06,1.13,4.06,3.53,0,2.95-2.76,3.91-5.28,3.91-2.79,0-5.14-1.13-5.26-4.2h2.04Z"/>
  </g>
  <g>
    <path class="cls-7" d="m1012.94,729.61h-5.11v-16.34h-6.33v-3.85c3.56.07,6.84-1.15,7.38-5h4.07v25.2Z"/>
    <path class="cls-7" d="m1032.81,710.89c-.32-1.69-1.62-3.13-3.38-3.13-3.71,0-4.68,4.86-4.82,7.67l.07.07c1.4-1.98,3.24-2.81,5.69-2.81,2.16,0,4.36,1.01,5.79,2.59,1.33,1.55,1.94,3.64,1.94,5.62,0,5.15-3.56,9.21-8.82,9.21-7.63,0-9.68-6.66-9.68-13.03s2.74-13.17,9.9-13.17c4.36,0,7.6,2.56,8.17,6.98h-4.86Zm-7.74,10.33c0,2.34,1.51,4.68,4.07,4.68s3.85-2.34,3.85-4.61-1.22-4.75-3.85-4.75-4.07,2.2-4.07,4.68Z"/>
    <path class="cls-7" d="m1041.02,724.06h5.65v5.54h-5.65v-5.54Z"/>
    <path class="cls-7" d="m1067.48,708.8c-5.29,4.61-8.17,14.07-8.24,20.81h-5.47c.58-7.45,3.67-14.69,8.46-20.45h-11.95v-4.75h17.21v4.39Z"/>
    <path class="cls-7" d="m1077.7,703.91c4.46,0,5.9,3.31,5.9,7.27s-1.87,6.77-6.08,6.77c-4.43,0-5.94-2.95-5.94-6.91s1.91-7.13,6.12-7.13Zm-.14,11.34c2.23,0,2.38-2.59,2.38-4.1,0-1.4-.11-4.54-2.23-4.54-2.3,0-2.45,2.84-2.45,4.5,0,1.55,0,4.14,2.3,4.14Zm15.37-11.63h3.06l-14.83,26.78h-3.13l14.9-26.78Zm3.35,12.46c4.46,0,5.9,3.13,5.9,7.09s-1.87,6.95-6.08,6.95c-4.43,0-5.94-3.13-5.94-7.09s1.91-6.95,6.12-6.95Zm-.14,11.34c2.23,0,2.38-2.81,2.38-4.32,0-1.4-.11-4.32-2.23-4.32-2.3,0-2.45,2.63-2.45,4.28,0,1.55,0,4.36,2.3,4.36Z"/>
  </g>
  <g>
    <path class="cls-7" d="m1124.33,713.26h11.26v1.92h-8.98v5.45h7.87v1.92h-7.87v7.85h-2.28v-17.14Z"/>
    <path class="cls-7" d="m1137.89,713.26h2.04v17.14h-2.04v-17.14Z"/>
    <path class="cls-7" d="m1154.09,730.35c-.36.22-.82.34-1.46.34-1.06,0-1.73-.58-1.73-1.92-1.13,1.32-2.64,1.92-4.37,1.92-2.26,0-4.1-1.01-4.1-3.48,0-2.81,2.09-3.41,4.2-3.82,2.26-.43,4.18-.29,4.18-1.82,0-1.78-1.46-2.06-2.76-2.06-1.73,0-3,.53-3.1,2.35h-2.04c.12-3.07,2.5-4.15,5.26-4.15,2.23,0,4.66.5,4.66,3.41v6.38c0,.96,0,1.39.65,1.39.17,0,.36-.02.62-.12v1.58Zm-3.31-6.36c-.79.58-2.33.6-3.7.84-1.34.24-2.5.72-2.5,2.23,0,1.34,1.15,1.82,2.4,1.82,2.69,0,3.79-1.68,3.79-2.81v-2.09Z"/>
    <path class="cls-7" d="m1155.91,717.99h1.92v2.62h.05c.98-1.99,2.35-2.98,4.56-2.9v2.16c-3.29,0-4.49,1.87-4.49,5.02v5.52h-2.04v-12.41Z"/>
    <path class="cls-7" d="m1174.13,726.46c-.55,2.74-2.52,4.22-5.3,4.22-3.96,0-5.83-2.74-5.95-6.53,0-3.72,2.45-6.46,5.83-6.46,4.39,0,5.74,4.1,5.62,7.1h-9.29c-.07,2.16,1.15,4.08,3.86,4.08,1.68,0,2.86-.82,3.22-2.42h2.02Zm-1.97-3.46c-.1-1.94-1.56-3.5-3.58-3.5-2.14,0-3.41,1.61-3.55,3.5h7.13Z"/>
    <path class="cls-7" d="m1187.33,715.18h-5.71v-1.92h13.71v1.92h-5.71v15.22h-2.28v-15.22Z"/>
    <path class="cls-7" d="m1204.8,726.46c-.55,2.74-2.52,4.22-5.3,4.22-3.96,0-5.83-2.74-5.95-6.53,0-3.72,2.45-6.46,5.83-6.46,4.39,0,5.74,4.1,5.62,7.1h-9.29c-.07,2.16,1.15,4.08,3.86,4.08,1.68,0,2.86-.82,3.22-2.42h2.02Zm-1.97-3.46c-.1-1.94-1.56-3.5-3.58-3.5-2.14,0-3.41,1.61-3.55,3.5h7.13Z"/>
    <path class="cls-7" d="m1218.09,730.35c-.36.22-.82.34-1.46.34-1.06,0-1.73-.58-1.73-1.92-1.13,1.32-2.64,1.92-4.37,1.92-2.26,0-4.1-1.01-4.1-3.48,0-2.81,2.09-3.41,4.2-3.82,2.26-.43,4.18-.29,4.18-1.82,0-1.78-1.46-2.06-2.76-2.06-1.73,0-3,.53-3.1,2.35h-2.04c.12-3.07,2.5-4.15,5.26-4.15,2.23,0,4.66.5,4.66,3.41v6.38c0,.96,0,1.39.65,1.39.17,0,.36-.02.62-.12v1.58Zm-3.31-6.36c-.79.58-2.33.6-3.7.84-1.34.24-2.5.72-2.5,2.23,0,1.34,1.15,1.82,2.4,1.82,2.69,0,3.79-1.68,3.79-2.81v-2.09Z"/>
    <path class="cls-7" d="m1219.99,717.99h1.92v1.82h.05c.91-1.39,2.3-2.11,4.01-2.11,1.51,0,2.9.6,3.41,2.11.84-1.32,2.3-2.11,3.89-2.11,2.47,0,4.13,1.03,4.13,3.6v9.1h-2.04v-8.14c0-1.54-.41-2.76-2.4-2.76s-3.24,1.25-3.24,3.17v7.73h-2.04v-8.14c0-1.61-.5-2.76-2.33-2.76-2.42,0-3.31,2.23-3.31,3.17v7.73h-2.04v-12.41Z"/>
    <path class="cls-7" d="m1240.92,727.73h2.66v2.42c0,1.8-.79,3.24-2.64,3.77v-1.2c1.08-.36,1.44-1.56,1.39-2.33h-1.42v-2.66Z"/>
    <path class="cls-7" d="m1264.8,730.35c-.36.22-.82.34-1.46.34-1.06,0-1.73-.58-1.73-1.92-1.13,1.32-2.64,1.92-4.37,1.92-2.26,0-4.1-1.01-4.1-3.48,0-2.81,2.09-3.41,4.2-3.82,2.26-.43,4.18-.29,4.18-1.82,0-1.78-1.46-2.06-2.76-2.06-1.73,0-3,.53-3.1,2.35h-2.04c.12-3.07,2.5-4.15,5.26-4.15,2.23,0,4.66.5,4.66,3.41v6.38c0,.96,0,1.39.65,1.39.17,0,.36-.02.62-.12v1.58Zm-3.31-6.36c-.79.58-2.33.6-3.7.84-1.34.24-2.5.72-2.5,2.23,0,1.34,1.15,1.82,2.4,1.82,2.69,0,3.79-1.68,3.79-2.81v-2.09Z"/>
    <path class="cls-7" d="m1277.78,730.4h-2.04v-1.68h-.05c-.67,1.37-2.26,1.97-3.96,1.97-3.82,0-5.71-3.02-5.71-6.53s1.87-6.46,5.66-6.46c1.27,0,3.1.48,4.01,1.94h.05v-6.38h2.04v17.14Zm-5.76-1.51c2.74,0,3.79-2.35,3.79-4.68,0-2.45-1.1-4.71-3.91-4.71s-3.72,2.38-3.72,4.8,1.2,4.58,3.84,4.58Z"/>
    <path class="cls-7" d="m1286.52,730.4h-2.18l-4.61-12.41h2.28l3.48,10.35h.05l3.38-10.35h2.14l-4.54,12.41Z"/>
    <path class="cls-7" d="m1295.08,715.76h-2.04v-2.5h2.04v2.5Zm-2.04,2.23h2.04v12.41h-2.04v-12.41Z"/>
    <path class="cls-7" d="m1299.5,726.49c.07,1.82,1.66,2.4,3.34,2.4,1.27,0,3-.29,3-1.85s-2.02-1.85-4.06-2.3c-2.02-.46-4.06-1.13-4.06-3.5,0-2.5,2.47-3.53,4.63-3.53,2.74,0,4.92.86,5.09,3.89h-2.04c-.14-1.58-1.54-2.09-2.88-2.09-1.22,0-2.64.34-2.64,1.58,0,1.46,2.16,1.71,4.06,2.16,2.04.46,4.06,1.13,4.06,3.53,0,2.95-2.76,3.91-5.28,3.91-2.79,0-5.14-1.13-5.26-4.2h2.04Z"/>
    <path class="cls-7" d="m1315.6,717.7c3.94,0,6.02,2.86,6.02,6.5s-2.09,6.48-6.02,6.48-6.02-2.86-6.02-6.48,2.09-6.5,6.02-6.5Zm0,11.18c2.14,0,3.86-1.68,3.86-4.68s-1.73-4.71-3.86-4.71-3.86,1.68-3.86,4.71,1.73,4.68,3.86,4.68Z"/>
    <path class="cls-7" d="m1323.96,717.99h1.92v2.62h.05c.98-1.99,2.35-2.98,4.56-2.9v2.16c-3.29,0-4.49,1.87-4.49,5.02v5.52h-2.04v-12.41Z"/>
    <path class="cls-7" d="m1333.27,726.49c.07,1.82,1.66,2.4,3.34,2.4,1.27,0,3-.29,3-1.85s-2.02-1.85-4.06-2.3c-2.02-.46-4.06-1.13-4.06-3.5,0-2.5,2.47-3.53,4.63-3.53,2.74,0,4.92.86,5.09,3.89h-2.04c-.14-1.58-1.54-2.09-2.88-2.09-1.22,0-2.64.34-2.64,1.58,0,1.46,2.16,1.71,4.06,2.16,2.04.46,4.06,1.13,4.06,3.53,0,2.95-2.76,3.91-5.28,3.91-2.79,0-5.14-1.13-5.26-4.2h2.04Z"/>
    <path class="cls-7" d="m1361.69,730.35c-.36.22-.82.34-1.46.34-1.06,0-1.73-.58-1.73-1.92-1.13,1.32-2.64,1.92-4.37,1.92-2.26,0-4.1-1.01-4.1-3.48,0-2.81,2.09-3.41,4.2-3.82,2.26-.43,4.18-.29,4.18-1.82,0-1.78-1.46-2.06-2.76-2.06-1.73,0-3,.53-3.1,2.35h-2.04c.12-3.07,2.5-4.15,5.26-4.15,2.23,0,4.66.5,4.66,3.41v6.38c0,.96,0,1.39.65,1.39.17,0,.36-.02.62-.12v1.58Zm-3.31-6.36c-.79.58-2.33.6-3.7.84-1.34.24-2.5.72-2.5,2.23,0,1.34,1.15,1.82,2.4,1.82,2.69,0,3.79-1.68,3.79-2.81v-2.09Z"/>
    <path class="cls-7" d="m1363.58,717.99h1.92v1.97h.05c.86-1.54,2.26-2.26,4.03-2.26,3.26,0,4.27,1.87,4.27,4.54v8.16h-2.04v-8.4c0-1.51-.96-2.5-2.52-2.5-2.47,0-3.67,1.66-3.67,3.89v7.01h-2.04v-12.41Z"/>
    <path class="cls-7" d="m1388.01,730.4h-2.04v-1.68h-.05c-.67,1.37-2.26,1.97-3.96,1.97-3.82,0-5.71-3.02-5.71-6.53s1.87-6.46,5.66-6.46c1.27,0,3.1.48,4.01,1.94h.05v-6.38h2.04v17.14Zm-5.76-1.51c2.74,0,3.79-2.35,3.79-4.68,0-2.45-1.1-4.71-3.91-4.71s-3.72,2.38-3.72,4.8,1.2,4.58,3.84,4.58Z"/>
    <path class="cls-7" d="m1408.41,726.46c-.55,2.74-2.52,4.22-5.3,4.22-3.96,0-5.83-2.74-5.95-6.53,0-3.72,2.45-6.46,5.83-6.46,4.39,0,5.74,4.1,5.62,7.1h-9.29c-.07,2.16,1.15,4.08,3.86,4.08,1.68,0,2.86-.82,3.22-2.42h2.02Zm-1.97-3.46c-.1-1.94-1.56-3.5-3.58-3.5-2.14,0-3.41,1.61-3.55,3.5h7.13Z"/>
    <path class="cls-7" d="m1421.71,730.35c-.36.22-.82.34-1.46.34-1.06,0-1.73-.58-1.73-1.92-1.13,1.32-2.64,1.92-4.37,1.92-2.26,0-4.1-1.01-4.1-3.48,0-2.81,2.09-3.41,4.2-3.82,2.26-.43,4.18-.29,4.18-1.82,0-1.78-1.46-2.06-2.76-2.06-1.73,0-3,.53-3.1,2.35h-2.04c.12-3.07,2.5-4.15,5.26-4.15,2.23,0,4.66.5,4.66,3.41v6.38c0,.96,0,1.39.65,1.39.17,0,.36-.02.62-.12v1.58Zm-3.31-6.36c-.79.58-2.33.6-3.7.84-1.34.24-2.5.72-2.5,2.23,0,1.34,1.15,1.82,2.4,1.82,2.69,0,3.79-1.68,3.79-2.81v-2.09Z"/>
    <path class="cls-7" d="m1423.53,717.99h1.92v2.62h.05c.98-1.99,2.35-2.98,4.56-2.9v2.16c-3.29,0-4.49,1.87-4.49,5.02v5.52h-2.04v-12.41Z"/>
    <path class="cls-7" d="m1431.71,713.26h2.04v17.14h-2.04v-17.14Z"/>
    <path class="cls-7" d="m1441.79,732.06c-.94,2.42-1.78,3.31-3.6,3.31-.48,0-.96-.05-1.42-.21v-1.87c.38.12.79.29,1.2.29.84,0,1.3-.41,1.68-1.13l.84-2.11-4.92-12.34h2.3l3.62,10.15h.05l3.48-10.15h2.16l-5.4,14.07Z"/>
    <path class="cls-7" d="m1455.67,713.26h2.04v6.41h.05c.67-1.37,2.26-1.97,3.96-1.97,3.82,0,5.71,3.02,5.71,6.53s-1.87,6.46-5.66,6.46c-1.27,0-3.1-.48-4.01-1.94h-.05v1.66h-2.04v-17.14Zm5.76,6.24c-2.74,0-3.79,2.35-3.79,4.68,0,2.45,1.1,4.7,3.91,4.7s3.72-2.38,3.72-4.8-1.2-4.58-3.84-4.58Z"/>
    <path class="cls-7" d="m1480.82,730.35c-.36.22-.82.34-1.46.34-1.06,0-1.73-.58-1.73-1.92-1.13,1.32-2.64,1.92-4.37,1.92-2.26,0-4.1-1.01-4.1-3.48,0-2.81,2.09-3.41,4.2-3.82,2.26-.43,4.18-.29,4.18-1.82,0-1.78-1.46-2.06-2.76-2.06-1.73,0-3,.53-3.1,2.35h-2.04c.12-3.07,2.5-4.15,5.26-4.15,2.23,0,4.66.5,4.66,3.41v6.38c0,.96,0,1.39.65,1.39.17,0,.36-.02.62-.12v1.58Zm-3.31-6.36c-.79.58-2.33.6-3.7.84-1.34.24-2.5.72-2.5,2.23,0,1.34,1.15,1.82,2.4,1.82,2.69,0,3.79-1.68,3.79-2.81v-2.09Z"/>
    <path class="cls-7" d="m1491.14,721.97c-.31-1.56-1.39-2.47-3.07-2.47-2.95,0-3.86,2.33-3.86,4.85,0,2.28,1.03,4.54,3.62,4.54,1.97,0,3.14-1.15,3.41-3.02h2.09c-.46,3.02-2.35,4.82-5.47,4.82-3.79,0-5.81-2.64-5.81-6.34s1.92-6.65,5.86-6.65c2.81,0,5.06,1.32,5.35,4.27h-2.11Z"/>
    <path class="cls-7" d="m1495.72,713.26h2.04v10.15l5.66-5.42h2.74l-4.92,4.51,5.28,7.9h-2.59l-4.25-6.48-1.92,1.78v4.7h-2.04v-17.14Z"/>
    <path class="cls-7" d="m1518.64,726.46c-.55,2.74-2.52,4.22-5.3,4.22-3.96,0-5.83-2.74-5.95-6.53,0-3.72,2.45-6.46,5.83-6.46,4.39,0,5.74,4.1,5.62,7.1h-9.29c-.07,2.16,1.15,4.08,3.86,4.08,1.68,0,2.86-.82,3.22-2.42h2.02Zm-1.97-3.46c-.1-1.94-1.56-3.5-3.58-3.5-2.14,0-3.41,1.61-3.55,3.5h7.13Z"/>
    <path class="cls-7" d="m1520.87,717.99h1.92v2.62h.05c.98-1.99,2.35-2.98,4.56-2.9v2.16c-3.29,0-4.49,1.87-4.49,5.02v5.52h-2.04v-12.41Z"/>
    <path class="cls-7" d="m1530.18,726.49c.07,1.82,1.66,2.4,3.34,2.4,1.27,0,3-.29,3-1.85s-2.02-1.85-4.06-2.3c-2.02-.46-4.06-1.13-4.06-3.5,0-2.5,2.47-3.53,4.63-3.53,2.74,0,4.92.86,5.09,3.89h-2.04c-.14-1.58-1.54-2.09-2.88-2.09-1.22,0-2.64.34-2.64,1.58,0,1.46,2.16,1.71,4.06,2.16,2.04.46,4.06,1.13,4.06,3.53,0,2.95-2.76,3.91-5.28,3.91-2.79,0-5.14-1.13-5.26-4.2h2.04Z"/>
  </g>
</svg>