<?xml version="1.0" encoding="UTF-8"?>
<svg id="Layer_2" data-name="Layer 2" xmlns="http://www.w3.org/2000/svg" viewBox="0 0 1369.37 747.63">
  <defs>
    <style>
      .cls-1, .cls-2 {
        fill: #fff;
      }

      .cls-3 {
        fill: #e7125e;
      }

      .cls-3, .cls-4, .cls-5, .cls-6, .cls-2, .cls-7 {
        stroke: #fff;
        stroke-miterlimit: 10;
      }

      .cls-3, .cls-5, .cls-7 {
        stroke-width: 7.52px;
      }

      .cls-4 {
        fill: none;
        stroke-width: 2px;
      }

      .cls-5 {
        fill: #ec417e;
      }

      .cls-6 {
        fill: #f5a4b8;
        stroke-width: 7.5px;
      }

      .cls-7 {
        fill: #f1719e;
      }
    </style>
  </defs>
  <g id="Layer_1-2" data-name="Layer 1">
    <g id="Layer_1-2" data-name="Layer 1-2">
      <g>
        <g>
          <polyline class="cls-4" points="395.88 408.18 543.81 296.99 751.36 296.99"/>
          <path class="cls-2" d="m750.98,304.51c4.15,0,7.52-3.37,7.52-7.52s-3.37-7.52-7.52-7.52-7.52,3.37-7.52,7.52,3.37,7.52,7.52,7.52Z"/>
        </g>
        <g>
          <polyline class="cls-4" points="173.21 292.54 227.64 139.29 744.12 139.29"/>
          <path class="cls-2" d="m746.78,146.67c5.29,1.01,9.86-3.56,8.85-8.85-.56-2.96-2.95-5.34-5.91-5.91-5.29-1.01-9.86,3.56-8.85,8.85.56,2.96,2.95,5.34,5.91,5.91Z"/>
        </g>
        <g>
          <polyline class="cls-4" points="395.88 600 547.74 658.91 744.81 658.91"/>
          <path class="cls-2" d="m744.43,666.43c4.15,0,7.52-3.37,7.52-7.52s-3.37-7.52-7.52-7.52-7.52,3.37-7.52,7.52,3.37,7.52,7.52,7.52Z"/>
        </g>
        <g>
          <line class="cls-4" x1="436.46" y1="485.98" x2="751.36" y2="485.98"/>
          <path class="cls-2" d="m750.98,493.5c4.15,0,7.52-3.37,7.52-7.52s-3.37-7.52-7.52-7.52-7.52,3.37-7.52,7.52,3.37,7.52,7.52,7.52Z"/>
        </g>
        <g>
          <path class="cls-5" d="m507.19,503.71c-2.63,56.3-21.72,106.6-54.76,146.99-21.43,26.2-48.72,48.23-81.19,65.01l-70.51-136.44c32.4-14.84,55.97-45.66,60.64-82.36l145.82,6.8Z"/>
          <path class="cls-3" d="m371.24,715.71c-41.02,21.2-81.23,29.99-127.36,27.84C104.94,737.06-2.44,619.17,4.04,480.23c5.21-111.66,82.37-202.94,184.59-231.11,24.97-6.89,51.44-10,78.72-8.73h.01l-6.43,137.81h-.01c-1.34-.05-2.69-.08-4.05-.08-58.18,0-105.35,47.17-105.35,105.35s47.17,105.35,105.35,105.35c15.65,0,30.51-3.41,43.86-9.55l70.51,136.44Z"/>
          <path class="cls-7" d="m506.38,468.58l-144.18,13.45c-.74-56.16-45.45-101.72-101.27-103.83h-.01l6.43-137.81h.01c92.21,4.31,170.07,55.57,210.46,131.73,15.36,28.96,25.3,61.51,28.56,96.46Z"/>
          <path class="cls-6" d="m507.2,503.71h-.01l-145.82-6.8h0c.56-4.41.85-8.89.85-13.44,0-.48,0-.96-.02-1.44l144.18-13.45h.01c.54,5.77.87,11.58,1.01,17.4.14,5.92.07,11.85-.2,17.73Z"/>
        </g>
        <g>
          <path class="cls-1" d="m923.17,136.53c-.48-2.42-2.42-3.65-4.8-3.65-4.08,0-5.81,3.36-5.81,6.94,0,3.91,1.73,7.18,5.83,7.18,3,0,4.73-2.11,4.94-4.94h2.28c-.43,4.27-3.1,6.86-7.42,6.86-5.33,0-7.92-3.94-7.92-8.93s2.83-9.03,8.11-9.03c3.58,0,6.53,1.92,7.06,5.57h-2.28,0Z"/>
          <path class="cls-1" d="m933.47,135.81c-3.93,0-6.02,2.89-6.02,6.51s2.09,6.48,6.02,6.48,6.02-2.83,6.02-6.48-2.08-6.51-6.02-6.51Zm0,11.19c-2.13,0-3.86-1.65-3.86-4.68s1.73-4.71,3.86-4.71,3.86,1.71,3.86,4.71-1.72,4.68-3.86,4.68Z"/>
          <path class="cls-1" d="m941.89,136.1h1.92v1.82h.05c.91-1.39,2.3-2.11,4.01-2.11,1.51,0,2.9.6,3.41,2.11.84-1.32,2.3-2.11,3.89-2.11,2.47,0,4.13,1.03,4.13,3.6v9.1h-2.04v-8.14c0-1.54-.41-2.76-2.4-2.76s-3.24,1.25-3.24,3.17v7.73h-2.04v-8.14c0-1.61-.5-2.76-2.33-2.76-2.42,0-3.31,2.23-3.31,3.17v7.73h-2.04v-12.41h-.01Z"/>
          <path class="cls-1" d="m962.36,136.1h1.92v1.82h.05c.91-1.39,2.3-2.11,4.01-2.11,1.51,0,2.9.6,3.41,2.11.84-1.32,2.3-2.11,3.89-2.11,2.47,0,4.13,1.03,4.13,3.6v9.1h-2.04v-8.14c0-1.54-.41-2.76-2.4-2.76s-3.24,1.25-3.24,3.17v7.73h-2.04v-8.14c0-1.61-.5-2.76-2.33-2.76-2.42,0-3.31,2.23-3.31,3.17v7.73h-2.04v-12.41h-.01Z"/>
          <path class="cls-1" d="m993.11,148.51h-1.92v-1.97h-.05c-.86,1.54-2.26,2.26-4.03,2.26-3.26,0-4.27-1.87-4.27-4.54v-8.16h2.04v8.4c0,1.51.96,2.5,2.52,2.5,2.47,0,3.67-1.66,3.67-3.89v-7.01h2.04v12.41h0Z"/>
          <path class="cls-1" d="m996.18,136.1h1.92v1.97h.05c.86-1.54,2.26-2.26,4.03-2.26,3.26,0,4.27,1.87,4.27,4.54v8.16h-2.04v-8.4c0-1.51-.96-2.5-2.52-2.5-2.47,0-3.67,1.66-3.67,3.89v7.01h-2.04v-12.41h0Z"/>
          <path class="cls-1" d="m1009.64,136.1v12.41h2.04v-12.41h-2.04Zm0-4.73v2.5h2.04v-2.5h-2.04Z"/>
          <path class="cls-1" d="m1017.68,136.1h2.47v1.8h-2.47v7.7c0,.94.26,1.1,1.54,1.1h.94v1.8h-1.56c-2.11,0-2.95-.43-2.95-2.71v-7.9h-2.11v-1.8h2.11v-3.72h2.04v3.72h0Z"/>
          <path class="cls-1" d="m1027.28,150.17c-.94,2.42-1.78,3.31-3.6,3.31-.48,0-.96-.05-1.42-.22v-1.87c.38.12.79.29,1.2.29.84,0,1.3-.41,1.68-1.13l.84-2.11-4.92-12.34h2.3l3.62,10.15h.05l3.48-10.15h2.16l-5.4,14.06h.01Z"/>
          <path class="cls-1" d="m1041.42,131.37h11.26v1.92h-8.98v5.45h7.87v1.92h-7.87v7.85h-2.28v-17.14h0Z"/>
          <path class="cls-1" d="m1055.19,131.37h2.28v15.22h9.07v1.92h-11.35v-17.14Z"/>
          <path class="cls-1" d="m1081.4,143.78c-.17-1.68-.58-3.15-2.57-3.53v-.05c2.07-.57,2.98-2.28,2.98-4.34,0-2.74-1.99-4.49-5.21-4.49h-8.06v17.14h2.28v-7.32h5.57c2.21,0,2.62,1.42,2.86,3.1.33,1.68-.03,3.52.62,4.22h2.54c-.96-1.18-.87-3.05-1.01-4.73Zm-5.83-4.51h-4.75v-5.98h5.66c2.14,0,3.05,1.25,3.05,2.93,0,2.5-1.82,3.05-3.96,3.05Z"/>
          <path class="cls-1" d="m1101.7,147c-.65,0-.65-.43-.65-1.39v-6.38c0-2.91-2.43-3.41-4.66-3.41-2.76,0-5.14,1.08-5.26,4.15h2.04c.1-1.82,1.37-2.35,3.1-2.35,1.3,0,2.76.28,2.76,2.06,0,1.53-1.92,1.39-4.18,1.82-2.11.41-4.2,1.01-4.2,3.82,0,2.47,1.84,3.48,4.1,3.48,1.73,0,3.24-.6,4.37-1.92,0,1.34.67,1.92,1.73,1.92.64,0,1.1-.13,1.46-.34h0v-1.58c-.26.1-.45.12-.62.12Zm-2.71-4.89v2.07c0,1.13-1.1,2.81-3.79,2.81-1.25,0-2.4-.48-2.4-1.82,0-1.51,1.16-1.99,2.5-2.23,1.36-.24,2.9-.26,3.69-.83v-.02h.01s-.01.01-.01.02Z"/>
          <path class="cls-1" d="m1104.32,131.37h2.04v17.14h-2.04v-17.14Z"/>
          <path class="cls-1" d="m1109.65,131.37h2.04v17.14h-2.04v-17.14Z"/>
          <path class="cls-1" d="m1120.21,135.81c-3.93,0-6.02,2.89-6.02,6.51s2.09,6.48,6.02,6.48,6.02-2.83,6.02-6.48-2.08-6.51-6.02-6.51Zm0,11.19c-2.13,0-3.86-1.65-3.86-4.68s1.73-4.71,3.86-4.71,3.86,1.71,3.86,4.71-1.72,4.68-3.86,4.68Z"/>
          <path class="cls-1" d="m1137.06,140.09c-.31-1.56-1.39-2.47-3.07-2.47-2.95,0-3.86,2.33-3.86,4.85,0,2.28,1.03,4.54,3.62,4.54,1.97,0,3.14-1.15,3.41-3.02h2.09c-.46,3.02-2.35,4.83-5.47,4.83-3.79,0-5.81-2.64-5.81-6.34s1.92-6.65,5.86-6.65c2.81,0,5.06,1.32,5.35,4.27h-2.12Z"/>
          <path class="cls-1" d="m1151.9,147c-.65,0-.65-.43-.65-1.39v-6.38c0-2.91-2.43-3.41-4.66-3.41-2.76,0-5.14,1.08-5.26,4.15h2.04c.1-1.82,1.37-2.35,3.1-2.35,1.3,0,2.76.28,2.76,2.06,0,1.53-1.92,1.39-4.18,1.82-2.11.41-4.2,1.01-4.2,3.82,0,2.47,1.84,3.48,4.1,3.48,1.73,0,3.24-.6,4.37-1.92,0,1.34.67,1.92,1.73,1.92.64,0,1.1-.13,1.46-.34h.01v-1.58c-.26.1-.45.12-.62.12Zm-2.71-4.89v2.07c0,1.13-1.1,2.81-3.79,2.81-1.25,0-2.4-.48-2.4-1.82,0-1.51,1.16-1.99,2.5-2.23,1.36-.24,2.9-.26,3.69-.83v-.02h.01s-.01.01-.01.02Z"/>
          <path class="cls-1" d="m1157.24,136.1h2.47v1.8h-2.47v7.7c0,.94.26,1.1,1.54,1.1h.94v1.8h-1.56c-2.11,0-2.95-.43-2.95-2.71v-7.9h-2.11v-1.8h2.11v-3.72h2.04v3.72h-.01Z"/>
          <path class="cls-1" d="m1162.09,136.1v12.41h2.04v-12.41h-2.04Zm0-4.73v2.5h2.04v-2.5h-2.04Z"/>
          <path class="cls-1" d="m1172.65,135.81c-3.93,0-6.02,2.89-6.02,6.51s2.09,6.48,6.02,6.48,6.02-2.83,6.02-6.48-2.08-6.51-6.02-6.51Zm0,11.19c-2.13,0-3.86-1.65-3.86-4.68s1.73-4.71,3.86-4.71,3.86,1.71,3.86,4.71-1.72,4.68-3.86,4.68Z"/>
          <path class="cls-1" d="m1181.07,136.1h1.92v1.97h.05c.86-1.54,2.26-2.26,4.03-2.26,3.26,0,4.27,1.87,4.27,4.54v8.16h-2.04v-8.4c0-1.51-.96-2.5-2.52-2.5-2.47,0-3.67,1.66-3.67,3.89v7.01h-2.04v-12.41Z"/>
        </g>
        <g>
          <path class="cls-1" d="m786.83,296.84c-.18-5.76,3.1-10.19,9.14-10.19,4.61,0,8.64,2.95,8.64,7.88,0,3.78-2.02,5.87-4.5,7.63-2.48,1.76-5.44,3.2-7.27,5.79h11.92v4.39h-18.5c.04-5.83,3.6-8.31,7.96-11.27,2.23-1.51,5.25-3.06,5.29-6.16,0-2.38-1.58-3.89-3.78-3.89-3.02,0-4,3.13-4,5.8h-4.9v.02Z"/>
          <path class="cls-1" d="m806.84,296.84c-.18-5.76,3.1-10.19,9.14-10.19,4.61,0,8.64,2.95,8.64,7.88,0,3.78-2.02,5.87-4.5,7.63-2.48,1.76-5.44,3.2-7.27,5.79h11.92v4.39h-18.5c.04-5.83,3.6-8.31,7.96-11.27,2.23-1.51,5.25-3.06,5.29-6.16,0-2.38-1.58-3.89-3.78-3.89-3.02,0-4,3.13-4,5.8h-4.9v.02Z"/>
          <path class="cls-1" d="m827.69,306.81h5.65v5.54h-5.65v-5.54Z"/>
          <path class="cls-1" d="m845.1,286.66c-5.26,0-8.82,4.06-8.82,9.21,0,1.98.61,4.07,1.94,5.62,1.44,1.58,3.64,2.59,5.8,2.59,2.45,0,4.29-.83,5.69-2.81l.07.07c-.14,2.81-1.11,7.67-4.82,7.67-1.76,0-3.06-1.44-3.38-3.13h-4.87c.58,4.42,3.81,6.98,8.17,6.98,7.16,0,9.9-6.8,9.9-13.17s-2.05-13.03-9.68-13.03Zm.15,13.57c-2.63,0-3.85-2.48-3.85-4.75s1.29-4.61,3.85-4.61,4.07,2.34,4.07,4.68c0,2.48-1.44,4.68-4.07,4.68Z"/>
          <path class="cls-1" d="m882.95,298.82c-4.21,0-6.12,2.99-6.12,6.95s1.51,7.09,5.94,7.09,6.08-2.99,6.08-6.95-1.44-7.09-5.9-7.09Zm-.14,11.34c-2.3,0-2.3-2.81-2.3-4.36,0-1.65.15-4.28,2.45-4.28,2.12,0,2.23,2.92,2.23,4.32,0,1.51-.15,4.32-2.38,4.32Zm-3.21-23.79l-14.9,26.78h3.13l14.83-26.78h-3.06Zm-15.23.29c-4.21,0-6.12,3.17-6.12,7.13s1.51,6.91,5.94,6.91,6.08-2.81,6.08-6.77-1.44-7.27-5.9-7.27Zm-.14,11.34c-2.3,0-2.3-2.59-2.3-4.14,0-1.66.15-4.5,2.45-4.5,2.12,0,2.23,3.14,2.23,4.54,0,1.51-.15,4.1-2.38,4.1Z"/>
        </g>
        <g>
          <path class="cls-1" d="m910.27,291.25h11.26v1.92h-8.98v5.45h7.87v1.92h-7.87v7.85h-2.28v-17.14Z"/>
          <path class="cls-1" d="m923.83,291.25h2.04v17.14h-2.04v-17.14Z"/>
          <path class="cls-1" d="m939.42,306.88c-.65,0-.65-.43-.65-1.39v-6.38c0-2.91-2.43-3.41-4.66-3.41-2.76,0-5.14,1.08-5.26,4.15h2.04c.1-1.82,1.37-2.35,3.1-2.35,1.3,0,2.76.28,2.76,2.06,0,1.53-1.92,1.39-4.18,1.82-2.11.41-4.2,1.01-4.2,3.82,0,2.47,1.84,3.48,4.1,3.48,1.73,0,3.24-.6,4.37-1.92,0,1.34.67,1.92,1.73,1.92.64,0,1.1-.12,1.46-.34h.01v-1.58c-.26.1-.45.12-.62.12Zm-2.71-4.89v2.07c0,1.13-1.1,2.81-3.79,2.81-1.25,0-2.4-.48-2.4-1.82,0-1.51,1.16-1.99,2.5-2.23,1.36-.24,2.9-.26,3.69-.83v-.02h0s0,.01,0,.02Z"/>
          <path class="cls-1" d="m941.86,295.98h1.92v2.62h.05c.98-1.99,2.35-2.98,4.56-2.9v2.16c-3.29,0-4.49,1.87-4.49,5.02v5.52h-2.04v-12.41h0Z"/>
          <path class="cls-1" d="m954.65,295.68c-3.38,0-5.83,2.74-5.83,6.46.12,3.79,1.99,6.53,5.95,6.53,2.78,0,4.75-1.48,5.3-4.22h.01s-2.02,0-2.02,0c-.36,1.6-1.54,2.42-3.22,2.42-2.71,0-3.93-1.92-3.86-4.08h9.29c.12-3-1.23-7.1-5.62-7.1Zm-3.68,5.31c.14-1.89,1.41-3.5,3.55-3.5,2.02,0,3.48,1.55,3.58,3.5h-7.13Z"/>
          <path class="cls-1" d="m975.26,291.25h-5.88v17.14h5.88c5.71,0,8.23-3.46,8.23-8.98s-2.95-8.16-8.23-8.16Zm.19,15.22h-3.79v-13.3h3.84c4.2,0,5.71,2.47,5.71,6.55,0,6.32-4.2,6.75-5.76,6.75Z"/>
          <path class="cls-1" d="m991.11,295.68c-3.38,0-5.83,2.74-5.83,6.46.12,3.79,1.99,6.53,5.95,6.53,2.78,0,4.75-1.48,5.3-4.22h.01s-2.02,0-2.02,0c-.36,1.6-1.54,2.42-3.22,2.42-2.71,0-3.93-1.92-3.86-4.08h9.29c.12-3-1.23-7.1-5.62-7.1Zm-3.68,5.31c.14-1.89,1.41-3.5,3.55-3.5,2.02,0,3.48,1.55,3.58,3.5h-7.13Z"/>
          <path class="cls-1" d="m1004.42,308.39h-2.18l-4.61-12.41h2.28l3.48,10.35h.05l3.38-10.35h2.14l-4.54,12.41h0Z"/>
          <path class="cls-1" d="m1016,295.68c-3.38,0-5.83,2.74-5.83,6.46.12,3.79,1.99,6.53,5.95,6.53,2.78,0,4.75-1.48,5.3-4.22h.01s-2.02,0-2.02,0c-.36,1.6-1.54,2.42-3.22,2.42-2.71,0-3.93-1.92-3.86-4.08h9.29c.12-3-1.23-7.1-5.62-7.1Zm-3.68,5.31c.14-1.89,1.41-3.5,3.55-3.5,2.02,0,3.48,1.55,3.58,3.5h-7.13Z"/>
          <path class="cls-1" d="m1023.84,291.25h2.04v17.14h-2.04v-17.14Z"/>
          <path class="cls-1" d="m1034.4,295.69c-3.93,0-6.02,2.88-6.02,6.5s2.09,6.48,6.02,6.48,6.02-2.84,6.02-6.48-2.08-6.5-6.02-6.5Zm0,11.18c-2.13,0-3.86-1.66-3.86-4.68s1.73-4.7,3.86-4.7,3.86,1.7,3.86,4.7-1.72,4.68-3.86,4.68Z"/>
          <path class="cls-1" d="m1048.94,295.69c-1.7,0-3.29.6-3.96,1.97h-.05v-1.68h-2.04v17.17h2.04v-6.41h.05c.91,1.46,2.74,1.94,4.01,1.94,3.79,0,5.66-2.95,5.66-6.46s-1.89-6.53-5.71-6.53Zm-.17,11.18c-2.81,0-3.91-2.25-3.91-4.7s1.05-4.68,3.79-4.68,3.84,2.16,3.84,4.58-.91,4.8-3.72,4.8Z"/>
          <path class="cls-1" d="m1057.05,295.98h1.92v1.82h.05c.91-1.39,2.3-2.11,4.01-2.11,1.51,0,2.9.6,3.41,2.11.84-1.32,2.3-2.11,3.89-2.11,2.47,0,4.13,1.03,4.13,3.6v9.1h-2.04v-8.14c0-1.54-.41-2.76-2.4-2.76s-3.24,1.25-3.24,3.17v7.73h-2.04v-8.14c0-1.61-.5-2.76-2.33-2.76-2.42,0-3.31,2.23-3.31,3.17v7.73h-2.04v-12.41h-.01Z"/>
          <path class="cls-1" d="m1082.69,295.68c-3.38,0-5.83,2.74-5.83,6.46.12,3.79,1.99,6.53,5.95,6.53,2.78,0,4.75-1.48,5.3-4.22h.01s-2.02,0-2.02,0c-.36,1.6-1.54,2.42-3.22,2.42-2.71,0-3.93-1.92-3.86-4.08h9.29c.12-3-1.23-7.1-5.62-7.1Zm-3.68,5.31c.14-1.89,1.41-3.5,3.55-3.5,2.02,0,3.48,1.55,3.58,3.5h-7.13Z"/>
          <path class="cls-1" d="m1090.41,295.98h1.92v1.97h.05c.86-1.54,2.26-2.26,4.03-2.26,3.26,0,4.27,1.87,4.27,4.54v8.16h-2.04v-8.4c0-1.51-.96-2.5-2.52-2.5-2.47,0-3.67,1.66-3.67,3.89v7.01h-2.04v-12.41Z"/>
          <path class="cls-1" d="m1106.59,295.98h2.47v1.8h-2.47v7.71c0,.94.26,1.1,1.54,1.1h.94v1.8h-1.56c-2.11,0-2.95-.43-2.95-2.71v-7.9h-2.11v-1.8h2.11v-3.72h2.04v3.72h-.01Z"/>
          <path class="cls-1" d="m1131.26,306.88c-.65,0-.65-.43-.65-1.39v-6.38c0-2.91-2.43-3.41-4.66-3.41-2.76,0-5.14,1.08-5.26,4.15h2.04c.1-1.82,1.37-2.35,3.1-2.35,1.3,0,2.76.28,2.76,2.06,0,1.53-1.92,1.39-4.18,1.82-2.11.41-4.2,1.01-4.2,3.82,0,2.47,1.84,3.48,4.1,3.48,1.73,0,3.24-.6,4.37-1.92,0,1.34.67,1.92,1.73,1.92.64,0,1.1-.12,1.46-.34h.01v-1.58c-.26.1-.45.12-.62.12Zm-2.71-4.89v2.07c0,1.13-1.1,2.81-3.79,2.81-1.25,0-2.4-.48-2.4-1.82,0-1.51,1.16-1.99,2.5-2.23,1.36-.24,2.9-.26,3.69-.83v-.02h.01s-.01.01-.01.02Z"/>
          <path class="cls-1" d="m1133.77,295.98h1.92v1.97h.05c.86-1.54,2.26-2.26,4.03-2.26,3.26,0,4.27,1.87,4.27,4.54v8.16h-2.04v-8.4c0-1.51-.96-2.5-2.52-2.5-2.47,0-3.67,1.66-3.67,3.89v7.01h-2.04v-12.41Z"/>
          <path class="cls-1" d="m1156.16,291.25v6.38h-.05c-.91-1.46-2.74-1.94-4.01-1.94-3.79,0-5.66,2.95-5.66,6.46s1.89,6.53,5.71,6.53c1.7,0,3.29-.6,3.96-1.97h.05v1.68h2.04v-17.14h-2.04Zm-3.72,15.63c-2.64,0-3.84-2.16-3.84-4.58s.91-4.8,3.72-4.8,3.91,2.25,3.91,4.7-1.05,4.68-3.79,4.68Z"/>
          <path class="cls-1" d="m1168.44,291.25h2.28v17.14h-2.28v-17.14Z"/>
          <path class="cls-1" d="m1174.23,295.98h1.92v1.97h.05c.86-1.54,2.26-2.26,4.03-2.26,3.26,0,4.27,1.87,4.27,4.54v8.16h-2.04v-8.4c0-1.51-.96-2.5-2.52-2.5-2.47,0-3.67,1.66-3.67,3.89v7.01h-2.04v-12.41Z"/>
          <path class="cls-1" d="m1193.16,308.39h-2.18l-4.61-12.41h2.28l3.48,10.35h.05l3.38-10.35h2.14l-4.54,12.41Z"/>
          <path class="cls-1" d="m1204.74,295.68c-3.38,0-5.83,2.74-5.83,6.46.12,3.79,1.99,6.53,5.95,6.53,2.78,0,4.75-1.48,5.3-4.22h.01s-2.02,0-2.02,0c-.36,1.6-1.54,2.42-3.22,2.42-2.71,0-3.93-1.92-3.86-4.08h9.29c.12-3-1.23-7.1-5.62-7.1Zm-3.68,5.31c.14-1.89,1.41-3.5,3.55-3.5,2.02,0,3.48,1.55,3.58,3.5h-7.13Z"/>
          <path class="cls-1" d="m1213.71,304.48c.07,1.82,1.66,2.4,3.34,2.4,1.27,0,3-.29,3-1.85s-2.02-1.85-4.06-2.3c-2.02-.46-4.06-1.13-4.06-3.5,0-2.5,2.47-3.53,4.63-3.53,2.74,0,4.92.86,5.09,3.89h-2.04c-.14-1.58-1.54-2.09-2.88-2.09-1.22,0-2.64.34-2.64,1.58,0,1.46,2.16,1.7,4.06,2.16,2.04.46,4.06,1.13,4.06,3.53,0,2.95-2.76,3.91-5.28,3.91-2.79,0-5.14-1.13-5.26-4.2h2.04Z"/>
          <path class="cls-1" d="m1227.29,295.98h2.47v1.8h-2.47v7.71c0,.94.26,1.1,1.54,1.1h.94v1.8h-1.56c-2.11,0-2.95-.43-2.95-2.71v-7.9h-2.11v-1.8h2.11v-3.72h2.04v3.72h-.01Z"/>
          <path class="cls-1" d="m1232.02,295.98h1.92v1.82h.05c.91-1.39,2.3-2.11,4.01-2.11,1.51,0,2.9.6,3.41,2.11.84-1.32,2.3-2.11,3.89-2.11,2.47,0,4.13,1.03,4.13,3.6v9.1h-2.04v-8.14c0-1.54-.41-2.76-2.4-2.76s-3.24,1.25-3.24,3.17v7.73h-2.04v-8.14c0-1.61-.5-2.76-2.33-2.76-2.42,0-3.31,2.23-3.31,3.17v7.73h-2.04v-12.41h-.01Z"/>
          <path class="cls-1" d="m1257.66,295.68c-3.38,0-5.83,2.74-5.83,6.46.12,3.79,1.99,6.53,5.95,6.53,2.78,0,4.75-1.48,5.3-4.22h.01s-2.02,0-2.02,0c-.36,1.6-1.54,2.42-3.22,2.42-2.71,0-3.93-1.92-3.86-4.08h9.29c.12-3-1.23-7.1-5.62-7.1Zm-3.68,5.31c.14-1.89,1.41-3.5,3.55-3.5,2.02,0,3.48,1.55,3.58,3.5h-7.13Z"/>
          <path class="cls-1" d="m1265.38,295.98h1.92v1.97h.05c.86-1.54,2.26-2.26,4.03-2.26,3.26,0,4.27,1.87,4.27,4.54v8.16h-2.04v-8.4c0-1.51-.96-2.5-2.52-2.5-2.47,0-3.67,1.66-3.67,3.89v7.01h-2.04v-12.41Z"/>
          <path class="cls-1" d="m1281.56,295.98h2.47v1.8h-2.47v7.71c0,.94.26,1.1,1.54,1.1h.94v1.8h-1.56c-2.11,0-2.95-.43-2.95-2.71v-7.9h-2.11v-1.8h2.11v-3.72h2.04v3.72h-.01Z"/>
          <path class="cls-1" d="m1293.29,291.25h11.83v1.92h-9.55v5.45h8.9v1.92h-8.9v5.93h9.62v1.92h-11.91v-17.14h.01Z"/>
          <path class="cls-1" d="m1307.62,295.98h1.92v1.97h.05c.86-1.54,2.26-2.26,4.03-2.26,3.26,0,4.27,1.87,4.27,4.54v8.16h-2.04v-8.4c0-1.51-.96-2.5-2.52-2.5-2.47,0-3.67,1.66-3.67,3.89v7.01h-2.04v-12.41Z"/>
          <path class="cls-1" d="m1323.79,295.98h2.47v1.8h-2.47v7.71c0,.94.26,1.1,1.54,1.1h.94v1.8h-1.56c-2.11,0-2.95-.43-2.95-2.71v-7.9h-2.11v-1.8h2.11v-3.72h2.04v3.72h-.01Z"/>
          <path class="cls-1" d="m1328.64,295.98v12.41h2.04v-12.41h-2.04Zm0-4.73v2.5h2.04v-2.5h-2.04Z"/>
          <path class="cls-1" d="m1336.68,295.98h2.47v1.8h-2.47v7.71c0,.94.26,1.1,1.54,1.1h.94v1.8h-1.56c-2.11,0-2.95-.43-2.95-2.71v-7.9h-2.11v-1.8h2.11v-3.72h2.04v3.72h-.01Z"/>
          <path class="cls-1" d="m1341.53,295.98v12.41h2.04v-12.41h-2.04Zm0-4.73v2.5h2.04v-2.5h-2.04Z"/>
          <path class="cls-1" d="m1351.9,295.68c-3.38,0-5.83,2.74-5.83,6.46.12,3.79,1.99,6.53,5.95,6.53,2.78,0,4.75-1.48,5.3-4.22h.01s-2.02,0-2.02,0c-.36,1.6-1.54,2.42-3.22,2.42-2.71,0-3.93-1.92-3.86-4.08h9.29c.12-3-1.23-7.1-5.62-7.1Zm-3.68,5.31c.14-1.89,1.41-3.5,3.55-3.5,2.02,0,3.48,1.55,3.58,3.5h-7.13Z"/>
          <path class="cls-1" d="m1360.87,304.48c.07,1.82,1.66,2.4,3.34,2.4,1.27,0,3-.29,3-1.85s-2.02-1.85-4.06-2.3c-2.02-.46-4.06-1.13-4.06-3.5,0-2.5,2.47-3.53,4.63-3.53,2.74,0,4.92.86,5.09,3.89h-2.04c-.14-1.58-1.54-2.09-2.88-2.09-1.22,0-2.64.34-2.64,1.58,0,1.46,2.16,1.7,4.06,2.16,2.04.46,4.06,1.13,4.06,3.53,0,2.95-2.76,3.91-5.28,3.91-2.79,0-5.14-1.13-5.26-4.2h2.04Z"/>
        </g>
        <g>
          <path class="cls-1" d="m786.83,481.95c-.18-5.76,3.1-10.19,9.14-10.19,4.61,0,8.64,2.95,8.64,7.88,0,3.78-2.02,5.87-4.5,7.63-2.48,1.76-5.44,3.2-7.27,5.79h11.92v4.39h-18.5c.04-5.83,3.6-8.32,7.96-11.27,2.23-1.51,5.25-3.06,5.29-6.16,0-2.38-1.58-3.89-3.78-3.89-3.02,0-4,3.13-4,5.79h-4.9v.03Z"/>
          <path class="cls-1" d="m807.67,491.92h5.65v5.54h-5.65v-5.54Z"/>
          <path class="cls-1" d="m829.63,497.47h-5.11v-16.34h-6.33v-3.85c3.56.07,6.84-1.15,7.38-5h4.07v25.2h-.01Z"/>
          <path class="cls-1" d="m862.93,483.94c-4.21,0-6.12,2.99-6.12,6.95s1.51,7.09,5.94,7.09,6.08-2.99,6.08-6.95-1.44-7.09-5.9-7.09Zm-.14,11.34c-2.3,0-2.3-2.81-2.3-4.36,0-1.65.15-4.28,2.45-4.28,2.12,0,2.23,2.92,2.23,4.32,0,1.51-.15,4.32-2.38,4.32Zm-3.21-23.8l-14.9,26.78h3.13l14.83-26.78h-3.06Zm-15.23.29c-4.21,0-6.12,3.17-6.12,7.13s1.51,6.91,5.94,6.91,6.08-2.81,6.08-6.77-1.44-7.27-5.9-7.27Zm-.14,11.34c-2.3,0-2.3-2.59-2.3-4.14,0-1.66.15-4.5,2.45-4.5,2.12,0,2.23,3.14,2.23,4.54,0,1.51-.15,4.1-2.38,4.1Z"/>
        </g>
        <g>
          <path class="cls-1" d="m920.5,488.92v-.05c1.58-.65,2.54-2.02,2.54-3.84,0-1.68-.89-2.91-2.02-3.58-1.04-.62-3.03-.62-4.54-.62h-6.21v17.14h8.28c3.41,0,5.21-2.4,5.21-4.92,0-2.11-1.15-3.7-3.26-4.13Zm-7.96-6.17h4.56c1.97,0,3.65.33,3.65,2.71,0,1.8-1.06,2.74-3.65,2.74h-4.56v-5.45Zm5.71,13.3h-5.71v-5.93h5.21c1.92,0,3.72.63,3.72,2.86,0,1.87-1.25,3.07-3.22,3.07Z"/>
          <path class="cls-1" d="m936.64,497.97h-1.92v-1.97h-.05c-.86,1.54-2.26,2.26-4.03,2.26-3.26,0-4.27-1.87-4.27-4.54v-8.16h2.04v8.4c0,1.51.96,2.5,2.52,2.5,2.47,0,3.67-1.66,3.67-3.89v-7.01h2.04v12.41h0Z"/>
          <path class="cls-1" d="m939.64,485.56h1.92v2.62h.05c.98-1.99,2.35-2.98,4.56-2.9v2.16c-3.29,0-4.49,1.87-4.49,5.02v5.52h-2.04v-12.41h0Z"/>
          <path class="cls-1" d="m948.13,485.56h1.92v1.97h.05c.86-1.54,2.26-2.26,4.03-2.26,3.26,0,4.27,1.87,4.27,4.54v8.16h-2.04v-8.4c0-1.51-.96-2.5-2.52-2.5-2.47,0-3.67,1.66-3.67,3.89v7.01h-2.04v-12.41h0Z"/>
          <path class="cls-1" d="m966.64,485.26c-3.38,0-5.83,2.74-5.83,6.46.12,3.79,1.99,6.53,5.95,6.53,2.78,0,4.75-1.48,5.3-4.22h-2.01c-.36,1.6-1.54,2.42-3.22,2.42-2.71,0-3.93-1.92-3.86-4.08h9.29c.12-3.01-1.23-7.11-5.62-7.11Zm-3.68,5.31c.14-1.89,1.41-3.5,3.55-3.5,2.02,0,3.48,1.56,3.58,3.5h-7.13Z"/>
          <path class="cls-1" d="m983.42,480.83v6.38h-.05c-.91-1.46-2.74-1.94-4.01-1.94-3.79,0-5.66,2.95-5.66,6.46s1.89,6.53,5.71,6.53c1.7,0,3.29-.6,3.96-1.97h.05v1.68h2.04v-17.14h-2.04Zm-3.72,15.63c-2.64,0-3.84-2.16-3.84-4.58s.91-4.8,3.72-4.8,3.91,2.25,3.91,4.7-1.05,4.68-3.79,4.68Z"/>
          <path class="cls-1" d="m1001.39,485.27c-1.7,0-3.29.6-3.96,1.97h-.05v-6.41h-2.04v17.15h2.04v-1.66h.05c.91,1.46,2.74,1.94,4.01,1.94,3.79,0,5.66-2.95,5.66-6.46s-1.89-6.53-5.71-6.53Zm-.17,11.18c-2.81,0-3.91-2.25-3.91-4.7s1.05-4.68,3.79-4.68,3.84,2.16,3.84,4.58-.91,4.8-3.72,4.8Z"/>
          <path class="cls-1" d="m1019.88,496.46c-.65,0-.65-.43-.65-1.39v-6.38c0-2.91-2.43-3.41-4.66-3.41-2.76,0-5.14,1.08-5.26,4.15h2.04c.1-1.82,1.37-2.35,3.1-2.35,1.3,0,2.76.28,2.76,2.06,0,1.53-1.92,1.39-4.18,1.82-2.11.41-4.2,1.01-4.2,3.82,0,2.47,1.84,3.48,4.1,3.48,1.73,0,3.24-.6,4.37-1.92,0,1.34.67,1.92,1.73,1.92.64,0,1.1-.12,1.46-.34h.01v-1.58c-.26.1-.45.12-.62.12Zm-2.71-4.89v2.07c0,1.13-1.1,2.81-3.79,2.81-1.25,0-2.4-.48-2.4-1.82,0-1.51,1.16-1.99,2.5-2.23,1.36-.24,2.9-.26,3.69-.83v-.02h.01s-.01.01-.01.02Z"/>
          <path class="cls-1" d="m1030.81,489.54c-.31-1.56-1.39-2.47-3.07-2.47-2.95,0-3.86,2.33-3.86,4.85,0,2.28,1.03,4.54,3.62,4.54,1.97,0,3.14-1.15,3.41-3.02h2.09c-.46,3.02-2.35,4.82-5.47,4.82-3.79,0-5.81-2.64-5.81-6.34s1.92-6.65,5.86-6.65c2.81,0,5.06,1.32,5.35,4.27h-2.12Z"/>
          <path class="cls-1" d="m1035.4,480.83h2.04v10.15l5.66-5.42h2.74l-4.92,4.51,5.28,7.9h-2.59l-4.25-6.48-1.92,1.78v4.7h-2.04v-17.14Z"/>
          <path class="cls-1" d="m1052.9,485.26c-3.38,0-5.83,2.74-5.83,6.46.12,3.79,1.99,6.53,5.95,6.53,2.78,0,4.75-1.48,5.3-4.22h-2.01c-.36,1.6-1.54,2.42-3.22,2.42-2.71,0-3.93-1.92-3.86-4.08h9.29c.12-3.01-1.23-7.11-5.62-7.11Zm-3.68,5.31c.14-1.89,1.41-3.5,3.55-3.5,2.02,0,3.48,1.56,3.58,3.5h-7.13Z"/>
          <path class="cls-1" d="m1060.55,485.56h1.92v2.62h.05c.98-1.99,2.35-2.98,4.56-2.9v2.16c-3.29,0-4.49,1.87-4.49,5.02v5.52h-2.04v-12.41h0Z"/>
          <path class="cls-1" d="m1078.12,485.56h2.47v1.8h-2.47v7.7c0,.94.26,1.1,1.54,1.1h.94v1.8h-1.56c-2.11,0-2.95-.43-2.95-2.71v-7.9h-2.11v-1.8h2.11v-3.72h2.04v3.72h-.01Z"/>
          <path class="cls-1" d="m1088.2,485.27c-3.93,0-6.02,2.88-6.02,6.5s2.09,6.48,6.02,6.48,6.02-2.84,6.02-6.48-2.08-6.5-6.02-6.5Zm0,11.19c-2.13,0-3.86-1.66-3.86-4.68s1.73-4.7,3.86-4.7,3.86,1.7,3.86,4.7-1.72,4.68-3.86,4.68Z"/>
          <path class="cls-1" d="m1096.74,480.83h2.04v10.15l5.66-5.42h2.74l-4.92,4.51,5.28,7.9h-2.59l-4.25-6.48-1.92,1.78v4.7h-2.04v-17.14Z"/>
          <path class="cls-1" d="m1114.24,485.26c-3.38,0-5.83,2.74-5.83,6.46.12,3.79,1.99,6.53,5.95,6.53,2.78,0,4.75-1.48,5.3-4.22h-2.01c-.36,1.6-1.54,2.42-3.22,2.42-2.71,0-3.93-1.92-3.86-4.08h9.29c.12-3.01-1.23-7.11-5.62-7.11Zm-3.68,5.31c.14-1.89,1.41-3.5,3.55-3.5,2.02,0,3.48,1.56,3.58,3.5h-7.13Z"/>
          <path class="cls-1" d="m1121.96,485.56h1.92v1.97h.05c.86-1.54,2.26-2.26,4.03-2.26,3.26,0,4.27,1.87,4.27,4.54v8.16h-2.04v-8.4c0-1.51-.96-2.5-2.52-2.5-2.47,0-3.67,1.66-3.67,3.89v7.01h-2.04v-12.41h0Z"/>
          <path class="cls-1" d="m1136.56,494.05c.07,1.82,1.66,2.4,3.34,2.4,1.27,0,3-.29,3-1.85s-2.02-1.85-4.06-2.3c-2.02-.46-4.06-1.13-4.06-3.5,0-2.5,2.47-3.53,4.63-3.53,2.74,0,4.92.86,5.09,3.89h-2.04c-.14-1.58-1.54-2.09-2.88-2.09-1.22,0-2.64.34-2.64,1.58,0,1.46,2.16,1.7,4.06,2.16,2.04.46,4.06,1.13,4.06,3.53,0,2.95-2.76,3.91-5.28,3.91-2.79,0-5.14-1.13-5.26-4.2h2.04Z"/>
        </g>
        <g>
          <path class="cls-1" d="m797.7,670.88h-5.11v-16.34h-6.33v-3.85c3.56.07,6.84-1.15,7.38-5h4.07v25.2h-.01Z"/>
          <path class="cls-1" d="m820.92,656.56c-1.43-1.58-3.63-2.59-5.79-2.59-2.45,0-4.29.83-5.69,2.81l-.07-.07c.14-2.81,1.11-7.67,4.82-7.67,1.76,0,3.06,1.44,3.38,3.13h4.86c-.57-4.42-3.81-6.98-8.17-6.98-7.16,0-9.9,6.8-9.9,13.17s2.05,13.03,9.68,13.03c5.26,0,8.82-4.06,8.82-9.21,0-1.98-.61-4.07-1.94-5.62Zm-7.02,10.62c-2.56,0-4.07-2.34-4.07-4.68,0-2.48,1.44-4.68,4.07-4.68s3.85,2.48,3.85,4.75-1.29,4.61-3.85,4.61Z"/>
          <path class="cls-1" d="m825.78,665.34h5.65v5.54h-5.65v-5.54Z"/>
          <path class="cls-1" d="m852.23,650.08c-5.29,4.61-8.17,14.07-8.24,20.81h-5.47c.58-7.45,3.67-14.69,8.46-20.45h-11.95v-4.75h17.21v4.39h-.01Z"/>
          <path class="cls-1" d="m881.04,657.35c-4.21,0-6.12,2.99-6.12,6.95s1.51,7.09,5.94,7.09,6.08-2.99,6.08-6.95-1.44-7.09-5.9-7.09Zm-.14,11.34c-2.3,0-2.3-2.81-2.3-4.36,0-1.65.15-4.28,2.45-4.28,2.12,0,2.23,2.92,2.23,4.32,0,1.51-.15,4.32-2.38,4.32Zm-3.21-23.8l-14.9,26.78h3.13l14.83-26.78h-3.06Zm-15.23.29c-4.21,0-6.12,3.17-6.12,7.13s1.51,6.91,5.94,6.91,6.08-2.81,6.08-6.77-1.44-7.27-5.9-7.27Zm-.14,11.34c-2.3,0-2.3-2.59-2.3-4.14,0-1.66.15-4.5,2.45-4.5,2.12,0,2.23,3.14,2.23,4.54,0,1.51-.15,4.1-2.38,4.1Z"/>
        </g>
        <g>
          <path class="cls-1" d="m910.27,649.57h11.26v1.92h-8.98v5.45h7.87v1.92h-7.87v7.85h-2.28v-17.14h0Z"/>
          <path class="cls-1" d="m923.83,649.57h2.04v17.14h-2.04v-17.14Z"/>
          <path class="cls-1" d="m939.42,665.2c-.65,0-.65-.43-.65-1.39v-6.38c0-2.91-2.43-3.41-4.66-3.41-2.76,0-5.14,1.08-5.26,4.15h2.04c.1-1.82,1.37-2.35,3.1-2.35,1.3,0,2.76.28,2.76,2.06,0,1.53-1.92,1.39-4.18,1.82-2.11.41-4.2,1.01-4.2,3.82,0,2.47,1.84,3.48,4.1,3.48,1.73,0,3.24-.6,4.37-1.92,0,1.34.67,1.92,1.73,1.92.64,0,1.1-.12,1.46-.34h.01v-1.58c-.26.1-.45.12-.62.12Zm-2.71-4.89v2.07c0,1.13-1.1,2.81-3.79,2.81-1.25,0-2.4-.48-2.4-1.82,0-1.51,1.16-1.99,2.5-2.23,1.36-.24,2.9-.26,3.69-.83v-.02h0s0,.01,0,.02Z"/>
          <path class="cls-1" d="m941.86,654.3h1.92v2.62h.05c.98-1.99,2.35-2.98,4.56-2.9v2.16c-3.29,0-4.49,1.87-4.49,5.02v5.52h-2.04v-12.41h0Z"/>
          <path class="cls-1" d="m954.65,654c-3.38,0-5.83,2.74-5.83,6.46.12,3.79,1.99,6.53,5.95,6.53,2.78,0,4.75-1.48,5.3-4.22h.01s-2.02,0-2.02,0c-.36,1.6-1.54,2.42-3.22,2.42-2.71,0-3.93-1.92-3.86-4.08h9.29c.12-3-1.23-7.1-5.62-7.1Zm-3.68,5.31c.14-1.89,1.41-3.5,3.55-3.5,2.02,0,3.48,1.56,3.58,3.5h-7.13Z"/>
          <path class="cls-1" d="m973.27,651.49h-5.71v-1.92h13.71v1.92h-5.71v15.22h-2.28v-15.22h0Z"/>
          <path class="cls-1" d="m985.32,654c-3.38,0-5.83,2.74-5.83,6.46.12,3.79,1.99,6.53,5.95,6.53,2.78,0,4.75-1.48,5.3-4.22h.01s-2.02,0-2.02,0c-.36,1.6-1.54,2.42-3.22,2.42-2.71,0-3.93-1.92-3.86-4.08h9.29c.12-3-1.23-7.1-5.62-7.1Zm-3.68,5.31c.14-1.89,1.41-3.5,3.55-3.5,2.02,0,3.48,1.56,3.58,3.5h-7.13Z"/>
          <path class="cls-1" d="m1003.43,665.2c-.65,0-.65-.43-.65-1.39v-6.38c0-2.91-2.43-3.41-4.66-3.41-2.76,0-5.14,1.08-5.26,4.15h2.04c.1-1.82,1.37-2.35,3.1-2.35,1.3,0,2.76.28,2.76,2.06,0,1.53-1.92,1.39-4.18,1.82-2.11.41-4.2,1.01-4.2,3.82,0,2.47,1.84,3.48,4.1,3.48,1.73,0,3.24-.6,4.37-1.92,0,1.34.67,1.92,1.73,1.92.64,0,1.1-.12,1.46-.34h.01v-1.58c-.26.1-.45.12-.62.12Zm-2.71-4.89v2.07c0,1.13-1.1,2.81-3.79,2.81-1.25,0-2.4-.48-2.4-1.82,0-1.51,1.16-1.99,2.5-2.23,1.36-.24,2.9-.26,3.69-.83v-.02h.01s-.01.01-.01.02Z"/>
          <path class="cls-1" d="m1005.93,654.3h1.92v1.82h.05c.91-1.39,2.3-2.11,4.01-2.11,1.51,0,2.9.6,3.41,2.11.84-1.32,2.3-2.11,3.89-2.11,2.47,0,4.13,1.03,4.13,3.6v9.1h-2.04v-8.14c0-1.54-.41-2.76-2.4-2.76s-3.24,1.25-3.24,3.17v7.73h-2.04v-8.14c0-1.61-.5-2.76-2.33-2.76-2.42,0-3.31,2.23-3.31,3.17v7.73h-2.04v-12.41h-.01Z"/>
          <path class="cls-1" d="m1026.86,664.04h2.66v2.42c0,1.8-.79,3.24-2.64,3.77v-1.2c1.08-.36,1.44-1.56,1.39-2.33h-1.42v-2.66h.01Z"/>
          <path class="cls-1" d="m1050.13,665.2c-.65,0-.65-.43-.65-1.39v-6.38c0-2.91-2.43-3.41-4.66-3.41-2.76,0-5.14,1.08-5.26,4.15h2.04c.1-1.82,1.37-2.35,3.1-2.35,1.3,0,2.76.28,2.76,2.06,0,1.53-1.92,1.39-4.18,1.82-2.11.41-4.2,1.01-4.2,3.82,0,2.47,1.84,3.48,4.1,3.48,1.73,0,3.24-.6,4.37-1.92,0,1.34.67,1.92,1.73,1.92.64,0,1.1-.12,1.46-.34h.01v-1.58c-.26.1-.45.12-.62.12Zm-2.71-4.89v2.07c0,1.13-1.1,2.81-3.79,2.81-1.25,0-2.4-.48-2.4-1.82,0-1.51,1.16-1.99,2.5-2.23,1.36-.24,2.9-.26,3.69-.83v-.02h.01s-.01.01-.01.02Z"/>
          <path class="cls-1" d="m1061.69,649.56v6.38h-.05c-.91-1.46-2.74-1.94-4.01-1.94-3.79,0-5.66,2.95-5.66,6.46s1.89,6.53,5.71,6.53c1.7,0,3.29-.6,3.96-1.97h.05v1.68h2.04v-17.14h-2.04Zm-3.72,15.63h0c-2.64-.01-3.84-2.17-3.84-4.59s.91-4.8,3.72-4.8,3.91,2.26,3.91,4.71-1.05,4.68-3.79,4.68Z"/>
          <path class="cls-1" d="m1072.46,666.7h-2.18l-4.61-12.41h2.28l3.48,10.35h.05l3.38-10.35h2.14l-4.54,12.41Z"/>
          <path class="cls-1" d="m1078.99,654.29v12.41h2.04v-12.41h-2.04Zm0-4.73v2.5h2.04v-2.5h-2.04Z"/>
          <path class="cls-1" d="m1085.45,662.79c.07,1.82,1.66,2.4,3.34,2.4,1.27,0,3-.29,3-1.85s-2.02-1.85-4.06-2.3c-2.02-.46-4.06-1.13-4.06-3.5,0-2.5,2.47-3.53,4.63-3.53,2.74,0,4.92.86,5.09,3.89h-2.04c-.14-1.58-1.54-2.09-2.88-2.09-1.22,0-2.64.34-2.64,1.58,0,1.46,2.16,1.71,4.06,2.16,2.04.46,4.06,1.13,4.06,3.53,0,2.95-2.76,3.91-5.28,3.91-2.79,0-5.14-1.13-5.26-4.2h2.04Z"/>
          <path class="cls-1" d="m1101.55,654.01c-3.93,0-6.02,2.88-6.02,6.5s2.09,6.48,6.02,6.48,6.02-2.84,6.02-6.48-2.08-6.5-6.02-6.5Zm0,11.18c-2.13,0-3.86-1.65-3.86-4.68s1.73-4.71,3.86-4.71,3.86,1.71,3.86,4.71-1.72,4.68-3.86,4.68Z"/>
          <path class="cls-1" d="m1109.9,654.3h1.92v2.62h.05c.98-1.99,2.35-2.98,4.56-2.9v2.16c-3.29,0-4.49,1.87-4.49,5.02v5.52h-2.04v-12.41h0Z"/>
          <path class="cls-1" d="m1119.21,662.79c.07,1.82,1.66,2.4,3.34,2.4,1.27,0,3-.29,3-1.85s-2.02-1.85-4.06-2.3c-2.02-.46-4.06-1.13-4.06-3.5,0-2.5,2.47-3.53,4.63-3.53,2.74,0,4.92.86,5.09,3.89h-2.04c-.14-1.58-1.54-2.09-2.88-2.09-1.22,0-2.64.34-2.64,1.58,0,1.46,2.16,1.71,4.06,2.16,2.04.46,4.06,1.13,4.06,3.53,0,2.95-2.76,3.91-5.28,3.91-2.79,0-5.14-1.13-5.26-4.2h2.04Z"/>
          <path class="cls-1" d="m1147.02,665.2c-.65,0-.65-.43-.65-1.39v-6.38c0-2.91-2.43-3.41-4.66-3.41-2.76,0-5.14,1.08-5.26,4.15h2.04c.1-1.82,1.37-2.35,3.1-2.35,1.3,0,2.76.28,2.76,2.06,0,1.53-1.92,1.39-4.18,1.82-2.11.41-4.2,1.01-4.2,3.82,0,2.47,1.84,3.48,4.1,3.48,1.73,0,3.24-.6,4.37-1.92,0,1.34.67,1.92,1.73,1.92.64,0,1.1-.12,1.46-.34h.01v-1.58c-.26.1-.45.12-.62.12Zm-2.71-4.89v2.07c0,1.13-1.1,2.81-3.79,2.81-1.25,0-2.4-.48-2.4-1.82,0-1.51,1.16-1.99,2.5-2.23,1.36-.24,2.9-.26,3.69-.83v-.02h.01s-.01.01-.01.02Z"/>
          <path class="cls-1" d="m1149.52,654.3h1.92v1.97h.05c.86-1.54,2.26-2.26,4.03-2.26,3.26,0,4.27,1.87,4.27,4.54v8.16h-2.04v-8.4c0-1.51-.96-2.5-2.52-2.5-2.47,0-3.67,1.66-3.67,3.89v7.01h-2.04v-12.41h0Z"/>
          <path class="cls-1" d="m1171.92,649.56v6.38h-.05c-.91-1.46-2.74-1.94-4.01-1.94-3.79,0-5.66,2.95-5.66,6.46s1.89,6.53,5.71,6.53c1.7,0,3.29-.6,3.96-1.97h.05v1.68h2.04v-17.14h-2.04Zm-3.72,15.63h0c-2.64-.01-3.84-2.17-3.84-4.59s.91-4.8,3.72-4.8,3.91,2.26,3.91,4.71-1.05,4.68-3.79,4.68Z"/>
          <path class="cls-1" d="m1188.94,654c-3.38,0-5.83,2.74-5.83,6.46.12,3.79,1.99,6.53,5.95,6.53,2.78,0,4.75-1.48,5.3-4.22h.01s-2.02,0-2.02,0c-.36,1.6-1.54,2.42-3.22,2.42-2.71,0-3.93-1.92-3.86-4.08h9.29c.12-3-1.23-7.1-5.62-7.1Zm-3.68,5.31c.14-1.89,1.41-3.5,3.55-3.5,2.02,0,3.48,1.56,3.58,3.5h-7.13Z"/>
          <path class="cls-1" d="m1207.04,665.2c-.65,0-.65-.43-.65-1.39v-6.38c0-2.91-2.43-3.41-4.66-3.41-2.76,0-5.14,1.08-5.26,4.15h2.04c.1-1.82,1.37-2.35,3.1-2.35,1.3,0,2.76.28,2.76,2.06,0,1.53-1.92,1.39-4.18,1.82-2.11.41-4.2,1.01-4.2,3.82,0,2.47,1.84,3.48,4.1,3.48,1.73,0,3.24-.6,4.37-1.92,0,1.34.67,1.92,1.73,1.92.64,0,1.1-.12,1.46-.34h.01v-1.58c-.26.1-.45.12-.62.12Zm-2.71-4.89v2.07c0,1.13-1.1,2.81-3.79,2.81-1.25,0-2.4-.48-2.4-1.82,0-1.51,1.16-1.99,2.5-2.23,1.36-.24,2.9-.26,3.69-.83v-.02h.01s-.01.01-.01.02Z"/>
          <path class="cls-1" d="m1209.48,654.3h1.92v2.62h.05c.98-1.99,2.35-2.98,4.56-2.9v2.16c-3.29,0-4.49,1.87-4.49,5.02v5.52h-2.04v-12.41h0Z"/>
          <path class="cls-1" d="m1217.66,649.57h2.04v17.14h-2.04v-17.14Z"/>
          <path class="cls-1" d="m1227.74,668.36c-.94,2.42-1.78,3.31-3.6,3.31-.48,0-.96-.05-1.42-.21v-1.87c.38.12.79.29,1.2.29.84,0,1.3-.41,1.68-1.13l.84-2.11-4.92-12.34h2.3l3.62,10.15h.05l3.48-10.15h2.16l-5.4,14.07h.01Z"/>
          <path class="cls-1" d="m1247.66,654.01c-1.7,0-3.29.6-3.96,1.97h-.05v-6.41h-2.04v17.15h2.04v-1.66h.05c.91,1.46,2.74,1.94,4.01,1.94,3.79,0,5.66-2.95,5.66-6.46s-1.89-6.53-5.71-6.53Zm-.17,11.18c-2.81,0-3.91-2.25-3.91-4.7s1.05-4.68,3.79-4.68,3.84,2.16,3.84,4.58-.91,4.8-3.72,4.8Z"/>
          <path class="cls-1" d="m1266.16,665.2c-.65,0-.65-.43-.65-1.39v-6.38c0-2.91-2.43-3.41-4.66-3.41-2.76,0-5.14,1.08-5.26,4.15h2.04c.1-1.82,1.37-2.35,3.1-2.35,1.3,0,2.76.28,2.76,2.06,0,1.53-1.92,1.39-4.18,1.82-2.11.41-4.2,1.01-4.2,3.82,0,2.47,1.84,3.48,4.1,3.48,1.73,0,3.24-.6,4.37-1.92,0,1.34.67,1.92,1.73,1.92.64,0,1.1-.12,1.46-.34h0v-1.58c-.26.1-.45.12-.62.12Zm-2.71-4.89v2.07c0,1.13-1.1,2.81-3.79,2.81-1.25,0-2.4-.48-2.4-1.82,0-1.51,1.16-1.99,2.5-2.23,1.36-.24,2.9-.26,3.69-.83v-.02h.01s-.01.01-.01.02Z"/>
          <path class="cls-1" d="m1277.08,658.28c-.31-1.56-1.39-2.47-3.07-2.47-2.95,0-3.86,2.33-3.86,4.85,0,2.28,1.03,4.54,3.62,4.54,1.97,0,3.14-1.15,3.41-3.02h2.09c-.46,3.02-2.35,4.82-5.47,4.82-3.79,0-5.81-2.64-5.81-6.34s1.92-6.65,5.86-6.65c2.81,0,5.06,1.32,5.35,4.27h-2.12Z"/>
          <path class="cls-1" d="m1281.67,649.57h2.04v10.15l5.66-5.42h2.74l-4.92,4.51,5.28,7.9h-2.59l-4.25-6.48-1.92,1.78v4.7h-2.04v-17.14h0Z"/>
          <path class="cls-1" d="m1299.17,654c-3.38,0-5.83,2.74-5.83,6.46.12,3.79,1.99,6.53,5.95,6.53,2.78,0,4.75-1.48,5.3-4.22h.01s-2.02,0-2.02,0c-.36,1.6-1.54,2.42-3.22,2.42-2.71,0-3.93-1.92-3.86-4.08h9.29c.12-3-1.23-7.1-5.62-7.1Zm-3.68,5.31c.14-1.89,1.41-3.5,3.55-3.5,2.02,0,3.48,1.56,3.58,3.5h-7.13Z"/>
          <path class="cls-1" d="m1306.82,654.3h1.92v2.62h.05c.98-1.99,2.35-2.98,4.56-2.9v2.16c-3.29,0-4.49,1.87-4.49,5.02v5.52h-2.04v-12.41h0Z"/>
          <path class="cls-1" d="m1316.13,662.79c.07,1.82,1.66,2.4,3.34,2.4,1.27,0,3-.29,3-1.85s-2.02-1.85-4.06-2.3c-2.02-.46-4.06-1.13-4.06-3.5,0-2.5,2.47-3.53,4.63-3.53,2.74,0,4.92.86,5.09,3.89h-2.04c-.14-1.58-1.54-2.09-2.88-2.09-1.22,0-2.64.34-2.64,1.58,0,1.46,2.16,1.71,4.06,2.16,2.04.46,4.06,1.13,4.06,3.53,0,2.95-2.76,3.91-5.28,3.91-2.79,0-5.14-1.13-5.26-4.2h2.04Z"/>
        </g>
        <g>
          <path class="cls-1" d="m803.62,131.7h-10.4l-1.01,5.72.07.07c1.37-1.4,2.95-1.94,4.93-1.94,4.97,0,7.77,3.85,7.77,8.57,0,5.18-4.28,9.18-9.36,9.07-4.9,0-9.29-2.7-9.36-7.99h5.11c.25,2.23,1.91,3.78,4.14,3.78,2.66,0,4.36-2.34,4.36-4.86s-1.62-4.72-4.36-4.72c-1.84,0-2.84.65-3.85,2.02h-4.61l2.48-13.93h14.07v4.21h.02Z"/>
          <path class="cls-1" d="m820.43,139.12v-.07c2.37-.79,3.67-2.84,3.67-5.29s-2.16-6.77-8.42-6.77h0c-4.11.01-8.5,2.35-8.5,6.89,0,2.48,1.26,4.5,3.71,5.18v.07c-2.95.72-4.75,2.99-4.75,6.19,0,5.43,4.9,7.88,9.58,7.88s9.43-2.63,9.43-7.92c0-3.17-1.73-5.48-4.72-6.16Zm-4.75-8.28c3.17,0,3.78,2.19,3.78,3.49,0,2.16-1.69,3.31-3.78,3.31s-3.85-1.08-3.85-3.31,1.8-3.49,3.85-3.49Zm.04,18.5c-2.44,0-4.46-1.68-4.46-4.28s2.08-4,4.46-4,4.32,1.51,4.32,4.03-1.87,4.25-4.32,4.25Z"/>
          <path class="cls-1" d="m827.82,147.15h5.65v5.54h-5.65v-5.54Z"/>
          <path class="cls-1" d="m843.87,137.68c2.2.18,5.36-.25,5.36-3.13,0-2.12-1.69-3.35-3.56-3.35-2.56,0-3.92,1.91-3.89,4.5h-4.86c.18-5.15,3.53-8.71,8.71-8.71,4.03,0,8.46,2.48,8.46,6.98,0,2.38-1.19,4.5-3.53,5.15v.07c2.77.61,4.46,2.92,4.46,5.72,0,5.29-4.43,8.28-9.36,8.28-5.65,0-9.47-3.38-9.36-9.18h4.86c.11,2.74,1.48,4.97,4.43,4.97,2.3,0,4.1-1.58,4.1-3.96,0-3.82-3.35-3.74-5.83-3.74v-3.6h.01Z"/>
          <path class="cls-1" d="m883.08,139.15c-4.21,0-6.12,2.99-6.12,6.95s1.51,7.09,5.94,7.09,6.08-2.99,6.08-6.95-1.44-7.09-5.9-7.09Zm-.14,11.34c-2.3,0-2.3-2.81-2.3-4.36,0-1.65.15-4.28,2.45-4.28,2.12,0,2.23,2.92,2.23,4.32,0,1.51-.15,4.32-2.38,4.32Zm-3.21-23.79l-14.9,26.78h3.13l14.83-26.78h-3.06Zm-15.23.29c-4.21,0-6.12,3.17-6.12,7.13s1.51,6.91,5.94,6.91,6.08-2.81,6.08-6.77-1.44-7.27-5.9-7.27Zm-.14,11.34c-2.3,0-2.3-2.59-2.3-4.14,0-1.66.15-4.5,2.45-4.5,2.12,0,2.23,3.14,2.23,4.54,0,1.51-.15,4.1-2.38,4.1Z"/>
        </g>
      </g>
      <g>
        <path class="cls-1" d="m256.42,0h7.3l8.17,23.18h.08l7.96-23.18h7.22v29.61h-4.94V6.76h-.08l-8.21,22.85h-4.27l-8.21-22.85h-.08v22.85h-4.94V0Z"/>
        <path class="cls-1" d="m310.66,24.84c0,1.16.25,1.62,1.12,1.62.29,0,.66,0,1.16-.08v3.28c-.71.25-2.2.54-2.99.54-1.91,0-3.28-.66-3.65-2.61-1.87,1.83-4.89,2.61-7.42,2.61-3.86,0-7.34-2.07-7.34-6.26,0-5.35,4.27-6.22,8.25-6.68,3.4-.62,6.43-.25,6.43-3.03,0-2.45-2.53-2.9-4.44-2.9-2.65,0-4.52,1.08-4.73,3.4h-4.73c.33-5.52,5.02-7.13,9.75-7.13,4.19,0,8.58,1.7,8.58,6.22v11.03Zm-4.73-5.97c-1.45.95-3.73.91-5.81,1.29-2.03.33-3.86,1.08-3.86,3.57,0,2.12,2.7,2.74,4.35,2.74,2.07,0,5.31-1.08,5.31-4.06v-3.53Z"/>
        <path class="cls-1" d="m330.24,15.34c-.37-2.61-2.28-4.02-4.89-4.02-2.45,0-5.89,1.29-5.89,7.8,0,3.57,1.58,7.34,5.68,7.34,2.74,0,4.65-1.83,5.1-4.89h4.73c-.87,5.56-4.31,8.63-9.83,8.63-6.72,0-10.41-4.77-10.41-11.07s3.52-11.53,10.58-11.53c4.98,0,9.21,2.49,9.66,7.76h-4.73Z"/>
        <path class="cls-1" d="m338.82,8.17h4.44v4.15h.08c.54-2.28,3.36-4.73,6.26-4.73,1.08,0,1.37.08,1.78.12v4.56c-.66-.08-1.37-.21-2.03-.21-3.23,0-5.81,2.61-5.81,7.34v10.2h-4.73V8.17Z"/>
        <path class="cls-1" d="m351.67,18.87c0-6.55,3.94-11.28,10.82-11.28s10.82,4.73,10.82,11.28-3.94,11.32-10.82,11.32-10.82-4.73-10.82-11.32Zm16.92,0c0-3.69-1.87-7.55-6.1-7.55s-6.1,3.86-6.1,7.55,1.87,7.59,6.1,7.59,6.1-3.86,6.1-7.59Z"/>
        <path class="cls-1" d="m386.67,8.17h5.14l5.43,16.46h.08l5.23-16.46h4.89l-7.67,21.44h-5.31l-7.8-21.44Z"/>
        <path class="cls-1" d="m410.43,0h4.73v4.48h-4.73V0Zm0,8.17h4.73v21.44h-4.73V8.17Z"/>
        <path class="cls-1" d="m423.99,20.11c0,3.36,1.82,6.35,5.76,6.35,2.74,0,4.4-1.2,5.23-3.57h4.48c-1.04,4.69-5.02,7.3-9.7,7.3-6.72,0-10.49-4.69-10.49-11.28,0-6.1,3.98-11.32,10.37-11.32,6.76,0,10.91,6.1,10.12,12.53h-15.76Zm11.03-3.11c-.17-2.99-2.2-5.68-5.39-5.68s-5.52,2.49-5.64,5.68h11.03Z"/>
        <path class="cls-1" d="m441.41,8.17h5.02l4.19,16.01h.08l4.02-16.01h4.77l3.86,16.01h.08l4.35-16.01h4.81l-6.72,21.44h-4.85l-3.98-15.93h-.08l-3.94,15.93h-4.98l-6.64-21.44Z"/>
        <path class="cls-1" d="m486.15,18.87c0-6.55,3.94-11.28,10.82-11.28s10.82,4.73,10.82,11.28-3.94,11.32-10.82,11.32-10.82-4.73-10.82-11.32Zm16.92,0c0-3.69-1.87-7.55-6.1-7.55s-6.1,3.86-6.1,7.55,1.87,7.59,6.1,7.59,6.1-3.86,6.1-7.59Z"/>
        <path class="cls-1" d="m509.62,8.17h3.53v-1.78c0-5.47,2.86-6.39,5.93-6.39,1.49,0,2.57.08,3.32.29v3.69c-.62-.17-1.24-.25-2.2-.25-1.29,0-2.32.46-2.32,2.24v2.2h4.02v3.53h-4.02v17.92h-4.73V11.7h-3.53v-3.53Z"/>
        <path class="cls-1" d="m536.45,0h4.73v4.48h-4.73V0Zm0,8.17h4.73v21.44h-4.73V8.17Z"/>
        <path class="cls-1" d="m546.32,8.17h4.48v3.15l.08.08c1.41-2.36,3.86-3.82,6.68-3.82,4.65,0,7.59,2.49,7.59,7.3v14.72h-4.73v-13.48c-.08-3.36-1.41-4.81-4.19-4.81-3.15,0-5.18,2.49-5.18,5.64v12.65h-4.73V8.17Z"/>
        <path class="cls-1" d="m570.25,0h4.73v4.48h-4.73V0Zm0,8.17h4.73v21.44h-4.73V8.17Z"/>
        <path class="cls-1" d="m577.96,8.17h3.57V1.74h4.73v6.43h4.27v3.53h-4.27v11.45c0,1.95.17,2.94,2.28,2.94.66,0,1.33,0,1.99-.17v3.65c-1.04.08-2.03.25-3.07.25-4.94,0-5.85-1.91-5.93-5.47v-12.65h-3.57v-3.53Z"/>
        <path class="cls-1" d="m594.05,0h4.73v4.48h-4.73V0Zm0,8.17h4.73v21.44h-4.73V8.17Z"/>
        <path class="cls-1" d="m621.88,24.84c0,1.16.25,1.62,1.12,1.62.29,0,.66,0,1.16-.08v3.28c-.71.25-2.2.54-2.99.54-1.91,0-3.28-.66-3.65-2.61-1.87,1.83-4.89,2.61-7.42,2.61-3.86,0-7.34-2.07-7.34-6.26,0-5.35,4.27-6.22,8.25-6.68,3.4-.62,6.43-.25,6.43-3.03,0-2.45-2.53-2.9-4.44-2.9-2.65,0-4.52,1.08-4.73,3.4h-4.73c.33-5.52,5.02-7.13,9.75-7.13,4.19,0,8.58,1.7,8.58,6.22v11.03Zm-4.73-5.97c-1.45.95-3.73.91-5.81,1.29-2.03.33-3.86,1.08-3.86,3.57,0,2.12,2.7,2.74,4.35,2.74,2.07,0,5.31-1.08,5.31-4.06v-3.53Z"/>
        <path class="cls-1" d="m627.1,0h4.73v29.61h-4.73V0Z"/>
        <path class="cls-1" d="m649.16,0h20.45v4.48h-15.26v7.76h13.4v4.23h-13.4v13.15h-5.18V0Z"/>
        <path class="cls-1" d="m673.75,0h5.18v25.13h15.06v4.48h-20.24V0Z"/>
        <path class="cls-1" d="m697.55,0h14.14c6.47,0,9.79,2.99,9.79,8,0,5.68-3.94,7.13-4.89,7.46v.08c1.78.25,4.4,1.58,4.4,6.26,0,3.44.5,6.59,1.62,7.8h-5.56c-.79-1.29-.79-2.9-.79-4.35,0-5.43-1.12-7.84-5.89-7.84h-7.63v12.19h-5.18V0Zm5.18,13.48h8.5c3.28,0,5.06-1.62,5.06-4.73,0-3.77-2.45-4.52-5.14-4.52h-8.42v9.25Z"/>
        <path class="cls-1" d="m746.19,0h5.52l11.41,29.61h-5.56l-2.78-7.84h-11.82l-2.78,7.84h-5.35l11.36-29.61Zm-1.83,17.83h9.04l-4.44-12.73h-.12l-4.48,12.73Z"/>
        <path class="cls-1" d="m765.39,0h4.73v29.61h-4.73V0Z"/>
        <path class="cls-1" d="m775.39,0h4.73v29.61h-4.73V0Z"/>
        <path class="cls-1" d="m784.26,18.87c0-6.55,3.94-11.28,10.82-11.28s10.82,4.73,10.82,11.28-3.94,11.32-10.82,11.32-10.82-4.73-10.82-11.32Zm16.92,0c0-3.69-1.87-7.55-6.1-7.55s-6.1,3.86-6.1,7.55,1.87,7.59,6.1,7.59,6.1-3.86,6.1-7.59Z"/>
        <path class="cls-1" d="m824.32,15.34c-.37-2.61-2.28-4.02-4.89-4.02-2.45,0-5.89,1.29-5.89,7.8,0,3.57,1.58,7.34,5.68,7.34,2.74,0,4.64-1.83,5.1-4.89h4.73c-.87,5.56-4.31,8.63-9.83,8.63-6.72,0-10.41-4.77-10.41-11.07s3.53-11.53,10.58-11.53c4.98,0,9.21,2.49,9.66,7.76h-4.73Z"/>
        <path class="cls-1" d="m850.86,24.84c0,1.16.25,1.62,1.12,1.62.29,0,.66,0,1.16-.08v3.28c-.71.25-2.2.54-2.99.54-1.91,0-3.28-.66-3.65-2.61-1.87,1.83-4.89,2.61-7.42,2.61-3.86,0-7.34-2.07-7.34-6.26,0-5.35,4.27-6.22,8.25-6.68,3.4-.62,6.43-.25,6.43-3.03,0-2.45-2.53-2.9-4.44-2.9-2.65,0-4.52,1.08-4.73,3.4h-4.73c.33-5.52,5.02-7.13,9.75-7.13,4.19,0,8.58,1.7,8.58,6.22v11.03Zm-4.73-5.97c-1.45.95-3.73.91-5.81,1.29-2.03.33-3.86,1.08-3.86,3.57,0,2.12,2.7,2.74,4.35,2.74,2.07,0,5.31-1.08,5.31-4.06v-3.53Z"/>
        <path class="cls-1" d="m853.8,8.17h3.57V1.74h4.73v6.43h4.27v3.53h-4.27v11.45c0,1.95.17,2.94,2.28,2.94.66,0,1.33,0,1.99-.17v3.65c-1.04.08-2.03.25-3.07.25-4.93,0-5.85-1.91-5.93-5.47v-12.65h-3.57v-3.53Z"/>
        <path class="cls-1" d="m869.89,0h4.73v4.48h-4.73V0Zm0,8.17h4.73v21.44h-4.73V8.17Z"/>
        <path class="cls-1" d="m878.76,18.87c0-6.55,3.94-11.28,10.82-11.28s10.83,4.73,10.83,11.28-3.94,11.32-10.83,11.32-10.82-4.73-10.82-11.32Zm16.92,0c0-3.69-1.87-7.55-6.1-7.55s-6.1,3.86-6.1,7.55,1.87,7.59,6.1,7.59,6.1-3.86,6.1-7.59Z"/>
        <path class="cls-1" d="m904.35,8.17h4.48v3.15l.08.08c1.41-2.36,3.86-3.82,6.68-3.82,4.65,0,7.59,2.49,7.59,7.3v14.72h-4.73v-13.48c-.08-3.36-1.41-4.81-4.19-4.81-3.15,0-5.18,2.49-5.18,5.64v12.65h-4.73V8.17Z"/>
        <path class="cls-1" d="m931.72,22.73c.25,2.74,2.32,3.73,4.85,3.73,1.78,0,4.89-.37,4.77-2.82-.12-2.49-3.57-2.78-7.01-3.57-3.48-.75-6.88-1.99-6.88-6.34,0-4.69,5.06-6.14,8.96-6.14,4.4,0,8.38,1.83,8.96,6.59h-4.94c-.42-2.24-2.28-2.86-4.35-2.86-1.37,0-3.9.33-3.9,2.2,0,2.32,3.48,2.65,6.97,3.44,3.44.79,6.93,2.03,6.93,6.26,0,5.1-5.14,6.97-9.58,6.97-5.39,0-9.41-2.41-9.5-7.47h4.73Z"/>
      </g>
    </g>
  </g>
</svg>