<?xml version="1.0" encoding="UTF-8"?>
<svg id="Layer_1" data-name="Layer 1" xmlns="http://www.w3.org/2000/svg" viewBox="0 0 1713.6 878.4">
  <defs>
    <style>
      .cls-1 {
        fill: #e7125e;
      }

      .cls-1, .cls-2, .cls-3, .cls-4, .cls-5, .cls-6, .cls-7, .cls-8, .cls-9, .cls-10, .cls-11, .cls-12, .cls-13, .cls-14, .cls-15, .cls-16 {
        stroke-miterlimit: 10;
      }

      .cls-1, .cls-2, .cls-3, .cls-4, .cls-5, .cls-7, .cls-8, .cls-10, .cls-11, .cls-12, .cls-13, .cls-14, .cls-15, .cls-16 {
        stroke: #fff;
        stroke-width: .68px;
      }

      .cls-2 {
        fill: #fce5ec;
      }

      .cls-3 {
        fill: #a0154e;
      }

      .cls-4 {
        fill: #ca1054;
      }

      .cls-5 {
        fill: #ad0d49;
      }

      .cls-6 {
        stroke-width: 2.16px;
      }

      .cls-6, .cls-9 {
        fill: none;
        stroke: #595959;
      }

      .cls-7 {
        fill: #ee6b89;
      }

      .cls-8 {
        fill: #f8bccb;
      }

      .cls-9 {
        stroke-width: 1.82px;
      }

      .cls-10 {
        fill: #900b3f;
      }

      .cls-11 {
        fill: #f393a9;
      }

      .cls-12 {
        fill: #44051e;
      }

      .cls-13 {
        fill: #e9426d;
      }

      .cls-14 {
        fill: #5c0728;
      }

      .cls-15 {
        fill: #750933;
      }

      .cls-17 {
        fill: #595959;
      }

      .cls-16 {
        fill: #fbc6dc;
      }
    </style>
  </defs>
  <line class="cls-9" x1="429.99" y1="603.6" x2="1242.54" y2="603.6"/>
  <path class="cls-17" d="m365.67,830.73c4.86,0,5.16,4.46,5.16,7.9s-.31,7.88-5.16,7.88-5.16-4.46-5.16-7.88.31-7.9,5.16-7.9Zm0,14.13c3.17,0,3.19-3.94,3.19-6.26s-.02-6.24-3.19-6.24-3.19,3.94-3.19,6.24.02,6.26,3.19,6.26Z"/>
  <g>
    <path class="cls-17" d="m545.25,846.25h-1.86v-11.12h-4.03v-1.49c2.12,0,4.05-.57,4.46-2.91h1.42v15.51Z"/>
    <path class="cls-17" d="m555.71,830.73c4.86,0,5.16,4.46,5.16,7.9s-.31,7.88-5.16,7.88-5.16-4.46-5.16-7.88.31-7.9,5.16-7.9Zm0,14.13c3.17,0,3.19-3.94,3.19-6.26s-.02-6.24-3.19-6.24-3.19,3.94-3.19,6.24.02,6.26,3.19,6.26Z"/>
  </g>
  <g>
    <path class="cls-17" d="m711.91,836.23c-.15-3.15,1.71-5.49,4.99-5.49,2.71,0,4.86,1.58,4.86,4.46,0,2.74-1.84,4.11-3.76,5.32-1.95,1.18-3.98,2.17-4.35,4.09h7.96v1.64h-10.13c.31-3.68,2.17-4.99,4.35-6.35,2.62-1.62,3.96-2.58,3.96-4.73,0-1.68-1.36-2.8-3-2.8-2.17,0-3.08,1.99-3.02,3.85h-1.86Z"/>
    <path class="cls-17" d="m729.2,830.73c4.86,0,5.16,4.46,5.16,7.9s-.31,7.88-5.16,7.88-5.16-4.46-5.16-7.88.31-7.9,5.16-7.9Zm0,14.13c3.17,0,3.19-3.94,3.19-6.26s-.02-6.24-3.19-6.24-3.19,3.94-3.19,6.24.02,6.26,3.19,6.26Z"/>
  </g>
  <g>
    <path class="cls-17" d="m891.8,837.39c.28.02.55.02.81.02,1.58,0,2.95-.85,2.95-2.54s-1.18-2.5-2.76-2.5c-2.04,0-2.91,1.55-2.93,3.37h-1.86c.11-2.95,1.69-5.01,4.79-5.01,2.69,0,4.73,1.29,4.73,4.16,0,1.36-.96,2.54-2.14,3.08v.04c1.88.42,2.8,1.9,2.8,3.76,0,3.11-2.43,4.73-5.34,4.73-3.15,0-5.23-1.86-5.16-5.05h1.86c.07,2.01,1.18,3.41,3.3,3.41,1.82,0,3.37-1.12,3.37-3s-1.47-2.98-3.3-2.98c-.37,0-.77.02-1.12.07v-1.58Z"/>
    <path class="cls-17" d="m905.28,830.73c4.86,0,5.16,4.46,5.16,7.9s-.31,7.88-5.16,7.88-5.16-4.46-5.16-7.88.31-7.9,5.16-7.9Zm0,14.13c3.17,0,3.19-3.94,3.19-6.26s-.02-6.24-3.19-6.24-3.19,3.94-3.19,6.24.02,6.26,3.19,6.26Z"/>
  </g>
  <g>
    <path class="cls-17" d="m1073.19,840.97h2.1v1.64h-2.1v3.63h-1.75v-3.63h-6.81v-1.79l7.07-10.09h1.49v10.24Zm-1.75,0v-7.59h-.04l-5.16,7.59h5.21Z"/>
    <path class="cls-17" d="m1082.27,830.73c4.86,0,5.16,4.46,5.16,7.9s-.31,7.88-5.16,7.88-5.16-4.46-5.16-7.88.31-7.9,5.16-7.9Zm0,14.13c3.17,0,3.19-3.94,3.19-6.26s-.02-6.24-3.19-6.24-3.19,3.94-3.19,6.24.02,6.26,3.19,6.26Z"/>
  </g>
  <g>
    <path class="cls-17" d="m1218.29,840.97h2.1v1.64h-2.1v3.63h-1.75v-3.63h-6.81v-1.79l7.07-10.09h1.49v10.24Zm-1.75,0v-7.59h-.04l-5.16,7.59h5.21Z"/>
    <path class="cls-17" d="m1227.27,830.73c3.39,0,4.7,1.99,4.7,3.96,0,1.38-.88,2.65-2.14,3.22,1.86.59,2.76,1.95,2.76,3.87,0,3-2.28,4.73-5.14,4.73s-5.27-1.55-5.27-4.73c0-1.84.99-3.26,2.71-3.87-1.29-.53-2.17-1.82-2.17-3.22,0-2.56,2.17-3.96,4.55-3.96Zm.17,14.13c1.86,0,3.17-1.29,3.17-3.02s-1.44-2.95-3.19-2.95c-1.84,0-3.28,1.18-3.28,2.98s1.38,3,3.3,3Zm0-7.61c1.47,0,2.56-.92,2.56-2.49s-1.09-2.39-2.6-2.39-2.71.83-2.71,2.39c0,1.71,1.23,2.49,2.76,2.49Z"/>
  </g>
  <g>
    <path class="cls-17" d="m330.02,129.65h-3.11v-9.93h-3.85v-2.34c2.17.04,4.16-.7,4.49-3.04h2.47v15.32Z"/>
    <path class="cls-17" d="m339.68,114.02c3.06,0,5.64,1.92,5.64,7.9s-2.58,8.03-5.64,8.03-5.6-1.92-5.6-8.03,2.58-7.9,5.6-7.9Zm0,13.37c2.54,0,2.54-3.74,2.54-5.47,0-1.6,0-5.34-2.54-5.34s-2.5,3.74-2.5,5.34c0,1.73,0,5.47,2.5,5.47Z"/>
    <path class="cls-17" d="m351.84,114.02c3.06,0,5.64,1.92,5.64,7.9s-2.58,8.03-5.64,8.03-5.6-1.92-5.6-8.03,2.58-7.9,5.6-7.9Zm0,13.37c2.54,0,2.54-3.74,2.54-5.47,0-1.6,0-5.34-2.54-5.34s-2.5,3.74-2.5,5.34c0,1.73,0,5.47,2.5,5.47Z"/>
    <path class="cls-17" d="m359.46,114.02h7.35c2.98,0,4.99.96,4.99,3.87,0,1.53-.77,2.6-2.12,3.26,1.9.55,2.87,2.01,2.87,3.96,0,3.17-2.69,4.53-5.51,4.53h-7.57v-15.62Zm3.44,6.32h3.48c1.2,0,2.1-.55,2.1-1.86,0-1.49-1.14-1.79-2.36-1.79h-3.22v3.65Zm0,6.63h3.68c1.36,0,2.54-.44,2.54-2.06s-1.01-2.23-2.47-2.23h-3.74v4.29Z"/>
    <path class="cls-17" d="m381.15,114.02h10.26v1.75h-8.18v4.97h7.18v1.75h-7.18v7.16h-2.08v-15.62Z"/>
    <path class="cls-17" d="m393.71,114.02h2.08v13.87h8.27v1.75h-10.35v-15.62Z"/>
    <path class="cls-17" d="m405.88,114.02h7.35c2.93,0,4.75,1.6,4.75,4.09,0,1.88-.83,3.43-2.71,3.96v.04c1.82.35,2.19,1.68,2.34,3.22.13,1.53.04,3.24.92,4.31h-2.32c-.59-.63-.26-2.32-.57-3.85-.22-1.53-.59-2.82-2.6-2.82h-5.08v6.67h-2.08v-15.62Zm6.41,7.2c1.95,0,3.61-.5,3.61-2.78,0-1.53-.83-2.67-2.78-2.67h-5.16v5.45h4.33Z"/>
  </g>
  <g>
    <path class="cls-17" d="m344.45,283.96c-3.22,2.8-4.97,8.56-5.01,12.65h-3.33c.35-4.53,2.23-8.93,5.14-12.43h-7.26v-2.89h10.46v2.67Z"/>
    <path class="cls-17" d="m356.24,283.85h-6.32l-.61,3.48.04.04c.83-.85,1.79-1.18,3-1.18,3.02,0,4.73,2.34,4.73,5.21,0,3.15-2.6,5.58-5.69,5.51-2.98,0-5.65-1.64-5.69-4.86h3.11c.15,1.36,1.16,2.3,2.52,2.3,1.62,0,2.65-1.42,2.65-2.95s-.98-2.87-2.65-2.87c-1.12,0-1.73.39-2.34,1.23h-2.8l1.51-8.47h8.56v2.56Z"/>
    <path class="cls-17" d="m358.98,280.98h7.35c2.98,0,4.99.96,4.99,3.87,0,1.53-.77,2.6-2.12,3.26,1.9.55,2.87,2.01,2.87,3.96,0,3.17-2.69,4.53-5.51,4.53h-7.57v-15.62Zm3.44,6.32h3.48c1.2,0,2.1-.55,2.1-1.86,0-1.49-1.14-1.79-2.36-1.79h-3.22v3.65Zm0,6.63h3.68c1.36,0,2.54-.44,2.54-2.06s-1.01-2.23-2.47-2.23h-3.74v4.29Z"/>
    <path class="cls-17" d="m380.67,280.98h10.26v1.75h-8.18v4.97h7.18v1.75h-7.18v7.16h-2.08v-15.62Z"/>
    <path class="cls-17" d="m393.23,280.98h2.08v13.87h8.27v1.75h-10.35v-15.62Z"/>
    <path class="cls-17" d="m405.4,280.98h7.35c2.93,0,4.75,1.6,4.75,4.09,0,1.88-.83,3.43-2.71,3.96v.04c1.82.35,2.19,1.68,2.34,3.22.13,1.53.04,3.24.92,4.31h-2.32c-.59-.63-.26-2.32-.57-3.85-.22-1.53-.59-2.82-2.6-2.82h-5.08v6.67h-2.08v-15.62Zm6.41,7.2c1.95,0,3.61-.5,3.61-2.78,0-1.53-.83-2.67-2.78-2.67h-5.16v5.45h4.33Z"/>
  </g>
  <g>
    <path class="cls-17" d="m344.93,463.45h-6.32l-.61,3.48.04.04c.83-.85,1.79-1.18,3-1.18,3.02,0,4.73,2.34,4.73,5.21,0,3.15-2.6,5.58-5.69,5.51-2.98,0-5.65-1.64-5.69-4.86h3.11c.15,1.36,1.16,2.3,2.52,2.3,1.62,0,2.65-1.42,2.65-2.95s-.98-2.87-2.65-2.87c-1.12,0-1.73.39-2.34,1.23h-2.8l1.51-8.47h8.56v2.56Z"/>
    <path class="cls-17" d="m352.22,460.58c3.06,0,5.64,1.93,5.64,7.9s-2.58,8.03-5.64,8.03-5.6-1.93-5.6-8.03,2.58-7.9,5.6-7.9Zm0,13.37c2.54,0,2.54-3.74,2.54-5.47,0-1.6,0-5.34-2.54-5.34s-2.5,3.74-2.5,5.34c0,1.73,0,5.47,2.5,5.47Z"/>
    <path class="cls-17" d="m359.83,460.58h7.35c2.98,0,4.99.96,4.99,3.87,0,1.53-.77,2.6-2.12,3.26,1.9.55,2.87,2.01,2.87,3.96,0,3.17-2.69,4.53-5.51,4.53h-7.57v-15.62Zm3.44,6.32h3.48c1.2,0,2.1-.55,2.1-1.86,0-1.49-1.14-1.79-2.36-1.79h-3.22v3.65Zm0,6.63h3.68c1.36,0,2.54-.44,2.54-2.06s-1.01-2.23-2.47-2.23h-3.74v4.29Z"/>
    <path class="cls-17" d="m381.52,460.58h10.26v1.75h-8.18v4.97h7.18v1.75h-7.18v7.16h-2.08v-15.62Z"/>
    <path class="cls-17" d="m394.08,460.58h2.08v13.87h8.27v1.75h-10.35v-15.62Z"/>
    <path class="cls-17" d="m406.25,460.58h7.35c2.93,0,4.75,1.6,4.75,4.09,0,1.88-.83,3.44-2.71,3.96v.04c1.82.35,2.19,1.69,2.34,3.22.13,1.53.04,3.24.92,4.31h-2.32c-.59-.63-.26-2.32-.57-3.85-.22-1.53-.59-2.82-2.6-2.82h-5.08v6.67h-2.08v-15.62Zm6.41,7.2c1.95,0,3.61-.5,3.61-2.78,0-1.53-.83-2.67-2.78-2.67h-5.16v5.45h4.33Z"/>
  </g>
  <g>
    <path class="cls-17" d="m334.8,594.17c-.11-3.5,1.88-6.19,5.56-6.19,2.8,0,5.25,1.79,5.25,4.79,0,2.3-1.23,3.57-2.74,4.64s-3.3,1.95-4.42,3.52h7.24v2.67h-11.25c.02-3.54,2.19-5.05,4.83-6.85,1.36-.92,3.2-1.86,3.22-3.74,0-1.44-.96-2.36-2.3-2.36-1.84,0-2.43,1.9-2.43,3.52h-2.98Z"/>
    <path class="cls-17" d="m357.1,590.85h-6.32l-.61,3.48.04.04c.83-.85,1.79-1.18,3-1.18,3.02,0,4.73,2.34,4.73,5.21,0,3.15-2.6,5.58-5.69,5.51-2.98,0-5.65-1.64-5.69-4.86h3.11c.15,1.36,1.16,2.3,2.52,2.3,1.62,0,2.65-1.42,2.65-2.95s-.98-2.87-2.65-2.87c-1.12,0-1.73.39-2.34,1.23h-2.8l1.51-8.47h8.56v2.56Z"/>
    <path class="cls-17" d="m359.83,587.98h7.35c2.98,0,4.99.96,4.99,3.87,0,1.53-.77,2.6-2.12,3.26,1.9.55,2.87,2.01,2.87,3.96,0,3.17-2.69,4.53-5.51,4.53h-7.57v-15.62Zm3.44,6.32h3.48c1.2,0,2.1-.55,2.1-1.86,0-1.49-1.14-1.79-2.36-1.79h-3.22v3.65Zm0,6.63h3.68c1.36,0,2.54-.44,2.54-2.06s-1.01-2.23-2.47-2.23h-3.74v4.29Z"/>
    <path class="cls-17" d="m381.52,587.98h10.26v1.75h-8.18v4.97h7.18v1.75h-7.18v7.16h-2.08v-15.62Z"/>
    <path class="cls-17" d="m394.08,587.98h2.08v13.87h8.27v1.75h-10.35v-15.62Z"/>
    <path class="cls-17" d="m406.25,587.98h7.35c2.93,0,4.75,1.6,4.75,4.09,0,1.88-.83,3.44-2.71,3.96v.04c1.82.35,2.19,1.69,2.34,3.22.13,1.53.04,3.24.92,4.31h-2.32c-.59-.63-.26-2.32-.57-3.85-.22-1.53-.59-2.82-2.6-2.82h-5.08v6.67h-2.08v-15.62Zm6.41,7.2c1.95,0,3.61-.5,3.61-2.78,0-1.53-.83-2.67-2.78-2.67h-5.16v5.45h4.33Z"/>
  </g>
  <g>
    <line class="cls-6" x1="429.99" y1="119.53" x2="1242.54" y2="119.53"/>
    <line class="cls-6" x1="429.99" y1="296.6" x2="1242.54" y2="296.6"/>
    <line class="cls-6" x1="429.99" y1="473.96" x2="1242.54" y2="473.96"/>
    <g>
      <path class="cls-2" d="m361.95,805.68v-83.77h22.28S987.05,199.2,1029.18,176.87s213.36-42.44,213.36-42.44v679.07l-880.6-7.82Z"/>
      <path class="cls-8" d="m361.95,809.03v-82.65l19.85,2.23s601.2-469.1,654.67-483.62c53.48-14.52,206.07-8.94,206.07-8.94v577.43l-880.6-4.47Z"/>
      <polygon class="cls-11" points="361.95 809.03 361.95 728.61 384.23 728.61 1040.72 259.24 1242.54 259.24 1242.54 813.5 361.95 809.03"/>
      <polygon class="cls-7" points="361.95 805.68 361.95 726.38 384.23 728.61 1043.76 429.28 1242.54 429.28 1242.54 813.5 361.95 805.68"/>
      <polygon class="cls-13" points="361.95 809.03 361.95 750.11 385.64 750.11 1040.12 455.25 1242.54 455.25 1242.54 813.5 361.95 809.03"/>
      <polygon class="cls-1" points="361.95 809.03 361.95 755.42 1043.76 470.05 1242.54 470.05 1242.54 813.5 361.95 809.03"/>
      <polygon class="cls-4" points="361.95 809.03 361.95 759.33 1041.33 487.36 1242.54 494.06 1242.54 813.5 361.95 809.03"/>
      <polygon class="cls-5" points="361.95 809.03 361.95 755.42 1047 498.53 1242.54 506.35 1242.54 813.5 361.95 809.03"/>
      <polygon class="cls-16" points="361.95 809.03 361.95 761.56 1038.7 534.13 1242.54 534.13 1242.54 813.5 361.95 809.03"/>
      <polygon class="cls-3" points="361.95 809.02 361.95 761.56 1038.7 534.13 1242.54 534.13 1242.54 813.5 361.95 809.02"/>
      <polyline class="cls-10" points="361.95 813.5 361.95 773.85 1037.22 548.23 1242.54 548.23 1242.54 813.5 362.34 816.93"/>
      <polygon class="cls-15" points="361.95 809.03 361.95 766.59 1041.33 583.42 1242.54 583.42 1242.54 813.5 361.95 809.03"/>
      <polygon class="cls-14" points="361.95 813.5 361.95 784.46 1041.33 671.58 1242.54 673.82 1242.54 813.5 361.95 813.5"/>
      <polygon class="cls-12" points="361.95 809.02 361.95 796.6 1054.7 734.2 1242.54 742.54 1242.54 813.5 361.95 809.02"/>
    </g>
  </g>
  <g>
    <line class="cls-9" x1="1217.87" y1="186.78" x2="1333.92" y2="186.78"/>
    <path class="cls-17" d="m1333.57,193.64c3.79,0,6.86-3.07,6.86-6.86s-3.07-6.86-6.86-6.86-6.86,3.07-6.86,6.86,3.07,6.86,6.86,6.86Z"/>
  </g>
  <g>
    <line class="cls-9" x1="1217.87" y1="245.67" x2="1333.92" y2="245.67"/>
    <path class="cls-17" d="m1333.57,252.53c3.79,0,6.86-3.07,6.86-6.86s-3.07-6.86-6.86-6.86-6.86,3.07-6.86,6.86,3.07,6.86,6.86,6.86Z"/>
  </g>
  <g>
    <line class="cls-9" x1="1217.87" y1="348.38" x2="1333.92" y2="348.38"/>
    <path class="cls-17" d="m1333.57,355.23c3.79,0,6.86-3.07,6.86-6.86s-3.07-6.86-6.86-6.86-6.86,3.07-6.86,6.86,3.07,6.86,6.86,6.86Z"/>
  </g>
  <g>
    <polyline class="cls-9" points="1217.87 443.84 1303.83 443.84 1333.29 390.65"/>
    <path class="cls-17" d="m1339.13,394.27c1.83-3.31.64-7.49-2.68-9.32-3.31-1.83-7.49-.64-9.32,2.68-1.83,3.31-.64,7.49,2.68,9.32,3.31,1.83,7.49.64,9.32-2.68Z"/>
  </g>
  <g>
    <polyline class="cls-9" points="1217.87 460.67 1314.96 460.67 1336.82 427.78"/>
    <circle class="cls-17" cx="1336.63" cy="428.06" r="6.86" transform="translate(501.12 1555.78) rotate(-71.22)"/>
  </g>
  <g>
    <polyline class="cls-9" points="1217.87 483.63 1321.39 482.66 1340.33 459.13"/>
    <path class="cls-17" d="m1345.45,463.69c2.37-2.95,1.91-7.27-1.04-9.64-2.95-2.37-7.27-1.91-9.64,1.04-2.37,2.95-1.91,7.27,1.04,9.64,2.95,2.37,7.27,1.91,9.64-1.04Z"/>
  </g>
  <g>
    <polyline class="cls-9" points="1217.87 498.69 1325.05 498.69 1343.29 489.13"/>
    <path class="cls-17" d="m1346.17,495.37c3.35-1.76,4.65-5.9,2.89-9.26s-5.9-4.65-9.26-2.89c-3.35,1.76-4.65,5.9-2.89,9.26s5.9,4.65,9.26,2.89Z"/>
  </g>
  <g>
    <line class="cls-9" x1="1217.87" y1="518.65" x2="1337.9" y2="518.65"/>
    <path class="cls-17" d="m1337.55,525.5c3.79,0,6.86-3.07,6.86-6.86s-3.07-6.86-6.86-6.86-6.86,3.07-6.86,6.86,3.07,6.86,6.86,6.86Z"/>
  </g>
  <g>
    <line class="cls-9" x1="1217.87" y1="541.34" x2="1333.92" y2="541.34"/>
    <path class="cls-17" d="m1333.57,548.19c3.79,0,6.86-3.07,6.86-6.86s-3.07-6.86-6.86-6.86-6.86,3.07-6.86,6.86,3.07,6.86,6.86,6.86Z"/>
  </g>
  <g>
    <line class="cls-9" x1="1217.87" y1="567.59" x2="1333.92" y2="567.59"/>
    <path class="cls-17" d="m1333.57,574.45c3.79,0,6.86-3.07,6.86-6.86s-3.07-6.86-6.86-6.86-6.86,3.07-6.86,6.86,3.07,6.86,6.86,6.86Z"/>
  </g>
  <g>
    <line class="cls-9" x1="1217.87" y1="628.08" x2="1333.92" y2="628.08"/>
    <path class="cls-17" d="m1333.57,634.93c3.79,0,6.86-3.07,6.86-6.86s-3.07-6.86-6.86-6.86-6.86,3.07-6.86,6.86,3.07,6.86,6.86,6.86Z"/>
  </g>
  <g>
    <line class="cls-9" x1="1217.87" y1="700.9" x2="1333.92" y2="700.9"/>
    <path class="cls-17" d="m1333.57,707.75c3.79,0,6.86-3.07,6.86-6.86s-3.07-6.86-6.86-6.86-6.86,3.07-6.86,6.86,3.07,6.86,6.86,6.86Z"/>
  </g>
  <g>
    <line class="cls-9" x1="1217.87" y1="780.48" x2="1333.92" y2="780.48"/>
    <path class="cls-17" d="m1333.57,787.34c3.79,0,6.86-3.07,6.86-6.86s-3.07-6.86-6.86-6.86-6.86,3.07-6.86,6.86,3.07,6.86,6.86,6.86Z"/>
  </g>
  <g>
    <path class="cls-17" d="m1370.63,176.81h2.08v15.62h-2.08v-15.62Z"/>
    <path class="cls-17" d="m1375.9,181.12h1.75v1.79h.04c.79-1.4,2.06-2.06,3.68-2.06,2.98,0,3.89,1.71,3.89,4.14v7.44h-1.86v-7.66c0-1.38-.88-2.28-2.3-2.28-2.25,0-3.35,1.51-3.35,3.54v6.39h-1.86v-11.31Z"/>
    <path class="cls-17" d="m1388.84,182.76h-1.9v-1.64h1.9v-1.69c0-1.84,1.09-2.8,3.13-2.8.35,0,.85.07,1.2.18v1.62c-.33-.11-.72-.15-1.05-.15-.9,0-1.42.28-1.42,1.27v1.58h2.19v1.64h-2.19v9.67h-1.86v-9.67Zm5.82-5.95h1.86v15.62h-1.86v-15.62Z"/>
    <path class="cls-17" d="m1409.43,192.39c-.33.2-.74.31-1.33.31-.96,0-1.58-.53-1.58-1.75-1.03,1.2-2.41,1.75-3.98,1.75-2.06,0-3.74-.92-3.74-3.17,0-2.56,1.9-3.11,3.83-3.48,2.06-.39,3.81-.26,3.81-1.66,0-1.62-1.33-1.88-2.52-1.88-1.58,0-2.74.48-2.82,2.14h-1.86c.11-2.8,2.28-3.79,4.79-3.79,2.03,0,4.25.46,4.25,3.11v5.82c0,.88,0,1.27.59,1.27.15,0,.33-.02.57-.11v1.44Zm-3.02-5.8c-.72.53-2.12.55-3.37.77-1.22.22-2.28.66-2.28,2.04,0,1.23,1.05,1.66,2.19,1.66,2.45,0,3.46-1.53,3.46-2.56v-1.9Z"/>
    <path class="cls-17" d="m1413.74,181.12h2.25v1.64h-2.25v7.02c0,.85.24,1.01,1.4,1.01h.85v1.64h-1.42c-1.92,0-2.69-.39-2.69-2.47v-7.2h-1.92v-1.64h1.92v-3.39h1.86v3.39Z"/>
    <path class="cls-17" d="m1420.02,179.08h-1.86v-2.28h1.86v2.28Zm-1.86,2.04h1.86v11.31h-1.86v-11.31Z"/>
    <path class="cls-17" d="m1427.79,180.85c3.59,0,5.49,2.6,5.49,5.93s-1.9,5.91-5.49,5.91-5.49-2.6-5.49-5.91,1.9-5.93,5.49-5.93Zm0,10.2c1.95,0,3.52-1.53,3.52-4.27s-1.58-4.29-3.52-4.29-3.52,1.53-3.52,4.29,1.58,4.27,3.52,4.27Z"/>
    <path class="cls-17" d="m1435.47,181.12h1.75v1.79h.04c.79-1.4,2.06-2.06,3.68-2.06,2.98,0,3.89,1.71,3.89,4.14v7.44h-1.86v-7.66c0-1.38-.88-2.28-2.3-2.28-2.25,0-3.35,1.51-3.35,3.54v6.39h-1.86v-11.31Z"/>
  </g>
  <g>
    <path class="cls-17" d="m1381.52,241.03c-.44-2.21-2.21-3.33-4.38-3.33-3.72,0-5.29,3.06-5.29,6.32,0,3.57,1.58,6.54,5.32,6.54,2.74,0,4.31-1.93,4.51-4.51h2.08c-.39,3.9-2.82,6.26-6.76,6.26-4.86,0-7.22-3.59-7.22-8.14s2.58-8.23,7.4-8.23c3.26,0,5.95,1.75,6.43,5.08h-2.08Z"/>
    <path class="cls-17" d="m1385.97,240.64h1.75v2.38h.04c.9-1.82,2.14-2.71,4.16-2.65v1.97c-3,0-4.09,1.71-4.09,4.57v5.03h-1.86v-11.31Z"/>
    <path class="cls-17" d="m1397.81,240.38c3.59,0,5.49,2.6,5.49,5.93s-1.9,5.91-5.49,5.91-5.49-2.6-5.49-5.91,1.9-5.93,5.49-5.93Zm0,10.2c1.95,0,3.52-1.53,3.52-4.27s-1.58-4.29-3.52-4.29-3.52,1.53-3.52,4.29,1.58,4.27,3.52,4.27Z"/>
    <path class="cls-17" d="m1406.63,248.38c.07,1.66,1.51,2.19,3.04,2.19,1.16,0,2.73-.26,2.73-1.68s-1.84-1.68-3.7-2.1c-1.84-.42-3.7-1.03-3.7-3.19,0-2.28,2.25-3.22,4.22-3.22,2.5,0,4.49.79,4.64,3.54h-1.86c-.13-1.44-1.4-1.9-2.63-1.9-1.12,0-2.41.31-2.41,1.44,0,1.33,1.97,1.55,3.7,1.97,1.86.42,3.7,1.03,3.7,3.22,0,2.69-2.52,3.57-4.81,3.57-2.54,0-4.68-1.03-4.79-3.83h1.86Z"/>
    <path class="cls-17" d="m1417.57,248.38c.07,1.66,1.51,2.19,3.04,2.19,1.16,0,2.73-.26,2.73-1.68s-1.84-1.68-3.7-2.1c-1.84-.42-3.7-1.03-3.7-3.19,0-2.28,2.25-3.22,4.22-3.22,2.5,0,4.49.79,4.64,3.54h-1.86c-.13-1.44-1.4-1.9-2.63-1.9-1.12,0-2.41.31-2.41,1.44,0,1.33,1.97,1.55,3.7,1.97,1.86.42,3.7,1.03,3.7,3.22,0,2.69-2.52,3.57-4.81,3.57-2.54,0-4.68-1.03-4.79-3.83h1.86Z"/>
    <path class="cls-17" d="m1427.07,244.99h6.32v1.75h-6.32v-1.75Z"/>
    <path class="cls-17" d="m1443.57,244.27c-.29-1.42-1.27-2.25-2.8-2.25-2.69,0-3.52,2.12-3.52,4.42,0,2.08.94,4.14,3.3,4.14,1.79,0,2.87-1.05,3.11-2.76h1.9c-.42,2.76-2.14,4.4-4.99,4.4-3.46,0-5.29-2.41-5.29-5.78s1.75-6.06,5.34-6.06c2.56,0,4.62,1.2,4.88,3.89h-1.92Z"/>
    <path class="cls-17" d="m1447.64,236.33h1.86v5.97h.04c.61-1.36,2.21-1.93,3.57-1.93,2.98,0,3.89,1.71,3.89,4.14v7.44h-1.86v-7.66c0-1.38-.88-2.28-2.3-2.28-2.25,0-3.35,1.51-3.35,3.54v6.39h-1.86v-15.62Z"/>
    <path class="cls-17" d="m1469.83,251.91c-.33.2-.74.31-1.33.31-.96,0-1.58-.53-1.58-1.75-1.03,1.2-2.41,1.75-3.98,1.75-2.06,0-3.74-.92-3.74-3.17,0-2.56,1.9-3.11,3.83-3.48,2.06-.39,3.81-.26,3.81-1.66,0-1.62-1.33-1.88-2.52-1.88-1.58,0-2.74.48-2.82,2.14h-1.86c.11-2.8,2.28-3.79,4.79-3.79,2.03,0,4.25.46,4.25,3.11v5.82c0,.88,0,1.27.59,1.27.15,0,.33-.02.57-.11v1.44Zm-3.02-5.8c-.72.53-2.12.55-3.37.77-1.22.22-2.28.66-2.28,2.04,0,1.23,1.05,1.66,2.19,1.66,2.45,0,3.46-1.53,3.46-2.56v-1.9Z"/>
    <path class="cls-17" d="m1473.53,238.6h-1.86v-2.28h1.86v2.28Zm-1.86,2.04h1.86v11.31h-1.86v-11.31Z"/>
    <path class="cls-17" d="m1476.42,240.64h1.75v1.79h.04c.79-1.4,2.06-2.06,3.68-2.06,2.98,0,3.89,1.71,3.89,4.14v7.44h-1.86v-7.66c0-1.38-.88-2.28-2.3-2.28-2.25,0-3.35,1.51-3.35,3.54v6.39h-1.86v-11.31Z"/>
    <path class="cls-17" d="m1495.07,236.33h2.08v15.62h-2.08v-15.62Z"/>
    <path class="cls-17" d="m1500.34,240.64h1.75v1.79h.04c.79-1.4,2.06-2.06,3.68-2.06,2.98,0,3.89,1.71,3.89,4.14v7.44h-1.86v-7.66c0-1.38-.88-2.28-2.3-2.28-2.25,0-3.35,1.51-3.35,3.54v6.39h-1.86v-11.31Z"/>
    <path class="cls-17" d="m1520.19,244.27c-.29-1.42-1.27-2.25-2.8-2.25-2.69,0-3.52,2.12-3.52,4.42,0,2.08.94,4.14,3.3,4.14,1.79,0,2.87-1.05,3.11-2.76h1.9c-.42,2.76-2.14,4.4-4.99,4.4-3.46,0-5.29-2.41-5.29-5.78s1.75-6.06,5.34-6.06c2.56,0,4.62,1.2,4.88,3.89h-1.92Z"/>
    <path class="cls-17" d="m1533.91,248.36c-.5,2.49-2.3,3.85-4.84,3.85-3.61,0-5.32-2.5-5.43-5.95,0-3.39,2.23-5.89,5.32-5.89,4,0,5.23,3.74,5.12,6.48h-8.47c-.07,1.97,1.05,3.72,3.52,3.72,1.53,0,2.6-.74,2.93-2.21h1.84Zm-1.79-3.15c-.09-1.77-1.42-3.2-3.26-3.2-1.95,0-3.11,1.47-3.24,3.2h6.5Z"/>
    <path class="cls-17" d="m1536.02,240.64h1.75v1.79h.04c.79-1.4,2.06-2.06,3.68-2.06,2.98,0,3.89,1.71,3.89,4.14v7.44h-1.86v-7.66c0-1.38-.88-2.28-2.3-2.28-2.25,0-3.35,1.51-3.35,3.54v6.39h-1.86v-11.31Z"/>
    <path class="cls-17" d="m1550.77,240.64h2.25v1.64h-2.25v7.02c0,.85.24,1.01,1.4,1.01h.85v1.64h-1.42c-1.92,0-2.69-.39-2.69-2.47v-7.2h-1.92v-1.64h1.92v-3.39h1.86v3.39Z"/>
    <path class="cls-17" d="m1557.05,238.6h-1.86v-2.28h1.86v2.28Zm-1.86,2.04h1.86v11.31h-1.86v-11.31Z"/>
    <path class="cls-17" d="m1565.03,251.95h-1.99l-4.2-11.31h2.08l3.17,9.43h.04l3.08-9.43h1.95l-4.13,11.31Z"/>
    <path class="cls-17" d="m1580.53,248.36c-.5,2.49-2.3,3.85-4.84,3.85-3.61,0-5.32-2.5-5.43-5.95,0-3.39,2.23-5.89,5.32-5.89,4,0,5.23,3.74,5.12,6.48h-8.47c-.07,1.97,1.05,3.72,3.52,3.72,1.53,0,2.6-.74,2.93-2.21h1.84Zm-1.79-3.15c-.09-1.77-1.42-3.2-3.26-3.2-1.95,0-3.11,1.47-3.24,3.2h6.5Z"/>
    <path class="cls-17" d="m1583.77,248.38c.07,1.66,1.51,2.19,3.04,2.19,1.16,0,2.73-.26,2.73-1.68s-1.84-1.68-3.7-2.1c-1.84-.42-3.7-1.03-3.7-3.19,0-2.28,2.25-3.22,4.22-3.22,2.5,0,4.49.79,4.64,3.54h-1.86c-.13-1.44-1.4-1.9-2.63-1.9-1.12,0-2.41.31-2.41,1.44,0,1.33,1.97,1.55,3.7,1.97,1.86.42,3.7,1.03,3.7,3.22,0,2.69-2.52,3.57-4.81,3.57-2.54,0-4.68-1.03-4.79-3.83h1.86Z"/>
  </g>
  <g>
    <path class="cls-17" d="m1370.58,337.81h2.84l4.92,13.13,4.95-13.13h2.84v15.62h-1.97v-13h-.04l-4.88,13h-1.77l-4.88-13h-.04v13h-1.97v-15.62Z"/>
    <path class="cls-17" d="m1394.18,341.86c3.59,0,5.49,2.6,5.49,5.93s-1.9,5.91-5.49,5.91-5.49-2.6-5.49-5.91,1.9-5.93,5.49-5.93Zm0,10.2c1.95,0,3.52-1.53,3.52-4.27s-1.58-4.29-3.52-4.29-3.52,1.53-3.52,4.29,1.58,4.27,3.52,4.27Z"/>
    <path class="cls-17" d="m1401.86,342.12h1.75v1.79h.04c.79-1.4,2.06-2.06,3.68-2.06,2.98,0,3.89,1.71,3.89,4.14v7.44h-1.86v-7.66c0-1.38-.88-2.28-2.3-2.28-2.25,0-3.35,1.51-3.35,3.54v6.39h-1.86v-11.31Z"/>
    <path class="cls-17" d="m1416.61,342.12h2.25v1.64h-2.25v7.02c0,.85.24,1.01,1.4,1.01h.85v1.64h-1.42c-1.92,0-2.69-.39-2.69-2.47v-7.2h-1.92v-1.64h1.92v-3.39h1.86v3.39Z"/>
    <path class="cls-17" d="m1420.92,337.81h1.86v5.97h.04c.61-1.36,2.21-1.93,3.57-1.93,2.98,0,3.89,1.71,3.89,4.14v7.44h-1.86v-7.66c0-1.38-.88-2.28-2.3-2.28-2.25,0-3.35,1.51-3.35,3.54v6.39h-1.86v-15.62Z"/>
    <path class="cls-17" d="m1433.2,337.81h1.86v15.62h-1.86v-15.62Z"/>
    <path class="cls-17" d="m1442.39,354.94c-.85,2.21-1.62,3.02-3.28,3.02-.44,0-.88-.04-1.29-.2v-1.71c.35.11.72.26,1.09.26.77,0,1.18-.37,1.53-1.03l.77-1.92-4.49-11.25h2.1l3.3,9.26h.04l3.17-9.26h1.97l-4.92,12.82Z"/>
    <path class="cls-17" d="m1455.28,337.81h10.26v1.75h-8.18v4.97h7.18v1.75h-7.18v7.16h-2.08v-15.62Z"/>
    <path class="cls-17" d="m1467.65,337.81h1.86v15.62h-1.86v-15.62Z"/>
    <path class="cls-17" d="m1482.42,353.39c-.33.2-.74.31-1.33.31-.96,0-1.58-.53-1.58-1.75-1.03,1.2-2.41,1.75-3.98,1.75-2.06,0-3.74-.92-3.74-3.17,0-2.56,1.9-3.11,3.83-3.48,2.06-.39,3.81-.26,3.81-1.66,0-1.62-1.33-1.88-2.52-1.88-1.58,0-2.74.48-2.82,2.14h-1.86c.11-2.8,2.28-3.79,4.79-3.79,2.04,0,4.25.46,4.25,3.11v5.82c0,.88,0,1.27.59,1.27.15,0,.33-.02.57-.11v1.44Zm-3.02-5.8c-.72.53-2.12.55-3.37.77-1.22.22-2.28.66-2.28,2.04,0,1.23,1.05,1.66,2.19,1.66,2.45,0,3.46-1.53,3.46-2.56v-1.9Z"/>
    <path class="cls-17" d="m1484.08,342.12h1.75v2.38h.04c.9-1.82,2.14-2.71,4.16-2.65v1.97c-3,0-4.09,1.71-4.09,4.57v5.03h-1.86v-11.31Z"/>
    <path class="cls-17" d="m1500.69,349.84c-.5,2.49-2.3,3.85-4.84,3.85-3.61,0-5.32-2.5-5.43-5.95,0-3.39,2.23-5.89,5.32-5.89,4,0,5.23,3.74,5.12,6.48h-8.47c-.07,1.97,1.05,3.72,3.52,3.72,1.53,0,2.6-.74,2.93-2.21h1.84Zm-1.79-3.15c-.09-1.77-1.42-3.2-3.26-3.2-1.95,0-3.11,1.47-3.24,3.2h6.5Z"/>
    <path class="cls-17" d="m1512.9,353.43h-1.86v-1.53h-.04c-.61,1.25-2.06,1.79-3.61,1.79-3.48,0-5.21-2.76-5.21-5.95s1.71-5.89,5.16-5.89c1.16,0,2.82.44,3.65,1.77h.04v-5.82h1.86v15.62Zm-5.25-1.38c2.49,0,3.46-2.14,3.46-4.27,0-2.23-1.01-4.29-3.57-4.29s-3.39,2.17-3.39,4.38,1.09,4.18,3.5,4.18Z"/>
    <path class="cls-17" d="m1515.71,342.12h1.75v2.38h.04c.9-1.82,2.14-2.71,4.16-2.65v1.97c-3,0-4.09,1.71-4.09,4.57v5.03h-1.86v-11.31Z"/>
    <path class="cls-17" d="m1527.54,341.86c3.59,0,5.49,2.6,5.49,5.93s-1.9,5.91-5.49,5.91-5.49-2.6-5.49-5.91,1.9-5.93,5.49-5.93Zm0,10.2c1.95,0,3.52-1.53,3.52-4.27s-1.58-4.29-3.52-4.29-3.52,1.53-3.52,4.29,1.58,4.27,3.52,4.27Z"/>
    <path class="cls-17" d="m1535.29,342.12h1.86v1.53h.04c.61-1.25,2.06-1.79,3.61-1.79,3.48,0,5.21,2.76,5.21,5.95s-1.71,5.89-5.16,5.89c-1.16,0-2.82-.44-3.65-1.77h-.04v5.84h-1.86v-15.64Zm5.25,1.38c-2.5,0-3.46,2.14-3.46,4.27,0,2.23,1.01,4.29,3.57,4.29s3.39-2.17,3.39-4.38-1.09-4.18-3.5-4.18Z"/>
    <path class="cls-17" d="m1549.34,349.87c.07,1.66,1.51,2.19,3.04,2.19,1.16,0,2.73-.26,2.73-1.68s-1.84-1.68-3.7-2.1c-1.84-.42-3.7-1.03-3.7-3.19,0-2.28,2.25-3.22,4.22-3.22,2.5,0,4.49.79,4.64,3.54h-1.86c-.13-1.44-1.4-1.9-2.63-1.9-1.12,0-2.41.31-2.41,1.44,0,1.33,1.97,1.55,3.7,1.97,1.86.42,3.7,1.03,3.7,3.22,0,2.69-2.52,3.57-4.81,3.57-2.54,0-4.68-1.03-4.79-3.83h1.86Z"/>
  </g>
  <g>
    <path class="cls-17" d="m1374.07,379.23c4.97,0,7.48,3.94,7.48,8.18s-2.52,8.18-7.48,8.18-7.48-3.94-7.48-8.18,2.52-8.18,7.48-8.18Zm0,14.62c3.81,0,5.41-3.28,5.41-6.43s-1.6-6.43-5.41-6.43-5.4,3.28-5.4,6.43,1.6,6.43,5.4,6.43Z"/>
    <path class="cls-17" d="m1383.72,383.91h1.75v2.38h.04c.9-1.82,2.14-2.71,4.16-2.65v1.97c-3,0-4.09,1.71-4.09,4.57v5.03h-1.86v-11.31Z"/>
    <path class="cls-17" d="m1393.04,381.87h-1.86v-2.28h1.86v2.28Zm-1.86,2.04h1.86v11.31h-1.86v-11.31Z"/>
    <path class="cls-17" d="m1405.69,394.26c0,3.68-1.68,5.56-5.25,5.56-2.12,0-4.57-.85-4.68-3.33h1.86c.09,1.36,1.71,1.84,2.93,1.84,2.43,0,3.39-1.75,3.39-4.29v-.74h-.04c-.61,1.38-2.1,2.06-3.52,2.06-3.37,0-5.05-2.65-5.05-5.73,0-2.67,1.31-5.97,5.23-5.97,1.42,0,2.69.63,3.37,1.88h.02v-1.62h1.75v10.35Zm-1.84-4.92c0-1.99-.88-4.05-3.22-4.05s-3.35,1.95-3.35,4.11c0,2.04.74,4.31,3.19,4.31s3.37-2.25,3.37-4.38Z"/>
    <path class="cls-17" d="m1410.46,381.87h-1.86v-2.28h1.86v2.28Zm-1.86,2.04h1.86v11.31h-1.86v-11.31Z"/>
    <path class="cls-17" d="m1413.35,383.91h1.75v1.79h.04c.79-1.4,2.06-2.06,3.68-2.06,2.98,0,3.89,1.71,3.89,4.14v7.44h-1.86v-7.66c0-1.38-.88-2.28-2.3-2.28-2.25,0-3.35,1.51-3.35,3.54v6.39h-1.86v-11.31Z"/>
    <path class="cls-17" d="m1435.54,395.18c-.33.2-.74.31-1.33.31-.96,0-1.58-.53-1.58-1.75-1.03,1.2-2.41,1.75-3.98,1.75-2.06,0-3.74-.92-3.74-3.17,0-2.56,1.9-3.11,3.83-3.48,2.06-.39,3.81-.26,3.81-1.66,0-1.62-1.33-1.88-2.52-1.88-1.58,0-2.74.48-2.82,2.14h-1.86c.11-2.8,2.28-3.79,4.79-3.79,2.04,0,4.25.46,4.25,3.11v5.82c0,.88,0,1.27.59,1.27.15,0,.33-.02.57-.11v1.44Zm-3.02-5.8c-.72.53-2.12.55-3.37.77-1.22.22-2.28.66-2.28,2.04,0,1.23,1.05,1.66,2.19,1.66,2.45,0,3.46-1.53,3.46-2.56v-1.9Z"/>
    <path class="cls-17" d="m1437.38,379.6h1.86v15.62h-1.86v-15.62Z"/>
    <path class="cls-17" d="m1452.77,379.6h2.3l6.1,15.62h-2.3l-1.71-4.7h-6.61l-1.75,4.7h-2.14l6.1-15.62Zm-1.55,9.17h5.29l-2.6-7.29h-.04l-2.65,7.29Z"/>
    <path class="cls-17" d="m1464.37,381.87h-1.86v-2.28h1.86v2.28Zm-1.86,2.04h1.86v11.31h-1.86v-11.31Z"/>
    <path class="cls-17" d="m1467.19,383.91h1.75v2.38h.04c.9-1.82,2.14-2.71,4.16-2.65v1.97c-3,0-4.09,1.71-4.09,4.57v5.03h-1.86v-11.31Z"/>
    <path class="cls-17" d="m1484.26,395.22h-1.86v-1.53h-.04c-.61,1.25-2.06,1.79-3.61,1.79-3.48,0-5.21-2.76-5.21-5.95s1.71-5.89,5.16-5.89c1.16,0,2.82.44,3.65,1.77h.04v-5.82h1.86v15.62Zm-5.25-1.38c2.49,0,3.46-2.14,3.46-4.27,0-2.23-1.01-4.29-3.57-4.29s-3.39,2.17-3.39,4.38,1.09,4.18,3.5,4.18Z"/>
    <path class="cls-17" d="m1487.06,383.91h1.75v2.38h.04c.9-1.82,2.14-2.71,4.16-2.65v1.97c-3,0-4.09,1.71-4.09,4.57v5.03h-1.86v-11.31Z"/>
    <path class="cls-17" d="m1498.9,383.65c3.59,0,5.49,2.6,5.49,5.93s-1.9,5.91-5.49,5.91-5.49-2.6-5.49-5.91,1.9-5.93,5.49-5.93Zm0,10.2c1.95,0,3.52-1.53,3.52-4.27s-1.58-4.29-3.52-4.29-3.52,1.53-3.52,4.29,1.58,4.27,3.52,4.27Z"/>
    <path class="cls-17" d="m1506.65,383.91h1.86v1.53h.04c.61-1.25,2.06-1.79,3.61-1.79,3.48,0,5.21,2.76,5.21,5.95s-1.71,5.89-5.16,5.89c-1.16,0-2.82-.44-3.65-1.77h-.04v5.84h-1.86v-15.65Zm5.25,1.38c-2.5,0-3.46,2.14-3.46,4.27,0,2.23,1.01,4.29,3.57,4.29s3.39-2.17,3.39-4.38-1.09-4.18-3.5-4.18Z"/>
    <path class="cls-17" d="m1520.7,391.65c.07,1.66,1.51,2.19,3.04,2.19,1.16,0,2.73-.26,2.73-1.69s-1.84-1.68-3.7-2.1c-1.84-.42-3.7-1.03-3.7-3.19,0-2.28,2.25-3.22,4.22-3.22,2.5,0,4.49.79,4.64,3.54h-1.86c-.13-1.44-1.4-1.9-2.63-1.9-1.12,0-2.41.31-2.41,1.44,0,1.33,1.97,1.55,3.7,1.97,1.86.42,3.7,1.03,3.7,3.22,0,2.69-2.52,3.57-4.81,3.57-2.54,0-4.68-1.03-4.79-3.83h1.86Z"/>
  </g>
  <g>
    <path class="cls-17" d="m1368.29,413.66h5.67c1.38,0,3.19,0,4.14.57,1.03.61,1.84,1.73,1.84,3.26,0,1.66-.88,2.91-2.32,3.5v.04c1.92.39,2.98,1.84,2.98,3.76,0,2.3-1.64,4.49-4.75,4.49h-7.55v-15.62Zm2.08,6.72h4.16c2.36,0,3.33-.85,3.33-2.49,0-2.17-1.53-2.47-3.33-2.47h-4.16v4.97Zm0,7.16h5.21c1.79,0,2.93-1.09,2.93-2.8,0-2.04-1.64-2.6-3.39-2.6h-4.75v5.4Z"/>
    <path class="cls-17" d="m1392.34,429.28h-1.75v-1.79h-.04c-.79,1.4-2.06,2.06-3.68,2.06-2.98,0-3.89-1.71-3.89-4.14v-7.44h1.86v7.66c0,1.38.88,2.28,2.3,2.28,2.25,0,3.35-1.51,3.35-3.54v-6.39h1.86v11.31Z"/>
    <path class="cls-17" d="m1395.08,417.97h1.75v2.38h.04c.9-1.82,2.14-2.71,4.16-2.65v1.97c-3,0-4.09,1.71-4.09,4.57v5.03h-1.86v-11.31Z"/>
    <path class="cls-17" d="m1402.83,417.97h1.75v1.79h.04c.79-1.4,2.06-2.06,3.68-2.06,2.98,0,3.89,1.71,3.89,4.14v7.44h-1.86v-7.66c0-1.38-.88-2.28-2.3-2.28-2.25,0-3.35,1.51-3.35,3.54v6.39h-1.86v-11.31Z"/>
    <path class="cls-17" d="m1424.64,425.7c-.5,2.49-2.3,3.85-4.84,3.85-3.61,0-5.32-2.5-5.43-5.95,0-3.39,2.23-5.89,5.32-5.89,4,0,5.23,3.74,5.12,6.48h-8.47c-.07,1.97,1.05,3.72,3.52,3.72,1.53,0,2.6-.74,2.93-2.21h1.84Zm-1.79-3.15c-.09-1.77-1.42-3.2-3.26-3.2-1.95,0-3.11,1.47-3.24,3.2h6.5Z"/>
    <path class="cls-17" d="m1436.86,429.28h-1.86v-1.53h-.04c-.61,1.25-2.06,1.79-3.61,1.79-3.48,0-5.21-2.76-5.21-5.95s1.71-5.89,5.16-5.89c1.16,0,2.82.44,3.65,1.77h.04v-5.82h1.86v15.62Zm-5.25-1.38c2.49,0,3.46-2.14,3.46-4.27,0-2.23-1.01-4.29-3.57-4.29s-3.39,2.17-3.39,4.38,1.09,4.18,3.5,4.18Z"/>
    <path class="cls-17" d="m1446.11,413.66h5.67c1.38,0,3.19,0,4.14.57,1.03.61,1.84,1.73,1.84,3.26,0,1.66-.88,2.91-2.32,3.5v.04c1.92.39,2.98,1.84,2.98,3.76,0,2.3-1.64,4.49-4.75,4.49h-7.55v-15.62Zm2.08,6.72h4.16c2.36,0,3.33-.85,3.33-2.49,0-2.17-1.53-2.47-3.33-2.47h-4.16v4.97Zm0,7.16h5.21c1.79,0,2.93-1.09,2.93-2.8,0-2.04-1.64-2.6-3.39-2.6h-4.75v5.4Z"/>
    <path class="cls-17" d="m1470.82,429.24c-.33.2-.74.31-1.33.31-.96,0-1.58-.53-1.58-1.75-1.03,1.2-2.41,1.75-3.98,1.75-2.06,0-3.74-.92-3.74-3.17,0-2.56,1.9-3.11,3.83-3.48,2.06-.39,3.81-.26,3.81-1.66,0-1.62-1.33-1.88-2.52-1.88-1.58,0-2.74.48-2.82,2.14h-1.86c.11-2.8,2.28-3.79,4.79-3.79,2.03,0,4.25.46,4.25,3.11v5.82c0,.88,0,1.27.59,1.27.15,0,.33-.02.57-.11v1.44Zm-3.02-5.8c-.72.53-2.12.55-3.37.77-1.22.22-2.28.66-2.28,2.04,0,1.23,1.05,1.66,2.19,1.66,2.45,0,3.46-1.53,3.46-2.56v-1.9Z"/>
    <path class="cls-17" d="m1480.23,421.6c-.29-1.42-1.27-2.25-2.8-2.25-2.69,0-3.52,2.12-3.52,4.42,0,2.08.94,4.14,3.3,4.14,1.79,0,2.87-1.05,3.11-2.76h1.9c-.42,2.76-2.14,4.4-4.99,4.4-3.46,0-5.29-2.41-5.29-5.78s1.75-6.06,5.34-6.06c2.56,0,4.62,1.2,4.88,3.89h-1.92Z"/>
    <path class="cls-17" d="m1484.41,413.66h1.86v9.26l5.16-4.95h2.5l-4.49,4.11,4.81,7.2h-2.36l-3.87-5.91-1.75,1.62v4.29h-1.86v-15.62Z"/>
    <path class="cls-17" d="m1505.31,425.7c-.5,2.49-2.3,3.85-4.84,3.85-3.61,0-5.32-2.5-5.43-5.95,0-3.39,2.23-5.89,5.32-5.89,4,0,5.23,3.74,5.12,6.48h-8.47c-.07,1.97,1.05,3.72,3.52,3.72,1.53,0,2.6-.74,2.93-2.21h1.84Zm-1.79-3.15c-.09-1.77-1.42-3.2-3.26-3.2-1.95,0-3.11,1.47-3.24,3.2h6.5Z"/>
    <path class="cls-17" d="m1507.35,417.97h1.75v2.38h.04c.9-1.82,2.14-2.71,4.16-2.65v1.97c-3,0-4.09,1.71-4.09,4.57v5.03h-1.86v-11.31Z"/>
    <path class="cls-17" d="m1515.84,425.72c.07,1.66,1.51,2.19,3.04,2.19,1.16,0,2.73-.26,2.73-1.68s-1.84-1.68-3.7-2.1c-1.84-.42-3.7-1.03-3.7-3.19,0-2.28,2.25-3.22,4.22-3.22,2.5,0,4.49.79,4.64,3.54h-1.86c-.13-1.44-1.4-1.9-2.63-1.9-1.12,0-2.41.31-2.41,1.44,0,1.33,1.97,1.55,3.7,1.97,1.86.42,3.7,1.03,3.7,3.22,0,2.69-2.52,3.57-4.81,3.57-2.54,0-4.68-1.03-4.79-3.83h1.86Z"/>
    <path class="cls-17" d="m1534.31,417.97h2.25v1.64h-2.25v7.02c0,.85.24,1.01,1.4,1.01h.85v1.64h-1.42c-1.92,0-2.69-.39-2.69-2.47v-7.2h-1.92v-1.64h1.92v-3.39h1.86v3.39Z"/>
    <path class="cls-17" d="m1543.5,417.71c3.59,0,5.49,2.6,5.49,5.93s-1.9,5.91-5.49,5.91-5.49-2.6-5.49-5.91,1.9-5.93,5.49-5.93Zm0,10.2c1.95,0,3.52-1.53,3.52-4.27s-1.58-4.29-3.52-4.29-3.52,1.53-3.52,4.29,1.58,4.27,3.52,4.27Z"/>
    <path class="cls-17" d="m1551.29,413.66h1.86v9.26l5.16-4.95h2.5l-4.49,4.11,4.81,7.2h-2.36l-3.87-5.91-1.75,1.62v4.29h-1.86v-15.62Z"/>
    <path class="cls-17" d="m1572.19,425.7c-.5,2.49-2.3,3.85-4.84,3.85-3.61,0-5.32-2.5-5.43-5.95,0-3.39,2.23-5.89,5.32-5.89,4,0,5.23,3.74,5.12,6.48h-8.47c-.07,1.97,1.05,3.72,3.52,3.72,1.53,0,2.6-.74,2.93-2.21h1.84Zm-1.79-3.15c-.09-1.77-1.42-3.2-3.26-3.2-1.95,0-3.11,1.47-3.24,3.2h6.5Z"/>
    <path class="cls-17" d="m1574.3,417.97h1.75v1.79h.04c.79-1.4,2.06-2.06,3.68-2.06,2.98,0,3.89,1.71,3.89,4.14v7.44h-1.86v-7.66c0-1.38-.88-2.28-2.3-2.28-2.25,0-3.35,1.51-3.35,3.54v6.39h-1.86v-11.31Z"/>
    <path class="cls-17" d="m1587.6,425.72c.07,1.66,1.51,2.19,3.04,2.19,1.16,0,2.73-.26,2.73-1.68s-1.84-1.68-3.7-2.1c-1.84-.42-3.7-1.03-3.7-3.19,0-2.28,2.25-3.22,4.22-3.22,2.5,0,4.49.79,4.64,3.54h-1.86c-.13-1.44-1.4-1.9-2.63-1.9-1.12,0-2.41.31-2.41,1.44,0,1.33,1.97,1.55,3.7,1.97,1.86.42,3.7,1.03,3.7,3.22,0,2.69-2.52,3.57-4.81,3.57-2.54,0-4.68-1.03-4.79-3.83h1.86Z"/>
  </g>
  <g>
    <path class="cls-17" d="m1368.29,447.27h5.67c1.38,0,3.19,0,4.14.57,1.03.61,1.84,1.73,1.84,3.26,0,1.66-.88,2.91-2.32,3.5v.04c1.92.39,2.98,1.84,2.98,3.76,0,2.3-1.64,4.49-4.75,4.49h-7.55v-15.62Zm2.08,6.72h4.16c2.36,0,3.33-.85,3.33-2.5,0-2.17-1.53-2.47-3.33-2.47h-4.16v4.97Zm0,7.16h5.21c1.79,0,2.93-1.09,2.93-2.8,0-2.04-1.64-2.6-3.39-2.6h-4.75v5.41Z"/>
    <path class="cls-17" d="m1393,462.85c-.33.2-.74.31-1.33.31-.96,0-1.58-.53-1.58-1.75-1.03,1.2-2.41,1.75-3.98,1.75-2.06,0-3.74-.92-3.74-3.17,0-2.56,1.9-3.11,3.83-3.48,2.06-.39,3.81-.26,3.81-1.66,0-1.62-1.33-1.88-2.52-1.88-1.58,0-2.74.48-2.82,2.14h-1.86c.11-2.8,2.28-3.79,4.79-3.79,2.03,0,4.25.46,4.25,3.11v5.82c0,.88,0,1.27.59,1.27.15,0,.33-.02.57-.11v1.44Zm-3.02-5.8c-.72.52-2.12.55-3.37.77-1.22.22-2.28.66-2.28,2.04,0,1.22,1.05,1.66,2.19,1.66,2.45,0,3.46-1.53,3.46-2.56v-1.9Z"/>
    <path class="cls-17" d="m1402.41,455.22c-.29-1.42-1.27-2.25-2.8-2.25-2.69,0-3.52,2.12-3.52,4.42,0,2.08.94,4.13,3.3,4.13,1.79,0,2.87-1.05,3.11-2.76h1.9c-.42,2.76-2.14,4.4-4.99,4.4-3.46,0-5.29-2.41-5.29-5.78s1.75-6.06,5.34-6.06c2.56,0,4.62,1.2,4.88,3.89h-1.92Z"/>
    <path class="cls-17" d="m1406.59,447.27h1.86v9.26l5.16-4.95h2.5l-4.49,4.11,4.81,7.2h-2.36l-3.87-5.91-1.75,1.62v4.29h-1.86v-15.62Z"/>
    <path class="cls-17" d="m1427.49,459.31c-.5,2.5-2.3,3.85-4.84,3.85-3.61,0-5.32-2.49-5.43-5.95,0-3.39,2.23-5.89,5.32-5.89,4,0,5.23,3.74,5.12,6.48h-8.47c-.07,1.97,1.05,3.72,3.52,3.72,1.53,0,2.6-.74,2.93-2.21h1.84Zm-1.79-3.15c-.09-1.77-1.42-3.19-3.26-3.19-1.95,0-3.11,1.47-3.24,3.19h6.5Z"/>
    <path class="cls-17" d="m1429.53,451.59h1.75v2.38h.04c.9-1.82,2.14-2.71,4.16-2.65v1.97c-3,0-4.09,1.71-4.09,4.57v5.03h-1.86v-11.31Z"/>
    <path class="cls-17" d="m1438.02,459.33c.07,1.66,1.51,2.19,3.04,2.19,1.16,0,2.73-.26,2.73-1.68s-1.84-1.68-3.7-2.1c-1.84-.42-3.7-1.03-3.7-3.19,0-2.28,2.25-3.22,4.22-3.22,2.5,0,4.49.79,4.64,3.54h-1.86c-.13-1.44-1.4-1.9-2.63-1.9-1.12,0-2.41.31-2.41,1.44,0,1.33,1.97,1.55,3.7,1.97,1.86.42,3.7,1.03,3.7,3.22,0,2.69-2.52,3.57-4.81,3.57-2.54,0-4.68-1.03-4.79-3.83h1.86Z"/>
  </g>
  <g>
    <path class="cls-17" d="m1372.53,478.32h2.3l6.1,15.62h-2.3l-1.71-4.7h-6.61l-1.75,4.7h-2.14l6.1-15.62Zm-1.55,9.17h5.29l-2.6-7.29h-.04l-2.65,7.29Z"/>
    <path class="cls-17" d="m1392.27,493.95h-1.86v-1.53h-.04c-.61,1.25-2.06,1.79-3.61,1.79-3.48,0-5.21-2.76-5.21-5.95s1.71-5.89,5.16-5.89c1.16,0,2.82.44,3.65,1.77h.04v-5.82h1.86v15.62Zm-5.25-1.38c2.49,0,3.46-2.14,3.46-4.27,0-2.23-1.01-4.29-3.57-4.29s-3.39,2.17-3.39,4.38,1.09,4.18,3.5,4.18Z"/>
    <path class="cls-17" d="m1400.24,493.95h-1.99l-4.2-11.31h2.08l3.17,9.43h.04l3.08-9.43h1.95l-4.13,11.31Z"/>
    <path class="cls-17" d="m1408.06,480.6h-1.86v-2.28h1.86v2.28Zm-1.86,2.04h1.86v11.31h-1.86v-11.31Z"/>
    <path class="cls-17" d="m1412.08,490.38c.07,1.66,1.51,2.19,3.04,2.19,1.16,0,2.73-.26,2.73-1.68s-1.84-1.68-3.7-2.1c-1.84-.42-3.7-1.03-3.7-3.19,0-2.28,2.25-3.22,4.22-3.22,2.5,0,4.49.79,4.64,3.54h-1.86c-.13-1.44-1.4-1.9-2.63-1.9-1.12,0-2.41.31-2.41,1.44,0,1.33,1.97,1.55,3.7,1.97,1.86.42,3.7,1.03,3.7,3.22,0,2.69-2.52,3.57-4.81,3.57-2.54,0-4.68-1.03-4.79-3.83h1.86Z"/>
    <path class="cls-17" d="m1426.77,482.37c3.59,0,5.49,2.6,5.49,5.93s-1.9,5.91-5.49,5.91-5.49-2.6-5.49-5.91,1.9-5.93,5.49-5.93Zm0,10.2c1.95,0,3.52-1.53,3.52-4.27s-1.58-4.29-3.52-4.29-3.52,1.53-3.52,4.29,1.58,4.27,3.52,4.27Z"/>
    <path class="cls-17" d="m1434.38,482.64h1.75v2.38h.04c.9-1.82,2.14-2.71,4.16-2.65v1.97c-3,0-4.09,1.71-4.09,4.57v5.03h-1.86v-11.31Z"/>
  </g>
  <g>
    <path class="cls-17" d="m1366.35,507.19h10.26v1.75h-8.18v4.97h7.18v1.75h-7.18v7.16h-2.08v-15.62Z"/>
    <path class="cls-17" d="m1387.97,522.81h-1.75v-1.79h-.04c-.79,1.4-2.06,2.06-3.68,2.06-2.98,0-3.89-1.71-3.89-4.14v-7.44h1.86v7.66c0,1.38.88,2.28,2.3,2.28,2.25,0,3.35-1.51,3.35-3.54v-6.39h1.86v11.31Z"/>
    <path class="cls-17" d="m1393.35,511.5h2.25v1.64h-2.25v7.02c0,.85.24,1.01,1.4,1.01h.85v1.64h-1.42c-1.92,0-2.69-.39-2.69-2.47v-7.2h-1.92v-1.64h1.92v-3.39h1.86v3.39Z"/>
    <path class="cls-17" d="m1407.03,522.81h-1.75v-1.79h-.04c-.79,1.4-2.06,2.06-3.68,2.06-2.98,0-3.89-1.71-3.89-4.14v-7.44h1.86v7.66c0,1.38.88,2.28,2.3,2.28,2.25,0,3.35-1.51,3.35-3.54v-6.39h1.86v11.31Z"/>
    <path class="cls-17" d="m1409.77,511.5h1.75v2.38h.04c.9-1.82,2.14-2.71,4.16-2.65v1.97c-3,0-4.09,1.71-4.09,4.57v5.03h-1.86v-11.31Z"/>
    <path class="cls-17" d="m1426.38,519.22c-.5,2.5-2.3,3.85-4.84,3.85-3.61,0-5.32-2.49-5.43-5.95,0-3.39,2.23-5.89,5.32-5.89,4,0,5.23,3.74,5.12,6.48h-8.47c-.07,1.97,1.05,3.72,3.52,3.72,1.53,0,2.6-.74,2.93-2.21h1.84Zm-1.79-3.15c-.09-1.77-1.42-3.19-3.26-3.19-1.95,0-3.11,1.47-3.24,3.19h6.5Z"/>
    <path class="cls-17" d="m1438.42,508.94h-5.21v-1.75h12.49v1.75h-5.21v13.87h-2.08v-13.87Z"/>
    <path class="cls-17" d="m1454.35,519.22c-.5,2.5-2.3,3.85-4.84,3.85-3.61,0-5.32-2.49-5.43-5.95,0-3.39,2.23-5.89,5.32-5.89,4,0,5.23,3.74,5.12,6.48h-8.47c-.07,1.97,1.05,3.72,3.52,3.72,1.53,0,2.6-.74,2.93-2.21h1.84Zm-1.79-3.15c-.09-1.77-1.42-3.19-3.26-3.19-1.95,0-3.11,1.47-3.24,3.19h6.5Z"/>
    <path class="cls-17" d="m1466.47,522.77c-.33.2-.74.31-1.33.31-.96,0-1.58-.53-1.58-1.75-1.03,1.2-2.41,1.75-3.98,1.75-2.06,0-3.74-.92-3.74-3.17,0-2.56,1.9-3.11,3.83-3.48,2.06-.39,3.81-.26,3.81-1.66,0-1.62-1.33-1.88-2.52-1.88-1.58,0-2.74.48-2.82,2.14h-1.86c.11-2.8,2.28-3.79,4.79-3.79,2.04,0,4.25.46,4.25,3.11v5.82c0,.88,0,1.27.59,1.27.15,0,.33-.02.57-.11v1.44Zm-3.02-5.8c-.72.52-2.12.55-3.37.77-1.22.22-2.28.66-2.28,2.04,0,1.22,1.05,1.66,2.19,1.66,2.45,0,3.46-1.53,3.46-2.56v-1.9Z"/>
    <path class="cls-17" d="m1468.2,511.5h1.75v1.66h.04c.83-1.27,2.1-1.93,3.65-1.93,1.38,0,2.65.55,3.11,1.93.77-1.2,2.1-1.93,3.54-1.93,2.25,0,3.76.94,3.76,3.28v8.29h-1.86v-7.42c0-1.4-.37-2.52-2.19-2.52s-2.95,1.14-2.95,2.89v7.05h-1.86v-7.42c0-1.47-.46-2.52-2.12-2.52-2.21,0-3.02,2.03-3.02,2.89v7.05h-1.86v-11.31Z"/>
  </g>
  <g>
    <path class="cls-17" d="m1366.35,532.69h7.35c2.93,0,4.75,1.6,4.75,4.09,0,1.88-.83,3.44-2.71,3.96v.04c1.82.35,2.19,1.69,2.34,3.22.13,1.53.04,3.24.92,4.31h-2.32c-.59-.63-.26-2.32-.57-3.85-.22-1.53-.59-2.82-2.6-2.82h-5.08v6.67h-2.08v-15.62Zm6.41,7.2c1.95,0,3.61-.5,3.61-2.78,0-1.53-.83-2.67-2.78-2.67h-5.16v5.45h4.33Z"/>
    <path class="cls-17" d="m1390.68,544.73c-.5,2.5-2.3,3.85-4.84,3.85-3.61,0-5.32-2.49-5.43-5.95,0-3.39,2.23-5.89,5.32-5.89,4,0,5.23,3.74,5.12,6.48h-8.47c-.07,1.97,1.05,3.72,3.52,3.72,1.53,0,2.6-.74,2.93-2.21h1.84Zm-1.79-3.15c-.09-1.77-1.42-3.19-3.26-3.19-1.95,0-3.11,1.47-3.24,3.19h6.5Z"/>
    <path class="cls-17" d="m1393.92,544.75c.07,1.66,1.51,2.19,3.04,2.19,1.16,0,2.73-.26,2.73-1.68s-1.84-1.68-3.7-2.1c-1.84-.42-3.7-1.03-3.7-3.19,0-2.28,2.25-3.22,4.22-3.22,2.5,0,4.49.79,4.64,3.54h-1.86c-.13-1.44-1.4-1.9-2.63-1.9-1.12,0-2.41.31-2.41,1.44,0,1.33,1.97,1.55,3.7,1.97,1.86.42,3.7,1.03,3.7,3.22,0,2.69-2.52,3.57-4.81,3.57-2.54,0-4.68-1.03-4.79-3.83h1.86Z"/>
    <path class="cls-17" d="m1406.31,537.01h2.25v1.64h-2.25v7.02c0,.85.24,1.01,1.4,1.01h.85v1.64h-1.42c-1.92,0-2.69-.39-2.69-2.47v-7.2h-1.92v-1.64h1.92v-3.39h1.86v3.39Z"/>
    <path class="cls-17" d="m1421.58,536.74c3.59,0,5.49,2.6,5.49,5.93s-1.9,5.91-5.49,5.91-5.49-2.6-5.49-5.91,1.9-5.93,5.49-5.93Zm0,10.2c1.95,0,3.52-1.53,3.52-4.27s-1.58-4.29-3.52-4.29-3.52,1.53-3.52,4.29,1.58,4.27,3.52,4.27Z"/>
    <path class="cls-17" d="m1430.03,538.65h-1.9v-1.64h1.9v-1.68c0-1.84,1.09-2.8,3.13-2.8.35,0,.85.07,1.2.17v1.62c-.33-.11-.72-.15-1.05-.15-.9,0-1.42.28-1.42,1.27v1.58h2.19v1.64h-2.19v9.67h-1.86v-9.67Z"/>
    <path class="cls-17" d="m1445.68,534.44h-5.21v-1.75h12.49v1.75h-5.21v13.87h-2.08v-13.87Z"/>
    <path class="cls-17" d="m1461.61,544.73c-.5,2.5-2.3,3.85-4.84,3.85-3.61,0-5.32-2.49-5.43-5.95,0-3.39,2.23-5.89,5.32-5.89,4,0,5.23,3.74,5.12,6.48h-8.47c-.07,1.97,1.05,3.72,3.52,3.72,1.53,0,2.6-.74,2.93-2.21h1.84Zm-1.79-3.15c-.09-1.77-1.42-3.19-3.26-3.19-1.95,0-3.11,1.47-3.24,3.19h6.5Z"/>
    <path class="cls-17" d="m1473.74,548.27c-.33.2-.74.31-1.33.31-.96,0-1.58-.53-1.58-1.75-1.03,1.2-2.41,1.75-3.98,1.75-2.06,0-3.74-.92-3.74-3.17,0-2.56,1.9-3.11,3.83-3.48,2.06-.39,3.81-.26,3.81-1.66,0-1.62-1.33-1.88-2.52-1.88-1.58,0-2.74.48-2.82,2.14h-1.86c.11-2.8,2.28-3.79,4.79-3.79,2.04,0,4.25.46,4.25,3.11v5.82c0,.88,0,1.27.59,1.27.15,0,.33-.02.57-.11v1.44Zm-3.02-5.8c-.72.52-2.12.55-3.37.77-1.22.22-2.28.66-2.28,2.04,0,1.22,1.05,1.66,2.19,1.66,2.45,0,3.46-1.53,3.46-2.56v-1.9Z"/>
    <path class="cls-17" d="m1475.47,537.01h1.75v1.66h.04c.83-1.27,2.1-1.93,3.65-1.93,1.38,0,2.65.55,3.11,1.93.77-1.2,2.1-1.93,3.54-1.93,2.25,0,3.76.94,3.76,3.28v8.29h-1.86v-7.42c0-1.4-.37-2.52-2.19-2.52s-2.95,1.14-2.95,2.89v7.05h-1.86v-7.42c0-1.47-.46-2.52-2.12-2.52-2.21,0-3.02,2.03-3.02,2.89v7.05h-1.86v-11.31Z"/>
  </g>
  <g>
    <path class="cls-17" d="m1366.35,559.01h10.26v1.75h-8.18v4.97h7.18v1.75h-7.18v7.16h-2.08v-15.62Z"/>
    <path class="cls-17" d="m1383.48,563.06c3.59,0,5.49,2.6,5.49,5.93s-1.9,5.91-5.49,5.91-5.49-2.6-5.49-5.91,1.9-5.93,5.49-5.93Zm0,10.2c1.95,0,3.52-1.53,3.52-4.27s-1.58-4.29-3.52-4.29-3.52,1.53-3.52,4.29,1.58,4.27,3.52,4.27Z"/>
    <path class="cls-17" d="m1400.53,574.63h-1.75v-1.79h-.04c-.79,1.4-2.06,2.06-3.68,2.06-2.98,0-3.89-1.71-3.89-4.14v-7.44h1.86v7.66c0,1.38.88,2.28,2.3,2.28,2.25,0,3.35-1.51,3.35-3.54v-6.39h1.86v11.31Z"/>
    <path class="cls-17" d="m1403.33,563.32h1.75v1.79h.04c.79-1.4,2.06-2.06,3.68-2.06,2.98,0,3.89,1.71,3.89,4.14v7.44h-1.86v-7.66c0-1.38-.88-2.28-2.3-2.28-2.25,0-3.35,1.51-3.35,3.54v6.39h-1.86v-11.31Z"/>
    <path class="cls-17" d="m1425.61,574.63h-1.86v-1.53h-.04c-.61,1.25-2.06,1.79-3.61,1.79-3.48,0-5.21-2.76-5.21-5.95s1.71-5.89,5.16-5.89c1.16,0,2.82.44,3.65,1.77h.04v-5.82h1.86v15.62Zm-5.25-1.38c2.49,0,3.46-2.14,3.46-4.27,0-2.23-1.01-4.29-3.57-4.29s-3.39,2.17-3.39,4.38,1.09,4.18,3.5,4.18Z"/>
    <path class="cls-17" d="m1430.45,561.29h-1.86v-2.28h1.86v2.28Zm-1.86,2.04h1.86v11.31h-1.86v-11.31Z"/>
    <path class="cls-17" d="m1433.34,563.32h1.75v1.79h.04c.79-1.4,2.06-2.06,3.68-2.06,2.98,0,3.89,1.71,3.89,4.14v7.44h-1.86v-7.66c0-1.38-.88-2.28-2.3-2.28-2.25,0-3.35,1.51-3.35,3.54v6.39h-1.86v-11.31Z"/>
    <path class="cls-17" d="m1455.27,573.67c0,3.68-1.68,5.56-5.25,5.56-2.12,0-4.57-.85-4.68-3.33h1.86c.09,1.36,1.71,1.84,2.93,1.84,2.43,0,3.39-1.75,3.39-4.29v-.74h-.04c-.61,1.38-2.1,2.06-3.52,2.06-3.37,0-5.05-2.65-5.05-5.73,0-2.67,1.31-5.97,5.23-5.97,1.42,0,2.69.63,3.37,1.88h.02v-1.62h1.75v10.35Zm-1.84-4.92c0-1.99-.88-4.05-3.22-4.05s-3.35,1.95-3.35,4.11c0,2.04.74,4.31,3.2,4.31s3.37-2.25,3.37-4.38Z"/>
    <path class="cls-17" d="m1468,560.76h-5.21v-1.75h12.49v1.75h-5.21v13.87h-2.08v-13.87Z"/>
    <path class="cls-17" d="m1483.94,571.05c-.5,2.5-2.3,3.85-4.84,3.85-3.61,0-5.32-2.49-5.43-5.95,0-3.39,2.23-5.89,5.32-5.89,4,0,5.23,3.74,5.12,6.48h-8.47c-.07,1.97,1.05,3.72,3.52,3.72,1.53,0,2.6-.74,2.93-2.21h1.84Zm-1.79-3.15c-.09-1.77-1.42-3.19-3.26-3.19-1.95,0-3.11,1.47-3.24,3.19h6.5Z"/>
    <path class="cls-17" d="m1496.06,574.59c-.33.2-.74.31-1.33.31-.96,0-1.58-.53-1.58-1.75-1.03,1.2-2.41,1.75-3.98,1.75-2.06,0-3.74-.92-3.74-3.17,0-2.56,1.9-3.11,3.83-3.48,2.06-.39,3.81-.26,3.81-1.66,0-1.62-1.33-1.88-2.52-1.88-1.58,0-2.74.48-2.82,2.14h-1.86c.11-2.8,2.28-3.79,4.79-3.79,2.03,0,4.25.46,4.25,3.11v5.82c0,.88,0,1.27.59,1.27.15,0,.33-.02.57-.11v1.44Zm-3.02-5.8c-.72.52-2.12.55-3.37.77-1.22.22-2.28.66-2.28,2.04,0,1.22,1.05,1.66,2.19,1.66,2.45,0,3.46-1.53,3.46-2.56v-1.9Z"/>
    <path class="cls-17" d="m1497.79,563.32h1.75v1.66h.04c.83-1.27,2.1-1.93,3.65-1.93,1.38,0,2.65.55,3.11,1.93.77-1.2,2.1-1.93,3.54-1.93,2.25,0,3.76.94,3.76,3.28v8.29h-1.86v-7.42c0-1.4-.37-2.52-2.19-2.52s-2.95,1.14-2.95,2.89v7.05h-1.86v-7.42c0-1.47-.46-2.52-2.12-2.52-2.21,0-3.02,2.03-3.02,2.89v7.05h-1.86v-11.31Z"/>
  </g>
  <g>
    <path class="cls-17" d="m1366.35,618.75h10.26v1.75h-8.18v4.97h7.18v1.75h-7.18v7.16h-2.08v-15.62Z"/>
    <path class="cls-17" d="m1378.71,618.75h1.86v15.62h-1.86v-15.62Z"/>
    <path class="cls-17" d="m1393.48,634.33c-.33.2-.74.31-1.33.31-.96,0-1.58-.53-1.58-1.75-1.03,1.2-2.41,1.75-3.98,1.75-2.06,0-3.74-.92-3.74-3.17,0-2.56,1.9-3.11,3.83-3.48,2.06-.39,3.81-.26,3.81-1.66,0-1.62-1.33-1.88-2.52-1.88-1.58,0-2.74.48-2.82,2.14h-1.86c.11-2.8,2.28-3.79,4.79-3.79,2.04,0,4.25.46,4.25,3.11v5.82c0,.88,0,1.27.59,1.27.15,0,.33-.02.57-.11v1.44Zm-3.02-5.8c-.72.52-2.12.55-3.37.77-1.22.22-2.28.66-2.28,2.04,0,1.22,1.05,1.66,2.19,1.66,2.45,0,3.46-1.53,3.46-2.56v-1.9Z"/>
    <path class="cls-17" d="m1395.15,623.06h1.75v2.38h.04c.9-1.82,2.14-2.71,4.16-2.65v1.97c-3,0-4.09,1.71-4.09,4.57v5.03h-1.86v-11.31Z"/>
    <path class="cls-17" d="m1411.76,630.78c-.5,2.5-2.3,3.85-4.84,3.85-3.61,0-5.32-2.49-5.43-5.95,0-3.39,2.23-5.89,5.32-5.89,4,0,5.23,3.74,5.12,6.48h-8.47c-.07,1.97,1.05,3.72,3.52,3.72,1.53,0,2.6-.74,2.93-2.21h1.84Zm-1.79-3.15c-.09-1.77-1.42-3.19-3.26-3.19-1.95,0-3.11,1.47-3.24,3.19h6.5Z"/>
    <path class="cls-17" d="m1420.25,618.75h2.08v13.87h8.27v1.75h-10.35v-15.62Z"/>
    <path class="cls-17" d="m1442.13,634.33c-.33.2-.74.31-1.33.31-.96,0-1.58-.53-1.58-1.75-1.03,1.2-2.41,1.75-3.98,1.75-2.06,0-3.74-.92-3.74-3.17,0-2.56,1.9-3.11,3.83-3.48,2.06-.39,3.81-.26,3.81-1.66,0-1.62-1.33-1.88-2.52-1.88-1.58,0-2.74.48-2.82,2.14h-1.86c.11-2.8,2.28-3.79,4.79-3.79,2.03,0,4.25.46,4.25,3.11v5.82c0,.88,0,1.27.59,1.27.15,0,.33-.02.57-.11v1.44Zm-3.02-5.8c-.72.52-2.12.55-3.37.77-1.22.22-2.28.66-2.28,2.04,0,1.22,1.05,1.66,2.19,1.66,2.45,0,3.46-1.53,3.46-2.56v-1.9Z"/>
    <path class="cls-17" d="m1443.93,618.75h1.86v5.84h.04c.61-1.25,2.06-1.79,3.61-1.79,3.48,0,5.21,2.76,5.21,5.95s-1.71,5.89-5.16,5.89c-1.16,0-2.82-.44-3.65-1.77h-.04v1.51h-1.86v-15.62Zm5.25,5.69c-2.5,0-3.46,2.14-3.46,4.27,0,2.23,1.01,4.29,3.57,4.29s3.39-2.17,3.39-4.38-1.09-4.18-3.5-4.18Z"/>
    <path class="cls-17" d="m1457.98,630.81c.07,1.66,1.51,2.19,3.04,2.19,1.16,0,2.73-.26,2.73-1.68s-1.84-1.68-3.7-2.1c-1.84-.42-3.7-1.03-3.7-3.19,0-2.28,2.25-3.22,4.22-3.22,2.5,0,4.49.79,4.64,3.54h-1.86c-.13-1.44-1.4-1.9-2.63-1.9-1.12,0-2.41.31-2.41,1.44,0,1.33,1.97,1.55,3.7,1.97,1.86.42,3.7,1.03,3.7,3.22,0,2.69-2.52,3.57-4.81,3.57-2.54,0-4.68-1.03-4.79-3.83h1.86Z"/>
  </g>
  <g>
    <path class="cls-17" d="m1366.35,689.64h10.26v1.75h-8.18v4.97h7.18v1.75h-7.18v7.16h-2.08v-15.62Z"/>
    <path class="cls-17" d="m1378.71,689.64h1.86v15.62h-1.86v-15.62Z"/>
    <path class="cls-17" d="m1393.48,705.22c-.33.2-.74.31-1.33.31-.96,0-1.58-.53-1.58-1.75-1.03,1.2-2.41,1.75-3.98,1.75-2.06,0-3.74-.92-3.74-3.17,0-2.56,1.9-3.11,3.83-3.48,2.06-.39,3.81-.26,3.81-1.66,0-1.62-1.33-1.88-2.52-1.88-1.58,0-2.74.48-2.82,2.14h-1.86c.11-2.8,2.28-3.79,4.79-3.79,2.04,0,4.25.46,4.25,3.11v5.82c0,.88,0,1.27.59,1.27.15,0,.33-.02.57-.11v1.44Zm-3.02-5.8c-.72.52-2.12.55-3.37.77-1.22.22-2.28.66-2.28,2.04,0,1.22,1.05,1.66,2.19,1.66,2.45,0,3.46-1.53,3.46-2.56v-1.9Z"/>
    <path class="cls-17" d="m1395.15,693.95h1.75v2.38h.04c.9-1.82,2.14-2.71,4.16-2.65v1.97c-3,0-4.09,1.71-4.09,4.57v5.03h-1.86v-11.31Z"/>
    <path class="cls-17" d="m1411.76,701.67c-.5,2.5-2.3,3.85-4.84,3.85-3.61,0-5.32-2.49-5.43-5.95,0-3.39,2.23-5.89,5.32-5.89,4,0,5.23,3.74,5.12,6.48h-8.47c-.07,1.97,1.05,3.72,3.52,3.72,1.53,0,2.6-.74,2.93-2.21h1.84Zm-1.79-3.15c-.09-1.77-1.42-3.19-3.26-3.19-1.95,0-3.11,1.47-3.24,3.19h6.5Z"/>
    <path class="cls-17" d="m1426.4,705.26h-2.36l-5.51-15.62h2.25l4.46,13.54h.04l4.51-13.54h2.17l-5.56,15.62Z"/>
    <path class="cls-17" d="m1444.61,694.34c-.44-2.21-2.21-3.33-4.38-3.33-3.72,0-5.29,3.06-5.29,6.32,0,3.57,1.58,6.54,5.32,6.54,2.74,0,4.31-1.92,4.51-4.51h2.08c-.39,3.89-2.82,6.26-6.76,6.26-4.86,0-7.22-3.59-7.22-8.14s2.58-8.23,7.4-8.23c3.26,0,5.95,1.75,6.43,5.08h-2.08Z"/>
    <path class="cls-17" d="m1455.51,689.64h10.26v1.75h-8.18v4.97h7.18v1.75h-7.18v7.16h-2.08v-15.62Z"/>
    <path class="cls-17" d="m1477.13,705.26h-1.75v-1.79h-.04c-.79,1.4-2.06,2.06-3.68,2.06-2.98,0-3.89-1.71-3.89-4.14v-7.44h1.86v7.66c0,1.38.88,2.28,2.3,2.28,2.25,0,3.35-1.51,3.35-3.54v-6.39h1.86v11.31Z"/>
    <path class="cls-17" d="m1479.93,693.95h1.75v1.79h.04c.79-1.4,2.06-2.06,3.68-2.06,2.98,0,3.89,1.71,3.89,4.14v7.44h-1.86v-7.66c0-1.38-.88-2.28-2.3-2.28-2.25,0-3.35,1.51-3.35,3.54v6.39h-1.86v-11.31Z"/>
    <path class="cls-17" d="m1502.21,705.26h-1.86v-1.53h-.04c-.61,1.25-2.06,1.79-3.61,1.79-3.48,0-5.21-2.76-5.21-5.95s1.71-5.89,5.16-5.89c1.16,0,2.82.44,3.65,1.77h.04v-5.82h1.86v15.62Zm-5.25-1.38c2.5,0,3.46-2.14,3.46-4.27,0-2.23-1.01-4.29-3.57-4.29s-3.39,2.17-3.39,4.38,1.09,4.18,3.5,4.18Z"/>
  </g>
  <g>
    <path class="cls-17" d="m1366.35,771.06h10.26v1.75h-8.18v4.97h7.18v1.75h-7.18v7.16h-2.08v-15.62Z"/>
    <path class="cls-17" d="m1378.71,771.06h1.86v15.62h-1.86v-15.62Z"/>
    <path class="cls-17" d="m1393.48,786.64c-.33.2-.74.31-1.33.31-.96,0-1.58-.53-1.58-1.75-1.03,1.2-2.41,1.75-3.98,1.75-2.06,0-3.74-.92-3.74-3.17,0-2.56,1.9-3.11,3.83-3.48,2.06-.39,3.81-.26,3.81-1.66,0-1.62-1.33-1.88-2.52-1.88-1.58,0-2.74.48-2.82,2.14h-1.86c.11-2.8,2.28-3.79,4.79-3.79,2.04,0,4.25.46,4.25,3.11v5.82c0,.88,0,1.27.59,1.27.15,0,.33-.02.57-.11v1.44Zm-3.02-5.8c-.72.52-2.12.55-3.37.77-1.22.22-2.28.66-2.28,2.04,0,1.22,1.05,1.66,2.19,1.66,2.45,0,3.46-1.53,3.46-2.56v-1.9Z"/>
    <path class="cls-17" d="m1395.15,775.37h1.75v2.38h.04c.9-1.82,2.14-2.71,4.16-2.65v1.97c-3,0-4.09,1.71-4.09,4.57v5.03h-1.86v-11.31Z"/>
    <path class="cls-17" d="m1411.76,783.09c-.5,2.5-2.3,3.85-4.84,3.85-3.61,0-5.32-2.49-5.43-5.95,0-3.39,2.23-5.89,5.32-5.89,4,0,5.23,3.74,5.12,6.48h-8.47c-.07,1.97,1.05,3.72,3.52,3.72,1.53,0,2.6-.74,2.93-2.21h1.84Zm-1.79-3.15c-.09-1.77-1.42-3.19-3.26-3.19-1.95,0-3.11,1.47-3.24,3.19h6.5Z"/>
    <path class="cls-17" d="m1420.25,771.06h10.26v1.75h-8.18v4.97h7.18v1.75h-7.18v7.16h-2.08v-15.62Z"/>
    <path class="cls-17" d="m1437.39,775.1c3.59,0,5.49,2.6,5.49,5.93s-1.9,5.91-5.49,5.91-5.49-2.6-5.49-5.91,1.9-5.93,5.49-5.93Zm0,10.2c1.95,0,3.52-1.53,3.52-4.27s-1.58-4.29-3.52-4.29-3.52,1.53-3.52,4.29,1.58,4.27,3.52,4.27Z"/>
    <path class="cls-17" d="m1454.43,786.68h-1.75v-1.79h-.04c-.79,1.4-2.06,2.06-3.68,2.06-2.98,0-3.89-1.71-3.89-4.14v-7.44h1.86v7.66c0,1.38.88,2.28,2.3,2.28,2.25,0,3.35-1.51,3.35-3.54v-6.39h1.86v11.31Z"/>
    <path class="cls-17" d="m1457.24,775.37h1.75v1.79h.04c.79-1.4,2.06-2.06,3.68-2.06,2.98,0,3.89,1.71,3.89,4.14v7.44h-1.86v-7.66c0-1.38-.88-2.28-2.3-2.28-2.25,0-3.35,1.51-3.35,3.54v6.39h-1.86v-11.31Z"/>
    <path class="cls-17" d="m1479.51,786.68h-1.86v-1.53h-.04c-.61,1.25-2.06,1.79-3.61,1.79-3.48,0-5.21-2.76-5.21-5.95s1.71-5.89,5.16-5.89c1.16,0,2.82.44,3.65,1.77h.04v-5.82h1.86v15.62Zm-5.25-1.38c2.5,0,3.46-2.14,3.46-4.27,0-2.23-1.01-4.29-3.57-4.29s-3.39,2.17-3.39,4.38,1.09,4.18,3.5,4.18Z"/>
    <path class="cls-17" d="m1492.4,786.64c-.33.2-.74.31-1.33.31-.96,0-1.58-.53-1.58-1.75-1.03,1.2-2.41,1.75-3.98,1.75-2.06,0-3.74-.92-3.74-3.17,0-2.56,1.9-3.11,3.83-3.48,2.06-.39,3.81-.26,3.81-1.66,0-1.62-1.33-1.88-2.52-1.88-1.58,0-2.74.48-2.82,2.14h-1.86c.11-2.8,2.28-3.79,4.79-3.79,2.04,0,4.25.46,4.25,3.11v5.82c0,.88,0,1.27.59,1.27.15,0,.33-.02.57-.11v1.44Zm-3.02-5.8c-.72.52-2.12.55-3.37.77-1.22.22-2.28.66-2.28,2.04,0,1.22,1.05,1.66,2.19,1.66,2.45,0,3.46-1.53,3.46-2.56v-1.9Z"/>
    <path class="cls-17" d="m1496.72,775.37h2.25v1.64h-2.25v7.02c0,.85.24,1.01,1.4,1.01h.85v1.64h-1.42c-1.92,0-2.69-.39-2.69-2.47v-7.2h-1.92v-1.64h1.92v-3.39h1.86v3.39Z"/>
    <path class="cls-17" d="m1503,773.33h-1.86v-2.28h1.86v2.28Zm-1.86,2.04h1.86v11.31h-1.86v-11.31Z"/>
    <path class="cls-17" d="m1510.77,775.1c3.59,0,5.49,2.6,5.49,5.93s-1.9,5.91-5.49,5.91-5.49-2.6-5.49-5.91,1.9-5.93,5.49-5.93Zm0,10.2c1.95,0,3.52-1.53,3.52-4.27s-1.58-4.29-3.52-4.29-3.52,1.53-3.52,4.29,1.58,4.27,3.52,4.27Z"/>
    <path class="cls-17" d="m1518.45,775.37h1.75v1.79h.04c.79-1.4,2.06-2.06,3.68-2.06,2.98,0,3.89,1.71,3.89,4.14v7.44h-1.86v-7.66c0-1.38-.88-2.28-2.3-2.28-2.25,0-3.35,1.51-3.35,3.54v6.39h-1.86v-11.31Z"/>
  </g>
</svg>