<?xml version="1.0" encoding="UTF-8"?>
<svg id="Layer_2" data-name="Layer 2" xmlns="http://www.w3.org/2000/svg" viewBox="0 0 1272.28 830.09">
  <defs>
    <style>
      .cls-1 {
        fill: #44051e;
      }

      .cls-1, .cls-2, .cls-3, .cls-4, .cls-5, .cls-6, .cls-7, .cls-8, .cls-9, .cls-10, .cls-11, .cls-12, .cls-13, .cls-14, .cls-15 {
        stroke: #fff;
        stroke-miterlimit: 10;
      }

      .cls-1, .cls-4, .cls-5, .cls-6, .cls-7, .cls-8, .cls-9, .cls-10, .cls-11, .cls-12, .cls-13, .cls-15 {
        stroke-width: .68px;
      }

      .cls-16 {
        fill: #fff;
      }

      .cls-17 {
        fill: #6ba951;
      }

      .cls-2 {
        stroke-width: 2.16px;
      }

      .cls-2, .cls-3 {
        fill: none;
      }

      .cls-18 {
        fill: #cd0404;
      }

      .cls-19 {
        fill: #7d9f9b;
      }

      .cls-3 {
        stroke-width: 1.82px;
      }

      .cls-20 {
        fill: #f1b06a;
      }

      .cls-4 {
        fill: #fce5ec;
      }

      .cls-5 {
        fill: #750933;
      }

      .cls-6 {
        fill: #f393a9;
      }

      .cls-7 {
        fill: #5c0728;
      }

      .cls-8 {
        fill: #e9426d;
      }

      .cls-9 {
        fill: #a0154e;
      }

      .cls-10 {
        fill: #900b3f;
      }

      .cls-21 {
        fill: #ea9899;
      }

      .cls-22 {
        fill: #1457cd;
      }

      .cls-11 {
        fill: #ee6b89;
      }

      .cls-12 {
        fill: #ad0d49;
      }

      .cls-13 {
        fill: #e7125e;
      }

      .cls-14 {
        fill: #595959;
      }

      .cls-15 {
        fill: #f8bccb;
      }
    </style>
  </defs>
  <g id="Layer_1-2" data-name="Layer 1">
    <g>
      <g>
        <line class="cls-3" x1="903.43" y1="169.86" x2="1019.48" y2="169.86"/>
        <path class="cls-16" d="m1019.13,176.72c3.79,0,6.86-3.07,6.86-6.86s-3.07-6.86-6.86-6.86-6.86,3.07-6.86,6.86,3.07,6.86,6.86,6.86Z"/>
      </g>
      <g>
        <line class="cls-3" x1="903.43" y1="228.75" x2="1019.48" y2="228.75"/>
        <path class="cls-16" d="m1019.13,235.61c3.79,0,6.86-3.07,6.86-6.86s-3.07-6.86-6.86-6.86-6.86,3.07-6.86,6.86,3.07,6.86,6.86,6.86Z"/>
      </g>
      <g>
        <line class="cls-3" x1="903.43" y1="331.46" x2="1019.48" y2="331.46"/>
        <path class="cls-16" d="m1019.13,338.31c3.79,0,6.86-3.07,6.86-6.86s-3.07-6.86-6.86-6.86-6.86,3.07-6.86,6.86,3.07,6.86,6.86,6.86Z"/>
      </g>
      <g>
        <polyline class="cls-3" points="907.41 417.92 993.36 417.92 1022.83 364.72"/>
        <path class="cls-16" d="m1028.66,368.35c1.84-3.31.64-7.49-2.68-9.32s-7.49-.64-9.32,2.68c-1.83,3.31-.64,7.49,2.68,9.32,3.31,1.83,7.49.64,9.32-2.68Z"/>
      </g>
      <g>
        <polyline class="cls-3" points="903.43 439.75 1000.52 439.75 1022.38 406.85"/>
        <path class="cls-16" d="m1027.9,410.94c2.1-3.15,1.24-7.41-1.92-9.51s-7.41-1.24-9.51,1.92-1.24,7.41,1.92,9.51,7.41,1.24,9.51-1.92Z"/>
      </g>
      <g>
        <polyline class="cls-3" points="899.45 459.71 1002.97 458.74 1021.91 435.21"/>
        <path class="cls-16" d="m1027.03,439.77c2.37-2.95,1.91-7.27-1.04-9.64s-7.27-1.91-9.64,1.04-1.91,7.27,1.04,9.64c2.95,2.37,7.27,1.91,9.64-1.04Z"/>
      </g>
      <g>
        <polyline class="cls-3" points="894.81 475.77 1001.99 475.77 1020.22 466.21"/>
        <path class="cls-16" d="m1023.1,472.44c3.35-1.76,4.65-5.9,2.89-9.26-1.76-3.35-5.9-4.65-9.26-2.89-3.35,1.76-4.65,5.9-2.89,9.26,1.76,3.35,5.9,4.65,9.26,2.89Z"/>
      </g>
      <g>
        <line class="cls-3" x1="899.45" y1="487.73" x2="1019.48" y2="487.73"/>
        <path class="cls-16" d="m1019.13,494.58c3.79,0,6.86-3.07,6.86-6.86s-3.07-6.86-6.86-6.86-6.86,3.07-6.86,6.86,3.07,6.86,6.86,6.86Z"/>
      </g>
      <g>
        <line class="cls-3" x1="903.43" y1="506.41" x2="1019.48" y2="506.41"/>
        <path class="cls-16" d="m1019.13,513.27c3.79,0,6.86-3.07,6.86-6.86s-3.07-6.86-6.86-6.86-6.86,3.07-6.86,6.86,3.07,6.86,6.86,6.86Z"/>
      </g>
      <g>
        <line class="cls-3" x1="903.43" y1="532.67" x2="1019.48" y2="532.67"/>
        <path class="cls-16" d="m1019.13,539.53c3.79,0,6.86-3.07,6.86-6.86s-3.07-6.86-6.86-6.86-6.86,3.07-6.86,6.86,3.07,6.86,6.86,6.86Z"/>
      </g>
      <g>
        <line class="cls-3" x1="903.43" y1="601.15" x2="1019.48" y2="601.15"/>
        <path class="cls-16" d="m1019.13,608.01c3.79,0,6.86-3.07,6.86-6.86s-3.07-6.86-6.86-6.86-6.86,3.07-6.86,6.86,3.07,6.86,6.86,6.86Z"/>
      </g>
      <g>
        <line class="cls-3" x1="903.43" y1="680.97" x2="1019.48" y2="680.97"/>
        <path class="cls-16" d="m1019.13,687.83c3.79,0,6.86-3.07,6.86-6.86s-3.07-6.86-6.86-6.86-6.86,3.07-6.86,6.86,3.07,6.86,6.86,6.86Z"/>
      </g>
      <g>
        <line class="cls-3" x1="903.43" y1="748.56" x2="1019.48" y2="748.56"/>
        <path class="cls-16" d="m1019.13,755.41c3.79,0,6.86-3.07,6.86-6.86s-3.07-6.86-6.86-6.86-6.86,3.07-6.86,6.86,3.07,6.86,6.86,6.86Z"/>
      </g>
      <line class="cls-2" x1="106.92" y1="586.68" x2="919.48" y2="586.68"/>
      <path class="cls-14" d="m42.61,813.81c4.86,0,5.16,4.46,5.16,7.9s-.31,7.88-5.16,7.88-5.16-4.46-5.16-7.88.31-7.9,5.16-7.9Zm0,14.13c3.17,0,3.19-3.94,3.19-6.26s-.02-6.24-3.19-6.24-3.19,3.94-3.19,6.24.02,6.26,3.19,6.26Z"/>
      <g>
        <path class="cls-14" d="m222.18,829.33h-1.86v-11.12h-4.03v-1.49c2.12,0,4.05-.57,4.46-2.91h1.42v15.51Z"/>
        <path class="cls-14" d="m232.64,813.81c4.86,0,5.16,4.46,5.16,7.9s-.31,7.88-5.16,7.88-5.16-4.46-5.16-7.88.31-7.9,5.16-7.9Zm0,14.13c3.17,0,3.19-3.94,3.19-6.26s-.02-6.24-3.19-6.24-3.19,3.94-3.19,6.24.02,6.26,3.19,6.26Z"/>
      </g>
      <g>
        <path class="cls-14" d="m388.85,819.3c-.15-3.15,1.71-5.49,4.99-5.49,2.71,0,4.86,1.58,4.86,4.46,0,2.74-1.84,4.11-3.76,5.32-1.95,1.18-3.98,2.17-4.35,4.09h7.96v1.64h-10.13c.31-3.68,2.17-4.99,4.35-6.35,2.62-1.62,3.96-2.58,3.96-4.73,0-1.68-1.36-2.8-3-2.8-2.17,0-3.08,1.99-3.02,3.85h-1.86Z"/>
        <path class="cls-14" d="m406.14,813.81c4.86,0,5.16,4.46,5.16,7.9s-.31,7.88-5.16,7.88-5.16-4.46-5.16-7.88.31-7.9,5.16-7.9Zm0,14.13c3.17,0,3.19-3.94,3.19-6.26s-.02-6.24-3.19-6.24-3.19,3.94-3.19,6.24.02,6.26,3.19,6.26Z"/>
      </g>
      <g>
        <path class="cls-14" d="m568.73,820.46c.28.02.55.02.81.02,1.58,0,2.95-.85,2.95-2.54s-1.18-2.5-2.76-2.5c-2.04,0-2.91,1.55-2.93,3.37h-1.86c.11-2.95,1.69-5.01,4.79-5.01,2.69,0,4.73,1.29,4.73,4.16,0,1.36-.96,2.54-2.14,3.08v.04c1.88.42,2.8,1.9,2.8,3.76,0,3.11-2.43,4.73-5.34,4.73-3.15,0-5.23-1.86-5.16-5.05h1.86c.07,2.01,1.18,3.41,3.3,3.41,1.82,0,3.37-1.12,3.37-3s-1.47-2.98-3.3-2.98c-.37,0-.77.02-1.12.07v-1.58Z"/>
        <path class="cls-14" d="m582.21,813.81c4.86,0,5.16,4.46,5.16,7.9s-.31,7.88-5.16,7.88-5.16-4.46-5.16-7.88.31-7.9,5.16-7.9Zm0,14.13c3.17,0,3.19-3.94,3.19-6.26s-.02-6.24-3.19-6.24-3.19,3.94-3.19,6.24.02,6.26,3.19,6.26Z"/>
      </g>
      <g>
        <path class="cls-14" d="m750.12,824.05h2.1v1.64h-2.1v3.63h-1.75v-3.63h-6.81v-1.79l7.07-10.09h1.49v10.24Zm-1.75,0v-7.59h-.04l-5.16,7.59h5.21Z"/>
        <path class="cls-14" d="m759.21,813.81c4.86,0,5.16,4.46,5.16,7.9s-.31,7.88-5.16,7.88-5.16-4.46-5.16-7.88.31-7.9,5.16-7.9Zm0,14.13c3.17,0,3.19-3.94,3.19-6.26s-.02-6.24-3.19-6.24-3.19,3.94-3.19,6.24.02,6.26,3.19,6.26Z"/>
      </g>
      <g>
        <path class="cls-14" d="m895.23,824.05h2.1v1.64h-2.1v3.63h-1.75v-3.63h-6.81v-1.79l7.07-10.09h1.49v10.24Zm-1.75,0v-7.59h-.04l-5.16,7.59h5.21Z"/>
        <path class="cls-14" d="m904.2,813.81c3.39,0,4.7,1.99,4.7,3.96,0,1.38-.88,2.65-2.14,3.22,1.86.59,2.76,1.95,2.76,3.87,0,3-2.28,4.73-5.14,4.73s-5.27-1.55-5.27-4.73c0-1.84.99-3.26,2.71-3.87-1.29-.53-2.17-1.82-2.17-3.22,0-2.56,2.17-3.96,4.55-3.96Zm.17,14.13c1.86,0,3.17-1.29,3.17-3.02s-1.44-2.95-3.19-2.95c-1.84,0-3.28,1.18-3.28,2.98s1.38,3,3.3,3Zm0-7.61c1.47,0,2.56-.92,2.56-2.49s-1.09-2.39-2.6-2.39-2.71.83-2.71,2.39c0,1.71,1.23,2.49,2.76,2.49Z"/>
      </g>
      <g>
        <path class="cls-16" d="m6.96,112.73h-3.11v-9.93H0v-2.34c2.17.04,4.16-.7,4.49-3.04h2.47v15.32Z"/>
        <path class="cls-16" d="m16.61,97.1c3.06,0,5.64,1.92,5.64,7.9s-2.58,8.03-5.64,8.03-5.6-1.92-5.6-8.03,2.58-7.9,5.6-7.9Zm0,13.37c2.54,0,2.54-3.74,2.54-5.47,0-1.6,0-5.34-2.54-5.34s-2.5,3.74-2.5,5.34c0,1.73,0,5.47,2.5,5.47Z"/>
        <path class="cls-16" d="m28.78,97.1c3.06,0,5.64,1.92,5.64,7.9s-2.58,8.03-5.64,8.03-5.6-1.92-5.6-8.03,2.58-7.9,5.6-7.9Zm0,13.37c2.54,0,2.54-3.74,2.54-5.47,0-1.6,0-5.34-2.54-5.34s-2.5,3.74-2.5,5.34c0,1.73,0,5.47,2.5,5.47Z"/>
        <path class="cls-16" d="m36.4,97.1h7.35c2.98,0,4.99.96,4.99,3.87,0,1.53-.77,2.6-2.12,3.26,1.9.55,2.87,2.01,2.87,3.96,0,3.17-2.69,4.53-5.51,4.53h-7.57v-15.62Zm3.44,6.32h3.48c1.2,0,2.1-.55,2.1-1.86,0-1.49-1.14-1.79-2.36-1.79h-3.22v3.65Zm0,6.63h3.68c1.36,0,2.54-.44,2.54-2.06s-1.01-2.23-2.47-2.23h-3.74v4.29Z"/>
        <path class="cls-16" d="m58.08,97.1h10.26v1.75h-8.18v4.97h7.18v1.75h-7.18v7.16h-2.08v-15.62Z"/>
        <path class="cls-16" d="m70.65,97.1h2.08v13.87h8.27v1.75h-10.35v-15.62Z"/>
        <path class="cls-16" d="m82.82,97.1h7.35c2.93,0,4.75,1.6,4.75,4.09,0,1.88-.83,3.43-2.71,3.96v.04c1.82.35,2.19,1.68,2.34,3.22.13,1.53.04,3.24.92,4.31h-2.32c-.59-.63-.26-2.32-.57-3.85-.22-1.53-.59-2.82-2.6-2.82h-5.08v6.67h-2.08v-15.62Zm6.41,7.2c1.95,0,3.61-.5,3.61-2.78,0-1.53-.83-2.67-2.78-2.67h-5.16v5.45h4.33Z"/>
      </g>
      <g>
        <path class="cls-16" d="m21.38,267.04c-3.22,2.8-4.97,8.56-5.01,12.65h-3.33c.35-4.53,2.23-8.93,5.14-12.43h-7.26v-2.89h10.46v2.67Z"/>
        <path class="cls-16" d="m33.18,266.93h-6.32l-.61,3.48.04.04c.83-.85,1.79-1.18,3-1.18,3.02,0,4.73,2.34,4.73,5.21,0,3.15-2.6,5.58-5.69,5.51-2.98,0-5.65-1.64-5.69-4.86h3.11c.15,1.36,1.16,2.3,2.52,2.3,1.62,0,2.65-1.42,2.65-2.95s-.98-2.87-2.65-2.87c-1.12,0-1.73.39-2.34,1.23h-2.8l1.51-8.47h8.56v2.56Z"/>
        <path class="cls-16" d="m35.92,264.06h7.35c2.98,0,4.99.96,4.99,3.87,0,1.53-.77,2.6-2.12,3.26,1.9.55,2.87,2.01,2.87,3.96,0,3.17-2.69,4.53-5.51,4.53h-7.57v-15.62Zm3.44,6.32h3.48c1.2,0,2.1-.55,2.1-1.86,0-1.49-1.14-1.79-2.36-1.79h-3.22v3.65Zm0,6.63h3.68c1.36,0,2.54-.44,2.54-2.06s-1.01-2.23-2.47-2.23h-3.74v4.29Z"/>
        <path class="cls-16" d="m57.6,264.06h10.26v1.75h-8.18v4.97h7.18v1.75h-7.18v7.16h-2.08v-15.62Z"/>
        <path class="cls-16" d="m70.17,264.06h2.08v13.87h8.27v1.75h-10.35v-15.62Z"/>
        <path class="cls-16" d="m82.33,264.06h7.35c2.93,0,4.75,1.6,4.75,4.09,0,1.88-.83,3.43-2.71,3.96v.04c1.82.35,2.19,1.68,2.34,3.22.13,1.53.04,3.24.92,4.31h-2.32c-.59-.63-.26-2.32-.57-3.85-.22-1.53-.59-2.82-2.6-2.82h-5.08v6.67h-2.08v-15.62Zm6.41,7.2c1.95,0,3.61-.5,3.61-2.78,0-1.53-.83-2.67-2.78-2.67h-5.16v5.45h4.33Z"/>
      </g>
      <g>
        <path class="cls-16" d="m21.86,446.52h-6.32l-.61,3.48.04.04c.83-.85,1.79-1.18,3-1.18,3.02,0,4.73,2.34,4.73,5.21,0,3.15-2.6,5.58-5.69,5.51-2.98,0-5.65-1.64-5.69-4.86h3.11c.15,1.36,1.16,2.3,2.52,2.3,1.62,0,2.65-1.42,2.65-2.95s-.98-2.87-2.65-2.87c-1.12,0-1.73.39-2.34,1.23h-2.8l1.51-8.47h8.56v2.56Z"/>
        <path class="cls-16" d="m29.15,443.66c3.06,0,5.64,1.93,5.64,7.9s-2.58,8.03-5.64,8.03-5.6-1.93-5.6-8.03,2.58-7.9,5.6-7.9Zm0,13.37c2.54,0,2.54-3.74,2.54-5.47,0-1.6,0-5.34-2.54-5.34s-2.5,3.74-2.5,5.34c0,1.73,0,5.47,2.5,5.47Z"/>
        <path class="cls-16" d="m36.77,443.66h7.35c2.98,0,4.99.96,4.99,3.87,0,1.53-.77,2.6-2.12,3.26,1.9.55,2.87,2.01,2.87,3.96,0,3.17-2.69,4.53-5.51,4.53h-7.57v-15.62Zm3.44,6.32h3.48c1.2,0,2.1-.55,2.1-1.86,0-1.49-1.14-1.79-2.36-1.79h-3.22v3.65Zm0,6.63h3.68c1.36,0,2.54-.44,2.54-2.06s-1.01-2.23-2.47-2.23h-3.74v4.29Z"/>
        <path class="cls-16" d="m58.46,443.66h10.26v1.75h-8.18v4.97h7.18v1.75h-7.18v7.16h-2.08v-15.62Z"/>
        <path class="cls-16" d="m71.02,443.66h2.08v13.87h8.27v1.75h-10.35v-15.62Z"/>
        <path class="cls-16" d="m83.19,443.66h7.35c2.93,0,4.75,1.6,4.75,4.09,0,1.88-.83,3.44-2.71,3.96v.04c1.82.35,2.19,1.69,2.34,3.22.13,1.53.04,3.24.92,4.31h-2.32c-.59-.63-.26-2.32-.57-3.85-.22-1.53-.59-2.82-2.6-2.82h-5.08v6.67h-2.08v-15.62Zm6.41,7.2c1.95,0,3.61-.5,3.61-2.78,0-1.53-.83-2.67-2.78-2.67h-5.16v5.45h4.33Z"/>
      </g>
      <g>
        <path class="cls-16" d="m11.73,577.25c-.11-3.5,1.88-6.19,5.56-6.19,2.8,0,5.25,1.79,5.25,4.79,0,2.3-1.23,3.57-2.74,4.64s-3.3,1.95-4.42,3.52h7.24v2.67h-11.25c.02-3.54,2.19-5.05,4.83-6.85,1.36-.92,3.2-1.86,3.22-3.74,0-1.44-.96-2.36-2.3-2.36-1.84,0-2.43,1.9-2.43,3.52h-2.98Z"/>
        <path class="cls-16" d="m34.03,573.92h-6.32l-.61,3.48.04.04c.83-.85,1.79-1.18,3-1.18,3.02,0,4.73,2.34,4.73,5.21,0,3.15-2.6,5.58-5.69,5.51-2.98,0-5.65-1.64-5.69-4.86h3.11c.15,1.36,1.16,2.3,2.52,2.3,1.62,0,2.65-1.42,2.65-2.95s-.98-2.87-2.65-2.87c-1.12,0-1.73.39-2.34,1.23h-2.8l1.51-8.47h8.56v2.56Z"/>
        <path class="cls-16" d="m36.77,571.06h7.35c2.98,0,4.99.96,4.99,3.87,0,1.53-.77,2.6-2.12,3.26,1.9.55,2.87,2.01,2.87,3.96,0,3.17-2.69,4.53-5.51,4.53h-7.57v-15.62Zm3.44,6.32h3.48c1.2,0,2.1-.55,2.1-1.86,0-1.49-1.14-1.79-2.36-1.79h-3.22v3.65Zm0,6.63h3.68c1.36,0,2.54-.44,2.54-2.06s-1.01-2.23-2.47-2.23h-3.74v4.29Z"/>
        <path class="cls-16" d="m58.46,571.06h10.26v1.75h-8.18v4.97h7.18v1.75h-7.18v7.16h-2.08v-15.62Z"/>
        <path class="cls-16" d="m71.02,571.06h2.08v13.87h8.27v1.75h-10.35v-15.62Z"/>
        <path class="cls-16" d="m83.19,571.06h7.35c2.93,0,4.75,1.6,4.75,4.09,0,1.88-.83,3.44-2.71,3.96v.04c1.82.35,2.19,1.69,2.34,3.22.13,1.53.04,3.24.92,4.31h-2.32c-.59-.63-.26-2.32-.57-3.85-.22-1.53-.59-2.82-2.6-2.82h-5.08v6.67h-2.08v-15.62Zm6.41,7.2c1.95,0,3.61-.5,3.61-2.78,0-1.53-.83-2.67-2.78-2.67h-5.16v5.45h4.33Z"/>
      </g>
      <g>
        <line class="cls-2" x1="106.92" y1="102.61" x2="919.48" y2="102.61"/>
        <line class="cls-2" x1="106.92" y1="279.68" x2="919.48" y2="279.68"/>
        <line class="cls-2" x1="106.92" y1="457.04" x2="919.48" y2="457.04"/>
        <g>
          <path class="cls-6" d="m921.55,241.24c.05,48.3.14,96.6.12,144.9,0,6.01-.61,12.02-.94,18.03-66.54-.03-133.08-.07-199.62-.01-2.28,0-4.65.71-6.84,1.69-15.46,6.9-30.87,14.04-46.33,20.93-16.97,7.55-34.01,14.81-50.97,22.38-19.46,8.69-38.83,17.73-58.3,26.39-19.9,8.84-39.91,17.25-59.8,26.13-20.92,9.33-41.72,19.15-62.65,28.48-34.2,15.25-68.47,30.23-102.69,45.4-19.02,8.43-38,17.02-57.01,25.5-19.75,8.81-39.51,17.59-59.27,26.37-18.29,8.13-36.59,16.25-54.89,24.35-17.26,7.64-34.51,15.29-51.79,22.84-11.51,5.03-23.06,9.88-34.59,14.81,1.15-1.28,2.17-2.89,3.47-3.78,18.88-13.03,37.83-25.87,56.69-38.94,26.2-18.17,52.34-36.51,78.51-54.75,37.11-25.87,74.22-51.73,111.33-77.59,18.57-12.94,37.14-25.85,55.71-38.78,28.39-19.76,56.76-39.56,85.16-59.29,15.94-11.07,31.94-21.97,47.86-33.08,39.86-27.81,79.68-55.7,119.53-83.54,25.73-17.98,51.5-35.86,77.19-53.95,4.38-3.09,8.72-4.79,13.77-4.76,37.17.23,74.35.1,111.52.13,28.27.02,56.54.1,84.81.15Z"/>
          <path class="cls-5" d="m921.64,561.06c0,.76.01,1.51.02,2.27-.25,2.23-.7,4.45-.71,6.68-.08,25.22-.09,50.44-.12,75.66-29.53-.07-59.06-.87-88.58-.03-47.07,1.33-94.26-4.83-141.23,3.62-17.87,3.22-35.78,6.11-53.66,9.25-17.88,3.15-35.75,6.43-53.62,9.65-15.88,2.86-31.75,5.72-47.63,8.55-14.64,2.61-29.29,5.23-43.94,7.77-16.19,2.81-32.4,5.52-48.6,8.32-15.89,2.74-31.77,5.54-47.66,8.3-11.41,1.99-22.82,3.94-34.22,5.96-9.71,1.72-19.41,3.57-29.13,5.28-13.72,2.41-27.44,4.72-41.16,7.12-15.11,2.65-30.22,5.39-45.33,8.03-13.56,2.37-27.12,4.72-40.69,7-10.14,1.7-20.2,5.28-30.57,1.88-3.88-1.27-8.03-2.69-11.9-2.12-13.13,1.92-26.18,4.79-39.29,7.12-29.6,5.25-59.2,10.39-88.81,15.58-.23-.1-.47-.16-.72-.16-.01-4.68-.02-9.35-.03-14.03,11.37.5,22.66.32,33.62-4.78,4.65-2.16,9.49-3.68,14.28-5.25,22.76-7.46,45.57-14.65,68.29-22.37,7.94-2.7,15.69-6.06,23.94-2.95,4.44,1.67,8.58,1.51,12.94-1.1,3.44-2.05,7.32-2.8,11.04-3.94,9.34-2.84,18.72-5.46,28.05-8.38,13.51-4.22,26.66-10.94,40.93-9.46,2.76.29,5.61-1.11,8.43-1.67,8.22-1.62,16.5-2.85,24.66-4.91,9.67-2.44,19.26-5.49,28.85-8.5,3-.95,6.26-4.55,8.73-3.64,6.49,2.38,11.11-6.91,17.35-3.89.32.15,1.05-.28,1.22-.7,1.28-3.3,3.09-2.84,5.32-1.99,1.42.54,3.13.25,4.63-.17,7.11-2,14.13-4.7,21.29-6.12,6.84-1.36,12.95-6.57,20.04-6.28.64.03,1.26-1.12,1.96-1.43,1.2-.52,2.44-1,3.69-1.14,1.55-.17,3.18.44,4.66.01,11.56-3.34,23.11-6.72,34.62-10.35,8.29-2.61,16.43-7.27,24.78-8.04,11.84-1.1,22.85-6.46,34.33-9.18,7.98-1.9,15.84-5.2,23.87-6.16,4.9-.59,9.22-1.91,13.38-5.1.78-.59,1.62-1.17,2.48-1.39,9.57-2.39,19.17-4.55,28.71-7.1,9.18-2.45,18.28-5.41,27.46-7.87,2.15-.57,4.58.62,6.67-.1,3.76-1.29,7.27-3.97,11.04-5.09,20.31-6.05,40.58-12.36,61.03-17.45,13.51-3.36,26.5-9.27,40.84-8.44,32.22,1.85,64.52,1.3,96.79,1.7,7.65.09,15.31,0,22.96.09,24.64.33,49.27.7,73.91,1.06.23.24.49.36.78.38Z"/>
          <path class="cls-7" d="m34.81,756.94c29.6-5.18,59.21-10.32,88.81-15.58,13.1-2.32,26.15-5.2,39.29-7.12,3.87-.57,8.02.85,11.9,2.12,10.37,3.4,20.42-.18,30.57-1.88,13.57-2.27,27.13-4.62,40.69-7,15.11-2.65,30.22-5.39,45.33-8.03,13.72-2.4,27.45-4.71,41.16-7.12,9.71-1.71,19.42-3.56,29.13-5.28,11.4-2.02,22.82-3.97,34.22-5.96,15.89-2.77,31.77-5.56,47.66-8.3,16.2-2.79,32.4-5.51,48.6-8.32,14.65-2.54,29.3-5.16,43.94-7.77,15.88-2.83,31.76-5.69,47.63-8.55,17.87-3.22,35.74-6.5,53.62-9.65,17.88-3.15,35.79-6.04,53.66-9.25,46.97-8.45,94.16-2.29,141.23-3.62,29.51-.84,59.05-.03,88.58.03l-.02.47c.01,22.45.03,44.9.04,67.35-2.03.09-4.05.27-6.08.27-64.35.01-128.71-.11-193.06.13-11.15.04-22.31,1.52-33.45,2.46-13.14,1.11-26.27,2.38-39.41,3.56-9.16.82-18.32,1.56-27.47,2.4-9.55.88-19.1,1.8-28.65,2.76-7.86.79-15.7,1.78-23.57,2.48-15.17,1.35-30.34,2.55-45.51,3.84-9.61.82-19.22,1.71-28.83,2.5-15.6,1.3-31.22,2.44-46.81,3.84-11.87,1.06-23.72,2.56-35.58,3.62-16.07,1.43-32.15,2.76-48.24,3.89-9.93.7-19.88.89-29.82,1.43-3.71.2-7.41.79-11.11,1.19-11.71,1.25-23.41,2.58-35.13,3.69-3.57.34-7.19-.17-10.77.14-12.96,1.13-25.91,2.55-38.87,3.67-11.63,1-23.27,1.72-34.91,2.6-.61.05-1.2.51-1.8.54-7.95.35-15.73,3.75-23.9.13-5.3-2.35-11.2-2.72-16.85-2.95-2.87-.12-5.75,2.83-8.68,3.03-12.62.86-25.28.84-37.89,1.86-15.11,1.22-30.19,3.17-45.29,4.8-5.39.59-10.78,1.24-16.18,1.78-6.3.63-12.61,1.18-18.92,1.77.02-3.68.04-7.36.06-11.04.22-.32.45-.63.67-.95Z"/>
          <path class="cls-1" d="m34.08,768.92c6.31-.59,12.61-1.13,18.92-1.77,5.39-.54,10.78-1.2,16.18-1.78,15.09-1.64,30.17-3.58,45.29-4.8,12.61-1.02,25.27-1,37.89-1.86,2.93-.2,5.82-3.14,8.68-3.03,5.65.23,11.55.6,16.85,2.95,8.17,3.63,15.95.22,23.9-.13.6-.03,1.2-.49,1.8-.54,11.64-.88,23.28-1.6,34.91-2.6,12.96-1.11,25.91-2.53,38.87-3.67,3.58-.31,7.2.2,10.77-.14,11.72-1.11,23.42-2.44,35.13-3.69,3.71-.4,7.4-.98,11.11-1.19,9.94-.55,19.89-.74,29.82-1.43,16.08-1.13,32.16-2.45,48.24-3.89,11.87-1.06,23.72-2.55,35.58-3.62,15.6-1.4,31.21-2.55,46.81-3.84,9.61-.8,19.22-1.69,28.83-2.5,15.17-1.29,30.34-2.49,45.51-3.84,7.86-.7,15.71-1.69,23.57-2.48,9.55-.96,19.1-1.88,28.65-2.76,9.16-.84,18.32-1.58,27.47-2.4,13.14-1.18,26.27-2.45,39.41-3.56,11.15-.95,22.3-2.42,33.45-2.46,64.35-.24,128.71-.11,193.06-.13,2.03,0,4.05-.18,6.08-.27.24.16.48.22.75.18.1,22.33.21,44.66.31,66.98-.16.34-.26.7-.31,1.09-2.03.06-4.06.18-6.09.18-291.79,0-583.58,0-875.37,0-2.03,0-4.06-.15-6.08-.23,0-4.26.02-8.52.03-12.78Z"/>
          <path class="cls-4" d="m137.07,632.99c4.15-2.65,8.52-4.81,12.41-8.02,41.92-34.58,83.75-69.36,125.64-104.01,24.26-20.07,48.58-40,72.87-60,.62-.83,1.24-1.66,1.85-2.49.63-.4,1.25-.81,1.88-1.21,10.65-8.62,21.33-17.15,31.93-25.88,33.71-27.76,67.4-55.58,101.08-83.41,21.19-17.51,42.39-35.02,63.51-52.68,4.04-3.38,7.75-7.5,11.61-11.28,1.88-1.23,3.75-2.47,5.63-3.7.63-.4,1.26-.81,1.89-1.21,6.63-5.77,13.19-11.68,19.9-17.27,4.08-3.4,8.46-6.13,12.56-9.5,6.47-5.32,12.82-10.89,19.2-16.41,1.15-1,2.1-2.45,3.28-3.36,8.44-6.51,17.01-12.71,25.35-19.44,12.81-10.34,25.54-20.9,38.17-31.62,7.18-6.1,13.89-13.25,21.25-18.92,4.97-3.83,10.56-6.53,16.12-8.57,5.93-2.18,11.94-4.1,18.01-5.83,7.65-2.18,16.29-2.79,24.19-4.27,9.24-1.73,18.48-3.49,27.72-5.27,18.23-3.5,36.45-7.07,54.67-10.64,14.63-2.87,29.26-5.73,43.89-8.6,7.31-1.43,14.63-2.84,21.94-4.3,5.19-1.03,8.06-1.06,8.09,4.95.1,26.09.07,52.18.06,78.28,0,4.21-.1,8.41-.15,12.62-13.99.77-27.97,1.6-41.96,2.31-17.58.9-35.16,1.69-52.75,2.55-17.11.83-34.23,1.8-51.34,2.49-15.27.61-30.56.6-45.82,1.54-5.77.36-11.6.69-17.12,4.78-27.32,20.24-54.82,40.06-82.27,59.98-17.84,12.94-35.72,25.75-53.56,38.69-31.85,23.1-63.67,46.28-95.53,69.36-18.82,13.63-37.72,27.05-56.52,40.7-34.31,24.91-68.57,49.96-102.87,74.9-20.72,15.07-41.46,30.07-62.21,45.07-39.02,28.22-78.05,56.4-117.06,84.63-10.3,7.45-20.44,15.32-30.83,22.52-8.99,6.22-18.23,11.76-27.36,17.61,5.23-4.25,10.48-8.45,15.69-12.76,12.01-9.95,24-19.95,35.99-29.93.33-.79.65-1.59.98-2.38Z"/>
          <path class="cls-10" d="m920.86,560.68c-24.64-.36-49.27-.74-73.91-1.06-7.65-.1-15.31,0-22.96-.09-32.27-.4-64.57.15-96.79-1.7-14.34-.82-27.34,5.09-40.84,8.44-20.44,5.08-40.72,11.4-61.03,17.45-3.77,1.12-7.28,3.8-11.04,5.09-2.09.72-4.52-.47-6.67.1-9.18,2.46-18.28,5.42-27.46,7.87-9.54,2.55-19.14,4.71-28.71,7.1-.86.22-1.71.79-2.48,1.39-4.16,3.19-8.49,4.51-13.38,5.1-8.03.96-15.88,4.27-23.87,6.16-11.48,2.73-22.49,8.08-34.33,9.18-8.36.78-16.49,5.43-24.78,8.04-11.51,3.62-23.06,7.01-34.62,10.35-1.48.43-3.11-.18-4.66-.01-1.25.14-2.49.62-3.69,1.14-.7.3-1.32,1.45-1.96,1.43-7.09-.29-13.21,4.93-20.04,6.28-7.16,1.42-14.18,4.12-21.29,6.12-1.5.42-3.21.72-4.63.17-2.23-.85-4.04-1.31-5.32,1.99-.16.42-.9.86-1.22.7-6.24-3.02-10.86,6.27-17.35,3.89-2.47-.91-5.73,2.7-8.73,3.64-9.59,3.02-19.18,6.06-28.85,8.5-8.16,2.06-16.44,3.28-24.66,4.91-2.82.56-5.67,1.95-8.43,1.67-14.27-1.48-27.43,5.23-40.93,9.46-9.33,2.92-18.71,5.53-28.05,8.38-3.72,1.13-7.6,1.88-11.04,3.94-4.36,2.61-8.51,2.77-12.94,1.1-8.25-3.11-16.01.25-23.94,2.95-22.71,7.72-45.53,14.9-68.29,22.37-4.79,1.57-9.62,3.09-14.28,5.25-10.96,5.09-22.25,5.27-33.62,4.78-.02-2.49-.03-4.99-.05-7.48,6.82-.4,13.97.86,20.4-1.48,26.9-9.79,53.53-20.88,80.37-31.03,15.04-5.69,29.69-14.57,45.95-11.86.72.12,1.52-.32,2.26-.6,15.29-5.73,30.56-11.62,45.9-17.14,5.46-1.97,11.88-1.27,16.48-4.94,6.42-5.13,12.83-5.26,19.56-5.04,8.74.29,17.08-1.41,25.56-4.73,19.32-7.57,38.92-13.82,58.4-20.61,7.08-2.47,14.11-5.23,21.24-7.33,4.13-1.21,8.55-.78,12.64-2.14,3.74-1.24,7.1-4.52,10.84-5.84,37.79-13.33,75.62-26.41,113.43-39.64,33.88-11.86,67.74-23.88,101.62-35.72,26.52-9.27,53.06-18.48,79.63-27.52,15.35-5.22,30.4-12.56,46.73-10.67,9.31,1.08,18.71,1.01,28.07,1.05,52.81.2,105.63.28,158.44.4.02,16.37.04,32.74.06,49.11-.24.37-.49.75-.73,1.12Z"/>
          <path class="cls-11" d="m75.98,689.43c11.53-4.93,23.08-9.78,34.59-14.81,17.28-7.55,34.53-15.2,51.79-22.84,18.3-8.1,36.6-16.22,54.89-24.35,19.76-8.78,39.52-17.56,59.27-26.37,19.01-8.48,37.99-17.07,57.01-25.5,34.22-15.17,68.49-30.15,102.69-45.4,20.92-9.33,41.72-19.15,62.65-28.48,19.89-8.88,39.9-17.28,59.8-26.13,19.47-8.65,38.84-17.69,58.3-26.39,16.96-7.58,34-14.83,50.97-22.38,15.47-6.89,30.87-14.03,46.33-20.93,2.18-.97,4.55-1.68,6.84-1.69,66.54-.06,133.08-.02,199.62.01.3,9.31.61,18.63.91,27.94-65.55,0-131.1-.05-196.64.09-3.67,0-7.48.9-10.99,2.4-15.28,6.5-30.48,13.34-45.69,20.14-19.61,8.77-39.21,17.62-58.81,26.44-.28.35-.55.71-.83,1.06-7.86,3.34-15.72,6.68-23.59,10.01-.59.46-1.17.92-1.76,1.38-3.06,1.06-6.16,1.93-9.16,3.21-11.33,4.83-22.62,9.79-33.93,14.7-.95.76-1.9,1.52-2.85,2.28-4.07,1.74-8.14,3.48-12.21,5.22-.62.37-1.23.74-1.85,1.1-5.96,2.54-11.92,5.09-17.88,7.63-.6.39-1.21.79-1.81,1.18-3.46,1.34-6.93,2.68-10.39,4.03-.28.36-.55.71-.83,1.07-.34.02-.68.03-1.03.05-.61.39-1.21.78-1.82,1.17-4.07,1.35-8.14,2.69-12.21,4.04-.62.76-1.24,1.52-1.86,2.28-.36-.03-.71-.06-1.07-.09-.58.47-1.17.94-1.75,1.41-6.49,2.93-12.93,6.07-19.48,8.75-9.28,3.8-18.73,6.88-27.95,10.95-24.93,11.01-49.76,22.44-74.65,33.59-21.69,9.72-43.41,19.32-65.12,28.92-26.56,11.74-53.14,23.36-79.69,35.15-29.13,12.94-58.2,26.13-87.34,39.02-20.97,9.28-42.02,18.26-63.04,27.37-.28-.15-.56-.14-.83.04-4.1,0-8.2,0-12.3,0-.27-.17-.55-.19-.83-.05-2.21-.17-4.42-.34-6.63-.51-.22-.34-.45-.68-.67-1.02-.02-7.53-.04-15.05-.06-22.58,3.9-.05,7.81-.34,11.7-.1,5.55.34,10.69-.6,15.7-4.42,4.56-3.49,9.64-5.77,14.48-8.58Z"/>
          <path class="cls-15" d="m75.98,689.43c-4.85,2.81-9.92,5.09-14.48,8.58-5.01,3.83-10.15,4.76-15.7,4.42-3.89-.24-7.8.05-11.7.1.78-1.32,1.39-3.38,2.38-3.79,1.56-.64,3.41-.46,5.08-.14,10.3,2,19.03-3.25,27.57-10.1,4.9-3.93,10.18-6.98,15.28-10.43,9.13-5.84,18.37-11.39,27.36-17.61,10.4-7.2,20.54-15.06,30.83-22.52,39.01-28.24,78.04-56.42,117.06-84.63,20.74-15,41.49-30,62.21-45.07,34.3-24.94,68.56-49.99,102.87-74.9,18.81-13.66,37.71-27.07,56.52-40.7,31.86-23.08,63.68-46.26,95.53-69.36,17.84-12.94,35.73-25.75,53.56-38.69,27.45-19.92,54.95-39.74,82.27-59.98,5.52-4.09,11.35-4.42,17.12-4.78,15.26-.94,30.55-.92,45.82-1.54,17.12-.69,34.23-1.66,51.34-2.49,17.58-.85,35.17-1.65,52.75-2.55,13.99-.71,27.98-1.54,41.96-2.31-.02,10.1-.04,20.2-.06,30.3-28.27-.05-56.54-.13-84.81-.15-37.17-.03-74.35.1-111.52-.13-5.05-.03-9.39,1.67-13.77,4.76-25.69,18.09-51.46,35.98-77.19,53.95-39.85,27.84-79.67,55.73-119.53,83.54-15.92,11.11-31.92,22.01-47.86,33.08-28.4,19.73-56.78,39.52-85.16,59.29-18.57,12.93-37.15,25.85-55.71,38.78-37.11,25.86-74.23,51.72-111.33,77.59-26.17,18.25-52.31,36.59-78.51,54.75-18.86,13.08-37.81,25.91-56.69,38.94-1.3.89-2.32,2.5-3.47,3.78Z"/>
          <path class="cls-13" d="m921.59,447.16c0,7.47,0,14.94.01,22.41-7.01-.28-14.02-.72-21.03-.82-32.16-.46-64.33-.93-96.49-1.19-27.81-.23-55.62-.19-83.43-.23-1.7,0-3.48.06-5.08.7-23.9,9.52-47.81,19-71.65,28.78-12.16,4.99-24.14,10.8-36.31,15.74-10.47,4.25-21.12,7.72-31.66,11.68-9,3.38-17.95,6.94-26.92,10.47-3.34,1.31-6.68,2.66-9.99,4.13-8.81,3.91-17.55,8.11-26.42,11.77-7.92,3.26-16.03,5.71-23.96,8.94-9.76,3.97-19.36,8.59-29.13,12.5-6.6,2.64-13.42,4.23-20.03,6.83-13.94,5.49-27.81,11.3-41.69,17.05-13.32,5.51-26.55,11.41-39.93,16.59-13.37,5.17-27.01,9.04-40.16,15.34-4.84,2.32-9.77,4.37-14.75,6.03-13.22,4.4-25.76,12.74-39.88,12.05-3.18-.16-6.5,1.1-9.6,2.4-14.28,5.97-28.42,12.57-42.77,18.21-12.48,4.89-24.37,13.4-37.95,12.02,1.37-.87,2.7-1.96,4.13-2.57,12.7-5.42,25.44-10.69,38.14-16.13,15.98-6.84,31.9-13.96,47.91-20.63,9.85-4.1,19.84-7.6,29.77-11.38.62-.85,1.25-1.71,1.87-2.56,9.38-3.36,18.76-6.72,28.13-10.08.62-.85,1.24-1.71,1.87-2.56,1.2-.36,2.43-.61,3.6-1.08,22.24-8.92,44.48-17.86,66.72-26.8.62-.81,1.25-1.63,1.87-2.44,9.38-3.36,18.76-6.72,28.14-10.08.62-.85,1.24-1.71,1.86-2.56,10.71-4.47,21.44-8.82,32.11-13.44,7.62-3.3,15.13-7.09,22.74-10.42,9.59-4.19,19.23-8.15,28.86-12.15,3.78-1.57,7.57-3.1,11.41-4.38,8.56-2.84,17.23-5.13,25.69-8.39,5.75-2.21,11.18-5.89,16.84-8.57,11.32-5.37,22.63-10.79,34.07-15.66,8.51-3.63,17.28-6.11,25.81-9.66,27.05-11.28,54.04-22.88,81.08-34.21,5.32-2.23,10.78-5.4,16.19-5.43,66.68-.35,133.36-.2,200.04-.18Z"/>
          <path class="cls-12" d="m921.68,481.21c-.03,6.77-.07,13.55-.1,20.32-39.8-.44-79.59-.96-119.39-1.27-27.02-.21-54.04-.12-81.06-.13-1.71,0-3.48-.09-5.11.49-22.09,7.85-44.18,15.77-66.24,23.77-20.03,7.26-40.03,14.67-60.06,21.93-11.83,4.29-23.69,8.42-35.53,12.65-27.2,9.7-54.4,19.36-81.58,29.14-30.94,11.13-61.86,22.38-92.79,33.58-27.33,9.9-54.62,19.97-81.99,29.64-11.23,3.97-22.26,9.63-34.27,8.12-3.34-.42-6.93-.12-10.16,1.06-15.75,5.79-31.45,11.88-47.12,18.07-13.28,5.24-26.35,11.85-40.6,9.91-1.18-.16-2.46.37-3.64.84-21.77,8.72-43.52,17.57-65.31,26.18-7.74,3.06-15.6,5.58-23.4,8.35,12.86-5.94,25.71-11.92,38.59-17.8,7.45-3.4,14.94-6.64,22.41-9.95,1.56-.06,3.21.33,4.66-.24,11.03-4.32,21.96-9.1,33.05-13.11,3.68-1.33,7.9.06,11.56-1.31,14.83-5.56,29.53-11.75,44.29-17.63,15.31-6.1,30.27-14.61,46.83-12.15,1.6.24,3.35-.77,4.98-1.4,15.09-5.82,30.23-11.42,45.24-17.61,10.03-4.14,19.84-9.22,29.79-13.74,3.2-1.46,6.49-2.67,9.79-3.63,3.14-.9,6.42-.94,9.51-2.02,6.71-2.34,13.39-4.88,19.99-7.75,8.49-3.69,16.77-8.29,25.33-11.58,9.73-3.73,19.75-6.06,29.5-9.69,15.81-5.9,31.51-12.37,47.26-18.59,7.68-3.03,15.36-6.04,23.04-9.07,12.78-5.05,25.55-10.16,38.34-15.16,10.67-4.17,21.35-8.24,32.05-12.29,9.35-3.54,18.73-6.87,28.06-10.5,26.58-10.33,53.13-20.82,79.72-31.13,9.67-3.75,19.09-8.05,29.56-7.82,42.44.95,84.89,1.13,127.33,1.45,22.49.17,44.98.06,67.47.07Z"/>
          <path class="cls-8" d="m134.32,696.12c-7.47,3.31-14.96,6.55-22.41,9.95-12.88,5.88-25.73,11.86-38.59,17.8,0,0,0-.04,0-.04-.67.41-1.33.81-2,1.22-.24.03-.49.05-.73.05-.98.42-1.96.84-2.94,1.26,0,0,.04-.03.04-.03-1.23.43-2.46.85-3.7,1.28-6.01,2.14-11.67,6.16-18.26,5.16-3.83-.58-7.75-.08-11.63-.07.01-2.11.02-4.22.03-6.33.24-.05.47-.13.69-.25,2.21.17,4.42.34,6.63.51.28.02.56.03.83.05,4.1,0,8.2,0,12.3,0,.28-.01.55-.02.83-.03,21.02-9.11,42.06-18.09,63.04-27.37,29.14-12.89,58.21-26.08,87.34-39.02,26.54-11.79,53.13-23.41,79.69-35.15,21.72-9.6,43.44-19.2,65.12-28.92,24.89-11.15,49.72-22.58,74.65-33.59,9.21-4.07,18.67-7.15,27.95-10.95,6.55-2.68,12.99-5.82,19.48-8.75.58-.47,1.17-.94,1.75-1.41.36.03.71.06,1.07.1.62-.76,1.24-1.52,1.86-2.28,4.07-1.35,8.14-2.69,12.21-4.04.61-.39,1.21-.78,1.82-1.18.34-.02.68-.03,1.03-.05.28-.36.55-.71.83-1.07,3.46-1.34,6.93-2.68,10.39-4.03.6-.39,1.21-.79,1.81-1.18,5.96-2.54,11.92-5.09,17.88-7.63.62-.37,1.23-.74,1.85-1.1,4.07-1.74,8.14-3.48,12.21-5.22.95-.76,1.9-1.52,2.85-2.28,11.31-4.91,22.6-9.87,33.93-14.7,3.01-1.28,6.11-2.15,9.16-3.21.59-.46,1.17-.92,1.76-1.38,7.86-3.34,15.72-6.68,23.59-10.01.28-.35.55-.71.83-1.06,19.6-8.82,39.2-17.67,58.81-26.44,15.21-6.8,30.41-13.63,45.69-20.14,3.51-1.49,7.31-2.39,10.99-2.4,65.55-.14,131.1-.09,196.64-.09-.02,5.01-.03,10.03-.05,15.04-66.68-.02-133.36-.17-200.04.18-5.41.03-10.87,3.2-16.19,5.43-27.04,11.33-54.02,22.93-81.08,34.21-8.53,3.55-17.3,6.04-25.81,9.66-11.44,4.88-22.76,10.29-34.07,15.66-5.66,2.69-11.09,6.36-16.84,8.57-8.47,3.26-17.14,5.55-25.69,8.39-3.84,1.28-7.63,2.81-11.41,4.38-9.63,3.99-19.28,7.96-28.86,12.15-7.62,3.33-15.12,7.12-22.74,10.42-10.67,4.62-21.4,8.97-32.11,13.44-.62.85-1.24,1.71-1.86,2.56-9.38,3.36-18.76,6.72-28.14,10.08-.62.81-1.25,1.63-1.87,2.44-22.24,8.94-44.47,17.88-66.72,26.8-1.18.47-2.4.73-3.6,1.08-.62.85-1.24,1.71-1.87,2.56-9.38,3.36-18.76,6.72-28.13,10.08-.62.85-1.25,1.71-1.87,2.56-9.93,3.77-19.92,7.27-29.77,11.38-16.02,6.67-31.93,13.79-47.91,20.63-12.7,5.44-25.44,10.71-38.14,16.13-1.43.61-2.76,1.7-4.13,2.57,0,0-.04-.09-.04-.09-.62.4-1.25.81-1.87,1.21h0c-1.57.8-3.14,1.61-4.71,2.41-1.23.46-2.45.91-3.68,1.37-.64.37-1.28.73-1.93,1.1-8.73,3.87-17.46,7.74-26.18,11.6Z"/>
          <path class="cls-12" d="m162.43,683.42c1.23-.46,2.45-.91,3.68-1.37,1.57-.81,3.14-1.61,4.71-2.42,0,0,0,0,0,0,.62-.41,1.25-.81,1.87-1.21,0,0,.04.08.04.09,13.58,1.39,25.48-7.12,37.95-12.01,14.35-5.63,28.49-12.23,42.77-18.21,3.1-1.3,6.42-2.55,9.6-2.4,14.12.69,26.66-7.65,39.88-12.05,4.98-1.66,9.92-3.71,14.75-6.03,13.14-6.3,26.79-10.17,40.16-15.34,13.39-5.18,26.62-11.07,39.93-16.59,13.88-5.75,27.75-11.56,41.69-17.05,6.61-2.6,13.43-4.19,20.03-6.83,9.77-3.91,19.38-8.53,29.13-12.5,7.93-3.23,16.04-5.67,23.96-8.94,8.87-3.65,17.61-7.86,26.42-11.77,3.31-1.47,6.65-2.82,9.99-4.13,8.97-3.52,17.92-7.09,26.92-10.47,10.54-3.96,21.19-7.43,31.66-11.68,12.17-4.94,24.15-10.76,36.31-15.74,23.84-9.78,47.75-19.27,71.65-28.78,1.61-.64,3.38-.7,5.08-.7,27.81.03,55.62,0,83.43.23,32.16.26,64.33.73,96.49,1.19,7.01.1,14.02.54,21.03.82.03,3.88.06,7.77.09,11.65-22.49-.01-44.98.1-67.47-.07-42.45-.32-84.89-.5-127.33-1.45-10.47-.23-19.89,4.07-29.56,7.82-26.59,10.31-53.14,20.8-79.72,31.13-9.33,3.63-18.72,6.96-28.06,10.5-10.69,4.05-21.38,8.13-32.05,12.29-12.79,5-25.56,10.11-38.34,15.16-7.68,3.03-15.36,6.04-23.04,9.07-15.75,6.22-31.44,12.69-47.26,18.59-9.75,3.64-19.77,5.96-29.5,9.69-8.56,3.29-16.85,7.89-25.33,11.58-6.59,2.87-13.28,5.41-19.99,7.75-3.09,1.08-6.38,1.12-9.51,2.02-3.31.95-6.59,2.17-9.79,3.63-9.94,4.52-19.76,9.6-29.79,13.74-15,6.2-30.15,11.8-45.24,17.61-1.64.63-3.38,1.64-4.98,1.4-16.56-2.45-31.52,6.06-46.83,12.15-14.76,5.88-29.46,12.07-44.29,17.63-3.66,1.37-7.89-.02-11.56,1.31-11.09,4.01-22.02,8.79-33.05,13.11-1.45.57-3.1.18-4.66.24,8.73-3.87,17.46-7.74,26.18-11.6.64-.37,1.28-.73,1.93-1.1Z"/>
          <path class="cls-9" d="m34.1,732.71c3.88-.01,7.8-.51,11.63.07,6.58,1,12.25-3.01,18.26-5.16,1.23-.43,2.46-.85,3.7-1.28,0,0-.04.03-.04.03.98-.42,1.96-.84,2.94-1.26.24,0,.49-.02.73-.05.67-.41,1.33-.81,2-1.22,0,0,0,.04,0,.04,7.8-2.77,15.66-5.29,23.4-8.35,21.8-8.62,43.54-17.46,65.31-26.18,1.18-.47,2.46-1,3.64-.84,14.25,1.94,27.32-4.66,40.6-9.91,15.67-6.19,31.37-12.28,47.12-18.07,3.23-1.19,6.82-1.48,10.16-1.06,12.01,1.51,23.04-4.16,34.27-8.12,27.37-9.67,54.66-19.74,81.99-29.64,30.93-11.2,61.85-22.45,92.79-33.58,27.18-9.78,54.39-19.44,81.58-29.14,11.84-4.22,23.7-8.36,35.53-12.65,20.03-7.27,40.03-14.68,60.06-21.93,22.07-7.99,44.15-15.91,66.24-23.77,1.62-.58,3.4-.49,5.11-.49,27.02,0,54.04-.08,81.06.13,39.8.31,79.59.84,119.39,1.27-.02,2.97-.04,5.94-.06,8.92-52.81-.12-105.63-.2-158.44-.4-9.36-.04-18.76.03-28.07-1.05-16.34-1.89-31.38,5.44-46.73,10.67-26.57,9.04-53.1,18.25-79.63,27.52-33.89,11.84-67.74,23.86-101.62,35.72-37.81,13.23-75.64,26.3-113.43,39.64-3.74,1.32-7.1,4.6-10.84,5.84-4.1,1.36-8.51.92-12.64,2.14-7.14,2.09-14.17,4.86-21.24,7.33-19.48,6.79-39.09,13.04-58.4,20.61-8.48,3.32-16.82,5.02-25.56,4.73-6.73-.22-13.14-.09-19.56,5.04-4.6,3.67-11.02,2.97-16.48,4.94-15.34,5.52-30.6,11.41-45.9,17.14-.74.28-1.53.72-2.26.6-16.27-2.72-30.92,6.17-45.95,11.86-26.83,10.14-53.47,21.24-80.37,31.03-6.43,2.34-13.58,1.08-20.4,1.48.03-.85.06-1.71.09-2.56Z"/>
          <path class="cls-19" d="m34.05,781.7c2.03.08,4.06.23,6.08.23,291.79.01,583.58.01,875.37,0,2.03,0,4.06-.12,6.09-.18.03.46.06.92.09,1.38-2.57.02-5.13.06-7.7.06-291.31,0-582.62,0-873.93-.06-2,0-4-.94-6-1.44Z"/>
          <path class="cls-19" d="m920.83,645.67c.03-25.22.04-50.44.12-75.66,0-2.23.46-4.45.71-6.68-.03,27.44-.07,54.88-.1,82.33-.28.07-.53.23-.75.48l.02-.47Z"/>
          <path class="cls-22" d="m920.81,646.14c.22-.25.47-.41.75-.48.01,22.67.03,45.34.04,68.01-.26.04-.51-.02-.75-.18-.01-22.45-.03-44.9-.04-67.35Z"/>
          <path class="cls-18" d="m920.86,560.68l.73-1.12c.02.5.03,1,.05,1.5-.29-.01-.55-.14-.78-.38Z"/>
          <path class="cls-22" d="m34.81,756.94c-.22.32-.45.63-.67.95-.15-.36-.17-.73-.05-1.11.25,0,.49.06.72.16Z"/>
          <path class="cls-17" d="m34.82,726.13c-.22.12-.45.2-.69.25,0-.42.01-.84.02-1.27.22.34.45.68.67,1.02Z"/>
          <path class="cls-17" d="m540.23,511.54c-.95.76-1.9,1.52-2.85,2.28.95-.76,1.9-1.52,2.85-2.28Z"/>
          <path class="cls-17" d="m585.09,492.25c-.59.46-1.17.92-1.76,1.38.59-.46,1.17-.92,1.76-1.38Z"/>
          <path class="cls-17" d="m525.17,519.04c-.62.37-1.23.74-1.85,1.1.62-.37,1.23-.74,1.85-1.1Z"/>
          <path class="cls-17" d="m505.45,527.77c-.6.4-1.21.79-1.81,1.18.6-.4,1.21-.79,1.81-1.18Z"/>
          <path class="cls-17" d="m491.39,534.1c-.61.39-1.21.78-1.82,1.18.61-.39,1.21-.78,1.82-1.18Z"/>
          <path class="cls-17" d="m477.36,539.31c-.62.76-1.24,1.52-1.86,2.28.62-.76,1.24-1.52,1.86-2.28Z"/>
          <path class="cls-17" d="m474.44,541.5c-.58.47-1.17.94-1.75,1.41.58-.47,1.17-.94,1.75-1.41Z"/>
          <path class="cls-20" d="m42.29,726.7c-.28-.02-.56-.03-.83-.05.28-.14.56-.13.83.05Z"/>
          <path class="cls-20" d="m55.42,726.66c-.28.01-.55.02-.83.03.27-.17.55-.19.83-.03Z"/>
          <path class="cls-17" d="m493.25,532.98c-.28.36-.56.71-.83,1.07.28-.36.56-.71.83-1.07Z"/>
          <path class="cls-17" d="m609.51,481.17c-.28.35-.55.71-.83,1.06.28-.35.55-.71.83-1.06Z"/>
          <path class="cls-20" d="m292.69,627.81c.62-.85,1.25-1.71,1.87-2.56-.62.85-1.25,1.71-1.87,2.56Z"/>
          <path class="cls-20" d="m424.89,572.21c.62-.85,1.24-1.71,1.86-2.56-.62.85-1.24,1.71-1.86,2.56Z"/>
          <path class="cls-20" d="m394.87,584.72c.62-.81,1.25-1.63,1.87-2.44-.62.81-1.25,1.63-1.87,2.44Z"/>
          <path class="cls-20" d="m322.69,615.17c.62-.85,1.24-1.71,1.87-2.56-.62.85-1.24,1.71-1.87,2.56Z"/>
          <path class="cls-20" d="m170.82,679.64c-1.57.81-3.14,1.61-4.71,2.42,1.57-.81,3.14-1.61,4.71-2.42Z"/>
          <path class="cls-21" d="m67.69,726.34c-1.23.43-2.47.85-3.7,1.28,1.23-.43,2.46-.85,3.7-1.28Z"/>
          <path class="cls-21" d="m70.59,725.11c-.98.42-1.96.84-2.94,1.26.98-.42,1.96-.84,2.94-1.26Z"/>
          <path class="cls-20" d="m162.43,683.42c-.64.37-1.28.73-1.93,1.1.64-.37,1.28-.73,1.93-1.1Z"/>
          <path class="cls-20" d="m172.69,678.43c-.62.4-1.25.81-1.87,1.21.62-.4,1.25-.81,1.87-1.21Z"/>
          <path class="cls-21" d="m73.32,723.84c-.67.41-1.33.81-2,1.22.67-.41,1.33-.81,2-1.22Z"/>
        </g>
      </g>
      <g>
        <path class="cls-16" d="m1047.56,159.88h2.08v15.62h-2.08v-15.62Z"/>
        <path class="cls-16" d="m1052.84,164.19h1.75v1.79h.04c.79-1.4,2.06-2.06,3.68-2.06,2.98,0,3.89,1.71,3.89,4.14v7.44h-1.86v-7.66c0-1.38-.88-2.28-2.3-2.28-2.25,0-3.35,1.51-3.35,3.54v6.39h-1.86v-11.31Z"/>
        <path class="cls-16" d="m1065.77,165.83h-1.9v-1.64h1.9v-1.69c0-1.84,1.09-2.8,3.13-2.8.35,0,.85.07,1.2.18v1.62c-.33-.11-.72-.15-1.05-.15-.9,0-1.42.28-1.42,1.27v1.58h2.19v1.64h-2.19v9.67h-1.86v-9.67Zm5.82-5.95h1.86v15.62h-1.86v-15.62Z"/>
        <path class="cls-16" d="m1086.36,175.46c-.33.2-.74.31-1.33.31-.96,0-1.58-.53-1.58-1.75-1.03,1.2-2.41,1.75-3.98,1.75-2.06,0-3.74-.92-3.74-3.17,0-2.56,1.9-3.11,3.83-3.48,2.06-.39,3.81-.26,3.81-1.66,0-1.62-1.33-1.88-2.52-1.88-1.58,0-2.74.48-2.82,2.14h-1.86c.11-2.8,2.28-3.79,4.79-3.79,2.03,0,4.25.46,4.25,3.11v5.82c0,.88,0,1.27.59,1.27.15,0,.33-.02.57-.11v1.44Zm-3.02-5.8c-.72.53-2.12.55-3.37.77-1.22.22-2.28.66-2.28,2.04,0,1.23,1.05,1.66,2.19,1.66,2.45,0,3.46-1.53,3.46-2.56v-1.9Z"/>
        <path class="cls-16" d="m1090.68,164.19h2.25v1.64h-2.25v7.02c0,.85.24,1.01,1.4,1.01h.85v1.64h-1.42c-1.92,0-2.69-.39-2.69-2.47v-7.2h-1.92v-1.64h1.92v-3.39h1.86v3.39Z"/>
        <path class="cls-16" d="m1096.96,162.16h-1.86v-2.28h1.86v2.28Zm-1.86,2.04h1.86v11.31h-1.86v-11.31Z"/>
        <path class="cls-16" d="m1104.73,163.93c3.59,0,5.49,2.6,5.49,5.93s-1.9,5.91-5.49,5.91-5.49-2.6-5.49-5.91,1.9-5.93,5.49-5.93Zm0,10.2c1.95,0,3.52-1.53,3.52-4.27s-1.58-4.29-3.52-4.29-3.52,1.53-3.52,4.29,1.58,4.27,3.52,4.27Z"/>
        <path class="cls-16" d="m1112.41,164.19h1.75v1.79h.04c.79-1.4,2.06-2.06,3.68-2.06,2.98,0,3.89,1.71,3.89,4.14v7.44h-1.86v-7.66c0-1.38-.88-2.28-2.3-2.28-2.25,0-3.35,1.51-3.35,3.54v6.39h-1.86v-11.31Z"/>
      </g>
      <g>
        <path class="cls-16" d="m1058.46,224.11c-.44-2.21-2.21-3.33-4.38-3.33-3.72,0-5.29,3.06-5.29,6.32,0,3.57,1.58,6.54,5.32,6.54,2.74,0,4.31-1.93,4.51-4.51h2.08c-.39,3.9-2.82,6.26-6.76,6.26-4.86,0-7.22-3.59-7.22-8.14s2.58-8.23,7.4-8.23c3.26,0,5.95,1.75,6.43,5.08h-2.08Z"/>
        <path class="cls-16" d="m1062.9,223.72h1.75v2.38h.04c.9-1.82,2.14-2.71,4.16-2.65v1.97c-3,0-4.09,1.71-4.09,4.57v5.03h-1.86v-11.31Z"/>
        <path class="cls-16" d="m1074.74,223.45c3.59,0,5.49,2.6,5.49,5.93s-1.9,5.91-5.49,5.91-5.49-2.6-5.49-5.91,1.9-5.93,5.49-5.93Zm0,10.2c1.95,0,3.52-1.53,3.52-4.27s-1.58-4.29-3.52-4.29-3.52,1.53-3.52,4.29,1.58,4.27,3.52,4.27Z"/>
        <path class="cls-16" d="m1083.56,231.46c.07,1.66,1.51,2.19,3.04,2.19,1.16,0,2.73-.26,2.73-1.68s-1.84-1.68-3.7-2.1c-1.84-.42-3.7-1.03-3.7-3.19,0-2.28,2.25-3.22,4.22-3.22,2.5,0,4.49.79,4.64,3.54h-1.86c-.13-1.44-1.4-1.9-2.63-1.9-1.12,0-2.41.31-2.41,1.44,0,1.33,1.97,1.55,3.7,1.97,1.86.42,3.7,1.03,3.7,3.22,0,2.69-2.52,3.57-4.81,3.57-2.54,0-4.68-1.03-4.79-3.83h1.86Z"/>
        <path class="cls-16" d="m1094.51,231.46c.07,1.66,1.51,2.19,3.04,2.19,1.16,0,2.73-.26,2.73-1.68s-1.84-1.68-3.7-2.1c-1.84-.42-3.7-1.03-3.7-3.19,0-2.28,2.25-3.22,4.22-3.22,2.5,0,4.49.79,4.64,3.54h-1.86c-.13-1.44-1.4-1.9-2.63-1.9-1.12,0-2.41.31-2.41,1.44,0,1.33,1.97,1.55,3.7,1.97,1.86.42,3.7,1.03,3.7,3.22,0,2.69-2.52,3.57-4.81,3.57-2.54,0-4.68-1.03-4.79-3.83h1.86Z"/>
        <path class="cls-16" d="m1104,228.07h6.32v1.75h-6.32v-1.75Z"/>
        <path class="cls-16" d="m1120.51,227.35c-.29-1.42-1.27-2.25-2.8-2.25-2.69,0-3.52,2.12-3.52,4.42,0,2.08.94,4.14,3.3,4.14,1.79,0,2.87-1.05,3.11-2.76h1.9c-.42,2.76-2.14,4.4-4.99,4.4-3.46,0-5.29-2.41-5.29-5.78s1.75-6.06,5.34-6.06c2.56,0,4.62,1.2,4.88,3.89h-1.92Z"/>
        <path class="cls-16" d="m1124.58,219.41h1.86v5.97h.04c.61-1.36,2.21-1.93,3.57-1.93,2.98,0,3.89,1.71,3.89,4.14v7.44h-1.86v-7.66c0-1.38-.88-2.28-2.3-2.28-2.25,0-3.35,1.51-3.35,3.54v6.39h-1.86v-15.62Z"/>
        <path class="cls-16" d="m1146.77,234.98c-.33.2-.74.31-1.33.31-.96,0-1.58-.53-1.58-1.75-1.03,1.2-2.41,1.75-3.98,1.75-2.06,0-3.74-.92-3.74-3.17,0-2.56,1.9-3.11,3.83-3.48,2.06-.39,3.81-.26,3.81-1.66,0-1.62-1.33-1.88-2.52-1.88-1.58,0-2.74.48-2.82,2.14h-1.86c.11-2.8,2.28-3.79,4.79-3.79,2.03,0,4.25.46,4.25,3.11v5.82c0,.88,0,1.27.59,1.27.15,0,.33-.02.57-.11v1.44Zm-3.02-5.8c-.72.53-2.12.55-3.37.77-1.22.22-2.28.66-2.28,2.04,0,1.23,1.05,1.66,2.19,1.66,2.45,0,3.46-1.53,3.46-2.56v-1.9Z"/>
        <path class="cls-16" d="m1150.47,221.68h-1.86v-2.28h1.86v2.28Zm-1.86,2.04h1.86v11.31h-1.86v-11.31Z"/>
        <path class="cls-16" d="m1153.36,223.72h1.75v1.79h.04c.79-1.4,2.06-2.06,3.68-2.06,2.98,0,3.89,1.71,3.89,4.14v7.44h-1.86v-7.66c0-1.38-.88-2.28-2.3-2.28-2.25,0-3.35,1.51-3.35,3.54v6.39h-1.86v-11.31Z"/>
        <path class="cls-16" d="m1172,219.41h2.08v15.62h-2.08v-15.62Z"/>
        <path class="cls-16" d="m1177.28,223.72h1.75v1.79h.04c.79-1.4,2.06-2.06,3.68-2.06,2.98,0,3.89,1.71,3.89,4.14v7.44h-1.86v-7.66c0-1.38-.88-2.28-2.3-2.28-2.25,0-3.35,1.51-3.35,3.54v6.39h-1.86v-11.31Z"/>
        <path class="cls-16" d="m1197.13,227.35c-.29-1.42-1.27-2.25-2.8-2.25-2.69,0-3.52,2.12-3.52,4.42,0,2.08.94,4.14,3.3,4.14,1.79,0,2.87-1.05,3.11-2.76h1.9c-.42,2.76-2.14,4.4-4.99,4.4-3.46,0-5.29-2.41-5.29-5.78s1.75-6.06,5.34-6.06c2.56,0,4.62,1.2,4.88,3.89h-1.92Z"/>
        <path class="cls-16" d="m1210.85,231.44c-.5,2.49-2.3,3.85-4.84,3.85-3.61,0-5.32-2.5-5.43-5.95,0-3.39,2.23-5.89,5.32-5.89,4,0,5.23,3.74,5.12,6.48h-8.47c-.07,1.97,1.05,3.72,3.52,3.72,1.53,0,2.6-.74,2.93-2.21h1.84Zm-1.79-3.15c-.09-1.77-1.42-3.2-3.26-3.2-1.95,0-3.11,1.47-3.24,3.2h6.5Z"/>
        <path class="cls-16" d="m1212.95,223.72h1.75v1.79h.04c.79-1.4,2.06-2.06,3.68-2.06,2.98,0,3.89,1.71,3.89,4.14v7.44h-1.86v-7.66c0-1.38-.88-2.28-2.3-2.28-2.25,0-3.35,1.51-3.35,3.54v6.39h-1.86v-11.31Z"/>
        <path class="cls-16" d="m1227.7,223.72h2.25v1.64h-2.25v7.02c0,.85.24,1.01,1.4,1.01h.85v1.64h-1.42c-1.92,0-2.69-.39-2.69-2.47v-7.2h-1.92v-1.64h1.92v-3.39h1.86v3.39Z"/>
        <path class="cls-16" d="m1233.98,221.68h-1.86v-2.28h1.86v2.28Zm-1.86,2.04h1.86v11.31h-1.86v-11.31Z"/>
        <path class="cls-16" d="m1241.97,235.03h-1.99l-4.2-11.31h2.08l3.17,9.43h.04l3.08-9.43h1.95l-4.13,11.31Z"/>
        <path class="cls-16" d="m1257.46,231.44c-.5,2.49-2.3,3.85-4.84,3.85-3.61,0-5.32-2.5-5.43-5.95,0-3.39,2.23-5.89,5.32-5.89,4,0,5.23,3.74,5.12,6.48h-8.47c-.07,1.97,1.05,3.72,3.52,3.72,1.53,0,2.6-.74,2.93-2.21h1.84Zm-1.79-3.15c-.09-1.77-1.42-3.2-3.26-3.2-1.95,0-3.11,1.47-3.24,3.2h6.5Z"/>
        <path class="cls-16" d="m1260.7,231.46c.07,1.66,1.51,2.19,3.04,2.19,1.16,0,2.73-.26,2.73-1.68s-1.84-1.68-3.7-2.1c-1.84-.42-3.7-1.03-3.7-3.19,0-2.28,2.25-3.22,4.22-3.22,2.5,0,4.49.79,4.64,3.54h-1.86c-.13-1.44-1.4-1.9-2.63-1.9-1.12,0-2.41.31-2.41,1.44,0,1.33,1.97,1.55,3.7,1.97,1.86.42,3.7,1.03,3.7,3.22,0,2.69-2.52,3.57-4.81,3.57-2.54,0-4.68-1.03-4.79-3.83h1.86Z"/>
      </g>
      <g>
        <path class="cls-16" d="m1047.52,320.89h2.84l4.92,13.13,4.95-13.13h2.84v15.62h-1.97v-13h-.04l-4.88,13h-1.77l-4.88-13h-.04v13h-1.97v-15.62Z"/>
        <path class="cls-16" d="m1071.11,324.93c3.59,0,5.49,2.6,5.49,5.93s-1.9,5.91-5.49,5.91-5.49-2.6-5.49-5.91,1.9-5.93,5.49-5.93Zm0,10.2c1.95,0,3.52-1.53,3.52-4.27s-1.58-4.29-3.52-4.29-3.52,1.53-3.52,4.29,1.58,4.27,3.52,4.27Z"/>
        <path class="cls-16" d="m1078.79,325.2h1.75v1.79h.04c.79-1.4,2.06-2.06,3.68-2.06,2.98,0,3.89,1.71,3.89,4.14v7.44h-1.86v-7.66c0-1.38-.88-2.28-2.3-2.28-2.25,0-3.35,1.51-3.35,3.54v6.39h-1.86v-11.31Z"/>
        <path class="cls-16" d="m1093.54,325.2h2.25v1.64h-2.25v7.02c0,.85.24,1.01,1.4,1.01h.85v1.64h-1.42c-1.92,0-2.69-.39-2.69-2.47v-7.2h-1.92v-1.64h1.92v-3.39h1.86v3.39Z"/>
        <path class="cls-16" d="m1097.86,320.89h1.86v5.97h.04c.61-1.36,2.21-1.93,3.57-1.93,2.98,0,3.89,1.71,3.89,4.14v7.44h-1.86v-7.66c0-1.38-.88-2.28-2.3-2.28-2.25,0-3.35,1.51-3.35,3.54v6.39h-1.86v-15.62Z"/>
        <path class="cls-16" d="m1110.13,320.89h1.86v15.62h-1.86v-15.62Z"/>
        <path class="cls-16" d="m1119.32,338.02c-.85,2.21-1.62,3.02-3.28,3.02-.44,0-.88-.04-1.29-.2v-1.71c.35.11.72.26,1.09.26.77,0,1.18-.37,1.53-1.03l.77-1.92-4.49-11.25h2.1l3.3,9.26h.04l3.17-9.26h1.97l-4.92,12.82Z"/>
        <path class="cls-16" d="m1132.22,320.89h10.26v1.75h-8.18v4.97h7.18v1.75h-7.18v7.16h-2.08v-15.62Z"/>
        <path class="cls-16" d="m1144.58,320.89h1.86v15.62h-1.86v-15.62Z"/>
        <path class="cls-16" d="m1159.35,336.47c-.33.2-.74.31-1.33.31-.96,0-1.58-.53-1.58-1.75-1.03,1.2-2.41,1.75-3.98,1.75-2.06,0-3.74-.92-3.74-3.17,0-2.56,1.9-3.11,3.83-3.48,2.06-.39,3.81-.26,3.81-1.66,0-1.62-1.33-1.88-2.52-1.88-1.58,0-2.74.48-2.82,2.14h-1.86c.11-2.8,2.28-3.79,4.79-3.79,2.04,0,4.25.46,4.25,3.11v5.82c0,.88,0,1.27.59,1.27.15,0,.33-.02.57-.11v1.44Zm-3.02-5.8c-.72.53-2.12.55-3.37.77-1.22.22-2.28.66-2.28,2.04,0,1.23,1.05,1.66,2.19,1.66,2.45,0,3.46-1.53,3.46-2.56v-1.9Z"/>
        <path class="cls-16" d="m1161.02,325.2h1.75v2.38h.04c.9-1.82,2.14-2.71,4.16-2.65v1.97c-3,0-4.09,1.71-4.09,4.57v5.03h-1.86v-11.31Z"/>
        <path class="cls-16" d="m1177.62,332.92c-.5,2.49-2.3,3.85-4.84,3.85-3.61,0-5.32-2.5-5.43-5.95,0-3.39,2.23-5.89,5.32-5.89,4,0,5.23,3.74,5.12,6.48h-8.47c-.07,1.97,1.05,3.72,3.52,3.72,1.53,0,2.6-.74,2.93-2.21h1.84Zm-1.79-3.15c-.09-1.77-1.42-3.2-3.26-3.2-1.95,0-3.11,1.47-3.24,3.2h6.5Z"/>
        <path class="cls-16" d="m1189.84,336.51h-1.86v-1.53h-.04c-.61,1.25-2.06,1.79-3.61,1.79-3.48,0-5.21-2.76-5.21-5.95s1.71-5.89,5.16-5.89c1.16,0,2.82.44,3.65,1.77h.04v-5.82h1.86v15.62Zm-5.25-1.38c2.49,0,3.46-2.14,3.46-4.27,0-2.23-1.01-4.29-3.57-4.29s-3.39,2.17-3.39,4.38,1.09,4.18,3.5,4.18Z"/>
        <path class="cls-16" d="m1192.64,325.2h1.75v2.38h.04c.9-1.82,2.14-2.71,4.16-2.65v1.97c-3,0-4.09,1.71-4.09,4.57v5.03h-1.86v-11.31Z"/>
        <path class="cls-16" d="m1204.48,324.93c3.59,0,5.49,2.6,5.49,5.93s-1.9,5.91-5.49,5.91-5.49-2.6-5.49-5.91,1.9-5.93,5.49-5.93Zm0,10.2c1.95,0,3.52-1.53,3.52-4.27s-1.58-4.29-3.52-4.29-3.52,1.53-3.52,4.29,1.58,4.27,3.52,4.27Z"/>
        <path class="cls-16" d="m1212.23,325.2h1.86v1.53h.04c.61-1.25,2.06-1.79,3.61-1.79,3.48,0,5.21,2.76,5.21,5.95s-1.71,5.89-5.16,5.89c-1.16,0-2.82-.44-3.65-1.77h-.04v5.84h-1.86v-15.64Zm5.25,1.38c-2.5,0-3.46,2.14-3.46,4.27,0,2.23,1.01,4.29,3.57,4.29s3.39-2.17,3.39-4.38-1.09-4.18-3.5-4.18Z"/>
        <path class="cls-16" d="m1226.28,332.94c.07,1.66,1.51,2.19,3.04,2.19,1.16,0,2.73-.26,2.73-1.68s-1.84-1.68-3.7-2.1c-1.84-.42-3.7-1.03-3.7-3.19,0-2.28,2.25-3.22,4.22-3.22,2.5,0,4.49.79,4.64,3.54h-1.86c-.13-1.44-1.4-1.9-2.63-1.9-1.12,0-2.41.31-2.41,1.44,0,1.33,1.97,1.55,3.7,1.97,1.86.42,3.7,1.03,3.7,3.22,0,2.69-2.52,3.57-4.81,3.57-2.54,0-4.68-1.03-4.79-3.83h1.86Z"/>
      </g>
      <g>
        <path class="cls-16" d="m1051,353.3c4.97,0,7.48,3.94,7.48,8.18s-2.52,8.18-7.48,8.18-7.48-3.94-7.48-8.18,2.52-8.18,7.48-8.18Zm0,14.62c3.81,0,5.41-3.28,5.41-6.43s-1.6-6.43-5.41-6.43-5.4,3.28-5.4,6.43,1.6,6.43,5.4,6.43Z"/>
        <path class="cls-16" d="m1060.65,357.99h1.75v2.38h.04c.9-1.82,2.14-2.71,4.16-2.65v1.97c-3,0-4.09,1.71-4.09,4.57v5.03h-1.86v-11.31Z"/>
        <path class="cls-16" d="m1069.98,355.95h-1.86v-2.28h1.86v2.28Zm-1.86,2.04h1.86v11.31h-1.86v-11.31Z"/>
        <path class="cls-16" d="m1082.62,368.33c0,3.68-1.68,5.56-5.25,5.56-2.12,0-4.57-.85-4.68-3.33h1.86c.09,1.36,1.71,1.84,2.93,1.84,2.43,0,3.39-1.75,3.39-4.29v-.74h-.04c-.61,1.38-2.1,2.06-3.52,2.06-3.37,0-5.05-2.65-5.05-5.73,0-2.67,1.31-5.97,5.23-5.97,1.42,0,2.69.63,3.37,1.88h.02v-1.62h1.75v10.35Zm-1.84-4.92c0-1.99-.88-4.05-3.22-4.05s-3.35,1.95-3.35,4.11c0,2.04.74,4.31,3.19,4.31s3.37-2.25,3.37-4.38Z"/>
        <path class="cls-16" d="m1087.4,355.95h-1.86v-2.28h1.86v2.28Zm-1.86,2.04h1.86v11.31h-1.86v-11.31Z"/>
        <path class="cls-16" d="m1090.29,357.99h1.75v1.79h.04c.79-1.4,2.06-2.06,3.68-2.06,2.98,0,3.89,1.71,3.89,4.14v7.44h-1.86v-7.66c0-1.38-.88-2.28-2.3-2.28-2.25,0-3.35,1.51-3.35,3.54v6.39h-1.86v-11.31Z"/>
        <path class="cls-16" d="m1112.48,369.25c-.33.2-.74.31-1.33.31-.96,0-1.58-.53-1.58-1.75-1.03,1.2-2.41,1.75-3.98,1.75-2.06,0-3.74-.92-3.74-3.17,0-2.56,1.9-3.11,3.83-3.48,2.06-.39,3.81-.26,3.81-1.66,0-1.62-1.33-1.88-2.52-1.88-1.58,0-2.74.48-2.82,2.14h-1.86c.11-2.8,2.28-3.79,4.79-3.79,2.04,0,4.25.46,4.25,3.11v5.82c0,.88,0,1.27.59,1.27.15,0,.33-.02.57-.11v1.44Zm-3.02-5.8c-.72.53-2.12.55-3.37.77-1.22.22-2.28.66-2.28,2.04,0,1.23,1.05,1.66,2.19,1.66,2.45,0,3.46-1.53,3.46-2.56v-1.9Z"/>
        <path class="cls-16" d="m1114.32,353.67h1.86v15.62h-1.86v-15.62Z"/>
        <path class="cls-16" d="m1129.7,353.67h2.3l6.1,15.62h-2.3l-1.71-4.7h-6.61l-1.75,4.7h-2.14l6.1-15.62Zm-1.55,9.17h5.29l-2.6-7.29h-.04l-2.65,7.29Z"/>
        <path class="cls-16" d="m1141.3,355.95h-1.86v-2.28h1.86v2.28Zm-1.86,2.04h1.86v11.31h-1.86v-11.31Z"/>
        <path class="cls-16" d="m1144.12,357.99h1.75v2.38h.04c.9-1.82,2.14-2.71,4.16-2.65v1.97c-3,0-4.09,1.71-4.09,4.57v5.03h-1.86v-11.31Z"/>
        <path class="cls-16" d="m1161.19,369.3h-1.86v-1.53h-.04c-.61,1.25-2.06,1.79-3.61,1.79-3.48,0-5.21-2.76-5.21-5.95s1.71-5.89,5.16-5.89c1.16,0,2.82.44,3.65,1.77h.04v-5.82h1.86v15.62Zm-5.25-1.38c2.49,0,3.46-2.14,3.46-4.27,0-2.23-1.01-4.29-3.57-4.29s-3.39,2.17-3.39,4.38,1.09,4.18,3.5,4.18Z"/>
        <path class="cls-16" d="m1164,357.99h1.75v2.38h.04c.9-1.82,2.14-2.71,4.16-2.65v1.97c-3,0-4.09,1.71-4.09,4.57v5.03h-1.86v-11.31Z"/>
        <path class="cls-16" d="m1175.83,357.72c3.59,0,5.49,2.6,5.49,5.93s-1.9,5.91-5.49,5.91-5.49-2.6-5.49-5.91,1.9-5.93,5.49-5.93Zm0,10.2c1.95,0,3.52-1.53,3.52-4.27s-1.58-4.29-3.52-4.29-3.52,1.53-3.52,4.29,1.58,4.27,3.52,4.27Z"/>
        <path class="cls-16" d="m1183.58,357.99h1.86v1.53h.04c.61-1.25,2.06-1.79,3.61-1.79,3.48,0,5.21,2.76,5.21,5.95s-1.71,5.89-5.16,5.89c-1.16,0-2.82-.44-3.65-1.77h-.04v5.84h-1.86v-15.65Zm5.25,1.38c-2.5,0-3.46,2.14-3.46,4.27,0,2.23,1.01,4.29,3.57,4.29s3.39-2.17,3.39-4.38-1.09-4.18-3.5-4.18Z"/>
        <path class="cls-16" d="m1197.63,365.73c.07,1.66,1.51,2.19,3.04,2.19,1.16,0,2.73-.26,2.73-1.69s-1.84-1.68-3.7-2.1c-1.84-.42-3.7-1.03-3.7-3.19,0-2.28,2.25-3.22,4.22-3.22,2.5,0,4.49.79,4.64,3.54h-1.86c-.13-1.44-1.4-1.9-2.63-1.9-1.12,0-2.41.31-2.41,1.44,0,1.33,1.97,1.55,3.7,1.97,1.86.42,3.7,1.03,3.7,3.22,0,2.69-2.52,3.57-4.81,3.57-2.54,0-4.68-1.03-4.79-3.83h1.86Z"/>
      </g>
      <g>
        <path class="cls-16" d="m1045.23,392.74h5.67c1.38,0,3.19,0,4.14.57,1.03.61,1.84,1.73,1.84,3.26,0,1.66-.88,2.91-2.32,3.5v.04c1.92.39,2.98,1.84,2.98,3.76,0,2.3-1.64,4.49-4.75,4.49h-7.55v-15.62Zm2.08,6.72h4.16c2.36,0,3.33-.85,3.33-2.49,0-2.17-1.53-2.47-3.33-2.47h-4.16v4.97Zm0,7.16h5.21c1.79,0,2.93-1.09,2.93-2.8,0-2.04-1.64-2.6-3.39-2.6h-4.75v5.4Z"/>
        <path class="cls-16" d="m1069.28,408.36h-1.75v-1.79h-.04c-.79,1.4-2.06,2.06-3.68,2.06-2.98,0-3.89-1.71-3.89-4.14v-7.44h1.86v7.66c0,1.38.88,2.28,2.3,2.28,2.25,0,3.35-1.51,3.35-3.54v-6.39h1.86v11.31Z"/>
        <path class="cls-16" d="m1072.01,397.05h1.75v2.38h.04c.9-1.82,2.14-2.71,4.16-2.65v1.97c-3,0-4.09,1.71-4.09,4.57v5.03h-1.86v-11.31Z"/>
        <path class="cls-16" d="m1079.76,397.05h1.75v1.79h.04c.79-1.4,2.06-2.06,3.68-2.06,2.98,0,3.89,1.71,3.89,4.14v7.44h-1.86v-7.66c0-1.38-.88-2.28-2.3-2.28-2.25,0-3.35,1.51-3.35,3.54v6.39h-1.86v-11.31Z"/>
        <path class="cls-16" d="m1101.58,404.77c-.5,2.49-2.3,3.85-4.84,3.85-3.61,0-5.32-2.5-5.43-5.95,0-3.39,2.23-5.89,5.32-5.89,4,0,5.23,3.74,5.12,6.48h-8.47c-.07,1.97,1.05,3.72,3.52,3.72,1.53,0,2.6-.74,2.93-2.21h1.84Zm-1.79-3.15c-.09-1.77-1.42-3.2-3.26-3.2-1.95,0-3.11,1.47-3.24,3.2h6.5Z"/>
        <path class="cls-16" d="m1113.79,408.36h-1.86v-1.53h-.04c-.61,1.25-2.06,1.79-3.61,1.79-3.48,0-5.21-2.76-5.21-5.95s1.71-5.89,5.16-5.89c1.16,0,2.82.44,3.65,1.77h.04v-5.82h1.86v15.62Zm-5.25-1.38c2.49,0,3.46-2.14,3.46-4.27,0-2.23-1.01-4.29-3.57-4.29s-3.39,2.17-3.39,4.38,1.09,4.18,3.5,4.18Z"/>
        <path class="cls-16" d="m1123.05,392.74h5.67c1.38,0,3.19,0,4.14.57,1.03.61,1.84,1.73,1.84,3.26,0,1.66-.88,2.91-2.32,3.5v.04c1.92.39,2.98,1.84,2.98,3.76,0,2.3-1.64,4.49-4.75,4.49h-7.55v-15.62Zm2.08,6.72h4.16c2.36,0,3.33-.85,3.33-2.49,0-2.17-1.53-2.47-3.33-2.47h-4.16v4.97Zm0,7.16h5.21c1.79,0,2.93-1.09,2.93-2.8,0-2.04-1.64-2.6-3.39-2.6h-4.75v5.4Z"/>
        <path class="cls-16" d="m1147.76,408.32c-.33.2-.74.31-1.33.31-.96,0-1.58-.53-1.58-1.75-1.03,1.2-2.41,1.75-3.98,1.75-2.06,0-3.74-.92-3.74-3.17,0-2.56,1.9-3.11,3.83-3.48,2.06-.39,3.81-.26,3.81-1.66,0-1.62-1.33-1.88-2.52-1.88-1.58,0-2.74.48-2.82,2.14h-1.86c.11-2.8,2.28-3.79,4.79-3.79,2.03,0,4.25.46,4.25,3.11v5.82c0,.88,0,1.27.59,1.27.15,0,.33-.02.57-.11v1.44Zm-3.02-5.8c-.72.53-2.12.55-3.37.77-1.22.22-2.28.66-2.28,2.04,0,1.23,1.05,1.66,2.19,1.66,2.45,0,3.46-1.53,3.46-2.56v-1.9Z"/>
        <path class="cls-16" d="m1157.17,400.68c-.29-1.42-1.27-2.25-2.8-2.25-2.69,0-3.52,2.12-3.52,4.42,0,2.08.94,4.14,3.3,4.14,1.79,0,2.87-1.05,3.11-2.76h1.9c-.42,2.76-2.14,4.4-4.99,4.4-3.46,0-5.29-2.41-5.29-5.78s1.75-6.06,5.34-6.06c2.56,0,4.62,1.2,4.88,3.89h-1.92Z"/>
        <path class="cls-16" d="m1161.35,392.74h1.86v9.26l5.16-4.95h2.5l-4.49,4.11,4.81,7.2h-2.36l-3.87-5.91-1.75,1.62v4.29h-1.86v-15.62Z"/>
        <path class="cls-16" d="m1182.25,404.77c-.5,2.49-2.3,3.85-4.84,3.85-3.61,0-5.32-2.5-5.43-5.95,0-3.39,2.23-5.89,5.32-5.89,4,0,5.23,3.74,5.12,6.48h-8.47c-.07,1.97,1.05,3.72,3.52,3.72,1.53,0,2.6-.74,2.93-2.21h1.84Zm-1.79-3.15c-.09-1.77-1.42-3.2-3.26-3.2-1.95,0-3.11,1.47-3.24,3.2h6.5Z"/>
        <path class="cls-16" d="m1184.29,397.05h1.75v2.38h.04c.9-1.82,2.14-2.71,4.16-2.65v1.97c-3,0-4.09,1.71-4.09,4.57v5.03h-1.86v-11.31Z"/>
        <path class="cls-16" d="m1192.78,404.8c.07,1.66,1.51,2.19,3.04,2.19,1.16,0,2.73-.26,2.73-1.68s-1.84-1.68-3.7-2.1c-1.84-.42-3.7-1.03-3.7-3.19,0-2.28,2.25-3.22,4.22-3.22,2.5,0,4.49.79,4.64,3.54h-1.86c-.13-1.44-1.4-1.9-2.63-1.9-1.12,0-2.41.31-2.41,1.44,0,1.33,1.97,1.55,3.7,1.97,1.86.42,3.7,1.03,3.7,3.22,0,2.69-2.52,3.57-4.81,3.57-2.54,0-4.68-1.03-4.79-3.83h1.86Z"/>
        <path class="cls-16" d="m1211.25,397.05h2.25v1.64h-2.25v7.02c0,.85.24,1.01,1.4,1.01h.85v1.64h-1.42c-1.92,0-2.69-.39-2.69-2.47v-7.2h-1.92v-1.64h1.92v-3.39h1.86v3.39Z"/>
        <path class="cls-16" d="m1220.44,396.79c3.59,0,5.49,2.6,5.49,5.93s-1.9,5.91-5.49,5.91-5.49-2.6-5.49-5.91,1.9-5.93,5.49-5.93Zm0,10.2c1.95,0,3.52-1.53,3.52-4.27s-1.58-4.29-3.52-4.29-3.52,1.53-3.52,4.29,1.58,4.27,3.52,4.27Z"/>
        <path class="cls-16" d="m1228.23,392.74h1.86v9.26l5.16-4.95h2.5l-4.49,4.11,4.81,7.2h-2.36l-3.87-5.91-1.75,1.62v4.29h-1.86v-15.62Z"/>
        <path class="cls-16" d="m1249.13,404.77c-.5,2.49-2.3,3.85-4.84,3.85-3.61,0-5.32-2.5-5.43-5.95,0-3.39,2.23-5.89,5.32-5.89,4,0,5.23,3.74,5.12,6.48h-8.47c-.07,1.97,1.05,3.72,3.52,3.72,1.53,0,2.6-.74,2.93-2.21h1.84Zm-1.79-3.15c-.09-1.77-1.42-3.2-3.26-3.2-1.95,0-3.11,1.47-3.24,3.2h6.5Z"/>
        <path class="cls-16" d="m1251.23,397.05h1.75v1.79h.04c.79-1.4,2.06-2.06,3.68-2.06,2.98,0,3.89,1.71,3.89,4.14v7.44h-1.86v-7.66c0-1.38-.88-2.28-2.3-2.28-2.25,0-3.35,1.51-3.35,3.54v6.39h-1.86v-11.31Z"/>
        <path class="cls-16" d="m1264.54,404.8c.07,1.66,1.51,2.19,3.04,2.19,1.16,0,2.73-.26,2.73-1.68s-1.84-1.68-3.7-2.1c-1.84-.42-3.7-1.03-3.7-3.19,0-2.28,2.25-3.22,4.22-3.22,2.5,0,4.49.79,4.64,3.54h-1.86c-.13-1.44-1.4-1.9-2.63-1.9-1.12,0-2.41.31-2.41,1.44,0,1.33,1.97,1.55,3.7,1.97,1.86.42,3.7,1.03,3.7,3.22,0,2.69-2.52,3.57-4.81,3.57-2.54,0-4.68-1.03-4.79-3.83h1.86Z"/>
      </g>
      <g>
        <path class="cls-16" d="m1045.23,423.35h5.67c1.38,0,3.19,0,4.14.57,1.03.61,1.84,1.73,1.84,3.26,0,1.66-.88,2.91-2.32,3.5v.04c1.92.39,2.98,1.84,2.98,3.76,0,2.3-1.64,4.49-4.75,4.49h-7.55v-15.62Zm2.08,6.72h4.16c2.36,0,3.33-.85,3.33-2.5,0-2.17-1.53-2.47-3.33-2.47h-4.16v4.97Zm0,7.16h5.21c1.79,0,2.93-1.09,2.93-2.8,0-2.04-1.64-2.6-3.39-2.6h-4.75v5.41Z"/>
        <path class="cls-16" d="m1069.93,438.93c-.33.2-.74.31-1.33.31-.96,0-1.58-.53-1.58-1.75-1.03,1.2-2.41,1.75-3.98,1.75-2.06,0-3.74-.92-3.74-3.17,0-2.56,1.9-3.11,3.83-3.48,2.06-.39,3.81-.26,3.81-1.66,0-1.62-1.33-1.88-2.52-1.88-1.58,0-2.74.48-2.82,2.14h-1.86c.11-2.8,2.28-3.79,4.79-3.79,2.03,0,4.25.46,4.25,3.11v5.82c0,.88,0,1.27.59,1.27.15,0,.33-.02.57-.11v1.44Zm-3.02-5.8c-.72.52-2.12.55-3.37.77-1.22.22-2.28.66-2.28,2.04,0,1.22,1.05,1.66,2.19,1.66,2.45,0,3.46-1.53,3.46-2.56v-1.9Z"/>
        <path class="cls-16" d="m1079.34,431.29c-.29-1.42-1.27-2.25-2.8-2.25-2.69,0-3.52,2.12-3.52,4.42,0,2.08.94,4.13,3.3,4.13,1.79,0,2.87-1.05,3.11-2.76h1.9c-.42,2.76-2.14,4.4-4.99,4.4-3.46,0-5.29-2.41-5.29-5.78s1.75-6.06,5.34-6.06c2.56,0,4.62,1.2,4.88,3.89h-1.92Z"/>
        <path class="cls-16" d="m1083.52,423.35h1.86v9.26l5.16-4.95h2.5l-4.49,4.11,4.81,7.2h-2.36l-3.87-5.91-1.75,1.62v4.29h-1.86v-15.62Z"/>
        <path class="cls-16" d="m1104.42,435.39c-.5,2.5-2.3,3.85-4.84,3.85-3.61,0-5.32-2.49-5.43-5.95,0-3.39,2.23-5.89,5.32-5.89,4,0,5.23,3.74,5.12,6.48h-8.47c-.07,1.97,1.05,3.72,3.52,3.72,1.53,0,2.6-.74,2.93-2.21h1.84Zm-1.79-3.15c-.09-1.77-1.42-3.19-3.26-3.19-1.95,0-3.11,1.47-3.24,3.19h6.5Z"/>
        <path class="cls-16" d="m1106.46,427.66h1.75v2.38h.04c.9-1.82,2.14-2.71,4.16-2.65v1.97c-3,0-4.09,1.71-4.09,4.57v5.03h-1.86v-11.31Z"/>
        <path class="cls-16" d="m1114.95,435.41c.07,1.66,1.51,2.19,3.04,2.19,1.16,0,2.73-.26,2.73-1.68s-1.84-1.68-3.7-2.1c-1.84-.42-3.7-1.03-3.7-3.19,0-2.28,2.25-3.22,4.22-3.22,2.5,0,4.49.79,4.64,3.54h-1.86c-.13-1.44-1.4-1.9-2.63-1.9-1.12,0-2.41.31-2.41,1.44,0,1.33,1.97,1.55,3.7,1.97,1.86.42,3.7,1.03,3.7,3.22,0,2.69-2.52,3.57-4.81,3.57-2.54,0-4.68-1.03-4.79-3.83h1.86Z"/>
      </g>
      <g>
        <path class="cls-16" d="m1049.47,455.4h2.3l6.1,15.62h-2.3l-1.71-4.7h-6.61l-1.75,4.7h-2.14l6.1-15.62Zm-1.55,9.17h5.29l-2.6-7.29h-.04l-2.65,7.29Z"/>
        <path class="cls-16" d="m1069.21,471.03h-1.86v-1.53h-.04c-.61,1.25-2.06,1.79-3.61,1.79-3.48,0-5.21-2.76-5.21-5.95s1.71-5.89,5.16-5.89c1.16,0,2.82.44,3.65,1.77h.04v-5.82h1.86v15.62Zm-5.25-1.38c2.49,0,3.46-2.14,3.46-4.27,0-2.23-1.01-4.29-3.57-4.29s-3.39,2.17-3.39,4.38,1.09,4.18,3.5,4.18Z"/>
        <path class="cls-16" d="m1077.18,471.03h-1.99l-4.2-11.31h2.08l3.17,9.43h.04l3.08-9.43h1.95l-4.13,11.31Z"/>
        <path class="cls-16" d="m1084.99,457.68h-1.86v-2.28h1.86v2.28Zm-1.86,2.04h1.86v11.31h-1.86v-11.31Z"/>
        <path class="cls-16" d="m1089.02,467.46c.07,1.66,1.51,2.19,3.04,2.19,1.16,0,2.73-.26,2.73-1.68s-1.84-1.68-3.7-2.1c-1.84-.42-3.7-1.03-3.7-3.19,0-2.28,2.25-3.22,4.22-3.22,2.5,0,4.49.79,4.64,3.54h-1.86c-.13-1.44-1.4-1.9-2.63-1.9-1.12,0-2.41.31-2.41,1.44,0,1.33,1.97,1.55,3.7,1.97,1.86.42,3.7,1.03,3.7,3.22,0,2.69-2.52,3.57-4.81,3.57-2.54,0-4.68-1.03-4.79-3.83h1.86Z"/>
        <path class="cls-16" d="m1103.7,459.45c3.59,0,5.49,2.6,5.49,5.93s-1.9,5.91-5.49,5.91-5.49-2.6-5.49-5.91,1.9-5.93,5.49-5.93Zm0,10.2c1.95,0,3.52-1.53,3.52-4.27s-1.58-4.29-3.52-4.29-3.52,1.53-3.52,4.29,1.58,4.27,3.52,4.27Z"/>
        <path class="cls-16" d="m1111.32,459.71h1.75v2.38h.04c.9-1.82,2.14-2.71,4.16-2.65v1.97c-3,0-4.09,1.71-4.09,4.57v5.03h-1.86v-11.31Z"/>
      </g>
      <g>
        <path class="cls-16" d="m1043.28,476.26h10.26v1.75h-8.18v4.97h7.18v1.75h-7.18v7.16h-2.08v-15.62Z"/>
        <path class="cls-16" d="m1064.9,491.89h-1.75v-1.79h-.04c-.79,1.4-2.06,2.06-3.68,2.06-2.98,0-3.89-1.71-3.89-4.14v-7.44h1.86v7.66c0,1.38.88,2.28,2.3,2.28,2.25,0,3.35-1.51,3.35-3.54v-6.39h1.86v11.31Z"/>
        <path class="cls-16" d="m1070.29,480.57h2.25v1.64h-2.25v7.02c0,.85.24,1.01,1.4,1.01h.85v1.64h-1.42c-1.92,0-2.69-.39-2.69-2.47v-7.2h-1.92v-1.64h1.92v-3.39h1.86v3.39Z"/>
        <path class="cls-16" d="m1083.96,491.89h-1.75v-1.79h-.04c-.79,1.4-2.06,2.06-3.68,2.06-2.98,0-3.89-1.71-3.89-4.14v-7.44h1.86v7.66c0,1.38.88,2.28,2.3,2.28,2.25,0,3.35-1.51,3.35-3.54v-6.39h1.86v11.31Z"/>
        <path class="cls-16" d="m1086.7,480.57h1.75v2.38h.04c.9-1.82,2.14-2.71,4.16-2.65v1.97c-3,0-4.09,1.71-4.09,4.57v5.03h-1.86v-11.31Z"/>
        <path class="cls-16" d="m1103.31,488.3c-.5,2.5-2.3,3.85-4.84,3.85-3.61,0-5.32-2.49-5.43-5.95,0-3.39,2.23-5.89,5.32-5.89,4,0,5.23,3.74,5.12,6.48h-8.47c-.07,1.97,1.05,3.72,3.52,3.72,1.53,0,2.6-.74,2.93-2.21h1.84Zm-1.79-3.15c-.09-1.77-1.42-3.19-3.26-3.19-1.95,0-3.11,1.47-3.24,3.19h6.5Z"/>
        <path class="cls-16" d="m1115.35,478.01h-5.21v-1.75h12.49v1.75h-5.21v13.87h-2.08v-13.87Z"/>
        <path class="cls-16" d="m1131.28,488.3c-.5,2.5-2.3,3.85-4.84,3.85-3.61,0-5.32-2.49-5.43-5.95,0-3.39,2.23-5.89,5.32-5.89,4,0,5.23,3.74,5.12,6.48h-8.47c-.07,1.97,1.05,3.72,3.52,3.72,1.53,0,2.6-.74,2.93-2.21h1.84Zm-1.79-3.15c-.09-1.77-1.42-3.19-3.26-3.19-1.95,0-3.11,1.47-3.24,3.19h6.5Z"/>
        <path class="cls-16" d="m1143.41,491.84c-.33.2-.74.31-1.33.31-.96,0-1.58-.53-1.58-1.75-1.03,1.2-2.41,1.75-3.98,1.75-2.06,0-3.74-.92-3.74-3.17,0-2.56,1.9-3.11,3.83-3.48,2.06-.39,3.81-.26,3.81-1.66,0-1.62-1.33-1.88-2.52-1.88-1.58,0-2.74.48-2.82,2.14h-1.86c.11-2.8,2.28-3.79,4.79-3.79,2.04,0,4.25.46,4.25,3.11v5.82c0,.88,0,1.27.59,1.27.15,0,.33-.02.57-.11v1.44Zm-3.02-5.8c-.72.52-2.12.55-3.37.77-1.22.22-2.28.66-2.28,2.04,0,1.22,1.05,1.66,2.19,1.66,2.45,0,3.46-1.53,3.46-2.56v-1.9Z"/>
        <path class="cls-16" d="m1145.14,480.57h1.75v1.66h.04c.83-1.27,2.1-1.93,3.65-1.93,1.38,0,2.65.55,3.11,1.93.77-1.2,2.1-1.93,3.54-1.93,2.25,0,3.76.94,3.76,3.28v8.29h-1.86v-7.42c0-1.4-.37-2.52-2.19-2.52s-2.95,1.14-2.95,2.89v7.05h-1.86v-7.42c0-1.47-.46-2.52-2.12-2.52-2.21,0-3.02,2.03-3.02,2.89v7.05h-1.86v-11.31Z"/>
      </g>
      <g>
        <path class="cls-16" d="m1043.28,497.77h7.35c2.93,0,4.75,1.6,4.75,4.09,0,1.88-.83,3.44-2.71,3.96v.04c1.82.35,2.19,1.69,2.34,3.22.13,1.53.04,3.24.92,4.31h-2.32c-.59-.63-.26-2.32-.57-3.85-.22-1.53-.59-2.82-2.6-2.82h-5.08v6.67h-2.08v-15.62Zm6.41,7.2c1.95,0,3.61-.5,3.61-2.78,0-1.53-.83-2.67-2.78-2.67h-5.16v5.45h4.33Z"/>
        <path class="cls-16" d="m1067.62,509.81c-.5,2.5-2.3,3.85-4.84,3.85-3.61,0-5.32-2.49-5.43-5.95,0-3.39,2.23-5.89,5.32-5.89,4,0,5.23,3.74,5.12,6.48h-8.47c-.07,1.97,1.05,3.72,3.52,3.72,1.53,0,2.6-.74,2.93-2.21h1.84Zm-1.79-3.15c-.09-1.77-1.42-3.19-3.26-3.19-1.95,0-3.11,1.47-3.24,3.19h6.5Z"/>
        <path class="cls-16" d="m1070.86,509.83c.07,1.66,1.51,2.19,3.04,2.19,1.16,0,2.73-.26,2.73-1.68s-1.84-1.68-3.7-2.1c-1.84-.42-3.7-1.03-3.7-3.19,0-2.28,2.25-3.22,4.22-3.22,2.5,0,4.49.79,4.64,3.54h-1.86c-.13-1.44-1.4-1.9-2.63-1.9-1.12,0-2.41.31-2.41,1.44,0,1.33,1.97,1.55,3.7,1.97,1.86.42,3.7,1.03,3.7,3.22,0,2.69-2.52,3.57-4.81,3.57-2.54,0-4.68-1.03-4.79-3.83h1.86Z"/>
        <path class="cls-16" d="m1083.24,502.08h2.25v1.64h-2.25v7.02c0,.85.24,1.01,1.4,1.01h.85v1.64h-1.42c-1.92,0-2.69-.39-2.69-2.47v-7.2h-1.92v-1.64h1.92v-3.39h1.86v3.39Z"/>
        <path class="cls-16" d="m1098.52,501.82c3.59,0,5.49,2.6,5.49,5.93s-1.9,5.91-5.49,5.91-5.49-2.6-5.49-5.91,1.9-5.93,5.49-5.93Zm0,10.2c1.95,0,3.52-1.53,3.52-4.27s-1.58-4.29-3.52-4.29-3.52,1.53-3.52,4.29,1.58,4.27,3.52,4.27Z"/>
        <path class="cls-16" d="m1106.97,503.72h-1.9v-1.64h1.9v-1.68c0-1.84,1.09-2.8,3.13-2.8.35,0,.85.07,1.2.17v1.62c-.33-.11-.72-.15-1.05-.15-.9,0-1.42.28-1.42,1.27v1.58h2.19v1.64h-2.19v9.67h-1.86v-9.67Z"/>
        <path class="cls-16" d="m1122.62,499.52h-5.21v-1.75h12.49v1.75h-5.21v13.87h-2.08v-13.87Z"/>
        <path class="cls-16" d="m1138.55,509.81c-.5,2.5-2.3,3.85-4.84,3.85-3.61,0-5.32-2.49-5.43-5.95,0-3.39,2.23-5.89,5.32-5.89,4,0,5.23,3.74,5.12,6.48h-8.47c-.07,1.97,1.05,3.72,3.52,3.72,1.53,0,2.6-.74,2.93-2.21h1.84Zm-1.79-3.15c-.09-1.77-1.42-3.19-3.26-3.19-1.95,0-3.11,1.47-3.24,3.19h6.5Z"/>
        <path class="cls-16" d="m1150.67,513.35c-.33.2-.74.31-1.33.31-.96,0-1.58-.53-1.58-1.75-1.03,1.2-2.41,1.75-3.98,1.75-2.06,0-3.74-.92-3.74-3.17,0-2.56,1.9-3.11,3.83-3.48,2.06-.39,3.81-.26,3.81-1.66,0-1.62-1.33-1.88-2.52-1.88-1.58,0-2.74.48-2.82,2.14h-1.86c.11-2.8,2.28-3.79,4.79-3.79,2.04,0,4.25.46,4.25,3.11v5.82c0,.88,0,1.27.59,1.27.15,0,.33-.02.57-.11v1.44Zm-3.02-5.8c-.72.52-2.12.55-3.37.77-1.22.22-2.28.66-2.28,2.04,0,1.22,1.05,1.66,2.19,1.66,2.45,0,3.46-1.53,3.46-2.56v-1.9Z"/>
        <path class="cls-16" d="m1152.4,502.08h1.75v1.66h.04c.83-1.27,2.1-1.93,3.65-1.93,1.38,0,2.65.55,3.11,1.93.77-1.2,2.1-1.93,3.54-1.93,2.25,0,3.76.94,3.76,3.28v8.29h-1.86v-7.42c0-1.4-.37-2.52-2.19-2.52s-2.95,1.14-2.95,2.89v7.05h-1.86v-7.42c0-1.47-.46-2.52-2.12-2.52-2.21,0-3.02,2.03-3.02,2.89v7.05h-1.86v-11.31Z"/>
      </g>
      <g>
        <path class="cls-16" d="m1043.28,524.09h10.26v1.75h-8.18v4.97h7.18v1.75h-7.18v7.16h-2.08v-15.62Z"/>
        <path class="cls-16" d="m1060.42,528.14c3.59,0,5.49,2.6,5.49,5.93s-1.9,5.91-5.49,5.91-5.49-2.6-5.49-5.91,1.9-5.93,5.49-5.93Zm0,10.2c1.95,0,3.52-1.53,3.52-4.27s-1.58-4.29-3.52-4.29-3.52,1.53-3.52,4.29,1.58,4.27,3.52,4.27Z"/>
        <path class="cls-16" d="m1077.46,539.71h-1.75v-1.79h-.04c-.79,1.4-2.06,2.06-3.68,2.06-2.98,0-3.89-1.71-3.89-4.14v-7.44h1.86v7.66c0,1.38.88,2.28,2.3,2.28,2.25,0,3.35-1.51,3.35-3.54v-6.39h1.86v11.31Z"/>
        <path class="cls-16" d="m1080.27,528.4h1.75v1.79h.04c.79-1.4,2.06-2.06,3.68-2.06,2.98,0,3.89,1.71,3.89,4.14v7.44h-1.86v-7.66c0-1.38-.88-2.28-2.3-2.28-2.25,0-3.35,1.51-3.35,3.54v6.39h-1.86v-11.31Z"/>
        <path class="cls-16" d="m1102.55,539.71h-1.86v-1.53h-.04c-.61,1.25-2.06,1.79-3.61,1.79-3.48,0-5.21-2.76-5.21-5.95s1.71-5.89,5.16-5.89c1.16,0,2.82.44,3.65,1.77h.04v-5.82h1.86v15.62Zm-5.25-1.38c2.49,0,3.46-2.14,3.46-4.27,0-2.23-1.01-4.29-3.57-4.29s-3.39,2.17-3.39,4.38,1.09,4.18,3.5,4.18Z"/>
        <path class="cls-16" d="m1107.38,526.36h-1.86v-2.28h1.86v2.28Zm-1.86,2.04h1.86v11.31h-1.86v-11.31Z"/>
        <path class="cls-16" d="m1110.27,528.4h1.75v1.79h.04c.79-1.4,2.06-2.06,3.68-2.06,2.98,0,3.89,1.71,3.89,4.14v7.44h-1.86v-7.66c0-1.38-.88-2.28-2.3-2.28-2.25,0-3.35,1.51-3.35,3.54v6.39h-1.86v-11.31Z"/>
        <path class="cls-16" d="m1132.2,538.75c0,3.68-1.68,5.56-5.25,5.56-2.12,0-4.57-.85-4.68-3.33h1.86c.09,1.36,1.71,1.84,2.93,1.84,2.43,0,3.39-1.75,3.39-4.29v-.74h-.04c-.61,1.38-2.1,2.06-3.52,2.06-3.37,0-5.05-2.65-5.05-5.73,0-2.67,1.31-5.97,5.23-5.97,1.42,0,2.69.63,3.37,1.88h.02v-1.62h1.75v10.35Zm-1.84-4.92c0-1.99-.88-4.05-3.22-4.05s-3.35,1.95-3.35,4.11c0,2.04.74,4.31,3.2,4.31s3.37-2.25,3.37-4.38Z"/>
        <path class="cls-16" d="m1144.94,525.84h-5.21v-1.75h12.49v1.75h-5.21v13.87h-2.08v-13.87Z"/>
        <path class="cls-16" d="m1160.87,536.12c-.5,2.5-2.3,3.85-4.84,3.85-3.61,0-5.32-2.49-5.43-5.95,0-3.39,2.23-5.89,5.32-5.89,4,0,5.23,3.74,5.12,6.48h-8.47c-.07,1.97,1.05,3.72,3.52,3.72,1.53,0,2.6-.74,2.93-2.21h1.84Zm-1.79-3.15c-.09-1.77-1.42-3.19-3.26-3.19-1.95,0-3.11,1.47-3.24,3.19h6.5Z"/>
        <path class="cls-16" d="m1172.99,539.67c-.33.2-.74.31-1.33.31-.96,0-1.58-.53-1.58-1.75-1.03,1.2-2.41,1.75-3.98,1.75-2.06,0-3.74-.92-3.74-3.17,0-2.56,1.9-3.11,3.83-3.48,2.06-.39,3.81-.26,3.81-1.66,0-1.62-1.33-1.88-2.52-1.88-1.58,0-2.74.48-2.82,2.14h-1.86c.11-2.8,2.28-3.79,4.79-3.79,2.03,0,4.25.46,4.25,3.11v5.82c0,.88,0,1.27.59,1.27.15,0,.33-.02.57-.11v1.44Zm-3.02-5.8c-.72.52-2.12.55-3.37.77-1.22.22-2.28.66-2.28,2.04,0,1.22,1.05,1.66,2.19,1.66,2.45,0,3.46-1.53,3.46-2.56v-1.9Z"/>
        <path class="cls-16" d="m1174.72,528.4h1.75v1.66h.04c.83-1.27,2.1-1.93,3.65-1.93,1.38,0,2.65.55,3.11,1.93.77-1.2,2.1-1.93,3.54-1.93,2.25,0,3.76.94,3.76,3.28v8.29h-1.86v-7.42c0-1.4-.37-2.52-2.19-2.52s-2.95,1.14-2.95,2.89v7.05h-1.86v-7.42c0-1.47-.46-2.52-2.12-2.52-2.21,0-3.02,2.03-3.02,2.89v7.05h-1.86v-11.31Z"/>
      </g>
      <g>
        <path class="cls-16" d="m1043.28,591.83h10.26v1.75h-8.18v4.97h7.18v1.75h-7.18v7.16h-2.08v-15.62Z"/>
        <path class="cls-16" d="m1055.65,591.83h1.86v15.62h-1.86v-15.62Z"/>
        <path class="cls-16" d="m1070.42,607.41c-.33.2-.74.31-1.33.31-.96,0-1.58-.53-1.58-1.75-1.03,1.2-2.41,1.75-3.98,1.75-2.06,0-3.74-.92-3.74-3.17,0-2.56,1.9-3.11,3.83-3.48,2.06-.39,3.81-.26,3.81-1.66,0-1.62-1.33-1.88-2.52-1.88-1.58,0-2.74.48-2.82,2.14h-1.86c.11-2.8,2.28-3.79,4.79-3.79,2.04,0,4.25.46,4.25,3.11v5.82c0,.88,0,1.27.59,1.27.15,0,.33-.02.57-.11v1.44Zm-3.02-5.8c-.72.52-2.12.55-3.37.77-1.22.22-2.28.66-2.28,2.04,0,1.22,1.05,1.66,2.19,1.66,2.45,0,3.46-1.53,3.46-2.56v-1.9Z"/>
        <path class="cls-16" d="m1072.08,596.14h1.75v2.38h.04c.9-1.82,2.14-2.71,4.16-2.65v1.97c-3,0-4.09,1.71-4.09,4.57v5.03h-1.86v-11.31Z"/>
        <path class="cls-16" d="m1088.69,603.86c-.5,2.5-2.3,3.85-4.84,3.85-3.61,0-5.32-2.49-5.43-5.95,0-3.39,2.23-5.89,5.32-5.89,4,0,5.23,3.74,5.12,6.48h-8.47c-.07,1.97,1.05,3.72,3.52,3.72,1.53,0,2.6-.74,2.93-2.21h1.84Zm-1.79-3.15c-.09-1.77-1.42-3.19-3.26-3.19-1.95,0-3.11,1.47-3.24,3.19h6.5Z"/>
        <path class="cls-16" d="m1097.19,591.83h2.08v13.87h8.27v1.75h-10.35v-15.62Z"/>
        <path class="cls-16" d="m1119.07,607.41c-.33.2-.74.31-1.33.31-.96,0-1.58-.53-1.58-1.75-1.03,1.2-2.41,1.75-3.98,1.75-2.06,0-3.74-.92-3.74-3.17,0-2.56,1.9-3.11,3.83-3.48,2.06-.39,3.81-.26,3.81-1.66,0-1.62-1.33-1.88-2.52-1.88-1.58,0-2.74.48-2.82,2.14h-1.86c.11-2.8,2.28-3.79,4.79-3.79,2.03,0,4.25.46,4.25,3.11v5.82c0,.88,0,1.27.59,1.27.15,0,.33-.02.57-.11v1.44Zm-3.02-5.8c-.72.52-2.12.55-3.37.77-1.22.22-2.28.66-2.28,2.04,0,1.22,1.05,1.66,2.19,1.66,2.45,0,3.46-1.53,3.46-2.56v-1.9Z"/>
        <path class="cls-16" d="m1120.87,591.83h1.86v5.84h.04c.61-1.25,2.06-1.79,3.61-1.79,3.48,0,5.21,2.76,5.21,5.95s-1.71,5.89-5.16,5.89c-1.16,0-2.82-.44-3.65-1.77h-.04v1.51h-1.86v-15.62Zm5.25,5.69c-2.5,0-3.46,2.14-3.46,4.27,0,2.23,1.01,4.29,3.57,4.29s3.39-2.17,3.39-4.38-1.09-4.18-3.5-4.18Z"/>
        <path class="cls-16" d="m1134.92,603.88c.07,1.66,1.51,2.19,3.04,2.19,1.16,0,2.73-.26,2.73-1.68s-1.84-1.68-3.7-2.1c-1.84-.42-3.7-1.03-3.7-3.19,0-2.28,2.25-3.22,4.22-3.22,2.5,0,4.49.79,4.64,3.54h-1.86c-.13-1.44-1.4-1.9-2.63-1.9-1.12,0-2.41.31-2.41,1.44,0,1.33,1.97,1.55,3.7,1.97,1.86.42,3.7,1.03,3.7,3.22,0,2.69-2.52,3.57-4.81,3.57-2.54,0-4.68-1.03-4.79-3.83h1.86Z"/>
      </g>
      <g>
        <path class="cls-16" d="m1043.28,669.71h10.26v1.75h-8.18v4.97h7.18v1.75h-7.18v7.16h-2.08v-15.62Z"/>
        <path class="cls-16" d="m1055.65,669.71h1.86v15.62h-1.86v-15.62Z"/>
        <path class="cls-16" d="m1070.42,685.29c-.33.2-.74.31-1.33.31-.96,0-1.58-.53-1.58-1.75-1.03,1.2-2.41,1.75-3.98,1.75-2.06,0-3.74-.92-3.74-3.17,0-2.56,1.9-3.11,3.83-3.48,2.06-.39,3.81-.26,3.81-1.66,0-1.62-1.33-1.88-2.52-1.88-1.58,0-2.74.48-2.82,2.14h-1.86c.11-2.8,2.28-3.79,4.79-3.79,2.04,0,4.25.46,4.25,3.11v5.82c0,.88,0,1.27.59,1.27.15,0,.33-.02.57-.11v1.44Zm-3.02-5.8c-.72.52-2.12.55-3.37.77-1.22.22-2.28.66-2.28,2.04,0,1.22,1.05,1.66,2.19,1.66,2.45,0,3.46-1.53,3.46-2.56v-1.9Z"/>
        <path class="cls-16" d="m1072.08,674.03h1.75v2.38h.04c.9-1.82,2.14-2.71,4.16-2.65v1.97c-3,0-4.09,1.71-4.09,4.57v5.03h-1.86v-11.31Z"/>
        <path class="cls-16" d="m1088.69,681.75c-.5,2.5-2.3,3.85-4.84,3.85-3.61,0-5.32-2.49-5.43-5.95,0-3.39,2.23-5.89,5.32-5.89,4,0,5.23,3.74,5.12,6.48h-8.47c-.07,1.97,1.05,3.72,3.52,3.72,1.53,0,2.6-.74,2.93-2.21h1.84Zm-1.79-3.15c-.09-1.77-1.42-3.19-3.26-3.19-1.95,0-3.11,1.47-3.24,3.19h6.5Z"/>
        <path class="cls-16" d="m1103.33,685.34h-2.36l-5.51-15.62h2.25l4.46,13.54h.04l4.51-13.54h2.17l-5.56,15.62Z"/>
        <path class="cls-16" d="m1121.54,674.42c-.44-2.21-2.21-3.33-4.38-3.33-3.72,0-5.29,3.06-5.29,6.32,0,3.57,1.58,6.54,5.32,6.54,2.74,0,4.31-1.92,4.51-4.51h2.08c-.39,3.89-2.82,6.26-6.76,6.26-4.86,0-7.22-3.59-7.22-8.14s2.58-8.23,7.4-8.23c3.26,0,5.95,1.75,6.43,5.08h-2.08Z"/>
        <path class="cls-16" d="m1132.44,669.71h10.26v1.75h-8.18v4.97h7.18v1.75h-7.18v7.16h-2.08v-15.62Z"/>
        <path class="cls-16" d="m1154.06,685.34h-1.75v-1.79h-.04c-.79,1.4-2.06,2.06-3.68,2.06-2.98,0-3.89-1.71-3.89-4.14v-7.44h1.86v7.66c0,1.38.88,2.28,2.3,2.28,2.25,0,3.35-1.51,3.35-3.54v-6.39h1.86v11.31Z"/>
        <path class="cls-16" d="m1156.87,674.03h1.75v1.79h.04c.79-1.4,2.06-2.06,3.68-2.06,2.98,0,3.89,1.71,3.89,4.14v7.44h-1.86v-7.66c0-1.38-.88-2.28-2.3-2.28-2.25,0-3.35,1.51-3.35,3.54v6.39h-1.86v-11.31Z"/>
        <path class="cls-16" d="m1179.14,685.34h-1.86v-1.53h-.04c-.61,1.25-2.06,1.79-3.61,1.79-3.48,0-5.21-2.76-5.21-5.95s1.71-5.89,5.16-5.89c1.16,0,2.82.44,3.65,1.77h.04v-5.82h1.86v15.62Zm-5.25-1.38c2.5,0,3.46-2.14,3.46-4.27,0-2.23-1.01-4.29-3.57-4.29s-3.39,2.17-3.39,4.38,1.09,4.18,3.5,4.18Z"/>
      </g>
      <g>
        <path class="cls-16" d="m1043.28,739.13h10.26v1.75h-8.18v4.97h7.18v1.75h-7.18v7.16h-2.08v-15.62Z"/>
        <path class="cls-16" d="m1055.65,739.13h1.86v15.62h-1.86v-15.62Z"/>
        <path class="cls-16" d="m1070.42,754.71c-.33.2-.74.31-1.33.31-.96,0-1.58-.53-1.58-1.75-1.03,1.2-2.41,1.75-3.98,1.75-2.06,0-3.74-.92-3.74-3.17,0-2.56,1.9-3.11,3.83-3.48,2.06-.39,3.81-.26,3.81-1.66,0-1.62-1.33-1.88-2.52-1.88-1.58,0-2.74.48-2.82,2.14h-1.86c.11-2.8,2.28-3.79,4.79-3.79,2.04,0,4.25.46,4.25,3.11v5.82c0,.88,0,1.27.59,1.27.15,0,.33-.02.57-.11v1.44Zm-3.02-5.8c-.72.52-2.12.55-3.37.77-1.22.22-2.28.66-2.28,2.04,0,1.22,1.05,1.66,2.19,1.66,2.45,0,3.46-1.53,3.46-2.56v-1.9Z"/>
        <path class="cls-16" d="m1072.08,743.44h1.75v2.38h.04c.9-1.82,2.14-2.71,4.16-2.65v1.97c-3,0-4.09,1.71-4.09,4.57v5.03h-1.86v-11.31Z"/>
        <path class="cls-16" d="m1088.69,751.17c-.5,2.5-2.3,3.85-4.84,3.85-3.61,0-5.32-2.49-5.43-5.95,0-3.39,2.23-5.89,5.32-5.89,4,0,5.23,3.74,5.12,6.48h-8.47c-.07,1.97,1.05,3.72,3.52,3.72,1.53,0,2.6-.74,2.93-2.21h1.84Zm-1.79-3.15c-.09-1.77-1.42-3.19-3.26-3.19-1.95,0-3.11,1.47-3.24,3.19h6.5Z"/>
        <path class="cls-16" d="m1097.19,739.13h10.26v1.75h-8.18v4.97h7.18v1.75h-7.18v7.16h-2.08v-15.62Z"/>
        <path class="cls-16" d="m1114.32,743.18c3.59,0,5.49,2.6,5.49,5.93s-1.9,5.91-5.49,5.91-5.49-2.6-5.49-5.91,1.9-5.93,5.49-5.93Zm0,10.2c1.95,0,3.52-1.53,3.52-4.27s-1.58-4.29-3.52-4.29-3.52,1.53-3.52,4.29,1.58,4.27,3.52,4.27Z"/>
        <path class="cls-16" d="m1131.37,754.76h-1.75v-1.79h-.04c-.79,1.4-2.06,2.06-3.68,2.06-2.98,0-3.89-1.71-3.89-4.14v-7.44h1.86v7.66c0,1.38.88,2.28,2.3,2.28,2.25,0,3.35-1.51,3.35-3.54v-6.39h1.86v11.31Z"/>
        <path class="cls-16" d="m1134.17,743.44h1.75v1.79h.04c.79-1.4,2.06-2.06,3.68-2.06,2.98,0,3.89,1.71,3.89,4.14v7.44h-1.86v-7.66c0-1.38-.88-2.28-2.3-2.28-2.25,0-3.35,1.51-3.35,3.54v6.39h-1.86v-11.31Z"/>
        <path class="cls-16" d="m1156.45,754.76h-1.86v-1.53h-.04c-.61,1.25-2.06,1.79-3.61,1.79-3.48,0-5.21-2.76-5.21-5.95s1.71-5.89,5.16-5.89c1.16,0,2.82.44,3.65,1.77h.04v-5.82h1.86v15.62Zm-5.25-1.38c2.5,0,3.46-2.14,3.46-4.27,0-2.23-1.01-4.29-3.57-4.29s-3.39,2.17-3.39,4.38,1.09,4.18,3.5,4.18Z"/>
        <path class="cls-16" d="m1169.34,754.71c-.33.2-.74.31-1.33.31-.96,0-1.58-.53-1.58-1.75-1.03,1.2-2.41,1.75-3.98,1.75-2.06,0-3.74-.92-3.74-3.17,0-2.56,1.9-3.11,3.83-3.48,2.06-.39,3.81-.26,3.81-1.66,0-1.62-1.33-1.88-2.52-1.88-1.58,0-2.74.48-2.82,2.14h-1.86c.11-2.8,2.28-3.79,4.79-3.79,2.04,0,4.25.46,4.25,3.11v5.82c0,.88,0,1.27.59,1.27.15,0,.33-.02.57-.11v1.44Zm-3.02-5.8c-.72.52-2.12.55-3.37.77-1.22.22-2.28.66-2.28,2.04,0,1.22,1.05,1.66,2.19,1.66,2.45,0,3.46-1.53,3.46-2.56v-1.9Z"/>
        <path class="cls-16" d="m1173.65,743.44h2.25v1.64h-2.25v7.02c0,.85.24,1.01,1.4,1.01h.85v1.64h-1.42c-1.92,0-2.69-.39-2.69-2.47v-7.2h-1.92v-1.64h1.92v-3.39h1.86v3.39Z"/>
        <path class="cls-16" d="m1179.93,741.41h-1.86v-2.28h1.86v2.28Zm-1.86,2.04h1.86v11.31h-1.86v-11.31Z"/>
        <path class="cls-16" d="m1187.7,743.18c3.59,0,5.49,2.6,5.49,5.93s-1.9,5.91-5.49,5.91-5.49-2.6-5.49-5.91,1.9-5.93,5.49-5.93Zm0,10.2c1.95,0,3.52-1.53,3.52-4.27s-1.58-4.29-3.52-4.29-3.52,1.53-3.52,4.29,1.58,4.27,3.52,4.27Z"/>
        <path class="cls-16" d="m1195.38,743.44h1.75v1.79h.04c.79-1.4,2.06-2.06,3.68-2.06,2.98,0,3.89,1.71,3.89,4.14v7.44h-1.86v-7.66c0-1.38-.88-2.28-2.3-2.28-2.25,0-3.35,1.51-3.35,3.54v6.39h-1.86v-11.31Z"/>
      </g>
      <g>
        <path class="cls-16" d="m146.37,23.43h-3.73v6.88h-4.48v-6.88h-12.44v-4.69l12.44-17.46h4.48v18.41h3.73v3.73Zm-17-3.73h8.79V6.93h-.08l-8.71,12.77Z"/>
        <path class="cls-16" d="m149.06,21.77c0-3.65,2.07-6.26,5.31-7.09v-.08c-2.61-1-4.11-3.15-4.11-5.97,0-4.94,3.28-7.92,9.04-7.92s9.04,2.99,9.04,7.92c0,2.82-1.49,4.98-4.11,5.97v.08c3.24.83,5.31,3.44,5.31,7.09,0,5.68-4.35,9.12-10.24,9.12s-10.24-3.44-10.24-9.12Zm15.76,0c0-3.19-2.36-5.1-5.52-5.1s-5.52,1.91-5.52,5.1c0,3.4,2.36,5.39,5.52,5.39s5.52-1.99,5.52-5.39Zm-10.08-12.9c0,2.74,1.95,4.27,4.56,4.27s4.56-1.54,4.56-4.27-2.03-4.44-4.56-4.44-4.56,1.57-4.56,4.44Z"/>
        <path class="cls-16" d="m185.43.71h7.3l8.17,23.18h.08l7.96-23.18h7.22v29.61h-4.94V7.47h-.08l-8.21,22.85h-4.27l-8.21-22.85h-.08v22.85h-4.94V.71Z"/>
        <path class="cls-16" d="m220.71,19.58c0-6.55,3.94-11.28,10.82-11.28s10.83,4.73,10.83,11.28-3.94,11.32-10.83,11.32-10.82-4.73-10.82-11.32Zm16.92,0c0-3.69-1.87-7.55-6.1-7.55s-6.1,3.86-6.1,7.55,1.87,7.59,6.1,7.59,6.1-3.86,6.1-7.59Z"/>
        <path class="cls-16" d="m246.3,8.88h4.48v3.15l.08.08c1.41-2.36,3.86-3.82,6.68-3.82,4.65,0,7.59,2.49,7.59,7.3v14.72h-4.73v-13.48c-.08-3.36-1.41-4.81-4.19-4.81-3.15,0-5.18,2.49-5.18,5.64v12.65h-4.73V8.88Z"/>
        <path class="cls-16" d="m267.94,8.88h3.57V2.45h4.73v6.43h4.27v3.53h-4.27v11.45c0,1.95.17,2.95,2.28,2.95.66,0,1.33,0,1.99-.17v3.65c-1.04.08-2.03.25-3.07.25-4.94,0-5.85-1.91-5.93-5.47v-12.65h-3.57v-3.53Z"/>
        <path class="cls-16" d="m283.91.71h4.73v10.99h.08c1.16-1.95,3.61-3.4,6.43-3.4,4.64,0,7.59,2.49,7.59,7.3v14.72h-4.73v-13.48c-.08-3.36-1.41-4.81-4.19-4.81-3.15,0-5.18,2.49-5.18,5.64v12.65h-4.73V.71Z"/>
        <path class="cls-16" d="m319.9.71h20.45v4.48h-15.26v7.76h13.4v4.23h-13.4v13.15h-5.18V.71Z"/>
        <path class="cls-16" d="m344.49.71h5.18v25.13h15.06v4.48h-20.24V.71Z"/>
        <path class="cls-16" d="m368.3.71h14.14c6.47,0,9.79,2.99,9.79,8.01,0,5.68-3.94,7.13-4.89,7.46v.08c1.78.25,4.4,1.58,4.4,6.26,0,3.44.5,6.59,1.62,7.8h-5.56c-.79-1.29-.79-2.9-.79-4.36,0-5.43-1.12-7.84-5.89-7.84h-7.63v12.19h-5.18V.71Zm5.18,13.48h8.5c3.28,0,5.06-1.62,5.06-4.73,0-3.77-2.45-4.52-5.14-4.52h-8.42v9.25Z"/>
        <path class="cls-16" d="m406.2.71h23.97v4.48h-9.41v25.13h-5.18V5.19h-9.37V.71Z"/>
        <path class="cls-16" d="m427.34,19.58c0-6.55,3.94-11.28,10.82-11.28s10.82,4.73,10.82,11.28-3.94,11.32-10.82,11.32-10.82-4.73-10.82-11.32Zm16.92,0c0-3.69-1.87-7.55-6.1-7.55s-6.1,3.86-6.1,7.55,1.87,7.59,6.1,7.59,6.1-3.86,6.1-7.59Z"/>
        <path class="cls-16" d="m453.05.71h4.73v16.84l8.54-8.67h5.81l-8.21,7.88,9,13.56h-5.76l-6.55-10.41-2.82,2.74v7.67h-4.73V.71Z"/>
        <path class="cls-16" d="m478.89,20.82c0,3.36,1.83,6.35,5.76,6.35,2.74,0,4.4-1.2,5.23-3.57h4.48c-1.04,4.69-5.02,7.3-9.71,7.3-6.72,0-10.49-4.69-10.49-11.28,0-6.1,3.98-11.32,10.37-11.32,6.76,0,10.91,6.1,10.12,12.53h-15.76Zm11.03-3.11c-.17-2.99-2.2-5.68-5.39-5.68s-5.52,2.49-5.64,5.68h11.03Z"/>
        <path class="cls-16" d="m498.25,8.88h4.48v3.15l.08.08c1.41-2.36,3.86-3.82,6.68-3.82,4.65,0,7.59,2.49,7.59,7.3v14.72h-4.73v-13.48c-.08-3.36-1.41-4.81-4.19-4.81-3.15,0-5.18,2.49-5.18,5.64v12.65h-4.73V8.88Z"/>
        <path class="cls-16" d="m534.25.71h12.28c9.12,0,13.06,6.64,13.06,14.81s-3.94,14.81-13.06,14.81h-12.28V.71Zm5.18,25.38h5.1c8.13,0,9.87-4.64,9.87-10.58s-1.74-10.58-9.87-10.58h-5.1v21.15Z"/>
        <path class="cls-16" d="m563.65.71h4.73v4.48h-4.73V.71Zm0,8.17h4.73v21.44h-4.73V8.88Z"/>
        <path class="cls-16" d="m577.08,23.43c.25,2.74,2.32,3.73,4.85,3.73,1.78,0,4.89-.37,4.77-2.82-.12-2.49-3.57-2.78-7.01-3.57-3.48-.75-6.88-1.99-6.88-6.35,0-4.69,5.06-6.14,8.96-6.14,4.4,0,8.38,1.83,8.96,6.6h-4.94c-.42-2.24-2.28-2.86-4.36-2.86-1.37,0-3.9.33-3.9,2.2,0,2.32,3.48,2.65,6.97,3.44,3.44.79,6.93,2.03,6.93,6.26,0,5.1-5.14,6.97-9.58,6.97-5.39,0-9.42-2.41-9.5-7.46h4.73Z"/>
        <path class="cls-16" d="m592.88,8.88h3.57V2.45h4.73v6.43h4.27v3.53h-4.27v11.45c0,1.95.17,2.95,2.28,2.95.66,0,1.33,0,1.99-.17v3.65c-1.04.08-2.03.25-3.07.25-4.94,0-5.85-1.91-5.93-5.47v-12.65h-3.57v-3.53Z"/>
        <path class="cls-16" d="m608.84,8.88h4.44v4.15h.08c.54-2.28,3.36-4.73,6.26-4.73,1.08,0,1.37.08,1.78.12v4.56c-.66-.08-1.37-.21-2.03-.21-3.23,0-5.81,2.61-5.81,7.34v10.2h-4.73V8.88Z"/>
        <path class="cls-16" d="m623.56.71h4.73v4.48h-4.73V.71Zm0,8.17h4.73v21.44h-4.73V8.88Z"/>
        <path class="cls-16" d="m633.56.71h4.73v10.95h.08c1.29-2.07,3.98-3.36,6.39-3.36,6.76,0,10.04,5.14,10.04,11.41,0,5.76-2.9,11.2-9.25,11.2-2.9,0-6.01-.71-7.42-3.53h-.08v2.95h-4.48V.71Zm10.58,11.32c-3.98,0-6.01,3.03-6.01,7.59,0,4.31,2.2,7.55,6.01,7.55,4.31,0,5.93-3.82,5.93-7.55s-2.03-7.59-5.93-7.59Z"/>
        <path class="cls-16" d="m677.6,30.32h-4.64v-2.99h-.08c-1.16,2.16-3.73,3.57-6.1,3.57-5.6,0-8-2.82-8-8.42v-13.6h4.73v13.15c0,3.77,1.54,5.14,4.11,5.14,3.94,0,5.27-2.53,5.27-5.85v-12.44h4.73v21.44Z"/>
        <path class="cls-16" d="m680.42,8.88h3.57V2.45h4.73v6.43h4.27v3.53h-4.27v11.45c0,1.95.17,2.95,2.28,2.95.66,0,1.33,0,1.99-.17v3.65c-1.04.08-2.03.25-3.07.25-4.94,0-5.85-1.91-5.93-5.47v-12.65h-3.57v-3.53Z"/>
        <path class="cls-16" d="m696.51.71h4.73v4.48h-4.73V.71Zm0,8.17h4.73v21.44h-4.73V8.88Z"/>
        <path class="cls-16" d="m705.38,19.58c0-6.55,3.94-11.28,10.82-11.28s10.83,4.73,10.83,11.28-3.94,11.32-10.83,11.32-10.82-4.73-10.82-11.32Zm16.92,0c0-3.69-1.87-7.55-6.1-7.55s-6.1,3.86-6.1,7.55,1.87,7.59,6.1,7.59,6.1-3.86,6.1-7.59Z"/>
        <path class="cls-16" d="m730.96,8.88h4.48v3.15l.08.08c1.41-2.36,3.86-3.82,6.68-3.82,4.65,0,7.59,2.49,7.59,7.3v14.72h-4.73v-13.48c-.08-3.36-1.41-4.81-4.19-4.81-3.15,0-5.18,2.49-5.18,5.64v12.65h-4.73V8.88Z"/>
        <path class="cls-16" d="m770.36,20.45c0,4.56,3.36,6.35,7.51,6.35,4.56,0,6.26-2.24,6.26-4.48s-1.24-3.2-2.45-3.65c-2.07-.79-4.77-1.33-8.83-2.45-5.06-1.37-6.55-4.44-6.55-7.51,0-5.93,5.47-8.71,10.82-8.71,6.18,0,11.36,3.28,11.36,9.46h-5.18c-.25-3.82-2.82-5.23-6.39-5.23-2.41,0-5.43.87-5.43,3.86,0,2.07,1.41,3.23,3.53,3.82.46.12,7.01,1.82,8.54,2.28,3.9,1.16,5.77,4.48,5.77,7.55,0,6.64-5.89,9.29-11.78,9.29-6.76,0-12.23-3.24-12.36-10.58h5.18Z"/>
        <path class="cls-16" d="m807.64,16.05c-.37-2.61-2.28-4.02-4.89-4.02-2.45,0-5.89,1.29-5.89,7.8,0,3.57,1.58,7.34,5.68,7.34,2.74,0,4.65-1.82,5.1-4.89h4.73c-.87,5.56-4.31,8.63-9.83,8.63-6.72,0-10.41-4.77-10.41-11.07s3.52-11.53,10.58-11.53c4.98,0,9.21,2.49,9.66,7.76h-4.73Z"/>
        <path class="cls-16" d="m816.22.71h4.73v10.99h.08c1.16-1.95,3.61-3.4,6.43-3.4,4.64,0,7.59,2.49,7.59,7.3v14.72h-4.73v-13.48c-.08-3.36-1.41-4.81-4.19-4.81-3.15,0-5.18,2.49-5.18,5.64v12.65h-4.73V.71Z"/>
        <path class="cls-16" d="m843.71,20.82c0,3.36,1.82,6.35,5.76,6.35,2.74,0,4.4-1.2,5.23-3.57h4.48c-1.04,4.69-5.02,7.3-9.71,7.3-6.72,0-10.49-4.69-10.49-11.28,0-6.1,3.98-11.32,10.37-11.32,6.76,0,10.91,6.1,10.12,12.53h-15.76Zm11.03-3.11c-.17-2.99-2.2-5.68-5.39-5.68s-5.52,2.49-5.64,5.68h11.03Z"/>
        <path class="cls-16" d="m883.28,30.32h-4.48v-2.9h-.08c-1.24,2.45-3.94,3.48-6.64,3.48-6.76,0-10.04-5.02-10.04-11.45,0-7.75,4.6-11.16,9.29-11.16,2.7,0,5.68,1,7.13,3.36h.08V.71h4.73v29.61Zm-10.58-3.15c4.23,0,6.01-3.86,6.01-7.59,0-4.73-2.28-7.55-5.93-7.55-4.44,0-6.01,3.94-6.01,7.8s1.83,7.34,5.93,7.34Z"/>
        <path class="cls-16" d="m907.24,30.32h-4.64v-2.99h-.08c-1.16,2.16-3.73,3.57-6.1,3.57-5.6,0-8-2.82-8-8.42v-13.6h4.73v13.15c0,3.77,1.53,5.14,4.11,5.14,3.94,0,5.27-2.53,5.27-5.85v-12.44h4.73v21.44Z"/>
        <path class="cls-16" d="m912.34.71h4.73v29.61h-4.73V.71Z"/>
        <path class="cls-16" d="m925.9,20.82c0,3.36,1.82,6.35,5.76,6.35,2.74,0,4.4-1.2,5.23-3.57h4.48c-1.04,4.69-5.02,7.3-9.7,7.3-6.72,0-10.49-4.69-10.49-11.28,0-6.1,3.98-11.32,10.37-11.32,6.76,0,10.91,6.1,10.12,12.53h-15.76Zm11.03-3.11c-.17-2.99-2.2-5.68-5.39-5.68s-5.52,2.49-5.64,5.68h11.03Z"/>
      </g>
    </g>
  </g>
</svg>