<svg width="1370" height="748" viewBox="0 0 1370 748" fill="none" xmlns="http://www.w3.org/2000/svg">
<g clip-path="url(#clip0_11_6481)">
<path d="M396.38 408.18L544.31 296.99H751.86" stroke="#595959" stroke-width="2" stroke-miterlimit="10"/>
<path d="M751.48 304.51C755.63 304.51 759 301.14 759 296.99C759 292.84 755.63 289.47 751.48 289.47C747.33 289.47 743.96 292.84 743.96 296.99C743.96 301.14 747.33 304.51 751.48 304.51Z" fill="#595959" stroke="#595959" stroke-miterlimit="10"/>
<path d="M173.71 292.54L228.14 139.29H744.62" stroke="#595959" stroke-width="2" stroke-miterlimit="10"/>
<path d="M747.28 146.67C752.57 147.68 757.14 143.11 756.13 137.82C755.57 134.86 753.18 132.48 750.22 131.91C744.93 130.9 740.36 135.47 741.37 140.76C741.93 143.72 744.32 146.1 747.28 146.67Z" fill="#595959" stroke="#595959" stroke-miterlimit="10"/>
<path d="M396.38 600L548.24 658.91H745.31" stroke="#595959" stroke-width="2" stroke-miterlimit="10"/>
<path d="M744.93 666.43C749.08 666.43 752.45 663.06 752.45 658.91C752.45 654.76 749.08 651.39 744.93 651.39C740.78 651.39 737.41 654.76 737.41 658.91C737.41 663.06 740.78 666.43 744.93 666.43Z" fill="#595959" stroke="#595959" stroke-miterlimit="10"/>
<path d="M436.96 485.98H751.86" stroke="#595959" stroke-width="2" stroke-miterlimit="10"/>
<path d="M751.48 493.5C755.63 493.5 759 490.13 759 485.98C759 481.83 755.63 478.46 751.48 478.46C747.33 478.46 743.96 481.83 743.96 485.98C743.96 490.13 747.33 493.5 751.48 493.5Z" fill="#595959" stroke="#595959" stroke-miterlimit="10"/>
<path d="M507.69 503.71C505.06 560.01 485.97 610.31 452.93 650.7C431.5 676.9 404.21 698.93 371.74 715.71L301.23 579.27C333.63 564.43 357.2 533.61 361.87 496.91L507.69 503.71Z" fill="#EC417E" stroke="white" stroke-width="7.52" stroke-miterlimit="10"/>
<path d="M371.74 715.71C330.72 736.91 290.51 745.7 244.38 743.55C105.44 737.06 -1.94001 619.17 4.53999 480.23C9.74999 368.57 86.91 277.29 189.13 249.12C214.1 242.23 240.57 239.12 267.85 240.39H267.86L261.43 378.2H261.42C260.08 378.15 258.73 378.12 257.37 378.12C199.19 378.12 152.02 425.29 152.02 483.47C152.02 541.65 199.19 588.82 257.37 588.82C273.02 588.82 287.88 585.41 301.23 579.27L371.74 715.71Z" fill="#E62058" stroke="white" stroke-width="7.52" stroke-miterlimit="10"/>
<path d="M506.88 468.58L362.7 482.03C361.96 425.87 317.25 380.31 261.43 378.2H261.42L267.85 240.39H267.86C360.07 244.7 437.93 295.96 478.32 372.12C493.68 401.08 503.62 433.63 506.88 468.58Z" fill="#F1719E" stroke="white" stroke-width="7.52" stroke-miterlimit="10"/>
<path d="M507.7 503.71H507.69L361.87 496.91C362.43 492.5 362.72 488.02 362.72 483.47C362.72 482.99 362.72 482.51 362.7 482.03L506.88 468.58H506.89C507.43 474.35 507.76 480.16 507.9 485.98C508.04 491.9 507.97 497.83 507.7 503.71Z" fill="#F5A4B8" stroke="white" stroke-width="7.5" stroke-miterlimit="10"/>
<path d="M923.67 136.53C923.19 134.11 921.25 132.88 918.87 132.88C914.79 132.88 913.06 136.24 913.06 139.82C913.06 143.73 914.79 147 918.89 147C921.89 147 923.62 144.89 923.83 142.06H926.11C925.68 146.33 923.01 148.92 918.69 148.92C913.36 148.92 910.77 144.98 910.77 139.99C910.77 135 913.6 130.96 918.88 130.96C922.46 130.96 925.41 132.88 925.94 136.53H923.66H923.67Z" fill="#595959"/>
<path d="M933.97 135.81C930.04 135.81 927.95 138.7 927.95 142.32C927.95 145.94 930.04 148.8 933.97 148.8C937.9 148.8 939.99 145.97 939.99 142.32C939.99 138.67 937.91 135.81 933.97 135.81ZM933.97 147C931.84 147 930.11 145.35 930.11 142.32C930.11 139.29 931.84 137.61 933.97 137.61C936.1 137.61 937.83 139.32 937.83 142.32C937.83 145.32 936.11 147 933.97 147Z" fill="#595959"/>
<path d="M942.39 136.1H944.31V137.92H944.36C945.27 136.53 946.66 135.81 948.37 135.81C949.88 135.81 951.27 136.41 951.78 137.92C952.62 136.6 954.08 135.81 955.67 135.81C958.14 135.81 959.8 136.84 959.8 139.41V148.51H957.76V140.37C957.76 138.83 957.35 137.61 955.36 137.61C953.37 137.61 952.12 138.86 952.12 140.78V148.51H950.08V140.37C950.08 138.76 949.58 137.61 947.75 137.61C945.33 137.61 944.44 139.84 944.44 140.78V148.51H942.4V136.1H942.39Z" fill="#595959"/>
<path d="M962.86 136.1H964.78V137.92H964.83C965.74 136.53 967.13 135.81 968.84 135.81C970.35 135.81 971.74 136.41 972.25 137.92C973.09 136.6 974.55 135.81 976.14 135.81C978.61 135.81 980.27 136.84 980.27 139.41V148.51H978.23V140.37C978.23 138.83 977.82 137.61 975.83 137.61C973.84 137.61 972.59 138.86 972.59 140.78V148.51H970.55V140.37C970.55 138.76 970.05 137.61 968.22 137.61C965.8 137.61 964.91 139.84 964.91 140.78V148.51H962.87V136.1H962.86Z" fill="#595959"/>
<path d="M993.61 148.51H991.69V146.54H991.64C990.78 148.08 989.38 148.8 987.61 148.8C984.35 148.8 983.34 146.93 983.34 144.26V136.1H985.38V144.5C985.38 146.01 986.34 147 987.9 147C990.37 147 991.57 145.34 991.57 143.11V136.1H993.61V148.51Z" fill="#595959"/>
<path d="M996.68 136.1H998.6V138.07H998.65C999.51 136.53 1000.91 135.81 1002.68 135.81C1005.94 135.81 1006.95 137.68 1006.95 140.35V148.51H1004.91V140.11C1004.91 138.6 1003.95 137.61 1002.39 137.61C999.92 137.61 998.72 139.27 998.72 141.5V148.51H996.68V136.1Z" fill="#595959"/>
<path d="M1010.14 136.1V148.51H1012.18V136.1H1010.14ZM1010.14 131.37V133.87H1012.18V131.37H1010.14Z" fill="#595959"/>
<path d="M1018.18 136.1H1020.65V137.9H1018.18V145.6C1018.18 146.54 1018.44 146.7 1019.72 146.7H1020.66V148.5H1019.1C1016.99 148.5 1016.15 148.07 1016.15 145.79V137.89H1014.04V136.09H1016.15V132.37H1018.19V136.09L1018.18 136.1Z" fill="#595959"/>
<path d="M1027.78 150.17C1026.84 152.59 1026 153.48 1024.18 153.48C1023.7 153.48 1023.22 153.43 1022.76 153.26V151.39C1023.14 151.51 1023.55 151.68 1023.96 151.68C1024.8 151.68 1025.26 151.27 1025.64 150.55L1026.48 148.44L1021.56 136.1H1023.86L1027.48 146.25H1027.53L1031.01 136.1H1033.17L1027.77 150.16H1027.78V150.17Z" fill="#595959"/>
<path d="M1041.92 131.37H1053.18V133.29H1044.2V138.74H1052.07V140.66H1044.2V148.51H1041.92V131.37Z" fill="#595959"/>
<path d="M1055.69 131.37H1057.97V146.59H1067.04V148.51H1055.69V131.37Z" fill="#595959"/>
<path d="M1081.9 143.78C1081.73 142.1 1081.32 140.63 1079.33 140.25V140.2C1081.4 139.63 1082.31 137.92 1082.31 135.86C1082.31 133.12 1080.32 131.37 1077.1 131.37H1069.04V148.51H1071.32V141.19H1076.89C1079.1 141.19 1079.51 142.61 1079.75 144.29C1080.08 145.97 1079.72 147.81 1080.37 148.51H1082.91C1081.95 147.33 1082.04 145.46 1081.9 143.78ZM1076.07 139.27H1071.32V133.29H1076.98C1079.12 133.29 1080.03 134.54 1080.03 136.22C1080.03 138.72 1078.21 139.27 1076.07 139.27Z" fill="#595959"/>
<path d="M1102.2 147C1101.55 147 1101.55 146.57 1101.55 145.61V139.23C1101.55 136.32 1099.12 135.82 1096.89 135.82C1094.13 135.82 1091.75 136.9 1091.63 139.97H1093.67C1093.77 138.15 1095.04 137.62 1096.77 137.62C1098.07 137.62 1099.53 137.9 1099.53 139.68C1099.53 141.21 1097.61 141.07 1095.35 141.5C1093.24 141.91 1091.15 142.51 1091.15 145.32C1091.15 147.79 1092.99 148.8 1095.25 148.8C1096.98 148.8 1098.49 148.2 1099.62 146.88C1099.62 148.22 1100.29 148.8 1101.35 148.8C1101.99 148.8 1102.45 148.67 1102.81 148.46V146.88C1102.55 146.98 1102.36 147 1102.19 147H1102.2ZM1099.49 142.11V144.18C1099.49 145.31 1098.39 146.99 1095.7 146.99C1094.45 146.99 1093.3 146.51 1093.3 145.17C1093.3 143.66 1094.46 143.18 1095.8 142.94C1097.16 142.7 1098.7 142.68 1099.49 142.11V142.09H1099.5C1099.5 142.09 1099.49 142.1 1099.49 142.11Z" fill="#595959"/>
<path d="M1104.82 131.37H1106.86V148.51H1104.82V131.37Z" fill="#595959"/>
<path d="M1110.15 131.37H1112.19V148.51H1110.15V131.37Z" fill="#595959"/>
<path d="M1120.71 135.81C1116.78 135.81 1114.69 138.7 1114.69 142.32C1114.69 145.94 1116.78 148.8 1120.71 148.8C1124.64 148.8 1126.73 145.97 1126.73 142.32C1126.73 138.67 1124.65 135.81 1120.71 135.81ZM1120.71 147C1118.58 147 1116.85 145.35 1116.85 142.32C1116.85 139.29 1118.58 137.61 1120.71 137.61C1122.84 137.61 1124.57 139.32 1124.57 142.32C1124.57 145.32 1122.85 147 1120.71 147Z" fill="#595959"/>
<path d="M1137.56 140.09C1137.25 138.53 1136.17 137.62 1134.49 137.62C1131.54 137.62 1130.63 139.95 1130.63 142.47C1130.63 144.75 1131.66 147.01 1134.25 147.01C1136.22 147.01 1137.39 145.86 1137.66 143.99H1139.75C1139.29 147.01 1137.4 148.82 1134.28 148.82C1130.49 148.82 1128.47 146.18 1128.47 142.48C1128.47 138.78 1130.39 135.83 1134.33 135.83C1137.14 135.83 1139.39 137.15 1139.68 140.1H1137.56V140.09Z" fill="#595959"/>
<path d="M1152.4 147C1151.75 147 1151.75 146.57 1151.75 145.61V139.23C1151.75 136.32 1149.32 135.82 1147.09 135.82C1144.33 135.82 1141.95 136.9 1141.83 139.97H1143.87C1143.97 138.15 1145.24 137.62 1146.97 137.62C1148.27 137.62 1149.73 137.9 1149.73 139.68C1149.73 141.21 1147.81 141.07 1145.55 141.5C1143.44 141.91 1141.35 142.51 1141.35 145.32C1141.35 147.79 1143.19 148.8 1145.45 148.8C1147.18 148.8 1148.69 148.2 1149.82 146.88C1149.82 148.22 1150.49 148.8 1151.55 148.8C1152.19 148.8 1152.65 148.67 1153.01 148.46H1153.02V146.88C1152.76 146.98 1152.57 147 1152.4 147ZM1149.69 142.11V144.18C1149.69 145.31 1148.59 146.99 1145.9 146.99C1144.65 146.99 1143.5 146.51 1143.5 145.17C1143.5 143.66 1144.66 143.18 1146 142.94C1147.36 142.7 1148.9 142.68 1149.69 142.11V142.09H1149.7C1149.7 142.09 1149.69 142.1 1149.69 142.11Z" fill="#595959"/>
<path d="M1157.74 136.1H1160.21V137.9H1157.74V145.6C1157.74 146.54 1158 146.7 1159.28 146.7H1160.22V148.5H1158.66C1156.55 148.5 1155.71 148.07 1155.71 145.79V137.89H1153.6V136.09H1155.71V132.37H1157.75V136.09H1157.74V136.1Z" fill="#595959"/>
<path d="M1162.59 136.1V148.51H1164.63V136.1H1162.59ZM1162.59 131.37V133.87H1164.63V131.37H1162.59Z" fill="#595959"/>
<path d="M1173.15 135.81C1169.22 135.81 1167.13 138.7 1167.13 142.32C1167.13 145.94 1169.22 148.8 1173.15 148.8C1177.08 148.8 1179.17 145.97 1179.17 142.32C1179.17 138.67 1177.09 135.81 1173.15 135.81ZM1173.15 147C1171.02 147 1169.29 145.35 1169.29 142.32C1169.29 139.29 1171.02 137.61 1173.15 137.61C1175.28 137.61 1177.01 139.32 1177.01 142.32C1177.01 145.32 1175.29 147 1173.15 147Z" fill="#595959"/>
<path d="M1181.57 136.1H1183.49V138.07H1183.54C1184.4 136.53 1185.8 135.81 1187.57 135.81C1190.83 135.81 1191.84 137.68 1191.84 140.35V148.51H1189.8V140.11C1189.8 138.6 1188.84 137.61 1187.28 137.61C1184.81 137.61 1183.61 139.27 1183.61 141.5V148.51H1181.57V136.1Z" fill="#595959"/>
<path d="M787.33 296.84C787.15 291.08 790.43 286.65 796.47 286.65C801.08 286.65 805.11 289.6 805.11 294.53C805.11 298.31 803.09 300.4 800.61 302.16C798.13 303.92 795.17 305.36 793.34 307.95H805.26V312.34H786.76C786.8 306.51 790.36 304.03 794.72 301.07C796.95 299.56 799.97 298.01 800.01 294.91C800.01 292.53 798.43 291.02 796.23 291.02C793.21 291.02 792.23 294.15 792.23 296.82H787.33V296.84Z" fill="#595959"/>
<path d="M807.34 296.84C807.16 291.08 810.44 286.65 816.48 286.65C821.09 286.65 825.12 289.6 825.12 294.53C825.12 298.31 823.1 300.4 820.62 302.16C818.14 303.92 815.18 305.36 813.35 307.95H825.27V312.34H806.77C806.81 306.51 810.37 304.03 814.73 301.07C816.96 299.56 819.98 298.01 820.02 294.91C820.02 292.53 818.44 291.02 816.24 291.02C813.22 291.02 812.24 294.15 812.24 296.82H807.34V296.84Z" fill="#595959"/>
<path d="M828.19 306.81H833.84V312.35H828.19V306.81Z" fill="#595959"/>
<path d="M845.6 286.66C840.34 286.66 836.78 290.72 836.78 295.87C836.78 297.85 837.39 299.94 838.72 301.49C840.16 303.07 842.36 304.08 844.52 304.08C846.97 304.08 848.81 303.25 850.21 301.27L850.28 301.34C850.14 304.15 849.17 309.01 845.46 309.01C843.7 309.01 842.4 307.57 842.08 305.88H837.21C837.79 310.3 841.02 312.86 845.38 312.86C852.54 312.86 855.28 306.06 855.28 299.69C855.28 293.32 853.23 286.66 845.6 286.66ZM845.75 300.23C843.12 300.23 841.9 297.75 841.9 295.48C841.9 293.21 843.19 290.87 845.75 290.87C848.31 290.87 849.82 293.21 849.82 295.55C849.82 298.03 848.38 300.23 845.75 300.23Z" fill="#595959"/>
<path d="M883.45 298.82C879.24 298.82 877.33 301.81 877.33 305.77C877.33 309.73 878.84 312.86 883.27 312.86C887.7 312.86 889.35 309.87 889.35 305.91C889.35 301.95 887.91 298.82 883.45 298.82ZM883.31 310.16C881.01 310.16 881.01 307.35 881.01 305.8C881.01 304.15 881.16 301.52 883.46 301.52C885.58 301.52 885.69 304.44 885.69 305.84C885.69 307.35 885.54 310.16 883.31 310.16ZM880.1 286.37L865.2 313.15H868.33L883.16 286.37H880.1ZM864.87 286.66C860.66 286.66 858.75 289.83 858.75 293.79C858.75 297.75 860.26 300.7 864.69 300.7C869.12 300.7 870.77 297.89 870.77 293.93C870.77 289.97 869.33 286.66 864.87 286.66ZM864.73 298C862.43 298 862.43 295.41 862.43 293.86C862.43 292.2 862.58 289.36 864.88 289.36C867 289.36 867.11 292.5 867.11 293.9C867.11 295.41 866.96 298 864.73 298Z" fill="#595959"/>
<path d="M910.77 291.25H922.03V293.17H913.05V298.62H920.92V300.54H913.05V308.39H910.77V291.25Z" fill="#595959"/>
<path d="M924.33 291.25H926.37V308.39H924.33V291.25Z" fill="#595959"/>
<path d="M939.92 306.88C939.27 306.88 939.27 306.45 939.27 305.49V299.11C939.27 296.2 936.84 295.7 934.61 295.7C931.85 295.7 929.47 296.78 929.35 299.85H931.39C931.49 298.03 932.76 297.5 934.49 297.5C935.79 297.5 937.25 297.78 937.25 299.56C937.25 301.09 935.33 300.95 933.07 301.38C930.96 301.79 928.87 302.39 928.87 305.2C928.87 307.67 930.71 308.68 932.97 308.68C934.7 308.68 936.21 308.08 937.34 306.76C937.34 308.1 938.01 308.68 939.07 308.68C939.71 308.68 940.17 308.56 940.53 308.34H940.54V306.76C940.28 306.86 940.09 306.88 939.92 306.88ZM937.21 301.99V304.06C937.21 305.19 936.11 306.87 933.42 306.87C932.17 306.87 931.02 306.39 931.02 305.05C931.02 303.54 932.18 303.06 933.52 302.82C934.88 302.58 936.42 302.56 937.21 301.99V301.97C937.21 301.97 937.21 301.98 937.21 301.99Z" fill="#595959"/>
<path d="M942.36 295.98H944.28V298.6H944.33C945.31 296.61 946.68 295.62 948.89 295.7V297.86C945.6 297.86 944.4 299.73 944.4 302.88V308.4H942.36V295.99V295.98Z" fill="#595959"/>
<path d="M955.15 295.68C951.77 295.68 949.32 298.42 949.32 302.14C949.44 305.93 951.31 308.67 955.27 308.67C958.05 308.67 960.02 307.19 960.57 304.45H960.58H958.56C958.2 306.05 957.02 306.87 955.34 306.87C952.63 306.87 951.41 304.95 951.48 302.79H960.77C960.89 299.79 959.54 295.69 955.15 295.69V295.68ZM951.47 300.99C951.61 299.1 952.88 297.49 955.02 297.49C957.04 297.49 958.5 299.04 958.6 300.99H951.47Z" fill="#595959"/>
<path d="M975.76 291.25H969.88V308.39H975.76C981.47 308.39 983.99 304.93 983.99 299.41C983.99 293.89 981.04 291.25 975.76 291.25ZM975.95 306.47H972.16V293.17H976C980.2 293.17 981.71 295.64 981.71 299.72C981.71 306.04 977.51 306.47 975.95 306.47Z" fill="#595959"/>
<path d="M991.61 295.68C988.23 295.68 985.78 298.42 985.78 302.14C985.9 305.93 987.77 308.67 991.73 308.67C994.51 308.67 996.48 307.19 997.03 304.45H997.04H995.02C994.66 306.05 993.48 306.87 991.8 306.87C989.09 306.87 987.87 304.95 987.94 302.79H997.23C997.35 299.79 996 295.69 991.61 295.69V295.68ZM987.93 300.99C988.07 299.1 989.34 297.49 991.48 297.49C993.5 297.49 994.96 299.04 995.06 300.99H987.93Z" fill="#595959"/>
<path d="M1004.92 308.39H1002.74L998.13 295.98H1000.41L1003.89 306.33H1003.94L1007.32 295.98H1009.46L1004.92 308.39Z" fill="#595959"/>
<path d="M1016.5 295.68C1013.12 295.68 1010.67 298.42 1010.67 302.14C1010.79 305.93 1012.66 308.67 1016.62 308.67C1019.4 308.67 1021.37 307.19 1021.92 304.45H1021.93H1019.91C1019.55 306.05 1018.37 306.87 1016.69 306.87C1013.98 306.87 1012.76 304.95 1012.83 302.79H1022.12C1022.24 299.79 1020.89 295.69 1016.5 295.69V295.68ZM1012.82 300.99C1012.96 299.1 1014.23 297.49 1016.37 297.49C1018.39 297.49 1019.85 299.04 1019.95 300.99H1012.82Z" fill="#595959"/>
<path d="M1024.34 291.25H1026.38V308.39H1024.34V291.25Z" fill="#595959"/>
<path d="M1034.9 295.69C1030.97 295.69 1028.88 298.57 1028.88 302.19C1028.88 305.81 1030.97 308.67 1034.9 308.67C1038.83 308.67 1040.92 305.83 1040.92 302.19C1040.92 298.55 1038.84 295.69 1034.9 295.69ZM1034.9 306.87C1032.77 306.87 1031.04 305.21 1031.04 302.19C1031.04 299.17 1032.77 297.49 1034.9 297.49C1037.03 297.49 1038.76 299.19 1038.76 302.19C1038.76 305.19 1037.04 306.87 1034.9 306.87Z" fill="#595959"/>
<path d="M1049.44 295.69C1047.74 295.69 1046.15 296.29 1045.48 297.66H1045.43V295.98H1043.39V313.15H1045.43V306.74H1045.48C1046.39 308.2 1048.22 308.68 1049.49 308.68C1053.28 308.68 1055.15 305.73 1055.15 302.22C1055.15 298.71 1053.26 295.69 1049.44 295.69ZM1049.27 306.87C1046.46 306.87 1045.36 304.62 1045.36 302.17C1045.36 299.72 1046.41 297.49 1049.15 297.49C1051.89 297.49 1052.99 299.65 1052.99 302.07C1052.99 304.49 1052.08 306.87 1049.27 306.87Z" fill="#595959"/>
<path d="M1057.55 295.98H1059.47V297.8H1059.52C1060.43 296.41 1061.82 295.69 1063.53 295.69C1065.04 295.69 1066.43 296.29 1066.94 297.8C1067.78 296.48 1069.24 295.69 1070.83 295.69C1073.3 295.69 1074.96 296.72 1074.96 299.29V308.39H1072.92V300.25C1072.92 298.71 1072.51 297.49 1070.52 297.49C1068.53 297.49 1067.28 298.74 1067.28 300.66V308.39H1065.24V300.25C1065.24 298.64 1064.74 297.49 1062.91 297.49C1060.49 297.49 1059.6 299.72 1059.6 300.66V308.39H1057.56V295.98H1057.55Z" fill="#595959"/>
<path d="M1083.19 295.68C1079.81 295.68 1077.36 298.42 1077.36 302.14C1077.48 305.93 1079.35 308.67 1083.31 308.67C1086.09 308.67 1088.06 307.19 1088.61 304.45H1088.62H1086.6C1086.24 306.05 1085.06 306.87 1083.38 306.87C1080.67 306.87 1079.45 304.95 1079.52 302.79H1088.81C1088.93 299.79 1087.58 295.69 1083.19 295.69V295.68ZM1079.51 300.99C1079.65 299.1 1080.92 297.49 1083.06 297.49C1085.08 297.49 1086.54 299.04 1086.64 300.99H1079.51Z" fill="#595959"/>
<path d="M1090.91 295.98H1092.83V297.95H1092.88C1093.74 296.41 1095.14 295.69 1096.91 295.69C1100.17 295.69 1101.18 297.56 1101.18 300.23V308.39H1099.14V299.99C1099.14 298.48 1098.18 297.49 1096.62 297.49C1094.15 297.49 1092.95 299.15 1092.95 301.38V308.39H1090.91V295.98Z" fill="#595959"/>
<path d="M1107.09 295.98H1109.56V297.78H1107.09V305.49C1107.09 306.43 1107.35 306.59 1108.63 306.59H1109.57V308.39H1108.01C1105.9 308.39 1105.06 307.96 1105.06 305.68V297.78H1102.95V295.98H1105.06V292.26H1107.1V295.98H1107.09Z" fill="#595959"/>
<path d="M1131.76 306.88C1131.11 306.88 1131.11 306.45 1131.11 305.49V299.11C1131.11 296.2 1128.68 295.7 1126.45 295.7C1123.69 295.7 1121.31 296.78 1121.19 299.85H1123.23C1123.33 298.03 1124.6 297.5 1126.33 297.5C1127.63 297.5 1129.09 297.78 1129.09 299.56C1129.09 301.09 1127.17 300.95 1124.91 301.38C1122.8 301.79 1120.71 302.39 1120.71 305.2C1120.71 307.67 1122.55 308.68 1124.81 308.68C1126.54 308.68 1128.05 308.08 1129.18 306.76C1129.18 308.1 1129.85 308.68 1130.91 308.68C1131.55 308.68 1132.01 308.56 1132.37 308.34H1132.38V306.76C1132.12 306.86 1131.93 306.88 1131.76 306.88ZM1129.05 301.99V304.06C1129.05 305.19 1127.95 306.87 1125.26 306.87C1124.01 306.87 1122.86 306.39 1122.86 305.05C1122.86 303.54 1124.02 303.06 1125.36 302.82C1126.72 302.58 1128.26 302.56 1129.05 301.99V301.97H1129.06C1129.06 301.97 1129.05 301.98 1129.05 301.99Z" fill="#595959"/>
<path d="M1134.27 295.98H1136.19V297.95H1136.24C1137.1 296.41 1138.5 295.69 1140.27 295.69C1143.53 295.69 1144.54 297.56 1144.54 300.23V308.39H1142.5V299.99C1142.5 298.48 1141.54 297.49 1139.98 297.49C1137.51 297.49 1136.31 299.15 1136.31 301.38V308.39H1134.27V295.98Z" fill="#595959"/>
<path d="M1156.66 291.25V297.63H1156.61C1155.7 296.17 1153.87 295.69 1152.6 295.69C1148.81 295.69 1146.94 298.64 1146.94 302.15C1146.94 305.66 1148.83 308.68 1152.65 308.68C1154.35 308.68 1155.94 308.08 1156.61 306.71H1156.66V308.39H1158.7V291.25H1156.66ZM1152.94 306.88C1150.3 306.88 1149.1 304.72 1149.1 302.3C1149.1 299.88 1150.01 297.5 1152.82 297.5C1155.63 297.5 1156.73 299.75 1156.73 302.2C1156.73 304.65 1155.68 306.88 1152.94 306.88Z" fill="#595959"/>
<path d="M1168.94 291.25H1171.22V308.39H1168.94V291.25Z" fill="#595959"/>
<path d="M1174.73 295.98H1176.65V297.95H1176.7C1177.56 296.41 1178.96 295.69 1180.73 295.69C1183.99 295.69 1185 297.56 1185 300.23V308.39H1182.96V299.99C1182.96 298.48 1182 297.49 1180.44 297.49C1177.97 297.49 1176.77 299.15 1176.77 301.38V308.39H1174.73V295.98Z" fill="#595959"/>
<path d="M1193.66 308.39H1191.48L1186.87 295.98H1189.15L1192.63 306.33H1192.68L1196.06 295.98H1198.2L1193.66 308.39Z" fill="#595959"/>
<path d="M1205.24 295.68C1201.86 295.68 1199.41 298.42 1199.41 302.14C1199.53 305.93 1201.4 308.67 1205.36 308.67C1208.14 308.67 1210.11 307.19 1210.66 304.45H1210.67H1208.65C1208.29 306.05 1207.11 306.87 1205.43 306.87C1202.72 306.87 1201.5 304.95 1201.57 302.79H1210.86C1210.98 299.79 1209.63 295.69 1205.24 295.69V295.68ZM1201.56 300.99C1201.7 299.1 1202.97 297.49 1205.11 297.49C1207.13 297.49 1208.59 299.04 1208.69 300.99H1201.56Z" fill="#595959"/>
<path d="M1214.21 304.48C1214.28 306.3 1215.87 306.88 1217.55 306.88C1218.82 306.88 1220.55 306.59 1220.55 305.03C1220.55 303.47 1218.53 303.18 1216.49 302.73C1214.47 302.27 1212.43 301.6 1212.43 299.23C1212.43 296.73 1214.9 295.7 1217.06 295.7C1219.8 295.7 1221.98 296.56 1222.15 299.59H1220.11C1219.97 298.01 1218.57 297.5 1217.23 297.5C1216.01 297.5 1214.59 297.84 1214.59 299.08C1214.59 300.54 1216.75 300.78 1218.65 301.24C1220.69 301.7 1222.71 302.37 1222.71 304.77C1222.71 307.72 1219.95 308.68 1217.43 308.68C1214.64 308.68 1212.29 307.55 1212.17 304.48H1214.21Z" fill="#595959"/>
<path d="M1227.79 295.98H1230.26V297.78H1227.79V305.49C1227.79 306.43 1228.05 306.59 1229.33 306.59H1230.27V308.39H1228.71C1226.6 308.39 1225.76 307.96 1225.76 305.68V297.78H1223.65V295.98H1225.76V292.26H1227.8V295.98H1227.79Z" fill="#595959"/>
<path d="M1232.52 295.98H1234.44V297.8H1234.49C1235.4 296.41 1236.79 295.69 1238.5 295.69C1240.01 295.69 1241.4 296.29 1241.91 297.8C1242.75 296.48 1244.21 295.69 1245.8 295.69C1248.27 295.69 1249.93 296.72 1249.93 299.29V308.39H1247.89V300.25C1247.89 298.71 1247.48 297.49 1245.49 297.49C1243.5 297.49 1242.25 298.74 1242.25 300.66V308.39H1240.21V300.25C1240.21 298.64 1239.71 297.49 1237.88 297.49C1235.46 297.49 1234.57 299.72 1234.57 300.66V308.39H1232.53V295.98H1232.52Z" fill="#595959"/>
<path d="M1258.16 295.68C1254.78 295.68 1252.33 298.42 1252.33 302.14C1252.45 305.93 1254.32 308.67 1258.28 308.67C1261.06 308.67 1263.03 307.19 1263.58 304.45H1263.59H1261.57C1261.21 306.05 1260.03 306.87 1258.35 306.87C1255.64 306.87 1254.42 304.95 1254.49 302.79H1263.78C1263.9 299.79 1262.55 295.69 1258.16 295.69V295.68ZM1254.48 300.99C1254.62 299.1 1255.89 297.49 1258.03 297.49C1260.05 297.49 1261.51 299.04 1261.61 300.99H1254.48Z" fill="#595959"/>
<path d="M1265.88 295.98H1267.8V297.95H1267.85C1268.71 296.41 1270.11 295.69 1271.88 295.69C1275.14 295.69 1276.15 297.56 1276.15 300.23V308.39H1274.11V299.99C1274.11 298.48 1273.15 297.49 1271.59 297.49C1269.12 297.49 1267.92 299.15 1267.92 301.38V308.39H1265.88V295.98Z" fill="#595959"/>
<path d="M1282.06 295.98H1284.53V297.78H1282.06V305.49C1282.06 306.43 1282.32 306.59 1283.6 306.59H1284.54V308.39H1282.98C1280.87 308.39 1280.03 307.96 1280.03 305.68V297.78H1277.92V295.98H1280.03V292.26H1282.07V295.98H1282.06Z" fill="#595959"/>
<path d="M1293.79 291.25H1305.62V293.17H1296.07V298.62H1304.97V300.54H1296.07V306.47H1305.69V308.39H1293.78V291.25H1293.79Z" fill="#595959"/>
<path d="M1308.12 295.98H1310.04V297.95H1310.09C1310.95 296.41 1312.35 295.69 1314.12 295.69C1317.38 295.69 1318.39 297.56 1318.39 300.23V308.39H1316.35V299.99C1316.35 298.48 1315.39 297.49 1313.83 297.49C1311.36 297.49 1310.16 299.15 1310.16 301.38V308.39H1308.12V295.98Z" fill="#595959"/>
<path d="M1324.29 295.98H1326.76V297.78H1324.29V305.49C1324.29 306.43 1324.55 306.59 1325.83 306.59H1326.77V308.39H1325.21C1323.1 308.39 1322.26 307.96 1322.26 305.68V297.78H1320.15V295.98H1322.26V292.26H1324.3V295.98H1324.29Z" fill="#595959"/>
<path d="M1329.14 295.98V308.39H1331.18V295.98H1329.14ZM1329.14 291.25V293.75H1331.18V291.25H1329.14Z" fill="#595959"/>
<path d="M1337.18 295.98H1339.65V297.78H1337.18V305.49C1337.18 306.43 1337.44 306.59 1338.72 306.59H1339.66V308.39H1338.1C1335.99 308.39 1335.15 307.96 1335.15 305.68V297.78H1333.04V295.98H1335.15V292.26H1337.19V295.98H1337.18Z" fill="#595959"/>
<path d="M1342.03 295.98V308.39H1344.07V295.98H1342.03ZM1342.03 291.25V293.75H1344.07V291.25H1342.03Z" fill="#595959"/>
<path d="M1352.4 295.68C1349.02 295.68 1346.57 298.42 1346.57 302.14C1346.69 305.93 1348.56 308.67 1352.52 308.67C1355.3 308.67 1357.27 307.19 1357.82 304.45H1357.83H1355.81C1355.45 306.05 1354.27 306.87 1352.59 306.87C1349.88 306.87 1348.66 304.95 1348.73 302.79H1358.02C1358.14 299.79 1356.79 295.69 1352.4 295.69V295.68ZM1348.72 300.99C1348.86 299.1 1350.13 297.49 1352.27 297.49C1354.29 297.49 1355.75 299.04 1355.85 300.99H1348.72Z" fill="#595959"/>
<path d="M1361.37 304.48C1361.44 306.3 1363.03 306.88 1364.71 306.88C1365.98 306.88 1367.71 306.59 1367.71 305.03C1367.71 303.47 1365.69 303.18 1363.65 302.73C1361.63 302.27 1359.59 301.6 1359.59 299.23C1359.59 296.73 1362.06 295.7 1364.22 295.7C1366.96 295.7 1369.14 296.56 1369.31 299.59H1367.27C1367.13 298.01 1365.73 297.5 1364.39 297.5C1363.17 297.5 1361.75 297.84 1361.75 299.08C1361.75 300.54 1363.91 300.78 1365.81 301.24C1367.85 301.7 1369.87 302.37 1369.87 304.77C1369.87 307.72 1367.11 308.68 1364.59 308.68C1361.8 308.68 1359.45 307.55 1359.33 304.48H1361.37Z" fill="#595959"/>
<path d="M787.33 481.95C787.15 476.19 790.43 471.76 796.47 471.76C801.08 471.76 805.11 474.71 805.11 479.64C805.11 483.42 803.09 485.51 800.61 487.27C798.13 489.03 795.17 490.47 793.34 493.06H805.26V497.45H786.76C786.8 491.62 790.36 489.13 794.72 486.18C796.95 484.67 799.97 483.12 800.01 480.02C800.01 477.64 798.43 476.13 796.23 476.13C793.21 476.13 792.23 479.26 792.23 481.92H787.33V481.95Z" fill="#595959"/>
<path d="M808.17 491.92H813.82V497.46H808.17V491.92Z" fill="#595959"/>
<path d="M830.13 497.47H825.02V481.13H818.69V477.28C822.25 477.35 825.53 476.13 826.07 472.28H830.14V497.48H830.13V497.47Z" fill="#595959"/>
<path d="M863.43 483.94C859.22 483.94 857.31 486.93 857.31 490.89C857.31 494.85 858.82 497.98 863.25 497.98C867.68 497.98 869.33 494.99 869.33 491.03C869.33 487.07 867.89 483.94 863.43 483.94ZM863.29 495.28C860.99 495.28 860.99 492.47 860.99 490.92C860.99 489.27 861.14 486.64 863.44 486.64C865.56 486.64 865.67 489.56 865.67 490.96C865.67 492.47 865.52 495.28 863.29 495.28ZM860.08 471.48L845.18 498.26H848.31L863.14 471.48H860.08ZM844.85 471.77C840.64 471.77 838.73 474.94 838.73 478.9C838.73 482.86 840.24 485.81 844.67 485.81C849.1 485.81 850.75 483 850.75 479.04C850.75 475.08 849.31 471.77 844.85 471.77ZM844.71 483.11C842.41 483.11 842.41 480.52 842.41 478.97C842.41 477.31 842.56 474.47 844.86 474.47C846.98 474.47 847.09 477.61 847.09 479.01C847.09 480.52 846.94 483.11 844.71 483.11Z" fill="#595959"/>
<path d="M921 488.92V488.87C922.58 488.22 923.54 486.85 923.54 485.03C923.54 483.35 922.65 482.12 921.52 481.45C920.48 480.83 918.49 480.83 916.98 480.83H910.77V497.97H919.05C922.46 497.97 924.26 495.57 924.26 493.05C924.26 490.94 923.11 489.35 921 488.92ZM913.04 482.75H917.6C919.57 482.75 921.25 483.08 921.25 485.46C921.25 487.26 920.19 488.2 917.6 488.2H913.04V482.75ZM918.75 496.05H913.04V490.12H918.25C920.17 490.12 921.97 490.75 921.97 492.98C921.97 494.85 920.72 496.05 918.75 496.05Z" fill="#595959"/>
<path d="M937.14 497.97H935.22V496H935.17C934.31 497.54 932.91 498.26 931.14 498.26C927.88 498.26 926.87 496.39 926.87 493.72V485.56H928.91V493.96C928.91 495.47 929.87 496.46 931.43 496.46C933.9 496.46 935.1 494.8 935.1 492.57V485.56H937.14V497.97Z" fill="#595959"/>
<path d="M940.14 485.56H942.06V488.18H942.11C943.09 486.19 944.46 485.2 946.67 485.28V487.44C943.38 487.44 942.18 489.31 942.18 492.46V497.98H940.14V485.57V485.56Z" fill="#595959"/>
<path d="M948.63 485.56H950.55V487.53H950.6C951.46 485.99 952.86 485.27 954.63 485.27C957.89 485.27 958.9 487.14 958.9 489.81V497.97H956.86V489.57C956.86 488.06 955.9 487.07 954.34 487.07C951.87 487.07 950.67 488.73 950.67 490.96V497.97H948.63V485.56Z" fill="#595959"/>
<path d="M967.14 485.26C963.76 485.26 961.31 488 961.31 491.72C961.43 495.51 963.3 498.25 967.26 498.25C970.04 498.25 972.01 496.77 972.56 494.03H970.55C970.19 495.63 969.01 496.45 967.33 496.45C964.62 496.45 963.4 494.53 963.47 492.37H972.76C972.88 489.36 971.53 485.26 967.14 485.26ZM963.46 490.57C963.6 488.68 964.87 487.07 967.01 487.07C969.03 487.07 970.49 488.63 970.59 490.57H963.46Z" fill="#595959"/>
<path d="M983.92 480.83V487.21H983.87C982.96 485.75 981.13 485.27 979.86 485.27C976.07 485.27 974.2 488.22 974.2 491.73C974.2 495.24 976.09 498.26 979.91 498.26C981.61 498.26 983.2 497.66 983.87 496.29H983.92V497.97H985.96V480.83H983.92ZM980.2 496.46C977.56 496.46 976.36 494.3 976.36 491.88C976.36 489.46 977.27 487.08 980.08 487.08C982.89 487.08 983.99 489.33 983.99 491.78C983.99 494.23 982.94 496.46 980.2 496.46Z" fill="#595959"/>
<path d="M1001.89 485.27C1000.19 485.27 998.6 485.87 997.93 487.24H997.88V480.83H995.84V497.98H997.88V496.32H997.93C998.84 497.78 1000.67 498.26 1001.94 498.26C1005.73 498.26 1007.6 495.31 1007.6 491.8C1007.6 488.29 1005.71 485.27 1001.89 485.27ZM1001.72 496.45C998.91 496.45 997.81 494.2 997.81 491.75C997.81 489.3 998.86 487.07 1001.6 487.07C1004.34 487.07 1005.44 489.23 1005.44 491.65C1005.44 494.07 1004.53 496.45 1001.72 496.45Z" fill="#595959"/>
<path d="M1020.38 496.46C1019.73 496.46 1019.73 496.03 1019.73 495.07V488.69C1019.73 485.78 1017.3 485.28 1015.07 485.28C1012.31 485.28 1009.93 486.36 1009.81 489.43H1011.85C1011.95 487.61 1013.22 487.08 1014.95 487.08C1016.25 487.08 1017.71 487.36 1017.71 489.14C1017.71 490.67 1015.79 490.53 1013.53 490.96C1011.42 491.37 1009.33 491.97 1009.33 494.78C1009.33 497.25 1011.17 498.26 1013.43 498.26C1015.16 498.26 1016.67 497.66 1017.8 496.34C1017.8 497.68 1018.47 498.26 1019.53 498.26C1020.17 498.26 1020.63 498.14 1020.99 497.92H1021V496.34C1020.74 496.44 1020.55 496.46 1020.38 496.46ZM1017.67 491.57V493.64C1017.67 494.77 1016.57 496.45 1013.88 496.45C1012.63 496.45 1011.48 495.97 1011.48 494.63C1011.48 493.12 1012.64 492.64 1013.98 492.4C1015.34 492.16 1016.88 492.14 1017.67 491.57V491.55H1017.68C1017.68 491.55 1017.67 491.56 1017.67 491.57Z" fill="#595959"/>
<path d="M1031.31 489.54C1031 487.98 1029.92 487.07 1028.24 487.07C1025.29 487.07 1024.38 489.4 1024.38 491.92C1024.38 494.2 1025.41 496.46 1028 496.46C1029.97 496.46 1031.14 495.31 1031.41 493.44H1033.5C1033.04 496.46 1031.15 498.26 1028.03 498.26C1024.24 498.26 1022.22 495.62 1022.22 491.92C1022.22 488.22 1024.14 485.27 1028.08 485.27C1030.89 485.27 1033.14 486.59 1033.43 489.54H1031.31Z" fill="#595959"/>
<path d="M1035.9 480.83H1037.94V490.98L1043.6 485.56H1046.34L1041.42 490.07L1046.7 497.97H1044.11L1039.86 491.49L1037.94 493.27V497.97H1035.9V480.83Z" fill="#595959"/>
<path d="M1053.4 485.26C1050.02 485.26 1047.57 488 1047.57 491.72C1047.69 495.51 1049.56 498.25 1053.52 498.25C1056.3 498.25 1058.27 496.77 1058.82 494.03H1056.81C1056.45 495.63 1055.27 496.45 1053.59 496.45C1050.88 496.45 1049.66 494.53 1049.73 492.37H1059.02C1059.14 489.36 1057.79 485.26 1053.4 485.26ZM1049.72 490.57C1049.86 488.68 1051.13 487.07 1053.27 487.07C1055.29 487.07 1056.75 488.63 1056.85 490.57H1049.72Z" fill="#595959"/>
<path d="M1061.05 485.56H1062.97V488.18H1063.02C1064 486.19 1065.37 485.2 1067.58 485.28V487.44C1064.29 487.44 1063.09 489.31 1063.09 492.46V497.98H1061.05V485.57V485.56Z" fill="#595959"/>
<path d="M1078.62 485.56H1081.09V487.36H1078.62V495.06C1078.62 496 1078.88 496.16 1080.16 496.16H1081.1V497.96H1079.54C1077.43 497.96 1076.59 497.53 1076.59 495.25V487.35H1074.48V485.55H1076.59V481.83H1078.63V485.55H1078.62V485.56Z" fill="#595959"/>
<path d="M1088.7 485.27C1084.77 485.27 1082.68 488.15 1082.68 491.77C1082.68 495.39 1084.77 498.25 1088.7 498.25C1092.63 498.25 1094.72 495.41 1094.72 491.77C1094.72 488.13 1092.64 485.27 1088.7 485.27ZM1088.7 496.46C1086.57 496.46 1084.84 494.8 1084.84 491.78C1084.84 488.76 1086.57 487.08 1088.7 487.08C1090.83 487.08 1092.56 488.78 1092.56 491.78C1092.56 494.78 1090.84 496.46 1088.7 496.46Z" fill="#595959"/>
<path d="M1097.24 480.83H1099.28V490.98L1104.94 485.56H1107.68L1102.76 490.07L1108.04 497.97H1105.45L1101.2 491.49L1099.28 493.27V497.97H1097.24V480.83Z" fill="#595959"/>
<path d="M1114.74 485.26C1111.36 485.26 1108.91 488 1108.91 491.72C1109.03 495.51 1110.9 498.25 1114.86 498.25C1117.64 498.25 1119.61 496.77 1120.16 494.03H1118.15C1117.79 495.63 1116.61 496.45 1114.93 496.45C1112.22 496.45 1111 494.53 1111.07 492.37H1120.36C1120.48 489.36 1119.13 485.26 1114.74 485.26ZM1111.06 490.57C1111.2 488.68 1112.47 487.07 1114.61 487.07C1116.63 487.07 1118.09 488.63 1118.19 490.57H1111.06Z" fill="#595959"/>
<path d="M1122.46 485.56H1124.38V487.53H1124.43C1125.29 485.99 1126.69 485.27 1128.46 485.27C1131.72 485.27 1132.73 487.14 1132.73 489.81V497.97H1130.69V489.57C1130.69 488.06 1129.73 487.07 1128.17 487.07C1125.7 487.07 1124.5 488.73 1124.5 490.96V497.97H1122.46V485.56Z" fill="#595959"/>
<path d="M1137.06 494.05C1137.13 495.87 1138.72 496.45 1140.4 496.45C1141.67 496.45 1143.4 496.16 1143.4 494.6C1143.4 493.04 1141.38 492.75 1139.34 492.3C1137.32 491.84 1135.28 491.17 1135.28 488.8C1135.28 486.3 1137.75 485.27 1139.91 485.27C1142.65 485.27 1144.83 486.13 1145 489.16H1142.96C1142.82 487.58 1141.42 487.07 1140.08 487.07C1138.86 487.07 1137.44 487.41 1137.44 488.65C1137.44 490.11 1139.6 490.35 1141.5 490.81C1143.54 491.27 1145.56 491.94 1145.56 494.34C1145.56 497.29 1142.8 498.25 1140.28 498.25C1137.49 498.25 1135.14 497.12 1135.02 494.05H1137.06Z" fill="#595959"/>
<path d="M798.2 670.88H793.09V654.54H786.76V650.69C790.32 650.76 793.6 649.54 794.14 645.69H798.21V670.89H798.2V670.88Z" fill="#595959"/>
<path d="M821.42 656.56C819.99 654.98 817.79 653.97 815.63 653.97C813.18 653.97 811.34 654.8 809.94 656.78L809.87 656.71C810.01 653.9 810.98 649.04 814.69 649.04C816.45 649.04 817.75 650.48 818.07 652.17H822.93C822.36 647.75 819.12 645.19 814.76 645.19C807.6 645.19 804.86 651.99 804.86 658.36C804.86 664.73 806.91 671.39 814.54 671.39C819.8 671.39 823.36 667.33 823.36 662.18C823.36 660.2 822.75 658.11 821.42 656.56ZM814.4 667.18C811.84 667.18 810.33 664.84 810.33 662.5C810.33 660.02 811.77 657.82 814.4 657.82C817.03 657.82 818.25 660.3 818.25 662.57C818.25 664.84 816.96 667.18 814.4 667.18Z" fill="#595959"/>
<path d="M826.28 665.34H831.93V670.88H826.28V665.34Z" fill="#595959"/>
<path d="M852.73 650.08C847.44 654.69 844.56 664.15 844.49 670.89H839.02C839.6 663.44 842.69 656.2 847.48 650.44H835.53V645.69H852.74V650.08H852.73Z" fill="#595959"/>
<path d="M881.54 657.35C877.33 657.35 875.42 660.34 875.42 664.3C875.42 668.26 876.93 671.39 881.36 671.39C885.79 671.39 887.44 668.4 887.44 664.44C887.44 660.48 886 657.35 881.54 657.35ZM881.4 668.69C879.1 668.69 879.1 665.88 879.1 664.33C879.1 662.68 879.25 660.05 881.55 660.05C883.67 660.05 883.78 662.97 883.78 664.37C883.78 665.88 883.63 668.69 881.4 668.69ZM878.19 644.89L863.29 671.67H866.42L881.25 644.89H878.19ZM862.96 645.18C858.75 645.18 856.84 648.35 856.84 652.31C856.84 656.27 858.35 659.22 862.78 659.22C867.21 659.22 868.86 656.41 868.86 652.45C868.86 648.49 867.42 645.18 862.96 645.18ZM862.82 656.52C860.52 656.52 860.52 653.93 860.52 652.38C860.52 650.72 860.67 647.88 862.97 647.88C865.09 647.88 865.2 651.02 865.2 652.42C865.2 653.93 865.05 656.52 862.82 656.52Z" fill="#595959"/>
<path d="M910.77 649.57H922.03V651.49H913.05V656.94H920.92V658.86H913.05V666.71H910.77V649.57Z" fill="#595959"/>
<path d="M924.33 649.57H926.37V666.71H924.33V649.57Z" fill="#595959"/>
<path d="M939.92 665.2C939.27 665.2 939.27 664.77 939.27 663.81V657.43C939.27 654.52 936.84 654.02 934.61 654.02C931.85 654.02 929.47 655.1 929.35 658.17H931.39C931.49 656.35 932.76 655.82 934.49 655.82C935.79 655.82 937.25 656.1 937.25 657.88C937.25 659.41 935.33 659.27 933.07 659.7C930.96 660.11 928.87 660.71 928.87 663.52C928.87 665.99 930.71 667 932.97 667C934.7 667 936.21 666.4 937.34 665.08C937.34 666.42 938.01 667 939.07 667C939.71 667 940.17 666.88 940.53 666.66H940.54V665.08C940.28 665.18 940.09 665.2 939.92 665.2ZM937.21 660.31V662.38C937.21 663.51 936.11 665.19 933.42 665.19C932.17 665.19 931.02 664.71 931.02 663.37C931.02 661.86 932.18 661.38 933.52 661.14C934.88 660.9 936.42 660.88 937.21 660.31V660.29C937.21 660.29 937.21 660.3 937.21 660.31Z" fill="#595959"/>
<path d="M942.36 654.3H944.28V656.92H944.33C945.31 654.93 946.68 653.94 948.89 654.02V656.18C945.6 656.18 944.4 658.05 944.4 661.2V666.72H942.36V654.31V654.3Z" fill="#595959"/>
<path d="M955.15 654C951.77 654 949.32 656.74 949.32 660.46C949.44 664.25 951.31 666.99 955.27 666.99C958.05 666.99 960.02 665.51 960.57 662.77H960.58H958.56C958.2 664.37 957.02 665.19 955.34 665.19C952.63 665.19 951.41 663.27 951.48 661.11H960.77C960.89 658.11 959.54 654.01 955.15 654.01V654ZM951.47 659.31C951.61 657.42 952.88 655.81 955.02 655.81C957.04 655.81 958.5 657.37 958.6 659.31H951.47Z" fill="#595959"/>
<path d="M973.77 651.49H968.06V649.57H981.77V651.49H976.06V666.71H973.78V651.49H973.77Z" fill="#595959"/>
<path d="M985.82 654C982.44 654 979.99 656.74 979.99 660.46C980.11 664.25 981.98 666.99 985.94 666.99C988.72 666.99 990.69 665.51 991.24 662.77H991.25H989.23C988.87 664.37 987.69 665.19 986.01 665.19C983.3 665.19 982.08 663.27 982.15 661.11H991.44C991.56 658.11 990.21 654.01 985.82 654.01V654ZM982.14 659.31C982.28 657.42 983.55 655.81 985.69 655.81C987.71 655.81 989.17 657.37 989.27 659.31H982.14Z" fill="#595959"/>
<path d="M1003.93 665.2C1003.28 665.2 1003.28 664.77 1003.28 663.81V657.43C1003.28 654.52 1000.85 654.02 998.62 654.02C995.86 654.02 993.48 655.1 993.36 658.17H995.4C995.5 656.35 996.77 655.82 998.5 655.82C999.8 655.82 1001.26 656.1 1001.26 657.88C1001.26 659.41 999.34 659.27 997.08 659.7C994.97 660.11 992.88 660.71 992.88 663.52C992.88 665.99 994.72 667 996.98 667C998.71 667 1000.22 666.4 1001.35 665.08C1001.35 666.42 1002.02 667 1003.08 667C1003.72 667 1004.18 666.88 1004.54 666.66H1004.55V665.08C1004.29 665.18 1004.1 665.2 1003.93 665.2ZM1001.22 660.31V662.38C1001.22 663.51 1000.12 665.19 997.43 665.19C996.18 665.19 995.03 664.71 995.03 663.37C995.03 661.86 996.19 661.38 997.53 661.14C998.89 660.9 1000.43 660.88 1001.22 660.31V660.29H1001.23C1001.23 660.29 1001.22 660.3 1001.22 660.31Z" fill="#595959"/>
<path d="M1006.43 654.3H1008.35V656.12H1008.4C1009.31 654.73 1010.7 654.01 1012.41 654.01C1013.92 654.01 1015.31 654.61 1015.82 656.12C1016.66 654.8 1018.12 654.01 1019.71 654.01C1022.18 654.01 1023.84 655.04 1023.84 657.61V666.71H1021.8V658.57C1021.8 657.03 1021.39 655.81 1019.4 655.81C1017.41 655.81 1016.16 657.06 1016.16 658.98V666.71H1014.12V658.57C1014.12 656.96 1013.62 655.81 1011.79 655.81C1009.37 655.81 1008.48 658.04 1008.48 658.98V666.71H1006.44V654.3H1006.43Z" fill="#595959"/>
<path d="M1027.36 664.04H1030.02V666.46C1030.02 668.26 1029.23 669.7 1027.38 670.23V669.03C1028.46 668.67 1028.82 667.47 1028.77 666.7H1027.35V664.04H1027.36Z" fill="#595959"/>
<path d="M1050.63 665.2C1049.98 665.2 1049.98 664.77 1049.98 663.81V657.43C1049.98 654.52 1047.55 654.02 1045.32 654.02C1042.56 654.02 1040.18 655.1 1040.06 658.17H1042.1C1042.2 656.35 1043.47 655.82 1045.2 655.82C1046.5 655.82 1047.96 656.1 1047.96 657.88C1047.96 659.41 1046.04 659.27 1043.78 659.7C1041.67 660.11 1039.58 660.71 1039.58 663.52C1039.58 665.99 1041.42 667 1043.68 667C1045.41 667 1046.92 666.4 1048.05 665.08C1048.05 666.42 1048.72 667 1049.78 667C1050.42 667 1050.88 666.88 1051.24 666.66H1051.25V665.08C1050.99 665.18 1050.8 665.2 1050.63 665.2ZM1047.92 660.31V662.38C1047.92 663.51 1046.82 665.19 1044.13 665.19C1042.88 665.19 1041.73 664.71 1041.73 663.37C1041.73 661.86 1042.89 661.38 1044.23 661.14C1045.59 660.9 1047.13 660.88 1047.92 660.31V660.29H1047.93C1047.93 660.29 1047.92 660.3 1047.92 660.31Z" fill="#595959"/>
<path d="M1062.19 649.56V655.94H1062.14C1061.23 654.48 1059.4 654 1058.13 654C1054.34 654 1052.47 656.95 1052.47 660.46C1052.47 663.97 1054.36 666.99 1058.18 666.99C1059.88 666.99 1061.47 666.39 1062.14 665.02H1062.19V666.7H1064.23V649.56H1062.19ZM1058.47 665.19C1055.83 665.18 1054.63 663.02 1054.63 660.6C1054.63 658.18 1055.54 655.8 1058.35 655.8C1061.16 655.8 1062.26 658.06 1062.26 660.51C1062.26 662.96 1061.21 665.19 1058.47 665.19Z" fill="#595959"/>
<path d="M1072.96 666.7H1070.78L1066.17 654.29H1068.45L1071.93 664.64H1071.98L1075.36 654.29H1077.5L1072.96 666.7Z" fill="#595959"/>
<path d="M1079.49 654.29V666.7H1081.53V654.29H1079.49ZM1079.49 649.56V652.06H1081.53V649.56H1079.49Z" fill="#595959"/>
<path d="M1085.95 662.79C1086.02 664.61 1087.61 665.19 1089.29 665.19C1090.56 665.19 1092.29 664.9 1092.29 663.34C1092.29 661.78 1090.27 661.49 1088.23 661.04C1086.21 660.58 1084.17 659.91 1084.17 657.54C1084.17 655.04 1086.64 654.01 1088.8 654.01C1091.54 654.01 1093.72 654.87 1093.89 657.9H1091.85C1091.71 656.32 1090.31 655.81 1088.97 655.81C1087.75 655.81 1086.33 656.15 1086.33 657.39C1086.33 658.85 1088.49 659.1 1090.39 659.55C1092.43 660.01 1094.45 660.68 1094.45 663.08C1094.45 666.03 1091.69 666.99 1089.17 666.99C1086.38 666.99 1084.03 665.86 1083.91 662.79H1085.95Z" fill="#595959"/>
<path d="M1102.05 654.01C1098.12 654.01 1096.03 656.89 1096.03 660.51C1096.03 664.13 1098.12 666.99 1102.05 666.99C1105.98 666.99 1108.07 664.15 1108.07 660.51C1108.07 656.87 1105.99 654.01 1102.05 654.01ZM1102.05 665.19C1099.92 665.19 1098.19 663.54 1098.19 660.51C1098.19 657.48 1099.92 655.8 1102.05 655.8C1104.18 655.8 1105.91 657.51 1105.91 660.51C1105.91 663.51 1104.19 665.19 1102.05 665.19Z" fill="#595959"/>
<path d="M1110.4 654.3H1112.32V656.92H1112.37C1113.35 654.93 1114.72 653.94 1116.93 654.02V656.18C1113.64 656.18 1112.44 658.05 1112.44 661.2V666.72H1110.4V654.31V654.3Z" fill="#595959"/>
<path d="M1119.71 662.79C1119.78 664.61 1121.37 665.19 1123.05 665.19C1124.32 665.19 1126.05 664.9 1126.05 663.34C1126.05 661.78 1124.03 661.49 1121.99 661.04C1119.97 660.58 1117.93 659.91 1117.93 657.54C1117.93 655.04 1120.4 654.01 1122.56 654.01C1125.3 654.01 1127.48 654.87 1127.65 657.9H1125.61C1125.47 656.32 1124.07 655.81 1122.73 655.81C1121.51 655.81 1120.09 656.15 1120.09 657.39C1120.09 658.85 1122.25 659.1 1124.15 659.55C1126.19 660.01 1128.21 660.68 1128.21 663.08C1128.21 666.03 1125.45 666.99 1122.93 666.99C1120.14 666.99 1117.79 665.86 1117.67 662.79H1119.71Z" fill="#595959"/>
<path d="M1147.52 665.2C1146.87 665.2 1146.87 664.77 1146.87 663.81V657.43C1146.87 654.52 1144.44 654.02 1142.21 654.02C1139.45 654.02 1137.07 655.1 1136.95 658.17H1138.99C1139.09 656.35 1140.36 655.82 1142.09 655.82C1143.39 655.82 1144.85 656.1 1144.85 657.88C1144.85 659.41 1142.93 659.27 1140.67 659.7C1138.56 660.11 1136.47 660.71 1136.47 663.52C1136.47 665.99 1138.31 667 1140.57 667C1142.3 667 1143.81 666.4 1144.94 665.08C1144.94 666.42 1145.61 667 1146.67 667C1147.31 667 1147.77 666.88 1148.13 666.66H1148.14V665.08C1147.88 665.18 1147.69 665.2 1147.52 665.2ZM1144.81 660.31V662.38C1144.81 663.51 1143.71 665.19 1141.02 665.19C1139.77 665.19 1138.62 664.71 1138.62 663.37C1138.62 661.86 1139.78 661.38 1141.12 661.14C1142.48 660.9 1144.02 660.88 1144.81 660.31V660.29H1144.82C1144.82 660.29 1144.81 660.3 1144.81 660.31Z" fill="#595959"/>
<path d="M1150.02 654.3H1151.94V656.27H1151.99C1152.85 654.73 1154.25 654.01 1156.02 654.01C1159.28 654.01 1160.29 655.88 1160.29 658.55V666.71H1158.25V658.31C1158.25 656.8 1157.29 655.81 1155.73 655.81C1153.26 655.81 1152.06 657.47 1152.06 659.7V666.71H1150.02V654.3Z" fill="#595959"/>
<path d="M1172.42 649.56V655.94H1172.37C1171.46 654.48 1169.63 654 1168.36 654C1164.57 654 1162.7 656.95 1162.7 660.46C1162.7 663.97 1164.59 666.99 1168.41 666.99C1170.11 666.99 1171.7 666.39 1172.37 665.02H1172.42V666.7H1174.46V649.56H1172.42ZM1168.7 665.19C1166.06 665.18 1164.86 663.02 1164.86 660.6C1164.86 658.18 1165.77 655.8 1168.58 655.8C1171.39 655.8 1172.49 658.06 1172.49 660.51C1172.49 662.96 1171.44 665.19 1168.7 665.19Z" fill="#595959"/>
<path d="M1189.44 654C1186.06 654 1183.61 656.74 1183.61 660.46C1183.73 664.25 1185.6 666.99 1189.56 666.99C1192.34 666.99 1194.31 665.51 1194.86 662.77H1194.87H1192.85C1192.49 664.37 1191.31 665.19 1189.63 665.19C1186.92 665.19 1185.7 663.27 1185.77 661.11H1195.06C1195.18 658.11 1193.83 654.01 1189.44 654.01V654ZM1185.76 659.31C1185.9 657.42 1187.17 655.81 1189.31 655.81C1191.33 655.81 1192.79 657.37 1192.89 659.31H1185.76Z" fill="#595959"/>
<path d="M1207.54 665.2C1206.89 665.2 1206.89 664.77 1206.89 663.81V657.43C1206.89 654.52 1204.46 654.02 1202.23 654.02C1199.47 654.02 1197.09 655.1 1196.97 658.17H1199.01C1199.11 656.35 1200.38 655.82 1202.11 655.82C1203.41 655.82 1204.87 656.1 1204.87 657.88C1204.87 659.41 1202.95 659.27 1200.69 659.7C1198.58 660.11 1196.49 660.71 1196.49 663.52C1196.49 665.99 1198.33 667 1200.59 667C1202.32 667 1203.83 666.4 1204.96 665.08C1204.96 666.42 1205.63 667 1206.69 667C1207.33 667 1207.79 666.88 1208.15 666.66H1208.16V665.08C1207.9 665.18 1207.71 665.2 1207.54 665.2ZM1204.83 660.31V662.38C1204.83 663.51 1203.73 665.19 1201.04 665.19C1199.79 665.19 1198.64 664.71 1198.64 663.37C1198.64 661.86 1199.8 661.38 1201.14 661.14C1202.5 660.9 1204.04 660.88 1204.83 660.31V660.29H1204.84C1204.84 660.29 1204.83 660.3 1204.83 660.31Z" fill="#595959"/>
<path d="M1209.98 654.3H1211.9V656.92H1211.95C1212.93 654.93 1214.3 653.94 1216.51 654.02V656.18C1213.22 656.18 1212.02 658.05 1212.02 661.2V666.72H1209.98V654.31V654.3Z" fill="#595959"/>
<path d="M1218.16 649.57H1220.2V666.71H1218.16V649.57Z" fill="#595959"/>
<path d="M1228.24 668.36C1227.3 670.78 1226.46 671.67 1224.64 671.67C1224.16 671.67 1223.68 671.62 1223.22 671.46V669.59C1223.6 669.71 1224.01 669.88 1224.42 669.88C1225.26 669.88 1225.72 669.47 1226.1 668.75L1226.94 666.64L1222.02 654.3H1224.32L1227.94 664.45H1227.99L1231.47 654.3H1233.63L1228.23 668.37H1228.24V668.36Z" fill="#595959"/>
<path d="M1248.16 654.01C1246.46 654.01 1244.87 654.61 1244.2 655.98H1244.15V649.57H1242.11V666.72H1244.15V665.06H1244.2C1245.11 666.52 1246.94 667 1248.21 667C1252 667 1253.87 664.05 1253.87 660.54C1253.87 657.03 1251.98 654.01 1248.16 654.01ZM1247.99 665.19C1245.18 665.19 1244.08 662.94 1244.08 660.49C1244.08 658.04 1245.13 655.81 1247.87 655.81C1250.61 655.81 1251.71 657.97 1251.71 660.39C1251.71 662.81 1250.8 665.19 1247.99 665.19Z" fill="#595959"/>
<path d="M1266.66 665.2C1266.01 665.2 1266.01 664.77 1266.01 663.81V657.43C1266.01 654.52 1263.58 654.02 1261.35 654.02C1258.59 654.02 1256.21 655.1 1256.09 658.17H1258.13C1258.23 656.35 1259.5 655.82 1261.23 655.82C1262.53 655.82 1263.99 656.1 1263.99 657.88C1263.99 659.41 1262.07 659.27 1259.81 659.7C1257.7 660.11 1255.61 660.71 1255.61 663.52C1255.61 665.99 1257.45 667 1259.71 667C1261.44 667 1262.95 666.4 1264.08 665.08C1264.08 666.42 1264.75 667 1265.81 667C1266.45 667 1266.91 666.88 1267.27 666.66V665.08C1267.01 665.18 1266.82 665.2 1266.65 665.2H1266.66ZM1263.95 660.31V662.38C1263.95 663.51 1262.85 665.19 1260.16 665.19C1258.91 665.19 1257.76 664.71 1257.76 663.37C1257.76 661.86 1258.92 661.38 1260.26 661.14C1261.62 660.9 1263.16 660.88 1263.95 660.31V660.29H1263.96C1263.96 660.29 1263.95 660.3 1263.95 660.31Z" fill="#595959"/>
<path d="M1277.58 658.28C1277.27 656.72 1276.19 655.81 1274.51 655.81C1271.56 655.81 1270.65 658.14 1270.65 660.66C1270.65 662.94 1271.68 665.2 1274.27 665.2C1276.24 665.2 1277.41 664.05 1277.68 662.18H1279.77C1279.31 665.2 1277.42 667 1274.3 667C1270.51 667 1268.49 664.36 1268.49 660.66C1268.49 656.96 1270.41 654.01 1274.35 654.01C1277.16 654.01 1279.41 655.33 1279.7 658.28H1277.58Z" fill="#595959"/>
<path d="M1282.17 649.57H1284.21V659.72L1289.87 654.3H1292.61L1287.69 658.81L1292.97 666.71H1290.38L1286.13 660.23L1284.21 662.01V666.71H1282.17V649.57Z" fill="#595959"/>
<path d="M1299.67 654C1296.29 654 1293.84 656.74 1293.84 660.46C1293.96 664.25 1295.83 666.99 1299.79 666.99C1302.57 666.99 1304.54 665.51 1305.09 662.77H1305.1H1303.08C1302.72 664.37 1301.54 665.19 1299.86 665.19C1297.15 665.19 1295.93 663.27 1296 661.11H1305.29C1305.41 658.11 1304.06 654.01 1299.67 654.01V654ZM1295.99 659.31C1296.13 657.42 1297.4 655.81 1299.54 655.81C1301.56 655.81 1303.02 657.37 1303.12 659.31H1295.99Z" fill="#595959"/>
<path d="M1307.32 654.3H1309.24V656.92H1309.29C1310.27 654.93 1311.64 653.94 1313.85 654.02V656.18C1310.56 656.18 1309.36 658.05 1309.36 661.2V666.72H1307.32V654.31V654.3Z" fill="#595959"/>
<path d="M1316.63 662.79C1316.7 664.61 1318.29 665.19 1319.97 665.19C1321.24 665.19 1322.97 664.9 1322.97 663.34C1322.97 661.78 1320.95 661.49 1318.91 661.04C1316.89 660.58 1314.85 659.91 1314.85 657.54C1314.85 655.04 1317.32 654.01 1319.48 654.01C1322.22 654.01 1324.4 654.87 1324.57 657.9H1322.53C1322.39 656.32 1320.99 655.81 1319.65 655.81C1318.43 655.81 1317.01 656.15 1317.01 657.39C1317.01 658.85 1319.17 659.1 1321.07 659.55C1323.11 660.01 1325.13 660.68 1325.13 663.08C1325.13 666.03 1322.37 666.99 1319.85 666.99C1317.06 666.99 1314.71 665.86 1314.59 662.79H1316.63Z" fill="#595959"/>
<path d="M804.12 131.7H793.72L792.71 137.42L792.78 137.49C794.15 136.09 795.73 135.55 797.71 135.55C802.68 135.55 805.48 139.4 805.48 144.12C805.48 149.3 801.2 153.3 796.12 153.19C791.22 153.19 786.83 150.49 786.76 145.2H791.87C792.12 147.43 793.78 148.98 796.01 148.98C798.67 148.98 800.37 146.64 800.37 144.12C800.37 141.6 798.75 139.4 796.01 139.4C794.17 139.4 793.17 140.05 792.16 141.42H787.55L790.03 127.49H804.1V131.7H804.12Z" fill="#595959"/>
<path d="M820.93 139.12V139.05C823.3 138.26 824.6 136.21 824.6 133.76C824.6 131.31 822.44 126.99 816.18 126.99C812.07 127 807.68 129.34 807.68 133.88C807.68 136.36 808.94 138.38 811.39 139.06V139.13C808.44 139.85 806.64 142.12 806.64 145.32C806.64 150.75 811.54 153.2 816.22 153.2C820.9 153.2 825.65 150.57 825.65 145.28C825.65 142.11 823.92 139.8 820.93 139.12ZM816.18 130.84C819.35 130.84 819.96 133.03 819.96 134.33C819.96 136.49 818.27 137.64 816.18 137.64C814.09 137.64 812.33 136.56 812.33 134.33C812.33 132.1 814.13 130.84 816.18 130.84ZM816.22 149.34C813.78 149.34 811.76 147.66 811.76 145.06C811.76 142.46 813.84 141.06 816.22 141.06C818.6 141.06 820.54 142.57 820.54 145.09C820.54 147.61 818.67 149.34 816.22 149.34Z" fill="#595959"/>
<path d="M828.32 147.15H833.97V152.69H828.32V147.15Z" fill="#595959"/>
<path d="M844.37 137.68C846.57 137.86 849.73 137.43 849.73 134.55C849.73 132.43 848.04 131.2 846.17 131.2C843.61 131.2 842.25 133.11 842.28 135.7H837.42C837.6 130.55 840.95 126.99 846.13 126.99C850.16 126.99 854.59 129.47 854.59 133.97C854.59 136.35 853.4 138.47 851.06 139.12V139.19C853.83 139.8 855.52 142.11 855.52 144.91C855.52 150.2 851.09 153.19 846.16 153.19C840.51 153.19 836.69 149.81 836.8 144.01H841.66C841.77 146.75 843.14 148.98 846.09 148.98C848.39 148.98 850.19 147.4 850.19 145.02C850.19 141.2 846.84 141.28 844.36 141.28V137.68H844.37Z" fill="#595959"/>
<path d="M883.58 139.15C879.37 139.15 877.46 142.14 877.46 146.1C877.46 150.06 878.97 153.19 883.4 153.19C887.83 153.19 889.48 150.2 889.48 146.24C889.48 142.28 888.04 139.15 883.58 139.15ZM883.44 150.49C881.14 150.49 881.14 147.68 881.14 146.13C881.14 144.48 881.29 141.85 883.59 141.85C885.71 141.85 885.82 144.77 885.82 146.17C885.82 147.68 885.67 150.49 883.44 150.49ZM880.23 126.7L865.33 153.48H868.46L883.29 126.7H880.23ZM865 126.99C860.79 126.99 858.88 130.16 858.88 134.12C858.88 138.08 860.39 141.03 864.82 141.03C869.25 141.03 870.9 138.22 870.9 134.26C870.9 130.3 869.46 126.99 865 126.99ZM864.86 138.33C862.56 138.33 862.56 135.74 862.56 134.19C862.56 132.53 862.71 129.69 865.01 129.69C867.13 129.69 867.24 132.83 867.24 134.23C867.24 135.74 867.09 138.33 864.86 138.33Z" fill="#595959"/>
<path d="M256.92 0H264.22L272.39 23.18H272.47L280.43 0H287.65V29.61H282.71V6.76H282.63L274.42 29.61H270.15L261.94 6.76H261.86V29.61H256.92V0Z" fill="#595959"/>
<path d="M311.16 24.8401C311.16 26.0001 311.41 26.4601 312.28 26.4601C312.57 26.4601 312.94 26.4601 313.44 26.3801V29.6601C312.73 29.9101 311.24 30.2001 310.45 30.2001C308.54 30.2001 307.17 29.5401 306.8 27.5901C304.93 29.4201 301.91 30.2001 299.38 30.2001C295.52 30.2001 292.04 28.1301 292.04 23.9401C292.04 18.5901 296.31 17.7201 300.29 17.2601C303.69 16.6401 306.72 17.0101 306.72 14.2301C306.72 11.7801 304.19 11.3301 302.28 11.3301C299.63 11.3301 297.76 12.4101 297.55 14.7301H292.82C293.15 9.2101 297.84 7.6001 302.57 7.6001C306.76 7.6001 311.15 9.3001 311.15 13.8201V24.8501L311.16 24.8401ZM306.43 18.8701C304.98 19.8201 302.7 19.7801 300.62 20.1601C298.59 20.4901 296.76 21.2401 296.76 23.7301C296.76 25.8501 299.46 26.4701 301.11 26.4701C303.18 26.4701 306.42 25.3901 306.42 22.4101V18.8801L306.43 18.8701Z" fill="#595959"/>
<path d="M330.74 15.3401C330.37 12.7301 328.46 11.3201 325.85 11.3201C323.4 11.3201 319.96 12.6101 319.96 19.1201C319.96 22.6901 321.54 26.4601 325.64 26.4601C328.38 26.4601 330.29 24.6301 330.74 21.5701H335.47C334.6 27.1301 331.16 30.2001 325.64 30.2001C318.92 30.2001 315.23 25.4301 315.23 19.1301C315.23 12.8301 318.75 7.6001 325.81 7.6001C330.79 7.6001 335.02 10.0901 335.47 15.3601H330.74V15.3401Z" fill="#595959"/>
<path d="M339.32 8.17009H343.76V12.3201H343.84C344.38 10.0401 347.2 7.59009 350.1 7.59009C351.18 7.59009 351.47 7.67009 351.88 7.71009V12.2701C351.22 12.1901 350.51 12.0601 349.85 12.0601C346.62 12.0601 344.04 14.6701 344.04 19.4001V29.6001H339.31V8.17009H339.32Z" fill="#595959"/>
<path d="M352.17 18.8701C352.17 12.3201 356.11 7.59009 362.99 7.59009C369.87 7.59009 373.81 12.3201 373.81 18.8701C373.81 25.4201 369.87 30.1901 362.99 30.1901C356.11 30.1901 352.17 25.4601 352.17 18.8701ZM369.09 18.8701C369.09 15.1801 367.22 11.3201 362.99 11.3201C358.76 11.3201 356.89 15.1801 356.89 18.8701C356.89 22.5601 358.76 26.4601 362.99 26.4601C367.22 26.4601 369.09 22.6001 369.09 18.8701Z" fill="#595959"/>
<path d="M387.17 8.16992H392.31L397.74 24.6299H397.82L403.05 8.16992H407.94L400.27 29.6099H394.96L387.16 8.16992H387.17Z" fill="#595959"/>
<path d="M410.93 0H415.66V4.48H410.93V0ZM410.93 8.17H415.66V29.61H410.93V8.17Z" fill="#595959"/>
<path d="M424.49 20.1101C424.49 23.4701 426.31 26.4601 430.25 26.4601C432.99 26.4601 434.65 25.2601 435.48 22.8901H439.96C438.92 27.5801 434.94 30.1901 430.26 30.1901C423.54 30.1901 419.77 25.5001 419.77 18.9101C419.77 12.8101 423.75 7.59009 430.14 7.59009C436.9 7.59009 441.05 13.6901 440.26 20.1201H424.5L424.49 20.1101ZM435.52 17.0001C435.35 14.0101 433.32 11.3201 430.13 11.3201C426.94 11.3201 424.61 13.8101 424.49 17.0001H435.52Z" fill="#595959"/>
<path d="M441.91 8.16992H446.93L451.12 24.1799H451.2L455.22 8.16992H459.99L463.85 24.1799H463.93L468.28 8.16992H473.09L466.37 29.6099H461.52L457.54 13.6799H457.46L453.52 29.6099H448.54L441.9 8.16992H441.91Z" fill="#595959"/>
<path d="M486.65 18.8701C486.65 12.3201 490.59 7.59009 497.47 7.59009C504.35 7.59009 508.29 12.3201 508.29 18.8701C508.29 25.4201 504.35 30.1901 497.47 30.1901C490.59 30.1901 486.65 25.4601 486.65 18.8701ZM503.57 18.8701C503.57 15.1801 501.7 11.3201 497.47 11.3201C493.24 11.3201 491.37 15.1801 491.37 18.8701C491.37 22.5601 493.24 26.4601 497.47 26.4601C501.7 26.4601 503.57 22.6001 503.57 18.8701Z" fill="#595959"/>
<path d="M510.12 8.17H513.65V6.39C513.65 0.92 516.51 0 519.58 0C521.07 0 522.15 0.08 522.9 0.29V3.98C522.28 3.81 521.66 3.73 520.7 3.73C519.41 3.73 518.38 4.19 518.38 5.97V8.17H522.4V11.7H518.38V29.62H513.65V11.7H510.12V8.17Z" fill="#595959"/>
<path d="M536.95 0H541.68V4.48H536.95V0ZM536.95 8.17H541.68V29.61H536.95V8.17Z" fill="#595959"/>
<path d="M546.82 8.17008H551.3V11.3201L551.38 11.4001C552.79 9.04008 555.24 7.58008 558.06 7.58008C562.71 7.58008 565.65 10.0701 565.65 14.8801V29.6001H560.92V16.1201C560.84 12.7601 559.51 11.3101 556.73 11.3101C553.58 11.3101 551.55 13.8001 551.55 16.9501V29.6001H546.82V8.17008Z" fill="#595959"/>
<path d="M570.75 0H575.48V4.48H570.75V0ZM570.75 8.17H575.48V29.61H570.75V8.17Z" fill="#595959"/>
<path d="M578.46 8.16999H582.03V1.73999H586.76V8.16999H591.03V11.7H586.76V23.15C586.76 25.1 586.93 26.09 589.04 26.09C589.7 26.09 590.37 26.09 591.03 25.92V29.57C589.99 29.65 589 29.82 587.96 29.82C583.02 29.82 582.11 27.91 582.03 24.35V11.7H578.46V8.16999Z" fill="#595959"/>
<path d="M594.55 0H599.28V4.48H594.55V0ZM594.55 8.17H599.28V29.61H594.55V8.17Z" fill="#595959"/>
<path d="M622.38 24.8401C622.38 26.0001 622.63 26.4601 623.5 26.4601C623.79 26.4601 624.16 26.4601 624.66 26.3801V29.6601C623.95 29.9101 622.46 30.2001 621.67 30.2001C619.76 30.2001 618.39 29.5401 618.02 27.5901C616.15 29.4201 613.13 30.2001 610.6 30.2001C606.74 30.2001 603.26 28.1301 603.26 23.9401C603.26 18.5901 607.53 17.7201 611.51 17.2601C614.91 16.6401 617.94 17.0101 617.94 14.2301C617.94 11.7801 615.41 11.3301 613.5 11.3301C610.85 11.3301 608.98 12.4101 608.77 14.7301H604.04C604.37 9.2101 609.06 7.6001 613.79 7.6001C617.98 7.6001 622.37 9.3001 622.37 13.8201V24.8501L622.38 24.8401ZM617.65 18.8701C616.2 19.8201 613.92 19.7801 611.84 20.1601C609.81 20.4901 607.98 21.2401 607.98 23.7301C607.98 25.8501 610.68 26.4701 612.33 26.4701C614.4 26.4701 617.64 25.3901 617.64 22.4101V18.8801L617.65 18.8701Z" fill="#595959"/>
<path d="M627.6 0H632.33V29.61H627.6V0Z" fill="#595959"/>
<path d="M649.66 0H670.11V4.48H654.85V12.24H668.25V16.47H654.85V29.62H649.67V0H649.66Z" fill="#595959"/>
<path d="M674.25 0H679.43V25.13H694.49V29.61H674.25V0Z" fill="#595959"/>
<path d="M698.05 0H712.19C718.66 0 721.98 2.99 721.98 8C721.98 13.68 718.04 15.13 717.09 15.46V15.54C718.87 15.79 721.49 17.12 721.49 21.8C721.49 25.24 721.99 28.39 723.11 29.6H717.55C716.76 28.31 716.76 26.7 716.76 25.25C716.76 19.82 715.64 17.41 710.87 17.41H703.24V29.6H698.06V0H698.05ZM703.23 13.48H711.73C715.01 13.48 716.79 11.86 716.79 8.75C716.79 4.98 714.34 4.23 711.65 4.23H703.23V13.48Z" fill="#595959"/>
<path d="M746.69 0H752.21L763.62 29.61H758.06L755.28 21.77H743.46L740.68 29.61H735.33L746.69 0ZM744.86 17.83H753.9L749.46 5.1H749.34L744.86 17.83Z" fill="#595959"/>
<path d="M765.89 0H770.62V29.61H765.89V0Z" fill="#595959"/>
<path d="M775.89 0H780.62V29.61H775.89V0Z" fill="#595959"/>
<path d="M784.76 18.8701C784.76 12.3201 788.7 7.59009 795.58 7.59009C802.46 7.59009 806.4 12.3201 806.4 18.8701C806.4 25.4201 802.46 30.1901 795.58 30.1901C788.7 30.1901 784.76 25.4601 784.76 18.8701ZM801.68 18.8701C801.68 15.1801 799.81 11.3201 795.58 11.3201C791.35 11.3201 789.48 15.1801 789.48 18.8701C789.48 22.5601 791.35 26.4601 795.58 26.4601C799.81 26.4601 801.68 22.6001 801.68 18.8701Z" fill="#595959"/>
<path d="M824.82 15.3401C824.45 12.7301 822.54 11.3201 819.93 11.3201C817.48 11.3201 814.04 12.6101 814.04 19.1201C814.04 22.6901 815.62 26.4601 819.72 26.4601C822.46 26.4601 824.36 24.6301 824.82 21.5701H829.55C828.68 27.1301 825.24 30.2001 819.72 30.2001C813 30.2001 809.31 25.4301 809.31 19.1301C809.31 12.8301 812.84 7.6001 819.89 7.6001C824.87 7.6001 829.1 10.0901 829.55 15.3601H824.82V15.3401Z" fill="#595959"/>
<path d="M851.36 24.8401C851.36 26.0001 851.61 26.4601 852.48 26.4601C852.77 26.4601 853.14 26.4601 853.64 26.3801V29.6601C852.93 29.9101 851.44 30.2001 850.65 30.2001C848.74 30.2001 847.37 29.5401 847 27.5901C845.13 29.4201 842.11 30.2001 839.58 30.2001C835.72 30.2001 832.24 28.1301 832.24 23.9401C832.24 18.5901 836.51 17.7201 840.49 17.2601C843.89 16.6401 846.92 17.0101 846.92 14.2301C846.92 11.7801 844.39 11.3301 842.48 11.3301C839.83 11.3301 837.96 12.4101 837.75 14.7301H833.02C833.35 9.2101 838.04 7.6001 842.77 7.6001C846.96 7.6001 851.35 9.3001 851.35 13.8201V24.8501L851.36 24.8401ZM846.63 18.8701C845.18 19.8201 842.9 19.7801 840.82 20.1601C838.79 20.4901 836.96 21.2401 836.96 23.7301C836.96 25.8501 839.66 26.4701 841.31 26.4701C843.38 26.4701 846.62 25.3901 846.62 22.4101V18.8801L846.63 18.8701Z" fill="#595959"/>
<path d="M854.3 8.16999H857.87V1.73999H862.6V8.16999H866.87V11.7H862.6V23.15C862.6 25.1 862.77 26.09 864.88 26.09C865.54 26.09 866.21 26.09 866.87 25.92V29.57C865.83 29.65 864.84 29.82 863.8 29.82C858.87 29.82 857.95 27.91 857.87 24.35V11.7H854.3V8.16999Z" fill="#595959"/>
<path d="M870.39 0H875.12V4.48H870.39V0ZM870.39 8.17H875.12V29.61H870.39V8.17Z" fill="#595959"/>
<path d="M879.26 18.8701C879.26 12.3201 883.2 7.59009 890.08 7.59009C896.96 7.59009 900.91 12.3201 900.91 18.8701C900.91 25.4201 896.97 30.1901 890.08 30.1901C883.19 30.1901 879.26 25.4601 879.26 18.8701ZM896.18 18.8701C896.18 15.1801 894.31 11.3201 890.08 11.3201C885.85 11.3201 883.98 15.1801 883.98 18.8701C883.98 22.5601 885.85 26.4601 890.08 26.4601C894.31 26.4601 896.18 22.6001 896.18 18.8701Z" fill="#595959"/>
<path d="M904.85 8.17008H909.33V11.3201L909.41 11.4001C910.82 9.04008 913.27 7.58008 916.09 7.58008C920.74 7.58008 923.68 10.0701 923.68 14.8801V29.6001H918.95V16.1201C918.87 12.7601 917.54 11.3101 914.76 11.3101C911.61 11.3101 909.58 13.8001 909.58 16.9501V29.6001H904.85V8.17008Z" fill="#595959"/>
<path d="M932.22 22.7301C932.47 25.4701 934.54 26.4601 937.07 26.4601C938.85 26.4601 941.96 26.0901 941.84 23.6401C941.72 21.1501 938.27 20.8601 934.83 20.0701C931.35 19.3201 927.95 18.0801 927.95 13.7301C927.95 9.04009 933.01 7.59009 936.91 7.59009C941.31 7.59009 945.29 9.42009 945.87 14.1801H940.93C940.51 11.9401 938.65 11.3201 936.58 11.3201C935.21 11.3201 932.68 11.6501 932.68 13.5201C932.68 15.8401 936.16 16.1701 939.65 16.9601C943.09 17.7501 946.58 18.9901 946.58 23.2201C946.58 28.3201 941.44 30.1901 937 30.1901C931.61 30.1901 927.59 27.7801 927.5 22.7201H932.23L932.22 22.7301Z" fill="#595959"/>
</g>
<defs>
<clipPath id="clip0_11_6481">
<rect width="1369.37" height="747.63" fill="white" transform="translate(0.5)"/>
</clipPath>
</defs>
</svg>
