<?xml version="1.0" encoding="UTF-8"?>
<svg id="Layer_1" data-name="Layer 1" xmlns="http://www.w3.org/2000/svg" viewBox="0 0 2164.04 878.4">
  <defs>
    <style>
      .cls-1 {
        stroke-width: 4.17px;
      }

      .cls-1, .cls-2, .cls-3 {
        stroke: #fff;
      }

      .cls-1, .cls-2, .cls-3, .cls-4, .cls-5, .cls-6, .cls-7, .cls-8, .cls-9, .cls-10, .cls-11 {
        stroke-miterlimit: 10;
      }

      .cls-1, .cls-10 {
        fill: #e7125e;
      }

      .cls-2 {
        stroke-width: 1.84px;
      }

      .cls-2, .cls-3 {
        fill: none;
      }

      .cls-12 {
        fill: #fff;
      }

      .cls-3 {
        stroke-width: 1.84px;
      }

      .cls-4 {
        fill: #57072f;
      }

      .cls-4, .cls-5, .cls-6, .cls-7, .cls-8, .cls-9, .cls-10, .cls-11 {
        stroke: #f1f2f2;
        stroke-width: 2.99px;
      }

      .cls-5 {
        fill: #7e0a3b;
      }

      .cls-6 {
        fill: #f5a4b8;
      }

      .cls-7 {
        fill: #f07795;
      }

      .cls-8 {
        fill: #fad2dd;
      }

      .cls-9 {
        fill: #eb4a76;
      }

      .cls-11 {
        fill: #9e0c47;
      }
    </style>
  </defs>
  <g>
    <polyline class="cls-3" points="1132.8 603.6 1238.27 701.32 1480.28 701.32"/>
    <path class="cls-12" d="m1479.94,708.22c3.81,0,6.9-3.09,6.9-6.9s-3.09-6.9-6.9-6.9-6.9,3.09-6.9,6.9,3.09,6.9,6.9,6.9Z"/>
  </g>
  <g>
    <polyline class="cls-3" points="994.23 647.26 854.87 701.32 601.65 701.32"/>
    <path class="cls-12" d="m602,694.42c-3.81,0-6.9,3.09-6.9,6.9s3.09,6.9,6.9,6.9,6.9-3.09,6.9-6.9-3.09-6.9-6.9-6.9Z"/>
  </g>
  <g>
    <polyline class="cls-3" points="915.36 568.39 776 622.45 595.14 622.45"/>
    <path class="cls-12" d="m595.49,615.55c-3.81,0-6.9,3.09-6.9,6.9s3.09,6.9,6.9,6.9,6.9-3.09,6.9-6.9-3.09-6.9-6.9-6.9Z"/>
  </g>
  <g>
    <polyline class="cls-3" points="885.47 493.95 769.47 559.69 595.14 561.3"/>
    <path class="cls-12" d="m595.42,554.39c-3.81.04-6.87,3.15-6.84,6.96.04,3.81,3.15,6.87,6.96,6.84,3.81-.04,6.87-3.15,6.84-6.96-.04-3.81-3.15-6.87-6.96-6.84Z"/>
  </g>
  <g>
    <polyline class="cls-3" points="895.13 467.02 779.72 503.04 598.86 503.04"/>
    <path class="cls-12" d="m599.2,496.14c-3.81,0-6.9,3.09-6.9,6.9s3.09,6.9,6.9,6.9,6.9-3.09,6.9-6.9-3.09-6.9-6.9-6.9Z"/>
  </g>
  <g>
    <polyline class="cls-3" points="836.13 446.02 776 463.06 595.14 463.06"/>
    <path class="cls-12" d="m595.49,456.16c-3.81,0-6.9,3.09-6.9,6.9s3.09,6.9,6.9,6.9,6.9-3.09,6.9-6.9-3.09-6.9-6.9-6.9Z"/>
  </g>
  <g>
    <polyline class="cls-3" points="911.47 412.9 776 412.9 595.14 412.9"/>
    <circle class="cls-12" cx="595.49" cy="412.9" r="6.9"/>
  </g>
  <g>
    <path class="cls-12" d="m1516.87,177.26c-.21-6.65,3.57-11.76,10.56-11.76,5.32,0,9.98,3.41,9.98,9.1,0,4.36-2.33,6.78-5.2,8.81-2.87,2.04-6.28,3.7-8.4,6.69h13.76v5.07h-21.36c.04-6.73,4.16-9.6,9.19-13.01,2.58-1.75,6.07-3.53,6.11-7.11,0-2.74-1.83-4.49-4.36-4.49-3.49,0-4.61,3.62-4.61,6.69h-5.65Z"/>
    <path class="cls-12" d="m1551.41,188.44h-12.3v-5.4l12.64-16.96h5.28v17.5h3.87v4.86h-3.87v6.73h-5.61v-6.73Zm0-14.96h-.12l-7.52,10.1h7.65v-10.1Z"/>
    <path class="cls-12" d="m1564.04,188.78h6.53v6.4h-6.53v-6.4Z"/>
    <path class="cls-12" d="m1574.64,177.26c-.21-6.65,3.57-11.76,10.56-11.76,5.32,0,9.98,3.41,9.98,9.1,0,4.36-2.33,6.78-5.2,8.81-2.87,2.04-6.28,3.7-8.4,6.69h13.76v5.07h-21.36c.04-6.73,4.16-9.6,9.19-13.01,2.58-1.75,6.07-3.53,6.11-7.11,0-2.74-1.83-4.49-4.36-4.49-3.49,0-4.61,3.62-4.61,6.69h-5.65Z"/>
    <path class="cls-12" d="m1606.4,165.5c5.15,0,6.82,3.82,6.82,8.4s-2.16,7.81-7.02,7.81c-5.11,0-6.86-3.41-6.86-7.98s2.2-8.23,7.07-8.23Zm-.17,13.09c2.58,0,2.74-2.99,2.74-4.74,0-1.62-.12-5.24-2.58-5.24-2.66,0-2.83,3.28-2.83,5.2,0,1.79,0,4.78,2.66,4.78Zm17.75-13.42h3.53l-17.12,30.92h-3.62l17.21-30.92Zm3.87,14.38c5.15,0,6.82,3.62,6.82,8.19s-2.16,8.02-7.02,8.02c-5.11,0-6.86-3.62-6.86-8.19s2.2-8.02,7.07-8.02Zm-.17,13.09c2.58,0,2.74-3.24,2.74-4.99,0-1.62-.12-4.99-2.58-4.99-2.66,0-2.83,3.04-2.83,4.95,0,1.79,0,5.03,2.66,5.03Z"/>
  </g>
  <g>
    <path class="cls-12" d="m1652.24,174.3h3.6l6.23,16.63,6.26-16.63h3.6v19.79h-2.49v-16.46h-.06l-6.18,16.46h-2.24l-6.18-16.46h-.05v16.46h-2.49v-19.79Z"/>
    <path class="cls-12" d="m1682.11,179.42c4.54,0,6.96,3.3,6.96,7.51s-2.41,7.48-6.96,7.48-6.96-3.3-6.96-7.48,2.41-7.51,6.96-7.51Zm0,12.91c2.47,0,4.46-1.94,4.46-5.4s-2-5.43-4.46-5.43-4.46,1.94-4.46,5.43,2,5.4,4.46,5.4Z"/>
    <path class="cls-12" d="m1691.84,179.76h2.22v2.27h.06c1-1.77,2.6-2.61,4.66-2.61,3.77,0,4.93,2.16,4.93,5.24v9.42h-2.36v-9.7c0-1.75-1.11-2.88-2.91-2.88-2.85,0-4.24,1.91-4.24,4.49v8.09h-2.36v-14.33Z"/>
    <path class="cls-12" d="m1710.51,179.76h2.85v2.08h-2.85v8.89c0,1.08.3,1.28,1.77,1.28h1.08v2.08h-1.8c-2.44,0-3.41-.5-3.41-3.13v-9.12h-2.44v-2.08h2.44v-4.29h2.36v4.29Z"/>
    <path class="cls-12" d="m1715.97,174.3h2.36v7.56h.06c.78-1.72,2.8-2.44,4.52-2.44,3.77,0,4.93,2.16,4.93,5.24v9.42h-2.36v-9.7c0-1.75-1.11-2.88-2.91-2.88-2.85,0-4.24,1.91-4.24,4.49v8.09h-2.36v-19.79Z"/>
    <path class="cls-12" d="m1731.51,174.3h2.36v19.79h-2.36v-19.79Z"/>
    <path class="cls-12" d="m1743.15,195.99c-1.08,2.8-2.05,3.82-4.16,3.82-.55,0-1.11-.05-1.63-.25v-2.16c.44.14.91.33,1.39.33.97,0,1.5-.47,1.94-1.3l.97-2.44-5.68-14.24h2.66l4.18,11.72h.05l4.02-11.72h2.49l-6.24,16.24Z"/>
    <path class="cls-12" d="m1759.47,174.3h13v2.22h-10.36v6.29h9.09v2.22h-9.09v9.06h-2.63v-19.79Z"/>
    <path class="cls-12" d="m1775.13,174.3h2.36v19.79h-2.36v-19.79Z"/>
    <path class="cls-12" d="m1793.83,194.03c-.42.25-.94.39-1.69.39-1.22,0-2-.67-2-2.22-1.3,1.52-3.05,2.22-5.04,2.22-2.61,0-4.74-1.16-4.74-4.02,0-3.24,2.41-3.93,4.85-4.41,2.6-.5,4.82-.33,4.82-2.11,0-2.05-1.69-2.38-3.19-2.38-2,0-3.46.61-3.57,2.71h-2.36c.14-3.55,2.88-4.79,6.07-4.79,2.58,0,5.38.58,5.38,3.94v7.37c0,1.11,0,1.61.75,1.61.19,0,.42-.03.72-.14v1.83Zm-3.82-7.34c-.91.67-2.69.69-4.27.97-1.55.28-2.88.83-2.88,2.58,0,1.55,1.33,2.11,2.77,2.11,3.1,0,4.38-1.94,4.38-3.24v-2.41Z"/>
    <path class="cls-12" d="m1795.93,179.76h2.22v3.02h.06c1.14-2.3,2.71-3.44,5.26-3.35v2.49c-3.8,0-5.18,2.16-5.18,5.79v6.37h-2.36v-14.33Z"/>
    <path class="cls-12" d="m1816.96,189.54c-.64,3.16-2.91,4.88-6.12,4.88-4.57,0-6.73-3.16-6.87-7.54,0-4.29,2.83-7.45,6.73-7.45,5.07,0,6.62,4.74,6.48,8.2h-10.72c-.08,2.49,1.33,4.71,4.46,4.71,1.94,0,3.3-.94,3.71-2.8h2.33Zm-2.27-3.99c-.11-2.24-1.8-4.04-4.13-4.04-2.47,0-3.94,1.86-4.1,4.04h8.23Z"/>
    <path class="cls-12" d="m1827.71,174.3h6.79c6.1,0,9.5,3.05,9.5,9.42s-2.91,10.36-9.5,10.36h-6.79v-19.79Zm2.63,17.57h4.38c1.8,0,6.65-.5,6.65-7.79,0-4.71-1.75-7.56-6.59-7.56h-4.43v15.35Z"/>
    <path class="cls-12" d="m1846.75,179.76h2.22v3.02h.06c1.14-2.3,2.71-3.44,5.26-3.35v2.49c-3.8,0-5.18,2.16-5.18,5.79v6.37h-2.36v-14.33Z"/>
    <path class="cls-12" d="m1861.74,179.42c4.54,0,6.96,3.3,6.96,7.51s-2.41,7.48-6.96,7.48-6.96-3.3-6.96-7.48,2.41-7.51,6.96-7.51Zm0,12.91c2.47,0,4.46-1.94,4.46-5.4s-2-5.43-4.46-5.43-4.46,1.94-4.46,5.43,2,5.4,4.46,5.4Z"/>
    <path class="cls-12" d="m1871.55,179.76h2.36v1.94h.06c.78-1.58,2.6-2.27,4.57-2.27,4.41,0,6.59,3.49,6.59,7.54s-2.16,7.45-6.54,7.45c-1.47,0-3.57-.55-4.63-2.24h-.06v7.4h-2.36v-19.81Zm6.65,1.75c-3.16,0-4.38,2.71-4.38,5.4,0,2.83,1.27,5.43,4.52,5.43s4.29-2.74,4.29-5.54-1.39-5.29-4.43-5.29Z"/>
    <path class="cls-12" d="m1889.33,189.57c.08,2.11,1.91,2.77,3.85,2.77,1.47,0,3.46-.33,3.46-2.13s-2.33-2.13-4.68-2.66c-2.33-.53-4.68-1.3-4.68-4.04,0-2.88,2.85-4.07,5.35-4.07,3.16,0,5.68,1,5.88,4.49h-2.36c-.17-1.83-1.77-2.41-3.33-2.41-1.41,0-3.05.39-3.05,1.83,0,1.69,2.49,1.97,4.68,2.49,2.36.53,4.68,1.3,4.68,4.07,0,3.41-3.19,4.52-6.1,4.52-3.21,0-5.93-1.3-6.07-4.85h2.36Z"/>
  </g>
  <g>
    <path class="cls-12" d="m1534.71,708.66h-5.9v-18.87h-7.32v-4.45c4.11.08,7.9-1.33,8.52-5.78h4.7v29.1Z"/>
    <path class="cls-12" d="m1553.03,678.98c5.82,0,10.72,3.66,10.72,15s-4.9,15.25-10.72,15.25-10.64-3.66-10.64-15.25,4.9-15,10.64-15Zm0,25.4c4.82,0,4.82-7.11,4.82-10.39,0-3.03,0-10.14-4.82-10.14s-4.74,7.11-4.74,10.14c0,3.28,0,10.39,4.74,10.39Z"/>
    <path class="cls-12" d="m1574.81,678.98c5.15,0,6.82,3.82,6.82,8.4s-2.16,7.81-7.02,7.81c-5.11,0-6.86-3.41-6.86-7.98s2.2-8.23,7.07-8.23Zm-.17,13.09c2.58,0,2.74-2.99,2.74-4.74,0-1.62-.12-5.24-2.58-5.24-2.66,0-2.83,3.28-2.83,5.2,0,1.79,0,4.78,2.66,4.78Zm17.75-13.43h3.53l-17.12,30.92h-3.62l17.21-30.92Zm3.87,14.38c5.15,0,6.82,3.62,6.82,8.19s-2.16,8.02-7.02,8.02c-5.11,0-6.86-3.62-6.86-8.19s2.2-8.02,7.07-8.02Zm-.17,13.09c2.58,0,2.74-3.24,2.74-4.99,0-1.62-.12-4.99-2.58-4.99-2.66,0-2.83,3.03-2.83,4.95,0,1.79,0,5.03,2.66,5.03Z"/>
  </g>
  <g>
    <path class="cls-12" d="m1629.66,687.97h13v2.22h-10.36v6.29h9.09v2.22h-9.09v9.06h-2.63v-19.79Z"/>
    <path class="cls-12" d="m1645.32,687.97h2.36v19.79h-2.36v-19.79Z"/>
    <path class="cls-12" d="m1664.02,707.7c-.42.25-.94.39-1.69.39-1.22,0-2-.67-2-2.22-1.3,1.52-3.05,2.22-5.04,2.22-2.61,0-4.74-1.16-4.74-4.02,0-3.24,2.41-3.93,4.85-4.41,2.6-.5,4.82-.33,4.82-2.11,0-2.05-1.69-2.38-3.19-2.38-2,0-3.46.61-3.57,2.72h-2.36c.14-3.55,2.88-4.79,6.07-4.79,2.58,0,5.38.58,5.38,3.93v7.37c0,1.11,0,1.61.75,1.61.19,0,.42-.03.72-.14v1.83Zm-3.82-7.34c-.91.67-2.69.69-4.27.97-1.55.28-2.88.83-2.88,2.58,0,1.55,1.33,2.11,2.77,2.11,3.1,0,4.38-1.94,4.38-3.24v-2.41Z"/>
    <path class="cls-12" d="m1666.12,693.43h2.22v3.02h.06c1.14-2.3,2.71-3.44,5.26-3.35v2.49c-3.8,0-5.18,2.16-5.18,5.79v6.37h-2.36v-14.33Z"/>
    <path class="cls-12" d="m1687.16,703.21c-.64,3.16-2.91,4.88-6.12,4.88-4.57,0-6.73-3.16-6.87-7.54,0-4.3,2.83-7.45,6.73-7.45,5.07,0,6.62,4.74,6.48,8.2h-10.72c-.08,2.49,1.33,4.71,4.46,4.71,1.94,0,3.3-.94,3.71-2.8h2.33Zm-2.27-3.99c-.11-2.25-1.8-4.05-4.13-4.05-2.47,0-3.94,1.86-4.1,4.05h8.23Z"/>
    <path class="cls-12" d="m1705.69,707.75h-2.99l-6.98-19.79h2.85l5.65,17.15h.06l5.71-17.15h2.74l-7.04,19.79Z"/>
    <path class="cls-12" d="m1728.74,693.93c-.55-2.8-2.8-4.21-5.54-4.21-4.71,0-6.71,3.88-6.71,8.01,0,4.52,2,8.29,6.73,8.29,3.46,0,5.46-2.44,5.71-5.71h2.63c-.5,4.93-3.58,7.92-8.56,7.92-6.15,0-9.14-4.54-9.14-10.31s3.27-10.42,9.37-10.42c4.13,0,7.54,2.22,8.15,6.43h-2.63Z"/>
    <path class="cls-12" d="m1742.54,687.97h13v2.22h-10.36v6.29h9.09v2.22h-9.09v9.06h-2.63v-19.79Z"/>
    <path class="cls-12" d="m1769.92,707.75h-2.22v-2.27h-.06c-1,1.77-2.6,2.61-4.66,2.61-3.77,0-4.93-2.16-4.93-5.24v-9.42h2.36v9.7c0,1.75,1.11,2.88,2.91,2.88,2.85,0,4.24-1.91,4.24-4.49v-8.09h2.36v14.33Z"/>
    <path class="cls-12" d="m1773.46,693.43h2.22v2.27h.06c1-1.77,2.6-2.6,4.66-2.6,3.77,0,4.93,2.16,4.93,5.24v9.42h-2.35v-9.7c0-1.75-1.11-2.88-2.91-2.88-2.85,0-4.24,1.91-4.24,4.49v8.09h-2.36v-14.33Z"/>
    <path class="cls-12" d="m1801.67,707.75h-2.36v-1.94h-.05c-.78,1.58-2.61,2.27-4.57,2.27-4.41,0-6.6-3.49-6.6-7.54s2.16-7.45,6.54-7.45c1.47,0,3.57.55,4.63,2.24h.05v-7.37h2.36v19.79Zm-6.65-1.75c3.16,0,4.38-2.71,4.38-5.4,0-2.83-1.28-5.43-4.52-5.43s-4.29,2.74-4.29,5.54,1.39,5.29,4.43,5.29Z"/>
    <path class="cls-12" d="m1816.88,713.24c-2.66-4.16-4.35-8.12-4.35-12.97,0-4.32,1.52-9.01,4.35-12.77h1.8c-2.63,4.16-3.66,8.29-3.66,12.77s1.03,8.73,3.66,12.97h-1.8Z"/>
    <path class="cls-12" d="m1820.54,687.97h2.8l10.42,16.04h.06v-16.04h2.49v19.79h-2.88l-10.34-15.88h-.05v15.88h-2.49v-19.79Z"/>
    <path class="cls-12" d="m1846.36,693.1c4.54,0,6.96,3.3,6.96,7.51s-2.41,7.48-6.96,7.48-6.96-3.3-6.96-7.48,2.41-7.51,6.96-7.51Zm0,12.91c2.47,0,4.46-1.94,4.46-5.4s-2-5.43-4.46-5.43-4.46,1.94-4.46,5.43,2,5.4,4.46,5.4Z"/>
    <path class="cls-12" d="m1856.08,693.43h2.22v2.27h.06c1-1.77,2.6-2.6,4.66-2.6,3.77,0,4.93,2.16,4.93,5.24v9.42h-2.36v-9.7c0-1.75-1.11-2.88-2.91-2.88-2.85,0-4.24,1.91-4.24,4.49v8.09h-2.36v-14.33Z"/>
    <path class="cls-12" d="m1885.65,707.75h-2.52l-5.32-14.33h2.63l4.02,11.94h.06l3.91-11.94h2.47l-5.24,14.33Z"/>
    <path class="cls-12" d="m1899.22,693.1c4.54,0,6.96,3.3,6.96,7.51s-2.41,7.48-6.96,7.48-6.96-3.3-6.96-7.48,2.41-7.51,6.96-7.51Zm0,12.91c2.47,0,4.46-1.94,4.46-5.4s-2-5.43-4.46-5.43-4.46,1.94-4.46,5.43,2,5.4,4.46,5.4Z"/>
    <path class="cls-12" d="m1912.22,693.43h2.85v2.08h-2.85v8.9c0,1.08.3,1.27,1.77,1.27h1.08v2.08h-1.8c-2.44,0-3.41-.5-3.41-3.13v-9.12h-2.44v-2.08h2.44v-4.29h2.36v4.29Z"/>
    <path class="cls-12" d="m1920.17,690.85h-2.36v-2.88h2.36v2.88Zm-2.36,2.58h2.36v14.33h-2.36v-14.33Z"/>
    <path class="cls-12" d="m1923.83,693.43h2.22v2.27h.06c1-1.77,2.6-2.6,4.66-2.6,3.77,0,4.93,2.16,4.93,5.24v9.42h-2.35v-9.7c0-1.75-1.11-2.88-2.91-2.88-2.85,0-4.24,1.91-4.24,4.49v8.09h-2.36v-14.33Z"/>
    <path class="cls-12" d="m1951.59,706.53c0,4.66-2.13,7.04-6.65,7.04-2.69,0-5.79-1.08-5.93-4.21h2.36c.11,1.72,2.16,2.33,3.71,2.33,3.08,0,4.29-2.22,4.29-5.43v-.94h-.05c-.78,1.75-2.66,2.6-4.46,2.6-4.27,0-6.4-3.35-6.4-7.26,0-3.38,1.66-7.56,6.62-7.56,1.8,0,3.41.8,4.27,2.38h.03v-2.05h2.22v13.11Zm-2.33-6.23c0-2.52-1.11-5.13-4.07-5.13s-4.24,2.47-4.24,5.21c0,2.58.94,5.46,4.05,5.46s4.27-2.85,4.27-5.54Z"/>
    <path class="cls-12" d="m1953.09,713.24c2.63-4.16,3.66-8.29,3.66-12.77s-1.03-8.73-3.66-12.97h1.8c2.66,4.16,4.35,8.12,4.35,12.97,0,4.32-1.52,9.01-4.35,12.77h-1.8Z"/>
  </g>
  <g>
    <polyline class="cls-3" points="1098.91 305.69 1249.8 187.22 1495.76 187.22"/>
    <path class="cls-12" d="m1495.41,194.12c3.81,0,6.9-3.09,6.9-6.9s-3.09-6.9-6.9-6.9-6.9,3.09-6.9,6.9,3.09,6.9,6.9,6.9Z"/>
  </g>
  <g>
    <polyline class="cls-3" points="1032.73 326.57 851.13 187.22 599.92 187.22"/>
    <path class="cls-12" d="m600.26,180.32c-3.81,0-6.9,3.09-6.9,6.9s3.09,6.9,6.9,6.9,6.9-3.09,6.9-6.9-3.09-6.9-6.9-6.9Z"/>
  </g>
  <g>
    <polyline class="cls-3" points="1175.54 513.95 1314.9 568.01 1495.76 568.01"/>
    <path class="cls-12" d="m1495.41,574.91c3.81,0,6.9-3.09,6.9-6.9s-3.09-6.9-6.9-6.9-6.9,3.09-6.9,6.9,3.09,6.9,6.9,6.9Z"/>
  </g>
  <g>
    <polyline class="cls-2" points="851.13 374.36 793.56 358.49 593.53 346.59"/>
    <path class="cls-12" d="m594.28,339.72c-3.8-.23-7.07,2.68-7.3,6.48-.23,3.8,2.67,7.07,6.48,7.3,3.8.23,7.07-2.68,7.3-6.48s-2.68-7.07-6.48-7.3Z"/>
  </g>
  <g>
    <line class="cls-3" x1="1224.78" y1="435.69" x2="1513.76" y2="435.69"/>
    <path class="cls-12" d="m1513.42,442.59c3.81,0,6.9-3.09,6.9-6.9s-3.09-6.9-6.9-6.9-6.9,3.09-6.9,6.9,3.09,6.9,6.9,6.9Z"/>
  </g>
  <g>
    <path class="cls-12" d="m1548,441.4h-12.3v-5.4l12.64-16.96h5.28v17.5h3.87v4.86h-3.87v6.73h-5.61v-6.73Zm0-14.96h-.12l-7.52,10.1h7.65v-10.1Z"/>
    <path class="cls-12" d="m1560.63,441.74h6.53v6.4h-6.53v-6.4Z"/>
    <path class="cls-12" d="m1579.17,430.8c2.54.21,6.19-.29,6.19-3.62,0-2.45-1.95-3.87-4.12-3.87-2.95,0-4.53,2.2-4.49,5.2h-5.61c.21-5.94,4.07-10.06,10.06-10.06,4.66,0,9.77,2.87,9.77,8.06,0,2.74-1.37,5.2-4.07,5.94v.08c3.2.71,5.15,3.37,5.15,6.61,0,6.11-5.11,9.56-10.81,9.56-6.53,0-10.93-3.91-10.81-10.6h5.61c.12,3.16,1.7,5.74,5.11,5.74,2.66,0,4.74-1.83,4.74-4.57,0-4.41-3.87-4.32-6.73-4.32v-4.16Z"/>
    <path class="cls-12" d="m1602.98,418.46c5.15,0,6.82,3.82,6.82,8.4s-2.16,7.81-7.02,7.81c-5.11,0-6.86-3.41-6.86-7.98s2.2-8.23,7.07-8.23Zm-.17,13.09c2.58,0,2.74-2.99,2.74-4.74,0-1.62-.12-5.24-2.58-5.24-2.66,0-2.83,3.28-2.83,5.2,0,1.79,0,4.78,2.66,4.78Zm17.75-13.42h3.53l-17.12,30.92h-3.62l17.21-30.92Zm3.87,14.38c5.15,0,6.82,3.62,6.82,8.19s-2.16,8.02-7.02,8.02c-5.11,0-6.86-3.62-6.86-8.19s2.2-8.02,7.07-8.02Zm-.17,13.09c2.58,0,2.74-3.24,2.74-4.99,0-1.62-.12-4.99-2.58-4.99-2.66,0-2.83,3.04-2.83,4.95,0,1.79,0,5.03,2.66,5.03Z"/>
  </g>
  <g>
    <path class="cls-12" d="m1656.54,426.78c6.29,0,9.48,4.99,9.48,10.36s-3.19,10.36-9.48,10.36-9.48-4.99-9.48-10.36,3.19-10.36,9.48-10.36Zm0,18.51c4.82,0,6.84-4.16,6.84-8.15s-2.02-8.15-6.84-8.15-6.84,4.16-6.84,8.15,2.02,8.15,6.84,8.15Z"/>
    <path class="cls-12" d="m1668.75,432.71h2.22v3.02h.06c1.14-2.3,2.71-3.44,5.26-3.35v2.49c-3.8,0-5.18,2.16-5.18,5.79v6.37h-2.36v-14.33Z"/>
    <path class="cls-12" d="m1680.56,430.14h-2.36v-2.88h2.36v2.88Zm-2.36,2.58h2.36v14.33h-2.36v-14.33Z"/>
    <path class="cls-12" d="m1696.57,445.82c0,4.66-2.13,7.04-6.65,7.04-2.69,0-5.79-1.08-5.93-4.21h2.36c.11,1.72,2.16,2.33,3.71,2.33,3.08,0,4.29-2.22,4.29-5.43v-.94h-.05c-.78,1.75-2.66,2.6-4.46,2.6-4.27,0-6.4-3.35-6.4-7.26,0-3.38,1.66-7.56,6.62-7.56,1.8,0,3.41.8,4.27,2.38h.03v-2.05h2.22v13.11Zm-2.33-6.23c0-2.52-1.11-5.13-4.07-5.13s-4.24,2.47-4.24,5.21c0,2.58.94,5.46,4.05,5.46s4.27-2.85,4.27-5.54Z"/>
    <path class="cls-12" d="m1702.61,430.14h-2.36v-2.88h2.36v2.88Zm-2.36,2.58h2.36v14.33h-2.36v-14.33Z"/>
    <path class="cls-12" d="m1706.27,432.71h2.22v2.27h.06c1-1.77,2.6-2.61,4.66-2.61,3.77,0,4.93,2.16,4.93,5.24v9.42h-2.36v-9.7c0-1.75-1.11-2.88-2.91-2.88-2.85,0-4.24,1.91-4.24,4.49v8.09h-2.36v-14.33Z"/>
    <path class="cls-12" d="m1734.37,446.99c-.42.25-.94.39-1.69.39-1.22,0-2-.67-2-2.22-1.3,1.52-3.05,2.22-5.04,2.22-2.61,0-4.74-1.16-4.74-4.02,0-3.24,2.41-3.93,4.85-4.41,2.6-.5,4.82-.33,4.82-2.11,0-2.05-1.69-2.38-3.19-2.38-2,0-3.46.61-3.57,2.72h-2.36c.14-3.55,2.88-4.79,6.07-4.79,2.58,0,5.38.58,5.38,3.94v7.37c0,1.11,0,1.61.75,1.61.19,0,.42-.03.72-.14v1.83Zm-3.82-7.34c-.91.67-2.69.69-4.27.97-1.55.28-2.88.83-2.88,2.58,0,1.55,1.33,2.11,2.77,2.11,3.1,0,4.38-1.94,4.38-3.24v-2.41Z"/>
    <path class="cls-12" d="m1736.69,427.26h2.36v19.79h-2.36v-19.79Z"/>
    <path class="cls-12" d="m1756.17,427.26h2.91l7.73,19.79h-2.91l-2.16-5.96h-8.37l-2.22,5.96h-2.72l7.73-19.79Zm-1.97,11.61h6.71l-3.3-9.23h-.05l-3.35,9.23Z"/>
    <path class="cls-12" d="m1770.85,430.14h-2.36v-2.88h2.36v2.88Zm-2.36,2.58h2.36v14.33h-2.36v-14.33Z"/>
    <path class="cls-12" d="m1774.43,432.71h2.22v3.02h.06c1.14-2.3,2.71-3.44,5.26-3.35v2.49c-3.8,0-5.18,2.16-5.18,5.79v6.37h-2.36v-14.33Z"/>
    <path class="cls-12" d="m1791.83,427.26h6.79c6.1,0,9.5,3.05,9.5,9.42s-2.91,10.36-9.5,10.36h-6.79v-19.79Zm2.63,17.57h4.38c1.8,0,6.65-.5,6.65-7.79,0-4.71-1.75-7.57-6.59-7.57h-4.43v15.35Z"/>
    <path class="cls-12" d="m1810.86,432.71h2.22v3.02h.06c1.14-2.3,2.71-3.44,5.26-3.35v2.49c-3.8,0-5.18,2.16-5.18,5.79v6.37h-2.36v-14.33Z"/>
    <path class="cls-12" d="m1825.85,432.38c4.54,0,6.96,3.3,6.96,7.51s-2.41,7.48-6.96,7.48-6.96-3.3-6.96-7.48,2.41-7.51,6.96-7.51Zm0,12.91c2.47,0,4.46-1.94,4.46-5.4s-2-5.43-4.46-5.43-4.46,1.94-4.46,5.43,2,5.4,4.46,5.4Z"/>
    <path class="cls-12" d="m1835.66,432.71h2.36v1.94h.06c.78-1.58,2.6-2.27,4.57-2.27,4.41,0,6.59,3.49,6.59,7.54s-2.16,7.45-6.54,7.45c-1.47,0-3.57-.55-4.63-2.25h-.06v7.4h-2.36v-19.81Zm6.65,1.75c-3.16,0-4.38,2.72-4.38,5.4,0,2.83,1.27,5.43,4.52,5.43s4.29-2.74,4.29-5.54-1.39-5.29-4.43-5.29Z"/>
    <path class="cls-12" d="m1853.45,442.53c.08,2.11,1.91,2.77,3.85,2.77,1.47,0,3.46-.33,3.46-2.13s-2.33-2.13-4.68-2.66c-2.33-.53-4.68-1.3-4.68-4.04,0-2.88,2.85-4.07,5.35-4.07,3.16,0,5.68,1,5.88,4.49h-2.36c-.17-1.83-1.77-2.41-3.33-2.41-1.41,0-3.05.39-3.05,1.83,0,1.69,2.49,1.97,4.68,2.49,2.36.53,4.68,1.3,4.68,4.07,0,3.41-3.19,4.52-6.1,4.52-3.21,0-5.93-1.3-6.07-4.85h2.35Z"/>
  </g>
  <g>
    <path class="cls-12" d="m1522.32,566.96c.38,1.95,1.87,3.62,3.91,3.62,4.28,0,5.4-5.61,5.57-8.85l-.08-.08c-1.62,2.29-3.74,3.24-6.57,3.24-2.49,0-5.03-1.16-6.69-2.99-1.54-1.79-2.24-4.2-2.24-6.48,0-5.94,4.12-10.64,10.18-10.64,8.81,0,11.18,7.69,11.18,15.05s-3.16,15.21-11.43,15.21c-5.03,0-8.77-2.95-9.43-8.06h5.61Zm8.94-11.93c0-2.7-1.75-5.4-4.7-5.4s-4.45,2.7-4.45,5.32,1.41,5.49,4.45,5.49,4.7-2.54,4.7-5.4Z"/>
    <path class="cls-12" d="m1540.94,568.04h6.53v6.4h-6.53v-6.4Z"/>
    <path class="cls-12" d="m1561.59,544.76c7.23,0,9.73,4.99,9.73,7.81s-1.5,5.2-4.24,6.11v.08c3.45.79,5.45,3.45,5.45,7.11,0,6.11-5.49,9.14-10.89,9.14s-11.06-2.83-11.06-9.1c0-3.7,2.08-6.32,5.49-7.15v-.08c-2.83-.79-4.28-3.12-4.28-5.99,0-5.24,5.07-7.94,9.81-7.94Zm.04,25.81c2.83,0,4.99-2,4.99-4.91s-2.24-4.66-4.99-4.66-5.15,1.62-5.15,4.61,2.33,4.95,5.15,4.95Zm-.04-13.51c2.41,0,4.36-1.33,4.36-3.82,0-1.5-.71-4.03-4.36-4.03-2.37,0-4.45,1.45-4.45,4.03s2.08,3.82,4.45,3.82Z"/>
    <path class="cls-12" d="m1583.29,544.76c5.15,0,6.82,3.82,6.82,8.4s-2.16,7.81-7.02,7.81c-5.11,0-6.86-3.41-6.86-7.98s2.2-8.23,7.07-8.23Zm-.17,13.09c2.58,0,2.74-2.99,2.74-4.74,0-1.62-.12-5.24-2.58-5.24-2.66,0-2.83,3.28-2.83,5.2,0,1.79,0,4.78,2.66,4.78Zm17.75-13.43h3.53l-17.12,30.92h-3.62l17.21-30.92Zm3.87,14.38c5.15,0,6.82,3.62,6.82,8.19s-2.16,8.02-7.02,8.02c-5.11,0-6.86-3.62-6.86-8.19s2.2-8.02,7.07-8.02Zm-.17,13.09c2.58,0,2.74-3.24,2.74-4.99,0-1.62-.12-4.99-2.58-4.99-2.66,0-2.83,3.03-2.83,4.95,0,1.79,0,5.03,2.66,5.03Z"/>
  </g>
  <g>
    <path class="cls-12" d="m1628.47,553.56h13v2.22h-10.36v6.29h9.09v2.22h-9.09v9.06h-2.63v-19.79Z"/>
    <path class="cls-12" d="m1644.13,553.56h2.36v19.79h-2.36v-19.79Z"/>
    <path class="cls-12" d="m1662.83,573.29c-.42.25-.94.39-1.69.39-1.22,0-2-.66-2-2.22-1.3,1.52-3.05,2.22-5.04,2.22-2.61,0-4.74-1.16-4.74-4.02,0-3.24,2.41-3.93,4.85-4.41,2.6-.5,4.82-.33,4.82-2.11,0-2.05-1.69-2.38-3.19-2.38-2,0-3.46.61-3.57,2.71h-2.36c.14-3.55,2.88-4.79,6.07-4.79,2.58,0,5.38.58,5.38,3.93v7.37c0,1.11,0,1.61.75,1.61.19,0,.42-.03.72-.14v1.83Zm-3.82-7.34c-.91.67-2.69.69-4.27.97-1.55.28-2.88.83-2.88,2.58,0,1.55,1.33,2.11,2.77,2.11,3.1,0,4.38-1.94,4.38-3.24v-2.41Z"/>
    <path class="cls-12" d="m1664.93,559.02h2.22v3.02h.06c1.14-2.3,2.71-3.44,5.26-3.35v2.49c-3.8,0-5.18,2.16-5.18,5.79v6.37h-2.36v-14.33Z"/>
    <path class="cls-12" d="m1685.96,568.8c-.64,3.16-2.91,4.88-6.12,4.88-4.57,0-6.73-3.16-6.87-7.54,0-4.29,2.83-7.45,6.73-7.45,5.07,0,6.62,4.74,6.48,8.2h-10.72c-.08,2.49,1.33,4.71,4.46,4.71,1.94,0,3.3-.94,3.71-2.8h2.33Zm-2.27-3.99c-.11-2.24-1.8-4.04-4.13-4.04-2.47,0-3.94,1.86-4.1,4.04h8.23Z"/>
    <path class="cls-12" d="m1696.71,553.56h13v2.22h-10.36v6.29h9.09v2.22h-9.09v9.06h-2.63v-19.79Z"/>
    <path class="cls-12" d="m1718.41,558.69c4.54,0,6.96,3.3,6.96,7.51s-2.41,7.48-6.96,7.48-6.96-3.3-6.96-7.48,2.41-7.51,6.96-7.51Zm0,12.91c2.47,0,4.46-1.94,4.46-5.4s-2-5.43-4.46-5.43-4.46,1.94-4.46,5.43,2,5.4,4.46,5.4Z"/>
    <path class="cls-12" d="m1739.99,573.34h-2.22v-2.27h-.06c-1,1.77-2.6,2.6-4.66,2.6-3.77,0-4.93-2.16-4.93-5.24v-9.42h2.36v9.7c0,1.75,1.11,2.88,2.91,2.88,2.85,0,4.24-1.91,4.24-4.49v-8.09h2.36v14.33Z"/>
    <path class="cls-12" d="m1743.54,559.02h2.22v2.27h.06c1-1.77,2.6-2.6,4.66-2.6,3.77,0,4.93,2.16,4.93,5.24v9.42h-2.35v-9.7c0-1.75-1.11-2.88-2.91-2.88-2.85,0-4.24,1.91-4.24,4.49v8.09h-2.36v-14.33Z"/>
    <path class="cls-12" d="m1771.75,573.34h-2.36v-1.94h-.05c-.78,1.58-2.61,2.27-4.57,2.27-4.41,0-6.6-3.49-6.6-7.54s2.16-7.45,6.54-7.45c1.47,0,3.57.55,4.63,2.24h.05v-7.37h2.36v19.79Zm-6.65-1.75c3.16,0,4.38-2.71,4.38-5.4,0-2.83-1.28-5.43-4.52-5.43s-4.29,2.74-4.29,5.54,1.39,5.29,4.43,5.29Z"/>
    <path class="cls-12" d="m1788.06,573.29c-.42.25-.94.39-1.69.39-1.22,0-2-.66-2-2.22-1.3,1.52-3.05,2.22-5.04,2.22-2.61,0-4.74-1.16-4.74-4.02,0-3.24,2.41-3.93,4.85-4.41,2.6-.5,4.82-.33,4.82-2.11,0-2.05-1.69-2.38-3.19-2.38-2,0-3.46.61-3.57,2.71h-2.36c.14-3.55,2.88-4.79,6.07-4.79,2.58,0,5.38.58,5.38,3.93v7.37c0,1.11,0,1.61.75,1.61.19,0,.42-.03.72-.14v1.83Zm-3.82-7.34c-.91.67-2.69.69-4.27.97-1.55.28-2.88.83-2.88,2.58,0,1.55,1.33,2.11,2.77,2.11,3.1,0,4.38-1.94,4.38-3.24v-2.41Z"/>
    <path class="cls-12" d="m1793.52,559.02h2.85v2.08h-2.85v8.9c0,1.08.3,1.27,1.77,1.27h1.08v2.08h-1.8c-2.44,0-3.41-.5-3.41-3.13v-9.12h-2.44v-2.08h2.44v-4.29h2.36v4.29Z"/>
    <path class="cls-12" d="m1801.47,556.44h-2.36v-2.88h2.36v2.88Zm-2.36,2.58h2.36v14.33h-2.36v-14.33Z"/>
    <path class="cls-12" d="m1811.31,558.69c4.54,0,6.96,3.3,6.96,7.51s-2.41,7.48-6.96,7.48-6.96-3.3-6.96-7.48,2.41-7.51,6.96-7.51Zm0,12.91c2.47,0,4.46-1.94,4.46-5.4s-2-5.43-4.46-5.43-4.46,1.94-4.46,5.43,2,5.4,4.46,5.4Z"/>
    <path class="cls-12" d="m1821.03,559.02h2.22v2.27h.06c1-1.77,2.6-2.6,4.66-2.6,3.77,0,4.93,2.16,4.93,5.24v9.42h-2.35v-9.7c0-1.75-1.11-2.88-2.91-2.88-2.85,0-4.24,1.91-4.24,4.49v8.09h-2.36v-14.33Z"/>
    <path class="cls-12" d="m1848.02,578.83c-2.66-4.16-4.35-8.12-4.35-12.97,0-4.32,1.52-9.01,4.35-12.77h1.8c-2.63,4.16-3.66,8.29-3.66,12.77s1.03,8.73,3.66,12.97h-1.8Z"/>
    <path class="cls-12" d="m1851.32,559.02h2.22v2.27h.06c1-1.77,2.6-2.6,4.66-2.6,3.77,0,4.93,2.16,4.93,5.24v9.42h-2.35v-9.7c0-1.75-1.11-2.88-2.91-2.88-2.85,0-4.24,1.91-4.24,4.49v8.09h-2.36v-14.33Z"/>
    <path class="cls-12" d="m1872.9,558.69c4.54,0,6.96,3.3,6.96,7.51s-2.41,7.48-6.96,7.48-6.96-3.3-6.96-7.48,2.41-7.51,6.96-7.51Zm0,12.91c2.47,0,4.46-1.94,4.46-5.4s-2-5.43-4.46-5.43-4.46,1.94-4.46,5.43,2,5.4,4.46,5.4Z"/>
    <path class="cls-12" d="m1882.63,559.02h2.22v2.27h.06c1-1.77,2.6-2.6,4.66-2.6,3.77,0,4.93,2.16,4.93,5.24v9.42h-2.36v-9.7c0-1.75-1.11-2.88-2.91-2.88-2.85,0-4.24,1.91-4.24,4.49v8.09h-2.36v-14.33Z"/>
    <path class="cls-12" d="m1897.64,564.53h8.01v2.22h-8.01v-2.22Z"/>
    <path class="cls-12" d="m1915.27,573.34h-2.52l-5.32-14.33h2.63l4.02,11.94h.06l3.91-11.94h2.47l-5.24,14.33Z"/>
    <path class="cls-12" d="m1928.84,558.69c4.54,0,6.96,3.3,6.96,7.51s-2.41,7.48-6.96,7.48-6.96-3.3-6.96-7.48,2.41-7.51,6.96-7.51Zm0,12.91c2.47,0,4.46-1.94,4.46-5.4s-2-5.43-4.46-5.43-4.46,1.94-4.46,5.43,2,5.4,4.46,5.4Z"/>
    <path class="cls-12" d="m1941.84,559.02h2.85v2.08h-2.85v8.9c0,1.08.3,1.27,1.77,1.27h1.08v2.08h-1.8c-2.44,0-3.41-.5-3.41-3.13v-9.12h-2.44v-2.08h2.44v-4.29h2.36v4.29Z"/>
    <path class="cls-12" d="m1949.79,556.44h-2.36v-2.88h2.36v2.88Zm-2.36,2.58h2.36v14.33h-2.36v-14.33Z"/>
    <path class="cls-12" d="m1953.45,559.02h2.22v2.27h.06c1-1.77,2.6-2.6,4.66-2.6,3.77,0,4.93,2.16,4.93,5.24v9.42h-2.36v-9.7c0-1.75-1.11-2.88-2.91-2.88-2.85,0-4.24,1.91-4.24,4.49v8.09h-2.36v-14.33Z"/>
    <path class="cls-12" d="m1981.21,572.13c0,4.65-2.13,7.04-6.65,7.04-2.69,0-5.79-1.08-5.93-4.21h2.36c.11,1.72,2.16,2.33,3.71,2.33,3.08,0,4.29-2.22,4.29-5.43v-.94h-.06c-.78,1.75-2.66,2.6-4.46,2.6-4.27,0-6.4-3.35-6.4-7.26,0-3.38,1.66-7.56,6.62-7.56,1.8,0,3.41.8,4.27,2.38h.03v-2.05h2.22v13.11Zm-2.33-6.24c0-2.52-1.11-5.13-4.07-5.13s-4.24,2.47-4.24,5.21c0,2.58.94,5.46,4.05,5.46s4.27-2.85,4.27-5.54Z"/>
    <path class="cls-12" d="m1982.7,578.83c2.63-4.16,3.66-8.29,3.66-12.77s-1.03-8.73-3.66-12.97h1.8c2.66,4.16,4.35,8.12,4.35,12.97,0,4.32-1.52,9.01-4.35,12.77h-1.8Z"/>
  </g>
  <g>
    <g>
      <path class="cls-12" d="m204.3,182.22c-.21-6.65,3.57-11.76,10.56-11.76,5.32,0,9.98,3.41,9.98,9.1,0,4.36-2.33,6.78-5.2,8.81-2.87,2.04-6.28,3.7-8.4,6.69h13.76v5.07h-21.36c.04-6.73,4.16-9.6,9.19-13.01,2.58-1.75,6.07-3.53,6.11-7.11,0-2.74-1.83-4.49-4.36-4.49-3.49,0-4.61,3.62-4.61,6.69h-5.65Z"/>
      <path class="cls-12" d="m237.39,170.46c5.82,0,10.72,3.66,10.72,15s-4.9,15.25-10.72,15.25-10.64-3.66-10.64-15.25,4.9-15,10.64-15Zm0,25.4c4.82,0,4.82-7.11,4.82-10.39,0-3.03,0-10.14-4.82-10.14s-4.74,7.11-4.74,10.14c0,3.28,0,10.39,4.74,10.39Z"/>
      <path class="cls-12" d="m259.16,170.46c5.15,0,6.82,3.82,6.82,8.4s-2.16,7.81-7.02,7.81c-5.11,0-6.86-3.41-6.86-7.98s2.2-8.23,7.07-8.23Zm-.17,13.09c2.58,0,2.74-2.99,2.74-4.74,0-1.62-.12-5.24-2.58-5.24-2.66,0-2.83,3.28-2.83,5.2,0,1.79,0,4.78,2.66,4.78Zm17.75-13.42h3.53l-17.12,30.92h-3.62l17.21-30.92Zm3.87,14.38c5.15,0,6.82,3.62,6.82,8.19s-2.16,8.02-7.02,8.02c-5.11,0-6.86-3.62-6.86-8.19s2.2-8.02,7.07-8.02Zm-.17,13.09c2.58,0,2.74-3.24,2.74-4.99,0-1.62-.12-4.99-2.58-4.99-2.66,0-2.83,3.04-2.83,4.95,0,1.79,0,5.03,2.66,5.03Z"/>
    </g>
    <g>
      <path class="cls-12" d="m312.14,182.12c-.55-2.8-2.8-4.21-5.54-4.21-4.71,0-6.71,3.88-6.71,8.01,0,4.52,2,8.29,6.73,8.29,3.46,0,5.46-2.44,5.71-5.71h2.63c-.5,4.93-3.58,7.93-8.56,7.93-6.15,0-9.14-4.54-9.14-10.31s3.27-10.42,9.37-10.42c4.13,0,7.54,2.22,8.15,6.43h-2.63Z"/>
      <path class="cls-12" d="m317.76,181.63h2.22v3.02h.06c1.14-2.3,2.71-3.44,5.26-3.35v2.49c-3.8,0-5.18,2.16-5.18,5.79v6.37h-2.36v-14.33Z"/>
      <path class="cls-12" d="m332.75,181.29c4.54,0,6.96,3.3,6.96,7.51s-2.41,7.48-6.96,7.48-6.96-3.3-6.96-7.48,2.41-7.51,6.96-7.51Zm0,12.91c2.47,0,4.46-1.94,4.46-5.4s-2-5.43-4.46-5.43-4.46,1.94-4.46,5.43,2,5.4,4.46,5.4Z"/>
      <path class="cls-12" d="m343.92,191.44c.08,2.11,1.91,2.77,3.85,2.77,1.47,0,3.46-.33,3.46-2.13s-2.33-2.13-4.68-2.66c-2.33-.53-4.68-1.3-4.68-4.05,0-2.88,2.85-4.07,5.35-4.07,3.16,0,5.68,1,5.88,4.49h-2.36c-.17-1.83-1.77-2.41-3.33-2.41-1.41,0-3.05.39-3.05,1.83,0,1.69,2.49,1.97,4.68,2.49,2.36.53,4.68,1.3,4.68,4.07,0,3.41-3.19,4.52-6.1,4.52-3.21,0-5.93-1.3-6.07-4.85h2.35Z"/>
      <path class="cls-12" d="m357.77,191.44c.08,2.11,1.91,2.77,3.85,2.77,1.47,0,3.46-.33,3.46-2.13s-2.33-2.13-4.68-2.66c-2.33-.53-4.68-1.3-4.68-4.05,0-2.88,2.85-4.07,5.35-4.07,3.16,0,5.68,1,5.88,4.49h-2.36c-.17-1.83-1.77-2.41-3.33-2.41-1.41,0-3.05.39-3.05,1.83,0,1.69,2.49,1.97,4.68,2.49,2.36.53,4.68,1.3,4.68,4.07,0,3.41-3.19,4.52-6.1,4.52-3.21,0-5.93-1.3-6.07-4.85h2.36Z"/>
      <path class="cls-12" d="m369.8,187.14h8.01v2.22h-8.01v-2.22Z"/>
      <path class="cls-12" d="m390.69,186.23c-.36-1.8-1.61-2.85-3.55-2.85-3.41,0-4.46,2.69-4.46,5.6,0,2.63,1.19,5.24,4.18,5.24,2.27,0,3.63-1.33,3.93-3.49h2.41c-.53,3.49-2.72,5.57-6.32,5.57-4.38,0-6.71-3.05-6.71-7.32s2.22-7.68,6.76-7.68c3.24,0,5.85,1.52,6.18,4.93h-2.44Z"/>
      <path class="cls-12" d="m395.84,176.17h2.36v7.56h.06c.78-1.72,2.8-2.44,4.52-2.44,3.77,0,4.93,2.16,4.93,5.24v9.42h-2.35v-9.7c0-1.75-1.11-2.88-2.91-2.88-2.85,0-4.24,1.91-4.24,4.49v8.09h-2.36v-19.79Z"/>
      <path class="cls-12" d="m423.94,195.9c-.42.25-.94.39-1.69.39-1.22,0-2-.67-2-2.22-1.3,1.52-3.05,2.22-5.04,2.22-2.61,0-4.74-1.16-4.74-4.02,0-3.24,2.41-3.94,4.85-4.41,2.6-.5,4.82-.33,4.82-2.11,0-2.05-1.69-2.38-3.19-2.38-2,0-3.46.61-3.57,2.71h-2.36c.14-3.55,2.88-4.79,6.07-4.79,2.58,0,5.38.58,5.38,3.93v7.37c0,1.11,0,1.61.75,1.61.19,0,.42-.03.72-.14v1.83Zm-3.82-7.34c-.91.66-2.69.69-4.27.97-1.55.28-2.88.83-2.88,2.58,0,1.55,1.33,2.11,2.77,2.11,3.1,0,4.38-1.94,4.38-3.24v-2.41Z"/>
      <path class="cls-12" d="m428.62,179.05h-2.36v-2.88h2.36v2.88Zm-2.36,2.58h2.36v14.33h-2.36v-14.33Z"/>
      <path class="cls-12" d="m432.28,181.63h2.22v2.27h.06c1-1.77,2.6-2.6,4.66-2.6,3.77,0,4.93,2.16,4.93,5.24v9.42h-2.36v-9.7c0-1.75-1.11-2.88-2.91-2.88-2.85,0-4.24,1.91-4.24,4.49v8.09h-2.36v-14.33Z"/>
      <path class="cls-12" d="m455.88,176.17h2.63v19.79h-2.63v-19.79Z"/>
      <path class="cls-12" d="m462.56,181.63h2.22v2.27h.06c1-1.77,2.6-2.6,4.66-2.6,3.77,0,4.93,2.16,4.93,5.24v9.42h-2.35v-9.7c0-1.75-1.11-2.88-2.91-2.88-2.85,0-4.24,1.91-4.24,4.49v8.09h-2.36v-14.33Z"/>
      <path class="cls-12" d="m487.69,186.23c-.36-1.8-1.61-2.85-3.55-2.85-3.41,0-4.46,2.69-4.46,5.6,0,2.63,1.19,5.24,4.18,5.24,2.27,0,3.63-1.33,3.93-3.49h2.41c-.53,3.49-2.72,5.57-6.32,5.57-4.38,0-6.71-3.05-6.71-7.32s2.22-7.68,6.76-7.68c3.24,0,5.85,1.52,6.18,4.93h-2.44Z"/>
      <path class="cls-12" d="m505.06,191.41c-.64,3.16-2.91,4.88-6.12,4.88-4.57,0-6.73-3.16-6.87-7.54,0-4.29,2.83-7.45,6.73-7.45,5.07,0,6.62,4.74,6.48,8.2h-10.72c-.08,2.49,1.33,4.71,4.46,4.71,1.94,0,3.3-.94,3.71-2.8h2.33Zm-2.27-3.99c-.11-2.24-1.8-4.04-4.13-4.04-2.47,0-3.93,1.86-4.1,4.04h8.23Z"/>
      <path class="cls-12" d="m507.72,181.63h2.22v2.27h.06c1-1.77,2.6-2.6,4.66-2.6,3.77,0,4.93,2.16,4.93,5.24v9.42h-2.35v-9.7c0-1.75-1.11-2.88-2.91-2.88-2.85,0-4.24,1.91-4.24,4.49v8.09h-2.36v-14.33Z"/>
      <path class="cls-12" d="m526.4,181.63h2.85v2.08h-2.85v8.89c0,1.08.3,1.28,1.77,1.28h1.08v2.08h-1.8c-2.44,0-3.41-.5-3.41-3.13v-9.12h-2.44v-2.08h2.44v-4.29h2.36v4.29Z"/>
      <path class="cls-12" d="m534.35,179.05h-2.36v-2.88h2.36v2.88Zm-2.36,2.58h2.36v14.33h-2.36v-14.33Z"/>
      <path class="cls-12" d="m544.46,195.95h-2.52l-5.32-14.33h2.63l4.02,11.94h.06l3.91-11.94h2.47l-5.24,14.33Z"/>
      <path class="cls-12" d="m564.08,191.41c-.64,3.16-2.91,4.88-6.12,4.88-4.57,0-6.73-3.16-6.87-7.54,0-4.29,2.83-7.45,6.73-7.45,5.07,0,6.62,4.74,6.48,8.2h-10.72c-.08,2.49,1.33,4.71,4.46,4.71,1.94,0,3.3-.94,3.71-2.8h2.33Zm-2.27-3.99c-.11-2.24-1.8-4.04-4.13-4.04-2.47,0-3.93,1.86-4.1,4.04h8.23Z"/>
      <path class="cls-12" d="m568.18,191.44c.08,2.11,1.91,2.77,3.85,2.77,1.47,0,3.46-.33,3.46-2.13s-2.33-2.13-4.68-2.66c-2.33-.53-4.68-1.3-4.68-4.05,0-2.88,2.85-4.07,5.35-4.07,3.16,0,5.68,1,5.88,4.49h-2.36c-.17-1.83-1.77-2.41-3.33-2.41-1.41,0-3.05.39-3.05,1.83,0,1.69,2.49,1.97,4.68,2.49,2.36.53,4.68,1.3,4.68,4.07,0,3.41-3.19,4.52-6.1,4.52-3.21,0-5.93-1.3-6.07-4.85h2.36Z"/>
    </g>
  </g>
  <g>
    <g>
      <path class="cls-12" d="m332.39,711.37h-5.9v-18.87h-7.32v-4.45c4.11.08,7.9-1.33,8.52-5.78h4.7v29.1Z"/>
      <path class="cls-12" d="m340.74,693.46c-.21-6.65,3.57-11.76,10.56-11.76,5.32,0,9.98,3.41,9.98,9.1,0,4.36-2.33,6.77-5.2,8.81-2.87,2.04-6.28,3.7-8.4,6.69h13.76v5.07h-21.36c.04-6.73,4.16-9.6,9.19-13.01,2.58-1.75,6.07-3.53,6.11-7.11,0-2.74-1.83-4.49-4.36-4.49-3.49,0-4.61,3.62-4.61,6.69h-5.65Z"/>
      <path class="cls-12" d="m364.81,704.97h6.53v6.4h-6.53v-6.4Z"/>
      <path class="cls-12" d="m380.85,703.89c.37,1.95,1.87,3.62,3.91,3.62,4.28,0,5.4-5.61,5.57-8.85l-.08-.08c-1.62,2.29-3.74,3.24-6.57,3.24-2.49,0-5.03-1.16-6.69-2.99-1.54-1.79-2.24-4.2-2.24-6.48,0-5.94,4.11-10.64,10.18-10.64,8.81,0,11.18,7.69,11.18,15.05s-3.16,15.21-11.43,15.21c-5.03,0-8.77-2.95-9.43-8.06h5.61Zm8.94-11.93c0-2.7-1.75-5.4-4.7-5.4s-4.45,2.7-4.45,5.32,1.41,5.49,4.45,5.49,4.7-2.54,4.7-5.4Z"/>
      <path class="cls-12" d="m407.16,681.7c5.15,0,6.82,3.82,6.82,8.4s-2.16,7.81-7.02,7.81c-5.11,0-6.86-3.41-6.86-7.98s2.2-8.23,7.07-8.23Zm-.17,13.09c2.58,0,2.74-2.99,2.74-4.74,0-1.62-.12-5.24-2.58-5.24-2.66,0-2.83,3.28-2.83,5.2,0,1.79,0,4.78,2.66,4.78Zm17.75-13.43h3.53l-17.12,30.92h-3.62l17.21-30.92Zm3.87,14.38c5.15,0,6.82,3.62,6.82,8.19s-2.16,8.02-7.02,8.02c-5.11,0-6.86-3.62-6.86-8.19s2.2-8.02,7.07-8.02Zm-.17,13.09c2.58,0,2.74-3.24,2.74-4.99,0-1.62-.12-4.99-2.58-4.99-2.66,0-2.83,3.04-2.83,4.95,0,1.79,0,5.03,2.66,5.03Z"/>
    </g>
    <g>
      <path class="cls-12" d="m452.17,687.41h13v2.22h-10.36v6.29h9.09v2.22h-9.09v9.06h-2.63v-19.79Z"/>
      <path class="cls-12" d="m467.82,687.41h2.36v19.79h-2.36v-19.79Z"/>
      <path class="cls-12" d="m486.53,707.13c-.42.25-.94.39-1.69.39-1.22,0-2-.67-2-2.22-1.3,1.52-3.05,2.22-5.04,2.22-2.61,0-4.74-1.16-4.74-4.02,0-3.24,2.41-3.93,4.85-4.41,2.6-.5,4.82-.33,4.82-2.11,0-2.05-1.69-2.38-3.19-2.38-2,0-3.46.61-3.57,2.72h-2.36c.14-3.55,2.88-4.79,6.07-4.79,2.58,0,5.38.58,5.38,3.93v7.37c0,1.11,0,1.61.75,1.61.19,0,.42-.03.72-.14v1.83Zm-3.82-7.34c-.91.67-2.69.69-4.27.97-1.55.28-2.88.83-2.88,2.58,0,1.55,1.33,2.11,2.77,2.11,3.1,0,4.38-1.94,4.38-3.24v-2.41Z"/>
      <path class="cls-12" d="m488.63,692.86h2.22v3.02h.06c1.14-2.3,2.71-3.44,5.26-3.35v2.49c-3.8,0-5.18,2.16-5.18,5.79v6.37h-2.36v-14.33Z"/>
      <path class="cls-12" d="m509.66,702.65c-.64,3.16-2.91,4.88-6.12,4.88-4.57,0-6.73-3.16-6.87-7.54,0-4.3,2.83-7.45,6.73-7.45,5.07,0,6.62,4.74,6.48,8.2h-10.72c-.08,2.49,1.33,4.71,4.46,4.71,1.94,0,3.3-.94,3.71-2.8h2.33Zm-2.27-3.99c-.11-2.25-1.8-4.05-4.13-4.05-2.47,0-3.94,1.86-4.1,4.05h8.23Z"/>
      <path class="cls-12" d="m520.41,687.41h2.63v17.57h10.47v2.22h-13.11v-19.79Z"/>
      <path class="cls-12" d="m548.12,707.13c-.42.25-.94.39-1.69.39-1.22,0-2-.67-2-2.22-1.3,1.52-3.05,2.22-5.04,2.22-2.61,0-4.74-1.16-4.74-4.02,0-3.24,2.41-3.93,4.85-4.41,2.6-.5,4.82-.33,4.82-2.11,0-2.05-1.69-2.38-3.19-2.38-2,0-3.46.61-3.57,2.72h-2.36c.14-3.55,2.88-4.79,6.07-4.79,2.58,0,5.38.58,5.38,3.93v7.37c0,1.11,0,1.61.75,1.61.19,0,.42-.03.72-.14v1.83Zm-3.82-7.34c-.91.67-2.69.69-4.27.97-1.55.28-2.88.83-2.88,2.58,0,1.55,1.33,2.11,2.77,2.11,3.1,0,4.38-1.94,4.38-3.24v-2.41Z"/>
      <path class="cls-12" d="m550.39,687.41h2.36v7.4h.06c.78-1.58,2.6-2.27,4.57-2.27,4.41,0,6.59,3.49,6.59,7.54s-2.16,7.45-6.54,7.45c-1.47,0-3.57-.55-4.63-2.25h-.06v1.91h-2.36v-19.79Zm6.65,7.21c-3.16,0-4.38,2.72-4.38,5.4,0,2.83,1.27,5.43,4.52,5.43s4.29-2.74,4.29-5.54-1.39-5.29-4.43-5.29Z"/>
      <path class="cls-12" d="m568.18,702.67c.08,2.11,1.91,2.77,3.85,2.77,1.47,0,3.46-.33,3.46-2.13s-2.33-2.13-4.68-2.66c-2.33-.53-4.68-1.3-4.68-4.04,0-2.88,2.85-4.07,5.35-4.07,3.16,0,5.68,1,5.88,4.49h-2.36c-.17-1.83-1.77-2.41-3.33-2.41-1.41,0-3.05.39-3.05,1.83,0,1.69,2.49,1.97,4.68,2.49,2.36.53,4.68,1.3,4.68,4.07,0,3.41-3.19,4.52-6.1,4.52-3.21,0-5.93-1.3-6.07-4.85h2.35Z"/>
    </g>
  </g>
  <g>
    <g>
      <path class="cls-12" d="m348,505.31c2.01.17,4.92-.23,4.92-2.87,0-1.95-1.55-3.07-3.27-3.07-2.35,0-3.6,1.75-3.57,4.13h-4.46c.17-4.72,3.24-8,7.99-8,3.7,0,7.76,2.28,7.76,6.41,0,2.18-1.09,4.13-3.24,4.72v.07c2.54.56,4.1,2.68,4.1,5.25,0,4.86-4.06,7.6-8.59,7.6-5.19,0-8.69-3.11-8.59-8.42h4.46c.1,2.51,1.35,4.56,4.06,4.56,2.11,0,3.77-1.45,3.77-3.63,0-3.5-3.07-3.44-5.35-3.44v-3.3Z"/>
      <path class="cls-12" d="m360.82,513.99h5.19v5.09h-5.19v-5.09Z"/>
      <path class="cls-12" d="m377.17,495.49c4.62,0,8.52,2.91,8.52,11.93s-3.9,12.12-8.52,12.12-8.46-2.91-8.46-12.12,3.9-11.93,8.46-11.93Zm0,20.18c3.83,0,3.83-5.65,3.83-8.26,0-2.41,0-8.06-3.83-8.06s-3.77,5.65-3.77,8.06c0,2.61,0,8.26,3.77,8.26Z"/>
      <path class="cls-12" d="m394.48,495.49c4.1,0,5.42,3.04,5.42,6.67s-1.72,6.21-5.58,6.21c-4.06,0-5.45-2.71-5.45-6.34s1.75-6.54,5.62-6.54Zm-.13,10.41c2.05,0,2.18-2.38,2.18-3.77,0-1.29-.1-4.16-2.05-4.16-2.11,0-2.25,2.61-2.25,4.13,0,1.42,0,3.8,2.11,3.8Zm14.11-10.67h2.81l-13.61,24.58h-2.87l13.68-24.58Zm3.07,11.43c4.1,0,5.42,2.87,5.42,6.51s-1.72,6.38-5.58,6.38c-4.06,0-5.45-2.87-5.45-6.51s1.75-6.38,5.62-6.38Zm-.13,10.41c2.05,0,2.18-2.58,2.18-3.96,0-1.29-.1-3.96-2.05-3.96-2.11,0-2.25,2.41-2.25,3.93,0,1.42,0,4,2.11,4Z"/>
    </g>
    <g>
      <path class="cls-12" d="m428.01,497.72h13v2.22h-10.36v6.29h9.09v2.22h-9.09v9.06h-2.63v-19.79Z"/>
      <path class="cls-12" d="m455.38,517.51h-2.22v-2.27h-.05c-1,1.77-2.61,2.61-4.66,2.61-3.77,0-4.93-2.16-4.93-5.24v-9.42h2.36v9.7c0,1.75,1.11,2.88,2.91,2.88,2.85,0,4.24-1.91,4.24-4.49v-8.09h2.35v14.33Z"/>
      <path class="cls-12" d="m462.2,503.18h2.85v2.08h-2.85v8.9c0,1.08.3,1.27,1.77,1.27h1.08v2.08h-1.8c-2.44,0-3.41-.5-3.41-3.13v-9.12h-2.44v-2.08h2.44v-4.29h2.36v4.29Z"/>
      <path class="cls-12" d="m479.52,517.51h-2.22v-2.27h-.05c-1,1.77-2.61,2.61-4.66,2.61-3.77,0-4.93-2.16-4.93-5.24v-9.42h2.36v9.7c0,1.75,1.11,2.88,2.91,2.88,2.85,0,4.24-1.91,4.24-4.49v-8.09h2.35v14.33Z"/>
      <path class="cls-12" d="m482.98,503.18h2.22v3.02h.06c1.14-2.3,2.71-3.44,5.26-3.35v2.49c-3.8,0-5.18,2.16-5.18,5.79v6.37h-2.36v-14.33Z"/>
      <path class="cls-12" d="m504.01,512.96c-.64,3.16-2.91,4.88-6.12,4.88-4.57,0-6.73-3.16-6.87-7.54,0-4.29,2.83-7.46,6.73-7.46,5.07,0,6.62,4.74,6.48,8.2h-10.72c-.08,2.49,1.33,4.71,4.46,4.71,1.94,0,3.3-.94,3.71-2.8h2.33Zm-2.27-3.99c-.11-2.25-1.8-4.05-4.13-4.05-2.47,0-3.94,1.86-4.1,4.05h8.23Z"/>
      <path class="cls-12" d="m519.25,499.94h-6.59v-2.22h15.82v2.22h-6.59v17.57h-2.63v-17.57Z"/>
      <path class="cls-12" d="m539.42,512.96c-.64,3.16-2.91,4.88-6.12,4.88-4.57,0-6.73-3.16-6.87-7.54,0-4.29,2.83-7.46,6.73-7.46,5.07,0,6.62,4.74,6.48,8.2h-10.72c-.08,2.49,1.33,4.71,4.46,4.71,1.94,0,3.3-.94,3.71-2.8h2.33Zm-2.27-3.99c-.11-2.25-1.8-4.05-4.13-4.05-2.47,0-3.93,1.86-4.1,4.05h8.23Z"/>
      <path class="cls-12" d="m554.77,517.45c-.42.25-.94.39-1.69.39-1.22,0-2-.67-2-2.22-1.3,1.52-3.05,2.22-5.04,2.22-2.61,0-4.74-1.16-4.74-4.02,0-3.24,2.41-3.93,4.85-4.41,2.6-.5,4.82-.33,4.82-2.11,0-2.05-1.69-2.38-3.19-2.38-2,0-3.46.61-3.57,2.72h-2.36c.14-3.55,2.88-4.79,6.07-4.79,2.58,0,5.38.58,5.38,3.94v7.37c0,1.11,0,1.61.75,1.61.19,0,.42-.03.72-.14v1.83Zm-3.82-7.34c-.91.67-2.69.69-4.27.97-1.55.28-2.88.83-2.88,2.58,0,1.55,1.33,2.11,2.77,2.11,3.1,0,4.38-1.94,4.38-3.24v-2.41Z"/>
      <path class="cls-12" d="m556.96,503.18h2.22v2.11h.06c1.05-1.61,2.66-2.44,4.63-2.44,1.75,0,3.35.69,3.94,2.44.97-1.52,2.66-2.44,4.49-2.44,2.85,0,4.77,1.19,4.77,4.16v10.5h-2.36v-9.39c0-1.77-.47-3.19-2.77-3.19s-3.74,1.44-3.74,3.66v8.92h-2.36v-9.39c0-1.86-.58-3.19-2.69-3.19-2.8,0-3.82,2.58-3.82,3.66v8.92h-2.36v-14.33Z"/>
    </g>
  </g>
  <g>
    <g>
      <path class="cls-12" d="m383.17,457.2c-.17-5.29,2.84-9.35,8.39-9.35,4.23,0,7.93,2.71,7.93,7.24,0,3.47-1.85,5.38-4.13,7-2.28,1.62-4.99,2.94-6.67,5.32h10.93v4.03h-16.98c.03-5.35,3.3-7.63,7.3-10.34,2.05-1.39,4.82-2.81,4.86-5.65,0-2.18-1.45-3.57-3.47-3.57-2.77,0-3.67,2.87-3.67,5.32h-4.49Z"/>
      <path class="cls-12" d="m402.3,466.35h5.19v5.09h-5.19v-5.09Z"/>
      <path class="cls-12" d="m418.65,447.85c4.62,0,8.52,2.91,8.52,11.93s-3.9,12.12-8.52,12.12-8.46-2.91-8.46-12.12,3.9-11.93,8.46-11.93Zm0,20.19c3.83,0,3.83-5.65,3.83-8.26,0-2.41,0-8.06-3.83-8.06s-3.77,5.65-3.77,8.06c0,2.61,0,8.26,3.77,8.26Z"/>
      <path class="cls-12" d="m435.96,447.85c4.1,0,5.42,3.04,5.42,6.67s-1.72,6.21-5.58,6.21c-4.06,0-5.45-2.71-5.45-6.34s1.75-6.54,5.62-6.54Zm-.13,10.41c2.05,0,2.18-2.38,2.18-3.77,0-1.29-.1-4.16-2.05-4.16-2.11,0-2.25,2.61-2.25,4.13,0,1.42,0,3.8,2.11,3.8Zm14.11-10.67h2.81l-13.61,24.58h-2.87l13.68-24.58Zm3.07,11.43c4.1,0,5.42,2.88,5.42,6.51s-1.72,6.38-5.58,6.38c-4.06,0-5.45-2.88-5.45-6.51s1.75-6.38,5.62-6.38Zm-.13,10.41c2.05,0,2.18-2.58,2.18-3.96,0-1.29-.1-3.96-2.05-3.96-2.11,0-2.25,2.41-2.25,3.93,0,1.42,0,4,2.11,4Z"/>
    </g>
    <g>
      <path class="cls-12" d="m479.13,450.08h2.91l7.73,19.79h-2.91l-2.16-5.96h-8.37l-2.22,5.96h-2.72l7.73-19.79Zm-1.97,11.61h6.71l-3.3-9.23h-.05l-3.35,9.23Z"/>
      <path class="cls-12" d="m504.12,469.87h-2.36v-1.94h-.05c-.78,1.58-2.61,2.27-4.57,2.27-4.41,0-6.59-3.49-6.59-7.54s2.16-7.45,6.54-7.45c1.47,0,3.57.55,4.63,2.24h.05v-7.37h2.36v19.79Zm-6.65-1.75c3.16,0,4.38-2.72,4.38-5.4,0-2.83-1.27-5.43-4.52-5.43s-4.29,2.74-4.29,5.54,1.39,5.29,4.43,5.29Z"/>
      <path class="cls-12" d="m514.21,469.87h-2.52l-5.32-14.33h2.63l4.02,11.94h.06l3.91-11.94h2.47l-5.24,14.33Z"/>
      <path class="cls-12" d="m524.1,452.96h-2.36v-2.88h2.36v2.88Zm-2.36,2.58h2.36v14.33h-2.36v-14.33Z"/>
      <path class="cls-12" d="m529.19,465.35c.08,2.11,1.91,2.77,3.85,2.77,1.47,0,3.46-.33,3.46-2.13s-2.33-2.13-4.68-2.66c-2.33-.53-4.68-1.3-4.68-4.04,0-2.88,2.85-4.07,5.35-4.07,3.16,0,5.68,1,5.88,4.49h-2.36c-.17-1.83-1.77-2.41-3.33-2.41-1.41,0-3.05.39-3.05,1.83,0,1.69,2.49,1.97,4.68,2.49,2.36.53,4.68,1.3,4.68,4.07,0,3.41-3.19,4.52-6.1,4.52-3.21,0-5.93-1.3-6.07-4.85h2.35Z"/>
      <path class="cls-12" d="m547.79,455.21c4.54,0,6.96,3.3,6.96,7.51s-2.41,7.48-6.96,7.48-6.96-3.3-6.96-7.48,2.41-7.51,6.96-7.51Zm0,12.91c2.47,0,4.46-1.94,4.46-5.4s-2-5.43-4.46-5.43-4.46,1.94-4.46,5.43,2,5.4,4.46,5.4Z"/>
      <path class="cls-12" d="m557.43,455.54h2.22v3.02h.06c1.14-2.3,2.71-3.44,5.26-3.35v2.49c-3.8,0-5.18,2.16-5.18,5.79v6.37h-2.36v-14.33Z"/>
      <path class="cls-12" d="m568.18,465.35c.08,2.11,1.91,2.77,3.85,2.77,1.47,0,3.46-.33,3.46-2.13s-2.33-2.13-4.68-2.66c-2.33-.53-4.68-1.3-4.68-4.04,0-2.88,2.85-4.07,5.35-4.07,3.16,0,5.68,1,5.88,4.49h-2.36c-.17-1.83-1.77-2.41-3.33-2.41-1.41,0-3.05.39-3.05,1.83,0,1.69,2.49,1.97,4.68,2.49,2.36.53,4.68,1.3,4.68,4.07,0,3.41-3.19,4.52-6.1,4.52-3.21,0-5.93-1.3-6.07-4.85h2.35Z"/>
    </g>
  </g>
  <g>
    <g>
      <path class="cls-12" d="m392.28,410.45c2.19.18,5.35-.25,5.35-3.12,0-2.12-1.69-3.34-3.55-3.34-2.55,0-3.91,1.9-3.87,4.48h-4.84c.18-5.13,3.52-8.68,8.68-8.68,4.02,0,8.43,2.48,8.43,6.96,0,2.37-1.18,4.48-3.52,5.13v.07c2.76.61,4.45,2.91,4.45,5.7,0,5.27-4.41,8.25-9.33,8.25-5.63,0-9.43-3.37-9.33-9.15h4.84c.11,2.73,1.47,4.95,4.41,4.95,2.3,0,4.09-1.58,4.09-3.95,0-3.8-3.34-3.73-5.81-3.73v-3.59Z"/>
      <path class="cls-12" d="m406.2,419.88h5.63v5.53h-5.63v-5.53Z"/>
      <path class="cls-12" d="m415.35,409.95c-.18-5.74,3.08-10.15,9.11-10.15,4.59,0,8.61,2.94,8.61,7.86,0,3.77-2.01,5.85-4.48,7.61s-5.42,3.19-7.25,5.78h11.87v4.38h-18.44c.04-5.81,3.59-8.29,7.93-11.23,2.22-1.51,5.24-3.05,5.27-6.13,0-2.37-1.58-3.88-3.77-3.88-3.01,0-3.98,3.12-3.98,5.78h-4.88Z"/>
      <path class="cls-12" d="m442.76,399.8c4.45,0,5.88,3.3,5.88,7.25s-1.87,6.74-6.06,6.74c-4.41,0-5.92-2.94-5.92-6.89s1.9-7.1,6.1-7.1Zm-.14,11.3c2.22,0,2.37-2.58,2.37-4.09,0-1.4-.11-4.52-2.22-4.52-2.3,0-2.44,2.83-2.44,4.48,0,1.54,0,4.12,2.3,4.12Zm15.32-11.59h3.05l-14.78,26.69h-3.12l14.85-26.69Zm3.34,12.41c4.45,0,5.88,3.12,5.88,7.07s-1.87,6.92-6.06,6.92c-4.41,0-5.92-3.12-5.92-7.07s1.9-6.92,6.1-6.92Zm-.14,11.3c2.22,0,2.37-2.8,2.37-4.3,0-1.4-.11-4.3-2.22-4.3-2.3,0-2.44,2.62-2.44,4.27,0,1.54,0,4.34,2.3,4.34Z"/>
    </g>
    <g>
      <path class="cls-12" d="m479.9,403.18h7.18c1.75,0,4.05,0,5.24.72,1.3.78,2.33,2.19,2.33,4.13,0,2.11-1.11,3.69-2.94,4.43v.05c2.44.5,3.77,2.33,3.77,4.77,0,2.91-2.08,5.68-6.01,5.68h-9.56v-19.79Zm2.63,8.51h5.26c2.99,0,4.21-1.08,4.21-3.16,0-2.74-1.94-3.13-4.21-3.13h-5.26v6.29Zm0,9.06h6.59c2.27,0,3.71-1.39,3.71-3.55,0-2.58-2.08-3.3-4.29-3.3h-6.01v6.84Z"/>
      <path class="cls-12" d="m511.19,422.91c-.42.25-.94.39-1.69.39-1.22,0-2-.67-2-2.22-1.3,1.52-3.05,2.22-5.04,2.22-2.61,0-4.74-1.16-4.74-4.02,0-3.24,2.41-3.93,4.85-4.41,2.6-.5,4.82-.33,4.82-2.11,0-2.05-1.69-2.38-3.19-2.38-2,0-3.46.61-3.57,2.71h-2.36c.14-3.55,2.88-4.79,6.07-4.79,2.58,0,5.38.58,5.38,3.94v7.37c0,1.11,0,1.61.75,1.61.19,0,.42-.03.72-.14v1.83Zm-3.82-7.34c-.91.67-2.69.69-4.27.97-1.55.28-2.88.83-2.88,2.58,0,1.55,1.33,2.11,2.77,2.11,3.1,0,4.38-1.94,4.38-3.24v-2.41Z"/>
      <path class="cls-12" d="m523.1,413.24c-.36-1.8-1.61-2.85-3.55-2.85-3.41,0-4.46,2.69-4.46,5.6,0,2.63,1.19,5.24,4.18,5.24,2.27,0,3.63-1.33,3.93-3.49h2.41c-.53,3.49-2.72,5.57-6.32,5.57-4.38,0-6.71-3.05-6.71-7.32s2.22-7.68,6.76-7.68c3.24,0,5.85,1.52,6.18,4.93h-2.44Z"/>
      <path class="cls-12" d="m528.39,403.18h2.36v11.72l6.54-6.26h3.16l-5.68,5.21,6.1,9.12h-2.99l-4.9-7.48-2.22,2.05v5.43h-2.36v-19.79Z"/>
      <path class="cls-12" d="m554.85,418.42c-.64,3.16-2.91,4.88-6.12,4.88-4.57,0-6.73-3.16-6.87-7.54,0-4.29,2.83-7.45,6.73-7.45,5.07,0,6.62,4.74,6.48,8.2h-10.72c-.08,2.49,1.33,4.71,4.46,4.71,1.94,0,3.3-.94,3.71-2.8h2.33Zm-2.27-3.99c-.11-2.24-1.8-4.04-4.13-4.04-2.47,0-3.94,1.86-4.1,4.04h8.23Z"/>
      <path class="cls-12" d="m557.43,408.64h2.22v3.02h.06c1.14-2.3,2.71-3.44,5.26-3.35v2.49c-3.8,0-5.18,2.16-5.18,5.79v6.37h-2.36v-14.33Z"/>
      <path class="cls-12" d="m568.18,418.45c.08,2.11,1.91,2.77,3.85,2.77,1.47,0,3.46-.33,3.46-2.13s-2.33-2.13-4.68-2.66c-2.33-.53-4.68-1.3-4.68-4.04,0-2.88,2.85-4.07,5.35-4.07,3.16,0,5.68,1,5.88,4.49h-2.36c-.17-1.83-1.77-2.41-3.33-2.41-1.41,0-3.05.39-3.05,1.83,0,1.69,2.49,1.97,4.68,2.49,2.36.53,4.68,1.3,4.68,4.07,0,3.41-3.19,4.52-6.1,4.52-3.21,0-5.93-1.3-6.07-4.85h2.35Z"/>
    </g>
  </g>
  <g>
    <g>
      <path class="cls-12" d="m217,336.63c-.18-5.78,3.08-10.23,9.11-10.23,4.59,0,8.61,2.96,8.61,7.91,0,3.79-2.01,5.89-4.48,7.66s-5.42,3.22-7.25,5.82h11.87v4.41h-18.44c.04-5.85,3.59-8.35,7.93-11.31,2.22-1.52,5.24-3.07,5.27-6.18,0-2.38-1.58-3.9-3.77-3.9-3.01,0-3.98,3.14-3.98,5.82h-4.88Z"/>
      <path class="cls-12" d="m237.77,346.64h5.63v5.56h-5.63v-5.56Z"/>
      <path class="cls-12" d="m259.66,352.2h-5.09v-16.4h-6.31v-3.87c3.55.07,6.82-1.16,7.35-5.02h4.05v25.29Z"/>
      <path class="cls-12" d="m274.33,326.41c4.45,0,5.88,3.32,5.88,7.3s-1.87,6.79-6.06,6.79c-4.41,0-5.92-2.96-5.92-6.94s1.9-7.15,6.1-7.15Zm-.14,11.38c2.22,0,2.37-2.6,2.37-4.12,0-1.41-.11-4.55-2.22-4.55-2.3,0-2.44,2.85-2.44,4.52,0,1.55,0,4.16,2.3,4.16Zm15.32-11.67h3.05l-14.78,26.88h-3.12l14.85-26.88Zm3.34,12.5c4.45,0,5.88,3.14,5.88,7.12s-1.87,6.97-6.06,6.97c-4.41,0-5.92-3.14-5.92-7.12s1.9-6.97,6.1-6.97Zm-.14,11.38c2.22,0,2.37-2.82,2.37-4.34,0-1.41-.11-4.34-2.22-4.34-2.3,0-2.44,2.64-2.44,4.3,0,1.55,0,4.37,2.3,4.37Z"/>
    </g>
    <g>
      <path class="cls-12" d="m306.93,331.41h7.18c1.75,0,4.05,0,5.24.72,1.3.78,2.33,2.19,2.33,4.13,0,2.11-1.11,3.69-2.94,4.43v.05c2.44.5,3.77,2.33,3.77,4.77,0,2.91-2.08,5.68-6.01,5.68h-9.56v-19.79Zm2.63,8.51h5.26c2.99,0,4.21-1.08,4.21-3.16,0-2.74-1.94-3.13-4.21-3.13h-5.26v6.29Zm0,9.06h6.59c2.27,0,3.71-1.39,3.71-3.55,0-2.58-2.08-3.3-4.29-3.3h-6.01v6.84Z"/>
      <path class="cls-12" d="m337.38,351.19h-2.22v-2.27h-.06c-1,1.77-2.6,2.6-4.66,2.6-3.77,0-4.93-2.16-4.93-5.24v-9.42h2.36v9.7c0,1.75,1.11,2.88,2.91,2.88,2.85,0,4.24-1.91,4.24-4.49v-8.09h2.36v14.33Z"/>
      <path class="cls-12" d="m340.84,336.87h2.22v3.02h.06c1.14-2.3,2.71-3.44,5.26-3.35v2.49c-3.8,0-5.18,2.16-5.18,5.79v6.37h-2.36v-14.33Z"/>
      <path class="cls-12" d="m350.65,336.87h2.22v2.27h.06c1-1.77,2.6-2.61,4.66-2.61,3.77,0,4.93,2.16,4.93,5.24v9.42h-2.35v-9.7c0-1.75-1.11-2.88-2.91-2.88-2.85,0-4.24,1.91-4.24,4.49v8.09h-2.36v-14.33Z"/>
      <path class="cls-12" d="m378.28,346.65c-.64,3.16-2.91,4.88-6.12,4.88-4.57,0-6.73-3.16-6.87-7.54,0-4.29,2.83-7.45,6.73-7.45,5.07,0,6.62,4.74,6.48,8.2h-10.72c-.08,2.49,1.33,4.71,4.46,4.71,1.94,0,3.3-.94,3.71-2.8h2.33Zm-2.27-3.99c-.11-2.24-1.8-4.04-4.13-4.04-2.47,0-3.94,1.86-4.1,4.04h8.23Z"/>
      <path class="cls-12" d="m393.74,351.19h-2.36v-1.94h-.05c-.78,1.58-2.61,2.27-4.57,2.27-4.41,0-6.6-3.49-6.6-7.54s2.16-7.45,6.54-7.45c1.47,0,3.57.55,4.63,2.25h.05v-7.37h2.36v19.79Zm-6.65-1.75c3.16,0,4.38-2.72,4.38-5.4,0-2.83-1.28-5.43-4.52-5.43s-4.29,2.74-4.29,5.54,1.39,5.29,4.43,5.29Z"/>
      <path class="cls-12" d="m405.15,331.41h2.36v7.4h.06c.78-1.58,2.6-2.27,4.57-2.27,4.41,0,6.59,3.49,6.59,7.54s-2.16,7.45-6.54,7.45c-1.47,0-3.57-.55-4.63-2.24h-.06v1.91h-2.36v-19.79Zm6.65,7.21c-3.16,0-4.38,2.71-4.38,5.4,0,2.83,1.27,5.43,4.52,5.43s4.29-2.74,4.29-5.54-1.39-5.29-4.43-5.29Z"/>
      <path class="cls-12" d="m434.19,351.14c-.42.25-.94.39-1.69.39-1.22,0-2-.67-2-2.22-1.3,1.52-3.05,2.22-5.04,2.22-2.61,0-4.74-1.16-4.74-4.02,0-3.24,2.41-3.93,4.85-4.41,2.6-.5,4.82-.33,4.82-2.11,0-2.05-1.69-2.38-3.19-2.38-2,0-3.46.61-3.57,2.71h-2.36c.14-3.55,2.88-4.79,6.07-4.79,2.58,0,5.38.58,5.38,3.94v7.37c0,1.11,0,1.61.75,1.61.19,0,.42-.03.72-.14v1.83Zm-3.82-7.34c-.91.67-2.69.69-4.27.97-1.55.28-2.88.83-2.88,2.58,0,1.55,1.33,2.11,2.77,2.11,3.1,0,4.38-1.94,4.38-3.24v-2.41Z"/>
      <path class="cls-12" d="m446.1,341.47c-.36-1.8-1.61-2.85-3.55-2.85-3.41,0-4.46,2.69-4.46,5.6,0,2.63,1.19,5.24,4.18,5.24,2.27,0,3.63-1.33,3.93-3.49h2.41c-.53,3.49-2.72,5.57-6.32,5.57-4.38,0-6.71-3.05-6.71-7.32s2.22-7.68,6.76-7.68c3.24,0,5.85,1.52,6.18,4.93h-2.44Z"/>
      <path class="cls-12" d="m451.39,331.41h2.36v11.72l6.54-6.26h3.16l-5.68,5.21,6.1,9.12h-2.99l-4.9-7.48-2.22,2.05v5.43h-2.36v-19.79Z"/>
      <path class="cls-12" d="m477.85,346.65c-.64,3.16-2.91,4.88-6.12,4.88-4.57,0-6.73-3.16-6.87-7.54,0-4.29,2.83-7.45,6.73-7.45,5.07,0,6.62,4.74,6.48,8.2h-10.72c-.08,2.49,1.33,4.71,4.46,4.71,1.94,0,3.3-.94,3.71-2.8h2.33Zm-2.27-3.99c-.11-2.24-1.8-4.04-4.13-4.04-2.47,0-3.93,1.86-4.1,4.04h8.23Z"/>
      <path class="cls-12" d="m480.43,336.87h2.22v3.02h.06c1.14-2.3,2.71-3.44,5.26-3.35v2.49c-3.8,0-5.18,2.16-5.18,5.79v6.37h-2.36v-14.33Z"/>
      <path class="cls-12" d="m500.71,336.87h2.85v2.08h-2.85v8.89c0,1.08.3,1.28,1.77,1.28h1.08v2.08h-1.8c-2.44,0-3.41-.5-3.41-3.13v-9.12h-2.44v-2.08h2.44v-4.29h2.36v4.29Z"/>
      <path class="cls-12" d="m512.35,336.53c4.54,0,6.96,3.3,6.96,7.51s-2.41,7.48-6.96,7.48-6.96-3.3-6.96-7.48,2.41-7.51,6.96-7.51Zm0,12.91c2.47,0,4.46-1.94,4.46-5.4s-2-5.43-4.46-5.43-4.46,1.94-4.46,5.43,2,5.4,4.46,5.4Z"/>
      <path class="cls-12" d="m522.21,331.41h2.36v11.72l6.54-6.26h3.16l-5.68,5.21,6.1,9.12h-2.99l-4.9-7.48-2.22,2.05v5.43h-2.36v-19.79Z"/>
      <path class="cls-12" d="m548.67,346.65c-.64,3.16-2.91,4.88-6.12,4.88-4.57,0-6.73-3.16-6.87-7.54,0-4.29,2.83-7.45,6.73-7.45,5.07,0,6.62,4.74,6.48,8.2h-10.72c-.08,2.49,1.33,4.71,4.46,4.71,1.94,0,3.3-.94,3.71-2.8h2.33Zm-2.27-3.99c-.11-2.24-1.8-4.04-4.13-4.04-2.47,0-3.93,1.86-4.1,4.04h8.23Z"/>
      <path class="cls-12" d="m551.33,336.87h2.22v2.27h.06c1-1.77,2.6-2.61,4.66-2.61,3.77,0,4.93,2.16,4.93,5.24v9.42h-2.35v-9.7c0-1.75-1.11-2.88-2.91-2.88-2.85,0-4.24,1.91-4.24,4.49v8.09h-2.36v-14.33Z"/>
      <path class="cls-12" d="m568.18,346.68c.08,2.11,1.91,2.77,3.85,2.77,1.47,0,3.46-.33,3.46-2.13s-2.33-2.13-4.68-2.66c-2.33-.53-4.68-1.3-4.68-4.04,0-2.88,2.85-4.07,5.35-4.07,3.16,0,5.68,1,5.88,4.49h-2.36c-.17-1.83-1.77-2.41-3.33-2.41-1.41,0-3.05.39-3.05,1.83,0,1.69,2.49,1.97,4.68,2.49,2.36.53,4.68,1.3,4.68,4.07,0,3.41-3.19,4.52-6.1,4.52-3.21,0-5.93-1.3-6.07-4.85h2.35Z"/>
    </g>
  </g>
  <g>
    <g>
      <path class="cls-12" d="m309.02,574.45h-4.69v-15h-5.81v-3.54c3.27.07,6.28-1.06,6.77-4.59h3.73v23.12Z"/>
      <path class="cls-12" d="m316.42,569.36h5.19v5.09h-5.19v-5.09Z"/>
      <path class="cls-12" d="m340.14,555.19h-9.55l-.93,5.25.07.07c1.26-1.29,2.71-1.78,4.53-1.78,4.56,0,7.14,3.53,7.14,7.86,0,4.76-3.93,8.42-8.59,8.33-4.49,0-8.52-2.48-8.59-7.33h4.69c.23,2.05,1.75,3.47,3.8,3.47,2.45,0,4-2.15,4-4.46s-1.49-4.33-4-4.33c-1.69,0-2.61.6-3.54,1.85h-4.23l2.28-12.79h12.92v3.87Z"/>
      <path class="cls-12" d="m350.08,550.86c4.1,0,5.42,3.04,5.42,6.67s-1.72,6.21-5.58,6.21c-4.06,0-5.45-2.71-5.45-6.34s1.75-6.54,5.62-6.54Zm-.13,10.41c2.05,0,2.18-2.38,2.18-3.77,0-1.29-.1-4.16-2.05-4.16-2.12,0-2.25,2.61-2.25,4.13,0,1.42,0,3.8,2.11,3.8Zm14.11-10.67h2.81l-13.61,24.58h-2.87l13.68-24.58Zm3.07,11.43c4.1,0,5.42,2.88,5.42,6.51s-1.72,6.38-5.58,6.38c-4.06,0-5.45-2.88-5.45-6.51s1.75-6.38,5.62-6.38Zm-.13,10.41c2.05,0,2.18-2.58,2.18-3.96,0-1.29-.1-3.96-2.05-3.96-2.11,0-2.25,2.41-2.25,3.93,0,1.42,0,4,2.12,4Z"/>
    </g>
    <g>
      <path class="cls-12" d="m376.2,553.48h9.31c3.71,0,6.01,2.02,6.01,5.18,0,2.38-1.05,4.35-3.44,5.02v.06c2.3.44,2.77,2.13,2.96,4.07.17,1.94.06,4.1,1.16,5.46h-2.94c-.75-.8-.33-2.94-.72-4.88-.28-1.94-.75-3.57-3.3-3.57h-6.43v8.45h-2.63v-19.79Zm8.12,9.12c2.47,0,4.57-.64,4.57-3.52,0-1.94-1.05-3.38-3.52-3.38h-6.54v6.9h5.49Z"/>
      <path class="cls-12" d="m407.01,568.72c-.64,3.16-2.91,4.88-6.12,4.88-4.57,0-6.73-3.16-6.87-7.54,0-4.29,2.83-7.45,6.73-7.45,5.07,0,6.62,4.74,6.48,8.2h-10.72c-.08,2.49,1.33,4.71,4.46,4.71,1.94,0,3.3-.94,3.71-2.8h2.33Zm-2.27-3.99c-.11-2.24-1.8-4.04-4.13-4.04-2.47,0-3.93,1.86-4.1,4.04h8.23Z"/>
      <path class="cls-12" d="m411.11,568.74c.08,2.11,1.91,2.77,3.85,2.77,1.47,0,3.46-.33,3.46-2.13s-2.33-2.13-4.68-2.66c-2.33-.53-4.68-1.3-4.68-4.05,0-2.88,2.85-4.07,5.35-4.07,3.16,0,5.68,1,5.88,4.49h-2.36c-.17-1.83-1.77-2.41-3.33-2.41-1.41,0-3.05.39-3.05,1.83,0,1.69,2.49,1.97,4.68,2.49,2.36.53,4.68,1.3,4.68,4.07,0,3.41-3.19,4.52-6.1,4.52-3.21,0-5.93-1.3-6.07-4.85h2.36Z"/>
      <path class="cls-12" d="m426.79,558.93h2.85v2.08h-2.85v8.9c0,1.08.3,1.27,1.77,1.27h1.08v2.08h-1.8c-2.44,0-3.41-.5-3.41-3.13v-9.12h-2.44v-2.08h2.44v-4.29h2.36v4.29Z"/>
      <path class="cls-12" d="m446.13,558.6c4.54,0,6.96,3.3,6.96,7.51s-2.41,7.48-6.96,7.48-6.96-3.3-6.96-7.48,2.41-7.51,6.96-7.51Zm0,12.91c2.47,0,4.46-1.94,4.46-5.4s-2-5.43-4.46-5.43-4.46,1.94-4.46,5.43,2,5.4,4.46,5.4Z"/>
      <path class="cls-12" d="m456.82,561.01h-2.41v-2.08h2.41v-2.13c0-2.33,1.39-3.55,3.96-3.55.44,0,1.08.08,1.52.22v2.05c-.42-.14-.91-.19-1.33-.19-1.14,0-1.8.36-1.8,1.61v2h2.77v2.08h-2.77v12.25h-2.36v-12.25Z"/>
      <path class="cls-12" d="m475.03,558.93h2.85v2.08h-2.85v8.9c0,1.08.3,1.27,1.77,1.27h1.08v2.08h-1.8c-2.44,0-3.41-.5-3.41-3.13v-9.12h-2.44v-2.08h2.44v-4.29h2.36v4.29Z"/>
      <path class="cls-12" d="m480.49,553.48h2.36v7.57h.06c.78-1.72,2.8-2.44,4.52-2.44,3.77,0,4.93,2.16,4.93,5.24v9.42h-2.35v-9.7c0-1.75-1.11-2.88-2.91-2.88-2.85,0-4.24,1.91-4.24,4.49v8.09h-2.36v-19.79Z"/>
      <path class="cls-12" d="m508.11,568.72c-.64,3.16-2.91,4.88-6.12,4.88-4.57,0-6.73-3.16-6.87-7.54,0-4.29,2.83-7.45,6.73-7.45,5.07,0,6.62,4.74,6.48,8.2h-10.72c-.08,2.49,1.33,4.71,4.46,4.71,1.94,0,3.3-.94,3.71-2.8h2.33Zm-2.27-3.99c-.11-2.24-1.8-4.04-4.13-4.04-2.47,0-3.94,1.86-4.1,4.04h8.23Z"/>
      <path class="cls-12" d="m521.74,558.93h2.85v2.08h-2.85v8.9c0,1.08.3,1.27,1.77,1.27h1.08v2.08h-1.8c-2.44,0-3.41-.5-3.41-3.13v-9.12h-2.44v-2.08h2.44v-4.29h2.36v4.29Z"/>
      <path class="cls-12" d="m539.42,568.72c-.64,3.16-2.91,4.88-6.12,4.88-4.57,0-6.73-3.16-6.87-7.54,0-4.29,2.83-7.45,6.73-7.45,5.07,0,6.62,4.74,6.48,8.2h-10.72c-.08,2.49,1.33,4.71,4.46,4.71,1.94,0,3.3-.94,3.71-2.8h2.33Zm-2.27-3.99c-.11-2.24-1.8-4.04-4.13-4.04-2.47,0-3.94,1.86-4.1,4.04h8.23Z"/>
      <path class="cls-12" d="m554.77,573.2c-.42.25-.94.39-1.69.39-1.22,0-2-.66-2-2.22-1.3,1.52-3.05,2.22-5.04,2.22-2.61,0-4.74-1.16-4.74-4.02,0-3.24,2.41-3.93,4.85-4.41,2.6-.5,4.82-.33,4.82-2.11,0-2.05-1.69-2.38-3.19-2.38-2,0-3.46.61-3.57,2.71h-2.36c.14-3.55,2.88-4.79,6.07-4.79,2.58,0,5.38.58,5.38,3.93v7.37c0,1.11,0,1.61.75,1.61.19,0,.42-.03.72-.14v1.83Zm-3.82-7.34c-.91.67-2.69.69-4.27.97-1.55.28-2.88.83-2.88,2.58,0,1.55,1.33,2.11,2.77,2.11,3.1,0,4.38-1.94,4.38-3.24v-2.41Z"/>
      <path class="cls-12" d="m556.96,558.93h2.22v2.11h.06c1.05-1.61,2.66-2.44,4.63-2.44,1.75,0,3.35.69,3.94,2.44.97-1.52,2.66-2.44,4.49-2.44,2.85,0,4.77,1.19,4.77,4.16v10.5h-2.36v-9.39c0-1.77-.47-3.19-2.77-3.19s-3.74,1.44-3.74,3.66v8.92h-2.36v-9.39c0-1.86-.58-3.19-2.69-3.19-2.8,0-3.82,2.58-3.82,3.66v8.92h-2.36v-14.33Z"/>
    </g>
  </g>
  <g>
    <g>
      <path class="cls-12" d="m337.59,616.46c-6.11,5.32-9.44,16.25-9.52,24.02h-6.32c.67-8.6,4.24-16.96,9.77-23.61h-13.8v-5.49h19.87v5.07Z"/>
      <path class="cls-12" d="m349.39,610.81c5.15,0,6.82,3.82,6.82,8.4s-2.16,7.81-7.02,7.81c-5.11,0-6.86-3.41-6.86-7.98s2.2-8.23,7.07-8.23Zm-.17,13.09c2.58,0,2.74-2.99,2.74-4.74,0-1.62-.12-5.24-2.58-5.24-2.66,0-2.83,3.28-2.83,5.2,0,1.79,0,4.78,2.66,4.78Zm17.75-13.43h3.53l-17.12,30.92h-3.62l17.21-30.92Zm3.87,14.38c5.15,0,6.82,3.62,6.82,8.19s-2.16,8.02-7.02,8.02c-5.11,0-6.86-3.62-6.86-8.19s2.2-8.02,7.07-8.02Zm-.17,13.09c2.58,0,2.74-3.24,2.74-4.99,0-1.62-.12-4.99-2.58-4.99-2.66,0-2.83,3.03-2.83,4.95,0,1.79,0,5.03,2.66,5.03Z"/>
    </g>
    <g>
      <path class="cls-12" d="m390.55,616.52h13v2.22h-10.36v6.29h9.09v2.22h-9.09v9.06h-2.63v-19.79Z"/>
      <path class="cls-12" d="m412.24,621.64c4.54,0,6.96,3.3,6.96,7.51s-2.41,7.48-6.96,7.48-6.96-3.3-6.96-7.48,2.41-7.51,6.96-7.51Zm0,12.91c2.47,0,4.46-1.94,4.46-5.4s-2-5.43-4.46-5.43-4.46,1.94-4.46,5.43,2,5.4,4.46,5.4Z"/>
      <path class="cls-12" d="m433.83,636.3h-2.22v-2.27h-.06c-1,1.77-2.6,2.6-4.66,2.6-3.77,0-4.93-2.16-4.93-5.24v-9.42h2.36v9.7c0,1.75,1.11,2.88,2.91,2.88,2.85,0,4.24-1.91,4.24-4.49v-8.09h2.36v14.33Z"/>
      <path class="cls-12" d="m437.37,621.97h2.22v2.27h.06c1-1.77,2.6-2.61,4.66-2.61,3.77,0,4.93,2.16,4.93,5.24v9.42h-2.35v-9.7c0-1.75-1.11-2.88-2.91-2.88-2.85,0-4.24,1.91-4.24,4.49v8.09h-2.36v-14.33Z"/>
      <path class="cls-12" d="m465.58,636.3h-2.36v-1.94h-.05c-.78,1.58-2.61,2.27-4.57,2.27-4.41,0-6.6-3.49-6.6-7.54s2.16-7.45,6.54-7.45c1.47,0,3.57.55,4.63,2.24h.05v-7.37h2.36v19.79Zm-6.65-1.75c3.16,0,4.38-2.71,4.38-5.4,0-2.83-1.28-5.43-4.52-5.43s-4.29,2.74-4.29,5.54,1.39,5.29,4.43,5.29Z"/>
      <path class="cls-12" d="m471.7,619.4h-2.36v-2.88h2.36v2.88Zm-2.36,2.58h2.36v14.33h-2.36v-14.33Z"/>
      <path class="cls-12" d="m475.36,621.97h2.22v2.27h.06c1-1.77,2.6-2.61,4.66-2.61,3.77,0,4.93,2.16,4.93,5.24v9.42h-2.35v-9.7c0-1.75-1.11-2.88-2.91-2.88-2.85,0-4.24,1.91-4.24,4.49v8.09h-2.36v-14.33Z"/>
      <path class="cls-12" d="m503.12,635.08c0,4.65-2.13,7.04-6.65,7.04-2.69,0-5.79-1.08-5.93-4.21h2.36c.11,1.72,2.16,2.33,3.71,2.33,3.08,0,4.29-2.22,4.29-5.43v-.94h-.05c-.78,1.75-2.66,2.6-4.46,2.6-4.27,0-6.4-3.35-6.4-7.26,0-3.38,1.66-7.56,6.62-7.56,1.8,0,3.41.8,4.27,2.38h.03v-2.05h2.22v13.11Zm-2.33-6.23c0-2.52-1.11-5.13-4.07-5.13s-4.24,2.47-4.24,5.21c0,2.58.94,5.46,4.05,5.46s4.27-2.85,4.27-5.54Z"/>
      <path class="cls-12" d="m519.25,618.73h-6.59v-2.22h15.82v2.22h-6.59v17.57h-2.63v-17.57Z"/>
      <path class="cls-12" d="m539.42,631.76c-.64,3.16-2.91,4.88-6.12,4.88-4.57,0-6.73-3.16-6.87-7.54,0-4.29,2.83-7.45,6.73-7.45,5.07,0,6.62,4.74,6.48,8.2h-10.72c-.08,2.49,1.33,4.71,4.46,4.71,1.94,0,3.3-.94,3.71-2.8h2.33Zm-2.27-3.99c-.11-2.24-1.8-4.04-4.13-4.04-2.47,0-3.93,1.86-4.1,4.04h8.23Z"/>
      <path class="cls-12" d="m554.77,636.25c-.42.25-.94.39-1.69.39-1.22,0-2-.66-2-2.22-1.3,1.53-3.05,2.22-5.04,2.22-2.61,0-4.74-1.16-4.74-4.02,0-3.24,2.41-3.93,4.85-4.41,2.6-.5,4.82-.33,4.82-2.11,0-2.05-1.69-2.38-3.19-2.38-2,0-3.46.61-3.57,2.71h-2.36c.14-3.55,2.88-4.79,6.07-4.79,2.58,0,5.38.58,5.38,3.94v7.37c0,1.11,0,1.61.75,1.61.19,0,.42-.03.72-.14v1.83Zm-3.82-7.34c-.91.67-2.69.69-4.27.97-1.55.28-2.88.83-2.88,2.58,0,1.55,1.33,2.11,2.77,2.11,3.1,0,4.38-1.94,4.38-3.24v-2.41Z"/>
      <path class="cls-12" d="m556.96,621.97h2.22v2.11h.06c1.05-1.61,2.66-2.44,4.63-2.44,1.75,0,3.35.69,3.94,2.44.97-1.53,2.66-2.44,4.49-2.44,2.85,0,4.77,1.19,4.77,4.16v10.5h-2.36v-9.39c0-1.77-.47-3.19-2.77-3.19s-3.74,1.44-3.74,3.66v8.92h-2.36v-9.39c0-1.86-.58-3.19-2.69-3.19-2.8,0-3.82,2.58-3.82,3.66v8.92h-2.36v-14.33Z"/>
    </g>
  </g>
  <g>
    <g>
      <path class="cls-8" d="m1068.04,424.8l-243.68-79.18c34.98-107.66,130.47-177.04,243.68-177.04v256.22Z"/>
      <path class="cls-6" d="m1068.04,424.8l-252.33-44.49c2.06-11.71,4.97-23.38,8.65-34.68l243.68,79.18Z"/>
      <path class="cls-7" d="m1068.04,424.8l-256.06,8.94c-.63-18.1.59-35.6,3.74-53.43l252.33,44.49Z"/>
      <path class="cls-9" d="m1068.04,424.8l-253.06,40.08c-1.77-11.18-2.6-19.83-3-31.14l256.06-8.94Z"/>
      <path class="cls-10" d="m1068.04,424.8l-240.77,87.63c-5.81-15.96-9.64-30.78-12.3-47.55l253.06-40.08Z"/>
      <path class="cls-11" d="m1068.04,424.8l-232.21,108.28c-3.59-7.69-5.65-12.67-8.55-20.65l240.77-87.63Z"/>
      <path class="cls-5" d="m1068.04,424.8l-164.69,196.27c-30.35-25.47-50.77-52.08-67.52-87.99l232.21-108.28Z"/>
      <path class="cls-4" d="m1068.04,424.8l31.23,254.31c-72.47,8.9-139.99-11.1-195.92-58.03l164.69-196.27Z"/>
      <path class="cls-8" d="m1068.04,424.8l174.74,187.39c-41.4,38.6-87.34,60.02-143.52,66.92l-31.23-254.31Z"/>
      <path class="cls-6" d="m1068.04,424.8l250.62,53.27c-11.53,54.26-35.31,96.29-75.88,134.12l-174.74-187.39Z"/>
      <path class="cls-9" d="m1068.04,424.8l255.87-13.41c1.27,24.31-.19,42.87-5.25,66.68l-250.62-53.27Z"/>
      <path class="cls-1" d="m1068.04,424.8V168.58c136.98,0,248.7,106.02,255.87,242.81l-255.87,13.41Z"/>
    </g>
    <circle class="cls-12" cx="1067.88" cy="426.25" r="96.68"/>
  </g>
</svg>