<?xml version="1.0" encoding="UTF-8"?>
<svg id="Layer_2" data-name="Layer 2" xmlns="http://www.w3.org/2000/svg" viewBox="0 0 1854.55 694.17">
  <defs>
    <style>
      .cls-1 {
        stroke-width: 4.17px;
      }

      .cls-1, .cls-2, .cls-3, .cls-4, .cls-5, .cls-6, .cls-7, .cls-8, .cls-9, .cls-10, .cls-11 {
        stroke: #fff;
        stroke-miterlimit: 10;
      }

      .cls-1, .cls-4 {
        fill: #e7125e;
      }

      .cls-12, .cls-11 {
        fill: #fff;
      }

      .cls-2 {
        fill: #fad2dd;
      }

      .cls-2, .cls-4, .cls-5, .cls-6, .cls-7, .cls-8, .cls-9, .cls-10 {
        stroke-width: 2.99px;
      }

      .cls-3 {
        fill: none;
        stroke-width: 1.84px;
      }

      .cls-5 {
        fill: #7e0a3b;
      }

      .cls-6 {
        fill: #eb4a76;
      }

      .cls-7 {
        fill: #f5a4b8;
      }

      .cls-8 {
        fill: #f07795;
      }

      .cls-9 {
        fill: #57072f;
      }

      .cls-10 {
        fill: #9e0c47;
      }
    </style>
  </defs>
  <g id="Layer_1-2" data-name="Layer 1">
    <g id="Layer_1-2" data-name="Layer 1-2">
      <g>
        <g>
          <polyline class="cls-3" points="990.67 584.2 1096.14 681.91 1338.16 681.91"/>
          <path class="cls-11" d="m1337.81,688.81c3.81,0,6.9-3.09,6.9-6.9s-3.09-6.9-6.9-6.9-6.9,3.09-6.9,6.9,3.09,6.9,6.9,6.9Z"/>
        </g>
        <g>
          <polyline class="cls-3" points="810.49 627.85 671.13 681.91 417.92 681.91"/>
          <path class="cls-11" d="m418.26,675.01c-3.81,0-6.9,3.09-6.9,6.9s3.09,6.9,6.9,6.9,6.9-3.09,6.9-6.9-3.09-6.9-6.9-6.9Z"/>
        </g>
        <g>
          <polyline class="cls-3" points="738.13 548.98 598.77 603.04 417.91 603.04"/>
          <circle class="cls-11" cx="418.26" cy="603.04" r="6.9"/>
        </g>
        <g>
          <polyline class="cls-3" points="708.24 474.54 592.24 540.28 417.91 541.89"/>
          <path class="cls-11" d="m418.2,534.99c-3.81.04-6.87,3.15-6.84,6.96.04,3.81,3.15,6.87,6.96,6.84,3.81-.04,6.87-3.15,6.84-6.96-.04-3.81-3.15-6.87-6.96-6.84Z"/>
        </g>
        <g>
          <polyline class="cls-3" points="714.19 447.62 598.77 483.64 417.91 483.64"/>
          <path class="cls-11" d="m418.26,476.74c-3.81,0-6.9,3.09-6.9,6.9s3.09,6.9,6.9,6.9,6.9-3.09,6.9-6.9-3.09-6.9-6.9-6.9Z"/>
        </g>
        <g>
          <polyline class="cls-3" points="658.91 426.62 598.77 443.65 417.91 443.65"/>
          <circle class="cls-11" cx="418.26" cy="443.65" r="6.9"/>
        </g>
        <g>
          <polyline class="cls-3" points="734.24 393.5 598.77 393.5 417.91 393.5"/>
          <path class="cls-11" d="m418.26,386.6c-3.81,0-6.9,3.09-6.9,6.9s3.09,6.9,6.9,6.9,6.9-3.09,6.9-6.9-3.09-6.9-6.9-6.9Z"/>
        </g>
        <g>
          <path class="cls-12" d="m1382.56,157.85c-.21-6.65,3.57-11.76,10.56-11.76,5.32,0,9.98,3.41,9.98,9.1,0,4.37-2.33,6.78-5.2,8.81-2.87,2.04-6.28,3.7-8.4,6.69h13.76v5.07h-21.36c.04-6.73,4.16-9.6,9.19-13.01,2.58-1.75,6.07-3.53,6.11-7.11,0-2.74-1.83-4.49-4.36-4.49-3.49,0-4.61,3.62-4.61,6.69h-5.67Z"/>
          <path class="cls-12" d="m1422.72,164.18v-17.5h-5.28l-12.64,16.96v5.4h12.31v6.73h5.61v-6.73h3.87v-4.86h-3.87Zm-5.61,0h-7.65l7.52-10.1h.13v10.1Z"/>
          <path class="cls-12" d="m1429.74,169.37h6.53v6.4h-6.53v-6.4Z"/>
          <path class="cls-12" d="m1440.33,157.85c-.21-6.65,3.57-11.76,10.56-11.76,5.32,0,9.98,3.41,9.98,9.1,0,4.37-2.33,6.78-5.2,8.81-2.87,2.04-6.28,3.7-8.4,6.69h13.76v5.07h-21.36c.04-6.73,4.16-9.6,9.19-13.01,2.58-1.75,6.07-3.53,6.11-7.11,0-2.74-1.83-4.49-4.36-4.49-3.49,0-4.61,3.62-4.61,6.69h-5.67Z"/>
          <path class="cls-12" d="m1493.55,160.14c-4.87,0-7.07,3.45-7.07,8.02s1.75,8.19,6.86,8.19,7.02-3.45,7.02-8.02-1.67-8.19-6.81-8.19Zm-.18,13.09h0c-2.66,0-2.66-3.24-2.66-5.03,0-1.92.17-4.95,2.83-4.95,2.46,0,2.58,3.37,2.58,4.99,0,1.75-.16,4.99-2.74,4.99Zm-3.7-27.47l-17.21,30.92h3.62l17.12-30.92h-3.53Zm-17.57.33c-4.87,0-7.07,3.66-7.07,8.23s1.75,7.98,6.86,7.98,7.02-3.23,7.02-7.81-1.67-8.39-6.81-8.4Zm-.18,13.09h-.01c-2.66,0-2.66-2.99-2.66-4.78,0-1.92.17-5.2,2.83-5.2,2.46,0,2.58,3.62,2.58,5.24,0,1.75-.16,4.74-2.74,4.74Z"/>
        </g>
        <g>
          <path class="cls-12" d="m1395.12,689.25h-5.9v-18.87h-7.32v-4.45c4.11.08,7.9-1.33,8.52-5.78h4.7v29.1h0Z"/>
          <path class="cls-12" d="m1413.45,659.57c-5.74,0-10.64,3.41-10.64,15s4.82,15.25,10.64,15.25,10.72-3.91,10.72-15.25-4.9-15-10.72-15Zm0,25.4c-4.74,0-4.74-7.11-4.74-10.39,0-3.03-.08-10.14,4.74-10.14s4.82,7.11,4.82,10.14c0,3.28,0,10.39-4.82,10.39Z"/>
          <path class="cls-12" d="m1456.68,673.61c-4.87,0-7.07,3.45-7.07,8.02s1.75,8.19,6.86,8.19,7.02-3.45,7.02-8.02-1.67-8.19-6.81-8.19Zm-.18,13.09h-.01c-2.66,0-2.66-3.24-2.66-5.03,0-1.92.17-4.95,2.83-4.95,2.46,0,2.58,3.37,2.58,4.99,0,1.75-.16,4.99-2.74,4.99Zm-3.7-27.47l-17.21,30.92h3.62l17.12-30.92h-3.53Zm-17.57.34c-4.87,0-7.07,3.66-7.07,8.23s1.75,7.98,6.86,7.98,7.02-3.23,7.02-7.81-1.67-8.39-6.81-8.4Zm-.18,13.09h0c-2.66,0-2.66-2.99-2.66-4.78,0-1.92.17-5.2,2.83-5.2,2.46,0,2.58,3.62,2.58,5.24,0,1.75-.16,4.74-2.74,4.74Z"/>
        </g>
        <g>
          <path class="cls-12" d="m1494.16,668.56h13v2.22h-10.36v6.29h9.09v2.22h-9.09v9.06h-2.63v-19.79h-.01Z"/>
          <path class="cls-12" d="m1509.82,668.56h2.36v19.79h-2.36v-19.79Z"/>
          <path class="cls-12" d="m1527.8,686.6c-.75,0-.75-.5-.75-1.61v-7.37c0-3.35-2.8-3.93-5.38-3.93-3.19,0-5.93,1.24-6.07,4.79h2.36c.11-2.11,1.57-2.72,3.57-2.72,1.5,0,3.19.33,3.19,2.38,0,1.78-2.22,1.61-4.82,2.11-2.44.48-4.85,1.17-4.85,4.41,0,2.86,2.13,4.02,4.74,4.02,1.99,0,3.74-.7,5.04-2.22,0,1.55.78,2.22,2,2.22.75,0,1.27-.14,1.69-.39v-1.83c-.3.11-.53.14-.72.14Zm-3.1-3.23c0,1.3-1.28,3.24-4.38,3.24-1.44,0-2.77-.56-2.77-2.11,0-1.75,1.33-2.3,2.88-2.58,1.58-.28,3.36-.3,4.27-.97v2.42Z"/>
          <path class="cls-12" d="m1530.62,674.02h2.22v3.02h.06c1.14-2.3,2.71-3.44,5.26-3.35v2.49c-3.8,0-5.18,2.16-5.18,5.79v6.37h-2.36v-14.33h0Z"/>
          <path class="cls-12" d="m1545.4,673.69c-3.9,0-6.73,3.15-6.73,7.45.14,4.38,2.3,7.54,6.87,7.54,3.21,0,5.48-1.72,6.12-4.88h-2.33c-.41,1.86-1.77,2.8-3.71,2.8-3.13,0-4.54-2.22-4.46-4.71h10.72c.14-3.46-1.41-8.2-6.48-8.2Zm-4.24,6.12c.16-2.19,1.63-4.05,4.1-4.05,2.33,0,4.02,1.8,4.13,4.05h-8.23Z"/>
          <path class="cls-12" d="m1570.19,688.35h-2.99l-6.98-19.79h2.85l5.65,17.15h.06l5.71-17.15h2.74l-7.04,19.79Z"/>
          <path class="cls-12" d="m1593.24,674.52c-.55-2.8-2.8-4.21-5.54-4.21-4.71,0-6.71,3.88-6.71,8.01,0,4.52,2,8.29,6.73,8.29,3.46,0,5.46-2.44,5.71-5.71h2.63c-.5,4.93-3.58,7.92-8.56,7.92-6.15,0-9.14-4.54-9.14-10.31s3.27-10.42,9.37-10.42c4.13,0,7.54,2.22,8.15,6.43h-2.64Z"/>
          <path class="cls-12" d="m1607.04,668.56h13v2.22h-10.36v6.29h9.09v2.22h-9.09v9.06h-2.63v-19.79h-.01Z"/>
          <path class="cls-12" d="m1634.42,688.35h-2.22v-2.27h-.06c-1,1.77-2.6,2.61-4.66,2.61-3.77,0-4.93-2.16-4.93-5.24v-9.42h2.36v9.7c0,1.75,1.11,2.88,2.91,2.88,2.85,0,4.24-1.91,4.24-4.49v-8.09h2.36v14.33h0Z"/>
          <path class="cls-12" d="m1637.95,674.02h2.22v2.27h.06c1-1.77,2.6-2.6,4.66-2.6,3.77,0,4.93,2.16,4.93,5.24v9.42h-2.35v-9.7c0-1.75-1.11-2.88-2.91-2.88-2.85,0-4.24,1.91-4.24,4.49v8.09h-2.36v-14.33h-.01Z"/>
          <path class="cls-12" d="m1663.81,668.56v7.37h-.05c-1.06-1.69-3.16-2.24-4.63-2.24-4.38,0-6.54,3.4-6.54,7.45s2.19,7.54,6.6,7.54c1.96,0,3.79-.69,4.57-2.27h.05v1.94h2.36v-19.79h-2.36Zm-4.29,18.04c-3.04,0-4.43-2.49-4.43-5.29s1.05-5.54,4.29-5.54,4.52,2.6,4.52,5.43-1.22,5.4-4.38,5.4Z"/>
          <path class="cls-12" d="m1681.37,693.83c-2.66-4.16-4.35-8.12-4.35-12.97,0-4.32,1.52-9.01,4.35-12.77h1.8c-2.63,4.16-3.66,8.29-3.66,12.77s1.03,8.73,3.66,12.97h-1.8Z"/>
          <path class="cls-12" d="m1685.04,668.56h2.8l10.42,16.04h.06v-16.04h2.49v19.79h-2.88l-10.34-15.88h-.05v15.88h-2.49v-19.79h-.01Z"/>
          <path class="cls-12" d="m1710.86,673.69c-4.55,0-6.96,3.33-6.96,7.51s2.41,7.48,6.96,7.48,6.96-3.27,6.96-7.48-2.42-7.51-6.96-7.51Zm0,12.91c-2.46,0-4.46-1.91-4.46-5.4s2-5.43,4.46-5.43,4.46,1.97,4.46,5.43-1.99,5.4-4.46,5.4Z"/>
          <path class="cls-12" d="m1720.58,674.02h2.22v2.27h.06c1-1.77,2.6-2.6,4.66-2.6,3.77,0,4.93,2.16,4.93,5.24v9.42h-2.36v-9.7c0-1.75-1.11-2.88-2.91-2.88-2.85,0-4.24,1.91-4.24,4.49v8.09h-2.36v-14.33h0Z"/>
          <path class="cls-12" d="m1750.15,688.35h-2.52l-5.32-14.33h2.63l4.02,11.94h.06l3.91-11.94h2.47l-5.24,14.33h-.01Z"/>
          <path class="cls-12" d="m1763.73,673.69c-4.55,0-6.96,3.33-6.96,7.51s2.41,7.48,6.96,7.48,6.96-3.27,6.96-7.48-2.42-7.51-6.96-7.51Zm0,12.91c-2.46,0-4.46-1.91-4.46-5.4s2-5.43,4.46-5.43,4.46,1.97,4.46,5.43-1.99,5.4-4.46,5.4Z"/>
          <path class="cls-12" d="m1776.71,674.02h2.85v2.08h-2.85v8.9c0,1.08.3,1.27,1.77,1.27h1.08v2.08h-1.8c-2.44,0-3.41-.5-3.41-3.13v-9.12h-2.44v-2.08h2.44v-4.29h2.36v4.29h0Z"/>
          <path class="cls-12" d="m1782.31,674.02v14.33h2.36v-14.33h-2.36Zm0-5.46v2.88h2.36v-2.88h-2.36Z"/>
          <path class="cls-12" d="m1788.32,674.02h2.22v2.27h.06c1-1.77,2.6-2.6,4.66-2.6,3.77,0,4.93,2.16,4.93,5.24v9.42h-2.35v-9.7c0-1.75-1.11-2.88-2.91-2.88-2.85,0-4.24,1.91-4.24,4.49v8.09h-2.36v-14.33h-.01Z"/>
          <path class="cls-12" d="m1813.88,674.03v2.05h-.03c-.86-1.58-2.47-2.38-4.27-2.38-4.96,0-6.62,4.18-6.62,7.56,0,3.91,2.13,7.26,6.4,7.26,1.8,0,3.68-.85,4.46-2.6h.05v.94c0,3.21-1.21,5.43-4.29,5.43-1.55,0-3.6-.61-3.71-2.33h-2.36c.14,3.13,3.24,4.21,5.93,4.21,4.52,0,6.65-2.38,6.65-7.04h0s0-13.1,0-13.1h-2.22Zm-4.38,12.41c-3.11,0-4.05-2.88-4.05-5.46,0-2.74,1.28-5.21,4.24-5.21s4.07,2.61,4.07,5.13h.01c0,2.69-1.16,5.54-4.27,5.54Z"/>
          <path class="cls-12" d="m1817.58,693.83c2.63-4.16,3.66-8.29,3.66-12.77s-1.03-8.73-3.66-12.97h1.8c2.66,4.16,4.35,8.12,4.35,12.97,0,4.32-1.52,9.01-4.35,12.77h-1.8Z"/>
        </g>
        <g>
          <polyline class="cls-3" points="941.31 286.28 1092.2 167.81 1338.16 167.81"/>
          <path class="cls-11" d="m1337.81,174.71c3.81,0,6.9-3.09,6.9-6.9s-3.09-6.9-6.9-6.9-6.9,3.09-6.9,6.9,3.09,6.9,6.9,6.9Z"/>
        </g>
        <g>
          <polyline class="cls-3" points="850.72 307.17 669.13 167.81 417.91 167.81"/>
          <path class="cls-11" d="m418.26,160.91c-3.81,0-6.9,3.09-6.9,6.9s3.09,6.9,6.9,6.9,6.9-3.09,6.9-6.9-3.09-6.9-6.9-6.9Z"/>
        </g>
        <g>
          <polyline class="cls-3" points="1017.94 494.54 1157.3 548.61 1338.16 548.61"/>
          <path class="cls-11" d="m1337.81,555.51c3.81,0,6.9-3.09,6.9-6.9s-3.09-6.9-6.9-6.9-6.9,3.09-6.9,6.9,3.09,6.9,6.9,6.9Z"/>
        </g>
        <g>
          <polyline class="cls-3" points="675.53 354.95 617.95 339.08 417.92 327.18"/>
          <path class="cls-11" d="m418.67,320.32c-3.8-.23-7.07,2.68-7.3,6.48-.23,3.8,2.67,7.07,6.48,7.3,3.8.23,7.07-2.68,7.3-6.48.23-3.8-2.68-7.07-6.48-7.3Z"/>
        </g>
        <g>
          <line class="cls-3" x1="1049.18" y1="416.28" x2="1338.16" y2="416.28"/>
          <path class="cls-11" d="m1337.81,423.19c3.81,0,6.9-3.09,6.9-6.9s-3.09-6.9-6.9-6.9-6.9,3.09-6.9,6.9,3.09,6.9,6.9,6.9Z"/>
        </g>
        <g>
          <path class="cls-12" d="m1399.82,417.14v-17.5h-5.28l-12.64,16.96v5.4h12.31v6.73h5.61v-6.73h3.87v-4.86h-3.87Zm-5.61,0h-7.65l7.52-10.1h.13v10.1Z"/>
          <path class="cls-12" d="m1406.83,422.33h6.53v6.4h-6.53v-6.4Z"/>
          <path class="cls-12" d="m1425.36,411.4c2.54.21,6.19-.29,6.19-3.62,0-2.45-1.95-3.87-4.12-3.87-2.95,0-4.53,2.2-4.49,5.2h-5.61c.21-5.94,4.07-10.06,10.06-10.06,4.66,0,9.77,2.87,9.77,8.06,0,2.74-1.37,5.2-4.07,5.94v.08c3.2.71,5.15,3.37,5.15,6.61,0,6.11-5.11,9.56-10.81,9.56-6.53,0-10.93-3.91-10.81-10.6h5.61c.12,3.16,1.7,5.74,5.11,5.74,2.66,0,4.74-1.83,4.74-4.57,0-4.41-3.87-4.32-6.73-4.32v-4.16h.01Z"/>
          <path class="cls-12" d="m1470.65,413.1c-4.87,0-7.07,3.45-7.07,8.02s1.75,8.19,6.86,8.19,7.02-3.45,7.02-8.02-1.67-8.19-6.81-8.19Zm-.18,13.09h-.01c-2.66,0-2.66-3.24-2.66-5.03,0-1.91.17-4.95,2.83-4.95,2.46,0,2.58,3.37,2.58,4.99,0,1.75-.16,4.99-2.74,4.99Zm-3.7-27.47l-17.21,30.92h3.62l17.12-30.92h-3.53Zm-17.57.33c-4.87,0-7.07,3.66-7.07,8.23s1.75,7.98,6.86,7.98,7.02-3.23,7.02-7.81-1.67-8.39-6.81-8.4Zm-.18,13.09h0c-2.66,0-2.66-2.99-2.66-4.78,0-1.92.17-5.2,2.83-5.2,2.46,0,2.58,3.62,2.58,5.24,0,1.75-.16,4.74-2.74,4.74Z"/>
        </g>
        <g>
          <path class="cls-12" d="m1392.08,525.37c-6.06,0-10.18,4.7-10.18,10.64,0,2.28.7,4.69,2.24,6.48,1.66,1.83,4.2,2.99,6.69,2.99,2.83,0,4.95-.95,6.57-3.24l.08.08c-.17,3.24-1.29,8.85-5.57,8.85-2.03,0-3.52-1.66-3.9-3.6v-.02s0,0,0,.02h-5.6c.66,5.11,4.4,8.06,9.43,8.06,8.27,0,11.43-7.85,11.43-15.21s-2.37-15.05-11.18-15.05Zm4.86,10.26c0,2.86-1.66,5.4-4.7,5.4s-4.45-2.87-4.45-5.49,1.5-5.32,4.45-5.32,4.7,2.7,4.7,5.4h0Z"/>
          <path class="cls-12" d="m1406.61,548.63h6.53v6.4h-6.53v-6.4Z"/>
          <path class="cls-12" d="m1432.77,539.35v-.08c2.74-.91,4.24-3.29,4.24-6.11s-2.5-7.81-9.73-7.81h.01c-4.74,0-9.81,2.69-9.81,7.93,0,2.87,1.45,5.2,4.28,5.99v.08c-3.41.83-5.49,3.45-5.49,7.15,0,6.27,5.66,9.1,11.06,9.1s10.89-3.03,10.89-9.14c0-3.66-2-6.32-5.45-7.11Zm-5.49-9.55c3.65,0,4.36,2.53,4.36,4.03,0,2.49-1.95,3.82-4.36,3.82s-4.45-1.24-4.45-3.82,2.08-4.03,4.45-4.03Zm.04,21.36h0c-2.82,0-5.15-1.97-5.15-4.96s2.4-4.61,5.15-4.61,4.99,1.75,4.99,4.66-2.16,4.91-4.99,4.91Z"/>
          <path class="cls-12" d="m1470.42,539.39c-4.87,0-7.07,3.45-7.07,8.02s1.75,8.19,6.86,8.19,7.02-3.45,7.02-8.02-1.67-8.19-6.81-8.19Zm-.18,13.09h0c-2.66,0-2.66-3.24-2.66-5.03,0-1.92.17-4.95,2.83-4.95,2.46,0,2.58,3.37,2.58,4.99,0,1.75-.16,4.99-2.74,4.99Zm-3.7-27.47l-17.21,30.92h3.62l17.12-30.92h-3.53Zm-17.57.34c-4.87,0-7.07,3.66-7.07,8.23s1.75,7.98,6.86,7.98,7.02-3.23,7.02-7.81-1.67-8.39-6.81-8.4Zm-.18,13.09h0c-2.66,0-2.66-2.99-2.66-4.78,0-1.92.17-5.2,2.83-5.2,2.46,0,2.58,3.62,2.58,5.24,0,1.75-.16,4.74-2.74,4.74Z"/>
        </g>
        <g>
          <path class="cls-12" d="m1494.16,534.15h13v2.22h-10.36v6.29h9.09v2.22h-9.09v9.06h-2.63v-19.79h-.01Z"/>
          <path class="cls-12" d="m1509.82,534.15h2.36v19.79h-2.36v-19.79Z"/>
          <path class="cls-12" d="m1527.8,552.18c-.75,0-.75-.5-.75-1.61v-7.37c0-3.35-2.8-3.93-5.38-3.93-3.19,0-5.93,1.24-6.07,4.79h2.36c.11-2.1,1.57-2.71,3.57-2.71,1.5,0,3.19.33,3.19,2.38,0,1.78-2.22,1.61-4.82,2.11-2.44.48-4.85,1.17-4.85,4.41,0,2.86,2.13,4.02,4.74,4.02,1.99,0,3.74-.7,5.04-2.22,0,1.56.78,2.22,2,2.22.75,0,1.27-.14,1.69-.39v-1.84c-.3.11-.53.14-.72.14Zm-3.1-3.22c0,1.3-1.28,3.24-4.38,3.24-1.44,0-2.77-.56-2.77-2.11,0-1.75,1.33-2.3,2.88-2.58,1.58-.28,3.36-.3,4.27-.97v2.42Z"/>
          <path class="cls-12" d="m1530.62,539.61h2.22v3.02h.06c1.14-2.3,2.71-3.44,5.26-3.35v2.49c-3.8,0-5.18,2.16-5.18,5.79v6.37h-2.36v-14.33h0Z"/>
          <path class="cls-12" d="m1545.4,539.28c-3.9,0-6.73,3.16-6.73,7.45.14,4.38,2.3,7.54,6.87,7.54,3.21,0,5.48-1.72,6.12-4.88h-2.33c-.41,1.86-1.77,2.8-3.71,2.8-3.13,0-4.54-2.22-4.46-4.71h10.72c.14-3.46-1.41-8.2-6.48-8.2Zm-4.24,6.12c.16-2.18,1.63-4.04,4.1-4.04,2.33,0,4.02,1.8,4.13,4.04h-8.23Z"/>
          <path class="cls-12" d="m1562.41,534.15h13v2.22h-10.36v6.29h9.09v2.22h-9.09v9.06h-2.63v-19.79h-.01Z"/>
          <path class="cls-12" d="m1584.1,539.28c-4.55,0-6.96,3.33-6.96,7.51s2.41,7.48,6.96,7.48,6.96-3.27,6.96-7.48-2.42-7.51-6.96-7.51Zm0,12.91c-2.46,0-4.46-1.91-4.46-5.4s2-5.43,4.46-5.43,4.46,1.97,4.46,5.43-1.99,5.4-4.46,5.4Z"/>
          <path class="cls-12" d="m1605.69,553.94h-2.22v-2.27h-.06c-1,1.77-2.6,2.6-4.66,2.6-3.77,0-4.93-2.16-4.93-5.24v-9.42h2.36v9.7c0,1.75,1.11,2.88,2.91,2.88,2.85,0,4.24-1.91,4.24-4.49v-8.09h2.36v14.33h0Z"/>
          <path class="cls-12" d="m1609.23,539.61h2.22v2.27h.06c1-1.77,2.6-2.6,4.66-2.6,3.77,0,4.93,2.16,4.93,5.24v9.42h-2.35v-9.7c0-1.75-1.11-2.88-2.91-2.88-2.85,0-4.24,1.91-4.24,4.49v8.09h-2.36v-14.33h-.01Z"/>
          <path class="cls-12" d="m1635.08,534.15v7.37h-.05c-1.06-1.69-3.16-2.24-4.63-2.24-4.38,0-6.54,3.4-6.54,7.45s2.19,7.54,6.6,7.54c1.96,0,3.79-.69,4.57-2.27h.05v1.94h2.36v-19.79h-2.36Zm-4.29,18.04c-3.04,0-4.43-2.49-4.43-5.29s1.05-5.54,4.29-5.54,4.52,2.6,4.52,5.43-1.22,5.4-4.38,5.4Z"/>
          <path class="cls-12" d="m1653.04,552.18c-.75,0-.75-.5-.75-1.61v-7.37c0-3.35-2.8-3.93-5.38-3.93-3.19,0-5.93,1.24-6.07,4.79h2.36c.11-2.1,1.57-2.71,3.57-2.71,1.5,0,3.19.33,3.19,2.38,0,1.78-2.22,1.61-4.82,2.11-2.44.48-4.85,1.17-4.85,4.41,0,2.86,2.13,4.02,4.74,4.02,1.99,0,3.74-.7,5.04-2.22,0,1.56.78,2.22,2,2.22.75,0,1.27-.14,1.69-.39v-1.84c-.3.11-.53.14-.72.14Zm-3.1-3.22c0,1.3-1.28,3.24-4.38,3.24-1.44,0-2.77-.56-2.77-2.11,0-1.75,1.33-2.3,2.88-2.58,1.58-.28,3.36-.3,4.27-.97v2.42Z"/>
          <path class="cls-12" d="m1659.21,539.61h2.85v2.08h-2.85v8.9c0,1.08.3,1.27,1.77,1.27h1.08v2.08h-1.8c-2.44,0-3.41-.5-3.41-3.13v-9.12h-2.44v-2.08h2.44v-4.29h2.36v4.29h0Z"/>
          <path class="cls-12" d="m1664.81,539.61v14.33h2.36v-14.33h-2.36Zm0-5.46v2.88h2.36v-2.88h-2.36Z"/>
          <path class="cls-12" d="m1677,539.28c-4.55,0-6.96,3.33-6.96,7.51s2.41,7.48,6.96,7.48,6.96-3.27,6.96-7.48-2.42-7.51-6.96-7.51Zm0,12.91c-2.46,0-4.46-1.91-4.46-5.4s2-5.43,4.46-5.43,4.46,1.97,4.46,5.43-1.99,5.4-4.46,5.4Z"/>
          <path class="cls-12" d="m1686.73,539.61h2.22v2.27h.06c1-1.77,2.6-2.6,4.66-2.6,3.77,0,4.93,2.16,4.93,5.24v9.42h-2.35v-9.7c0-1.75-1.11-2.88-2.91-2.88-2.85,0-4.24,1.91-4.24,4.49v8.09h-2.36v-14.33h-.01Z"/>
          <path class="cls-12" d="m1713.71,559.42c-2.66-4.16-4.35-8.12-4.35-12.97,0-4.32,1.52-9.01,4.35-12.77h1.8c-2.63,4.16-3.66,8.29-3.66,12.77s1.03,8.73,3.66,12.97h-1.8Z"/>
          <path class="cls-12" d="m1717.01,539.61h2.22v2.27h.06c1-1.77,2.6-2.6,4.66-2.6,3.77,0,4.93,2.16,4.93,5.24v9.42h-2.35v-9.7c0-1.75-1.11-2.88-2.91-2.88-2.85,0-4.24,1.91-4.24,4.49v8.09h-2.36v-14.33h-.01Z"/>
          <path class="cls-12" d="m1738.59,539.28c-4.55,0-6.96,3.33-6.96,7.51s2.41,7.48,6.96,7.48,6.96-3.27,6.96-7.48-2.42-7.51-6.96-7.51Zm0,12.91c-2.46,0-4.46-1.91-4.46-5.4s2-5.43,4.46-5.43,4.46,1.97,4.46,5.43-1.99,5.4-4.46,5.4Z"/>
          <path class="cls-12" d="m1748.32,539.61h2.22v2.27h.06c1-1.77,2.6-2.6,4.66-2.6,3.77,0,4.93,2.16,4.93,5.24v9.42h-2.36v-9.7c0-1.75-1.11-2.88-2.91-2.88-2.85,0-4.24,1.91-4.24,4.49v8.09h-2.36v-14.33h0Z"/>
          <path class="cls-12" d="m1763.34,545.13h8.01v2.22h-8.01v-2.22Z"/>
          <path class="cls-12" d="m1780.96,553.94h-2.52l-5.32-14.33h2.63l4.02,11.94h.06l3.91-11.94h2.47l-5.24,14.33h-.01Z"/>
          <path class="cls-12" d="m1794.54,539.28c-4.55,0-6.96,3.33-6.96,7.51s2.41,7.48,6.96,7.48,6.96-3.27,6.96-7.48-2.42-7.51-6.96-7.51Zm0,12.91c-2.46,0-4.46-1.91-4.46-5.4s2-5.43,4.46-5.43,4.46,1.97,4.46,5.43-1.99,5.4-4.46,5.4Z"/>
          <path class="cls-12" d="m1807.53,539.61h2.85v2.08h-2.85v8.9c0,1.08.3,1.27,1.77,1.27h1.08v2.08h-1.8c-2.44,0-3.41-.5-3.41-3.13v-9.12h-2.44v-2.08h2.44v-4.29h2.36v4.29h0Z"/>
          <path class="cls-12" d="m1813.12,539.61v14.33h2.36v-14.33h-2.36Zm0-5.46v2.88h2.36v-2.88h-2.36Z"/>
          <path class="cls-12" d="m1819.14,539.61h2.22v2.27h.06c1-1.77,2.6-2.6,4.66-2.6,3.77,0,4.93,2.16,4.93,5.24v9.42h-2.36v-9.7c0-1.75-1.11-2.88-2.91-2.88-2.85,0-4.24,1.91-4.24,4.49v8.09h-2.36v-14.33h0Z"/>
          <path class="cls-12" d="m1844.68,539.62v2.05h-.03c-.86-1.58-2.47-2.38-4.27-2.38-4.96,0-6.62,4.18-6.62,7.56,0,3.91,2.13,7.26,6.4,7.26,1.8,0,3.68-.85,4.46-2.6h.06v.94c0,3.21-1.21,5.43-4.29,5.43-1.55,0-3.6-.61-3.71-2.33h-2.36c.14,3.13,3.24,4.21,5.93,4.21,4.52,0,6.65-2.39,6.65-7.04v-13.1h-2.22Zm-4.37,12.4c-3.11,0-4.05-2.88-4.05-5.46,0-2.74,1.28-5.21,4.24-5.21s4.07,2.61,4.07,5.13h0c0,2.69-1.16,5.54-4.27,5.54Z"/>
          <path class="cls-12" d="m1848.4,559.42c2.63-4.16,3.66-8.29,3.66-12.77s-1.03-8.73-3.66-12.97h1.8c2.66,4.16,4.35,8.12,4.35,12.97,0,4.32-1.52,9.01-4.35,12.77h-1.8Z"/>
        </g>
        <g>
          <g>
            <path class="cls-12" d="m.67,162.82c-.21-6.65,3.57-11.76,10.56-11.76,5.32,0,9.98,3.41,9.98,9.1,0,4.36-2.33,6.77-5.2,8.81-2.87,2.04-6.28,3.7-8.4,6.69h13.76v5.07H0c.04-6.73,4.16-9.6,9.19-13.01,2.58-1.75,6.07-3.53,6.11-7.11,0-2.74-1.83-4.49-4.36-4.49-3.49,0-4.61,3.62-4.61,6.69H.67Z"/>
            <path class="cls-12" d="m33.75,151.05c-5.74,0-10.64,3.42-10.64,15.01s4.82,15.25,10.64,15.25,10.72-3.9,10.72-15.25-4.9-15.01-10.72-15.01Zm0,25.4c-4.74,0-4.74-7.11-4.74-10.39,0-3.03-.08-10.14,4.74-10.14s4.82,7.1,4.82,10.14c0,3.28,0,10.39-4.82,10.39Z"/>
            <path class="cls-12" d="m76.99,165.09c-4.87,0-7.07,3.45-7.07,8.02s1.75,8.19,6.86,8.19,7.02-3.45,7.02-8.02-1.67-8.19-6.81-8.19Zm-.18,13.09h-.01c-2.66,0-2.66-3.24-2.66-5.03,0-1.91.17-4.95,2.83-4.95,2.46,0,2.58,3.37,2.58,4.99,0,1.75-.16,4.99-2.74,4.99Zm-3.7-27.47l-17.21,30.92h3.62l17.12-30.92h-3.53Zm-17.57.34c-4.87,0-7.07,3.66-7.07,8.23s1.75,7.98,6.86,7.98,7.02-3.23,7.02-7.81-1.67-8.39-6.81-8.4Zm-.18,13.09h-.01c-2.66,0-2.66-2.99-2.66-4.78,0-1.92.17-5.2,2.83-5.2,2.46,0,2.58,3.62,2.58,5.24,0,1.75-.16,4.74-2.74,4.74Z"/>
          </g>
          <g>
            <path class="cls-12" d="m108.5,162.72c-.55-2.8-2.8-4.21-5.54-4.21-4.71,0-6.71,3.88-6.71,8.01,0,4.52,2,8.29,6.73,8.29,3.46,0,5.46-2.44,5.71-5.71h2.63c-.5,4.93-3.58,7.92-8.56,7.92-6.15,0-9.14-4.54-9.14-10.31s3.27-10.42,9.37-10.42c4.13,0,7.54,2.22,8.15,6.43h-2.64Z"/>
            <path class="cls-12" d="m114.12,162.22h2.22v3.02h.06c1.14-2.3,2.71-3.44,5.26-3.35v2.49c-3.8,0-5.18,2.16-5.18,5.79v6.37h-2.36v-14.33h0Z"/>
            <path class="cls-12" d="m129.12,161.89c-4.55,0-6.96,3.33-6.96,7.51s2.41,7.48,6.96,7.48,6.96-3.27,6.96-7.48-2.42-7.51-6.96-7.51Zm0,12.91c-2.46,0-4.46-1.91-4.46-5.4s2-5.43,4.46-5.43,4.46,1.97,4.46,5.43-1.99,5.4-4.46,5.4Z"/>
            <path class="cls-12" d="m140.28,172.03c.08,2.11,1.91,2.77,3.85,2.77,1.47,0,3.46-.33,3.46-2.13s-2.33-2.13-4.68-2.66c-2.33-.53-4.68-1.3-4.68-4.04,0-2.88,2.85-4.07,5.35-4.07,3.16,0,5.68,1,5.88,4.49h-2.36c-.17-1.83-1.77-2.41-3.33-2.41-1.41,0-3.05.39-3.05,1.83,0,1.69,2.49,1.97,4.68,2.49,2.36.53,4.68,1.3,4.68,4.07,0,3.41-3.19,4.52-6.1,4.52-3.21,0-5.93-1.3-6.07-4.85h2.37Z"/>
            <path class="cls-12" d="m154.13,172.03c.08,2.11,1.91,2.77,3.85,2.77,1.47,0,3.46-.33,3.46-2.13s-2.33-2.13-4.68-2.66c-2.33-.53-4.68-1.3-4.68-4.04,0-2.88,2.85-4.07,5.35-4.07,3.16,0,5.68,1,5.88,4.49h-2.36c-.17-1.83-1.77-2.41-3.33-2.41-1.41,0-3.05.39-3.05,1.83,0,1.69,2.49,1.97,4.68,2.49,2.36.53,4.68,1.3,4.68,4.07,0,3.41-3.19,4.52-6.1,4.52-3.21,0-5.93-1.3-6.07-4.85h2.37Z"/>
            <path class="cls-12" d="m166.16,167.73h8.01v2.22h-8.01v-2.22Z"/>
            <path class="cls-12" d="m187.05,166.82c-.36-1.8-1.61-2.85-3.55-2.85-3.41,0-4.46,2.69-4.46,5.6,0,2.63,1.19,5.24,4.18,5.24,2.27,0,3.63-1.33,3.93-3.49h2.41c-.53,3.49-2.72,5.57-6.32,5.57-4.38,0-6.71-3.05-6.71-7.32s2.22-7.68,6.76-7.68c3.24,0,5.85,1.52,6.18,4.93h-2.44.02Z"/>
            <path class="cls-12" d="m192.2,156.76h2.36v7.56h.06c.78-1.72,2.8-2.44,4.52-2.44,3.77,0,4.93,2.16,4.93,5.24v9.42h-2.35v-9.7c0-1.75-1.11-2.88-2.91-2.88-2.85,0-4.24,1.91-4.24,4.49v8.09h-2.36v-19.78h0Z"/>
            <path class="cls-12" d="m219.58,174.8c-.75,0-.75-.5-.75-1.61v-7.37c0-3.36-2.8-3.94-5.38-3.94-3.19,0-5.93,1.24-6.07,4.79h2.36c.11-2.1,1.57-2.71,3.57-2.71,1.5,0,3.19.33,3.19,2.38,0,1.78-2.22,1.61-4.82,2.11-2.44.48-4.85,1.17-4.85,4.41,0,2.86,2.13,4.02,4.74,4.02,1.99,0,3.74-.7,5.04-2.22,0,1.55.78,2.22,2,2.22.75,0,1.27-.14,1.69-.39v-1.83c-.3.11-.53.14-.72.14Zm-3.1-3.23c0,1.3-1.28,3.24-4.38,3.24-1.44,0-2.77-.56-2.77-2.11,0-1.75,1.33-2.3,2.88-2.58,1.58-.28,3.36-.3,4.27-.97v2.42Z"/>
            <path class="cls-12" d="m222.62,162.22v14.33h2.36v-14.33h-2.36Zm0-5.46v2.88h2.36v-2.88h-2.36Z"/>
            <path class="cls-12" d="m228.64,162.22h2.22v2.27h.06c1-1.77,2.6-2.61,4.66-2.61,3.77,0,4.93,2.16,4.93,5.24v9.42h-2.36v-9.7c0-1.75-1.11-2.88-2.91-2.88-2.85,0-4.24,1.91-4.24,4.49v8.09h-2.36v-14.33h0Z"/>
            <path class="cls-12" d="m252.24,156.76h2.63v19.79h-2.63v-19.79Z"/>
            <path class="cls-12" d="m258.92,162.22h2.22v2.27h.06c1-1.77,2.6-2.61,4.66-2.61,3.77,0,4.93,2.16,4.93,5.24v9.42h-2.35v-9.7c0-1.75-1.11-2.88-2.91-2.88-2.85,0-4.24,1.91-4.24,4.49v8.09h-2.36v-14.33h-.01Z"/>
            <path class="cls-12" d="m284.05,166.82c-.36-1.8-1.61-2.85-3.55-2.85-3.41,0-4.46,2.69-4.46,5.6,0,2.63,1.19,5.24,4.18,5.24,2.27,0,3.63-1.33,3.93-3.49h2.41c-.53,3.49-2.72,5.57-6.32,5.57-4.38,0-6.71-3.05-6.71-7.32s2.22-7.68,6.76-7.68c3.24,0,5.85,1.52,6.18,4.93h-2.44.02Z"/>
            <path class="cls-12" d="m295.16,161.89c-3.9,0-6.73,3.16-6.73,7.45.14,4.38,2.3,7.54,6.87,7.54,3.21,0,5.48-1.72,6.12-4.88h-2.33c-.41,1.86-1.77,2.8-3.71,2.8-3.13,0-4.54-2.22-4.46-4.71h10.72c.14-3.46-1.41-8.2-6.48-8.2Zm-4.24,6.12c.17-2.18,1.63-4.04,4.1-4.04,2.33,0,4.02,1.8,4.13,4.04h-8.23Z"/>
            <path class="cls-12" d="m304.08,162.22h2.22v2.27h.06c1-1.77,2.6-2.61,4.66-2.61,3.77,0,4.93,2.16,4.93,5.24v9.42h-2.35v-9.7c0-1.75-1.11-2.88-2.91-2.88-2.85,0-4.24,1.91-4.24,4.49v8.09h-2.36v-14.33h-.01Z"/>
            <path class="cls-12" d="m322.76,162.22h2.85v2.08h-2.85v8.89c0,1.08.3,1.28,1.77,1.28h1.08v2.08h-1.8c-2.44,0-3.41-.5-3.41-3.13v-9.12h-2.44v-2.08h2.44v-4.29h2.36v4.29h0Z"/>
            <path class="cls-12" d="m328.35,162.22v14.33h2.36v-14.33h-2.36Zm0-5.46v2.88h2.36v-2.88h-2.36Z"/>
            <path class="cls-12" d="m340.82,176.55h-2.52l-5.32-14.33h2.63l4.02,11.94h.06l3.91-11.94h2.47l-5.24,14.33h-.01Z"/>
            <path class="cls-12" d="m354.18,161.89c-3.9,0-6.73,3.16-6.73,7.45.14,4.38,2.3,7.54,6.87,7.54,3.21,0,5.48-1.72,6.12-4.88h-2.33c-.41,1.86-1.77,2.8-3.71,2.8-3.13,0-4.54-2.22-4.46-4.71h10.72c.14-3.46-1.41-8.2-6.48-8.2Zm-4.24,6.12c.17-2.18,1.63-4.04,4.1-4.04,2.33,0,4.02,1.8,4.13,4.04h-8.23Z"/>
            <path class="cls-12" d="m364.54,172.03c.08,2.11,1.91,2.77,3.85,2.77,1.47,0,3.46-.33,3.46-2.13s-2.33-2.13-4.68-2.66c-2.33-.53-4.68-1.3-4.68-4.04,0-2.88,2.85-4.07,5.35-4.07,3.16,0,5.68,1,5.88,4.49h-2.36c-.17-1.83-1.77-2.41-3.33-2.41-1.41,0-3.05.39-3.05,1.83,0,1.69,2.49,1.97,4.68,2.49,2.36.53,4.68,1.3,4.68,4.07,0,3.41-3.19,4.52-6.1,4.52-3.21,0-5.93-1.3-6.07-4.85h2.37Z"/>
          </g>
        </g>
        <g>
          <g>
            <path class="cls-12" d="m128.75,691.97h-5.9v-18.87h-7.32v-4.45c4.11.08,7.9-1.33,8.52-5.78h4.7v29.1h0Z"/>
            <path class="cls-12" d="m137.11,674.05c-.21-6.65,3.57-11.76,10.56-11.76,5.32,0,9.98,3.41,9.98,9.1,0,4.36-2.33,6.77-5.2,8.81-2.87,2.04-6.28,3.7-8.4,6.69h13.76v5.07h-21.36c.04-6.73,4.16-9.6,9.19-13.01,2.58-1.75,6.07-3.53,6.11-7.11,0-2.74-1.83-4.49-4.36-4.49-3.49,0-4.61,3.62-4.61,6.69h-5.67Z"/>
            <path class="cls-12" d="m161.17,685.57h6.53v6.4h-6.53v-6.4Z"/>
            <path class="cls-12" d="m181.29,662.31c-6.07,0-10.18,4.7-10.18,10.64,0,2.28.7,4.69,2.24,6.48,1.66,1.83,4.2,2.99,6.69,2.99,2.83,0,4.95-.95,6.57-3.24l.08.08c-.17,3.24-1.29,8.85-5.57,8.85-2.03,0-3.53-1.66-3.9-3.6v-.02s-.01,0-.01.02h-5.6c.66,5.11,4.4,8.06,9.43,8.06,8.27,0,11.43-7.85,11.43-15.21s-2.37-15.05-11.18-15.05Zm4.86,10.26c0,2.86-1.66,5.4-4.7,5.4s-4.45-2.87-4.45-5.49,1.5-5.32,4.45-5.32,4.7,2.7,4.7,5.4h0Z"/>
            <path class="cls-12" d="m224.98,676.33c-4.87,0-7.07,3.45-7.07,8.02s1.75,8.19,6.86,8.19,7.02-3.45,7.02-8.02-1.67-8.19-6.81-8.19Zm-.18,13.09h-.01c-2.66,0-2.66-3.24-2.66-5.03,0-1.92.17-4.95,2.83-4.95,2.46,0,2.58,3.37,2.58,4.99,0,1.75-.16,4.99-2.74,4.99Zm-3.7-27.47l-17.21,30.92h3.62l17.12-30.92h-3.53Zm-17.57.34c-4.87,0-7.07,3.66-7.07,8.23s1.75,7.98,6.86,7.98,7.02-3.23,7.02-7.81-1.67-8.39-6.81-8.4Zm-.18,13.09h-.01c-2.66,0-2.66-2.99-2.66-4.78,0-1.92.17-5.2,2.83-5.2,2.46,0,2.58,3.62,2.58,5.24,0,1.75-.16,4.74-2.74,4.74Z"/>
          </g>
          <g>
            <path class="cls-12" d="m248.53,668h13v2.22h-10.36v6.29h9.09v2.22h-9.09v9.06h-2.63v-19.79h-.01Z"/>
            <path class="cls-12" d="m264.19,668h2.36v19.79h-2.36v-19.79Z"/>
            <path class="cls-12" d="m282.17,686.04c-.75,0-.75-.5-.75-1.61v-7.37c0-3.35-2.8-3.93-5.38-3.93-3.19,0-5.93,1.24-6.07,4.79h2.36c.11-2.11,1.57-2.72,3.57-2.72,1.5,0,3.19.33,3.19,2.38,0,1.78-2.22,1.61-4.82,2.11-2.44.48-4.85,1.17-4.85,4.41,0,2.86,2.13,4.02,4.74,4.02,1.99,0,3.74-.7,5.04-2.22,0,1.55.78,2.22,2,2.22.75,0,1.27-.14,1.69-.39v-1.83c-.3.11-.53.14-.72.14Zm-3.1-3.23c0,1.3-1.28,3.24-4.38,3.24-1.44,0-2.77-.56-2.77-2.11,0-1.75,1.33-2.3,2.88-2.58,1.58-.28,3.36-.3,4.27-.97v2.42Z"/>
            <path class="cls-12" d="m284.99,673.46h2.22v3.02h.06c1.14-2.3,2.71-3.44,5.26-3.35v2.49c-3.8,0-5.18,2.16-5.18,5.79v6.37h-2.36v-14.33h0Z"/>
            <path class="cls-12" d="m299.76,673.13c-3.9,0-6.73,3.15-6.73,7.45.14,4.38,2.3,7.54,6.87,7.54,3.21,0,5.48-1.72,6.12-4.88h-2.33c-.41,1.86-1.77,2.8-3.71,2.8-3.13,0-4.54-2.22-4.46-4.71h10.72c.14-3.46-1.41-8.2-6.48-8.2Zm-4.24,6.12c.16-2.19,1.63-4.05,4.1-4.05,2.33,0,4.02,1.8,4.13,4.05h-8.23Z"/>
            <path class="cls-12" d="m316.77,668h2.63v17.57h10.47v2.22h-13.11v-19.79h0Z"/>
            <path class="cls-12" d="m343.76,686.04c-.75,0-.75-.5-.75-1.61v-7.37c0-3.35-2.8-3.93-5.38-3.93-3.19,0-5.93,1.24-6.07,4.79h2.36c.11-2.11,1.57-2.72,3.57-2.72,1.5,0,3.19.33,3.19,2.38,0,1.78-2.22,1.61-4.82,2.11-2.44.48-4.85,1.17-4.85,4.41,0,2.86,2.13,4.02,4.74,4.02,1.99,0,3.74-.7,5.04-2.22,0,1.55.78,2.22,2,2.22.75,0,1.27-.14,1.69-.39v-1.83c-.3.11-.53.14-.72.14Zm-3.1-3.23c0,1.3-1.28,3.24-4.38,3.24-1.44,0-2.77-.56-2.77-2.11,0-1.75,1.33-2.3,2.88-2.58,1.58-.28,3.36-.3,4.27-.97v2.42Z"/>
            <path class="cls-12" d="m353.74,673.13c-1.97,0-3.79.69-4.57,2.27h-.06v-7.4h-2.37s0,19.78,0,19.78h2.36v-1.91h.06c1.06,1.7,3.16,2.25,4.63,2.25,4.38,0,6.54-3.4,6.54-7.45s-2.18-7.54-6.59-7.54Zm-.2,12.91c-3.25,0-4.52-2.6-4.52-5.43,0-2.68,1.22-5.4,4.38-5.4s4.43,2.49,4.43,5.29-1.04,5.54-4.29,5.54Z"/>
            <path class="cls-12" d="m364.54,683.27c.08,2.11,1.91,2.77,3.85,2.77,1.47,0,3.46-.33,3.46-2.13s-2.33-2.13-4.68-2.66c-2.33-.53-4.68-1.3-4.68-4.04,0-2.88,2.85-4.07,5.35-4.07,3.16,0,5.68,1,5.88,4.49h-2.36c-.17-1.83-1.77-2.41-3.33-2.41-1.41,0-3.05.39-3.05,1.83,0,1.69,2.49,1.97,4.68,2.49,2.36.53,4.68,1.3,4.68,4.07,0,3.41-3.19,4.52-6.1,4.52-3.21,0-5.93-1.3-6.07-4.85h2.37Z"/>
          </g>
        </g>
        <g>
          <g>
            <path class="cls-12" d="m145.27,485.9c2.01.17,4.92-.23,4.92-2.87,0-1.95-1.55-3.07-3.27-3.07-2.35,0-3.6,1.75-3.57,4.13h-4.46c.17-4.72,3.24-8,7.99-8,3.7,0,7.76,2.28,7.76,6.41,0,2.18-1.09,4.13-3.24,4.72v.07c2.54.56,4.1,2.68,4.1,5.25,0,4.86-4.06,7.6-8.59,7.6-5.19,0-8.69-3.1-8.59-8.42h4.46c.1,2.51,1.35,4.56,4.06,4.56,2.11,0,3.77-1.45,3.77-3.63,0-3.5-3.07-3.44-5.35-3.44v-3.3h.01Z"/>
            <path class="cls-12" d="m158.09,494.59h5.19v5.09h-5.19v-5.09Z"/>
            <path class="cls-12" d="m174.44,476.09c-4.56,0-8.46,2.72-8.46,11.93s3.84,12.12,8.46,12.12,8.52-3.1,8.52-12.12-3.9-11.93-8.52-11.93Zm0,20.18c-3.77,0-3.77-5.65-3.77-8.26,0-2.41-.06-8.06,3.77-8.06s3.83,5.65,3.83,8.06c0,2.61,0,8.26-3.83,8.26Z"/>
            <path class="cls-12" d="m208.81,487.26c-3.87,0-5.62,2.74-5.62,6.38s1.39,6.51,5.45,6.51,5.58-2.74,5.58-6.38-1.32-6.51-5.41-6.51Zm-.14,10.41h-.01c-2.11.01-2.11-2.57-2.11-3.99,0-1.52.14-3.93,2.25-3.93,1.95,0,2.05,2.67,2.05,3.96,0,1.38-.13,3.96-2.18,3.96Zm-2.93-21.84l-13.68,24.58h2.87l13.61-24.58h-2.8Zm-13.99.26c-3.86,0-5.61,2.91-5.61,6.54s1.39,6.34,5.45,6.34,5.58-2.58,5.58-6.21-1.32-6.67-5.42-6.67Zm-.13,10.41h-.01c-2.11,0-2.11-2.38-2.11-3.8,0-1.52.14-4.13,2.25-4.13,1.95,0,2.05,2.87,2.05,4.16,0,1.39-.13,3.77-2.18,3.77Z"/>
          </g>
          <g>
            <path class="cls-12" d="m225.28,478.31h13v2.22h-10.36v6.29h9.09v2.22h-9.09v9.06h-2.63v-19.79h0Z"/>
            <path class="cls-12" d="m252.66,498.1h-2.22v-2.27h-.05c-1,1.77-2.61,2.61-4.66,2.61-3.77,0-4.93-2.16-4.93-5.24v-9.42h2.36v9.7c0,1.75,1.11,2.88,2.91,2.88,2.85,0,4.24-1.91,4.24-4.49v-8.09h2.35v14.33h0Z"/>
            <path class="cls-12" d="m259.47,483.77h2.85v2.08h-2.85v8.9c0,1.08.3,1.27,1.77,1.27h1.08v2.08h-1.8c-2.44,0-3.41-.5-3.41-3.13v-9.12h-2.44v-2.08h2.44v-4.29h2.36v4.29h0Z"/>
            <path class="cls-12" d="m276.79,498.1h-2.22v-2.27h-.05c-1,1.77-2.61,2.61-4.66,2.61-3.77,0-4.93-2.16-4.93-5.24v-9.42h2.36v9.7c0,1.75,1.11,2.88,2.91,2.88,2.85,0,4.24-1.91,4.24-4.49v-8.09h2.35v14.33h0Z"/>
            <path class="cls-12" d="m280.25,483.77h2.22v3.02h.06c1.14-2.3,2.71-3.44,5.26-3.35v2.49c-3.8,0-5.18,2.16-5.18,5.79v6.37h-2.36v-14.33h0Z"/>
            <path class="cls-12" d="m295.02,483.45c-3.9,0-6.73,3.16-6.73,7.45.14,4.38,2.3,7.54,6.87,7.54,3.21,0,5.48-1.72,6.12-4.88h-2.33c-.41,1.86-1.77,2.8-3.71,2.8-3.13,0-4.54-2.22-4.46-4.71h10.72c.14-3.46-1.41-8.2-6.48-8.2Zm-4.24,6.12c.16-2.19,1.63-4.05,4.1-4.05,2.33,0,4.02,1.8,4.13,4.05h-8.23Z"/>
            <path class="cls-12" d="m316.52,480.53h-6.59v-2.22h15.82v2.22h-6.59v17.57h-2.63v-17.57h-.01Z"/>
            <path class="cls-12" d="m330.43,483.45c-3.9,0-6.73,3.16-6.73,7.45.14,4.38,2.3,7.54,6.87,7.54,3.21,0,5.48-1.72,6.12-4.88h-2.33c-.41,1.86-1.77,2.8-3.71,2.8-3.13,0-4.54-2.22-4.46-4.71h10.72c.14-3.46-1.41-8.2-6.48-8.2Zm-4.24,6.12c.17-2.19,1.63-4.05,4.1-4.05,2.33,0,4.02,1.8,4.13,4.05h-8.23Z"/>
            <path class="cls-12" d="m351.32,496.35c-.75,0-.75-.5-.75-1.61v-7.37c0-3.35-2.8-3.93-5.38-3.93-3.19,0-5.93,1.24-6.07,4.79h2.36c.11-2.11,1.57-2.72,3.57-2.72,1.5,0,3.19.33,3.19,2.38,0,1.78-2.22,1.61-4.82,2.11-2.44.48-4.85,1.17-4.85,4.41,0,2.86,2.13,4.02,4.74,4.02,1.99,0,3.74-.7,5.04-2.22,0,1.55.78,2.22,2,2.22.75,0,1.27-.14,1.69-.39v-1.83c-.3.11-.53.14-.72.14Zm-3.1-3.23c0,1.3-1.28,3.24-4.38,3.24-1.44,0-2.77-.56-2.77-2.11,0-1.75,1.33-2.3,2.88-2.58,1.58-.28,3.36-.3,4.27-.97v2.42Z"/>
            <path class="cls-12" d="m354.23,483.77h2.22v2.11h.06c1.05-1.61,2.66-2.44,4.63-2.44,1.75,0,3.35.69,3.94,2.44.97-1.52,2.66-2.44,4.49-2.44,2.85,0,4.77,1.19,4.77,4.16v10.5h-2.36v-9.39c0-1.77-.47-3.19-2.77-3.19s-3.74,1.44-3.74,3.66v8.92h-2.36v-9.39c0-1.86-.58-3.19-2.69-3.19-2.8,0-3.82,2.58-3.82,3.66v8.92h-2.36v-14.33h-.01Z"/>
          </g>
        </g>
        <g>
          <g>
            <path class="cls-12" d="m179.53,437.8c-.17-5.29,2.84-9.35,8.39-9.35,4.23,0,7.93,2.71,7.93,7.23,0,3.47-1.85,5.38-4.13,7-2.28,1.62-4.99,2.94-6.67,5.32h10.93v4.03h-16.98c.03-5.35,3.3-7.63,7.3-10.34,2.05-1.39,4.82-2.81,4.86-5.65,0-2.18-1.45-3.57-3.47-3.57-2.77,0-3.67,2.87-3.67,5.32h-4.49,0Z"/>
            <path class="cls-12" d="m198.66,446.95h5.19v5.09h-5.19v-5.09Z"/>
            <path class="cls-12" d="m215.01,428.45c-4.56,0-8.46,2.72-8.46,11.93s3.84,12.12,8.46,12.12,8.52-3.1,8.52-12.12-3.9-11.93-8.52-11.93Zm0,20.18c-3.77,0-3.77-5.65-3.77-8.26,0-2.41-.06-8.06,3.77-8.06s3.83,5.65,3.83,8.06c0,2.61,0,8.26-3.83,8.26Z"/>
            <path class="cls-12" d="m249.38,439.62c-3.87,0-5.62,2.74-5.62,6.38s1.39,6.51,5.45,6.51,5.58-2.74,5.58-6.38-1.32-6.51-5.41-6.51Zm-.14,10.41h-.01c-2.11,0-2.11-2.57-2.11-3.99,0-1.52.14-3.93,2.25-3.93,1.95,0,2.05,2.67,2.05,3.96,0,1.38-.13,3.96-2.18,3.96Zm-2.93-21.84l-13.68,24.58h2.87l13.61-24.58h-2.8Zm-13.99.26c-3.86,0-5.61,2.91-5.61,6.54s1.39,6.34,5.45,6.34,5.58-2.58,5.58-6.21-1.32-6.67-5.42-6.67Zm-.13,10.41h-.01c-2.11,0-2.11-2.38-2.11-3.8,0-1.52.14-4.13,2.25-4.13,1.95,0,2.05,2.87,2.05,4.16,0,1.39-.13,3.77-2.18,3.77Z"/>
          </g>
          <g>
            <path class="cls-12" d="m278.4,430.67h-2.92l-7.73,19.79h2.72l2.22-5.96h8.37l2.16,5.96h2.91l-7.73-19.79Zm-4.87,11.61l3.35-9.23h.05l3.3,9.23h-6.7Z"/>
            <path class="cls-12" d="m298.13,430.68v7.37h-.05c-1.06-1.7-3.16-2.25-4.63-2.25-4.38,0-6.54,3.4-6.54,7.45s2.18,7.54,6.59,7.54c1.96,0,3.79-.69,4.57-2.27h.05v1.94h2.37s0-19.78,0-19.78h-2.36Zm-4.3,18.03c-3.04,0-4.43-2.49-4.43-5.29s1.04-5.54,4.29-5.54,4.52,2.6,4.52,5.43c0,2.68-1.22,5.4-4.38,5.4Z"/>
            <path class="cls-12" d="m310.57,450.46h-2.52l-5.32-14.33h2.63l4.02,11.94h.06l3.91-11.94h2.47l-5.24,14.33h-.01Z"/>
            <path class="cls-12" d="m318.1,436.14v14.33h2.36v-14.33h-2.36Zm0-5.46v2.88h2.36v-2.88h-2.36Z"/>
            <path class="cls-12" d="m325.56,445.94c.08,2.11,1.91,2.77,3.85,2.77,1.47,0,3.46-.33,3.46-2.13s-2.33-2.13-4.68-2.66c-2.33-.53-4.68-1.3-4.68-4.04,0-2.88,2.85-4.07,5.35-4.07,3.16,0,5.68,1,5.88,4.49h-2.36c-.17-1.83-1.77-2.41-3.33-2.41-1.41,0-3.05.39-3.05,1.83,0,1.69,2.49,1.97,4.68,2.49,2.36.53,4.68,1.3,4.68,4.07,0,3.41-3.19,4.52-6.1,4.52-3.21,0-5.93-1.3-6.07-4.85h2.37Z"/>
            <path class="cls-12" d="m344.15,435.8c-4.55,0-6.96,3.33-6.96,7.51s2.41,7.48,6.96,7.48,6.96-3.27,6.96-7.48-2.42-7.51-6.96-7.51Zm0,12.91c-2.46,0-4.46-1.91-4.46-5.4s2-5.43,4.46-5.43,4.46,1.97,4.46,5.43-1.99,5.4-4.46,5.4Z"/>
            <path class="cls-12" d="m353.79,436.13h2.22v3.02h.06c1.14-2.3,2.71-3.44,5.26-3.35v2.49c-3.8,0-5.18,2.16-5.18,5.79v6.37h-2.36v-14.33h0Z"/>
            <path class="cls-12" d="m364.54,445.94c.08,2.11,1.91,2.77,3.85,2.77,1.47,0,3.46-.33,3.46-2.13s-2.33-2.13-4.68-2.66c-2.33-.53-4.68-1.3-4.68-4.04,0-2.88,2.85-4.07,5.35-4.07,3.16,0,5.68,1,5.88,4.49h-2.36c-.17-1.83-1.77-2.41-3.33-2.41-1.41,0-3.05.39-3.05,1.83,0,1.69,2.49,1.97,4.68,2.49,2.36.53,4.68,1.3,4.68,4.07,0,3.41-3.19,4.52-6.1,4.52-3.21,0-5.93-1.3-6.07-4.85h2.37Z"/>
          </g>
        </g>
        <g>
          <g>
            <path class="cls-12" d="m188.64,391.04c2.19.18,5.35-.25,5.35-3.12,0-2.12-1.69-3.34-3.55-3.34-2.55,0-3.91,1.9-3.87,4.48h-4.84c.18-5.13,3.52-8.68,8.68-8.68,4.02,0,8.43,2.48,8.43,6.96,0,2.37-1.18,4.48-3.52,5.13v.07c2.76.61,4.45,2.91,4.45,5.7,0,5.27-4.41,8.25-9.33,8.25-5.63,0-9.43-3.37-9.33-9.15h4.84c.11,2.73,1.47,4.95,4.41,4.95,2.3,0,4.09-1.58,4.09-3.95,0-3.8-3.34-3.73-5.81-3.73v-3.59.02Z"/>
            <path class="cls-12" d="m202.56,400.48h5.63v5.52h-5.63v-5.52h0Z"/>
            <path class="cls-12" d="m211.71,390.54c-.18-5.74,3.08-10.15,9.11-10.15,4.59,0,8.61,2.94,8.61,7.86,0,3.77-2.01,5.85-4.48,7.61-2.47,1.76-5.42,3.19-7.25,5.78h11.87v4.38h-18.44c.04-5.81,3.59-8.29,7.93-11.23,2.22-1.51,5.24-3.05,5.27-6.13,0-2.37-1.58-3.87-3.77-3.87-3.01,0-3.98,3.12-3.98,5.78h-4.88v-.03Z"/>
            <path class="cls-12" d="m257.64,392.51c-4.2,0-6.1,2.97-6.1,6.92s1.51,7.07,5.92,7.07,6.06-2.97,6.06-6.92-1.43-7.07-5.88-7.07Zm-.14,11.3h.01c-2.3.01-2.3-2.79-2.3-4.33,0-1.65.14-4.27,2.44-4.27,2.11,0,2.22,2.9,2.22,4.3,0,1.5-.15,4.3-2.37,4.3Zm-3.2-23.71l-14.85,26.69h3.12l14.78-26.69h-3.05Zm-15.18.29c-4.2,0-6.1,3.15-6.1,7.1s1.51,6.89,5.92,6.89,6.06-2.79,6.06-6.74-1.43-7.25-5.88-7.25Zm-.13,11.3h-.01c-2.29-.01-2.29-2.59-2.29-4.13,0-1.65.14-4.48,2.44-4.48,2.11,0,2.22,3.12,2.22,4.52,0,1.51-.15,4.08-2.36,4.09Z"/>
          </g>
          <g>
            <path class="cls-12" d="m288.08,393.1v-.05c1.83-.74,2.94-2.32,2.94-4.43,0-1.94-1.03-3.35-2.33-4.13-1.19-.72-3.49-.72-5.24-.72h-7.17v19.78h9.56c3.93,0,6.01-2.77,6.01-5.68,0-2.44-1.33-4.27-3.77-4.77Zm-9.18-7.11h5.26c2.27,0,4.21.39,4.21,3.13,0,2.08-1.22,3.16-4.21,3.16h-5.26v-6.29Zm6.59,15.35h-6.59v-6.85h6.01c2.21,0,4.29.72,4.29,3.3,0,2.16-1.44,3.55-3.71,3.55Z"/>
            <path class="cls-12" d="m306.83,401.8c-.75,0-.75-.5-.75-1.61v-7.37c0-3.35-2.8-3.93-5.38-3.93-3.19,0-5.93,1.24-6.07,4.79h2.36c.11-2.1,1.57-2.71,3.57-2.71,1.5,0,3.19.33,3.19,2.38,0,1.78-2.22,1.61-4.82,2.11-2.44.48-4.85,1.17-4.85,4.41,0,2.86,2.13,4.02,4.74,4.02,1.99,0,3.74-.7,5.04-2.22,0,1.56.78,2.22,2,2.22.75,0,1.27-.14,1.69-.39v-1.84c-.3.11-.53.14-.72.14Zm-3.1-3.22c0,1.3-1.28,3.24-4.38,3.24-1.44,0-2.77-.56-2.77-2.11,0-1.75,1.33-2.3,2.88-2.58,1.58-.28,3.36-.3,4.27-.97v2.42Z"/>
            <path class="cls-12" d="m319.46,393.83c-.36-1.8-1.61-2.85-3.55-2.85-3.41,0-4.46,2.69-4.46,5.6,0,2.63,1.19,5.24,4.18,5.24,2.27,0,3.63-1.33,3.93-3.49h2.41c-.53,3.49-2.72,5.57-6.32,5.57-4.38,0-6.71-3.05-6.71-7.31s2.22-7.68,6.76-7.68c3.24,0,5.85,1.52,6.18,4.93h-2.44.02Z"/>
            <path class="cls-12" d="m324.75,383.77h2.36v11.72l6.54-6.26h3.16l-5.68,5.21,6.1,9.12h-2.99l-4.9-7.48-2.22,2.05v5.43h-2.36v-19.79h-.01Z"/>
            <path class="cls-12" d="m344.95,388.9c-3.9,0-6.73,3.16-6.73,7.45.14,4.38,2.3,7.54,6.87,7.54,3.21,0,5.48-1.72,6.12-4.88h-2.33c-.41,1.86-1.77,2.8-3.71,2.8-3.13,0-4.54-2.22-4.46-4.71h10.72c.14-3.46-1.41-8.2-6.48-8.2Zm-4.24,6.12c.16-2.18,1.63-4.04,4.1-4.04,2.33,0,4.02,1.8,4.13,4.04h-8.23Z"/>
            <path class="cls-12" d="m353.79,389.23h2.22v3.02h.06c1.14-2.3,2.71-3.44,5.26-3.35v2.49c-3.8,0-5.18,2.16-5.18,5.79v6.37h-2.36v-14.33h0Z"/>
            <path class="cls-12" d="m364.54,399.04c.08,2.11,1.91,2.77,3.85,2.77,1.47,0,3.46-.33,3.46-2.13s-2.33-2.13-4.68-2.66c-2.33-.53-4.68-1.3-4.68-4.05s2.85-4.07,5.35-4.07c3.16,0,5.68,1,5.88,4.49h-2.36c-.17-1.83-1.77-2.41-3.33-2.41-1.41,0-3.05.39-3.05,1.83,0,1.69,2.49,1.97,4.68,2.49,2.36.53,4.68,1.3,4.68,4.07,0,3.41-3.19,4.52-6.1,4.52-3.21,0-5.93-1.3-6.07-4.85h2.37Z"/>
          </g>
        </g>
        <g>
          <g>
            <path class="cls-12" d="m13.36,320.22c-.18-5.78,3.08-10.23,9.11-10.23,4.59,0,8.61,2.96,8.61,7.91,0,3.79-2.01,5.89-4.48,7.66-2.47,1.77-5.42,3.22-7.25,5.82h11.87v4.41H12.79c.04-5.85,3.59-8.35,7.93-11.31,2.22-1.52,5.24-3.07,5.27-6.18,0-2.38-1.58-3.9-3.77-3.9-3.01,0-3.98,3.14-3.98,5.82h-4.88Z"/>
            <path class="cls-12" d="m34.13,330.23h5.63v5.56h-5.63v-5.56Z"/>
            <path class="cls-12" d="m56.02,335.8h-5.09v-16.4h-6.31v-3.87c3.55.07,6.82-1.16,7.35-5.02h4.05v25.29h0Z"/>
            <path class="cls-12" d="m89.21,322.21c-4.2,0-6.1,2.99-6.1,6.97s1.51,7.12,5.92,7.12,6.06-2.99,6.06-6.97-1.43-7.12-5.88-7.12Zm-.14,11.38h.01c-2.3-.01-2.3-2.83-2.3-4.38,0-1.66.14-4.3,2.44-4.3,2.11,0,2.22,2.93,2.22,4.34,0,1.52-.15,4.34-2.37,4.34Zm-3.2-23.88l-14.85,26.88h3.12l14.78-26.88h-3.05Zm-15.18.29c-4.2,0-6.1,3.17-6.1,7.15s1.51,6.94,5.92,6.94,6.06-2.81,6.06-6.79-1.43-7.3-5.88-7.3Zm-.14,11.38h.01c-2.3,0-2.3-2.6-2.3-4.15,0-1.67.14-4.52,2.44-4.52,2.11,0,2.22,3.14,2.22,4.55,0,1.52-.15,4.12-2.37,4.12Z"/>
          </g>
          <g>
            <path class="cls-12" d="m115.1,324.34v-.06c1.83-.74,2.94-2.32,2.94-4.43,0-1.94-1.03-3.35-2.33-4.13-1.19-.72-3.49-.72-5.24-.72h-7.17v19.79h9.56c3.93,0,6.01-2.77,6.01-5.68,0-2.44-1.33-4.27-3.77-4.77Zm-9.18-7.12h5.26c2.27,0,4.21.39,4.21,3.13,0,2.08-1.22,3.16-4.21,3.16h-5.26v-6.29Zm6.59,15.35h-6.59v-6.85h6.01c2.21,0,4.29.72,4.29,3.3,0,2.16-1.44,3.55-3.71,3.55Z"/>
            <path class="cls-12" d="m133.74,334.79h-2.22v-2.27h-.06c-1,1.77-2.6,2.61-4.66,2.61-3.77,0-4.93-2.16-4.93-5.24v-9.42h2.36v9.7c0,1.75,1.11,2.88,2.91,2.88,2.85,0,4.24-1.91,4.24-4.49v-8.09h2.36v14.33h0Z"/>
            <path class="cls-12" d="m137.21,320.46h2.22v3.02h.06c1.14-2.3,2.71-3.44,5.26-3.35v2.49c-3.8,0-5.18,2.16-5.18,5.79v6.37h-2.36v-14.33h0Z"/>
            <path class="cls-12" d="m147.01,320.46h2.22v2.27h.06c1-1.77,2.6-2.61,4.66-2.61,3.77,0,4.93,2.16,4.93,5.24v9.42h-2.35v-9.7c0-1.75-1.11-2.88-2.91-2.88-2.85,0-4.24,1.91-4.24,4.49v8.09h-2.36v-14.33h0Z"/>
            <path class="cls-12" d="m168.38,320.12c-3.9,0-6.73,3.17-6.73,7.46.14,4.38,2.3,7.54,6.87,7.54,3.21,0,5.48-1.72,6.12-4.88h0s-2.33-.01-2.33-.01c-.41,1.86-1.77,2.8-3.71,2.8-3.13,0-4.54-2.22-4.46-4.71h10.72c.14-3.46-1.41-8.2-6.48-8.2Zm-4.24,6.13c.16-2.19,1.63-4.05,4.1-4.05,2.33,0,4.02,1.8,4.13,4.05h-8.23Z"/>
            <path class="cls-12" d="m187.74,315v7.37h-.05c-1.06-1.7-3.16-2.25-4.63-2.25-4.38,0-6.54,3.41-6.54,7.46s2.19,7.54,6.6,7.54c1.96,0,3.79-.69,4.57-2.27h.05v1.94h2.36v-19.79h-2.36Zm-4.29,18.04c-3.04,0-4.43-2.49-4.43-5.29s1.05-5.54,4.29-5.54,4.52,2.6,4.52,5.43c0,2.68-1.22,5.4-4.38,5.4Z"/>
            <path class="cls-12" d="m208.5,320.13c-1.97,0-3.79.69-4.57,2.27h-.06v-7.4h-2.37v19.79h2.36v-1.91h.06c1.06,1.7,3.16,2.25,4.63,2.25,4.38,0,6.54-3.41,6.54-7.46s-2.18-7.54-6.59-7.54Zm-.2,12.91c-3.25,0-4.52-2.6-4.52-5.43,0-2.68,1.22-5.4,4.38-5.4s4.43,2.49,4.43,5.29-1.04,5.54-4.29,5.54Z"/>
            <path class="cls-12" d="m229.83,333.05c-.75,0-.75-.5-.75-1.61v-7.37c0-3.36-2.8-3.94-5.38-3.94-3.19,0-5.93,1.24-6.07,4.79h2.36c.11-2.11,1.57-2.72,3.57-2.72,1.5,0,3.19.33,3.19,2.38,0,1.78-2.22,1.61-4.82,2.11-2.44.48-4.85,1.17-4.85,4.41,0,2.86,2.13,4.02,4.74,4.02,1.99,0,3.74-.7,5.04-2.22,0,1.55.78,2.22,2,2.22.75,0,1.27-.14,1.69-.39v-1.82c-.3.11-.53.14-.72.14Zm-3.1-3.24c0,1.3-1.28,3.24-4.38,3.24-1.44,0-2.77-.56-2.77-2.11,0-1.75,1.33-2.3,2.88-2.58,1.58-.28,3.36-.3,4.27-.97v2.42Z"/>
            <path class="cls-12" d="m242.46,325.06c-.36-1.8-1.61-2.85-3.55-2.85-3.41,0-4.46,2.69-4.46,5.6,0,2.63,1.19,5.24,4.18,5.24,2.27,0,3.63-1.33,3.93-3.49h2.41c-.53,3.49-2.72,5.57-6.32,5.57-4.38,0-6.71-3.05-6.71-7.32s2.22-7.68,6.76-7.68c3.24,0,5.85,1.52,6.18,4.93h-2.44.02Z"/>
            <path class="cls-12" d="m247.76,315h2.36v11.72l6.54-6.26h3.16l-5.68,5.21,6.1,9.12h-2.99l-4.9-7.48-2.22,2.05v5.43h-2.36v-19.79h-.01Z"/>
            <path class="cls-12" d="m267.96,320.12c-3.9,0-6.73,3.17-6.73,7.46.14,4.38,2.3,7.54,6.87,7.54,3.21,0,5.48-1.72,6.12-4.88h0s-2.33-.01-2.33-.01c-.41,1.86-1.77,2.8-3.71,2.8-3.13,0-4.54-2.22-4.46-4.71h10.72c.14-3.46-1.41-8.2-6.48-8.2Zm-4.24,6.13c.17-2.19,1.63-4.05,4.1-4.05,2.33,0,4.02,1.8,4.13,4.05h-8.23Z"/>
            <path class="cls-12" d="m276.79,320.46h2.22v3.02h.06c1.14-2.3,2.71-3.44,5.26-3.35v2.49c-3.8,0-5.18,2.16-5.18,5.79v6.37h-2.36v-14.33h0Z"/>
            <path class="cls-12" d="m297.07,320.46h2.85v2.08h-2.85v8.9c0,1.08.3,1.27,1.77,1.27h1.08v2.08h-1.8c-2.44,0-3.41-.5-3.41-3.13v-9.12h-2.44v-2.08h2.44v-4.29h2.36v4.29h0Z"/>
            <path class="cls-12" d="m308.71,320.13c-4.55,0-6.96,3.33-6.96,7.51s2.41,7.48,6.96,7.48,6.96-3.27,6.96-7.48-2.42-7.51-6.96-7.51Zm0,12.91c-2.46,0-4.46-1.91-4.46-5.4s2-5.43,4.46-5.43,4.46,1.97,4.46,5.43-1.99,5.4-4.46,5.4Z"/>
            <path class="cls-12" d="m318.57,315h2.36v11.72l6.54-6.26h3.16l-5.68,5.21,6.1,9.12h-2.99l-4.9-7.48-2.22,2.05v5.43h-2.36v-19.79h-.01Z"/>
            <path class="cls-12" d="m338.78,320.12c-3.9,0-6.73,3.17-6.73,7.46.14,4.38,2.3,7.54,6.87,7.54,3.21,0,5.48-1.72,6.12-4.88h0s-2.33-.01-2.33-.01c-.41,1.86-1.77,2.8-3.71,2.8-3.13,0-4.54-2.22-4.46-4.71h10.72c.14-3.46-1.41-8.2-6.48-8.2Zm-4.24,6.13c.17-2.19,1.63-4.05,4.1-4.05,2.33,0,4.02,1.8,4.13,4.05h-8.23Z"/>
            <path class="cls-12" d="m347.69,320.46h2.22v2.27h.06c1-1.77,2.6-2.61,4.66-2.61,3.77,0,4.93,2.16,4.93,5.24v9.42h-2.35v-9.7c0-1.75-1.11-2.88-2.91-2.88-2.85,0-4.24,1.91-4.24,4.49v8.09h-2.36v-14.33h-.01Z"/>
            <path class="cls-12" d="m364.54,330.27c.08,2.11,1.91,2.77,3.85,2.77,1.47,0,3.46-.33,3.46-2.13s-2.33-2.13-4.68-2.66c-2.33-.53-4.68-1.3-4.68-4.04,0-2.88,2.85-4.07,5.35-4.07,3.16,0,5.68,1,5.88,4.49h-2.36c-.17-1.83-1.77-2.41-3.33-2.41-1.41,0-3.05.39-3.05,1.83,0,1.69,2.49,1.97,4.68,2.49,2.36.53,4.68,1.3,4.68,4.07,0,3.41-3.19,4.52-6.1,4.52-3.21,0-5.93-1.3-6.07-4.85h2.37Z"/>
          </g>
        </g>
        <g>
          <g>
            <path class="cls-12" d="m106.29,555.04h-4.69v-15h-5.81v-3.54c3.27.07,6.28-1.06,6.77-4.59h3.73v23.12h0Z"/>
            <path class="cls-12" d="m113.69,549.95h5.19v5.09h-5.19v-5.09Z"/>
            <path class="cls-12" d="m137.41,535.78h-9.55l-.93,5.25.07.07c1.26-1.29,2.71-1.78,4.53-1.78,4.56,0,7.14,3.53,7.14,7.86,0,4.76-3.93,8.42-8.59,8.33-4.49,0-8.52-2.48-8.59-7.33h4.69c.23,2.05,1.75,3.47,3.8,3.47,2.45,0,4-2.15,4-4.46s-1.49-4.33-4-4.33c-1.69,0-2.61.59-3.54,1.85h-4.23l2.28-12.79h12.92v3.87h0Z"/>
            <path class="cls-12" d="m164.42,542.62c-3.87,0-5.62,2.74-5.62,6.38s1.39,6.51,5.45,6.51,5.58-2.74,5.58-6.38-1.32-6.51-5.41-6.51Zm-.14,10.41h0c-2.12,0-2.12-2.57-2.12-3.99,0-1.52.14-3.93,2.25-3.93,1.95,0,2.05,2.67,2.05,3.96,0,1.38-.13,3.96-2.18,3.96Zm-2.93-21.84l-13.68,24.58h2.87l13.61-24.58h-2.8Zm-13.99.26c-3.86,0-5.61,2.91-5.61,6.54s1.39,6.34,5.45,6.34,5.58-2.58,5.58-6.21-1.32-6.67-5.42-6.67Zm-.13,10.41h-.01c-2.11,0-2.11-2.38-2.11-3.8,0-1.52.13-4.13,2.25-4.13,1.95,0,2.05,2.87,2.05,4.16,0,1.39-.13,3.77-2.18,3.77Z"/>
          </g>
          <g>
            <path class="cls-12" d="m188.31,548.4c-.19-1.94-.66-3.63-2.96-4.07v-.06c2.39-.67,3.44-2.64,3.44-5.02,0-3.16-2.3-5.18-6.01-5.18h-9.33v19.79h2.63v-8.45h6.43c2.55,0,3.02,1.63,3.3,3.57.39,1.94-.03,4.08.72,4.88h2.94c-1.1-1.36-.99-3.52-1.16-5.46Zm-6.72-5.21h-5.49v-6.9h6.54c2.47,0,3.52,1.44,3.52,3.38,0,2.88-2.1,3.52-4.57,3.52Z"/>
            <path class="cls-12" d="m198.02,539.2c-3.9,0-6.73,3.16-6.73,7.45.14,4.38,2.3,7.54,6.87,7.54,3.21,0,5.48-1.72,6.12-4.88h-2.33c-.41,1.86-1.77,2.8-3.71,2.8-3.13,0-4.54-2.22-4.46-4.71h10.72c.14-3.46-1.41-8.2-6.48-8.2Zm-4.24,6.12c.17-2.18,1.63-4.04,4.1-4.04,2.33,0,4.02,1.8,4.13,4.04h-8.23Z"/>
            <path class="cls-12" d="m208.38,549.34c.08,2.11,1.91,2.77,3.85,2.77,1.47,0,3.46-.33,3.46-2.13s-2.33-2.13-4.68-2.66c-2.33-.53-4.68-1.3-4.68-4.05s2.85-4.07,5.35-4.07c3.16,0,5.68,1,5.88,4.49h-2.36c-.17-1.83-1.77-2.41-3.33-2.41-1.41,0-3.05.39-3.05,1.83,0,1.69,2.49,1.97,4.68,2.49,2.36.53,4.68,1.3,4.68,4.07,0,3.41-3.19,4.52-6.1,4.52-3.21,0-5.93-1.3-6.07-4.85h2.37Z"/>
            <path class="cls-12" d="m224.06,539.53h2.85v2.08h-2.85v8.9c0,1.08.3,1.27,1.77,1.27h1.08v2.08h-1.8c-2.44,0-3.41-.5-3.41-3.13v-9.12h-2.44v-2.08h2.44v-4.29h2.36v4.29h0Z"/>
            <path class="cls-12" d="m243.4,539.2c-4.55,0-6.96,3.33-6.96,7.51s2.41,7.48,6.96,7.48,6.96-3.27,6.96-7.48-2.42-7.51-6.96-7.51Zm0,12.91c-2.46,0-4.46-1.91-4.46-5.4s2-5.43,4.46-5.43,4.46,1.97,4.46,5.43-1.99,5.4-4.46,5.4Z"/>
            <path class="cls-12" d="m254.1,541.61h-2.41v-2.08h2.41v-2.13c0-2.33,1.39-3.55,3.96-3.55.44,0,1.08.08,1.52.22v2.05c-.42-.14-.91-.19-1.33-.19-1.14,0-1.8.36-1.8,1.61v2h2.77v2.08h-2.77v12.25h-2.36v-12.25h.01Z"/>
            <path class="cls-12" d="m272.3,539.53h2.85v2.08h-2.85v8.9c0,1.08.3,1.27,1.77,1.27h1.08v2.08h-1.8c-2.44,0-3.41-.5-3.41-3.13v-9.12h-2.44v-2.08h2.44v-4.29h2.36v4.29h0Z"/>
            <path class="cls-12" d="m277.76,534.07h2.36v7.57h.06c.78-1.72,2.8-2.44,4.52-2.44,3.77,0,4.93,2.16,4.93,5.24v9.42h-2.35v-9.7c0-1.75-1.11-2.88-2.91-2.88-2.85,0-4.24,1.91-4.24,4.49v8.09h-2.36v-19.79h0Z"/>
            <path class="cls-12" d="m299.12,539.2c-3.9,0-6.73,3.16-6.73,7.45.14,4.38,2.3,7.54,6.87,7.54,3.21,0,5.48-1.72,6.12-4.88h-2.33c-.41,1.86-1.77,2.8-3.71,2.8-3.13,0-4.54-2.22-4.46-4.71h10.72c.14-3.46-1.41-8.2-6.48-8.2Zm-4.24,6.12c.16-2.18,1.63-4.04,4.1-4.04,2.33,0,4.02,1.8,4.13,4.04h-8.23Z"/>
            <path class="cls-12" d="m319.01,539.53h2.85v2.08h-2.85v8.9c0,1.08.3,1.27,1.77,1.27h1.08v2.08h-1.8c-2.44,0-3.41-.5-3.41-3.13v-9.12h-2.44v-2.08h2.44v-4.29h2.36v4.29h0Z"/>
            <path class="cls-12" d="m330.43,539.2c-3.9,0-6.73,3.16-6.73,7.45.14,4.38,2.3,7.54,6.87,7.54,3.21,0,5.48-1.72,6.12-4.88h-2.33c-.41,1.86-1.77,2.8-3.71,2.8-3.13,0-4.54-2.22-4.46-4.71h10.72c.14-3.46-1.41-8.2-6.48-8.2Zm-4.24,6.12c.16-2.18,1.63-4.04,4.1-4.04,2.33,0,4.02,1.8,4.13,4.04h-8.23Z"/>
            <path class="cls-12" d="m351.32,552.1c-.75,0-.75-.5-.75-1.61v-7.37c0-3.35-2.8-3.93-5.38-3.93-3.19,0-5.93,1.24-6.07,4.79h2.36c.11-2.1,1.57-2.71,3.57-2.71,1.5,0,3.19.33,3.19,2.38,0,1.78-2.22,1.61-4.82,2.11-2.44.48-4.85,1.17-4.85,4.41,0,2.86,2.13,4.02,4.74,4.02,1.99,0,3.74-.7,5.04-2.22,0,1.56.78,2.22,2,2.22.75,0,1.27-.14,1.69-.39v-1.84c-.3.11-.53.14-.72.14Zm-3.1-3.22c0,1.3-1.28,3.24-4.38,3.24-1.44,0-2.77-.56-2.77-2.11,0-1.75,1.33-2.3,2.88-2.58,1.58-.28,3.36-.3,4.27-.97v2.42Z"/>
            <path class="cls-12" d="m354.23,539.53h2.22v2.11h.06c1.05-1.61,2.66-2.44,4.63-2.44,1.75,0,3.35.69,3.94,2.44.97-1.52,2.66-2.44,4.49-2.44,2.85,0,4.77,1.19,4.77,4.16v10.5h-2.36v-9.39c0-1.77-.47-3.19-2.77-3.19s-3.74,1.44-3.74,3.66v8.92h-2.36v-9.39c0-1.86-.58-3.19-2.69-3.19-2.8,0-3.82,2.58-3.82,3.66v8.92h-2.36v-14.33h-.01Z"/>
          </g>
        </g>
        <g>
          <g>
            <path class="cls-12" d="m134.86,596.05c-6.11,5.32-9.44,16.25-9.52,24.02h-6.32c.67-8.6,4.24-16.96,9.77-23.61h-13.8v-5.49h19.87v5.07h0Z"/>
            <path class="cls-12" d="m168.12,604.44c-4.87,0-7.07,3.45-7.07,8.02s1.75,8.19,6.86,8.19,7.02-3.45,7.02-8.02-1.67-8.19-6.81-8.19Zm-.18,13.09h-.01c-2.66,0-2.66-3.24-2.66-5.03,0-1.92.17-4.95,2.83-4.95,2.46,0,2.58,3.37,2.58,4.99,0,1.75-.16,4.99-2.74,4.99Zm-3.7-27.47l-17.21,30.92h3.62l17.12-30.92h-3.53Zm-17.57.34c-4.87,0-7.07,3.66-7.07,8.23s1.75,7.98,6.86,7.98,7.02-3.23,7.02-7.81-1.67-8.39-6.81-8.4Zm-.18,13.09h-.01c-2.66,0-2.66-2.99-2.66-4.78,0-1.92.17-5.2,2.83-5.2,2.46,0,2.58,3.62,2.58,5.24,0,1.75-.16,4.74-2.74,4.74Z"/>
          </g>
          <g>
            <path class="cls-12" d="m187.82,596.11h13v2.22h-10.36v6.29h9.09v2.22h-9.09v9.06h-2.63v-19.79h0Z"/>
            <path class="cls-12" d="m209.52,601.24c-4.55,0-6.96,3.33-6.96,7.51s2.41,7.48,6.96,7.48,6.96-3.27,6.96-7.48-2.42-7.51-6.96-7.51Zm0,12.91c-2.46,0-4.46-1.91-4.46-5.4s2-5.43,4.46-5.43,4.46,1.97,4.46,5.43-1.99,5.4-4.46,5.4Z"/>
            <path class="cls-12" d="m231.1,615.89h-2.22v-2.27h-.06c-1,1.77-2.6,2.6-4.66,2.6-3.77,0-4.93-2.16-4.93-5.24v-9.42h2.36v9.7c0,1.75,1.11,2.88,2.91,2.88,2.85,0,4.24-1.91,4.24-4.49v-8.09h2.36v14.33h0Z"/>
            <path class="cls-12" d="m234.65,601.57h2.22v2.27h.06c1-1.77,2.6-2.6,4.66-2.6,3.77,0,4.93,2.16,4.93,5.24v9.42h-2.35v-9.7c0-1.75-1.11-2.88-2.91-2.88-2.85,0-4.24,1.91-4.24,4.49v8.09h-2.36v-14.33h0Z"/>
            <path class="cls-12" d="m260.49,596.1v7.37h-.05c-1.06-1.69-3.16-2.24-4.63-2.24-4.38,0-6.54,3.4-6.54,7.45s2.19,7.54,6.6,7.54c1.96,0,3.79-.69,4.57-2.27h.05v1.94h2.36v-19.79h-2.36Zm-4.29,18.04c-3.04,0-4.43-2.49-4.43-5.29s1.05-5.54,4.29-5.54,4.52,2.6,4.52,5.43-1.22,5.4-4.38,5.4Z"/>
            <path class="cls-12" d="m266.62,601.57v14.33h2.36v-14.33h-2.36Zm0-5.46v2.88h2.36v-2.88h-2.36Z"/>
            <path class="cls-12" d="m272.63,601.57h2.22v2.27h.06c1-1.77,2.6-2.6,4.66-2.6,3.77,0,4.93,2.16,4.93,5.24v9.42h-2.35v-9.7c0-1.75-1.11-2.88-2.91-2.88-2.85,0-4.24,1.91-4.24,4.49v8.09h-2.36v-14.33h-.01Z"/>
            <path class="cls-12" d="m298.19,601.58v2.05h-.03c-.86-1.58-2.47-2.38-4.27-2.38-4.96,0-6.62,4.18-6.62,7.56,0,3.91,2.13,7.26,6.4,7.26,1.8,0,3.68-.85,4.46-2.6h.05v.94c0,3.21-1.21,5.43-4.29,5.43-1.55,0-3.6-.61-3.71-2.33h-2.36c.14,3.13,3.24,4.21,5.93,4.21,4.52,0,6.65-2.39,6.65-7.04h0s0-13.1,0-13.1h-2.22Zm-4.38,12.4c-3.11,0-4.05-2.88-4.05-5.46,0-2.74,1.28-5.21,4.24-5.21s4.07,2.61,4.07,5.13h.01c0,2.69-1.16,5.54-4.27,5.54Z"/>
            <path class="cls-12" d="m316.52,598.33h-6.59v-2.22h15.82v2.22h-6.59v17.57h-2.63v-17.57h-.01Z"/>
            <path class="cls-12" d="m330.43,601.24c-3.9,0-6.73,3.16-6.73,7.45.14,4.38,2.3,7.54,6.87,7.54,3.21,0,5.48-1.72,6.12-4.88h-2.33c-.41,1.86-1.77,2.8-3.71,2.8-3.13,0-4.54-2.22-4.46-4.71h10.72c.14-3.46-1.41-8.2-6.48-8.2Zm-4.24,6.12c.17-2.18,1.63-4.04,4.1-4.04,2.33,0,4.02,1.8,4.13,4.04h-8.23Z"/>
            <path class="cls-12" d="m351.32,614.14c-.75,0-.75-.5-.75-1.61v-7.37c0-3.35-2.8-3.93-5.38-3.93-3.19,0-5.93,1.24-6.07,4.79h2.36c.11-2.1,1.57-2.71,3.57-2.71,1.5,0,3.19.33,3.19,2.38,0,1.78-2.22,1.61-4.82,2.11-2.44.48-4.85,1.17-4.85,4.41,0,2.86,2.13,4.02,4.74,4.02,1.99,0,3.74-.7,5.04-2.22,0,1.56.78,2.22,2,2.22.75,0,1.27-.14,1.69-.39v-1.84c-.3.11-.53.14-.72.14Zm-3.1-3.22c0,1.3-1.28,3.24-4.38,3.24-1.44,0-2.77-.56-2.77-2.11,0-1.75,1.33-2.3,2.88-2.58,1.58-.28,3.36-.3,4.27-.97v2.42Z"/>
            <path class="cls-12" d="m354.23,601.57h2.22v2.11h.06c1.05-1.61,2.66-2.44,4.63-2.44,1.75,0,3.35.69,3.94,2.44.97-1.52,2.66-2.44,4.49-2.44,2.85,0,4.77,1.19,4.77,4.16v10.5h-2.36v-9.39c0-1.77-.47-3.19-2.77-3.19s-3.74,1.44-3.74,3.66v8.92h-2.36v-9.39c0-1.86-.58-3.19-2.69-3.19-2.8,0-3.82,2.58-3.82,3.66v8.92h-2.36v-14.33h-.01Z"/>
          </g>
        </g>
        <g>
          <path class="cls-2" d="m892.43,149.17v160.99h-.16c-42.47,0-78.53,27.37-91.52,65.44l-152-49.39c15.58-47.96,43.17-88.32,78.99-118.33,44.58-37.37,101.91-58.71,164.69-58.71Z"/>
          <path class="cls-7" d="m648.75,326.22l152,49.39c-1.44,4.21-2.6,8.56-3.44,13.01l-157.2-27.72h0c.87-4.97,1.9-9.93,3.09-14.86,1.58-6.69,3.44-13.32,5.56-19.82Z"/>
          <path class="cls-8" d="m797.31,388.62c-1.13,5.9-1.72,11.99-1.72,18.22,0,.64.01,1.29.02,1.93l-159.24,5.56c-.24-7.02-.21-13.94.11-20.83.49-10.88,1.7-21.68,3.63-32.6l157.2,27.72Z"/>
          <path class="cls-6" d="m796.56,420.57l-157.19,24.9c-.7-4.42-1.25-8.44-1.68-12.38-.68-6.05-1.08-11.92-1.32-18.76l159.24-5.56c.08,4,.4,7.94.95,11.8Z"/>
          <path class="cls-4" d="m796.56,420.57c.89,6.25,2.37,12.31,4.4,18.11l-149.29,54.34h0c-2.72-7.49-5.02-14.74-6.96-22.05-2.19-8.26-3.93-16.61-5.34-25.5h.01l157.19-24.9Z"/>
          <path class="cls-10" d="m800.97,438.68c.92,2.69,1.97,5.32,3.14,7.89l-143.89,67.1c-1.53-3.27-2.78-6.04-3.93-8.77-1.56-3.69-2.95-7.29-4.62-11.88l149.29-54.34h0Z"/>
          <path class="cls-5" d="m829.51,480.38l-101.77,121.28c-13.23-11.1-24.57-22.42-34.54-34.62-12.91-15.8-23.53-33.11-32.98-53.37l143.89-67.1c5.9,13.08,14.63,24.61,25.4,33.81Z"/>
          <path class="cls-9" d="m923.66,659.7h-.01c-48.1,5.91-94.02-.92-135.82-19.9-21.17-9.62-41.29-22.35-60.09-38.13h0s101.77-121.29,101.77-121.29c16.89,14.43,38.81,23.14,62.76,23.14,4.1,0,8.14-.26,12.11-.76,0,0,0,0,0,0l19.27,156.94Z"/>
          <path class="cls-2" d="m1067.17,592.78c-17.93,16.72-36.7,30.21-56.8,40.69-26.3,13.74-54.86,22.32-86.71,26.23h-.01l-19.27-156.94s0,0,0,0c21.06-2.63,40.03-12.04,54.62-25.97l108.16,115.99Z"/>
          <path class="cls-7" d="m1143.05,458.66c-6.32,29.73-16.31,55.78-30.73,79.49-11.9,19.56-26.8,37.52-45.15,54.63l-108.16-115.99c14.16-13.52,24.23-31.3,28.13-51.27l155.91,33.14Z"/>
          <path class="cls-6" d="m1148.57,416.28c-.5,13.91-2.27,27.06-5.52,42.38l-155.91-33.14c1.19-6.04,1.81-12.29,1.81-18.68,0-2.18-.07-4.35-.22-6.5l159.57-8.36c.45,8.66.56,16.6.27,24.3Z"/>
          <path class="cls-1" d="m1148.3,391.98l-159.57,8.36c-3.33-50.32-45.17-90.1-96.3-90.18v-160.99c54.71,0,105.39,16.91,146.98,45.95,62.56,43.64,104.58,114.7,108.89,196.86Z"/>
        </g>
        <g>
          <path class="cls-12" d="m1504.68,406.07c6.29,0,9.48,4.99,9.48,10.36s-3.19,10.36-9.48,10.36-9.48-4.99-9.48-10.36,3.19-10.36,9.48-10.36Zm0,18.51c4.82,0,6.84-4.16,6.84-8.15s-2.02-8.15-6.84-8.15-6.84,4.16-6.84,8.15,2.02,8.15,6.84,8.15Z"/>
          <path class="cls-12" d="m1516.9,412h2.22v3.02h.06c1.14-2.3,2.71-3.44,5.26-3.35v2.49c-3.8,0-5.18,2.16-5.18,5.79v6.37h-2.36v-14.33Z"/>
          <path class="cls-12" d="m1528.71,409.42h-2.36v-2.88h2.36v2.88Zm-2.36,2.58h2.36v14.33h-2.36v-14.33Z"/>
          <path class="cls-12" d="m1544.72,425.1c0,4.66-2.13,7.04-6.65,7.04-2.69,0-5.79-1.08-5.93-4.21h2.36c.11,1.72,2.16,2.33,3.71,2.33,3.08,0,4.29-2.22,4.29-5.43v-.94h-.05c-.78,1.75-2.66,2.6-4.46,2.6-4.27,0-6.4-3.35-6.4-7.26,0-3.38,1.66-7.57,6.62-7.57,1.8,0,3.41.8,4.27,2.38h.03v-2.05h2.22v13.11Zm-2.33-6.23c0-2.52-1.11-5.13-4.07-5.13s-4.24,2.47-4.24,5.21c0,2.58.94,5.46,4.05,5.46s4.27-2.85,4.27-5.54Z"/>
          <path class="cls-12" d="m1550.76,409.42h-2.36v-2.88h2.36v2.88Zm-2.36,2.58h2.36v14.33h-2.36v-14.33Z"/>
          <path class="cls-12" d="m1554.42,412h2.22v2.27h.06c1-1.77,2.6-2.61,4.66-2.61,3.77,0,4.93,2.16,4.93,5.24v9.42h-2.36v-9.7c0-1.75-1.11-2.88-2.91-2.88-2.85,0-4.24,1.91-4.24,4.49v8.09h-2.36v-14.33Z"/>
          <path class="cls-12" d="m1582.51,426.27c-.42.25-.94.39-1.69.39-1.22,0-2-.67-2-2.22-1.3,1.52-3.05,2.22-5.04,2.22-2.61,0-4.74-1.16-4.74-4.02,0-3.24,2.41-3.93,4.85-4.41,2.6-.5,4.82-.33,4.82-2.11,0-2.05-1.69-2.38-3.19-2.38-2,0-3.46.61-3.57,2.71h-2.36c.14-3.55,2.88-4.79,6.07-4.79,2.58,0,5.38.58,5.38,3.94v7.37c0,1.11,0,1.61.75,1.61.19,0,.42-.03.72-.14v1.83Zm-3.82-7.34c-.91.67-2.69.69-4.27.97-1.55.28-2.88.83-2.88,2.58,0,1.55,1.33,2.11,2.77,2.11,3.1,0,4.38-1.94,4.38-3.24v-2.41Z"/>
          <path class="cls-12" d="m1584.84,406.54h2.36v19.79h-2.36v-19.79Z"/>
          <path class="cls-12" d="m1604.32,406.54h2.91l7.73,19.79h-2.91l-2.16-5.96h-8.37l-2.22,5.96h-2.72l7.73-19.79Zm-1.97,11.61h6.71l-3.3-9.23h-.05l-3.35,9.23Z"/>
          <path class="cls-12" d="m1619,409.42h-2.36v-2.88h2.36v2.88Zm-2.36,2.58h2.36v14.33h-2.36v-14.33Z"/>
          <path class="cls-12" d="m1622.58,412h2.22v3.02h.06c1.14-2.3,2.71-3.44,5.26-3.35v2.49c-3.8,0-5.18,2.16-5.18,5.79v6.37h-2.36v-14.33Z"/>
          <path class="cls-12" d="m1644.19,426.32h-2.36v-1.94h-.05c-.78,1.58-2.61,2.27-4.57,2.27-4.41,0-6.59-3.49-6.59-7.54s2.16-7.45,6.54-7.45c1.47,0,3.57.55,4.63,2.25h.05v-7.37h2.36v19.79Zm-6.65-1.75c3.16,0,4.38-2.72,4.38-5.4,0-2.83-1.27-5.43-4.52-5.43s-4.29,2.74-4.29,5.54,1.39,5.29,4.43,5.29Z"/>
          <path class="cls-12" d="m1647.73,412h2.22v3.02h.06c1.14-2.3,2.71-3.44,5.26-3.35v2.49c-3.8,0-5.18,2.16-5.18,5.79v6.37h-2.36v-14.33Z"/>
          <path class="cls-12" d="m1662.72,411.66c4.54,0,6.96,3.3,6.96,7.51s-2.41,7.48-6.96,7.48-6.96-3.3-6.96-7.48,2.41-7.51,6.96-7.51Zm0,12.91c2.47,0,4.46-1.94,4.46-5.4s-2-5.43-4.46-5.43-4.46,1.94-4.46,5.43,2,5.4,4.46,5.4Z"/>
          <path class="cls-12" d="m1672.53,412h2.36v1.94h.06c.78-1.58,2.6-2.27,4.57-2.27,4.41,0,6.59,3.49,6.59,7.54s-2.16,7.45-6.54,7.45c-1.47,0-3.57-.55-4.63-2.24h-.06v7.4h-2.36v-19.81Zm6.65,1.75c-3.16,0-4.38,2.71-4.38,5.4,0,2.83,1.27,5.43,4.52,5.43s4.29-2.74,4.29-5.54-1.39-5.29-4.43-5.29Z"/>
        </g>
        <g>
          <path class="cls-12" d="m1517.71,156.9h3.6l6.23,16.63,6.26-16.63h3.6v19.79h-2.49v-16.46h-.06l-6.18,16.46h-2.24l-6.18-16.46h-.05v16.46h-2.49v-19.79Z"/>
          <path class="cls-12" d="m1547.58,162.02c4.54,0,6.96,3.3,6.96,7.51s-2.41,7.48-6.96,7.48-6.96-3.3-6.96-7.48,2.41-7.51,6.96-7.51Zm0,12.91c2.47,0,4.46-1.94,4.46-5.4s-2-5.43-4.46-5.43-4.46,1.94-4.46,5.43,2,5.4,4.46,5.4Z"/>
          <path class="cls-12" d="m1557.3,162.36h2.22v2.27h.06c1-1.77,2.6-2.61,4.66-2.61,3.77,0,4.93,2.16,4.93,5.24v9.42h-2.36v-9.7c0-1.75-1.11-2.88-2.91-2.88-2.85,0-4.24,1.91-4.24,4.49v8.09h-2.36v-14.33Z"/>
          <path class="cls-12" d="m1575.98,162.36h2.85v2.08h-2.85v8.89c0,1.08.3,1.28,1.77,1.28h1.08v2.08h-1.8c-2.44,0-3.41-.5-3.41-3.13v-9.12h-2.44v-2.08h2.44v-4.29h2.36v4.29Z"/>
          <path class="cls-12" d="m1581.44,156.9h2.36v7.56h.06c.78-1.72,2.8-2.44,4.52-2.44,3.77,0,4.93,2.16,4.93,5.24v9.42h-2.36v-9.7c0-1.75-1.11-2.88-2.91-2.88-2.85,0-4.24,1.91-4.24,4.49v8.09h-2.36v-19.79Z"/>
          <path class="cls-12" d="m1596.98,156.9h2.36v19.79h-2.36v-19.79Z"/>
          <path class="cls-12" d="m1608.62,178.6c-1.08,2.8-2.05,3.82-4.16,3.82-.55,0-1.11-.05-1.63-.25v-2.16c.44.14.91.33,1.39.33.97,0,1.5-.47,1.94-1.3l.97-2.44-5.68-14.24h2.66l4.18,11.72h.05l4.02-11.72h2.49l-6.24,16.24Z"/>
          <path class="cls-12" d="m1624.94,156.9h13v2.22h-10.36v6.29h9.09v2.22h-9.09v9.06h-2.63v-19.79Z"/>
          <path class="cls-12" d="m1640.59,156.9h2.36v19.79h-2.36v-19.79Z"/>
          <path class="cls-12" d="m1659.3,176.63c-.42.25-.94.39-1.69.39-1.22,0-2-.67-2-2.22-1.3,1.52-3.05,2.22-5.04,2.22-2.61,0-4.74-1.16-4.74-4.02,0-3.24,2.41-3.93,4.85-4.41,2.6-.5,4.82-.33,4.82-2.11,0-2.05-1.69-2.38-3.19-2.38-2,0-3.46.61-3.57,2.71h-2.36c.14-3.55,2.88-4.79,6.07-4.79,2.58,0,5.38.58,5.38,3.94v7.37c0,1.11,0,1.61.75,1.61.19,0,.42-.03.72-.14v1.83Zm-3.82-7.34c-.91.67-2.69.69-4.27.97-1.55.28-2.88.83-2.88,2.58,0,1.55,1.33,2.11,2.77,2.11,3.1,0,4.38-1.94,4.38-3.24v-2.41Z"/>
          <path class="cls-12" d="m1661.4,162.36h2.22v3.02h.06c1.14-2.3,2.71-3.44,5.26-3.35v2.49c-3.8,0-5.18,2.16-5.18,5.79v6.37h-2.36v-14.33Z"/>
          <path class="cls-12" d="m1682.43,172.14c-.64,3.16-2.91,4.88-6.12,4.88-4.57,0-6.73-3.16-6.87-7.54,0-4.29,2.83-7.45,6.73-7.45,5.07,0,6.62,4.74,6.48,8.2h-10.72c-.08,2.49,1.33,4.71,4.46,4.71,1.94,0,3.3-.94,3.71-2.8h2.33Zm-2.27-3.99c-.11-2.24-1.8-4.04-4.13-4.04-2.47,0-3.94,1.86-4.1,4.04h8.23Z"/>
          <path class="cls-12" d="m1685.48,156.9h6.79c6.1,0,9.5,3.05,9.5,9.42s-2.91,10.36-9.5,10.36h-6.79v-19.79Zm2.63,17.57h4.38c1.8,0,6.65-.5,6.65-7.79,0-4.71-1.75-7.56-6.59-7.56h-4.43v15.35Z"/>
          <path class="cls-12" d="m1704.51,162.36h2.22v3.02h.06c1.14-2.3,2.71-3.44,5.26-3.35v2.49c-3.8,0-5.18,2.16-5.18,5.79v6.37h-2.36v-14.33Z"/>
          <path class="cls-12" d="m1719.5,162.02c4.54,0,6.96,3.3,6.96,7.51s-2.41,7.48-6.96,7.48-6.96-3.3-6.96-7.48,2.41-7.51,6.96-7.51Zm0,12.91c2.47,0,4.46-1.94,4.46-5.4s-2-5.43-4.46-5.43-4.46,1.94-4.46,5.43,2,5.4,4.46,5.4Z"/>
          <path class="cls-12" d="m1729.31,162.36h2.36v1.94h.06c.78-1.58,2.6-2.27,4.57-2.27,4.41,0,6.59,3.49,6.59,7.54s-2.16,7.45-6.54,7.45c-1.47,0-3.57-.55-4.63-2.24h-.06v7.4h-2.36v-19.81Zm6.65,1.75c-3.16,0-4.38,2.71-4.38,5.4,0,2.83,1.27,5.43,4.52,5.43s4.29-2.74,4.29-5.54-1.39-5.29-4.43-5.29Z"/>
          <path class="cls-12" d="m1747.1,172.17c.08,2.11,1.91,2.77,3.85,2.77,1.47,0,3.46-.33,3.46-2.13s-2.33-2.13-4.68-2.66c-2.33-.53-4.68-1.3-4.68-4.04,0-2.88,2.85-4.07,5.35-4.07,3.16,0,5.68,1,5.88,4.49h-2.36c-.17-1.83-1.77-2.41-3.33-2.41-1.41,0-3.05.39-3.05,1.83,0,1.69,2.49,1.97,4.68,2.49,2.36.53,4.68,1.3,4.68,4.07,0,3.41-3.19,4.52-6.1,4.52-3.21,0-5.93-1.3-6.07-4.85h2.36Z"/>
        </g>
      </g>
      <g>
        <path class="cls-12" d="m487.91,30.32h-3.32l-.79-3.48c-2.78,3.15-5.31,4.19-8.92,4.19-8.88,0-14.18-7.05-14.18-15.51s5.31-15.51,14.18-15.51c6.47,0,11.9,3.44,12.69,10.12h-5.06c-.5-3.9-3.9-5.89-7.63-5.89-6.35,0-9,5.6-9,11.28s2.65,11.28,9,11.28c5.31.08,8.21-3.11,8.29-8.13h-7.88v-3.94h12.61v15.59Z"/>
        <path class="cls-12" d="m496.58,20.82c0,3.36,1.83,6.35,5.76,6.35,2.74,0,4.4-1.2,5.23-3.57h4.48c-1.04,4.69-5.02,7.3-9.71,7.3-6.72,0-10.49-4.69-10.49-11.28,0-6.1,3.98-11.32,10.37-11.32,6.76,0,10.91,6.1,10.12,12.53h-15.76Zm11.03-3.11c-.17-2.99-2.2-5.68-5.39-5.68s-5.52,2.49-5.64,5.68h11.03Z"/>
        <path class="cls-12" d="m515.94,8.88h4.48v3.15l.08.08c1.41-2.36,3.86-3.82,6.68-3.82,4.64,0,7.59,2.49,7.59,7.3v14.72h-4.73v-13.48c-.08-3.36-1.41-4.81-4.19-4.81-3.15,0-5.18,2.49-5.18,5.64v12.65h-4.73V8.88Z"/>
        <path class="cls-12" d="m543.43,20.82c0,3.36,1.83,6.35,5.76,6.35,2.74,0,4.4-1.2,5.23-3.57h4.48c-1.04,4.69-5.02,7.3-9.71,7.3-6.72,0-10.49-4.69-10.49-11.28,0-6.1,3.98-11.32,10.37-11.32,6.76,0,10.91,6.1,10.12,12.53h-15.76Zm11.03-3.11c-.17-2.99-2.2-5.68-5.39-5.68s-5.52,2.49-5.64,5.68h11.03Z"/>
        <path class="cls-12" d="m566.37,23.43c.25,2.74,2.32,3.73,4.85,3.73,1.78,0,4.89-.37,4.77-2.82-.12-2.49-3.57-2.78-7.01-3.57-3.48-.75-6.88-1.99-6.88-6.34,0-4.69,5.06-6.14,8.96-6.14,4.4,0,8.38,1.83,8.96,6.59h-4.94c-.42-2.24-2.28-2.86-4.35-2.86-1.37,0-3.9.33-3.9,2.2,0,2.32,3.48,2.65,6.97,3.44,3.44.79,6.93,2.03,6.93,6.26,0,5.1-5.14,6.97-9.58,6.97-5.39,0-9.42-2.41-9.5-7.47h4.73Z"/>
        <path class="cls-12" d="m584.44.71h4.73v4.48h-4.73V.71Zm0,8.17h4.73v21.44h-4.73V8.88Z"/>
        <path class="cls-12" d="m597.88,23.43c.25,2.74,2.32,3.73,4.85,3.73,1.78,0,4.89-.37,4.77-2.82-.12-2.49-3.57-2.78-7.01-3.57-3.48-.75-6.88-1.99-6.88-6.34,0-4.69,5.06-6.14,8.96-6.14,4.4,0,8.38,1.83,8.96,6.59h-4.93c-.42-2.24-2.28-2.86-4.36-2.86-1.37,0-3.9.33-3.9,2.2,0,2.32,3.48,2.65,6.97,3.44,3.44.79,6.93,2.03,6.93,6.26,0,5.1-5.14,6.97-9.58,6.97-5.39,0-9.41-2.41-9.5-7.47h4.73Z"/>
        <path class="cls-12" d="m628.03.71h20.45v4.48h-15.26v7.76h13.4v4.23h-13.4v13.15h-5.18V.71Z"/>
        <path class="cls-12" d="m652.62.71h5.18v25.13h15.06v4.48h-20.24V.71Z"/>
        <path class="cls-12" d="m676.42.71h14.14c6.47,0,9.79,2.99,9.79,8,0,5.68-3.94,7.13-4.89,7.46v.08c1.78.25,4.4,1.58,4.4,6.26,0,3.44.5,6.59,1.62,7.8h-5.56c-.79-1.29-.79-2.9-.79-4.35,0-5.43-1.12-7.84-5.89-7.84h-7.63v12.19h-5.18V.71Zm5.18,13.48h8.5c3.28,0,5.06-1.62,5.06-4.73,0-3.77-2.45-4.52-5.14-4.52h-8.42v9.25Z"/>
        <path class="cls-12" d="m714.32.71h23.97v4.48h-9.41v25.13h-5.18V5.18h-9.37V.71Z"/>
        <path class="cls-12" d="m735.47,19.58c0-6.55,3.94-11.28,10.82-11.28s10.82,4.73,10.82,11.28-3.94,11.32-10.82,11.32-10.82-4.73-10.82-11.32Zm16.92,0c0-3.69-1.87-7.55-6.1-7.55s-6.1,3.86-6.1,7.55,1.87,7.59,6.1,7.59,6.1-3.86,6.1-7.59Z"/>
        <path class="cls-12" d="m761.18.71h4.73v16.84l8.54-8.67h5.81l-8.21,7.88,9,13.56h-5.76l-6.55-10.41-2.82,2.74v7.67h-4.73V.71Z"/>
        <path class="cls-12" d="m787.01,20.82c0,3.36,1.82,6.35,5.76,6.35,2.74,0,4.4-1.2,5.23-3.57h4.48c-1.04,4.69-5.02,7.3-9.7,7.3-6.72,0-10.49-4.69-10.49-11.28,0-6.1,3.98-11.32,10.37-11.32,6.76,0,10.91,6.1,10.12,12.53h-15.76Zm11.03-3.11c-.17-2.99-2.2-5.68-5.39-5.68s-5.52,2.49-5.64,5.68h11.03Z"/>
        <path class="cls-12" d="m806.38,8.88h4.48v3.15l.08.08c1.41-2.36,3.86-3.82,6.68-3.82,4.64,0,7.59,2.49,7.59,7.3v14.72h-4.73v-13.48c-.08-3.36-1.41-4.81-4.19-4.81-3.15,0-5.18,2.49-5.18,5.64v12.65h-4.73V8.88Z"/>
        <path class="cls-12" d="m842.37.71h12.28c9.12,0,13.06,6.64,13.06,14.81s-3.94,14.81-13.06,14.81h-12.28V.71Zm5.18,25.38h5.1c8.13,0,9.87-4.64,9.87-10.58s-1.74-10.58-9.87-10.58h-5.1v21.15Z"/>
        <path class="cls-12" d="m871.77.71h4.73v4.48h-4.73V.71Zm0,8.17h4.73v21.44h-4.73V8.88Z"/>
        <path class="cls-12" d="m885.21,23.43c.25,2.74,2.32,3.73,4.85,3.73,1.78,0,4.89-.37,4.77-2.82-.12-2.49-3.57-2.78-7.01-3.57-3.48-.75-6.88-1.99-6.88-6.34,0-4.69,5.06-6.14,8.96-6.14,4.4,0,8.38,1.83,8.96,6.59h-4.93c-.42-2.24-2.28-2.86-4.36-2.86-1.37,0-3.9.33-3.9,2.2,0,2.32,3.48,2.65,6.97,3.44,3.44.79,6.93,2.03,6.93,6.26,0,5.1-5.14,6.97-9.58,6.97-5.39,0-9.41-2.41-9.5-7.47h4.73Z"/>
        <path class="cls-12" d="m901,8.88h3.57V2.45h4.73v6.43h4.27v3.53h-4.27v11.45c0,1.95.17,2.94,2.28,2.94.66,0,1.33,0,1.99-.17v3.65c-1.04.08-2.03.25-3.07.25-4.94,0-5.85-1.91-5.93-5.47v-12.65h-3.57v-3.53Z"/>
        <path class="cls-12" d="m916.97,8.88h4.44v4.15h.08c.54-2.28,3.36-4.73,6.26-4.73,1.08,0,1.37.08,1.78.12v4.56c-.66-.08-1.37-.21-2.03-.21-3.24,0-5.81,2.61-5.81,7.34v10.2h-4.73V8.88Z"/>
        <path class="cls-12" d="m931.69.71h4.73v4.48h-4.73V.71Zm0,8.17h4.73v21.44h-4.73V8.88Z"/>
        <path class="cls-12" d="m941.68.71h4.73v10.95h.08c1.29-2.07,3.98-3.36,6.39-3.36,6.76,0,10.04,5.14,10.04,11.41,0,5.76-2.9,11.2-9.25,11.2-2.9,0-6.01-.71-7.42-3.53h-.08v2.94h-4.48V.71Zm10.58,11.32c-3.98,0-6.01,3.03-6.01,7.59,0,4.31,2.2,7.55,6.01,7.55,4.31,0,5.93-3.82,5.93-7.55s-2.03-7.59-5.93-7.59Z"/>
        <path class="cls-12" d="m985.72,30.32h-4.65v-2.99h-.08c-1.16,2.16-3.73,3.57-6.1,3.57-5.6,0-8-2.82-8-8.42v-13.6h4.73v13.15c0,3.77,1.54,5.14,4.11,5.14,3.94,0,5.27-2.53,5.27-5.85v-12.44h4.73v21.44Z"/>
        <path class="cls-12" d="m988.54,8.88h3.57V2.45h4.73v6.43h4.27v3.53h-4.27v11.45c0,1.95.17,2.94,2.28,2.94.66,0,1.33,0,1.99-.17v3.65c-1.04.08-2.03.25-3.07.25-4.93,0-5.85-1.91-5.93-5.47v-12.65h-3.57v-3.53Z"/>
        <path class="cls-12" d="m1004.63.71h4.73v4.48h-4.73V.71Zm0,8.17h4.73v21.44h-4.73V8.88Z"/>
        <path class="cls-12" d="m1013.5,19.58c0-6.55,3.94-11.28,10.82-11.28s10.83,4.73,10.83,11.28-3.94,11.32-10.83,11.32-10.82-4.73-10.82-11.32Zm16.92,0c0-3.69-1.87-7.55-6.1-7.55s-6.1,3.86-6.1,7.55,1.87,7.59,6.1,7.59,6.1-3.86,6.1-7.59Z"/>
        <path class="cls-12" d="m1039.09,8.88h4.48v3.15l.08.08c1.41-2.36,3.86-3.82,6.68-3.82,4.65,0,7.59,2.49,7.59,7.3v14.72h-4.73v-13.48c-.08-3.36-1.41-4.81-4.19-4.81-3.15,0-5.18,2.49-5.18,5.64v12.65h-4.73V8.88Z"/>
        <path class="cls-12" d="m1079.93,38.24c-3.32-5.27-5.97-11.2-5.97-19.12,0-6.68,2.2-13.31,5.97-19.12h3.86c-3.32,5.93-5.1,12.19-5.1,19.12s1.62,13.23,5.1,19.12h-3.86Z"/>
        <path class="cls-12" d="m1085.66,6.1c3.98.04,7.75-1.33,8.46-4.81h3.86v29.03h-5.18V9.83h-7.13v-3.73Z"/>
        <path class="cls-12" d="m1128.08,15.8c0,6.59-1.7,15.1-10.04,15.1s-10.04-8.5-10.04-15.1,1.7-15.1,10.04-15.1,10.04,8.5,10.04,15.1Zm-4.73,0c0-6.05-1.16-11.16-5.31-11.16s-5.31,5.1-5.31,11.16,1.16,11.16,5.31,11.16,5.31-5.1,5.31-11.16Z"/>
        <path class="cls-12" d="m1151.14,15.8c0,6.59-1.7,15.1-10.04,15.1s-10.04-8.5-10.04-15.1,1.7-15.1,10.04-15.1,10.04,8.5,10.04,15.1Zm-4.73,0c0-6.05-1.16-11.16-5.31-11.16s-5.31,5.1-5.31,11.16,1.16,11.16,5.31,11.16,5.31-5.1,5.31-11.16Z"/>
        <path class="cls-12" d="m1167.31.71h14.39c5.31,0,8.79,2.41,8.79,7.34,0,2.99-1.54,5.14-4.23,6.3v.08c3.61.79,5.56,3.61,5.56,7.63,0,4.64-3.24,8.25-10.91,8.25h-13.6V.71Zm5.18,12.4h8.46c2.49,0,4.35-1.45,4.35-4.11,0-2.99-1.53-4.06-4.35-4.06h-8.46v8.17Zm0,12.98h9.17c3.15,0,4.98-1.7,4.98-4.69s-1.83-4.56-4.98-4.56h-9.17v9.25Z"/>
        <path class="cls-12" d="m1195.96.71h4.73v4.48h-4.73V.71Zm0,8.17h4.73v21.44h-4.73V8.88Z"/>
        <path class="cls-12" d="m1205.95.71h4.73v29.61h-4.73V.71Z"/>
        <path class="cls-12" d="m1215.95.71h4.73v29.61h-4.73V.71Z"/>
        <path class="cls-12" d="m1225.94.71h4.73v4.48h-4.73V.71Zm0,8.17h4.73v21.44h-4.73V8.88Z"/>
        <path class="cls-12" d="m1234.81,19.58c0-6.55,3.94-11.28,10.82-11.28s10.83,4.73,10.83,11.28-3.94,11.32-10.83,11.32-10.82-4.73-10.82-11.32Zm16.92,0c0-3.69-1.87-7.55-6.1-7.55s-6.1,3.86-6.1,7.55,1.87,7.59,6.1,7.59,6.1-3.86,6.1-7.59Z"/>
        <path class="cls-12" d="m1260.4,8.88h4.48v3.15l.08.08c1.41-2.36,3.86-3.82,6.68-3.82,4.65,0,7.59,2.49,7.59,7.3v14.72h-4.73v-13.48c-.08-3.36-1.41-4.81-4.19-4.81-3.15,0-5.18,2.49-5.18,5.64v12.65h-4.73V8.88Z"/>
        <path class="cls-12" d="m1296.39.71h20.45v4.48h-15.26v7.76h13.4v4.23h-13.4v13.15h-5.18V.71Z"/>
        <path class="cls-12" d="m1320.98.71h5.18v25.13h15.05v4.48h-20.24V.71Z"/>
        <path class="cls-12" d="m1344.78.71h14.14c6.47,0,9.79,2.99,9.79,8,0,5.68-3.94,7.13-4.89,7.46v.08c1.78.25,4.4,1.58,4.4,6.26,0,3.44.5,6.59,1.62,7.8h-5.56c-.79-1.29-.79-2.9-.79-4.35,0-5.43-1.12-7.84-5.89-7.84h-7.63v12.19h-5.18V.71Zm5.18,13.48h8.5c3.28,0,5.06-1.62,5.06-4.73,0-3.77-2.45-4.52-5.14-4.52h-8.42v9.25Z"/>
        <path class="cls-12" d="m1374.35,0c3.32,5.31,5.97,11.24,5.97,19.16,0,6.68-2.2,13.31-5.97,19.08h-3.86c3.32-5.89,5.1-12.15,5.1-19.08s-1.62-13.23-5.1-19.16h3.86Z"/>
      </g>
    </g>
  </g>
</svg>