<svg width="1370" height="748" viewBox="0 0 1370 748" fill="none" xmlns="http://www.w3.org/2000/svg">
<g clip-path="url(#clip0_12_7025)">
<path d="M395.88 408.18L543.81 296.99H751.36" stroke="white" stroke-width="2" stroke-miterlimit="10"/>
<path d="M750.98 304.51C755.13 304.51 758.5 301.14 758.5 296.99C758.5 292.84 755.13 289.47 750.98 289.47C746.83 289.47 743.46 292.84 743.46 296.99C743.46 301.14 746.83 304.51 750.98 304.51Z" fill="white" stroke="white" stroke-miterlimit="10"/>
<path d="M173.21 292.54L227.64 139.29H744.12" stroke="white" stroke-width="2" stroke-miterlimit="10"/>
<path d="M746.78 146.67C752.07 147.68 756.64 143.11 755.63 137.82C755.07 134.86 752.68 132.48 749.72 131.91C744.43 130.9 739.86 135.47 740.87 140.76C741.43 143.72 743.82 146.1 746.78 146.67Z" fill="white" stroke="white" stroke-miterlimit="10"/>
<path d="M395.88 600L547.74 658.91H744.81" stroke="white" stroke-width="2" stroke-miterlimit="10"/>
<path d="M744.43 666.43C748.58 666.43 751.95 663.06 751.95 658.91C751.95 654.76 748.58 651.39 744.43 651.39C740.28 651.39 736.91 654.76 736.91 658.91C736.91 663.06 740.28 666.43 744.43 666.43Z" fill="white" stroke="white" stroke-miterlimit="10"/>
<path d="M436.46 485.98H751.36" stroke="white" stroke-width="2" stroke-miterlimit="10"/>
<path d="M750.98 493.5C755.13 493.5 758.5 490.13 758.5 485.98C758.5 481.83 755.13 478.46 750.98 478.46C746.83 478.46 743.46 481.83 743.46 485.98C743.46 490.13 746.83 493.5 750.98 493.5Z" fill="white" stroke="white" stroke-miterlimit="10"/>
<path d="M507.19 503.71C504.56 560.01 485.47 610.31 452.43 650.7C431 676.9 403.71 698.93 371.24 715.71L300.73 579.27C333.13 564.43 356.7 533.61 361.37 496.91L507.19 503.71Z" fill="#EC417E" stroke="white" stroke-width="7.52" stroke-miterlimit="10"/>
<path d="M371.24 715.71C330.22 736.91 290.01 745.7 243.88 743.55C104.94 737.06 -2.44001 619.17 4.03999 480.23C9.24999 368.57 86.41 277.29 188.63 249.12C213.6 242.23 240.07 239.12 267.35 240.39H267.36L260.93 378.2H260.92C259.58 378.15 258.23 378.12 256.87 378.12C198.69 378.12 151.52 425.29 151.52 483.47C151.52 541.65 198.69 588.82 256.87 588.82C272.52 588.82 287.38 585.41 300.73 579.27L371.24 715.71Z" fill="#E62058" stroke="white" stroke-width="7.52" stroke-miterlimit="10"/>
<path d="M506.38 468.58L362.2 482.03C361.46 425.87 316.75 380.31 260.93 378.2H260.92L267.35 240.39H267.36C359.57 244.7 437.43 295.96 477.82 372.12C493.18 401.08 503.12 433.63 506.38 468.58Z" fill="#F1719E" stroke="white" stroke-width="7.52" stroke-miterlimit="10"/>
<path d="M507.2 503.71H507.19L361.37 496.91C361.93 492.5 362.22 488.02 362.22 483.47C362.22 482.99 362.22 482.51 362.2 482.03L506.38 468.58H506.39C506.93 474.35 507.26 480.16 507.4 485.98C507.54 491.9 507.47 497.83 507.2 503.71Z" fill="#F5A4B8" stroke="white" stroke-width="7.5" stroke-miterlimit="10"/>
<path d="M923.17 136.53C922.69 134.11 920.75 132.88 918.37 132.88C914.29 132.88 912.56 136.24 912.56 139.82C912.56 143.73 914.29 147 918.39 147C921.39 147 923.12 144.89 923.33 142.06H925.61C925.18 146.33 922.51 148.92 918.19 148.92C912.86 148.92 910.27 144.98 910.27 139.99C910.27 135 913.1 130.96 918.38 130.96C921.96 130.96 924.91 132.88 925.44 136.53H923.16H923.17Z" fill="white"/>
<path d="M933.47 135.81C929.54 135.81 927.45 138.7 927.45 142.32C927.45 145.94 929.54 148.8 933.47 148.8C937.4 148.8 939.49 145.97 939.49 142.32C939.49 138.67 937.41 135.81 933.47 135.81ZM933.47 147C931.34 147 929.61 145.35 929.61 142.32C929.61 139.29 931.34 137.61 933.47 137.61C935.6 137.61 937.33 139.32 937.33 142.32C937.33 145.32 935.61 147 933.47 147Z" fill="white"/>
<path d="M941.89 136.1H943.81V137.92H943.86C944.77 136.53 946.16 135.81 947.87 135.81C949.38 135.81 950.77 136.41 951.28 137.92C952.12 136.6 953.58 135.81 955.17 135.81C957.64 135.81 959.3 136.84 959.3 139.41V148.51H957.26V140.37C957.26 138.83 956.85 137.61 954.86 137.61C952.87 137.61 951.62 138.86 951.62 140.78V148.51H949.58V140.37C949.58 138.76 949.08 137.61 947.25 137.61C944.83 137.61 943.94 139.84 943.94 140.78V148.51H941.9V136.1H941.89Z" fill="white"/>
<path d="M962.36 136.1H964.28V137.92H964.33C965.24 136.53 966.63 135.81 968.34 135.81C969.85 135.81 971.24 136.41 971.75 137.92C972.59 136.6 974.05 135.81 975.64 135.81C978.11 135.81 979.77 136.84 979.77 139.41V148.51H977.73V140.37C977.73 138.83 977.32 137.61 975.33 137.61C973.34 137.61 972.09 138.86 972.09 140.78V148.51H970.05V140.37C970.05 138.76 969.55 137.61 967.72 137.61C965.3 137.61 964.41 139.84 964.41 140.78V148.51H962.37V136.1H962.36Z" fill="white"/>
<path d="M993.11 148.51H991.19V146.54H991.14C990.28 148.08 988.88 148.8 987.11 148.8C983.85 148.8 982.84 146.93 982.84 144.26V136.1H984.88V144.5C984.88 146.01 985.84 147 987.4 147C989.87 147 991.07 145.34 991.07 143.11V136.1H993.11V148.51Z" fill="white"/>
<path d="M996.18 136.1H998.1V138.07H998.15C999.01 136.53 1000.41 135.81 1002.18 135.81C1005.44 135.81 1006.45 137.68 1006.45 140.35V148.51H1004.41V140.11C1004.41 138.6 1003.45 137.61 1001.89 137.61C999.42 137.61 998.22 139.27 998.22 141.5V148.51H996.18V136.1Z" fill="white"/>
<path d="M1009.64 136.1V148.51H1011.68V136.1H1009.64ZM1009.64 131.37V133.87H1011.68V131.37H1009.64Z" fill="white"/>
<path d="M1017.68 136.1H1020.15V137.9H1017.68V145.6C1017.68 146.54 1017.94 146.7 1019.22 146.7H1020.16V148.5H1018.6C1016.49 148.5 1015.65 148.07 1015.65 145.79V137.89H1013.54V136.09H1015.65V132.37H1017.69V136.09L1017.68 136.1Z" fill="white"/>
<path d="M1027.28 150.17C1026.34 152.59 1025.5 153.48 1023.68 153.48C1023.2 153.48 1022.72 153.43 1022.26 153.26V151.39C1022.64 151.51 1023.05 151.68 1023.46 151.68C1024.3 151.68 1024.76 151.27 1025.14 150.55L1025.98 148.44L1021.06 136.1H1023.36L1026.98 146.25H1027.03L1030.51 136.1H1032.67L1027.27 150.16H1027.28V150.17Z" fill="white"/>
<path d="M1041.42 131.37H1052.68V133.29H1043.7V138.74H1051.57V140.66H1043.7V148.51H1041.42V131.37Z" fill="white"/>
<path d="M1055.19 131.37H1057.47V146.59H1066.54V148.51H1055.19V131.37Z" fill="white"/>
<path d="M1081.4 143.78C1081.23 142.1 1080.82 140.63 1078.83 140.25V140.2C1080.9 139.63 1081.81 137.92 1081.81 135.86C1081.81 133.12 1079.82 131.37 1076.6 131.37H1068.54V148.51H1070.82V141.19H1076.39C1078.6 141.19 1079.01 142.61 1079.25 144.29C1079.58 145.97 1079.22 147.81 1079.87 148.51H1082.41C1081.45 147.33 1081.54 145.46 1081.4 143.78ZM1075.57 139.27H1070.82V133.29H1076.48C1078.62 133.29 1079.53 134.54 1079.53 136.22C1079.53 138.72 1077.71 139.27 1075.57 139.27Z" fill="white"/>
<path d="M1101.7 147C1101.05 147 1101.05 146.57 1101.05 145.61V139.23C1101.05 136.32 1098.62 135.82 1096.39 135.82C1093.63 135.82 1091.25 136.9 1091.13 139.97H1093.17C1093.27 138.15 1094.54 137.62 1096.27 137.62C1097.57 137.62 1099.03 137.9 1099.03 139.68C1099.03 141.21 1097.11 141.07 1094.85 141.5C1092.74 141.91 1090.65 142.51 1090.65 145.32C1090.65 147.79 1092.49 148.8 1094.75 148.8C1096.48 148.8 1097.99 148.2 1099.12 146.88C1099.12 148.22 1099.79 148.8 1100.85 148.8C1101.49 148.8 1101.95 148.67 1102.31 148.46V146.88C1102.05 146.98 1101.86 147 1101.69 147H1101.7ZM1098.99 142.11V144.18C1098.99 145.31 1097.89 146.99 1095.2 146.99C1093.95 146.99 1092.8 146.51 1092.8 145.17C1092.8 143.66 1093.96 143.18 1095.3 142.94C1096.66 142.7 1098.2 142.68 1098.99 142.11V142.09H1099C1099 142.09 1098.99 142.1 1098.99 142.11Z" fill="white"/>
<path d="M1104.32 131.37H1106.36V148.51H1104.32V131.37Z" fill="white"/>
<path d="M1109.65 131.37H1111.69V148.51H1109.65V131.37Z" fill="white"/>
<path d="M1120.21 135.81C1116.28 135.81 1114.19 138.7 1114.19 142.32C1114.19 145.94 1116.28 148.8 1120.21 148.8C1124.14 148.8 1126.23 145.97 1126.23 142.32C1126.23 138.67 1124.15 135.81 1120.21 135.81ZM1120.21 147C1118.08 147 1116.35 145.35 1116.35 142.32C1116.35 139.29 1118.08 137.61 1120.21 137.61C1122.34 137.61 1124.07 139.32 1124.07 142.32C1124.07 145.32 1122.35 147 1120.21 147Z" fill="white"/>
<path d="M1137.06 140.09C1136.75 138.53 1135.67 137.62 1133.99 137.62C1131.04 137.62 1130.13 139.95 1130.13 142.47C1130.13 144.75 1131.16 147.01 1133.75 147.01C1135.72 147.01 1136.89 145.86 1137.16 143.99H1139.25C1138.79 147.01 1136.9 148.82 1133.78 148.82C1129.99 148.82 1127.97 146.18 1127.97 142.48C1127.97 138.78 1129.89 135.83 1133.83 135.83C1136.64 135.83 1138.89 137.15 1139.18 140.1H1137.06V140.09Z" fill="white"/>
<path d="M1151.9 147C1151.25 147 1151.25 146.57 1151.25 145.61V139.23C1151.25 136.32 1148.82 135.82 1146.59 135.82C1143.83 135.82 1141.45 136.9 1141.33 139.97H1143.37C1143.47 138.15 1144.74 137.62 1146.47 137.62C1147.77 137.62 1149.23 137.9 1149.23 139.68C1149.23 141.21 1147.31 141.07 1145.05 141.5C1142.94 141.91 1140.85 142.51 1140.85 145.32C1140.85 147.79 1142.69 148.8 1144.95 148.8C1146.68 148.8 1148.19 148.2 1149.32 146.88C1149.32 148.22 1149.99 148.8 1151.05 148.8C1151.69 148.8 1152.15 148.67 1152.51 148.46H1152.52V146.88C1152.26 146.98 1152.07 147 1151.9 147ZM1149.19 142.11V144.18C1149.19 145.31 1148.09 146.99 1145.4 146.99C1144.15 146.99 1143 146.51 1143 145.17C1143 143.66 1144.16 143.18 1145.5 142.94C1146.86 142.7 1148.4 142.68 1149.19 142.11V142.09H1149.2C1149.2 142.09 1149.19 142.1 1149.19 142.11Z" fill="white"/>
<path d="M1157.24 136.1H1159.71V137.9H1157.24V145.6C1157.24 146.54 1157.5 146.7 1158.78 146.7H1159.72V148.5H1158.16C1156.05 148.5 1155.21 148.07 1155.21 145.79V137.89H1153.1V136.09H1155.21V132.37H1157.25V136.09H1157.24V136.1Z" fill="white"/>
<path d="M1162.09 136.1V148.51H1164.13V136.1H1162.09ZM1162.09 131.37V133.87H1164.13V131.37H1162.09Z" fill="white"/>
<path d="M1172.65 135.81C1168.72 135.81 1166.63 138.7 1166.63 142.32C1166.63 145.94 1168.72 148.8 1172.65 148.8C1176.58 148.8 1178.67 145.97 1178.67 142.32C1178.67 138.67 1176.59 135.81 1172.65 135.81ZM1172.65 147C1170.52 147 1168.79 145.35 1168.79 142.32C1168.79 139.29 1170.52 137.61 1172.65 137.61C1174.78 137.61 1176.51 139.32 1176.51 142.32C1176.51 145.32 1174.79 147 1172.65 147Z" fill="white"/>
<path d="M1181.07 136.1H1182.99V138.07H1183.04C1183.9 136.53 1185.3 135.81 1187.07 135.81C1190.33 135.81 1191.34 137.68 1191.34 140.35V148.51H1189.3V140.11C1189.3 138.6 1188.34 137.61 1186.78 137.61C1184.31 137.61 1183.11 139.27 1183.11 141.5V148.51H1181.07V136.1Z" fill="white"/>
<path d="M786.83 296.84C786.65 291.08 789.93 286.65 795.97 286.65C800.58 286.65 804.61 289.6 804.61 294.53C804.61 298.31 802.59 300.4 800.11 302.16C797.63 303.92 794.67 305.36 792.84 307.95H804.76V312.34H786.26C786.3 306.51 789.86 304.03 794.22 301.07C796.45 299.56 799.47 298.01 799.51 294.91C799.51 292.53 797.93 291.02 795.73 291.02C792.71 291.02 791.73 294.15 791.73 296.82H786.83V296.84Z" fill="white"/>
<path d="M806.84 296.84C806.66 291.08 809.94 286.65 815.98 286.65C820.59 286.65 824.62 289.6 824.62 294.53C824.62 298.31 822.6 300.4 820.12 302.16C817.64 303.92 814.68 305.36 812.85 307.95H824.77V312.34H806.27C806.31 306.51 809.87 304.03 814.23 301.07C816.46 299.56 819.48 298.01 819.52 294.91C819.52 292.53 817.94 291.02 815.74 291.02C812.72 291.02 811.74 294.15 811.74 296.82H806.84V296.84Z" fill="white"/>
<path d="M827.69 306.81H833.34V312.35H827.69V306.81Z" fill="white"/>
<path d="M845.1 286.66C839.84 286.66 836.28 290.72 836.28 295.87C836.28 297.85 836.89 299.94 838.22 301.49C839.66 303.07 841.86 304.08 844.02 304.08C846.47 304.08 848.31 303.25 849.71 301.27L849.78 301.34C849.64 304.15 848.67 309.01 844.96 309.01C843.2 309.01 841.9 307.57 841.58 305.88H836.71C837.29 310.3 840.52 312.86 844.88 312.86C852.04 312.86 854.78 306.06 854.78 299.69C854.78 293.32 852.73 286.66 845.1 286.66ZM845.25 300.23C842.62 300.23 841.4 297.75 841.4 295.48C841.4 293.21 842.69 290.87 845.25 290.87C847.81 290.87 849.32 293.21 849.32 295.55C849.32 298.03 847.88 300.23 845.25 300.23Z" fill="white"/>
<path d="M882.95 298.82C878.74 298.82 876.83 301.81 876.83 305.77C876.83 309.73 878.34 312.86 882.77 312.86C887.2 312.86 888.85 309.87 888.85 305.91C888.85 301.95 887.41 298.82 882.95 298.82ZM882.81 310.16C880.51 310.16 880.51 307.35 880.51 305.8C880.51 304.15 880.66 301.52 882.96 301.52C885.08 301.52 885.19 304.44 885.19 305.84C885.19 307.35 885.04 310.16 882.81 310.16ZM879.6 286.37L864.7 313.15H867.83L882.66 286.37H879.6ZM864.37 286.66C860.16 286.66 858.25 289.83 858.25 293.79C858.25 297.75 859.76 300.7 864.19 300.7C868.62 300.7 870.27 297.89 870.27 293.93C870.27 289.97 868.83 286.66 864.37 286.66ZM864.23 298C861.93 298 861.93 295.41 861.93 293.86C861.93 292.2 862.08 289.36 864.38 289.36C866.5 289.36 866.61 292.5 866.61 293.9C866.61 295.41 866.46 298 864.23 298Z" fill="white"/>
<path d="M910.27 291.25H921.53V293.17H912.55V298.62H920.42V300.54H912.55V308.39H910.27V291.25Z" fill="white"/>
<path d="M923.83 291.25H925.87V308.39H923.83V291.25Z" fill="white"/>
<path d="M939.42 306.88C938.77 306.88 938.77 306.45 938.77 305.49V299.11C938.77 296.2 936.34 295.7 934.11 295.7C931.35 295.7 928.97 296.78 928.85 299.85H930.89C930.99 298.03 932.26 297.5 933.99 297.5C935.29 297.5 936.75 297.78 936.75 299.56C936.75 301.09 934.83 300.95 932.57 301.38C930.46 301.79 928.37 302.39 928.37 305.2C928.37 307.67 930.21 308.68 932.47 308.68C934.2 308.68 935.71 308.08 936.84 306.76C936.84 308.1 937.51 308.68 938.57 308.68C939.21 308.68 939.67 308.56 940.03 308.34H940.04V306.76C939.78 306.86 939.59 306.88 939.42 306.88ZM936.71 301.99V304.06C936.71 305.19 935.61 306.87 932.92 306.87C931.67 306.87 930.52 306.39 930.52 305.05C930.52 303.54 931.68 303.06 933.02 302.82C934.38 302.58 935.92 302.56 936.71 301.99V301.97C936.71 301.97 936.71 301.98 936.71 301.99Z" fill="white"/>
<path d="M941.86 295.98H943.78V298.6H943.83C944.81 296.61 946.18 295.62 948.39 295.7V297.86C945.1 297.86 943.9 299.73 943.9 302.88V308.4H941.86V295.99V295.98Z" fill="white"/>
<path d="M954.65 295.68C951.27 295.68 948.82 298.42 948.82 302.14C948.94 305.93 950.81 308.67 954.77 308.67C957.55 308.67 959.52 307.19 960.07 304.45H960.08H958.06C957.7 306.05 956.52 306.87 954.84 306.87C952.13 306.87 950.91 304.95 950.98 302.79H960.27C960.39 299.79 959.04 295.69 954.65 295.69V295.68ZM950.97 300.99C951.11 299.1 952.38 297.49 954.52 297.49C956.54 297.49 958 299.04 958.1 300.99H950.97Z" fill="white"/>
<path d="M975.26 291.25H969.38V308.39H975.26C980.97 308.39 983.49 304.93 983.49 299.41C983.49 293.89 980.54 291.25 975.26 291.25ZM975.45 306.47H971.66V293.17H975.5C979.7 293.17 981.21 295.64 981.21 299.72C981.21 306.04 977.01 306.47 975.45 306.47Z" fill="white"/>
<path d="M991.11 295.68C987.73 295.68 985.28 298.42 985.28 302.14C985.4 305.93 987.27 308.67 991.23 308.67C994.01 308.67 995.98 307.19 996.53 304.45H996.54H994.52C994.16 306.05 992.98 306.87 991.3 306.87C988.59 306.87 987.37 304.95 987.44 302.79H996.73C996.85 299.79 995.5 295.69 991.11 295.69V295.68ZM987.43 300.99C987.57 299.1 988.84 297.49 990.98 297.49C993 297.49 994.46 299.04 994.56 300.99H987.43Z" fill="white"/>
<path d="M1004.42 308.39H1002.24L997.63 295.98H999.91L1003.39 306.33H1003.44L1006.82 295.98H1008.96L1004.42 308.39Z" fill="white"/>
<path d="M1016 295.68C1012.62 295.68 1010.17 298.42 1010.17 302.14C1010.29 305.93 1012.16 308.67 1016.12 308.67C1018.9 308.67 1020.87 307.19 1021.42 304.45H1021.43H1019.41C1019.05 306.05 1017.87 306.87 1016.19 306.87C1013.48 306.87 1012.26 304.95 1012.33 302.79H1021.62C1021.74 299.79 1020.39 295.69 1016 295.69V295.68ZM1012.32 300.99C1012.46 299.1 1013.73 297.49 1015.87 297.49C1017.89 297.49 1019.35 299.04 1019.45 300.99H1012.32Z" fill="white"/>
<path d="M1023.84 291.25H1025.88V308.39H1023.84V291.25Z" fill="white"/>
<path d="M1034.4 295.69C1030.47 295.69 1028.38 298.57 1028.38 302.19C1028.38 305.81 1030.47 308.67 1034.4 308.67C1038.33 308.67 1040.42 305.83 1040.42 302.19C1040.42 298.55 1038.34 295.69 1034.4 295.69ZM1034.4 306.87C1032.27 306.87 1030.54 305.21 1030.54 302.19C1030.54 299.17 1032.27 297.49 1034.4 297.49C1036.53 297.49 1038.26 299.19 1038.26 302.19C1038.26 305.19 1036.54 306.87 1034.4 306.87Z" fill="white"/>
<path d="M1048.94 295.69C1047.24 295.69 1045.65 296.29 1044.98 297.66H1044.93V295.98H1042.89V313.15H1044.93V306.74H1044.98C1045.89 308.2 1047.72 308.68 1048.99 308.68C1052.78 308.68 1054.65 305.73 1054.65 302.22C1054.65 298.71 1052.76 295.69 1048.94 295.69ZM1048.77 306.87C1045.96 306.87 1044.86 304.62 1044.86 302.17C1044.86 299.72 1045.91 297.49 1048.65 297.49C1051.39 297.49 1052.49 299.65 1052.49 302.07C1052.49 304.49 1051.58 306.87 1048.77 306.87Z" fill="white"/>
<path d="M1057.05 295.98H1058.97V297.8H1059.02C1059.93 296.41 1061.32 295.69 1063.03 295.69C1064.54 295.69 1065.93 296.29 1066.44 297.8C1067.28 296.48 1068.74 295.69 1070.33 295.69C1072.8 295.69 1074.46 296.72 1074.46 299.29V308.39H1072.42V300.25C1072.42 298.71 1072.01 297.49 1070.02 297.49C1068.03 297.49 1066.78 298.74 1066.78 300.66V308.39H1064.74V300.25C1064.74 298.64 1064.24 297.49 1062.41 297.49C1059.99 297.49 1059.1 299.72 1059.1 300.66V308.39H1057.06V295.98H1057.05Z" fill="white"/>
<path d="M1082.69 295.68C1079.31 295.68 1076.86 298.42 1076.86 302.14C1076.98 305.93 1078.85 308.67 1082.81 308.67C1085.59 308.67 1087.56 307.19 1088.11 304.45H1088.12H1086.1C1085.74 306.05 1084.56 306.87 1082.88 306.87C1080.17 306.87 1078.95 304.95 1079.02 302.79H1088.31C1088.43 299.79 1087.08 295.69 1082.69 295.69V295.68ZM1079.01 300.99C1079.15 299.1 1080.42 297.49 1082.56 297.49C1084.58 297.49 1086.04 299.04 1086.14 300.99H1079.01Z" fill="white"/>
<path d="M1090.41 295.98H1092.33V297.95H1092.38C1093.24 296.41 1094.64 295.69 1096.41 295.69C1099.67 295.69 1100.68 297.56 1100.68 300.23V308.39H1098.64V299.99C1098.64 298.48 1097.68 297.49 1096.12 297.49C1093.65 297.49 1092.45 299.15 1092.45 301.38V308.39H1090.41V295.98Z" fill="white"/>
<path d="M1106.59 295.98H1109.06V297.78H1106.59V305.49C1106.59 306.43 1106.85 306.59 1108.13 306.59H1109.07V308.39H1107.51C1105.4 308.39 1104.56 307.96 1104.56 305.68V297.78H1102.45V295.98H1104.56V292.26H1106.6V295.98H1106.59Z" fill="white"/>
<path d="M1131.26 306.88C1130.61 306.88 1130.61 306.45 1130.61 305.49V299.11C1130.61 296.2 1128.18 295.7 1125.95 295.7C1123.19 295.7 1120.81 296.78 1120.69 299.85H1122.73C1122.83 298.03 1124.1 297.5 1125.83 297.5C1127.13 297.5 1128.59 297.78 1128.59 299.56C1128.59 301.09 1126.67 300.95 1124.41 301.38C1122.3 301.79 1120.21 302.39 1120.21 305.2C1120.21 307.67 1122.05 308.68 1124.31 308.68C1126.04 308.68 1127.55 308.08 1128.68 306.76C1128.68 308.1 1129.35 308.68 1130.41 308.68C1131.05 308.68 1131.51 308.56 1131.87 308.34H1131.88V306.76C1131.62 306.86 1131.43 306.88 1131.26 306.88ZM1128.55 301.99V304.06C1128.55 305.19 1127.45 306.87 1124.76 306.87C1123.51 306.87 1122.36 306.39 1122.36 305.05C1122.36 303.54 1123.52 303.06 1124.86 302.82C1126.22 302.58 1127.76 302.56 1128.55 301.99V301.97H1128.56C1128.56 301.97 1128.55 301.98 1128.55 301.99Z" fill="white"/>
<path d="M1133.77 295.98H1135.69V297.95H1135.74C1136.6 296.41 1138 295.69 1139.77 295.69C1143.03 295.69 1144.04 297.56 1144.04 300.23V308.39H1142V299.99C1142 298.48 1141.04 297.49 1139.48 297.49C1137.01 297.49 1135.81 299.15 1135.81 301.38V308.39H1133.77V295.98Z" fill="white"/>
<path d="M1156.16 291.25V297.63H1156.11C1155.2 296.17 1153.37 295.69 1152.1 295.69C1148.31 295.69 1146.44 298.64 1146.44 302.15C1146.44 305.66 1148.33 308.68 1152.15 308.68C1153.85 308.68 1155.44 308.08 1156.11 306.71H1156.16V308.39H1158.2V291.25H1156.16ZM1152.44 306.88C1149.8 306.88 1148.6 304.72 1148.6 302.3C1148.6 299.88 1149.51 297.5 1152.32 297.5C1155.13 297.5 1156.23 299.75 1156.23 302.2C1156.23 304.65 1155.18 306.88 1152.44 306.88Z" fill="white"/>
<path d="M1168.44 291.25H1170.72V308.39H1168.44V291.25Z" fill="white"/>
<path d="M1174.23 295.98H1176.15V297.95H1176.2C1177.06 296.41 1178.46 295.69 1180.23 295.69C1183.49 295.69 1184.5 297.56 1184.5 300.23V308.39H1182.46V299.99C1182.46 298.48 1181.5 297.49 1179.94 297.49C1177.47 297.49 1176.27 299.15 1176.27 301.38V308.39H1174.23V295.98Z" fill="white"/>
<path d="M1193.16 308.39H1190.98L1186.37 295.98H1188.65L1192.13 306.33H1192.18L1195.56 295.98H1197.7L1193.16 308.39Z" fill="white"/>
<path d="M1204.74 295.68C1201.36 295.68 1198.91 298.42 1198.91 302.14C1199.03 305.93 1200.9 308.67 1204.86 308.67C1207.64 308.67 1209.61 307.19 1210.16 304.45H1210.17H1208.15C1207.79 306.05 1206.61 306.87 1204.93 306.87C1202.22 306.87 1201 304.95 1201.07 302.79H1210.36C1210.48 299.79 1209.13 295.69 1204.74 295.69V295.68ZM1201.06 300.99C1201.2 299.1 1202.47 297.49 1204.61 297.49C1206.63 297.49 1208.09 299.04 1208.19 300.99H1201.06Z" fill="white"/>
<path d="M1213.71 304.48C1213.78 306.3 1215.37 306.88 1217.05 306.88C1218.32 306.88 1220.05 306.59 1220.05 305.03C1220.05 303.47 1218.03 303.18 1215.99 302.73C1213.97 302.27 1211.93 301.6 1211.93 299.23C1211.93 296.73 1214.4 295.7 1216.56 295.7C1219.3 295.7 1221.48 296.56 1221.65 299.59H1219.61C1219.47 298.01 1218.07 297.5 1216.73 297.5C1215.51 297.5 1214.09 297.84 1214.09 299.08C1214.09 300.54 1216.25 300.78 1218.15 301.24C1220.19 301.7 1222.21 302.37 1222.21 304.77C1222.21 307.72 1219.45 308.68 1216.93 308.68C1214.14 308.68 1211.79 307.55 1211.67 304.48H1213.71Z" fill="white"/>
<path d="M1227.29 295.98H1229.76V297.78H1227.29V305.49C1227.29 306.43 1227.55 306.59 1228.83 306.59H1229.77V308.39H1228.21C1226.1 308.39 1225.26 307.96 1225.26 305.68V297.78H1223.15V295.98H1225.26V292.26H1227.3V295.98H1227.29Z" fill="white"/>
<path d="M1232.02 295.98H1233.94V297.8H1233.99C1234.9 296.41 1236.29 295.69 1238 295.69C1239.51 295.69 1240.9 296.29 1241.41 297.8C1242.25 296.48 1243.71 295.69 1245.3 295.69C1247.77 295.69 1249.43 296.72 1249.43 299.29V308.39H1247.39V300.25C1247.39 298.71 1246.98 297.49 1244.99 297.49C1243 297.49 1241.75 298.74 1241.75 300.66V308.39H1239.71V300.25C1239.71 298.64 1239.21 297.49 1237.38 297.49C1234.96 297.49 1234.07 299.72 1234.07 300.66V308.39H1232.03V295.98H1232.02Z" fill="white"/>
<path d="M1257.66 295.68C1254.28 295.68 1251.83 298.42 1251.83 302.14C1251.95 305.93 1253.82 308.67 1257.78 308.67C1260.56 308.67 1262.53 307.19 1263.08 304.45H1263.09H1261.07C1260.71 306.05 1259.53 306.87 1257.85 306.87C1255.14 306.87 1253.92 304.95 1253.99 302.79H1263.28C1263.4 299.79 1262.05 295.69 1257.66 295.69V295.68ZM1253.98 300.99C1254.12 299.1 1255.39 297.49 1257.53 297.49C1259.55 297.49 1261.01 299.04 1261.11 300.99H1253.98Z" fill="white"/>
<path d="M1265.38 295.98H1267.3V297.95H1267.35C1268.21 296.41 1269.61 295.69 1271.38 295.69C1274.64 295.69 1275.65 297.56 1275.65 300.23V308.39H1273.61V299.99C1273.61 298.48 1272.65 297.49 1271.09 297.49C1268.62 297.49 1267.42 299.15 1267.42 301.38V308.39H1265.38V295.98Z" fill="white"/>
<path d="M1281.56 295.98H1284.03V297.78H1281.56V305.49C1281.56 306.43 1281.82 306.59 1283.1 306.59H1284.04V308.39H1282.48C1280.37 308.39 1279.53 307.96 1279.53 305.68V297.78H1277.42V295.98H1279.53V292.26H1281.57V295.98H1281.56Z" fill="white"/>
<path d="M1293.29 291.25H1305.12V293.17H1295.57V298.62H1304.47V300.54H1295.57V306.47H1305.19V308.39H1293.28V291.25H1293.29Z" fill="white"/>
<path d="M1307.62 295.98H1309.54V297.95H1309.59C1310.45 296.41 1311.85 295.69 1313.62 295.69C1316.88 295.69 1317.89 297.56 1317.89 300.23V308.39H1315.85V299.99C1315.85 298.48 1314.89 297.49 1313.33 297.49C1310.86 297.49 1309.66 299.15 1309.66 301.38V308.39H1307.62V295.98Z" fill="white"/>
<path d="M1323.79 295.98H1326.26V297.78H1323.79V305.49C1323.79 306.43 1324.05 306.59 1325.33 306.59H1326.27V308.39H1324.71C1322.6 308.39 1321.76 307.96 1321.76 305.68V297.78H1319.65V295.98H1321.76V292.26H1323.8V295.98H1323.79Z" fill="white"/>
<path d="M1328.64 295.98V308.39H1330.68V295.98H1328.64ZM1328.64 291.25V293.75H1330.68V291.25H1328.64Z" fill="white"/>
<path d="M1336.68 295.98H1339.15V297.78H1336.68V305.49C1336.68 306.43 1336.94 306.59 1338.22 306.59H1339.16V308.39H1337.6C1335.49 308.39 1334.65 307.96 1334.65 305.68V297.78H1332.54V295.98H1334.65V292.26H1336.69V295.98H1336.68Z" fill="white"/>
<path d="M1341.53 295.98V308.39H1343.57V295.98H1341.53ZM1341.53 291.25V293.75H1343.57V291.25H1341.53Z" fill="white"/>
<path d="M1351.9 295.68C1348.52 295.68 1346.07 298.42 1346.07 302.14C1346.19 305.93 1348.06 308.67 1352.02 308.67C1354.8 308.67 1356.77 307.19 1357.32 304.45H1357.33H1355.31C1354.95 306.05 1353.77 306.87 1352.09 306.87C1349.38 306.87 1348.16 304.95 1348.23 302.79H1357.52C1357.64 299.79 1356.29 295.69 1351.9 295.69V295.68ZM1348.22 300.99C1348.36 299.1 1349.63 297.49 1351.77 297.49C1353.79 297.49 1355.25 299.04 1355.35 300.99H1348.22Z" fill="white"/>
<path d="M1360.87 304.48C1360.94 306.3 1362.53 306.88 1364.21 306.88C1365.48 306.88 1367.21 306.59 1367.21 305.03C1367.21 303.47 1365.19 303.18 1363.15 302.73C1361.13 302.27 1359.09 301.6 1359.09 299.23C1359.09 296.73 1361.56 295.7 1363.72 295.7C1366.46 295.7 1368.64 296.56 1368.81 299.59H1366.77C1366.63 298.01 1365.23 297.5 1363.89 297.5C1362.67 297.5 1361.25 297.84 1361.25 299.08C1361.25 300.54 1363.41 300.78 1365.31 301.24C1367.35 301.7 1369.37 302.37 1369.37 304.77C1369.37 307.72 1366.61 308.68 1364.09 308.68C1361.3 308.68 1358.95 307.55 1358.83 304.48H1360.87Z" fill="white"/>
<path d="M786.83 481.95C786.65 476.19 789.93 471.76 795.97 471.76C800.58 471.76 804.61 474.71 804.61 479.64C804.61 483.42 802.59 485.51 800.11 487.27C797.63 489.03 794.67 490.47 792.84 493.06H804.76V497.45H786.26C786.3 491.62 789.86 489.13 794.22 486.18C796.45 484.67 799.47 483.12 799.51 480.02C799.51 477.64 797.93 476.13 795.73 476.13C792.71 476.13 791.73 479.26 791.73 481.92H786.83V481.95Z" fill="white"/>
<path d="M807.67 491.92H813.32V497.46H807.67V491.92Z" fill="white"/>
<path d="M829.63 497.47H824.52V481.13H818.19V477.28C821.75 477.35 825.03 476.13 825.57 472.28H829.64V497.48H829.63V497.47Z" fill="white"/>
<path d="M862.93 483.94C858.72 483.94 856.81 486.93 856.81 490.89C856.81 494.85 858.32 497.98 862.75 497.98C867.18 497.98 868.83 494.99 868.83 491.03C868.83 487.07 867.39 483.94 862.93 483.94ZM862.79 495.28C860.49 495.28 860.49 492.47 860.49 490.92C860.49 489.27 860.64 486.64 862.94 486.64C865.06 486.64 865.17 489.56 865.17 490.96C865.17 492.47 865.02 495.28 862.79 495.28ZM859.58 471.48L844.68 498.26H847.81L862.64 471.48H859.58ZM844.35 471.77C840.14 471.77 838.23 474.94 838.23 478.9C838.23 482.86 839.74 485.81 844.17 485.81C848.6 485.81 850.25 483 850.25 479.04C850.25 475.08 848.81 471.77 844.35 471.77ZM844.21 483.11C841.91 483.11 841.91 480.52 841.91 478.97C841.91 477.31 842.06 474.47 844.36 474.47C846.48 474.47 846.59 477.61 846.59 479.01C846.59 480.52 846.44 483.11 844.21 483.11Z" fill="white"/>
<path d="M920.5 488.92V488.87C922.08 488.22 923.04 486.85 923.04 485.03C923.04 483.35 922.15 482.12 921.02 481.45C919.98 480.83 917.99 480.83 916.48 480.83H910.27V497.97H918.55C921.96 497.97 923.76 495.57 923.76 493.05C923.76 490.94 922.61 489.35 920.5 488.92ZM912.54 482.75H917.1C919.07 482.75 920.75 483.08 920.75 485.46C920.75 487.26 919.69 488.2 917.1 488.2H912.54V482.75ZM918.25 496.05H912.54V490.12H917.75C919.67 490.12 921.47 490.75 921.47 492.98C921.47 494.85 920.22 496.05 918.25 496.05Z" fill="white"/>
<path d="M936.64 497.97H934.72V496H934.67C933.81 497.54 932.41 498.26 930.64 498.26C927.38 498.26 926.37 496.39 926.37 493.72V485.56H928.41V493.96C928.41 495.47 929.37 496.46 930.93 496.46C933.4 496.46 934.6 494.8 934.6 492.57V485.56H936.64V497.97Z" fill="white"/>
<path d="M939.64 485.56H941.56V488.18H941.61C942.59 486.19 943.96 485.2 946.17 485.28V487.44C942.88 487.44 941.68 489.31 941.68 492.46V497.98H939.64V485.57V485.56Z" fill="white"/>
<path d="M948.13 485.56H950.05V487.53H950.1C950.96 485.99 952.36 485.27 954.13 485.27C957.39 485.27 958.4 487.14 958.4 489.81V497.97H956.36V489.57C956.36 488.06 955.4 487.07 953.84 487.07C951.37 487.07 950.17 488.73 950.17 490.96V497.97H948.13V485.56Z" fill="white"/>
<path d="M966.64 485.26C963.26 485.26 960.81 488 960.81 491.72C960.93 495.51 962.8 498.25 966.76 498.25C969.54 498.25 971.51 496.77 972.06 494.03H970.05C969.69 495.63 968.51 496.45 966.83 496.45C964.12 496.45 962.9 494.53 962.97 492.37H972.26C972.38 489.36 971.03 485.26 966.64 485.26ZM962.96 490.57C963.1 488.68 964.37 487.07 966.51 487.07C968.53 487.07 969.99 488.63 970.09 490.57H962.96Z" fill="white"/>
<path d="M983.42 480.83V487.21H983.37C982.46 485.75 980.63 485.27 979.36 485.27C975.57 485.27 973.7 488.22 973.7 491.73C973.7 495.24 975.59 498.26 979.41 498.26C981.11 498.26 982.7 497.66 983.37 496.29H983.42V497.97H985.46V480.83H983.42ZM979.7 496.46C977.06 496.46 975.86 494.3 975.86 491.88C975.86 489.46 976.77 487.08 979.58 487.08C982.39 487.08 983.49 489.33 983.49 491.78C983.49 494.23 982.44 496.46 979.7 496.46Z" fill="white"/>
<path d="M1001.39 485.27C999.69 485.27 998.1 485.87 997.43 487.24H997.38V480.83H995.34V497.98H997.38V496.32H997.43C998.34 497.78 1000.17 498.26 1001.44 498.26C1005.23 498.26 1007.1 495.31 1007.1 491.8C1007.1 488.29 1005.21 485.27 1001.39 485.27ZM1001.22 496.45C998.41 496.45 997.31 494.2 997.31 491.75C997.31 489.3 998.36 487.07 1001.1 487.07C1003.84 487.07 1004.94 489.23 1004.94 491.65C1004.94 494.07 1004.03 496.45 1001.22 496.45Z" fill="white"/>
<path d="M1019.88 496.46C1019.23 496.46 1019.23 496.03 1019.23 495.07V488.69C1019.23 485.78 1016.8 485.28 1014.57 485.28C1011.81 485.28 1009.43 486.36 1009.31 489.43H1011.35C1011.45 487.61 1012.72 487.08 1014.45 487.08C1015.75 487.08 1017.21 487.36 1017.21 489.14C1017.21 490.67 1015.29 490.53 1013.03 490.96C1010.92 491.37 1008.83 491.97 1008.83 494.78C1008.83 497.25 1010.67 498.26 1012.93 498.26C1014.66 498.26 1016.17 497.66 1017.3 496.34C1017.3 497.68 1017.97 498.26 1019.03 498.26C1019.67 498.26 1020.13 498.14 1020.49 497.92H1020.5V496.34C1020.24 496.44 1020.05 496.46 1019.88 496.46ZM1017.17 491.57V493.64C1017.17 494.77 1016.07 496.45 1013.38 496.45C1012.13 496.45 1010.98 495.97 1010.98 494.63C1010.98 493.12 1012.14 492.64 1013.48 492.4C1014.84 492.16 1016.38 492.14 1017.17 491.57V491.55H1017.18C1017.18 491.55 1017.17 491.56 1017.17 491.57Z" fill="white"/>
<path d="M1030.81 489.54C1030.5 487.98 1029.42 487.07 1027.74 487.07C1024.79 487.07 1023.88 489.4 1023.88 491.92C1023.88 494.2 1024.91 496.46 1027.5 496.46C1029.47 496.46 1030.64 495.31 1030.91 493.44H1033C1032.54 496.46 1030.65 498.26 1027.53 498.26C1023.74 498.26 1021.72 495.62 1021.72 491.92C1021.72 488.22 1023.64 485.27 1027.58 485.27C1030.39 485.27 1032.64 486.59 1032.93 489.54H1030.81Z" fill="white"/>
<path d="M1035.4 480.83H1037.44V490.98L1043.1 485.56H1045.84L1040.92 490.07L1046.2 497.97H1043.61L1039.36 491.49L1037.44 493.27V497.97H1035.4V480.83Z" fill="white"/>
<path d="M1052.9 485.26C1049.52 485.26 1047.07 488 1047.07 491.72C1047.19 495.51 1049.06 498.25 1053.02 498.25C1055.8 498.25 1057.77 496.77 1058.32 494.03H1056.31C1055.95 495.63 1054.77 496.45 1053.09 496.45C1050.38 496.45 1049.16 494.53 1049.23 492.37H1058.52C1058.64 489.36 1057.29 485.26 1052.9 485.26ZM1049.22 490.57C1049.36 488.68 1050.63 487.07 1052.77 487.07C1054.79 487.07 1056.25 488.63 1056.35 490.57H1049.22Z" fill="white"/>
<path d="M1060.55 485.56H1062.47V488.18H1062.52C1063.5 486.19 1064.87 485.2 1067.08 485.28V487.44C1063.79 487.44 1062.59 489.31 1062.59 492.46V497.98H1060.55V485.57V485.56Z" fill="white"/>
<path d="M1078.12 485.56H1080.59V487.36H1078.12V495.06C1078.12 496 1078.38 496.16 1079.66 496.16H1080.6V497.96H1079.04C1076.93 497.96 1076.09 497.53 1076.09 495.25V487.35H1073.98V485.55H1076.09V481.83H1078.13V485.55H1078.12V485.56Z" fill="white"/>
<path d="M1088.2 485.27C1084.27 485.27 1082.18 488.15 1082.18 491.77C1082.18 495.39 1084.27 498.25 1088.2 498.25C1092.13 498.25 1094.22 495.41 1094.22 491.77C1094.22 488.13 1092.14 485.27 1088.2 485.27ZM1088.2 496.46C1086.07 496.46 1084.34 494.8 1084.34 491.78C1084.34 488.76 1086.07 487.08 1088.2 487.08C1090.33 487.08 1092.06 488.78 1092.06 491.78C1092.06 494.78 1090.34 496.46 1088.2 496.46Z" fill="white"/>
<path d="M1096.74 480.83H1098.78V490.98L1104.44 485.56H1107.18L1102.26 490.07L1107.54 497.97H1104.95L1100.7 491.49L1098.78 493.27V497.97H1096.74V480.83Z" fill="white"/>
<path d="M1114.24 485.26C1110.86 485.26 1108.41 488 1108.41 491.72C1108.53 495.51 1110.4 498.25 1114.36 498.25C1117.14 498.25 1119.11 496.77 1119.66 494.03H1117.65C1117.29 495.63 1116.11 496.45 1114.43 496.45C1111.72 496.45 1110.5 494.53 1110.57 492.37H1119.86C1119.98 489.36 1118.63 485.26 1114.24 485.26ZM1110.56 490.57C1110.7 488.68 1111.97 487.07 1114.11 487.07C1116.13 487.07 1117.59 488.63 1117.69 490.57H1110.56Z" fill="white"/>
<path d="M1121.96 485.56H1123.88V487.53H1123.93C1124.79 485.99 1126.19 485.27 1127.96 485.27C1131.22 485.27 1132.23 487.14 1132.23 489.81V497.97H1130.19V489.57C1130.19 488.06 1129.23 487.07 1127.67 487.07C1125.2 487.07 1124 488.73 1124 490.96V497.97H1121.96V485.56Z" fill="white"/>
<path d="M1136.56 494.05C1136.63 495.87 1138.22 496.45 1139.9 496.45C1141.17 496.45 1142.9 496.16 1142.9 494.6C1142.9 493.04 1140.88 492.75 1138.84 492.3C1136.82 491.84 1134.78 491.17 1134.78 488.8C1134.78 486.3 1137.25 485.27 1139.41 485.27C1142.15 485.27 1144.33 486.13 1144.5 489.16H1142.46C1142.32 487.58 1140.92 487.07 1139.58 487.07C1138.36 487.07 1136.94 487.41 1136.94 488.65C1136.94 490.11 1139.1 490.35 1141 490.81C1143.04 491.27 1145.06 491.94 1145.06 494.34C1145.06 497.29 1142.3 498.25 1139.78 498.25C1136.99 498.25 1134.64 497.12 1134.52 494.05H1136.56Z" fill="white"/>
<path d="M797.7 670.88H792.59V654.54H786.26V650.69C789.82 650.76 793.1 649.54 793.64 645.69H797.71V670.89H797.7V670.88Z" fill="white"/>
<path d="M820.92 656.56C819.49 654.98 817.29 653.97 815.13 653.97C812.68 653.97 810.84 654.8 809.44 656.78L809.37 656.71C809.51 653.9 810.48 649.04 814.19 649.04C815.95 649.04 817.25 650.48 817.57 652.17H822.43C821.86 647.75 818.62 645.19 814.26 645.19C807.1 645.19 804.36 651.99 804.36 658.36C804.36 664.73 806.41 671.39 814.04 671.39C819.3 671.39 822.86 667.33 822.86 662.18C822.86 660.2 822.25 658.11 820.92 656.56ZM813.9 667.18C811.34 667.18 809.83 664.84 809.83 662.5C809.83 660.02 811.27 657.82 813.9 657.82C816.53 657.82 817.75 660.3 817.75 662.57C817.75 664.84 816.46 667.18 813.9 667.18Z" fill="white"/>
<path d="M825.78 665.34H831.43V670.88H825.78V665.34Z" fill="white"/>
<path d="M852.23 650.08C846.94 654.69 844.06 664.15 843.99 670.89H838.52C839.1 663.44 842.19 656.2 846.98 650.44H835.03V645.69H852.24V650.08H852.23Z" fill="white"/>
<path d="M881.04 657.35C876.83 657.35 874.92 660.34 874.92 664.3C874.92 668.26 876.43 671.39 880.86 671.39C885.29 671.39 886.94 668.4 886.94 664.44C886.94 660.48 885.5 657.35 881.04 657.35ZM880.9 668.69C878.6 668.69 878.6 665.88 878.6 664.33C878.6 662.68 878.75 660.05 881.05 660.05C883.17 660.05 883.28 662.97 883.28 664.37C883.28 665.88 883.13 668.69 880.9 668.69ZM877.69 644.89L862.79 671.67H865.92L880.75 644.89H877.69ZM862.46 645.18C858.25 645.18 856.34 648.35 856.34 652.31C856.34 656.27 857.85 659.22 862.28 659.22C866.71 659.22 868.36 656.41 868.36 652.45C868.36 648.49 866.92 645.18 862.46 645.18ZM862.32 656.52C860.02 656.52 860.02 653.93 860.02 652.38C860.02 650.72 860.17 647.88 862.47 647.88C864.59 647.88 864.7 651.02 864.7 652.42C864.7 653.93 864.55 656.52 862.32 656.52Z" fill="white"/>
<path d="M910.27 649.57H921.53V651.49H912.55V656.94H920.42V658.86H912.55V666.71H910.27V649.57Z" fill="white"/>
<path d="M923.83 649.57H925.87V666.71H923.83V649.57Z" fill="white"/>
<path d="M939.42 665.2C938.77 665.2 938.77 664.77 938.77 663.81V657.43C938.77 654.52 936.34 654.02 934.11 654.02C931.35 654.02 928.97 655.1 928.85 658.17H930.89C930.99 656.35 932.26 655.82 933.99 655.82C935.29 655.82 936.75 656.1 936.75 657.88C936.75 659.41 934.83 659.27 932.57 659.7C930.46 660.11 928.37 660.71 928.37 663.52C928.37 665.99 930.21 667 932.47 667C934.2 667 935.71 666.4 936.84 665.08C936.84 666.42 937.51 667 938.57 667C939.21 667 939.67 666.88 940.03 666.66H940.04V665.08C939.78 665.18 939.59 665.2 939.42 665.2ZM936.71 660.31V662.38C936.71 663.51 935.61 665.19 932.92 665.19C931.67 665.19 930.52 664.71 930.52 663.37C930.52 661.86 931.68 661.38 933.02 661.14C934.38 660.9 935.92 660.88 936.71 660.31V660.29C936.71 660.29 936.71 660.3 936.71 660.31Z" fill="white"/>
<path d="M941.86 654.3H943.78V656.92H943.83C944.81 654.93 946.18 653.94 948.39 654.02V656.18C945.1 656.18 943.9 658.05 943.9 661.2V666.72H941.86V654.31V654.3Z" fill="white"/>
<path d="M954.65 654C951.27 654 948.82 656.74 948.82 660.46C948.94 664.25 950.81 666.99 954.77 666.99C957.55 666.99 959.52 665.51 960.07 662.77H960.08H958.06C957.7 664.37 956.52 665.19 954.84 665.19C952.13 665.19 950.91 663.27 950.98 661.11H960.27C960.39 658.11 959.04 654.01 954.65 654.01V654ZM950.97 659.31C951.11 657.42 952.38 655.81 954.52 655.81C956.54 655.81 958 657.37 958.1 659.31H950.97Z" fill="white"/>
<path d="M973.27 651.49H967.56V649.57H981.27V651.49H975.56V666.71H973.28V651.49H973.27Z" fill="white"/>
<path d="M985.32 654C981.94 654 979.49 656.74 979.49 660.46C979.61 664.25 981.48 666.99 985.44 666.99C988.22 666.99 990.19 665.51 990.74 662.77H990.75H988.73C988.37 664.37 987.19 665.19 985.51 665.19C982.8 665.19 981.58 663.27 981.65 661.11H990.94C991.06 658.11 989.71 654.01 985.32 654.01V654ZM981.64 659.31C981.78 657.42 983.05 655.81 985.19 655.81C987.21 655.81 988.67 657.37 988.77 659.31H981.64Z" fill="white"/>
<path d="M1003.43 665.2C1002.78 665.2 1002.78 664.77 1002.78 663.81V657.43C1002.78 654.52 1000.35 654.02 998.12 654.02C995.36 654.02 992.98 655.1 992.86 658.17H994.9C995 656.35 996.27 655.82 998 655.82C999.3 655.82 1000.76 656.1 1000.76 657.88C1000.76 659.41 998.84 659.27 996.58 659.7C994.47 660.11 992.38 660.71 992.38 663.52C992.38 665.99 994.22 667 996.48 667C998.21 667 999.72 666.4 1000.85 665.08C1000.85 666.42 1001.52 667 1002.58 667C1003.22 667 1003.68 666.88 1004.04 666.66H1004.05V665.08C1003.79 665.18 1003.6 665.2 1003.43 665.2ZM1000.72 660.31V662.38C1000.72 663.51 999.62 665.19 996.93 665.19C995.68 665.19 994.53 664.71 994.53 663.37C994.53 661.86 995.69 661.38 997.03 661.14C998.39 660.9 999.93 660.88 1000.72 660.31V660.29H1000.73C1000.73 660.29 1000.72 660.3 1000.72 660.31Z" fill="white"/>
<path d="M1005.93 654.3H1007.85V656.12H1007.9C1008.81 654.73 1010.2 654.01 1011.91 654.01C1013.42 654.01 1014.81 654.61 1015.32 656.12C1016.16 654.8 1017.62 654.01 1019.21 654.01C1021.68 654.01 1023.34 655.04 1023.34 657.61V666.71H1021.3V658.57C1021.3 657.03 1020.89 655.81 1018.9 655.81C1016.91 655.81 1015.66 657.06 1015.66 658.98V666.71H1013.62V658.57C1013.62 656.96 1013.12 655.81 1011.29 655.81C1008.87 655.81 1007.98 658.04 1007.98 658.98V666.71H1005.94V654.3H1005.93Z" fill="white"/>
<path d="M1026.86 664.04H1029.52V666.46C1029.52 668.26 1028.73 669.7 1026.88 670.23V669.03C1027.96 668.67 1028.32 667.47 1028.27 666.7H1026.85V664.04H1026.86Z" fill="white"/>
<path d="M1050.13 665.2C1049.48 665.2 1049.48 664.77 1049.48 663.81V657.43C1049.48 654.52 1047.05 654.02 1044.82 654.02C1042.06 654.02 1039.68 655.1 1039.56 658.17H1041.6C1041.7 656.35 1042.97 655.82 1044.7 655.82C1046 655.82 1047.46 656.1 1047.46 657.88C1047.46 659.41 1045.54 659.27 1043.28 659.7C1041.17 660.11 1039.08 660.71 1039.08 663.52C1039.08 665.99 1040.92 667 1043.18 667C1044.91 667 1046.42 666.4 1047.55 665.08C1047.55 666.42 1048.22 667 1049.28 667C1049.92 667 1050.38 666.88 1050.74 666.66H1050.75V665.08C1050.49 665.18 1050.3 665.2 1050.13 665.2ZM1047.42 660.31V662.38C1047.42 663.51 1046.32 665.19 1043.63 665.19C1042.38 665.19 1041.23 664.71 1041.23 663.37C1041.23 661.86 1042.39 661.38 1043.73 661.14C1045.09 660.9 1046.63 660.88 1047.42 660.31V660.29H1047.43C1047.43 660.29 1047.42 660.3 1047.42 660.31Z" fill="white"/>
<path d="M1061.69 649.56V655.94H1061.64C1060.73 654.48 1058.9 654 1057.63 654C1053.84 654 1051.97 656.95 1051.97 660.46C1051.97 663.97 1053.86 666.99 1057.68 666.99C1059.38 666.99 1060.97 666.39 1061.64 665.02H1061.69V666.7H1063.73V649.56H1061.69ZM1057.97 665.19C1055.33 665.18 1054.13 663.02 1054.13 660.6C1054.13 658.18 1055.04 655.8 1057.85 655.8C1060.66 655.8 1061.76 658.06 1061.76 660.51C1061.76 662.96 1060.71 665.19 1057.97 665.19Z" fill="white"/>
<path d="M1072.46 666.7H1070.28L1065.67 654.29H1067.95L1071.43 664.64H1071.48L1074.86 654.29H1077L1072.46 666.7Z" fill="white"/>
<path d="M1078.99 654.29V666.7H1081.03V654.29H1078.99ZM1078.99 649.56V652.06H1081.03V649.56H1078.99Z" fill="white"/>
<path d="M1085.45 662.79C1085.52 664.61 1087.11 665.19 1088.79 665.19C1090.06 665.19 1091.79 664.9 1091.79 663.34C1091.79 661.78 1089.77 661.49 1087.73 661.04C1085.71 660.58 1083.67 659.91 1083.67 657.54C1083.67 655.04 1086.14 654.01 1088.3 654.01C1091.04 654.01 1093.22 654.87 1093.39 657.9H1091.35C1091.21 656.32 1089.81 655.81 1088.47 655.81C1087.25 655.81 1085.83 656.15 1085.83 657.39C1085.83 658.85 1087.99 659.1 1089.89 659.55C1091.93 660.01 1093.95 660.68 1093.95 663.08C1093.95 666.03 1091.19 666.99 1088.67 666.99C1085.88 666.99 1083.53 665.86 1083.41 662.79H1085.45Z" fill="white"/>
<path d="M1101.55 654.01C1097.62 654.01 1095.53 656.89 1095.53 660.51C1095.53 664.13 1097.62 666.99 1101.55 666.99C1105.48 666.99 1107.57 664.15 1107.57 660.51C1107.57 656.87 1105.49 654.01 1101.55 654.01ZM1101.55 665.19C1099.42 665.19 1097.69 663.54 1097.69 660.51C1097.69 657.48 1099.42 655.8 1101.55 655.8C1103.68 655.8 1105.41 657.51 1105.41 660.51C1105.41 663.51 1103.69 665.19 1101.55 665.19Z" fill="white"/>
<path d="M1109.9 654.3H1111.82V656.92H1111.87C1112.85 654.93 1114.22 653.94 1116.43 654.02V656.18C1113.14 656.18 1111.94 658.05 1111.94 661.2V666.72H1109.9V654.31V654.3Z" fill="white"/>
<path d="M1119.21 662.79C1119.28 664.61 1120.87 665.19 1122.55 665.19C1123.82 665.19 1125.55 664.9 1125.55 663.34C1125.55 661.78 1123.53 661.49 1121.49 661.04C1119.47 660.58 1117.43 659.91 1117.43 657.54C1117.43 655.04 1119.9 654.01 1122.06 654.01C1124.8 654.01 1126.98 654.87 1127.15 657.9H1125.11C1124.97 656.32 1123.57 655.81 1122.23 655.81C1121.01 655.81 1119.59 656.15 1119.59 657.39C1119.59 658.85 1121.75 659.1 1123.65 659.55C1125.69 660.01 1127.71 660.68 1127.71 663.08C1127.71 666.03 1124.95 666.99 1122.43 666.99C1119.64 666.99 1117.29 665.86 1117.17 662.79H1119.21Z" fill="white"/>
<path d="M1147.02 665.2C1146.37 665.2 1146.37 664.77 1146.37 663.81V657.43C1146.37 654.52 1143.94 654.02 1141.71 654.02C1138.95 654.02 1136.57 655.1 1136.45 658.17H1138.49C1138.59 656.35 1139.86 655.82 1141.59 655.82C1142.89 655.82 1144.35 656.1 1144.35 657.88C1144.35 659.41 1142.43 659.27 1140.17 659.7C1138.06 660.11 1135.97 660.71 1135.97 663.52C1135.97 665.99 1137.81 667 1140.07 667C1141.8 667 1143.31 666.4 1144.44 665.08C1144.44 666.42 1145.11 667 1146.17 667C1146.81 667 1147.27 666.88 1147.63 666.66H1147.64V665.08C1147.38 665.18 1147.19 665.2 1147.02 665.2ZM1144.31 660.31V662.38C1144.31 663.51 1143.21 665.19 1140.52 665.19C1139.27 665.19 1138.12 664.71 1138.12 663.37C1138.12 661.86 1139.28 661.38 1140.62 661.14C1141.98 660.9 1143.52 660.88 1144.31 660.31V660.29H1144.32C1144.32 660.29 1144.31 660.3 1144.31 660.31Z" fill="white"/>
<path d="M1149.52 654.3H1151.44V656.27H1151.49C1152.35 654.73 1153.75 654.01 1155.52 654.01C1158.78 654.01 1159.79 655.88 1159.79 658.55V666.71H1157.75V658.31C1157.75 656.8 1156.79 655.81 1155.23 655.81C1152.76 655.81 1151.56 657.47 1151.56 659.7V666.71H1149.52V654.3Z" fill="white"/>
<path d="M1171.92 649.56V655.94H1171.87C1170.96 654.48 1169.13 654 1167.86 654C1164.07 654 1162.2 656.95 1162.2 660.46C1162.2 663.97 1164.09 666.99 1167.91 666.99C1169.61 666.99 1171.2 666.39 1171.87 665.02H1171.92V666.7H1173.96V649.56H1171.92ZM1168.2 665.19C1165.56 665.18 1164.36 663.02 1164.36 660.6C1164.36 658.18 1165.27 655.8 1168.08 655.8C1170.89 655.8 1171.99 658.06 1171.99 660.51C1171.99 662.96 1170.94 665.19 1168.2 665.19Z" fill="white"/>
<path d="M1188.94 654C1185.56 654 1183.11 656.74 1183.11 660.46C1183.23 664.25 1185.1 666.99 1189.06 666.99C1191.84 666.99 1193.81 665.51 1194.36 662.77H1194.37H1192.35C1191.99 664.37 1190.81 665.19 1189.13 665.19C1186.42 665.19 1185.2 663.27 1185.27 661.11H1194.56C1194.68 658.11 1193.33 654.01 1188.94 654.01V654ZM1185.26 659.31C1185.4 657.42 1186.67 655.81 1188.81 655.81C1190.83 655.81 1192.29 657.37 1192.39 659.31H1185.26Z" fill="white"/>
<path d="M1207.04 665.2C1206.39 665.2 1206.39 664.77 1206.39 663.81V657.43C1206.39 654.52 1203.96 654.02 1201.73 654.02C1198.97 654.02 1196.59 655.1 1196.47 658.17H1198.51C1198.61 656.35 1199.88 655.82 1201.61 655.82C1202.91 655.82 1204.37 656.1 1204.37 657.88C1204.37 659.41 1202.45 659.27 1200.19 659.7C1198.08 660.11 1195.99 660.71 1195.99 663.52C1195.99 665.99 1197.83 667 1200.09 667C1201.82 667 1203.33 666.4 1204.46 665.08C1204.46 666.42 1205.13 667 1206.19 667C1206.83 667 1207.29 666.88 1207.65 666.66H1207.66V665.08C1207.4 665.18 1207.21 665.2 1207.04 665.2ZM1204.33 660.31V662.38C1204.33 663.51 1203.23 665.19 1200.54 665.19C1199.29 665.19 1198.14 664.71 1198.14 663.37C1198.14 661.86 1199.3 661.38 1200.64 661.14C1202 660.9 1203.54 660.88 1204.33 660.31V660.29H1204.34C1204.34 660.29 1204.33 660.3 1204.33 660.31Z" fill="white"/>
<path d="M1209.48 654.3H1211.4V656.92H1211.45C1212.43 654.93 1213.8 653.94 1216.01 654.02V656.18C1212.72 656.18 1211.52 658.05 1211.52 661.2V666.72H1209.48V654.31V654.3Z" fill="white"/>
<path d="M1217.66 649.57H1219.7V666.71H1217.66V649.57Z" fill="white"/>
<path d="M1227.74 668.36C1226.8 670.78 1225.96 671.67 1224.14 671.67C1223.66 671.67 1223.18 671.62 1222.72 671.46V669.59C1223.1 669.71 1223.51 669.88 1223.92 669.88C1224.76 669.88 1225.22 669.47 1225.6 668.75L1226.44 666.64L1221.52 654.3H1223.82L1227.44 664.45H1227.49L1230.97 654.3H1233.13L1227.73 668.37H1227.74V668.36Z" fill="white"/>
<path d="M1247.66 654.01C1245.96 654.01 1244.37 654.61 1243.7 655.98H1243.65V649.57H1241.61V666.72H1243.65V665.06H1243.7C1244.61 666.52 1246.44 667 1247.71 667C1251.5 667 1253.37 664.05 1253.37 660.54C1253.37 657.03 1251.48 654.01 1247.66 654.01ZM1247.49 665.19C1244.68 665.19 1243.58 662.94 1243.58 660.49C1243.58 658.04 1244.63 655.81 1247.37 655.81C1250.11 655.81 1251.21 657.97 1251.21 660.39C1251.21 662.81 1250.3 665.19 1247.49 665.19Z" fill="white"/>
<path d="M1266.16 665.2C1265.51 665.2 1265.51 664.77 1265.51 663.81V657.43C1265.51 654.52 1263.08 654.02 1260.85 654.02C1258.09 654.02 1255.71 655.1 1255.59 658.17H1257.63C1257.73 656.35 1259 655.82 1260.73 655.82C1262.03 655.82 1263.49 656.1 1263.49 657.88C1263.49 659.41 1261.57 659.27 1259.31 659.7C1257.2 660.11 1255.11 660.71 1255.11 663.52C1255.11 665.99 1256.95 667 1259.21 667C1260.94 667 1262.45 666.4 1263.58 665.08C1263.58 666.42 1264.25 667 1265.31 667C1265.95 667 1266.41 666.88 1266.77 666.66V665.08C1266.51 665.18 1266.32 665.2 1266.15 665.2H1266.16ZM1263.45 660.31V662.38C1263.45 663.51 1262.35 665.19 1259.66 665.19C1258.41 665.19 1257.26 664.71 1257.26 663.37C1257.26 661.86 1258.42 661.38 1259.76 661.14C1261.12 660.9 1262.66 660.88 1263.45 660.31V660.29H1263.46C1263.46 660.29 1263.45 660.3 1263.45 660.31Z" fill="white"/>
<path d="M1277.08 658.28C1276.77 656.72 1275.69 655.81 1274.01 655.81C1271.06 655.81 1270.15 658.14 1270.15 660.66C1270.15 662.94 1271.18 665.2 1273.77 665.2C1275.74 665.2 1276.91 664.05 1277.18 662.18H1279.27C1278.81 665.2 1276.92 667 1273.8 667C1270.01 667 1267.99 664.36 1267.99 660.66C1267.99 656.96 1269.91 654.01 1273.85 654.01C1276.66 654.01 1278.91 655.33 1279.2 658.28H1277.08Z" fill="white"/>
<path d="M1281.67 649.57H1283.71V659.72L1289.37 654.3H1292.11L1287.19 658.81L1292.47 666.71H1289.88L1285.63 660.23L1283.71 662.01V666.71H1281.67V649.57Z" fill="white"/>
<path d="M1299.17 654C1295.79 654 1293.34 656.74 1293.34 660.46C1293.46 664.25 1295.33 666.99 1299.29 666.99C1302.07 666.99 1304.04 665.51 1304.59 662.77H1304.6H1302.58C1302.22 664.37 1301.04 665.19 1299.36 665.19C1296.65 665.19 1295.43 663.27 1295.5 661.11H1304.79C1304.91 658.11 1303.56 654.01 1299.17 654.01V654ZM1295.49 659.31C1295.63 657.42 1296.9 655.81 1299.04 655.81C1301.06 655.81 1302.52 657.37 1302.62 659.31H1295.49Z" fill="white"/>
<path d="M1306.82 654.3H1308.74V656.92H1308.79C1309.77 654.93 1311.14 653.94 1313.35 654.02V656.18C1310.06 656.18 1308.86 658.05 1308.86 661.2V666.72H1306.82V654.31V654.3Z" fill="white"/>
<path d="M1316.13 662.79C1316.2 664.61 1317.79 665.19 1319.47 665.19C1320.74 665.19 1322.47 664.9 1322.47 663.34C1322.47 661.78 1320.45 661.49 1318.41 661.04C1316.39 660.58 1314.35 659.91 1314.35 657.54C1314.35 655.04 1316.82 654.01 1318.98 654.01C1321.72 654.01 1323.9 654.87 1324.07 657.9H1322.03C1321.89 656.32 1320.49 655.81 1319.15 655.81C1317.93 655.81 1316.51 656.15 1316.51 657.39C1316.51 658.85 1318.67 659.1 1320.57 659.55C1322.61 660.01 1324.63 660.68 1324.63 663.08C1324.63 666.03 1321.87 666.99 1319.35 666.99C1316.56 666.99 1314.21 665.86 1314.09 662.79H1316.13Z" fill="white"/>
<path d="M803.62 131.7H793.22L792.21 137.42L792.28 137.49C793.65 136.09 795.23 135.55 797.21 135.55C802.18 135.55 804.98 139.4 804.98 144.12C804.98 149.3 800.7 153.3 795.62 153.19C790.72 153.19 786.33 150.49 786.26 145.2H791.37C791.62 147.43 793.28 148.98 795.51 148.98C798.17 148.98 799.87 146.64 799.87 144.12C799.87 141.6 798.25 139.4 795.51 139.4C793.67 139.4 792.67 140.05 791.66 141.42H787.05L789.53 127.49H803.6V131.7H803.62Z" fill="white"/>
<path d="M820.43 139.12V139.05C822.8 138.26 824.1 136.21 824.1 133.76C824.1 131.31 821.94 126.99 815.68 126.99C811.57 127 807.18 129.34 807.18 133.88C807.18 136.36 808.44 138.38 810.89 139.06V139.13C807.94 139.85 806.14 142.12 806.14 145.32C806.14 150.75 811.04 153.2 815.72 153.2C820.4 153.2 825.15 150.57 825.15 145.28C825.15 142.11 823.42 139.8 820.43 139.12ZM815.68 130.84C818.85 130.84 819.46 133.03 819.46 134.33C819.46 136.49 817.77 137.64 815.68 137.64C813.59 137.64 811.83 136.56 811.83 134.33C811.83 132.1 813.63 130.84 815.68 130.84ZM815.72 149.34C813.28 149.34 811.26 147.66 811.26 145.06C811.26 142.46 813.34 141.06 815.72 141.06C818.1 141.06 820.04 142.57 820.04 145.09C820.04 147.61 818.17 149.34 815.72 149.34Z" fill="white"/>
<path d="M827.82 147.15H833.47V152.69H827.82V147.15Z" fill="white"/>
<path d="M843.87 137.68C846.07 137.86 849.23 137.43 849.23 134.55C849.23 132.43 847.54 131.2 845.67 131.2C843.11 131.2 841.75 133.11 841.78 135.7H836.92C837.1 130.55 840.45 126.99 845.63 126.99C849.66 126.99 854.09 129.47 854.09 133.97C854.09 136.35 852.9 138.47 850.56 139.12V139.19C853.33 139.8 855.02 142.11 855.02 144.91C855.02 150.2 850.59 153.19 845.66 153.19C840.01 153.19 836.19 149.81 836.3 144.01H841.16C841.27 146.75 842.64 148.98 845.59 148.98C847.89 148.98 849.69 147.4 849.69 145.02C849.69 141.2 846.34 141.28 843.86 141.28V137.68H843.87Z" fill="white"/>
<path d="M883.08 139.15C878.87 139.15 876.96 142.14 876.96 146.1C876.96 150.06 878.47 153.19 882.9 153.19C887.33 153.19 888.98 150.2 888.98 146.24C888.98 142.28 887.54 139.15 883.08 139.15ZM882.94 150.49C880.64 150.49 880.64 147.68 880.64 146.13C880.64 144.48 880.79 141.85 883.09 141.85C885.21 141.85 885.32 144.77 885.32 146.17C885.32 147.68 885.17 150.49 882.94 150.49ZM879.73 126.7L864.83 153.48H867.96L882.79 126.7H879.73ZM864.5 126.99C860.29 126.99 858.38 130.16 858.38 134.12C858.38 138.08 859.89 141.03 864.32 141.03C868.75 141.03 870.4 138.22 870.4 134.26C870.4 130.3 868.96 126.99 864.5 126.99ZM864.36 138.33C862.06 138.33 862.06 135.74 862.06 134.19C862.06 132.53 862.21 129.69 864.51 129.69C866.63 129.69 866.74 132.83 866.74 134.23C866.74 135.74 866.59 138.33 864.36 138.33Z" fill="white"/>
<path d="M256.42 0H263.72L271.89 23.18H271.97L279.93 0H287.15V29.61H282.21V6.76H282.13L273.92 29.61H269.65L261.44 6.76H261.36V29.61H256.42V0Z" fill="white"/>
<path d="M310.66 24.8401C310.66 26.0001 310.91 26.4601 311.78 26.4601C312.07 26.4601 312.44 26.4601 312.94 26.3801V29.6601C312.23 29.9101 310.74 30.2001 309.95 30.2001C308.04 30.2001 306.67 29.5401 306.3 27.5901C304.43 29.4201 301.41 30.2001 298.88 30.2001C295.02 30.2001 291.54 28.1301 291.54 23.9401C291.54 18.5901 295.81 17.7201 299.79 17.2601C303.19 16.6401 306.22 17.0101 306.22 14.2301C306.22 11.7801 303.69 11.3301 301.78 11.3301C299.13 11.3301 297.26 12.4101 297.05 14.7301H292.32C292.65 9.2101 297.34 7.6001 302.07 7.6001C306.26 7.6001 310.65 9.3001 310.65 13.8201V24.8501L310.66 24.8401ZM305.93 18.8701C304.48 19.8201 302.2 19.7801 300.12 20.1601C298.09 20.4901 296.26 21.2401 296.26 23.7301C296.26 25.8501 298.96 26.4701 300.61 26.4701C302.68 26.4701 305.92 25.3901 305.92 22.4101V18.8801L305.93 18.8701Z" fill="white"/>
<path d="M330.24 15.3401C329.87 12.7301 327.96 11.3201 325.35 11.3201C322.9 11.3201 319.46 12.6101 319.46 19.1201C319.46 22.6901 321.04 26.4601 325.14 26.4601C327.88 26.4601 329.79 24.6301 330.24 21.5701H334.97C334.1 27.1301 330.66 30.2001 325.14 30.2001C318.42 30.2001 314.73 25.4301 314.73 19.1301C314.73 12.8301 318.25 7.6001 325.31 7.6001C330.29 7.6001 334.52 10.0901 334.97 15.3601H330.24V15.3401Z" fill="white"/>
<path d="M338.82 8.16984H343.26V12.3198H343.34C343.88 10.0398 346.7 7.58984 349.6 7.58984C350.68 7.58984 350.97 7.66984 351.38 7.70984V12.2698C350.72 12.1898 350.01 12.0598 349.35 12.0598C346.12 12.0598 343.54 14.6698 343.54 19.3998V29.5998H338.81V8.16984H338.82Z" fill="white"/>
<path d="M351.67 18.8698C351.67 12.3198 355.61 7.58984 362.49 7.58984C369.37 7.58984 373.31 12.3198 373.31 18.8698C373.31 25.4198 369.37 30.1898 362.49 30.1898C355.61 30.1898 351.67 25.4598 351.67 18.8698ZM368.59 18.8698C368.59 15.1798 366.72 11.3198 362.49 11.3198C358.26 11.3198 356.39 15.1798 356.39 18.8698C356.39 22.5598 358.26 26.4598 362.49 26.4598C366.72 26.4598 368.59 22.5998 368.59 18.8698Z" fill="white"/>
<path d="M386.67 8.16992H391.81L397.24 24.6299H397.32L402.55 8.16992H407.44L399.77 29.6099H394.46L386.66 8.16992H386.67Z" fill="white"/>
<path d="M410.43 0H415.16V4.48H410.43V0ZM410.43 8.17H415.16V29.61H410.43V8.17Z" fill="white"/>
<path d="M423.99 20.1098C423.99 23.4698 425.81 26.4598 429.75 26.4598C432.49 26.4598 434.15 25.2598 434.98 22.8898H439.46C438.42 27.5798 434.44 30.1898 429.76 30.1898C423.04 30.1898 419.27 25.4998 419.27 18.9098C419.27 12.8098 423.25 7.58984 429.64 7.58984C436.4 7.58984 440.55 13.6898 439.76 20.1198H424L423.99 20.1098ZM435.02 16.9998C434.85 14.0098 432.82 11.3198 429.63 11.3198C426.44 11.3198 424.11 13.8098 423.99 16.9998H435.02Z" fill="white"/>
<path d="M441.41 8.16992H446.43L450.62 24.1799H450.7L454.72 8.16992H459.49L463.35 24.1799H463.43L467.78 8.16992H472.59L465.87 29.6099H461.02L457.04 13.6799H456.96L453.02 29.6099H448.04L441.4 8.16992H441.41Z" fill="white"/>
<path d="M486.15 18.8698C486.15 12.3198 490.09 7.58984 496.97 7.58984C503.85 7.58984 507.79 12.3198 507.79 18.8698C507.79 25.4198 503.85 30.1898 496.97 30.1898C490.09 30.1898 486.15 25.4598 486.15 18.8698ZM503.07 18.8698C503.07 15.1798 501.2 11.3198 496.97 11.3198C492.74 11.3198 490.87 15.1798 490.87 18.8698C490.87 22.5598 492.74 26.4598 496.97 26.4598C501.2 26.4598 503.07 22.5998 503.07 18.8698Z" fill="white"/>
<path d="M509.62 8.17H513.15V6.39C513.15 0.92 516.01 0 519.08 0C520.57 0 521.65 0.08 522.4 0.29V3.98C521.78 3.81 521.16 3.73 520.2 3.73C518.91 3.73 517.88 4.19 517.88 5.97V8.17H521.9V11.7H517.88V29.62H513.15V11.7H509.62V8.17Z" fill="white"/>
<path d="M536.45 0H541.18V4.48H536.45V0ZM536.45 8.17H541.18V29.61H536.45V8.17Z" fill="white"/>
<path d="M546.32 8.17008H550.8V11.3201L550.88 11.4001C552.29 9.04008 554.74 7.58008 557.56 7.58008C562.21 7.58008 565.15 10.0701 565.15 14.8801V29.6001H560.42V16.1201C560.34 12.7601 559.01 11.3101 556.23 11.3101C553.08 11.3101 551.05 13.8001 551.05 16.9501V29.6001H546.32V8.17008Z" fill="white"/>
<path d="M570.25 0H574.98V4.48H570.25V0ZM570.25 8.17H574.98V29.61H570.25V8.17Z" fill="white"/>
<path d="M577.96 8.17023H581.53V1.74023H586.26V8.17023H590.53V11.7002H586.26V23.1502C586.26 25.1002 586.43 26.0902 588.54 26.0902C589.2 26.0902 589.87 26.0902 590.53 25.9202V29.5702C589.49 29.6502 588.5 29.8202 587.46 29.8202C582.52 29.8202 581.61 27.9102 581.53 24.3502V11.7002H577.96V8.17023Z" fill="white"/>
<path d="M594.05 0H598.78V4.48H594.05V0ZM594.05 8.17H598.78V29.61H594.05V8.17Z" fill="white"/>
<path d="M621.88 24.8401C621.88 26.0001 622.13 26.4601 623 26.4601C623.29 26.4601 623.66 26.4601 624.16 26.3801V29.6601C623.45 29.9101 621.96 30.2001 621.17 30.2001C619.26 30.2001 617.89 29.5401 617.52 27.5901C615.65 29.4201 612.63 30.2001 610.1 30.2001C606.24 30.2001 602.76 28.1301 602.76 23.9401C602.76 18.5901 607.03 17.7201 611.01 17.2601C614.41 16.6401 617.44 17.0101 617.44 14.2301C617.44 11.7801 614.91 11.3301 613 11.3301C610.35 11.3301 608.48 12.4101 608.27 14.7301H603.54C603.87 9.2101 608.56 7.6001 613.29 7.6001C617.48 7.6001 621.87 9.3001 621.87 13.8201V24.8501L621.88 24.8401ZM617.15 18.8701C615.7 19.8201 613.42 19.7801 611.34 20.1601C609.31 20.4901 607.48 21.2401 607.48 23.7301C607.48 25.8501 610.18 26.4701 611.83 26.4701C613.9 26.4701 617.14 25.3901 617.14 22.4101V18.8801L617.15 18.8701Z" fill="white"/>
<path d="M627.1 0H631.83V29.61H627.1V0Z" fill="white"/>
<path d="M649.16 0H669.61V4.48H654.35V12.24H667.75V16.47H654.35V29.62H649.17V0H649.16Z" fill="white"/>
<path d="M673.75 0H678.93V25.13H693.99V29.61H673.75V0Z" fill="white"/>
<path d="M697.55 0H711.69C718.16 0 721.48 2.99 721.48 8C721.48 13.68 717.54 15.13 716.59 15.46V15.54C718.37 15.79 720.99 17.12 720.99 21.8C720.99 25.24 721.49 28.39 722.61 29.6H717.05C716.26 28.31 716.26 26.7 716.26 25.25C716.26 19.82 715.14 17.41 710.37 17.41H702.74V29.6H697.56V0H697.55ZM702.73 13.48H711.23C714.51 13.48 716.29 11.86 716.29 8.75C716.29 4.98 713.84 4.23 711.15 4.23H702.73V13.48Z" fill="white"/>
<path d="M746.19 0H751.71L763.12 29.61H757.56L754.78 21.77H742.96L740.18 29.61H734.83L746.19 0ZM744.36 17.83H753.4L748.96 5.1H748.84L744.36 17.83Z" fill="white"/>
<path d="M765.39 0H770.12V29.61H765.39V0Z" fill="white"/>
<path d="M775.39 0H780.12V29.61H775.39V0Z" fill="white"/>
<path d="M784.26 18.8698C784.26 12.3198 788.2 7.58984 795.08 7.58984C801.96 7.58984 805.9 12.3198 805.9 18.8698C805.9 25.4198 801.96 30.1898 795.08 30.1898C788.2 30.1898 784.26 25.4598 784.26 18.8698ZM801.18 18.8698C801.18 15.1798 799.31 11.3198 795.08 11.3198C790.85 11.3198 788.98 15.1798 788.98 18.8698C788.98 22.5598 790.85 26.4598 795.08 26.4598C799.31 26.4598 801.18 22.5998 801.18 18.8698Z" fill="white"/>
<path d="M824.32 15.3401C823.95 12.7301 822.04 11.3201 819.43 11.3201C816.98 11.3201 813.54 12.6101 813.54 19.1201C813.54 22.6901 815.12 26.4601 819.22 26.4601C821.96 26.4601 823.86 24.6301 824.32 21.5701H829.05C828.18 27.1301 824.74 30.2001 819.22 30.2001C812.5 30.2001 808.81 25.4301 808.81 19.1301C808.81 12.8301 812.34 7.6001 819.39 7.6001C824.37 7.6001 828.6 10.0901 829.05 15.3601H824.32V15.3401Z" fill="white"/>
<path d="M850.86 24.8401C850.86 26.0001 851.11 26.4601 851.98 26.4601C852.27 26.4601 852.64 26.4601 853.14 26.3801V29.6601C852.43 29.9101 850.94 30.2001 850.15 30.2001C848.24 30.2001 846.87 29.5401 846.5 27.5901C844.63 29.4201 841.61 30.2001 839.08 30.2001C835.22 30.2001 831.74 28.1301 831.74 23.9401C831.74 18.5901 836.01 17.7201 839.99 17.2601C843.39 16.6401 846.42 17.0101 846.42 14.2301C846.42 11.7801 843.89 11.3301 841.98 11.3301C839.33 11.3301 837.46 12.4101 837.25 14.7301H832.52C832.85 9.2101 837.54 7.6001 842.27 7.6001C846.46 7.6001 850.85 9.3001 850.85 13.8201V24.8501L850.86 24.8401ZM846.13 18.8701C844.68 19.8201 842.4 19.7801 840.32 20.1601C838.29 20.4901 836.46 21.2401 836.46 23.7301C836.46 25.8501 839.16 26.4701 840.81 26.4701C842.88 26.4701 846.12 25.3901 846.12 22.4101V18.8801L846.13 18.8701Z" fill="white"/>
<path d="M853.8 8.17023H857.37V1.74023H862.1V8.17023H866.37V11.7002H862.1V23.1502C862.1 25.1002 862.27 26.0902 864.38 26.0902C865.04 26.0902 865.71 26.0902 866.37 25.9202V29.5702C865.33 29.6502 864.34 29.8202 863.3 29.8202C858.37 29.8202 857.45 27.9102 857.37 24.3502V11.7002H853.8V8.17023Z" fill="white"/>
<path d="M869.89 0H874.62V4.48H869.89V0ZM869.89 8.17H874.62V29.61H869.89V8.17Z" fill="white"/>
<path d="M878.76 18.8698C878.76 12.3198 882.7 7.58984 889.58 7.58984C896.46 7.58984 900.41 12.3198 900.41 18.8698C900.41 25.4198 896.47 30.1898 889.58 30.1898C882.69 30.1898 878.76 25.4598 878.76 18.8698ZM895.68 18.8698C895.68 15.1798 893.81 11.3198 889.58 11.3198C885.35 11.3198 883.48 15.1798 883.48 18.8698C883.48 22.5598 885.35 26.4598 889.58 26.4598C893.81 26.4598 895.68 22.5998 895.68 18.8698Z" fill="white"/>
<path d="M904.35 8.17008H908.83V11.3201L908.91 11.4001C910.32 9.04008 912.77 7.58008 915.59 7.58008C920.24 7.58008 923.18 10.0701 923.18 14.8801V29.6001H918.45V16.1201C918.37 12.7601 917.04 11.3101 914.26 11.3101C911.11 11.3101 909.08 13.8001 909.08 16.9501V29.6001H904.35V8.17008Z" fill="white"/>
<path d="M931.72 22.7298C931.97 25.4698 934.04 26.4598 936.57 26.4598C938.35 26.4598 941.46 26.0898 941.34 23.6398C941.22 21.1498 937.77 20.8598 934.33 20.0698C930.85 19.3198 927.45 18.0798 927.45 13.7298C927.45 9.03984 932.51 7.58984 936.41 7.58984C940.81 7.58984 944.79 9.41984 945.37 14.1798H940.43C940.01 11.9398 938.15 11.3198 936.08 11.3198C934.71 11.3198 932.18 11.6498 932.18 13.5198C932.18 15.8398 935.66 16.1698 939.15 16.9598C942.59 17.7498 946.08 18.9898 946.08 23.2198C946.08 28.3198 940.94 30.1898 936.5 30.1898C931.11 30.1898 927.09 27.7798 927 22.7198H931.73L931.72 22.7298Z" fill="white"/>
</g>
<defs>
<clipPath id="clip0_12_7025">
<rect width="1369.37" height="747.63" fill="white"/>
</clipPath>
</defs>
</svg>
