<svg width="1856" height="695" viewBox="0 0 1856 695" fill="none" xmlns="http://www.w3.org/2000/svg">
<g clip-path="url(#clip0_11_6128)">
<path d="M991.17 584.2L1096.64 681.91H1338.66" stroke="#595959" stroke-width="1.84" stroke-miterlimit="10"/>
<path d="M1338.31 688.81C1342.12 688.81 1345.21 685.72 1345.21 681.91C1345.21 678.1 1342.12 675.01 1338.31 675.01C1334.5 675.01 1331.41 678.1 1331.41 681.91C1331.41 685.72 1334.5 688.81 1338.31 688.81Z" fill="#595959"/>
<path d="M810.99 627.85L671.63 681.91H418.42" stroke="#595959" stroke-width="1.84" stroke-miterlimit="10"/>
<path d="M418.76 675.01C414.95 675.01 411.86 678.1 411.86 681.91C411.86 685.72 414.95 688.81 418.76 688.81C422.57 688.81 425.66 685.72 425.66 681.91C425.66 678.1 422.57 675.01 418.76 675.01Z" fill="#595959"/>
<path d="M738.63 548.98L599.27 603.04H418.41" stroke="#595959" stroke-width="1.84" stroke-miterlimit="10"/>
<path d="M418.76 609.94C422.571 609.94 425.66 606.851 425.66 603.04C425.66 599.229 422.571 596.14 418.76 596.14C414.949 596.14 411.86 599.229 411.86 603.04C411.86 606.851 414.949 609.94 418.76 609.94Z" fill="#595959"/>
<path d="M708.74 474.54L592.74 540.28L418.41 541.89" stroke="#595959" stroke-width="1.84" stroke-miterlimit="10"/>
<path d="M418.7 534.99C414.89 535.03 411.83 538.14 411.86 541.95C411.9 545.76 415.01 548.82 418.82 548.79C422.63 548.75 425.69 545.64 425.66 541.83C425.62 538.02 422.51 534.96 418.7 534.99Z" fill="#595959"/>
<path d="M714.69 447.62L599.27 483.64H418.41" stroke="#595959" stroke-width="1.84" stroke-miterlimit="10"/>
<path d="M418.76 476.74C414.95 476.74 411.86 479.83 411.86 483.64C411.86 487.45 414.95 490.54 418.76 490.54C422.57 490.54 425.66 487.45 425.66 483.64C425.66 479.83 422.57 476.74 418.76 476.74Z" fill="#595959"/>
<path d="M659.41 426.62L599.27 443.65H418.41" stroke="#595959" stroke-width="1.84" stroke-miterlimit="10"/>
<path d="M418.76 450.55C422.571 450.55 425.66 447.461 425.66 443.65C425.66 439.839 422.571 436.75 418.76 436.75C414.949 436.75 411.86 439.839 411.86 443.65C411.86 447.461 414.949 450.55 418.76 450.55Z" fill="#595959"/>
<path d="M734.74 393.5H599.27H418.41" stroke="#595959" stroke-width="1.84" stroke-miterlimit="10"/>
<path d="M418.76 386.6C414.95 386.6 411.86 389.69 411.86 393.5C411.86 397.31 414.95 400.4 418.76 400.4C422.57 400.4 425.66 397.31 425.66 393.5C425.66 389.69 422.57 386.6 418.76 386.6Z" fill="#595959"/>
<path d="M1383.06 157.85C1382.85 151.2 1386.63 146.09 1393.62 146.09C1398.94 146.09 1403.6 149.5 1403.6 155.19C1403.6 159.56 1401.27 161.97 1398.4 164C1395.53 166.04 1392.12 167.7 1390 170.69H1403.76V175.76H1382.4C1382.44 169.03 1386.56 166.16 1391.59 162.75C1394.17 161 1397.66 159.22 1397.7 155.64C1397.7 152.9 1395.87 151.15 1393.34 151.15C1389.85 151.15 1388.73 154.77 1388.73 157.84H1383.06V157.85Z" fill="#595959"/>
<path d="M1423.22 164.18V146.68H1417.94L1405.3 163.64V169.04H1417.61V175.77H1423.22V169.04H1427.09V164.18H1423.22ZM1417.61 164.18H1409.96L1417.48 154.08H1417.61V164.18Z" fill="#595959"/>
<path d="M1430.24 169.37H1436.77V175.77H1430.24V169.37Z" fill="#595959"/>
<path d="M1440.83 157.85C1440.62 151.2 1444.4 146.09 1451.39 146.09C1456.71 146.09 1461.37 149.5 1461.37 155.19C1461.37 159.56 1459.04 161.97 1456.17 164C1453.3 166.04 1449.89 167.7 1447.77 170.69H1461.53V175.76H1440.17C1440.21 169.03 1444.33 166.16 1449.36 162.75C1451.94 161 1455.43 159.22 1455.47 155.64C1455.47 152.9 1453.64 151.15 1451.11 151.15C1447.62 151.15 1446.5 154.77 1446.5 157.84H1440.83V157.85Z" fill="#595959"/>
<path d="M1494.05 160.14C1489.18 160.14 1486.98 163.59 1486.98 168.16C1486.98 172.73 1488.73 176.35 1493.84 176.35C1498.95 176.35 1500.86 172.9 1500.86 168.33C1500.86 163.76 1499.19 160.14 1494.05 160.14ZM1493.87 173.23C1491.21 173.23 1491.21 169.99 1491.21 168.2C1491.21 166.28 1491.38 163.25 1494.04 163.25C1496.5 163.25 1496.62 166.62 1496.62 168.24C1496.62 169.99 1496.46 173.23 1493.88 173.23H1493.87ZM1490.17 145.76L1472.96 176.68H1476.58L1493.7 145.76H1490.17ZM1472.6 146.09C1467.73 146.09 1465.53 149.75 1465.53 154.32C1465.53 158.89 1467.28 162.3 1472.39 162.3C1477.5 162.3 1479.41 159.07 1479.41 154.49C1479.41 149.91 1477.74 146.1 1472.6 146.09ZM1472.42 159.18H1472.41C1469.75 159.18 1469.75 156.19 1469.75 154.4C1469.75 152.48 1469.92 149.2 1472.58 149.2C1475.04 149.2 1475.16 152.82 1475.16 154.44C1475.16 156.19 1475 159.18 1472.42 159.18Z" fill="#595959"/>
<path d="M1395.62 689.25H1389.72V670.38H1382.4V665.93C1386.51 666.01 1390.3 664.6 1390.92 660.15H1395.62V689.25Z" fill="#595959"/>
<path d="M1413.95 659.57C1408.21 659.57 1403.31 662.98 1403.31 674.57C1403.31 686.16 1408.13 689.82 1413.95 689.82C1419.77 689.82 1424.67 685.91 1424.67 674.57C1424.67 663.23 1419.77 659.57 1413.95 659.57ZM1413.95 684.97C1409.21 684.97 1409.21 677.86 1409.21 674.58C1409.21 671.55 1409.13 664.44 1413.95 664.44C1418.77 664.44 1418.77 671.55 1418.77 674.58C1418.77 677.86 1418.77 684.97 1413.95 684.97Z" fill="#595959"/>
<path d="M1457.18 673.61C1452.31 673.61 1450.11 677.06 1450.11 681.63C1450.11 686.2 1451.86 689.82 1456.97 689.82C1462.08 689.82 1463.99 686.37 1463.99 681.8C1463.99 677.23 1462.32 673.61 1457.18 673.61ZM1457 686.7H1456.99C1454.33 686.7 1454.33 683.46 1454.33 681.67C1454.33 679.75 1454.5 676.72 1457.16 676.72C1459.62 676.72 1459.74 680.09 1459.74 681.71C1459.74 683.46 1459.58 686.7 1457 686.7ZM1453.3 659.23L1436.09 690.15H1439.71L1456.83 659.23H1453.3ZM1435.73 659.57C1430.86 659.57 1428.66 663.23 1428.66 667.8C1428.66 672.37 1430.41 675.78 1435.52 675.78C1440.63 675.78 1442.54 672.55 1442.54 667.97C1442.54 663.39 1440.87 659.58 1435.73 659.57ZM1435.55 672.66C1432.89 672.66 1432.89 669.67 1432.89 667.88C1432.89 665.96 1433.06 662.68 1435.72 662.68C1438.18 662.68 1438.3 666.3 1438.3 667.92C1438.3 669.67 1438.14 672.66 1435.56 672.66H1435.55Z" fill="#595959"/>
<path d="M1494.66 668.56H1507.66V670.78H1497.3V677.07H1506.39V679.29H1497.3V688.35H1494.67V668.56H1494.66Z" fill="#595959"/>
<path d="M1510.32 668.56H1512.68V688.35H1510.32V668.56Z" fill="#595959"/>
<path d="M1528.3 686.6C1527.55 686.6 1527.55 686.1 1527.55 684.99V677.62C1527.55 674.27 1524.75 673.69 1522.17 673.69C1518.98 673.69 1516.24 674.93 1516.1 678.48H1518.46C1518.57 676.37 1520.03 675.76 1522.03 675.76C1523.53 675.76 1525.22 676.09 1525.22 678.14C1525.22 679.92 1523 679.75 1520.4 680.25C1517.96 680.73 1515.55 681.42 1515.55 684.66C1515.55 687.52 1517.68 688.68 1520.29 688.68C1522.28 688.68 1524.03 687.98 1525.33 686.46C1525.33 688.01 1526.11 688.68 1527.33 688.68C1528.08 688.68 1528.6 688.54 1529.02 688.29V686.46C1528.72 686.57 1528.49 686.6 1528.3 686.6ZM1525.2 683.37C1525.2 684.67 1523.92 686.61 1520.82 686.61C1519.38 686.61 1518.05 686.05 1518.05 684.5C1518.05 682.75 1519.38 682.2 1520.93 681.92C1522.51 681.64 1524.29 681.62 1525.2 680.95V683.37Z" fill="#595959"/>
<path d="M1531.12 674.02H1533.34V677.04H1533.4C1534.54 674.74 1536.11 673.6 1538.66 673.69V676.18C1534.86 676.18 1533.48 678.34 1533.48 681.97V688.34H1531.12V674.01V674.02Z" fill="#595959"/>
<path d="M1545.9 673.69C1542 673.69 1539.17 676.84 1539.17 681.14C1539.31 685.52 1541.47 688.68 1546.04 688.68C1549.25 688.68 1551.52 686.96 1552.16 683.8H1549.83C1549.42 685.66 1548.06 686.6 1546.12 686.6C1542.99 686.6 1541.58 684.38 1541.66 681.89H1552.38C1552.52 678.43 1550.97 673.69 1545.9 673.69ZM1541.66 679.81C1541.82 677.62 1543.29 675.76 1545.76 675.76C1548.09 675.76 1549.78 677.56 1549.89 679.81H1541.66Z" fill="#595959"/>
<path d="M1570.69 688.35H1567.7L1560.72 668.56H1563.57L1569.22 685.71H1569.28L1574.99 668.56H1577.73L1570.69 688.35Z" fill="#595959"/>
<path d="M1593.74 674.52C1593.19 671.72 1590.94 670.31 1588.2 670.31C1583.49 670.31 1581.49 674.19 1581.49 678.32C1581.49 682.84 1583.49 686.61 1588.22 686.61C1591.68 686.61 1593.68 684.17 1593.93 680.9H1596.56C1596.06 685.83 1592.98 688.82 1588 688.82C1581.85 688.82 1578.86 684.28 1578.86 678.51C1578.86 672.74 1582.13 668.09 1588.23 668.09C1592.36 668.09 1595.77 670.31 1596.38 674.52H1593.74Z" fill="#595959"/>
<path d="M1607.54 668.56H1620.54V670.78H1610.18V677.07H1619.27V679.29H1610.18V688.35H1607.55V668.56H1607.54Z" fill="#595959"/>
<path d="M1634.92 688.35H1632.7V686.08H1632.64C1631.64 687.85 1630.04 688.69 1627.98 688.69C1624.21 688.69 1623.05 686.53 1623.05 683.45V674.03H1625.41V683.73C1625.41 685.48 1626.52 686.61 1628.32 686.61C1631.17 686.61 1632.56 684.7 1632.56 682.12V674.03H1634.92V688.36V688.35Z" fill="#595959"/>
<path d="M1638.45 674.02H1640.67V676.29H1640.73C1641.73 674.52 1643.33 673.69 1645.39 673.69C1649.16 673.69 1650.32 675.85 1650.32 678.93V688.35H1647.97V678.65C1647.97 676.9 1646.86 675.77 1645.06 675.77C1642.21 675.77 1640.82 677.68 1640.82 680.26V688.35H1638.46V674.02H1638.45Z" fill="#595959"/>
<path d="M1664.31 668.56V675.93H1664.26C1663.2 674.24 1661.1 673.69 1659.63 673.69C1655.25 673.69 1653.09 677.09 1653.09 681.14C1653.09 685.19 1655.28 688.68 1659.69 688.68C1661.65 688.68 1663.48 687.99 1664.26 686.41H1664.31V688.35H1666.67V668.56H1664.31ZM1660.02 686.6C1656.98 686.6 1655.59 684.11 1655.59 681.31C1655.59 678.51 1656.64 675.77 1659.88 675.77C1663.12 675.77 1664.4 678.37 1664.4 681.2C1664.4 684.03 1663.18 686.6 1660.02 686.6Z" fill="#595959"/>
<path d="M1681.87 693.83C1679.21 689.67 1677.52 685.71 1677.52 680.86C1677.52 676.54 1679.04 671.85 1681.87 668.09H1683.67C1681.04 672.25 1680.01 676.38 1680.01 680.86C1680.01 685.34 1681.04 689.59 1683.67 693.83H1681.87Z" fill="#595959"/>
<path d="M1685.54 668.56H1688.34L1698.76 684.6H1698.82V668.56H1701.31V688.35H1698.43L1688.09 672.47H1688.04V688.35H1685.55V668.56H1685.54Z" fill="#595959"/>
<path d="M1711.36 673.69C1706.81 673.69 1704.4 677.02 1704.4 681.2C1704.4 685.38 1706.81 688.68 1711.36 688.68C1715.91 688.68 1718.32 685.41 1718.32 681.2C1718.32 676.99 1715.9 673.69 1711.36 673.69ZM1711.36 686.6C1708.9 686.6 1706.9 684.69 1706.9 681.2C1706.9 677.71 1708.9 675.77 1711.36 675.77C1713.82 675.77 1715.82 677.74 1715.82 681.2C1715.82 684.66 1713.83 686.6 1711.36 686.6Z" fill="#595959"/>
<path d="M1721.08 674.02H1723.3V676.29H1723.36C1724.36 674.52 1725.96 673.69 1728.02 673.69C1731.79 673.69 1732.95 675.85 1732.95 678.93V688.35H1730.59V678.65C1730.59 676.9 1729.48 675.77 1727.68 675.77C1724.83 675.77 1723.44 677.68 1723.44 680.26V688.35H1721.08V674.02Z" fill="#595959"/>
<path d="M1750.65 688.35H1748.13L1742.81 674.02H1745.44L1749.46 685.96H1749.52L1753.43 674.02H1755.9L1750.66 688.35H1750.65Z" fill="#595959"/>
<path d="M1764.23 673.69C1759.68 673.69 1757.27 677.02 1757.27 681.2C1757.27 685.38 1759.68 688.68 1764.23 688.68C1768.78 688.68 1771.19 685.41 1771.19 681.2C1771.19 676.99 1768.77 673.69 1764.23 673.69ZM1764.23 686.6C1761.77 686.6 1759.77 684.69 1759.77 681.2C1759.77 677.71 1761.77 675.77 1764.23 675.77C1766.69 675.77 1768.69 677.74 1768.69 681.2C1768.69 684.66 1766.7 686.6 1764.23 686.6Z" fill="#595959"/>
<path d="M1777.21 674.02H1780.06V676.1H1777.21V685C1777.21 686.08 1777.51 686.27 1778.98 686.27H1780.06V688.35H1778.26C1775.82 688.35 1774.85 687.85 1774.85 685.22V676.1H1772.41V674.02H1774.85V669.73H1777.21V674.02Z" fill="#595959"/>
<path d="M1782.81 674.02V688.35H1785.17V674.02H1782.81ZM1782.81 668.56V671.44H1785.17V668.56H1782.81Z" fill="#595959"/>
<path d="M1788.82 674.02H1791.04V676.29H1791.1C1792.1 674.52 1793.7 673.69 1795.76 673.69C1799.53 673.69 1800.69 675.85 1800.69 678.93V688.35H1798.34V678.65C1798.34 676.9 1797.23 675.77 1795.43 675.77C1792.58 675.77 1791.19 677.68 1791.19 680.26V688.35H1788.83V674.02H1788.82Z" fill="#595959"/>
<path d="M1814.38 674.03V676.08H1814.35C1813.49 674.5 1811.88 673.7 1810.08 673.7C1805.12 673.7 1803.46 677.88 1803.46 681.26C1803.46 685.17 1805.59 688.52 1809.86 688.52C1811.66 688.52 1813.54 687.67 1814.32 685.92H1814.37V686.86C1814.37 690.07 1813.16 692.29 1810.08 692.29C1808.53 692.29 1806.48 691.68 1806.37 689.96H1804.01C1804.15 693.09 1807.25 694.17 1809.94 694.17C1814.46 694.17 1816.59 691.79 1816.59 687.13V674.03H1814.37H1814.38ZM1810 686.44C1806.89 686.44 1805.95 683.56 1805.95 680.98C1805.95 678.24 1807.23 675.77 1810.19 675.77C1813.15 675.77 1814.26 678.38 1814.26 680.9H1814.27C1814.27 683.59 1813.11 686.44 1810 686.44Z" fill="#595959"/>
<path d="M1818.08 693.83C1820.71 689.67 1821.74 685.54 1821.74 681.06C1821.74 676.58 1820.71 672.33 1818.08 668.09H1819.88C1822.54 672.25 1824.23 676.21 1824.23 681.06C1824.23 685.38 1822.71 690.07 1819.88 693.83H1818.08Z" fill="#595959"/>
<path d="M941.81 286.28L1092.7 167.81H1338.66" stroke="#595959" stroke-width="1.84" stroke-miterlimit="10"/>
<path d="M1338.31 174.71C1342.12 174.71 1345.21 171.62 1345.21 167.81C1345.21 164 1342.12 160.91 1338.31 160.91C1334.5 160.91 1331.41 164 1331.41 167.81C1331.41 171.62 1334.5 174.71 1338.31 174.71Z" fill="#595959"/>
<path d="M851.22 307.17L669.63 167.81H418.41" stroke="#595959" stroke-width="1.84" stroke-miterlimit="10"/>
<path d="M418.76 160.91C414.95 160.91 411.86 164 411.86 167.81C411.86 171.62 414.95 174.71 418.76 174.71C422.57 174.71 425.66 171.62 425.66 167.81C425.66 164 422.57 160.91 418.76 160.91Z" fill="#595959"/>
<path d="M1018.44 494.54L1157.8 548.61H1338.66" stroke="#595959" stroke-width="1.84" stroke-miterlimit="10"/>
<path d="M1338.31 555.51C1342.12 555.51 1345.21 552.42 1345.21 548.61C1345.21 544.8 1342.12 541.71 1338.31 541.71C1334.5 541.71 1331.41 544.8 1331.41 548.61C1331.41 552.42 1334.5 555.51 1338.31 555.51Z" fill="#595959"/>
<path d="M676.03 354.95L618.45 339.08L418.42 327.18" stroke="#595959" stroke-width="1.84" stroke-miterlimit="10"/>
<path d="M419.17 320.32C415.37 320.09 412.1 323 411.87 326.8C411.64 330.6 414.54 333.87 418.35 334.1C422.15 334.33 425.42 331.42 425.65 327.62C425.88 323.82 422.97 320.55 419.17 320.32Z" fill="#595959"/>
<path d="M1049.68 416.28H1338.66" stroke="#595959" stroke-width="1.84" stroke-miterlimit="10"/>
<path d="M1338.31 423.19C1342.12 423.19 1345.21 420.1 1345.21 416.29C1345.21 412.48 1342.12 409.39 1338.31 409.39C1334.5 409.39 1331.41 412.48 1331.41 416.29C1331.41 420.1 1334.5 423.19 1338.31 423.19Z" fill="#595959"/>
<path d="M1400.32 417.14V399.64H1395.04L1382.4 416.6V422H1394.71V428.73H1400.32V422H1404.19V417.14H1400.32ZM1394.71 417.14H1387.06L1394.58 407.04H1394.71V417.14Z" fill="#595959"/>
<path d="M1407.33 422.33H1413.86V428.73H1407.33V422.33Z" fill="#595959"/>
<path d="M1425.86 411.4C1428.4 411.61 1432.05 411.11 1432.05 407.78C1432.05 405.33 1430.1 403.91 1427.93 403.91C1424.98 403.91 1423.4 406.11 1423.44 409.11H1417.83C1418.04 403.17 1421.9 399.05 1427.89 399.05C1432.55 399.05 1437.66 401.92 1437.66 407.11C1437.66 409.85 1436.29 412.31 1433.59 413.05V413.13C1436.79 413.84 1438.74 416.5 1438.74 419.74C1438.74 425.85 1433.63 429.3 1427.93 429.3C1421.4 429.3 1417 425.39 1417.12 418.7H1422.73C1422.85 421.86 1424.43 424.44 1427.84 424.44C1430.5 424.44 1432.58 422.61 1432.58 419.87C1432.58 415.46 1428.71 415.55 1425.85 415.55V411.39H1425.86V411.4Z" fill="#595959"/>
<path d="M1471.15 413.1C1466.28 413.1 1464.08 416.55 1464.08 421.12C1464.08 425.69 1465.83 429.31 1470.94 429.31C1476.05 429.31 1477.96 425.86 1477.96 421.29C1477.96 416.72 1476.29 413.1 1471.15 413.1ZM1470.97 426.19H1470.96C1468.3 426.19 1468.3 422.95 1468.3 421.16C1468.3 419.25 1468.47 416.21 1471.13 416.21C1473.59 416.21 1473.71 419.58 1473.71 421.2C1473.71 422.95 1473.55 426.19 1470.97 426.19ZM1467.27 398.72L1450.06 429.64H1453.68L1470.8 398.72H1467.27ZM1449.7 399.05C1444.83 399.05 1442.63 402.71 1442.63 407.28C1442.63 411.85 1444.38 415.26 1449.49 415.26C1454.6 415.26 1456.51 412.03 1456.51 407.45C1456.51 402.87 1454.84 399.06 1449.7 399.05ZM1449.52 412.14C1446.86 412.14 1446.86 409.15 1446.86 407.36C1446.86 405.44 1447.03 402.16 1449.69 402.16C1452.15 402.16 1452.27 405.78 1452.27 407.4C1452.27 409.15 1452.11 412.14 1449.53 412.14H1449.52Z" fill="#595959"/>
<path d="M1392.58 525.37C1386.52 525.37 1382.4 530.07 1382.4 536.01C1382.4 538.29 1383.1 540.7 1384.64 542.49C1386.3 544.32 1388.84 545.48 1391.33 545.48C1394.16 545.48 1396.28 544.53 1397.9 542.24L1397.98 542.32C1397.81 545.56 1396.69 551.17 1392.41 551.17C1390.38 551.17 1388.89 549.51 1388.51 547.57V547.55C1388.51 547.55 1388.51 547.55 1388.51 547.57H1382.91C1383.57 552.68 1387.31 555.63 1392.34 555.63C1400.61 555.63 1403.77 547.78 1403.77 540.42C1403.77 533.06 1401.4 525.37 1392.59 525.37H1392.58ZM1397.44 535.63C1397.44 538.49 1395.78 541.03 1392.74 541.03C1389.7 541.03 1388.29 538.16 1388.29 535.54C1388.29 532.92 1389.79 530.22 1392.74 530.22C1395.69 530.22 1397.44 532.92 1397.44 535.62V535.63Z" fill="#595959"/>
<path d="M1407.11 548.63H1413.64V555.03H1407.11V548.63Z" fill="#595959"/>
<path d="M1433.27 539.35V539.27C1436.01 538.36 1437.51 535.98 1437.51 533.16C1437.51 530.34 1435.01 525.35 1427.78 525.35H1427.79C1423.05 525.35 1417.98 528.04 1417.98 533.28C1417.98 536.15 1419.43 538.48 1422.26 539.27V539.35C1418.85 540.18 1416.77 542.8 1416.77 546.5C1416.77 552.77 1422.43 555.6 1427.83 555.6C1433.23 555.6 1438.72 552.57 1438.72 546.46C1438.72 542.8 1436.72 540.14 1433.27 539.35ZM1427.78 529.8C1431.43 529.8 1432.14 532.33 1432.14 533.83C1432.14 536.32 1430.19 537.65 1427.78 537.65C1425.37 537.65 1423.33 536.41 1423.33 533.83C1423.33 531.25 1425.41 529.8 1427.78 529.8ZM1427.82 551.16C1425 551.16 1422.67 549.19 1422.67 546.2C1422.67 543.21 1425.07 541.59 1427.82 541.59C1430.57 541.59 1432.81 543.34 1432.81 546.25C1432.81 549.16 1430.65 551.16 1427.82 551.16Z" fill="#595959"/>
<path d="M1470.92 539.39C1466.05 539.39 1463.85 542.84 1463.85 547.41C1463.85 551.98 1465.6 555.6 1470.71 555.6C1475.82 555.6 1477.73 552.15 1477.73 547.58C1477.73 543.01 1476.06 539.39 1470.92 539.39ZM1470.74 552.48C1468.08 552.48 1468.08 549.24 1468.08 547.45C1468.08 545.53 1468.25 542.5 1470.91 542.5C1473.37 542.5 1473.49 545.87 1473.49 547.49C1473.49 549.24 1473.33 552.48 1470.75 552.48H1470.74ZM1467.04 525.01L1449.83 555.93H1453.45L1470.57 525.01H1467.04ZM1449.47 525.35C1444.6 525.35 1442.4 529.01 1442.4 533.58C1442.4 538.15 1444.15 541.56 1449.26 541.56C1454.37 541.56 1456.28 538.33 1456.28 533.75C1456.28 529.17 1454.61 525.36 1449.47 525.35ZM1449.29 538.44C1446.63 538.44 1446.63 535.45 1446.63 533.66C1446.63 531.74 1446.8 528.46 1449.46 528.46C1451.92 528.46 1452.04 532.08 1452.04 533.7C1452.04 535.45 1451.88 538.44 1449.3 538.44H1449.29Z" fill="#595959"/>
<path d="M1494.66 534.15H1507.66V536.37H1497.3V542.66H1506.39V544.88H1497.3V553.94H1494.67V534.15H1494.66Z" fill="#595959"/>
<path d="M1510.32 534.15H1512.68V553.94H1510.32V534.15Z" fill="#595959"/>
<path d="M1528.3 552.18C1527.55 552.18 1527.55 551.68 1527.55 550.57V543.2C1527.55 539.85 1524.75 539.27 1522.17 539.27C1518.98 539.27 1516.24 540.51 1516.1 544.06H1518.46C1518.57 541.96 1520.03 541.35 1522.03 541.35C1523.53 541.35 1525.22 541.68 1525.22 543.73C1525.22 545.51 1523 545.34 1520.4 545.84C1517.96 546.32 1515.55 547.01 1515.55 550.25C1515.55 553.11 1517.68 554.27 1520.29 554.27C1522.28 554.27 1524.03 553.57 1525.33 552.05C1525.33 553.61 1526.11 554.27 1527.33 554.27C1528.08 554.27 1528.6 554.13 1529.02 553.88V552.04C1528.72 552.15 1528.49 552.18 1528.3 552.18ZM1525.2 548.96C1525.2 550.26 1523.92 552.2 1520.82 552.2C1519.38 552.2 1518.05 551.64 1518.05 550.09C1518.05 548.34 1519.38 547.79 1520.93 547.51C1522.51 547.23 1524.29 547.21 1525.2 546.54V548.96Z" fill="#595959"/>
<path d="M1531.12 539.61H1533.34V542.63H1533.4C1534.54 540.33 1536.11 539.19 1538.66 539.28V541.77C1534.86 541.77 1533.48 543.93 1533.48 547.56V553.93H1531.12V539.6V539.61Z" fill="#595959"/>
<path d="M1545.9 539.28C1542 539.28 1539.17 542.44 1539.17 546.73C1539.31 551.11 1541.47 554.27 1546.04 554.27C1549.25 554.27 1551.52 552.55 1552.16 549.39H1549.83C1549.42 551.25 1548.06 552.19 1546.12 552.19C1542.99 552.19 1541.58 549.97 1541.66 547.48H1552.38C1552.52 544.02 1550.97 539.28 1545.9 539.28ZM1541.66 545.4C1541.82 543.22 1543.29 541.36 1545.76 541.36C1548.09 541.36 1549.78 543.16 1549.89 545.4H1541.66Z" fill="#595959"/>
<path d="M1562.91 534.15H1575.91V536.37H1565.55V542.66H1574.64V544.88H1565.55V553.94H1562.92V534.15H1562.91Z" fill="#595959"/>
<path d="M1584.6 539.28C1580.05 539.28 1577.64 542.61 1577.64 546.79C1577.64 550.97 1580.05 554.27 1584.6 554.27C1589.15 554.27 1591.56 551 1591.56 546.79C1591.56 542.58 1589.14 539.28 1584.6 539.28ZM1584.6 552.19C1582.14 552.19 1580.14 550.28 1580.14 546.79C1580.14 543.3 1582.14 541.36 1584.6 541.36C1587.06 541.36 1589.06 543.33 1589.06 546.79C1589.06 550.25 1587.07 552.19 1584.6 552.19Z" fill="#595959"/>
<path d="M1606.19 553.94H1603.97V551.67H1603.91C1602.91 553.44 1601.31 554.27 1599.25 554.27C1595.48 554.27 1594.32 552.11 1594.32 549.03V539.61H1596.68V549.31C1596.68 551.06 1597.79 552.19 1599.59 552.19C1602.44 552.19 1603.83 550.28 1603.83 547.7V539.61H1606.19V553.94Z" fill="#595959"/>
<path d="M1609.73 539.61H1611.95V541.88H1612.01C1613.01 540.11 1614.61 539.28 1616.67 539.28C1620.44 539.28 1621.6 541.44 1621.6 544.52V553.94H1619.25V544.24C1619.25 542.49 1618.14 541.36 1616.34 541.36C1613.49 541.36 1612.1 543.27 1612.1 545.85V553.94H1609.74V539.61H1609.73Z" fill="#595959"/>
<path d="M1635.58 534.15V541.52H1635.53C1634.47 539.83 1632.37 539.28 1630.9 539.28C1626.52 539.28 1624.36 542.68 1624.36 546.73C1624.36 550.78 1626.55 554.27 1630.96 554.27C1632.92 554.27 1634.75 553.58 1635.53 552H1635.58V553.94H1637.94V534.15H1635.58ZM1631.29 552.19C1628.25 552.19 1626.86 549.7 1626.86 546.9C1626.86 544.1 1627.91 541.36 1631.15 541.36C1634.39 541.36 1635.67 543.96 1635.67 546.79C1635.67 549.62 1634.45 552.19 1631.29 552.19Z" fill="#595959"/>
<path d="M1653.54 552.18C1652.79 552.18 1652.79 551.68 1652.79 550.57V543.2C1652.79 539.85 1649.99 539.27 1647.41 539.27C1644.22 539.27 1641.48 540.51 1641.34 544.06H1643.7C1643.81 541.96 1645.27 541.35 1647.27 541.35C1648.77 541.35 1650.46 541.68 1650.46 543.73C1650.46 545.51 1648.24 545.34 1645.64 545.84C1643.2 546.32 1640.79 547.01 1640.79 550.25C1640.79 553.11 1642.92 554.27 1645.53 554.27C1647.52 554.27 1649.27 553.57 1650.57 552.05C1650.57 553.61 1651.35 554.27 1652.57 554.27C1653.32 554.27 1653.84 554.13 1654.26 553.88V552.04C1653.96 552.15 1653.73 552.18 1653.54 552.18ZM1650.44 548.96C1650.44 550.26 1649.16 552.2 1646.06 552.2C1644.62 552.2 1643.29 551.64 1643.29 550.09C1643.29 548.34 1644.62 547.79 1646.17 547.51C1647.75 547.23 1649.53 547.21 1650.44 546.54V548.96Z" fill="#595959"/>
<path d="M1659.71 539.61H1662.56V541.69H1659.71V550.59C1659.71 551.67 1660.01 551.86 1661.48 551.86H1662.56V553.94H1660.76C1658.32 553.94 1657.35 553.44 1657.35 550.81V541.69H1654.91V539.61H1657.35V535.32H1659.71V539.61Z" fill="#595959"/>
<path d="M1665.31 539.61V553.94H1667.67V539.61H1665.31ZM1665.31 534.15V537.03H1667.67V534.15H1665.31Z" fill="#595959"/>
<path d="M1677.5 539.28C1672.95 539.28 1670.54 542.61 1670.54 546.79C1670.54 550.97 1672.95 554.27 1677.5 554.27C1682.05 554.27 1684.46 551 1684.46 546.79C1684.46 542.58 1682.04 539.28 1677.5 539.28ZM1677.5 552.19C1675.04 552.19 1673.04 550.28 1673.04 546.79C1673.04 543.3 1675.04 541.36 1677.5 541.36C1679.96 541.36 1681.96 543.33 1681.96 546.79C1681.96 550.25 1679.97 552.19 1677.5 552.19Z" fill="#595959"/>
<path d="M1687.23 539.61H1689.45V541.88H1689.51C1690.51 540.11 1692.11 539.28 1694.17 539.28C1697.94 539.28 1699.1 541.44 1699.1 544.52V553.94H1696.75V544.24C1696.75 542.49 1695.64 541.36 1693.84 541.36C1690.99 541.36 1689.6 543.27 1689.6 545.85V553.94H1687.24V539.61H1687.23Z" fill="#595959"/>
<path d="M1714.21 559.42C1711.55 555.26 1709.86 551.3 1709.86 546.45C1709.86 542.13 1711.38 537.44 1714.21 533.68H1716.01C1713.38 537.84 1712.35 541.97 1712.35 546.45C1712.35 550.93 1713.38 555.18 1716.01 559.42H1714.21Z" fill="#595959"/>
<path d="M1717.51 539.61H1719.73V541.88H1719.79C1720.79 540.11 1722.39 539.28 1724.45 539.28C1728.22 539.28 1729.38 541.44 1729.38 544.52V553.94H1727.03V544.24C1727.03 542.49 1725.92 541.36 1724.12 541.36C1721.27 541.36 1719.88 543.27 1719.88 545.85V553.94H1717.52V539.61H1717.51Z" fill="#595959"/>
<path d="M1739.09 539.28C1734.54 539.28 1732.13 542.61 1732.13 546.79C1732.13 550.97 1734.54 554.27 1739.09 554.27C1743.64 554.27 1746.05 551 1746.05 546.79C1746.05 542.58 1743.63 539.28 1739.09 539.28ZM1739.09 552.19C1736.63 552.19 1734.63 550.28 1734.63 546.79C1734.63 543.3 1736.63 541.36 1739.09 541.36C1741.55 541.36 1743.55 543.33 1743.55 546.79C1743.55 550.25 1741.56 552.19 1739.09 552.19Z" fill="#595959"/>
<path d="M1748.82 539.61H1751.04V541.88H1751.1C1752.1 540.11 1753.7 539.28 1755.76 539.28C1759.53 539.28 1760.69 541.44 1760.69 544.52V553.94H1758.33V544.24C1758.33 542.49 1757.22 541.36 1755.42 541.36C1752.57 541.36 1751.18 543.27 1751.18 545.85V553.94H1748.82V539.61Z" fill="#595959"/>
<path d="M1763.84 545.13H1771.85V547.35H1763.84V545.13Z" fill="#595959"/>
<path d="M1781.46 553.94H1778.94L1773.62 539.61H1776.25L1780.27 551.55H1780.33L1784.24 539.61H1786.71L1781.47 553.94H1781.46Z" fill="#595959"/>
<path d="M1795.04 539.28C1790.49 539.28 1788.08 542.61 1788.08 546.79C1788.08 550.97 1790.49 554.27 1795.04 554.27C1799.59 554.27 1802 551 1802 546.79C1802 542.58 1799.58 539.28 1795.04 539.28ZM1795.04 552.19C1792.58 552.19 1790.58 550.28 1790.58 546.79C1790.58 543.3 1792.58 541.36 1795.04 541.36C1797.5 541.36 1799.5 543.33 1799.5 546.79C1799.5 550.25 1797.51 552.19 1795.04 552.19Z" fill="#595959"/>
<path d="M1808.03 539.61H1810.88V541.69H1808.03V550.59C1808.03 551.67 1808.33 551.86 1809.8 551.86H1810.88V553.94H1809.08C1806.64 553.94 1805.67 553.44 1805.67 550.81V541.69H1803.23V539.61H1805.67V535.32H1808.03V539.61Z" fill="#595959"/>
<path d="M1813.62 539.61V553.94H1815.98V539.61H1813.62ZM1813.62 534.15V537.03H1815.98V534.15H1813.62Z" fill="#595959"/>
<path d="M1819.64 539.61H1821.86V541.88H1821.92C1822.92 540.11 1824.52 539.28 1826.58 539.28C1830.35 539.28 1831.51 541.44 1831.51 544.52V553.94H1829.15V544.24C1829.15 542.49 1828.04 541.36 1826.24 541.36C1823.39 541.36 1822 543.27 1822 545.85V553.94H1819.64V539.61Z" fill="#595959"/>
<path d="M1845.18 539.62V541.67H1845.15C1844.29 540.09 1842.68 539.29 1840.88 539.29C1835.92 539.29 1834.26 543.47 1834.26 546.85C1834.26 550.76 1836.39 554.11 1840.66 554.11C1842.46 554.11 1844.34 553.26 1845.12 551.51H1845.18V552.45C1845.18 555.66 1843.97 557.88 1840.89 557.88C1839.34 557.88 1837.29 557.27 1837.18 555.55H1834.82C1834.96 558.68 1838.06 559.76 1840.75 559.76C1845.27 559.76 1847.4 557.37 1847.4 552.72V539.62H1845.18ZM1840.81 552.02C1837.7 552.02 1836.76 549.14 1836.76 546.56C1836.76 543.82 1838.04 541.35 1841 541.35C1843.96 541.35 1845.07 543.96 1845.07 546.48C1845.07 549.17 1843.91 552.02 1840.8 552.02H1840.81Z" fill="#595959"/>
<path d="M1848.9 559.42C1851.53 555.26 1852.56 551.13 1852.56 546.65C1852.56 542.17 1851.53 537.92 1848.9 533.68H1850.7C1853.36 537.84 1855.05 541.8 1855.05 546.65C1855.05 550.97 1853.53 555.66 1850.7 559.42H1848.9Z" fill="#595959"/>
<path d="M1.17 162.82C0.96 156.17 4.74 151.06 11.73 151.06C17.05 151.06 21.71 154.47 21.71 160.16C21.71 164.52 19.38 166.93 16.51 168.97C13.64 171.01 10.23 172.67 8.11 175.66H21.87V180.73H0.5C0.54 174 4.66 171.13 9.69 167.72C12.27 165.97 15.76 164.19 15.8 160.61C15.8 157.87 13.97 156.12 11.44 156.12C7.95 156.12 6.83 159.74 6.83 162.81H1.17V162.82Z" fill="#595959"/>
<path d="M34.25 151.05C28.51 151.05 23.61 154.47 23.61 166.06C23.61 177.65 28.43 181.31 34.25 181.31C40.07 181.31 44.97 177.41 44.97 166.06C44.97 154.71 40.07 151.05 34.25 151.05ZM34.25 176.45C29.51 176.45 29.51 169.34 29.51 166.06C29.51 163.03 29.43 155.92 34.25 155.92C39.07 155.92 39.07 163.02 39.07 166.06C39.07 169.34 39.07 176.45 34.25 176.45Z" fill="#595959"/>
<path d="M77.49 165.09C72.62 165.09 70.42 168.54 70.42 173.11C70.42 177.68 72.17 181.3 77.28 181.3C82.39 181.3 84.3 177.85 84.3 173.28C84.3 168.71 82.63 165.09 77.49 165.09ZM77.31 178.18H77.3C74.64 178.18 74.64 174.94 74.64 173.15C74.64 171.24 74.81 168.2 77.47 168.2C79.93 168.2 80.05 171.57 80.05 173.19C80.05 174.94 79.89 178.18 77.31 178.18ZM73.61 150.71L56.4 181.63H60.02L77.14 150.71H73.61ZM56.04 151.05C51.17 151.05 48.97 154.71 48.97 159.28C48.97 163.85 50.72 167.26 55.83 167.26C60.94 167.26 62.85 164.03 62.85 159.45C62.85 154.87 61.18 151.06 56.04 151.05ZM55.86 164.14H55.85C53.19 164.14 53.19 161.15 53.19 159.36C53.19 157.44 53.36 154.16 56.02 154.16C58.48 154.16 58.6 157.78 58.6 159.4C58.6 161.15 58.44 164.14 55.86 164.14Z" fill="#595959"/>
<path d="M109 162.72C108.45 159.92 106.2 158.51 103.46 158.51C98.75 158.51 96.75 162.39 96.75 166.52C96.75 171.04 98.75 174.81 103.48 174.81C106.94 174.81 108.94 172.37 109.19 169.1H111.82C111.32 174.03 108.24 177.02 103.26 177.02C97.11 177.02 94.12 172.48 94.12 166.71C94.12 160.94 97.39 156.29 103.49 156.29C107.62 156.29 111.03 158.51 111.64 162.72H109Z" fill="#595959"/>
<path d="M114.62 162.22H116.84V165.24H116.9C118.04 162.94 119.61 161.8 122.16 161.89V164.38C118.36 164.38 116.98 166.54 116.98 170.17V176.54H114.62V162.21V162.22Z" fill="#595959"/>
<path d="M129.62 161.89C125.07 161.89 122.66 165.22 122.66 169.4C122.66 173.58 125.07 176.88 129.62 176.88C134.17 176.88 136.58 173.61 136.58 169.4C136.58 165.19 134.16 161.89 129.62 161.89ZM129.62 174.8C127.16 174.8 125.16 172.89 125.16 169.4C125.16 165.91 127.16 163.97 129.62 163.97C132.08 163.97 134.08 165.94 134.08 169.4C134.08 172.86 132.09 174.8 129.62 174.8Z" fill="#595959"/>
<path d="M140.78 172.03C140.86 174.14 142.69 174.8 144.63 174.8C146.1 174.8 148.09 174.47 148.09 172.67C148.09 170.87 145.76 170.54 143.41 170.01C141.08 169.48 138.73 168.71 138.73 165.97C138.73 163.09 141.58 161.9 144.08 161.9C147.24 161.9 149.76 162.9 149.96 166.39H147.6C147.43 164.56 145.83 163.98 144.27 163.98C142.86 163.98 141.22 164.37 141.22 165.81C141.22 167.5 143.71 167.78 145.9 168.3C148.26 168.83 150.58 169.6 150.58 172.37C150.58 175.78 147.39 176.89 144.48 176.89C141.27 176.89 138.55 175.59 138.41 172.04H140.78V172.03Z" fill="#595959"/>
<path d="M154.63 172.03C154.71 174.14 156.54 174.8 158.48 174.8C159.95 174.8 161.94 174.47 161.94 172.67C161.94 170.87 159.61 170.54 157.26 170.01C154.93 169.48 152.58 168.71 152.58 165.97C152.58 163.09 155.43 161.9 157.93 161.9C161.09 161.9 163.61 162.9 163.81 166.39H161.45C161.28 164.56 159.68 163.98 158.12 163.98C156.71 163.98 155.07 164.37 155.07 165.81C155.07 167.5 157.56 167.78 159.75 168.3C162.11 168.83 164.43 169.6 164.43 172.37C164.43 175.78 161.24 176.89 158.33 176.89C155.12 176.89 152.4 175.59 152.26 172.04H154.63V172.03Z" fill="#595959"/>
<path d="M166.66 167.73H174.67V169.95H166.66V167.73Z" fill="#595959"/>
<path d="M187.55 166.82C187.19 165.02 185.94 163.97 184 163.97C180.59 163.97 179.54 166.66 179.54 169.57C179.54 172.2 180.73 174.81 183.72 174.81C185.99 174.81 187.35 173.48 187.65 171.32H190.06C189.53 174.81 187.34 176.89 183.74 176.89C179.36 176.89 177.03 173.84 177.03 169.57C177.03 165.3 179.25 161.89 183.79 161.89C187.03 161.89 189.64 163.41 189.97 166.82H187.53H187.55Z" fill="#595959"/>
<path d="M192.7 156.76H195.06V164.32H195.12C195.9 162.6 197.92 161.88 199.64 161.88C203.41 161.88 204.57 164.04 204.57 167.12V176.54H202.22V166.84C202.22 165.09 201.11 163.96 199.31 163.96C196.46 163.96 195.07 165.87 195.07 168.45V176.54H192.71V156.76H192.7Z" fill="#595959"/>
<path d="M220.08 174.8C219.33 174.8 219.33 174.3 219.33 173.19V165.82C219.33 162.46 216.53 161.88 213.95 161.88C210.76 161.88 208.02 163.12 207.88 166.67H210.24C210.35 164.57 211.81 163.96 213.81 163.96C215.31 163.96 217 164.29 217 166.34C217 168.12 214.78 167.95 212.18 168.45C209.74 168.93 207.33 169.62 207.33 172.86C207.33 175.72 209.46 176.88 212.07 176.88C214.06 176.88 215.81 176.18 217.11 174.66C217.11 176.21 217.89 176.88 219.11 176.88C219.86 176.88 220.38 176.74 220.8 176.49V174.66C220.5 174.77 220.27 174.8 220.08 174.8ZM216.98 171.57C216.98 172.87 215.7 174.81 212.6 174.81C211.16 174.81 209.83 174.25 209.83 172.7C209.83 170.95 211.16 170.4 212.71 170.12C214.29 169.84 216.07 169.82 216.98 169.15V171.57Z" fill="#595959"/>
<path d="M223.12 162.22V176.55H225.48V162.22H223.12ZM223.12 156.76V159.64H225.48V156.76H223.12Z" fill="#595959"/>
<path d="M229.14 162.22H231.36V164.49H231.42C232.42 162.72 234.02 161.88 236.08 161.88C239.85 161.88 241.01 164.04 241.01 167.12V176.54H238.65V166.84C238.65 165.09 237.54 163.96 235.74 163.96C232.89 163.96 231.5 165.87 231.5 168.45V176.54H229.14V162.21V162.22Z" fill="#595959"/>
<path d="M252.74 156.76H255.37V176.55H252.74V156.76Z" fill="#595959"/>
<path d="M259.42 162.22H261.64V164.49H261.7C262.7 162.72 264.3 161.88 266.36 161.88C270.13 161.88 271.29 164.04 271.29 167.12V176.54H268.94V166.84C268.94 165.09 267.83 163.96 266.03 163.96C263.18 163.96 261.79 165.87 261.79 168.45V176.54H259.43V162.21H259.42V162.22Z" fill="#595959"/>
<path d="M284.55 166.82C284.19 165.02 282.94 163.97 281 163.97C277.59 163.97 276.54 166.66 276.54 169.57C276.54 172.2 277.73 174.81 280.72 174.81C282.99 174.81 284.35 173.48 284.65 171.32H287.06C286.53 174.81 284.34 176.89 280.74 176.89C276.36 176.89 274.03 173.84 274.03 169.57C274.03 165.3 276.25 161.89 280.79 161.89C284.03 161.89 286.64 163.41 286.97 166.82H284.53H284.55Z" fill="#595959"/>
<path d="M295.66 161.89C291.76 161.89 288.93 165.05 288.93 169.34C289.07 173.72 291.23 176.88 295.8 176.88C299.01 176.88 301.28 175.16 301.92 172H299.59C299.18 173.86 297.82 174.8 295.88 174.8C292.75 174.8 291.34 172.58 291.42 170.09H302.14C302.28 166.63 300.73 161.89 295.66 161.89ZM291.42 168.01C291.59 165.83 293.05 163.97 295.52 163.97C297.85 163.97 299.54 165.77 299.65 168.01H291.42Z" fill="#595959"/>
<path d="M304.58 162.22H306.8V164.49H306.86C307.86 162.72 309.46 161.88 311.52 161.88C315.29 161.88 316.45 164.04 316.45 167.12V176.54H314.1V166.84C314.1 165.09 312.99 163.96 311.19 163.96C308.34 163.96 306.95 165.87 306.95 168.45V176.54H304.59V162.21H304.58V162.22Z" fill="#595959"/>
<path d="M323.26 162.22H326.11V164.3H323.26V173.19C323.26 174.27 323.56 174.47 325.03 174.47H326.11V176.55H324.31C321.87 176.55 320.9 176.05 320.9 173.42V164.3H318.46V162.22H320.9V157.93H323.26V162.22Z" fill="#595959"/>
<path d="M328.85 162.22V176.55H331.21V162.22H328.85ZM328.85 156.76V159.64H331.21V156.76H328.85Z" fill="#595959"/>
<path d="M341.32 176.55H338.8L333.48 162.22H336.11L340.13 174.16H340.19L344.1 162.22H346.57L341.33 176.55H341.32Z" fill="#595959"/>
<path d="M354.68 161.89C350.78 161.89 347.95 165.05 347.95 169.34C348.09 173.72 350.25 176.88 354.82 176.88C358.03 176.88 360.3 175.16 360.94 172H358.61C358.2 173.86 356.84 174.8 354.9 174.8C351.77 174.8 350.36 172.58 350.44 170.09H361.16C361.3 166.63 359.75 161.89 354.68 161.89ZM350.44 168.01C350.61 165.83 352.07 163.97 354.54 163.97C356.87 163.97 358.56 165.77 358.67 168.01H350.44Z" fill="#595959"/>
<path d="M365.04 172.03C365.12 174.14 366.95 174.8 368.89 174.8C370.36 174.8 372.35 174.47 372.35 172.67C372.35 170.87 370.02 170.54 367.67 170.01C365.34 169.48 362.99 168.71 362.99 165.97C362.99 163.09 365.84 161.9 368.34 161.9C371.5 161.9 374.02 162.9 374.22 166.39H371.86C371.69 164.56 370.09 163.98 368.53 163.98C367.12 163.98 365.48 164.37 365.48 165.81C365.48 167.5 367.97 167.78 370.16 168.3C372.52 168.83 374.84 169.6 374.84 172.37C374.84 175.78 371.65 176.89 368.74 176.89C365.53 176.89 362.81 175.59 362.67 172.04H365.04V172.03Z" fill="#595959"/>
<path d="M129.25 691.97H123.35V673.1H116.03V668.65C120.14 668.73 123.93 667.32 124.55 662.87H129.25V691.97Z" fill="#595959"/>
<path d="M137.61 674.05C137.4 667.4 141.18 662.29 148.17 662.29C153.49 662.29 158.15 665.7 158.15 671.39C158.15 675.75 155.82 678.16 152.95 680.2C150.08 682.24 146.67 683.9 144.55 686.89H158.31V691.96H136.95C136.99 685.23 141.11 682.36 146.14 678.95C148.72 677.2 152.21 675.42 152.25 671.84C152.25 669.1 150.42 667.35 147.89 667.35C144.4 667.35 143.28 670.97 143.28 674.04H137.61V674.05Z" fill="#595959"/>
<path d="M161.67 685.57H168.2V691.97H161.67V685.57Z" fill="#595959"/>
<path d="M181.79 662.31C175.72 662.31 171.61 667.01 171.61 672.95C171.61 675.23 172.31 677.64 173.85 679.43C175.51 681.26 178.05 682.42 180.54 682.42C183.37 682.42 185.49 681.47 187.11 679.18L187.19 679.26C187.02 682.5 185.9 688.11 181.62 688.11C179.59 688.11 178.09 686.45 177.72 684.51V684.49C177.72 684.49 177.71 684.49 177.71 684.51H172.11C172.77 689.62 176.51 692.57 181.54 692.57C189.81 692.57 192.97 684.72 192.97 677.36C192.97 670 190.6 662.31 181.79 662.31ZM186.65 672.57C186.65 675.43 184.99 677.97 181.95 677.97C178.91 677.97 177.5 675.1 177.5 672.48C177.5 669.86 179 667.16 181.95 667.16C184.9 667.16 186.65 669.86 186.65 672.56V672.57Z" fill="#595959"/>
<path d="M225.48 676.33C220.61 676.33 218.41 679.78 218.41 684.35C218.41 688.92 220.16 692.54 225.27 692.54C230.38 692.54 232.29 689.09 232.29 684.52C232.29 679.95 230.62 676.33 225.48 676.33ZM225.3 689.42H225.29C222.63 689.42 222.63 686.18 222.63 684.39C222.63 682.47 222.8 679.44 225.46 679.44C227.92 679.44 228.04 682.81 228.04 684.43C228.04 686.18 227.88 689.42 225.3 689.42ZM221.6 661.95L204.39 692.87H208.01L225.13 661.95H221.6ZM204.03 662.29C199.16 662.29 196.96 665.95 196.96 670.52C196.96 675.09 198.71 678.5 203.82 678.5C208.93 678.5 210.84 675.27 210.84 670.69C210.84 666.11 209.17 662.3 204.03 662.29ZM203.85 675.38H203.84C201.18 675.38 201.18 672.39 201.18 670.6C201.18 668.68 201.35 665.4 204.01 665.4C206.47 665.4 206.59 669.02 206.59 670.64C206.59 672.39 206.43 675.38 203.85 675.38Z" fill="#595959"/>
<path d="M249.03 668H262.03V670.22H251.67V676.51H260.76V678.73H251.67V687.79H249.04V668H249.03Z" fill="#595959"/>
<path d="M264.69 668H267.05V687.79H264.69V668Z" fill="#595959"/>
<path d="M282.67 686.04C281.92 686.04 281.92 685.54 281.92 684.43V677.06C281.92 673.71 279.12 673.13 276.54 673.13C273.35 673.13 270.61 674.37 270.47 677.92H272.83C272.94 675.81 274.4 675.2 276.4 675.2C277.9 675.2 279.59 675.53 279.59 677.58C279.59 679.36 277.37 679.19 274.77 679.69C272.33 680.17 269.92 680.86 269.92 684.1C269.92 686.96 272.05 688.12 274.66 688.12C276.65 688.12 278.4 687.42 279.7 685.9C279.7 687.45 280.48 688.12 281.7 688.12C282.45 688.12 282.97 687.98 283.39 687.73V685.9C283.09 686.01 282.86 686.04 282.67 686.04ZM279.57 682.81C279.57 684.11 278.29 686.05 275.19 686.05C273.75 686.05 272.42 685.49 272.42 683.94C272.42 682.19 273.75 681.64 275.3 681.36C276.88 681.08 278.66 681.06 279.57 680.39V682.81Z" fill="#595959"/>
<path d="M285.49 673.46H287.71V676.48H287.77C288.91 674.18 290.48 673.04 293.03 673.13V675.62C289.23 675.62 287.85 677.78 287.85 681.41V687.78H285.49V673.45V673.46Z" fill="#595959"/>
<path d="M300.26 673.13C296.36 673.13 293.53 676.28 293.53 680.58C293.67 684.96 295.83 688.12 300.4 688.12C303.61 688.12 305.88 686.4 306.52 683.24H304.19C303.78 685.1 302.42 686.04 300.48 686.04C297.35 686.04 295.94 683.82 296.02 681.33H306.74C306.88 677.87 305.33 673.13 300.26 673.13ZM296.02 679.25C296.18 677.06 297.65 675.2 300.12 675.2C302.45 675.2 304.14 677 304.25 679.25H296.02Z" fill="#595959"/>
<path d="M317.27 668H319.9V685.57H330.37V687.79H317.26V668H317.27Z" fill="#595959"/>
<path d="M344.26 686.04C343.51 686.04 343.51 685.54 343.51 684.43V677.06C343.51 673.71 340.71 673.13 338.13 673.13C334.94 673.13 332.2 674.37 332.06 677.92H334.42C334.53 675.81 335.99 675.2 337.99 675.2C339.49 675.2 341.18 675.53 341.18 677.58C341.18 679.36 338.96 679.19 336.36 679.69C333.92 680.17 331.51 680.86 331.51 684.1C331.51 686.96 333.64 688.12 336.25 688.12C338.24 688.12 339.99 687.42 341.29 685.9C341.29 687.45 342.07 688.12 343.29 688.12C344.04 688.12 344.56 687.98 344.98 687.73V685.9C344.68 686.01 344.45 686.04 344.26 686.04ZM341.16 682.81C341.16 684.11 339.88 686.05 336.78 686.05C335.34 686.05 334.01 685.49 334.01 683.94C334.01 682.19 335.34 681.64 336.89 681.36C338.47 681.08 340.25 681.06 341.16 680.39V682.81Z" fill="#595959"/>
<path d="M354.24 673.13C352.27 673.13 350.45 673.82 349.67 675.4H349.61V668H347.24V687.78H349.6V685.87H349.66C350.72 687.57 352.82 688.12 354.29 688.12C358.67 688.12 360.83 684.72 360.83 680.67C360.83 676.62 358.65 673.13 354.24 673.13ZM354.04 686.04C350.79 686.04 349.52 683.44 349.52 680.61C349.52 677.93 350.74 675.21 353.9 675.21C357.06 675.21 358.33 677.7 358.33 680.5C358.33 683.3 357.29 686.04 354.04 686.04Z" fill="#595959"/>
<path d="M365.04 683.27C365.12 685.38 366.95 686.04 368.89 686.04C370.36 686.04 372.35 685.71 372.35 683.91C372.35 682.11 370.02 681.78 367.67 681.25C365.34 680.72 362.99 679.95 362.99 677.21C362.99 674.33 365.84 673.14 368.34 673.14C371.5 673.14 374.02 674.14 374.22 677.63H371.86C371.69 675.8 370.09 675.22 368.53 675.22C367.12 675.22 365.48 675.61 365.48 677.05C365.48 678.74 367.97 679.02 370.16 679.54C372.52 680.07 374.84 680.84 374.84 683.61C374.84 687.02 371.65 688.13 368.74 688.13C365.53 688.13 362.81 686.83 362.67 683.28H365.04V683.27Z" fill="#595959"/>
<path d="M145.77 485.9C147.78 486.07 150.69 485.67 150.69 483.03C150.69 481.08 149.14 479.96 147.42 479.96C145.07 479.96 143.82 481.71 143.85 484.09H139.39C139.56 479.37 142.63 476.09 147.38 476.09C151.08 476.09 155.14 478.37 155.14 482.5C155.14 484.68 154.05 486.63 151.9 487.22V487.29C154.44 487.85 156 489.97 156 492.54C156 497.4 151.94 500.14 147.41 500.14C142.22 500.14 138.72 497.04 138.82 491.72H143.28C143.38 494.23 144.63 496.28 147.34 496.28C149.45 496.28 151.11 494.83 151.11 492.65C151.11 489.15 148.04 489.21 145.76 489.21V485.91H145.77V485.9Z" fill="#595959"/>
<path d="M158.59 494.59H163.78V499.68H158.59V494.59Z" fill="#595959"/>
<path d="M174.94 476.09C170.38 476.09 166.48 478.81 166.48 488.02C166.48 497.23 170.32 500.14 174.94 500.14C179.56 500.14 183.46 497.04 183.46 488.02C183.46 479 179.56 476.09 174.94 476.09ZM174.94 496.27C171.17 496.27 171.17 490.62 171.17 488.01C171.17 485.6 171.11 479.95 174.94 479.95C178.77 479.95 178.77 485.6 178.77 488.01C178.77 490.62 178.77 496.27 174.94 496.27Z" fill="#595959"/>
<path d="M209.31 487.26C205.44 487.26 203.69 490 203.69 493.64C203.69 497.28 205.08 500.15 209.14 500.15C213.2 500.15 214.72 497.41 214.72 493.77C214.72 490.13 213.4 487.26 209.31 487.26ZM209.17 497.67H209.16C207.05 497.68 207.05 495.1 207.05 493.68C207.05 492.16 207.19 489.75 209.3 489.75C211.25 489.75 211.35 492.42 211.35 493.71C211.35 495.09 211.22 497.67 209.17 497.67ZM206.24 475.83L192.56 500.41H195.43L209.04 475.83H206.24ZM192.25 476.09C188.39 476.09 186.64 479 186.64 482.63C186.64 486.26 188.03 488.97 192.09 488.97C196.15 488.97 197.67 486.39 197.67 482.76C197.67 479.13 196.35 476.09 192.25 476.09ZM192.12 486.5H192.11C190 486.5 190 484.12 190 482.7C190 481.18 190.14 478.57 192.25 478.57C194.2 478.57 194.3 481.44 194.3 482.73C194.3 484.12 194.17 486.5 192.12 486.5Z" fill="#595959"/>
<path d="M225.78 478.31H238.78V480.53H228.42V486.82H237.51V489.04H228.42V498.1H225.79V478.31H225.78Z" fill="#595959"/>
<path d="M253.16 498.1H250.94V495.83H250.89C249.89 497.6 248.28 498.44 246.23 498.44C242.46 498.44 241.3 496.28 241.3 493.2V483.78H243.66V493.48C243.66 495.23 244.77 496.36 246.57 496.36C249.42 496.36 250.81 494.45 250.81 491.87V483.78H253.16V498.11V498.1Z" fill="#595959"/>
<path d="M259.97 483.77H262.82V485.85H259.97V494.75C259.97 495.83 260.27 496.02 261.74 496.02H262.82V498.1H261.02C258.58 498.1 257.61 497.6 257.61 494.97V485.85H255.17V483.77H257.61V479.48H259.97V483.77Z" fill="#595959"/>
<path d="M277.29 498.1H275.07V495.83H275.02C274.02 497.6 272.41 498.44 270.36 498.44C266.59 498.44 265.43 496.28 265.43 493.2V483.78H267.79V493.48C267.79 495.23 268.9 496.36 270.7 496.36C273.55 496.36 274.94 494.45 274.94 491.87V483.78H277.29V498.11V498.1Z" fill="#595959"/>
<path d="M280.75 483.77H282.97V486.79H283.03C284.17 484.49 285.74 483.35 288.29 483.44V485.93C284.49 485.93 283.11 488.09 283.11 491.72V498.09H280.75V483.76V483.77Z" fill="#595959"/>
<path d="M295.52 483.45C291.62 483.45 288.79 486.61 288.79 490.9C288.93 495.28 291.09 498.44 295.66 498.44C298.87 498.44 301.14 496.72 301.78 493.56H299.45C299.04 495.42 297.68 496.36 295.74 496.36C292.61 496.36 291.2 494.14 291.28 491.65H302C302.14 488.19 300.59 483.45 295.52 483.45ZM291.28 489.57C291.44 487.38 292.91 485.52 295.38 485.52C297.71 485.52 299.4 487.32 299.51 489.57H291.28Z" fill="#595959"/>
<path d="M317.02 480.53H310.43V478.31H326.25V480.53H319.66V498.1H317.03V480.53H317.02Z" fill="#595959"/>
<path d="M330.93 483.45C327.03 483.45 324.2 486.61 324.2 490.9C324.34 495.28 326.5 498.44 331.07 498.44C334.28 498.44 336.55 496.72 337.19 493.56H334.86C334.45 495.42 333.09 496.36 331.15 496.36C328.02 496.36 326.61 494.14 326.69 491.65H337.41C337.55 488.19 336 483.45 330.93 483.45ZM326.69 489.57C326.86 487.38 328.32 485.52 330.79 485.52C333.12 485.52 334.81 487.32 334.92 489.57H326.69Z" fill="#595959"/>
<path d="M351.82 496.35C351.07 496.35 351.07 495.85 351.07 494.74V487.37C351.07 484.02 348.27 483.44 345.69 483.44C342.5 483.44 339.76 484.68 339.62 488.23H341.98C342.09 486.12 343.55 485.51 345.55 485.51C347.05 485.51 348.74 485.84 348.74 487.89C348.74 489.67 346.52 489.5 343.92 490C341.48 490.48 339.07 491.17 339.07 494.41C339.07 497.27 341.2 498.43 343.81 498.43C345.8 498.43 347.55 497.73 348.85 496.21C348.85 497.76 349.63 498.43 350.85 498.43C351.6 498.43 352.12 498.29 352.54 498.04V496.21C352.24 496.32 352.01 496.35 351.82 496.35ZM348.72 493.12C348.72 494.42 347.44 496.36 344.34 496.36C342.9 496.36 341.57 495.8 341.57 494.25C341.57 492.5 342.9 491.95 344.45 491.67C346.03 491.39 347.81 491.37 348.72 490.7V493.12Z" fill="#595959"/>
<path d="M354.73 483.77H356.95V485.88H357.01C358.06 484.27 359.67 483.44 361.64 483.44C363.39 483.44 364.99 484.13 365.58 485.88C366.55 484.36 368.24 483.44 370.07 483.44C372.92 483.44 374.84 484.63 374.84 487.6V498.1H372.48V488.71C372.48 486.94 372.01 485.52 369.71 485.52C367.41 485.52 365.97 486.96 365.97 489.18V498.1H363.61V488.71C363.61 486.85 363.03 485.52 360.92 485.52C358.12 485.52 357.1 488.1 357.1 489.18V498.1H354.74V483.77H354.73Z" fill="#595959"/>
<path d="M180.03 437.8C179.86 432.51 182.87 428.45 188.42 428.45C192.65 428.45 196.35 431.16 196.35 435.68C196.35 439.15 194.5 441.06 192.22 442.68C189.94 444.3 187.23 445.62 185.55 448H196.48V452.03H179.5C179.53 446.68 182.8 444.4 186.8 441.69C188.85 440.3 191.62 438.88 191.66 436.04C191.66 433.86 190.21 432.47 188.19 432.47C185.42 432.47 184.52 435.34 184.52 437.79H180.03V437.8Z" fill="#595959"/>
<path d="M199.16 446.95H204.35V452.04H199.16V446.95Z" fill="#595959"/>
<path d="M215.51 428.45C210.95 428.45 207.05 431.17 207.05 440.38C207.05 449.59 210.89 452.5 215.51 452.5C220.13 452.5 224.03 449.4 224.03 440.38C224.03 431.36 220.13 428.45 215.51 428.45ZM215.51 448.63C211.74 448.63 211.74 442.98 211.74 440.37C211.74 437.96 211.68 432.31 215.51 432.31C219.34 432.31 219.34 437.96 219.34 440.37C219.34 442.98 219.34 448.63 215.51 448.63Z" fill="#595959"/>
<path d="M249.88 439.62C246.01 439.62 244.26 442.36 244.26 446C244.26 449.64 245.65 452.51 249.71 452.51C253.77 452.51 255.29 449.77 255.29 446.13C255.29 442.49 253.97 439.62 249.88 439.62ZM249.74 450.03H249.73C247.62 450.03 247.62 447.46 247.62 446.04C247.62 444.52 247.76 442.11 249.87 442.11C251.82 442.11 251.92 444.78 251.92 446.07C251.92 447.45 251.79 450.03 249.74 450.03ZM246.81 428.19L233.13 452.77H236L249.61 428.19H246.81ZM232.82 428.45C228.96 428.45 227.21 431.36 227.21 434.99C227.21 438.62 228.6 441.33 232.66 441.33C236.72 441.33 238.24 438.75 238.24 435.12C238.24 431.49 236.92 428.45 232.82 428.45ZM232.69 438.86H232.68C230.57 438.86 230.57 436.48 230.57 435.06C230.57 433.54 230.71 430.93 232.82 430.93C234.77 430.93 234.87 433.8 234.87 435.09C234.87 436.48 234.74 438.86 232.69 438.86Z" fill="#595959"/>
<path d="M278.9 430.67H275.98L268.25 450.46H270.97L273.19 444.5H281.56L283.72 450.46H286.63L278.9 430.67ZM274.03 442.28L277.38 433.05H277.43L280.73 442.28H274.03Z" fill="#595959"/>
<path d="M298.63 430.68V438.05H298.58C297.52 436.35 295.42 435.8 293.95 435.8C289.57 435.8 287.41 439.2 287.41 443.25C287.41 447.3 289.59 450.79 294 450.79C295.96 450.79 297.79 450.1 298.57 448.52H298.62V450.46H300.99V430.68H298.63ZM294.33 448.71C291.29 448.71 289.9 446.22 289.9 443.42C289.9 440.62 290.94 437.88 294.19 437.88C297.44 437.88 298.71 440.48 298.71 443.31C298.71 445.99 297.49 448.71 294.33 448.71Z" fill="#595959"/>
<path d="M311.07 450.46H308.55L303.23 436.13H305.86L309.88 448.07H309.94L313.85 436.13H316.32L311.08 450.46H311.07Z" fill="#595959"/>
<path d="M318.6 436.14V450.47H320.96V436.14H318.6ZM318.6 430.68V433.56H320.96V430.68H318.6Z" fill="#595959"/>
<path d="M326.06 445.94C326.14 448.05 327.97 448.71 329.91 448.71C331.38 448.71 333.37 448.38 333.37 446.58C333.37 444.78 331.04 444.45 328.69 443.92C326.36 443.39 324.01 442.62 324.01 439.88C324.01 437 326.86 435.81 329.36 435.81C332.52 435.81 335.04 436.81 335.24 440.3H332.88C332.71 438.47 331.11 437.89 329.55 437.89C328.14 437.89 326.5 438.28 326.5 439.72C326.5 441.41 328.99 441.69 331.18 442.21C333.54 442.74 335.86 443.51 335.86 446.28C335.86 449.69 332.67 450.8 329.76 450.8C326.55 450.8 323.83 449.5 323.69 445.95H326.06V445.94Z" fill="#595959"/>
<path d="M344.65 435.8C340.1 435.8 337.69 439.13 337.69 443.31C337.69 447.49 340.1 450.79 344.65 450.79C349.2 450.79 351.61 447.52 351.61 443.31C351.61 439.1 349.19 435.8 344.65 435.8ZM344.65 448.71C342.19 448.71 340.19 446.8 340.19 443.31C340.19 439.82 342.19 437.88 344.65 437.88C347.11 437.88 349.11 439.85 349.11 443.31C349.11 446.77 347.12 448.71 344.65 448.71Z" fill="#595959"/>
<path d="M354.29 436.13H356.51V439.15H356.57C357.71 436.85 359.28 435.71 361.83 435.8V438.29C358.03 438.29 356.65 440.45 356.65 444.08V450.45H354.29V436.12V436.13Z" fill="#595959"/>
<path d="M365.04 445.94C365.12 448.05 366.95 448.71 368.89 448.71C370.36 448.71 372.35 448.38 372.35 446.58C372.35 444.78 370.02 444.45 367.67 443.92C365.34 443.39 362.99 442.62 362.99 439.88C362.99 437 365.84 435.81 368.34 435.81C371.5 435.81 374.02 436.81 374.22 440.3H371.86C371.69 438.47 370.09 437.89 368.53 437.89C367.12 437.89 365.48 438.28 365.48 439.72C365.48 441.41 367.97 441.69 370.16 442.21C372.52 442.74 374.84 443.51 374.84 446.28C374.84 449.69 371.65 450.8 368.74 450.8C365.53 450.8 362.81 449.5 362.67 445.95H365.04V445.94Z" fill="#595959"/>
<path d="M189.14 391.04C191.33 391.22 194.49 390.79 194.49 387.92C194.49 385.8 192.8 384.58 190.94 384.58C188.39 384.58 187.03 386.48 187.07 389.06H182.23C182.41 383.93 185.75 380.38 190.91 380.38C194.93 380.38 199.34 382.86 199.34 387.34C199.34 389.71 198.16 391.82 195.82 392.47V392.54C198.58 393.15 200.27 395.45 200.27 398.24C200.27 403.51 195.86 406.49 190.94 406.49C185.31 406.49 181.51 403.12 181.61 397.34H186.45C186.56 400.07 187.92 402.29 190.86 402.29C193.16 402.29 194.95 400.71 194.95 398.34C194.95 394.54 191.61 394.61 189.14 394.61V391.02V391.04Z" fill="#595959"/>
<path d="M203.06 400.48H208.69V406H203.06V400.48Z" fill="#595959"/>
<path d="M212.21 390.54C212.03 384.8 215.29 380.39 221.32 380.39C225.91 380.39 229.93 383.33 229.93 388.25C229.93 392.02 227.92 394.1 225.45 395.86C222.98 397.62 220.03 399.05 218.2 401.64H230.07V406.02H211.63C211.67 400.21 215.22 397.73 219.56 394.79C221.78 393.28 224.8 391.74 224.83 388.66C224.83 386.29 223.25 384.79 221.06 384.79C218.05 384.79 217.08 387.91 217.08 390.57H212.2V390.54H212.21Z" fill="#595959"/>
<path d="M258.14 392.51C253.94 392.51 252.04 395.48 252.04 399.43C252.04 403.38 253.55 406.5 257.96 406.5C262.37 406.5 264.02 403.53 264.02 399.58C264.02 395.63 262.59 392.51 258.14 392.51ZM258 403.81H258.01C255.71 403.82 255.71 401.02 255.71 399.48C255.71 397.83 255.85 395.21 258.15 395.21C260.26 395.21 260.37 398.11 260.37 399.51C260.37 401.01 260.22 403.81 258 403.81ZM254.8 380.1L239.95 406.79H243.07L257.85 380.1H254.8ZM239.62 380.39C235.42 380.39 233.52 383.54 233.52 387.49C233.52 391.44 235.03 394.38 239.44 394.38C243.85 394.38 245.5 391.59 245.5 387.64C245.5 383.69 244.07 380.39 239.62 380.39ZM239.49 391.69H239.48C237.19 391.68 237.19 389.1 237.19 387.56C237.19 385.91 237.33 383.08 239.63 383.08C241.74 383.08 241.85 386.2 241.85 387.6C241.85 389.11 241.7 391.68 239.49 391.69Z" fill="#595959"/>
<path d="M288.58 393.1V393.05C290.41 392.31 291.52 390.73 291.52 388.62C291.52 386.68 290.49 385.27 289.19 384.49C288 383.77 285.7 383.77 283.95 383.77H276.78V403.55H286.34C290.27 403.55 292.35 400.78 292.35 397.87C292.35 395.43 291.02 393.6 288.58 393.1ZM279.4 385.99H284.66C286.93 385.99 288.87 386.38 288.87 389.12C288.87 391.2 287.65 392.28 284.66 392.28H279.4V385.99ZM285.99 401.34H279.4V394.49H285.41C287.62 394.49 289.7 395.21 289.7 397.79C289.7 399.95 288.26 401.34 285.99 401.34Z" fill="#595959"/>
<path d="M307.33 401.8C306.58 401.8 306.58 401.3 306.58 400.19V392.82C306.58 389.47 303.78 388.89 301.2 388.89C298.01 388.89 295.27 390.13 295.13 393.68H297.49C297.6 391.58 299.06 390.97 301.06 390.97C302.56 390.97 304.25 391.3 304.25 393.35C304.25 395.13 302.03 394.96 299.43 395.46C296.99 395.94 294.58 396.63 294.58 399.87C294.58 402.73 296.71 403.89 299.32 403.89C301.31 403.89 303.06 403.19 304.36 401.67C304.36 403.23 305.14 403.89 306.36 403.89C307.11 403.89 307.63 403.75 308.05 403.5V401.66C307.75 401.77 307.52 401.8 307.33 401.8ZM304.23 398.58C304.23 399.88 302.95 401.82 299.85 401.82C298.41 401.82 297.08 401.26 297.08 399.71C297.08 397.96 298.41 397.41 299.96 397.13C301.54 396.85 303.32 396.83 304.23 396.16V398.58Z" fill="#595959"/>
<path d="M319.96 393.83C319.6 392.03 318.35 390.98 316.41 390.98C313 390.98 311.95 393.67 311.95 396.58C311.95 399.21 313.14 401.82 316.13 401.82C318.4 401.82 319.76 400.49 320.06 398.33H322.47C321.94 401.82 319.75 403.9 316.15 403.9C311.77 403.9 309.44 400.85 309.44 396.59C309.44 392.33 311.66 388.91 316.2 388.91C319.44 388.91 322.05 390.43 322.38 393.84H319.94H319.96V393.83Z" fill="#595959"/>
<path d="M325.25 383.77H327.61V395.49L334.15 389.23H337.31L331.63 394.44L337.73 403.56H334.74L329.84 396.08L327.62 398.13V403.56H325.26V383.77H325.25Z" fill="#595959"/>
<path d="M345.45 388.9C341.55 388.9 338.72 392.06 338.72 396.35C338.86 400.73 341.02 403.89 345.59 403.89C348.8 403.89 351.07 402.17 351.71 399.01H349.38C348.97 400.87 347.61 401.81 345.67 401.81C342.54 401.81 341.13 399.59 341.21 397.1H351.93C352.07 393.64 350.52 388.9 345.45 388.9ZM341.21 395.02C341.37 392.84 342.84 390.98 345.31 390.98C347.64 390.98 349.33 392.78 349.44 395.02H341.21Z" fill="#595959"/>
<path d="M354.29 389.23H356.51V392.25H356.57C357.71 389.95 359.28 388.81 361.83 388.9V391.39C358.03 391.39 356.65 393.55 356.65 397.18V403.55H354.29V389.22V389.23Z" fill="#595959"/>
<path d="M365.04 399.04C365.12 401.15 366.95 401.81 368.89 401.81C370.36 401.81 372.35 401.48 372.35 399.68C372.35 397.88 370.02 397.55 367.67 397.02C365.34 396.49 362.99 395.72 362.99 392.97C362.99 390.22 365.84 388.9 368.34 388.9C371.5 388.9 374.02 389.9 374.22 393.39H371.86C371.69 391.56 370.09 390.98 368.53 390.98C367.12 390.98 365.48 391.37 365.48 392.81C365.48 394.5 367.97 394.78 370.16 395.3C372.52 395.83 374.84 396.6 374.84 399.37C374.84 402.78 371.65 403.89 368.74 403.89C365.53 403.89 362.81 402.59 362.67 399.04H365.04Z" fill="#595959"/>
<path d="M13.86 320.22C13.68 314.44 16.94 309.99 22.97 309.99C27.56 309.99 31.58 312.95 31.58 317.9C31.58 321.69 29.57 323.79 27.1 325.56C24.63 327.33 21.68 328.78 19.85 331.38H31.72V335.79H13.29C13.33 329.94 16.88 327.44 21.22 324.48C23.44 322.96 26.46 321.41 26.49 318.3C26.49 315.92 24.91 314.4 22.72 314.4C19.71 314.4 18.74 317.54 18.74 320.22H13.86Z" fill="#595959"/>
<path d="M34.63 330.23H40.26V335.79H34.63V330.23Z" fill="#595959"/>
<path d="M56.52 335.8H51.43V319.4H45.12V315.53C48.67 315.6 51.94 314.37 52.47 310.51H56.52V335.8Z" fill="#595959"/>
<path d="M89.71 322.21C85.51 322.21 83.61 325.2 83.61 329.18C83.61 333.16 85.12 336.3 89.53 336.3C93.94 336.3 95.59 333.31 95.59 329.33C95.59 325.35 94.16 322.21 89.71 322.21ZM89.57 333.59H89.58C87.28 333.58 87.28 330.76 87.28 329.21C87.28 327.55 87.42 324.91 89.72 324.91C91.83 324.91 91.94 327.84 91.94 329.25C91.94 330.77 91.79 333.59 89.57 333.59ZM86.37 309.71L71.52 336.59H74.64L89.42 309.71H86.37ZM71.19 310C66.99 310 65.09 313.17 65.09 317.15C65.09 321.13 66.6 324.09 71.01 324.09C75.42 324.09 77.07 321.28 77.07 317.3C77.07 313.32 75.64 310 71.19 310ZM71.05 321.38H71.06C68.76 321.38 68.76 318.78 68.76 317.23C68.76 315.56 68.9 312.71 71.2 312.71C73.31 312.71 73.42 315.85 73.42 317.26C73.42 318.78 73.27 321.38 71.05 321.38Z" fill="#595959"/>
<path d="M115.6 324.34V324.28C117.43 323.54 118.54 321.96 118.54 319.85C118.54 317.91 117.51 316.5 116.21 315.72C115.02 315 112.72 315 110.97 315H103.8V334.79H113.36C117.29 334.79 119.37 332.02 119.37 329.11C119.37 326.67 118.04 324.84 115.6 324.34ZM106.42 317.22H111.68C113.95 317.22 115.89 317.61 115.89 320.35C115.89 322.43 114.67 323.51 111.68 323.51H106.42V317.22ZM113.01 332.57H106.42V325.72H112.43C114.64 325.72 116.72 326.44 116.72 329.02C116.72 331.18 115.28 332.57 113.01 332.57Z" fill="#595959"/>
<path d="M134.24 334.79H132.02V332.52H131.96C130.96 334.29 129.36 335.13 127.3 335.13C123.53 335.13 122.37 332.97 122.37 329.89V320.47H124.73V330.17C124.73 331.92 125.84 333.05 127.64 333.05C130.49 333.05 131.88 331.14 131.88 328.56V320.47H134.24V334.8V334.79Z" fill="#595959"/>
<path d="M137.71 320.46H139.93V323.48H139.99C141.13 321.18 142.7 320.04 145.25 320.13V322.62C141.45 322.62 140.07 324.78 140.07 328.41V334.78H137.71V320.45V320.46Z" fill="#595959"/>
<path d="M147.51 320.46H149.73V322.73H149.79C150.79 320.96 152.39 320.12 154.45 320.12C158.22 320.12 159.38 322.28 159.38 325.36V334.78H157.03V325.08C157.03 323.33 155.92 322.2 154.12 322.2C151.27 322.2 149.88 324.11 149.88 326.69V334.78H147.52V320.45L147.51 320.46Z" fill="#595959"/>
<path d="M168.88 320.12C164.98 320.12 162.15 323.29 162.15 327.58C162.29 331.96 164.45 335.12 169.02 335.12C172.23 335.12 174.5 333.4 175.14 330.24L172.81 330.23C172.4 332.09 171.04 333.03 169.1 333.03C165.97 333.03 164.56 330.81 164.64 328.32H175.36C175.5 324.86 173.95 320.12 168.88 320.12ZM164.64 326.25C164.8 324.06 166.27 322.2 168.74 322.2C171.07 322.2 172.76 324 172.87 326.25H164.64Z" fill="#595959"/>
<path d="M188.24 315V322.37H188.19C187.13 320.67 185.03 320.12 183.56 320.12C179.18 320.12 177.02 323.53 177.02 327.58C177.02 331.63 179.21 335.12 183.62 335.12C185.58 335.12 187.41 334.43 188.19 332.85H188.24V334.79H190.6V315H188.24ZM183.95 333.04C180.91 333.04 179.52 330.55 179.52 327.75C179.52 324.95 180.57 322.21 183.81 322.21C187.05 322.21 188.33 324.81 188.33 327.64C188.33 330.32 187.11 333.04 183.95 333.04Z" fill="#595959"/>
<path d="M209 320.13C207.03 320.13 205.21 320.82 204.43 322.4H204.37V315H202V334.79H204.36V332.88H204.42C205.48 334.58 207.58 335.13 209.05 335.13C213.43 335.13 215.59 331.72 215.59 327.67C215.59 323.62 213.41 320.13 209 320.13ZM208.8 333.04C205.55 333.04 204.28 330.44 204.28 327.61C204.28 324.93 205.5 322.21 208.66 322.21C211.82 322.21 213.09 324.7 213.09 327.5C213.09 330.3 212.05 333.04 208.8 333.04Z" fill="#595959"/>
<path d="M230.33 333.05C229.58 333.05 229.58 332.55 229.58 331.44V324.07C229.58 320.71 226.78 320.13 224.2 320.13C221.01 320.13 218.27 321.37 218.13 324.92H220.49C220.6 322.81 222.06 322.2 224.06 322.2C225.56 322.2 227.25 322.53 227.25 324.58C227.25 326.36 225.03 326.19 222.43 326.69C219.99 327.17 217.58 327.86 217.58 331.1C217.58 333.96 219.71 335.12 222.32 335.12C224.31 335.12 226.06 334.42 227.36 332.9C227.36 334.45 228.14 335.12 229.36 335.12C230.11 335.12 230.63 334.98 231.05 334.73V332.91C230.75 333.02 230.52 333.05 230.33 333.05ZM227.23 329.81C227.23 331.11 225.95 333.05 222.85 333.05C221.41 333.05 220.08 332.49 220.08 330.94C220.08 329.19 221.41 328.64 222.96 328.36C224.54 328.08 226.32 328.06 227.23 327.39V329.81Z" fill="#595959"/>
<path d="M242.96 325.06C242.6 323.26 241.35 322.21 239.41 322.21C236 322.21 234.95 324.9 234.95 327.81C234.95 330.44 236.14 333.05 239.13 333.05C241.4 333.05 242.76 331.72 243.06 329.56H245.47C244.94 333.05 242.75 335.13 239.15 335.13C234.77 335.13 232.44 332.08 232.44 327.81C232.44 323.54 234.66 320.13 239.2 320.13C242.44 320.13 245.05 321.65 245.38 325.06H242.94H242.96Z" fill="#595959"/>
<path d="M248.26 315H250.62V326.72L257.16 320.46H260.32L254.64 325.67L260.74 334.79H257.75L252.85 327.31L250.63 329.36V334.79H248.27V315H248.26Z" fill="#595959"/>
<path d="M268.46 320.12C264.56 320.12 261.73 323.29 261.73 327.58C261.87 331.96 264.03 335.12 268.6 335.12C271.81 335.12 274.08 333.4 274.72 330.24L272.39 330.23C271.98 332.09 270.62 333.03 268.68 333.03C265.55 333.03 264.14 330.81 264.22 328.32H274.94C275.08 324.86 273.53 320.12 268.46 320.12ZM264.22 326.25C264.39 324.06 265.85 322.2 268.32 322.2C270.65 322.2 272.34 324 272.45 326.25H264.22Z" fill="#595959"/>
<path d="M277.29 320.46H279.51V323.48H279.57C280.71 321.18 282.28 320.04 284.83 320.13V322.62C281.03 322.62 279.65 324.78 279.65 328.41V334.78H277.29V320.45V320.46Z" fill="#595959"/>
<path d="M297.57 320.46H300.42V322.54H297.57V331.44C297.57 332.52 297.87 332.71 299.34 332.71H300.42V334.79H298.62C296.18 334.79 295.21 334.29 295.21 331.66V322.54H292.77V320.46H295.21V316.17H297.57V320.46Z" fill="#595959"/>
<path d="M309.21 320.13C304.66 320.13 302.25 323.46 302.25 327.64C302.25 331.82 304.66 335.12 309.21 335.12C313.76 335.12 316.17 331.85 316.17 327.64C316.17 323.43 313.75 320.13 309.21 320.13ZM309.21 333.04C306.75 333.04 304.75 331.13 304.75 327.64C304.75 324.15 306.75 322.21 309.21 322.21C311.67 322.21 313.67 324.18 313.67 327.64C313.67 331.1 311.68 333.04 309.21 333.04Z" fill="#595959"/>
<path d="M319.07 315H321.43V326.72L327.97 320.46H331.13L325.45 325.67L331.55 334.79H328.56L323.66 327.31L321.44 329.36V334.79H319.08V315H319.07Z" fill="#595959"/>
<path d="M339.28 320.12C335.38 320.12 332.55 323.29 332.55 327.58C332.69 331.96 334.85 335.12 339.42 335.12C342.63 335.12 344.9 333.4 345.54 330.24L343.21 330.23C342.8 332.09 341.44 333.03 339.5 333.03C336.37 333.03 334.96 330.81 335.04 328.32H345.76C345.9 324.86 344.35 320.12 339.28 320.12ZM335.04 326.25C335.21 324.06 336.67 322.2 339.14 322.2C341.47 322.2 343.16 324 343.27 326.25H335.04Z" fill="#595959"/>
<path d="M348.19 320.46H350.41V322.73H350.47C351.47 320.96 353.07 320.12 355.13 320.12C358.9 320.12 360.06 322.28 360.06 325.36V334.78H357.71V325.08C357.71 323.33 356.6 322.2 354.8 322.2C351.95 322.2 350.56 324.11 350.56 326.69V334.78H348.2V320.45H348.19V320.46Z" fill="#595959"/>
<path d="M365.04 330.27C365.12 332.38 366.95 333.04 368.89 333.04C370.36 333.04 372.35 332.71 372.35 330.91C372.35 329.11 370.02 328.78 367.67 328.25C365.34 327.72 362.99 326.95 362.99 324.21C362.99 321.33 365.84 320.14 368.34 320.14C371.5 320.14 374.02 321.14 374.22 324.63H371.86C371.69 322.8 370.09 322.22 368.53 322.22C367.12 322.22 365.48 322.61 365.48 324.05C365.48 325.74 367.97 326.02 370.16 326.54C372.52 327.07 374.84 327.84 374.84 330.61C374.84 334.02 371.65 335.13 368.74 335.13C365.53 335.13 362.81 333.83 362.67 330.28H365.04V330.27Z" fill="#595959"/>
<path d="M106.79 555.04H102.1V540.04H96.29V536.5C99.56 536.57 102.57 535.44 103.06 531.91H106.79V555.03V555.04Z" fill="#595959"/>
<path d="M114.19 549.95H119.38V555.04H114.19V549.95Z" fill="#595959"/>
<path d="M137.91 535.78H128.36L127.43 541.03L127.5 541.1C128.76 539.81 130.21 539.32 132.03 539.32C136.59 539.32 139.17 542.85 139.17 547.18C139.17 551.94 135.24 555.6 130.58 555.51C126.09 555.51 122.06 553.03 121.99 548.18H126.68C126.91 550.23 128.43 551.65 130.48 551.65C132.93 551.65 134.48 549.5 134.48 547.19C134.48 544.88 132.99 542.86 130.48 542.86C128.79 542.86 127.87 543.45 126.94 544.71H122.71L124.99 531.92H137.91V535.79V535.78Z" fill="#595959"/>
<path d="M164.92 542.62C161.05 542.62 159.3 545.36 159.3 549C159.3 552.64 160.69 555.51 164.75 555.51C168.81 555.51 170.33 552.77 170.33 549.13C170.33 545.49 169.01 542.62 164.92 542.62ZM164.78 553.03C162.66 553.03 162.66 550.46 162.66 549.04C162.66 547.52 162.8 545.11 164.91 545.11C166.86 545.11 166.96 547.78 166.96 549.07C166.96 550.45 166.83 553.03 164.78 553.03ZM161.85 531.19L148.17 555.77H151.04L164.65 531.19H161.85ZM147.86 531.45C144 531.45 142.25 534.36 142.25 537.99C142.25 541.62 143.64 544.33 147.7 544.33C151.76 544.33 153.28 541.75 153.28 538.12C153.28 534.49 151.96 531.45 147.86 531.45ZM147.73 541.86H147.72C145.61 541.86 145.61 539.48 145.61 538.06C145.61 536.54 145.74 533.93 147.86 533.93C149.81 533.93 149.91 536.8 149.91 538.09C149.91 539.48 149.78 541.86 147.73 541.86Z" fill="#595959"/>
<path d="M188.81 548.4C188.62 546.46 188.15 544.77 185.85 544.33V544.27C188.24 543.6 189.29 541.63 189.29 539.25C189.29 536.09 186.99 534.07 183.28 534.07H173.95V553.86H176.58V545.41H183.01C185.56 545.41 186.03 547.04 186.31 548.98C186.7 550.92 186.28 553.06 187.03 553.86H189.97C188.87 552.5 188.98 550.34 188.81 548.4ZM182.09 543.19H176.6V536.29H183.14C185.61 536.29 186.66 537.73 186.66 539.67C186.66 542.55 184.56 543.19 182.09 543.19Z" fill="#595959"/>
<path d="M198.52 539.2C194.62 539.2 191.79 542.36 191.79 546.65C191.93 551.03 194.09 554.19 198.66 554.19C201.87 554.19 204.14 552.47 204.78 549.31H202.45C202.04 551.17 200.68 552.11 198.74 552.11C195.61 552.11 194.2 549.89 194.28 547.4H205C205.14 543.94 203.59 539.2 198.52 539.2ZM194.28 545.32C194.45 543.14 195.91 541.28 198.38 541.28C200.71 541.28 202.4 543.08 202.51 545.32H194.28Z" fill="#595959"/>
<path d="M208.88 549.34C208.96 551.45 210.79 552.11 212.73 552.11C214.2 552.11 216.19 551.78 216.19 549.98C216.19 548.18 213.86 547.85 211.51 547.32C209.18 546.79 206.83 546.02 206.83 543.27C206.83 540.52 209.68 539.2 212.18 539.2C215.34 539.2 217.86 540.2 218.06 543.69H215.7C215.53 541.86 213.93 541.28 212.37 541.28C210.96 541.28 209.32 541.67 209.32 543.11C209.32 544.8 211.81 545.08 214 545.6C216.36 546.13 218.68 546.9 218.68 549.67C218.68 553.08 215.49 554.19 212.58 554.19C209.37 554.19 206.65 552.89 206.51 549.34H208.88Z" fill="#595959"/>
<path d="M224.56 539.53H227.41V541.61H224.56V550.51C224.56 551.59 224.86 551.78 226.33 551.78H227.41V553.86H225.61C223.17 553.86 222.2 553.36 222.2 550.73V541.61H219.76V539.53H222.2V535.24H224.56V539.53Z" fill="#595959"/>
<path d="M243.9 539.2C239.35 539.2 236.94 542.53 236.94 546.71C236.94 550.89 239.35 554.19 243.9 554.19C248.45 554.19 250.86 550.92 250.86 546.71C250.86 542.5 248.44 539.2 243.9 539.2ZM243.9 552.11C241.44 552.11 239.44 550.2 239.44 546.71C239.44 543.22 241.44 541.28 243.9 541.28C246.36 541.28 248.36 543.25 248.36 546.71C248.36 550.17 246.37 552.11 243.9 552.11Z" fill="#595959"/>
<path d="M254.6 541.61H252.19V539.53H254.6V537.4C254.6 535.07 255.99 533.85 258.56 533.85C259 533.85 259.64 533.93 260.08 534.07V536.12C259.66 535.98 259.17 535.93 258.75 535.93C257.61 535.93 256.95 536.29 256.95 537.54V539.54H259.72V541.62H256.95V553.87H254.59V541.62H254.6V541.61Z" fill="#595959"/>
<path d="M272.8 539.53H275.65V541.61H272.8V550.51C272.8 551.59 273.1 551.78 274.57 551.78H275.65V553.86H273.85C271.41 553.86 270.44 553.36 270.44 550.73V541.61H268V539.53H270.44V535.24H272.8V539.53Z" fill="#595959"/>
<path d="M278.26 534.07H280.62V541.64H280.68C281.46 539.92 283.48 539.2 285.2 539.2C288.97 539.2 290.13 541.36 290.13 544.44V553.86H287.78V544.16C287.78 542.41 286.67 541.28 284.87 541.28C282.02 541.28 280.63 543.19 280.63 545.77V553.86H278.27V534.07H278.26Z" fill="#595959"/>
<path d="M299.62 539.2C295.72 539.2 292.89 542.36 292.89 546.65C293.03 551.03 295.19 554.19 299.76 554.19C302.97 554.19 305.24 552.47 305.88 549.31H303.55C303.14 551.17 301.78 552.11 299.84 552.11C296.71 552.11 295.3 549.89 295.38 547.4H306.1C306.24 543.94 304.69 539.2 299.62 539.2ZM295.38 545.32C295.54 543.14 297.01 541.28 299.48 541.28C301.81 541.28 303.5 543.08 303.61 545.32H295.38Z" fill="#595959"/>
<path d="M319.51 539.53H322.36V541.61H319.51V550.51C319.51 551.59 319.81 551.78 321.28 551.78H322.36V553.86H320.56C318.12 553.86 317.15 553.36 317.15 550.73V541.61H314.71V539.53H317.15V535.24H319.51V539.53Z" fill="#595959"/>
<path d="M330.93 539.2C327.03 539.2 324.2 542.36 324.2 546.65C324.34 551.03 326.5 554.19 331.07 554.19C334.28 554.19 336.55 552.47 337.19 549.31H334.86C334.45 551.17 333.09 552.11 331.15 552.11C328.02 552.11 326.61 549.89 326.69 547.4H337.41C337.55 543.94 336 539.2 330.93 539.2ZM326.69 545.32C326.85 543.14 328.32 541.28 330.79 541.28C333.12 541.28 334.81 543.08 334.92 545.32H326.69Z" fill="#595959"/>
<path d="M351.82 552.1C351.07 552.1 351.07 551.6 351.07 550.49V543.12C351.07 539.77 348.27 539.19 345.69 539.19C342.5 539.19 339.76 540.43 339.62 543.98H341.98C342.09 541.88 343.55 541.27 345.55 541.27C347.05 541.27 348.74 541.6 348.74 543.65C348.74 545.43 346.52 545.26 343.92 545.76C341.48 546.24 339.07 546.93 339.07 550.17C339.07 553.03 341.2 554.19 343.81 554.19C345.8 554.19 347.55 553.49 348.85 551.97C348.85 553.53 349.63 554.19 350.85 554.19C351.6 554.19 352.12 554.05 352.54 553.8V551.96C352.24 552.07 352.01 552.1 351.82 552.1ZM348.72 548.88C348.72 550.18 347.44 552.12 344.34 552.12C342.9 552.12 341.57 551.56 341.57 550.01C341.57 548.26 342.9 547.71 344.45 547.43C346.03 547.15 347.81 547.13 348.72 546.46V548.88Z" fill="#595959"/>
<path d="M354.73 539.53H356.95V541.64H357.01C358.06 540.03 359.67 539.2 361.64 539.2C363.39 539.2 364.99 539.89 365.58 541.64C366.55 540.12 368.24 539.2 370.07 539.2C372.92 539.2 374.84 540.39 374.84 543.36V553.86H372.48V544.47C372.48 542.7 372.01 541.28 369.71 541.28C367.41 541.28 365.97 542.72 365.97 544.94V553.86H363.61V544.47C363.61 542.61 363.03 541.28 360.92 541.28C358.12 541.28 357.1 543.86 357.1 544.94V553.86H354.74V539.53H354.73Z" fill="#595959"/>
<path d="M135.36 596.05C129.25 601.37 125.92 612.3 125.84 620.07H119.52C120.19 611.47 123.76 603.11 129.29 596.46H115.49V590.97H135.36V596.04V596.05Z" fill="#595959"/>
<path d="M168.62 604.44C163.75 604.44 161.55 607.89 161.55 612.46C161.55 617.03 163.3 620.65 168.41 620.65C173.52 620.65 175.43 617.2 175.43 612.63C175.43 608.06 173.76 604.44 168.62 604.44ZM168.44 617.53H168.43C165.77 617.53 165.77 614.29 165.77 612.5C165.77 610.58 165.94 607.55 168.6 607.55C171.06 607.55 171.18 610.92 171.18 612.54C171.18 614.29 171.02 617.53 168.44 617.53ZM164.74 590.06L147.53 620.98H151.15L168.27 590.06H164.74ZM147.17 590.4C142.3 590.4 140.1 594.06 140.1 598.63C140.1 603.2 141.85 606.61 146.96 606.61C152.07 606.61 153.98 603.38 153.98 598.8C153.98 594.22 152.31 590.41 147.17 590.4ZM146.99 603.49H146.98C144.32 603.49 144.32 600.5 144.32 598.71C144.32 596.79 144.49 593.51 147.15 593.51C149.61 593.51 149.73 597.13 149.73 598.75C149.73 600.5 149.57 603.49 146.99 603.49Z" fill="#595959"/>
<path d="M188.32 596.11H201.32V598.33H190.96V604.62H200.05V606.84H190.96V615.9H188.33V596.11H188.32Z" fill="#595959"/>
<path d="M210.02 601.24C205.47 601.24 203.06 604.57 203.06 608.75C203.06 612.93 205.47 616.23 210.02 616.23C214.57 616.23 216.98 612.96 216.98 608.75C216.98 604.54 214.56 601.24 210.02 601.24ZM210.02 614.15C207.56 614.15 205.56 612.24 205.56 608.75C205.56 605.26 207.56 603.32 210.02 603.32C212.48 603.32 214.48 605.29 214.48 608.75C214.48 612.21 212.49 614.15 210.02 614.15Z" fill="#595959"/>
<path d="M231.6 615.89H229.38V613.62H229.32C228.32 615.39 226.72 616.22 224.66 616.22C220.89 616.22 219.73 614.06 219.73 610.98V601.56H222.09V611.26C222.09 613.01 223.2 614.14 225 614.14C227.85 614.14 229.24 612.23 229.24 609.65V601.56H231.6V615.89Z" fill="#595959"/>
<path d="M235.15 601.57H237.37V603.84H237.43C238.43 602.07 240.03 601.24 242.09 601.24C245.86 601.24 247.02 603.4 247.02 606.48V615.9H244.67V606.2C244.67 604.45 243.56 603.32 241.76 603.32C238.91 603.32 237.52 605.23 237.52 607.81V615.9H235.16V601.57H235.15Z" fill="#595959"/>
<path d="M260.99 596.1V603.47H260.94C259.88 601.78 257.78 601.23 256.31 601.23C251.93 601.23 249.77 604.63 249.77 608.68C249.77 612.73 251.96 616.22 256.37 616.22C258.33 616.22 260.16 615.53 260.94 613.95H260.99V615.89H263.35V596.1H260.99ZM256.7 614.14C253.66 614.14 252.27 611.65 252.27 608.85C252.27 606.05 253.32 603.31 256.56 603.31C259.8 603.31 261.08 605.91 261.08 608.74C261.08 611.57 259.86 614.14 256.7 614.14Z" fill="#595959"/>
<path d="M267.12 601.57V615.9H269.48V601.57H267.12ZM267.12 596.11V598.99H269.48V596.11H267.12Z" fill="#595959"/>
<path d="M273.13 601.57H275.35V603.84H275.41C276.41 602.07 278.01 601.24 280.07 601.24C283.84 601.24 285 603.4 285 606.48V615.9H282.65V606.2C282.65 604.45 281.54 603.32 279.74 603.32C276.89 603.32 275.5 605.23 275.5 607.81V615.9H273.14V601.57H273.13Z" fill="#595959"/>
<path d="M298.69 601.58V603.63H298.66C297.8 602.05 296.19 601.25 294.39 601.25C289.43 601.25 287.77 605.43 287.77 608.81C287.77 612.72 289.9 616.07 294.17 616.07C295.97 616.07 297.85 615.22 298.63 613.47H298.68V614.41C298.68 617.62 297.47 619.84 294.39 619.84C292.84 619.84 290.79 619.23 290.68 617.51H288.32C288.46 620.64 291.56 621.72 294.25 621.72C298.77 621.72 300.9 619.33 300.9 614.68V601.58H298.68H298.69ZM294.31 613.98C291.2 613.98 290.26 611.1 290.26 608.52C290.26 605.78 291.54 603.31 294.5 603.31C297.46 603.31 298.57 605.92 298.57 608.44H298.58C298.58 611.13 297.42 613.98 294.31 613.98Z" fill="#595959"/>
<path d="M317.02 598.33H310.43V596.11H326.25V598.33H319.66V615.9H317.03V598.33H317.02Z" fill="#595959"/>
<path d="M330.93 601.24C327.03 601.24 324.2 604.4 324.2 608.69C324.34 613.07 326.5 616.23 331.07 616.23C334.28 616.23 336.55 614.51 337.19 611.35H334.86C334.45 613.21 333.09 614.15 331.15 614.15C328.02 614.15 326.61 611.93 326.69 609.44H337.41C337.55 605.98 336 601.24 330.93 601.24ZM326.69 607.36C326.86 605.18 328.32 603.32 330.79 603.32C333.12 603.32 334.81 605.12 334.92 607.36H326.69Z" fill="#595959"/>
<path d="M351.82 614.14C351.07 614.14 351.07 613.64 351.07 612.53V605.16C351.07 601.81 348.27 601.23 345.69 601.23C342.5 601.23 339.76 602.47 339.62 606.02H341.98C342.09 603.92 343.55 603.31 345.55 603.31C347.05 603.31 348.74 603.64 348.74 605.69C348.74 607.47 346.52 607.3 343.92 607.8C341.48 608.28 339.07 608.97 339.07 612.21C339.07 615.07 341.2 616.23 343.81 616.23C345.8 616.23 347.55 615.53 348.85 614.01C348.85 615.57 349.63 616.23 350.85 616.23C351.6 616.23 352.12 616.09 352.54 615.84V614C352.24 614.11 352.01 614.14 351.82 614.14ZM348.72 610.92C348.72 612.22 347.44 614.16 344.34 614.16C342.9 614.16 341.57 613.6 341.57 612.05C341.57 610.3 342.9 609.75 344.45 609.47C346.03 609.19 347.81 609.17 348.72 608.5V610.92Z" fill="#595959"/>
<path d="M354.73 601.57H356.95V603.68H357.01C358.06 602.07 359.67 601.24 361.64 601.24C363.39 601.24 364.99 601.93 365.58 603.68C366.55 602.16 368.24 601.24 370.07 601.24C372.92 601.24 374.84 602.43 374.84 605.4V615.9H372.48V606.51C372.48 604.74 372.01 603.32 369.71 603.32C367.41 603.32 365.97 604.76 365.97 606.98V615.9H363.61V606.51C363.61 604.65 363.03 603.32 360.92 603.32C358.12 603.32 357.1 605.9 357.1 606.98V615.9H354.74V601.57H354.73Z" fill="#595959"/>
<path d="M892.93 149.17V310.16H892.77C850.3 310.16 814.24 337.53 801.25 375.6L649.25 326.21C664.83 278.25 692.42 237.89 728.24 207.88C772.82 170.51 830.15 149.17 892.93 149.17Z" fill="#FAD2DD" stroke="white" stroke-width="2.99" stroke-miterlimit="10"/>
<path d="M649.25 326.22L801.25 375.61C799.81 379.82 798.65 384.17 797.81 388.62L640.61 360.9C641.48 355.93 642.51 350.97 643.7 346.04C645.28 339.35 647.14 332.72 649.26 326.22H649.25Z" fill="#F5A4B8" stroke="white" stroke-width="2.99" stroke-miterlimit="10"/>
<path d="M797.81 388.62C796.68 394.52 796.09 400.61 796.09 406.84C796.09 407.48 796.1 408.13 796.11 408.77L636.87 414.33C636.63 407.31 636.66 400.39 636.98 393.5C637.47 382.62 638.68 371.82 640.61 360.9L797.81 388.62Z" fill="#F07795" stroke="white" stroke-width="2.99" stroke-miterlimit="10"/>
<path d="M797.06 420.57L639.87 445.47C639.17 441.05 638.62 437.03 638.19 433.09C637.51 427.04 637.11 421.17 636.87 414.33L796.11 408.77C796.19 412.77 796.51 416.71 797.06 420.57Z" fill="#EB4A76" stroke="white" stroke-width="2.99" stroke-miterlimit="10"/>
<path d="M797.06 420.57C797.95 426.82 799.43 432.88 801.46 438.68L652.17 493.02C649.45 485.53 647.15 478.28 645.21 470.97C643.02 462.71 641.28 454.36 639.87 445.47H639.88L797.07 420.57H797.06Z" fill="#E62058" stroke="white" stroke-width="2.99" stroke-miterlimit="10"/>
<path d="M801.47 438.68C802.39 441.37 803.44 444 804.61 446.57L660.72 513.67C659.19 510.4 657.94 507.63 656.79 504.9C655.23 501.21 653.84 497.61 652.17 493.02L801.46 438.68H801.47Z" fill="#9E0C47" stroke="white" stroke-width="2.99" stroke-miterlimit="10"/>
<path d="M830.01 480.38L728.24 601.66C715.01 590.56 703.67 579.24 693.7 567.04C680.79 551.24 670.17 533.93 660.72 513.67L804.61 446.57C810.51 459.65 819.24 471.18 830.01 480.38Z" fill="#7E0A3B" stroke="white" stroke-width="2.99" stroke-miterlimit="10"/>
<path d="M924.15 659.7C876.05 665.61 830.13 658.78 788.33 639.8C767.16 630.18 747.04 617.45 728.24 601.67L830.01 480.38C846.9 494.81 868.82 503.52 892.77 503.52C896.87 503.52 900.91 503.26 904.88 502.76L924.15 659.7Z" fill="#57072F"/>
<path d="M924.16 659.7H924.15M924.15 659.7C876.05 665.61 830.13 658.78 788.33 639.8C767.16 630.18 747.04 617.45 728.24 601.67L830.01 480.38C846.9 494.81 868.82 503.52 892.77 503.52C896.87 503.52 900.91 503.26 904.88 502.76L924.15 659.7Z" stroke="white" stroke-width="2.99" stroke-miterlimit="10"/>
<path d="M1067.67 592.78C1049.74 609.5 1030.97 622.99 1010.87 633.47C984.57 647.21 956.01 655.79 924.16 659.7H924.15L904.88 502.76C925.94 500.13 944.91 490.72 959.5 476.79L1067.66 592.78H1067.67Z" fill="#FAD2DD" stroke="white" stroke-width="2.99" stroke-miterlimit="10"/>
<path d="M1143.55 458.66C1137.23 488.39 1127.24 514.44 1112.82 538.15C1100.92 557.71 1086.02 575.67 1067.67 592.78L959.51 476.79C973.67 463.27 983.74 445.49 987.64 425.52L1143.55 458.66Z" fill="#F5A4B8" stroke="white" stroke-width="2.99" stroke-miterlimit="10"/>
<path d="M1149.07 416.28C1148.57 430.19 1146.8 443.34 1143.55 458.66L987.64 425.52C988.83 419.48 989.45 413.23 989.45 406.84C989.45 404.66 989.38 402.49 989.23 400.34L1148.8 391.98C1149.25 400.64 1149.36 408.58 1149.07 416.28Z" fill="#EB4A76" stroke="white" stroke-width="2.99" stroke-miterlimit="10"/>
<path d="M1148.8 391.98L989.23 400.34C985.9 350.02 944.06 310.24 892.93 310.16V149.17C947.64 149.17 998.32 166.08 1039.91 195.12C1102.47 238.76 1144.49 309.82 1148.8 391.98Z" fill="#E62058" stroke="white" stroke-width="4.17" stroke-miterlimit="10"/>
<path d="M1505.18 406.07C1511.47 406.07 1514.66 411.06 1514.66 416.43C1514.66 421.8 1511.47 426.79 1505.18 426.79C1498.89 426.79 1495.7 421.8 1495.7 416.43C1495.7 411.06 1498.89 406.07 1505.18 406.07ZM1505.18 424.58C1510 424.58 1512.02 420.42 1512.02 416.43C1512.02 412.44 1510 408.28 1505.18 408.28C1500.36 408.28 1498.34 412.44 1498.34 416.43C1498.34 420.42 1500.36 424.58 1505.18 424.58Z" fill="#595959"/>
<path d="M1517.4 412H1519.62V415.02H1519.68C1520.82 412.72 1522.39 411.58 1524.94 411.67V414.16C1521.14 414.16 1519.76 416.32 1519.76 419.95V426.32H1517.4V411.99V412Z" fill="#595959"/>
<path d="M1529.21 409.42H1526.85V406.54H1529.21V409.42ZM1526.85 412H1529.21V426.33H1526.85V412Z" fill="#595959"/>
<path d="M1545.22 425.1C1545.22 429.76 1543.09 432.14 1538.57 432.14C1535.88 432.14 1532.78 431.06 1532.64 427.93H1535C1535.11 429.65 1537.16 430.26 1538.71 430.26C1541.79 430.26 1543 428.04 1543 424.83V423.89H1542.95C1542.17 425.64 1540.29 426.49 1538.49 426.49C1534.22 426.49 1532.09 423.14 1532.09 419.23C1532.09 415.85 1533.75 411.66 1538.71 411.66C1540.51 411.66 1542.12 412.46 1542.98 414.04H1543.01V411.99H1545.23V425.1H1545.22ZM1542.89 418.87C1542.89 416.35 1541.78 413.74 1538.82 413.74C1535.86 413.74 1534.58 416.21 1534.58 418.95C1534.58 421.53 1535.52 424.41 1538.63 424.41C1541.74 424.41 1542.9 421.56 1542.9 418.87H1542.89Z" fill="#595959"/>
<path d="M1551.26 409.42H1548.9V406.54H1551.26V409.42ZM1548.9 412H1551.26V426.33H1548.9V412Z" fill="#595959"/>
<path d="M1554.92 412H1557.14V414.27H1557.2C1558.2 412.5 1559.8 411.66 1561.86 411.66C1565.63 411.66 1566.79 413.82 1566.79 416.9V426.32H1564.43V416.62C1564.43 414.87 1563.32 413.74 1561.52 413.74C1558.67 413.74 1557.28 415.65 1557.28 418.23V426.32H1554.92V411.99V412Z" fill="#595959"/>
<path d="M1583.01 426.27C1582.59 426.52 1582.07 426.66 1581.32 426.66C1580.1 426.66 1579.32 425.99 1579.32 424.44C1578.02 425.96 1576.27 426.66 1574.28 426.66C1571.67 426.66 1569.54 425.5 1569.54 422.64C1569.54 419.4 1571.95 418.71 1574.39 418.23C1576.99 417.73 1579.21 417.9 1579.21 416.12C1579.21 414.07 1577.52 413.74 1576.02 413.74C1574.02 413.74 1572.56 414.35 1572.45 416.45H1570.09C1570.23 412.9 1572.97 411.66 1576.16 411.66C1578.74 411.66 1581.54 412.24 1581.54 415.6V422.97C1581.54 424.08 1581.54 424.58 1582.29 424.58C1582.48 424.58 1582.71 424.55 1583.01 424.44V426.27ZM1579.19 418.93C1578.28 419.6 1576.5 419.62 1574.92 419.9C1573.37 420.18 1572.04 420.73 1572.04 422.48C1572.04 424.03 1573.37 424.59 1574.81 424.59C1577.91 424.59 1579.19 422.65 1579.19 421.35V418.94V418.93Z" fill="#595959"/>
<path d="M1585.34 406.54H1587.7V426.33H1585.34V406.54Z" fill="#595959"/>
<path d="M1604.82 406.54H1607.73L1615.46 426.33H1612.55L1610.39 420.37H1602.02L1599.8 426.33H1597.08L1604.81 406.54H1604.82ZM1602.85 418.15H1609.56L1606.26 408.92H1606.21L1602.86 418.15H1602.85Z" fill="#595959"/>
<path d="M1619.5 409.42H1617.14V406.54H1619.5V409.42ZM1617.14 412H1619.5V426.33H1617.14V412Z" fill="#595959"/>
<path d="M1623.08 412H1625.3V415.02H1625.36C1626.5 412.72 1628.07 411.58 1630.62 411.67V414.16C1626.82 414.16 1625.44 416.32 1625.44 419.95V426.32H1623.08V411.99V412Z" fill="#595959"/>
<path d="M1644.69 426.32H1642.33V424.38H1642.28C1641.5 425.96 1639.67 426.65 1637.71 426.65C1633.3 426.65 1631.12 423.16 1631.12 419.11C1631.12 415.06 1633.28 411.66 1637.66 411.66C1639.13 411.66 1641.23 412.21 1642.29 413.91H1642.34V406.54H1644.7V426.33L1644.69 426.32ZM1638.04 424.57C1641.2 424.57 1642.42 421.85 1642.42 419.17C1642.42 416.34 1641.15 413.74 1637.9 413.74C1634.65 413.74 1633.61 416.48 1633.61 419.28C1633.61 422.08 1635 424.57 1638.04 424.57Z" fill="#595959"/>
<path d="M1648.23 412H1650.45V415.02H1650.51C1651.65 412.72 1653.22 411.58 1655.77 411.67V414.16C1651.97 414.16 1650.59 416.32 1650.59 419.95V426.32H1648.23V411.99V412Z" fill="#595959"/>
<path d="M1663.22 411.66C1667.76 411.66 1670.18 414.96 1670.18 419.17C1670.18 423.38 1667.77 426.65 1663.22 426.65C1658.67 426.65 1656.26 423.35 1656.26 419.17C1656.26 414.99 1658.67 411.66 1663.22 411.66ZM1663.22 424.57C1665.69 424.57 1667.68 422.63 1667.68 419.17C1667.68 415.71 1665.68 413.74 1663.22 413.74C1660.76 413.74 1658.76 415.68 1658.76 419.17C1658.76 422.66 1660.76 424.57 1663.22 424.57Z" fill="#595959"/>
<path d="M1673.03 412H1675.39V413.94H1675.45C1676.23 412.36 1678.05 411.67 1680.02 411.67C1684.43 411.67 1686.61 415.16 1686.61 419.21C1686.61 423.26 1684.45 426.66 1680.07 426.66C1678.6 426.66 1676.5 426.11 1675.44 424.42H1675.38V431.82H1673.02V412.01L1673.03 412ZM1679.68 413.75C1676.52 413.75 1675.3 416.46 1675.3 419.15C1675.3 421.98 1676.57 424.58 1679.82 424.58C1683.07 424.58 1684.11 421.84 1684.11 419.04C1684.11 416.24 1682.72 413.75 1679.68 413.75Z" fill="#595959"/>
<path d="M1518.21 156.9H1521.81L1528.04 173.53L1534.3 156.9H1537.9V176.69H1535.41V160.23H1535.35L1529.17 176.69H1526.93L1520.75 160.23H1520.7V176.69H1518.21V156.9Z" fill="#595959"/>
<path d="M1548.08 162.02C1552.62 162.02 1555.04 165.32 1555.04 169.53C1555.04 173.74 1552.63 177.01 1548.08 177.01C1543.53 177.01 1541.12 173.71 1541.12 169.53C1541.12 165.35 1543.53 162.02 1548.08 162.02ZM1548.08 174.93C1550.55 174.93 1552.54 172.99 1552.54 169.53C1552.54 166.07 1550.54 164.1 1548.08 164.1C1545.62 164.1 1543.62 166.04 1543.62 169.53C1543.62 173.02 1545.62 174.93 1548.08 174.93Z" fill="#595959"/>
<path d="M1557.8 162.36H1560.02V164.63H1560.08C1561.08 162.86 1562.68 162.02 1564.74 162.02C1568.51 162.02 1569.67 164.18 1569.67 167.26V176.68H1567.31V166.98C1567.31 165.23 1566.2 164.1 1564.4 164.1C1561.55 164.1 1560.16 166.01 1560.16 168.59V176.68H1557.8V162.35V162.36Z" fill="#595959"/>
<path d="M1576.48 162.36H1579.33V164.44H1576.48V173.33C1576.48 174.41 1576.78 174.61 1578.25 174.61H1579.33V176.69H1577.53C1575.09 176.69 1574.12 176.19 1574.12 173.56V164.44H1571.68V162.36H1574.12V158.07H1576.48V162.36Z" fill="#595959"/>
<path d="M1581.94 156.9H1584.3V164.46H1584.36C1585.14 162.74 1587.16 162.02 1588.88 162.02C1592.65 162.02 1593.81 164.18 1593.81 167.26V176.68H1591.45V166.98C1591.45 165.23 1590.34 164.1 1588.54 164.1C1585.69 164.1 1584.3 166.01 1584.3 168.59V176.68H1581.94V156.89V156.9Z" fill="#595959"/>
<path d="M1597.48 156.9H1599.84V176.69H1597.48V156.9Z" fill="#595959"/>
<path d="M1609.12 178.6C1608.04 181.4 1607.07 182.42 1604.96 182.42C1604.41 182.42 1603.85 182.37 1603.33 182.17V180.01C1603.77 180.15 1604.24 180.34 1604.72 180.34C1605.69 180.34 1606.22 179.87 1606.66 179.04L1607.63 176.6L1601.95 162.36H1604.61L1608.79 174.08H1608.84L1612.86 162.36H1615.35L1609.11 178.6H1609.12Z" fill="#595959"/>
<path d="M1625.44 156.9H1638.44V159.12H1628.08V165.41H1637.17V167.63H1628.08V176.69H1625.45V156.9H1625.44Z" fill="#595959"/>
<path d="M1641.09 156.9H1643.45V176.69H1641.09V156.9Z" fill="#595959"/>
<path d="M1659.8 176.63C1659.38 176.88 1658.86 177.02 1658.11 177.02C1656.89 177.02 1656.11 176.35 1656.11 174.8C1654.81 176.32 1653.06 177.02 1651.07 177.02C1648.46 177.02 1646.33 175.86 1646.33 173C1646.33 169.76 1648.74 169.07 1651.18 168.59C1653.78 168.09 1656 168.26 1656 166.48C1656 164.43 1654.31 164.1 1652.81 164.1C1650.81 164.1 1649.35 164.71 1649.24 166.81H1646.88C1647.02 163.26 1649.76 162.02 1652.95 162.02C1655.53 162.02 1658.33 162.6 1658.33 165.96V173.33C1658.33 174.44 1658.33 174.94 1659.08 174.94C1659.27 174.94 1659.5 174.91 1659.8 174.8V176.63ZM1655.98 169.29C1655.07 169.96 1653.29 169.98 1651.71 170.26C1650.16 170.54 1648.83 171.09 1648.83 172.84C1648.83 174.39 1650.16 174.95 1651.6 174.95C1654.7 174.95 1655.98 173.01 1655.98 171.71V169.3V169.29Z" fill="#595959"/>
<path d="M1661.9 162.36H1664.12V165.38H1664.18C1665.32 163.08 1666.89 161.94 1669.44 162.03V164.52C1665.64 164.52 1664.26 166.68 1664.26 170.31V176.68H1661.9V162.35V162.36Z" fill="#595959"/>
<path d="M1682.93 172.14C1682.29 175.3 1680.02 177.02 1676.81 177.02C1672.24 177.02 1670.08 173.86 1669.94 169.48C1669.94 165.19 1672.77 162.03 1676.67 162.03C1681.74 162.03 1683.29 166.77 1683.15 170.23H1672.43C1672.35 172.72 1673.76 174.94 1676.89 174.94C1678.83 174.94 1680.19 174 1680.6 172.14H1682.93ZM1680.66 168.15C1680.55 165.91 1678.86 164.11 1676.53 164.11C1674.06 164.11 1672.59 165.97 1672.43 168.15H1680.66Z" fill="#595959"/>
<path d="M1685.98 156.9H1692.77C1698.87 156.9 1702.27 159.95 1702.27 166.32C1702.27 172.69 1699.36 176.68 1692.77 176.68H1685.98V156.89V156.9ZM1688.61 174.47H1692.99C1694.79 174.47 1699.64 173.97 1699.64 166.68C1699.64 161.97 1697.89 159.12 1693.05 159.12H1688.62V174.47H1688.61Z" fill="#595959"/>
<path d="M1705.01 162.36H1707.23V165.38H1707.29C1708.43 163.08 1710 161.94 1712.55 162.03V164.52C1708.75 164.52 1707.37 166.68 1707.37 170.31V176.68H1705.01V162.35V162.36Z" fill="#595959"/>
<path d="M1720 162.02C1724.54 162.02 1726.96 165.32 1726.96 169.53C1726.96 173.74 1724.55 177.01 1720 177.01C1715.45 177.01 1713.04 173.71 1713.04 169.53C1713.04 165.35 1715.45 162.02 1720 162.02ZM1720 174.93C1722.47 174.93 1724.46 172.99 1724.46 169.53C1724.46 166.07 1722.46 164.1 1720 164.1C1717.54 164.1 1715.54 166.04 1715.54 169.53C1715.54 173.02 1717.54 174.93 1720 174.93Z" fill="#595959"/>
<path d="M1729.81 162.36H1732.17V164.3H1732.23C1733.01 162.72 1734.83 162.03 1736.8 162.03C1741.21 162.03 1743.39 165.52 1743.39 169.57C1743.39 173.62 1741.23 177.02 1736.85 177.02C1735.38 177.02 1733.28 176.47 1732.22 174.78H1732.16V182.18H1729.8V162.37L1729.81 162.36ZM1736.46 164.11C1733.3 164.11 1732.08 166.82 1732.08 169.51C1732.08 172.34 1733.35 174.94 1736.6 174.94C1739.85 174.94 1740.89 172.2 1740.89 169.4C1740.89 166.6 1739.5 164.11 1736.46 164.11Z" fill="#595959"/>
<path d="M1747.6 172.17C1747.68 174.28 1749.51 174.94 1751.45 174.94C1752.92 174.94 1754.91 174.61 1754.91 172.81C1754.91 171.01 1752.58 170.68 1750.23 170.15C1747.9 169.62 1745.55 168.85 1745.55 166.11C1745.55 163.23 1748.4 162.04 1750.9 162.04C1754.06 162.04 1756.58 163.04 1756.78 166.53H1754.42C1754.25 164.7 1752.65 164.12 1751.09 164.12C1749.68 164.12 1748.04 164.51 1748.04 165.95C1748.04 167.64 1750.53 167.92 1752.72 168.44C1755.08 168.97 1757.4 169.74 1757.4 172.51C1757.4 175.92 1754.21 177.03 1751.3 177.03C1748.09 177.03 1745.37 175.73 1745.23 172.18H1747.59L1747.6 172.17Z" fill="#595959"/>
<path d="M488.41 30.32H485.09L484.3 26.84C481.52 29.99 478.99 31.03 475.38 31.03C466.5 31.03 461.2 23.98 461.2 15.52C461.2 7.06001 466.51 0.0100098 475.38 0.0100098C481.85 0.0100098 487.28 3.45001 488.07 10.13H483.01C482.51 6.23001 479.11 4.24001 475.38 4.24001C469.03 4.24001 466.38 9.84001 466.38 15.52C466.38 21.2 469.03 26.8 475.38 26.8C480.69 26.88 483.59 23.69 483.67 18.67H475.79V14.73H488.4V30.32H488.41Z" fill="#595959"/>
<path d="M497.08 20.82C497.08 24.18 498.91 27.17 502.84 27.17C505.58 27.17 507.24 25.97 508.07 23.6H512.55C511.51 28.29 507.53 30.9 502.84 30.9C496.12 30.9 492.35 26.21 492.35 19.62C492.35 13.52 496.33 8.30005 502.72 8.30005C509.48 8.30005 513.63 14.4 512.84 20.83H497.08V20.82ZM508.11 17.71C507.94 14.72 505.91 12.03 502.72 12.03C499.53 12.03 497.2 14.52 497.08 17.71H508.11Z" fill="#595959"/>
<path d="M516.44 8.88004H520.92V12.03L521 12.11C522.41 9.75004 524.86 8.29004 527.68 8.29004C532.32 8.29004 535.27 10.78 535.27 15.59V30.31H530.54V16.83C530.46 13.47 529.13 12.02 526.35 12.02C523.2 12.02 521.17 14.51 521.17 17.66V30.31H516.44V8.88004Z" fill="#595959"/>
<path d="M543.93 20.82C543.93 24.18 545.76 27.17 549.69 27.17C552.43 27.17 554.09 25.97 554.92 23.6H559.4C558.36 28.29 554.38 30.9 549.69 30.9C542.97 30.9 539.2 26.21 539.2 19.62C539.2 13.52 543.18 8.30005 549.57 8.30005C556.33 8.30005 560.48 14.4 559.69 20.83H543.93V20.82ZM554.96 17.71C554.79 14.72 552.76 12.03 549.57 12.03C546.38 12.03 544.05 14.52 543.93 17.71H554.96Z" fill="#595959"/>
<path d="M566.87 23.43C567.12 26.17 569.19 27.16 571.72 27.16C573.5 27.16 576.61 26.79 576.49 24.34C576.37 21.85 572.92 21.56 569.48 20.77C566 20.02 562.6 18.78 562.6 14.43C562.6 9.74004 567.66 8.29004 571.56 8.29004C575.96 8.29004 579.94 10.12 580.52 14.88H575.58C575.16 12.64 573.3 12.02 571.23 12.02C569.86 12.02 567.33 12.35 567.33 14.22C567.33 16.54 570.81 16.87 574.3 17.66C577.74 18.45 581.23 19.69 581.23 23.92C581.23 29.02 576.09 30.89 571.65 30.89C566.26 30.89 562.23 28.48 562.15 23.42H566.88L566.87 23.43Z" fill="#595959"/>
<path d="M584.94 0.709961H589.67V5.18996H584.94V0.709961ZM584.94 8.87996H589.67V30.32H584.94V8.87996Z" fill="#595959"/>
<path d="M598.38 23.43C598.63 26.17 600.7 27.16 603.23 27.16C605.01 27.16 608.12 26.79 608 24.34C607.88 21.85 604.43 21.56 600.99 20.77C597.51 20.02 594.11 18.78 594.11 14.43C594.11 9.74004 599.17 8.29004 603.07 8.29004C607.47 8.29004 611.45 10.12 612.03 14.88H607.1C606.68 12.64 604.82 12.02 602.74 12.02C601.37 12.02 598.84 12.35 598.84 14.22C598.84 16.54 602.32 16.87 605.81 17.66C609.25 18.45 612.74 19.69 612.74 23.92C612.74 29.02 607.6 30.89 603.16 30.89C597.77 30.89 593.75 28.48 593.66 23.42H598.39L598.38 23.43Z" fill="#595959"/>
<path d="M628.53 0.709961H648.98V5.18996H633.72V12.95H647.12V17.18H633.72V30.33H628.54V0.709961H628.53Z" fill="#595959"/>
<path d="M653.12 0.709961H658.3V25.84H673.36V30.32H653.12V0.709961Z" fill="#595959"/>
<path d="M676.92 0.709961H691.06C697.53 0.709961 700.85 3.69996 700.85 8.70996C700.85 14.39 696.91 15.84 695.96 16.17V16.25C697.74 16.5 700.36 17.83 700.36 22.51C700.36 25.95 700.86 29.1 701.98 30.31H696.42C695.63 29.02 695.63 27.41 695.63 25.96C695.63 20.53 694.51 18.12 689.74 18.12H682.11V30.31H676.93V0.709961H676.92ZM682.1 14.19H690.6C693.88 14.19 695.66 12.57 695.66 9.45996C695.66 5.68996 693.21 4.93996 690.52 4.93996H682.1V14.19Z" fill="#595959"/>
<path d="M714.82 0.709961H738.79V5.18996H729.38V30.32H724.2V5.17996H714.83V0.709961H714.82Z" fill="#595959"/>
<path d="M735.97 19.58C735.97 13.03 739.91 8.30005 746.79 8.30005C753.67 8.30005 757.61 13.03 757.61 19.58C757.61 26.13 753.67 30.9 746.79 30.9C739.91 30.9 735.97 26.17 735.97 19.58ZM752.89 19.58C752.89 15.89 751.02 12.03 746.79 12.03C742.56 12.03 740.69 15.89 740.69 19.58C740.69 23.27 742.56 27.17 746.79 27.17C751.02 27.17 752.89 23.31 752.89 19.58Z" fill="#595959"/>
<path d="M761.68 0.709961H766.41V17.55L774.95 8.87996H780.76L772.55 16.76L781.55 30.32H775.79L769.24 19.91L766.42 22.65V30.32H761.69V0.709961H761.68Z" fill="#595959"/>
<path d="M787.51 20.82C787.51 24.18 789.33 27.17 793.27 27.17C796.01 27.17 797.67 25.97 798.5 23.6H802.98C801.94 28.29 797.96 30.9 793.28 30.9C786.56 30.9 782.79 26.21 782.79 19.62C782.79 13.52 786.77 8.30005 793.16 8.30005C799.92 8.30005 804.07 14.4 803.28 20.83H787.52L787.51 20.82ZM798.54 17.71C798.37 14.72 796.34 12.03 793.15 12.03C789.96 12.03 787.63 14.52 787.51 17.71H798.54Z" fill="#595959"/>
<path d="M806.88 8.88004H811.36V12.03L811.44 12.11C812.85 9.75004 815.3 8.29004 818.12 8.29004C822.76 8.29004 825.71 10.78 825.71 15.59V30.31H820.98V16.83C820.9 13.47 819.57 12.02 816.79 12.02C813.64 12.02 811.61 14.51 811.61 17.66V30.31H806.88V8.88004Z" fill="#595959"/>
<path d="M842.87 0.709961H855.15C864.27 0.709961 868.21 7.34996 868.21 15.52C868.21 23.69 864.27 30.33 855.15 30.33H842.87V0.709961ZM848.05 26.09H853.15C861.28 26.09 863.02 21.45 863.02 15.51C863.02 9.56996 861.28 4.92996 853.15 4.92996H848.05V26.08V26.09Z" fill="#595959"/>
<path d="M872.27 0.709961H877V5.18996H872.27V0.709961ZM872.27 8.87996H877V30.32H872.27V8.87996Z" fill="#595959"/>
<path d="M885.71 23.43C885.96 26.17 888.03 27.16 890.56 27.16C892.34 27.16 895.45 26.79 895.33 24.34C895.21 21.85 891.76 21.56 888.32 20.77C884.84 20.02 881.44 18.78 881.44 14.43C881.44 9.74004 886.5 8.29004 890.4 8.29004C894.8 8.29004 898.78 10.12 899.36 14.88H894.43C894.01 12.64 892.15 12.02 890.07 12.02C888.7 12.02 886.17 12.35 886.17 14.22C886.17 16.54 889.65 16.87 893.14 17.66C896.58 18.45 900.07 19.69 900.07 23.92C900.07 29.02 894.93 30.89 890.49 30.89C885.1 30.89 881.08 28.48 880.99 23.42H885.72L885.71 23.43Z" fill="#595959"/>
<path d="M901.5 8.87995H905.07V2.44995H909.8V8.87995H914.07V12.41H909.8V23.86C909.8 25.81 909.97 26.7999 912.08 26.7999C912.74 26.7999 913.41 26.7999 914.07 26.6299V30.28C913.03 30.36 912.04 30.53 911 30.53C906.06 30.53 905.15 28.6199 905.07 25.0599V12.41H901.5V8.87995Z" fill="#595959"/>
<path d="M917.47 8.88005H921.91V13.03H921.99C922.53 10.75 925.35 8.30005 928.25 8.30005C929.33 8.30005 929.62 8.38005 930.03 8.42005V12.98C929.37 12.9 928.66 12.77 928 12.77C924.76 12.77 922.19 15.38 922.19 20.11V30.31H917.46V8.88005H917.47Z" fill="#595959"/>
<path d="M932.19 0.709961H936.92V5.18996H932.19V0.709961ZM932.19 8.87996H936.92V30.32H932.19V8.87996Z" fill="#595959"/>
<path d="M942.18 0.709961H946.91V11.66H946.99C948.28 9.58996 950.97 8.29996 953.38 8.29996C960.14 8.29996 963.42 13.44 963.42 19.71C963.42 25.47 960.52 30.91 954.17 30.91C951.27 30.91 948.16 30.2 946.75 27.38H946.67V30.32H942.19V0.709961H942.18ZM952.76 12.03C948.78 12.03 946.75 15.06 946.75 19.62C946.75 23.93 948.95 27.17 952.76 27.17C957.07 27.17 958.69 23.35 958.69 19.62C958.69 15.89 956.66 12.03 952.76 12.03Z" fill="#595959"/>
<path d="M986.22 30.3199H981.57V27.3299H981.49C980.33 29.4899 977.76 30.8999 975.39 30.8999C969.79 30.8999 967.39 28.0799 967.39 22.4799V8.87988H972.12V22.0299C972.12 25.7999 973.66 27.1699 976.23 27.1699C980.17 27.1699 981.5 24.6399 981.5 21.3199V8.87988H986.23V30.3199H986.22Z" fill="#595959"/>
<path d="M989.04 8.87995H992.61V2.44995H997.34V8.87995H1001.61V12.41H997.34V23.86C997.34 25.81 997.51 26.7999 999.62 26.7999C1000.28 26.7999 1000.95 26.7999 1001.61 26.6299V30.28C1000.57 30.36 999.58 30.53 998.54 30.53C993.61 30.53 992.69 28.6199 992.61 25.0599V12.41H989.04V8.87995Z" fill="#595959"/>
<path d="M1005.13 0.709961H1009.86V5.18996H1005.13V0.709961ZM1005.13 8.87996H1009.86V30.32H1005.13V8.87996Z" fill="#595959"/>
<path d="M1014 19.58C1014 13.03 1017.94 8.30005 1024.82 8.30005C1031.7 8.30005 1035.65 13.03 1035.65 19.58C1035.65 26.13 1031.71 30.9 1024.82 30.9C1017.93 30.9 1014 26.17 1014 19.58ZM1030.92 19.58C1030.92 15.89 1029.05 12.03 1024.82 12.03C1020.59 12.03 1018.72 15.89 1018.72 19.58C1018.72 23.27 1020.59 27.17 1024.82 27.17C1029.05 27.17 1030.92 23.31 1030.92 19.58Z" fill="#595959"/>
<path d="M1039.59 8.88004H1044.07V12.03L1044.15 12.11C1045.56 9.75004 1048.01 8.29004 1050.83 8.29004C1055.48 8.29004 1058.42 10.78 1058.42 15.59V30.31H1053.69V16.83C1053.61 13.47 1052.28 12.02 1049.5 12.02C1046.35 12.02 1044.32 14.51 1044.32 17.66V30.31H1039.59V8.88004Z" fill="#595959"/>
<path d="M1080.43 38.24C1077.11 32.97 1074.46 27.04 1074.46 19.12C1074.46 12.44 1076.66 5.81 1080.43 0H1084.29C1080.97 5.93 1079.19 12.19 1079.19 19.12C1079.19 26.05 1080.81 32.35 1084.29 38.24H1080.43Z" fill="#595959"/>
<path d="M1086.16 6.10004C1090.14 6.14004 1093.91 4.77004 1094.62 1.29004H1098.48V30.32H1093.3V9.83004H1086.17V6.10004H1086.16Z" fill="#595959"/>
<path d="M1128.58 15.8C1128.58 22.39 1126.88 30.9 1118.54 30.9C1110.2 30.9 1108.5 22.4 1108.5 15.8C1108.5 9.19995 1110.2 0.699951 1118.54 0.699951C1126.88 0.699951 1128.58 9.19995 1128.58 15.8ZM1123.85 15.8C1123.85 9.74995 1122.69 4.63995 1118.54 4.63995C1114.39 4.63995 1113.23 9.73995 1113.23 15.8C1113.23 21.86 1114.39 26.9599 1118.54 26.9599C1122.69 26.9599 1123.85 21.86 1123.85 15.8Z" fill="#595959"/>
<path d="M1151.64 15.8C1151.64 22.39 1149.94 30.9 1141.6 30.9C1133.26 30.9 1131.56 22.4 1131.56 15.8C1131.56 9.19995 1133.26 0.699951 1141.6 0.699951C1149.94 0.699951 1151.64 9.19995 1151.64 15.8ZM1146.91 15.8C1146.91 9.74995 1145.75 4.63995 1141.6 4.63995C1137.45 4.63995 1136.29 9.73995 1136.29 15.8C1136.29 21.86 1137.45 26.9599 1141.6 26.9599C1145.75 26.9599 1146.91 21.86 1146.91 15.8Z" fill="#595959"/>
<path d="M1167.81 0.709961H1182.2C1187.51 0.709961 1190.99 3.11996 1190.99 8.04996C1190.99 11.04 1189.45 13.19 1186.76 14.35V14.43C1190.37 15.22 1192.32 18.04 1192.32 22.06C1192.32 26.7 1189.08 30.31 1181.41 30.31H1167.81V0.709961ZM1172.99 13.11H1181.45C1183.94 13.11 1185.8 11.66 1185.8 8.99996C1185.8 6.00996 1184.27 4.93996 1181.45 4.93996H1172.99V13.11ZM1172.99 26.09H1182.16C1185.31 26.09 1187.14 24.39 1187.14 21.4C1187.14 18.41 1185.31 16.84 1182.16 16.84H1172.99V26.09Z" fill="#595959"/>
<path d="M1196.46 0.709961H1201.19V5.18996H1196.46V0.709961ZM1196.46 8.87996H1201.19V30.32H1196.46V8.87996Z" fill="#595959"/>
<path d="M1206.45 0.709961H1211.18V30.32H1206.45V0.709961Z" fill="#595959"/>
<path d="M1216.45 0.709961H1221.18V30.32H1216.45V0.709961Z" fill="#595959"/>
<path d="M1226.44 0.709961H1231.17V5.18996H1226.44V0.709961ZM1226.44 8.87996H1231.17V30.32H1226.44V8.87996Z" fill="#595959"/>
<path d="M1235.31 19.58C1235.31 13.03 1239.25 8.30005 1246.13 8.30005C1253.01 8.30005 1256.96 13.03 1256.96 19.58C1256.96 26.13 1253.02 30.9 1246.13 30.9C1239.24 30.9 1235.31 26.17 1235.31 19.58ZM1252.23 19.58C1252.23 15.89 1250.36 12.03 1246.13 12.03C1241.9 12.03 1240.03 15.89 1240.03 19.58C1240.03 23.27 1241.9 27.17 1246.13 27.17C1250.36 27.17 1252.23 23.31 1252.23 19.58Z" fill="#595959"/>
<path d="M1260.9 8.88004H1265.38V12.03L1265.46 12.11C1266.87 9.75004 1269.32 8.29004 1272.14 8.29004C1276.79 8.29004 1279.73 10.78 1279.73 15.59V30.31H1275V16.83C1274.92 13.47 1273.59 12.02 1270.81 12.02C1267.66 12.02 1265.63 14.51 1265.63 17.66V30.31H1260.9V8.88004Z" fill="#595959"/>
<path d="M1296.89 0.709961H1317.34V5.18996H1302.08V12.95H1315.48V17.18H1302.08V30.33H1296.9V0.709961H1296.89Z" fill="#595959"/>
<path d="M1321.48 0.709961H1326.66V25.84H1341.71V30.32H1321.47V0.709961H1321.48Z" fill="#595959"/>
<path d="M1345.28 0.709961H1359.42C1365.89 0.709961 1369.21 3.69996 1369.21 8.70996C1369.21 14.39 1365.27 15.84 1364.32 16.17V16.25C1366.1 16.5 1368.72 17.83 1368.72 22.51C1368.72 25.95 1369.22 29.1 1370.34 30.31H1364.78C1363.99 29.02 1363.99 27.41 1363.99 25.96C1363.99 20.53 1362.87 18.12 1358.1 18.12H1350.47V30.31H1345.29V0.709961H1345.28ZM1350.46 14.19H1358.96C1362.24 14.19 1364.02 12.57 1364.02 9.45996C1364.02 5.68996 1361.57 4.93996 1358.88 4.93996H1350.46V14.19Z" fill="#595959"/>
<path d="M1374.85 0C1378.17 5.31 1380.82 11.24 1380.82 19.16C1380.82 25.84 1378.62 32.47 1374.85 38.24H1370.99C1374.31 32.35 1376.09 26.09 1376.09 19.16C1376.09 12.23 1374.47 5.93 1370.99 0L1374.85 0Z" fill="#595959"/>
</g>
<defs>
<clipPath id="clip0_11_6128">
<rect width="1854.55" height="694.17" fill="white" transform="translate(0.5)"/>
</clipPath>
</defs>
</svg>
