<svg width="44" height="44" viewBox="0 0 44 44" fill="#ffffff"  xmlns="http://www.w3.org/2000/svg">
<path d="M33.7507 0.471364L27.5972 11.1307V11.1336C27.3129 10.987 27.0227 10.8463 26.7266 10.7232L30.4233 0.568107C31.4201 -0.164795 32.7451 -0.179453 33.7507 0.471364Z"  />
<path d="M29.398 12.2728C29.1459 12.0793 28.882 11.8947 28.6123 11.7217H28.6094L34.6426 1.27344L36.8091 3.4399L29.398 12.2728Z"  />
<path d="M24.6953 10.0777C25.009 10.148 25.3198 10.2272 25.6246 10.3239L28.7087 1.85156L25.7566 4.05906L24.6953 10.0777Z"  />
<path d="M21.4123 9.79117C21.0898 9.80583 20.7732 9.83514 20.4566 9.87619L20.4537 9.87912L19.6094 5.08594L20.2426 5.55793C20.5973 5.82177 20.999 5.99474 21.4123 6.07975V9.79117Z"  />
<path d="M30.3047 30.9809C30.5421 30.761 30.7679 30.5353 30.9848 30.3008L39.7386 37.6474L37.6513 39.7347L30.3047 30.9809Z"  />
<path d="M22.5889 9.7902C22.9113 9.80485 23.2309 9.8371 23.5446 9.87521L24.3889 5.08203L23.7556 5.55402C23.4009 5.8208 22.9993 5.99083 22.5859 6.07585V9.78726L22.5889 9.7902Z"  />
<path d="M38.9123 19.6172L38.9182 19.6162L38.9153 19.6133L38.9123 19.6172Z"  />
<path d="M38.9123 19.6172L34.125 20.4605C34.166 20.7771 34.1954 21.0937 34.21 21.4162H37.9214C38.0065 21.0029 38.1794 20.6012 38.4433 20.2465L38.9123 19.6172Z"  />
<path d="M33.9259 24.7031C33.8556 25.0168 33.7764 25.3276 33.6797 25.6324L42.152 28.7165L39.9445 25.7644L33.9259 24.7031Z"  />
<path d="M31.7266 29.398C31.92 29.1459 32.1047 28.882 32.2777 28.6123V28.6094L42.7259 34.6426L40.5595 36.8091L31.7266 29.398Z"  />
<path d="M29.4029 31.7344C29.1478 31.9279 28.884 32.1096 28.6172 32.2855L34.6504 42.7338L36.8169 40.5673L29.4058 31.7344H29.4029Z"  />
<path d="M43.5294 33.7546L32.8701 27.6012L32.8672 27.5982C33.0138 27.3168 33.1545 27.0266 33.2776 26.7305L43.4327 30.4272C44.1656 31.424 44.1803 32.7491 43.5294 33.7546Z"  />
<path d="M27.5972 32.8711C27.3129 33.0177 27.0256 33.1555 26.7266 33.2815L30.4233 43.4366C31.4201 44.1695 32.7481 44.1842 33.7507 43.5334L27.5972 32.874V32.8711Z"  />
<path d="M24.6953 33.9269C25.009 33.8566 25.3198 33.7774 25.6246 33.6836L28.7087 42.1559L25.7566 39.9484L24.6953 33.9269Z"  />
<path d="M34.125 23.5446L38.9182 24.3889L38.4462 23.7556C38.1794 23.4009 38.0094 22.9993 37.9244 22.5859H34.2129C34.1983 22.9084 34.166 23.228 34.1279 23.5416L34.125 23.5446Z"  />
<path d="M31.7266 14.6054C31.92 14.8605 32.1018 15.1214 32.2777 15.3911L42.7259 9.35786L40.5595 7.19141L31.7266 14.6025V14.6054Z"  />
<path d="M42.152 15.2891L39.9445 18.2412H39.9475L33.9259 19.3024C33.8527 18.9888 33.7735 18.678 33.6797 18.3731L42.152 15.2891Z"  />
<path d="M30.3047 13.0272C30.5392 13.2442 30.765 13.4699 30.9848 13.7074L39.7386 6.36074L37.6513 4.27344L30.3047 13.0272Z"  />
<path d="M33.2772 17.2732L33.2747 17.2741H33.2776L33.2772 17.2732Z"  />
<path d="M43.4298 13.5774L33.2772 17.2732C33.1513 16.9745 33.0136 16.6875 32.8672 16.4034L43.5265 10.25C44.1773 11.2526 44.1627 12.5806 43.4298 13.5774Z"  />
<path d="M13.0272 13.7074C13.2442 13.4728 13.4699 13.2471 13.7074 13.0272L6.36074 4.27344L4.27344 6.36074L13.0272 13.7074Z"  />
<path d="M11.7217 28.6172C11.8976 28.8869 12.0794 29.1478 12.2728 29.4029V29.4058L3.4399 36.8169L1.27344 34.6504L11.7217 28.6172Z"  />
<path d="M15.2891 42.152L18.2412 39.9445L19.3024 33.923C18.9888 33.8527 18.678 33.7735 18.3731 33.6797L15.2891 42.152Z"  />
<path d="M13.0194 30.3008C13.2393 30.5382 13.465 30.764 13.6996 30.9809L6.35293 39.7347L4.26562 37.6474L13.0194 30.3008Z"  />
<path d="M10.0778 19.3019L4.05907 18.2412L1.85156 15.2891L10.3239 18.3731C10.2272 18.6778 10.1481 18.9884 10.0778 19.3019Z"  />
<path d="M10.0777 24.7031C10.1509 25.0168 10.2301 25.3276 10.3239 25.6324L1.85156 28.7165L4.05907 25.7644L10.0777 24.7031Z"  />
<path d="M18.3731 10.3239C18.678 10.2301 18.9888 10.1509 19.3024 10.0777L18.2412 4.05906L15.2891 1.85156L18.3731 10.3239Z"  />
<path d="M22.5859 34.2169C22.9084 34.2022 23.225 34.1729 23.5416 34.1318L23.5446 34.1289L24.3889 38.9221L23.7556 38.4501C23.4009 38.1863 22.9993 38.0133 22.5859 37.9283V34.2169Z"  />
<path d="M21.4094 34.2139C21.0869 34.1993 20.7674 34.167 20.4537 34.1289L19.6094 38.9221L20.2426 38.4501C20.5973 38.1833 20.9989 38.0133 21.4123 37.9283V34.2169L21.4094 34.2139Z"  />
<path d="M14.6064 31.7344C14.8585 31.9279 15.1224 32.1126 15.3921 32.2855H15.395L9.36178 42.7338L7.19531 40.5673L14.6064 31.7344Z"  />
<path d="M10.7232 26.7344L0.568101 30.4311C-0.164801 31.4279 -0.179447 32.753 0.47137 33.7585L11.1307 27.6051C10.9841 27.3207 10.8463 27.0334 10.7203 26.7373L10.7232 26.7344Z"  />
<path d="M5.07812 19.6172L9.8713 20.4615L9.86838 20.4644C9.83027 20.7781 9.79801 21.0977 9.78335 21.4201H6.07194C5.98693 21.0068 5.81689 20.6051 5.55011 20.2504L5.07812 19.6172Z"  />
<path d="M11.7217 15.3921C11.8947 15.1224 12.0794 14.8585 12.2728 14.6064L3.4399 7.19531L1.27344 9.36177L11.7217 15.395V15.3921Z"  />
<path d="M10.25 43.5294L16.4034 32.8701V32.8672C16.6878 33.0138 16.978 33.1545 17.2741 33.2776L13.5774 43.4327C12.5806 44.1656 11.2555 44.1803 10.25 43.5294Z"  />
<path d="M9.86836 23.5455C9.82732 23.2289 9.79801 22.9123 9.78335 22.5898H6.07194C5.98693 23.0032 5.81395 23.4048 5.55011 23.7596L5.07812 24.3928L9.8713 23.5485L9.86836 23.5455Z"  />
<path d="M15.3872 11.7217C15.1204 11.8976 14.8566 12.0793 14.6015 12.2728H14.5986L7.1875 3.4399L9.35396 1.27344L15.3872 11.7217Z"  />
<path d="M16.4034 11.1336C16.6878 10.987 16.9751 10.8493 17.2741 10.7232L13.5774 0.568107C12.5806 -0.164795 11.2526 -0.179453 10.25 0.471364L16.4034 11.1307V11.1336Z"  />
<path d="M0.47137 10.25L11.1307 16.4034H11.1336C10.987 16.6878 10.8463 16.978 10.7232 17.2741L0.568101 13.5774C-0.164801 12.5806 -0.179447 11.2555 0.47137 10.25Z"  />
</svg>
