<svg width="18" height="18" viewBox="0 0 18 18" fill="none" xmlns="http://www.w3.org/2000/svg">
<g clip-path="url(#clip0_293_118)">
<path d="M8.37205 4.45927C8.49041 4.44391 8.60876 4.43293 8.72931 4.42744V0.000976562C8.61534 0.0240254 8.50465 0.0635376 8.40054 0.123904L7.68164 0.539879L8.37205 4.46037V4.45927Z" fill="white"/>
<path d="M9.95703 4.5349C10.0743 4.56124 10.1905 4.59087 10.3044 4.62709L11.5165 1.2916L10.6189 0.772461L9.95703 4.5349Z" fill="white"/>
<path d="M10.6189 17.2267L11.5165 16.7076L10.3044 13.3721C10.1905 13.4072 10.0743 13.4368 9.95703 13.4632L10.6189 17.2256V17.2267Z" fill="white"/>
<path d="M12.305 12.1064C12.2239 12.1943 12.1395 12.2788 12.0508 12.3611L14.3302 15.0819L15.2278 14.5628L12.305 12.1064Z" fill="white"/>
<path d="M13.4824 8.42202C13.4978 8.54055 13.5087 8.65909 13.5142 8.77982H16.8983V7.81836L13.4824 8.42202Z" fill="white"/>
<path d="M13.4065 10.0098C13.3802 10.1272 13.3506 10.2435 13.3145 10.3577L16.898 11.6638V10.6266L13.4065 10.0098Z" fill="white"/>
<path d="M9.16797 4.42756C9.28852 4.43305 9.40797 4.44512 9.52523 4.45939L10.2156 0.538902L9.49674 0.122927C9.39263 0.062561 9.28194 0.0241463 9.16797 0V4.42646V4.42756Z" fill="white"/>
<path d="M13.5142 9.21973C13.5087 9.34046 13.4967 9.46009 13.4824 9.57753L16.8983 10.1812V9.21973H13.5142Z" fill="white"/>
<path d="M11.7156 12.6426C11.6202 12.715 11.5216 12.7831 11.4219 12.8489L13.1139 15.7849L13.9457 15.3042L11.7167 12.6426H11.7156Z" fill="white"/>
<path d="M12.792 11.4747C12.7273 11.5757 12.6583 11.6745 12.5859 11.7689L15.6303 14.3273L16.3492 13.9113C16.4533 13.8509 16.5421 13.7741 16.6199 13.6874L12.792 11.4736V11.4747Z" fill="white"/>
<path d="M12.792 6.52358L16.6199 4.3098C16.5432 4.22309 16.4533 4.14626 16.3492 4.0859L15.6303 3.66992L12.5859 6.22834C12.6583 6.32382 12.7262 6.42151 12.792 6.52248V6.52358Z" fill="white"/>
<path d="M13.164 7.22921L16.8977 5.86823V5.03628C16.8977 4.91665 16.8758 4.80031 16.8397 4.68945L13.0117 6.90323C13.0665 7.0097 13.118 7.11726 13.1651 7.22921H13.164Z" fill="white"/>
<path d="M10.7168 4.77758C10.8275 4.82367 10.936 4.87636 11.0423 4.93123L12.7343 1.99636L11.9026 1.51562L10.7168 4.77867V4.77758Z" fill="white"/>
<path d="M13.1651 10.7706C13.1191 10.8815 13.0665 10.9901 13.0117 11.0955L16.8397 13.3093C16.8769 13.1984 16.8977 13.0832 16.8977 12.9624V12.1305L13.164 10.7695L13.1651 10.7706Z" fill="white"/>
<path d="M16.898 7.37313V6.33594L13.3145 7.64204C13.3495 7.75618 13.3791 7.87252 13.4065 7.98996L16.898 7.37313Z" fill="white"/>
<path d="M11.421 5.15082C11.5218 5.21558 11.6205 5.28472 11.7147 5.35716L13.9437 2.69558L13.112 2.21484L11.4199 5.15082H11.421Z" fill="white"/>
<path d="M12.0508 5.63882C12.1385 5.72004 12.2228 5.80455 12.305 5.89346L15.2278 3.43712L14.3313 2.91797L12.0519 5.63882H12.0508Z" fill="white"/>
<path d="M11.0423 13.0684C10.936 13.1232 10.8286 13.1748 10.7168 13.222L11.9026 16.4851L12.7343 16.0043L11.0423 13.0695V13.0684Z" fill="white"/>
<path d="M6.47781 12.8489C6.37699 12.7842 6.27837 12.715 6.18412 12.6426L3.95508 15.3042L4.78686 15.7849L6.47891 12.8489H6.47781Z" fill="white"/>
<path d="M5.84691 12.3611C5.75924 12.2799 5.67485 12.1953 5.59266 12.1064L2.66992 14.5628L3.56746 15.0819L5.84691 12.3611Z" fill="white"/>
<path d="M5.10724 11.4746L1.2793 13.6884C1.35601 13.7751 1.44587 13.8519 1.54998 13.9123L2.26888 14.3283L5.31326 11.7699C5.24094 11.6744 5.17299 11.5767 5.10724 11.4757V11.4746Z" fill="white"/>
<path d="M4.38411 8.7808C4.38959 8.66007 4.40164 8.54043 4.41589 8.42299L1 7.81934V8.7808H4.38411Z" fill="white"/>
<path d="M4.41589 9.57753C4.40055 9.459 4.38959 9.34046 4.38411 9.21973H1V10.1812L4.41589 9.57753Z" fill="white"/>
<path d="M8.73127 13.5709C8.61072 13.5654 8.49126 13.5533 8.374 13.5391L7.68359 17.4596L8.4025 17.8755C8.50661 17.9359 8.61729 17.9743 8.73127 17.9985V13.572V13.5709Z" fill="white"/>
<path d="M9.52523 13.5392C9.40687 13.5545 9.28852 13.5655 9.16797 13.571V17.9975C9.28194 17.9744 9.39263 17.9349 9.49674 17.8745L10.2156 17.4586L9.52523 13.5381V13.5392Z" fill="white"/>
<path d="M7.1816 13.222C7.07091 13.1759 6.96242 13.1232 6.85612 13.0684L5.16406 16.0032L5.99584 16.484L7.1816 13.2209V13.222Z" fill="white"/>
<path d="M7.94031 13.4641C7.82305 13.4378 7.70689 13.4082 7.59291 13.373L6.38086 16.7085L7.27839 17.2277L7.94031 13.4652V13.4641Z" fill="white"/>
<path d="M4.58356 10.3577C4.54849 10.2435 4.5189 10.1272 4.49151 10.0098L1 10.6266V11.6638L4.58356 10.3577Z" fill="white"/>
<path d="M4.73455 7.22921C4.78058 7.11836 4.83319 7.0097 4.88798 6.90323L1.06004 4.68945C1.02277 4.80031 1.00195 4.91555 1.00195 5.03628V5.86823L4.73565 7.22921H4.73455Z" fill="white"/>
<path d="M5.10724 6.52346C5.1719 6.42248 5.24094 6.3237 5.31326 6.22931L2.26888 3.6709L1.54998 4.08687C1.44587 4.14724 1.35711 4.22407 1.2793 4.31078L5.10724 6.52456V6.52346Z" fill="white"/>
<path d="M4.7337 10.7705L1 12.1315V12.9634C1 13.0831 1.02192 13.1994 1.05808 13.3103L4.88603 11.0965C4.83123 10.99 4.77973 10.8825 4.7326 10.7716L4.7337 10.7705Z" fill="white"/>
<path d="M4.49151 7.98899C4.51781 7.87155 4.5474 7.7552 4.58356 7.64106L1 6.33496V7.37216L4.49151 7.98899Z" fill="white"/>
<path d="M6.85612 4.93038C6.96242 4.8755 7.06982 4.82392 7.1816 4.77672L5.99584 1.51367L5.16406 1.9944L6.85612 4.92928V4.93038Z" fill="white"/>
<path d="M5.59461 5.89248C5.67571 5.80468 5.76009 5.72016 5.84886 5.63785L3.56941 2.91699L2.67188 3.43614L5.59461 5.89248Z" fill="white"/>
<path d="M6.18326 5.35618C6.2786 5.28375 6.37723 5.2157 6.47696 5.14984L4.78491 2.21387L3.95312 2.6946L6.18217 5.35618H6.18326Z" fill="white"/>
<path d="M7.94031 4.5349L7.27839 0.772461L6.38086 1.2916L7.59291 4.62709C7.70689 4.59197 7.82305 4.56233 7.94031 4.5349Z" fill="white"/>
</g>
<defs>
<clipPath id="clip0_293_118">
<rect width="16" height="18" fill="white" transform="translate(1)"/>
</clipPath>
</defs>
</svg>
