<svg width="18" height="18" viewBox="0 0 18 18" fill="none" xmlns="http://www.w3.org/2000/svg">
<g clip-path="url(#clip0_253_76)">
<path d="M13.3825 6.74827L4.5 6.74219C2.07879 6.74016 0.0648357 8.65485 0 11.1166C0 11.1814 0.052679 11.2361 0.117515 11.2361L9 11.2422C11.4212 11.2422 13.4352 9.32752 13.498 6.86781C13.498 6.80297 13.4453 6.74827 13.3805 6.74827H13.3825Z" fill="white"/>
<path d="M17.8845 0.00607831L4.5 0C2.07677 0 0.0648357 1.91468 0 4.37642C0 4.44126 0.052679 4.49596 0.117515 4.49596L13.502 4.50204C15.9232 4.50204 17.9372 2.58736 18 0.127646C18 0.0628098 17.9473 0.00810447 17.8825 0.00810447L17.8845 0.00607831Z" fill="white"/>
<path d="M3.11413 17.7889C4.26294 17.3127 4.80796 15.9958 4.33183 14.8469C3.85569 13.6981 2.53872 13.1531 1.38991 13.6292C0.241101 14.1054 -0.303923 15.4224 0.172214 16.5712C0.64835 17.72 1.96532 18.265 3.11413 17.7889Z" fill="white"/>
</g>
<defs>
<clipPath id="clip0_253_76">
<rect width="18" height="18" fill="white"/>
</clipPath>
</defs>
</svg>
