<svg width="405" height="37" viewBox="0 0 405 37" fill="none" xmlns="http://www.w3.org/2000/svg">
<g clip-path="url(#clip0_452_1349)">
<path d="M127.621 12.6657H133.613V29.6214H136.307V12.6657H142.272V10.2549H127.621V12.6657Z" fill="#777777"/>
<path d="M151.149 16.1455C150.105 16.1455 149.188 16.3631 148.401 16.8018C147.614 17.2404 147.009 17.8163 146.587 18.5295V9.9043H144.003V29.5922H146.587V22.4671C146.587 21.7171 146.734 21.0374 147.026 20.4313C147.318 19.8253 147.755 19.3431 148.332 18.9849C148.909 18.6266 149.61 18.4491 150.435 18.4491C151.077 18.4491 151.641 18.573 152.125 18.8241C152.61 19.0753 152.988 19.4704 153.252 20.0161C153.517 20.5619 153.651 21.2784 153.651 22.1724V29.619H156.235V21.6099C156.235 19.9324 155.812 18.5998 154.97 17.6188C154.128 16.6377 152.854 16.1455 151.149 16.1455Z" fill="#777777"/>
<path d="M167.59 27.2618C166.947 27.6536 166.123 27.8511 165.116 27.8511C163.741 27.8511 162.687 27.4259 161.955 26.5788C161.319 25.8455 160.962 24.8377 160.876 23.562L171.273 23.5385V22.601C171.273 21.2985 171.012 20.1635 170.49 19.1991C169.967 18.2348 169.236 17.4848 168.291 16.9491C167.346 16.4134 166.233 16.1455 164.951 16.1455C163.669 16.1455 162.508 16.4402 161.529 17.0295C160.549 17.6188 159.78 18.4324 159.22 19.467C158.66 20.5016 158.381 21.707 158.381 23.0832C158.381 24.4593 158.667 25.6312 159.233 26.6591C159.8 27.6871 160.591 28.4906 161.597 29.0699C162.604 29.6492 163.759 29.9405 165.061 29.9405C166.727 29.9405 168.102 29.5554 169.184 28.7886C170.266 28.0219 170.971 26.9404 171.301 25.5475H168.882C168.662 26.2975 168.232 26.8701 167.59 27.2618ZM162.738 18.8107C163.353 18.4458 164.088 18.2616 164.951 18.2616C166.088 18.2616 166.995 18.5931 167.672 19.2527C168.349 19.9123 168.689 20.7896 168.689 21.8778H160.934C161.01 21.3421 161.14 20.8499 161.336 20.4179C161.656 19.7114 162.123 19.1757 162.738 18.8107Z" fill="#777777"/>
<path d="M191.337 17.0429C190.42 16.4435 189.321 16.1455 188.039 16.1455C186.939 16.1455 185.96 16.3698 185.098 16.8152C184.235 17.2605 183.586 17.9134 183.146 18.7706V9.9043H180.562V29.619H182.899L183.091 27.235C183.531 28.1089 184.177 28.7786 185.029 29.244C185.881 29.7094 186.829 29.9405 187.874 29.9405C189.176 29.9405 190.296 29.6492 191.241 29.0699C192.186 28.4907 192.915 27.6804 193.426 26.6457C193.938 25.6111 194.196 24.4392 194.196 23.1367C194.196 21.8343 193.949 20.5753 193.454 19.5206C192.959 18.4659 192.255 17.6422 191.337 17.0429ZM191.104 25.4404C190.764 26.1368 190.283 26.6826 189.661 27.0743C189.039 27.4661 188.286 27.6636 187.407 27.6636C186.527 27.6636 185.771 27.4661 185.139 27.0743C184.507 26.6826 184.022 26.1368 183.682 25.4404C183.342 24.7439 183.174 23.9403 183.174 23.0296C183.174 22.1189 183.342 21.3186 183.682 20.6322C184.022 19.9458 184.507 19.4034 185.139 19.0116C185.771 18.6199 186.527 18.4223 187.407 18.4223C188.286 18.4223 189.039 18.6232 189.661 19.025C190.283 19.4268 190.764 19.9726 191.104 20.659C191.444 21.3454 191.612 22.1356 191.612 23.0296C191.612 23.9236 191.444 24.7439 191.104 25.4404Z" fill="#777777"/>
<path d="M199.139 9.9043H196.555V29.619H199.139V9.9043Z" fill="#777777"/>
<path d="M212.111 17.0539C211.067 16.4646 209.868 16.1699 208.511 16.1699C207.153 16.1699 205.951 16.4646 204.896 17.0539C203.841 17.6432 203.013 18.4568 202.408 19.4914C201.804 20.526 201.501 21.7147 201.501 23.054C201.501 24.3933 201.804 25.582 202.408 26.6166C203.013 27.6512 203.841 28.4648 204.896 29.0541C205.951 29.6434 207.153 29.9381 208.511 29.9381C209.868 29.9381 211.067 29.6434 212.111 29.0541C213.156 28.4648 213.981 27.6512 214.585 26.6166C215.19 25.582 215.492 24.3933 215.492 23.054C215.492 21.7147 215.19 20.526 214.585 19.4914C213.981 18.4568 213.156 17.6432 212.111 17.0539ZM212.345 25.4648C211.971 26.1612 211.452 26.707 210.792 27.0987C210.132 27.4905 209.373 27.688 208.511 27.688C207.648 27.688 206.889 27.4905 206.229 27.0987C205.569 26.707 205.051 26.1612 204.676 25.4648C204.302 24.7683 204.113 23.9647 204.113 23.054C204.113 22.1433 204.302 21.3162 204.676 20.6298C205.051 19.9434 205.569 19.401 206.229 19.0093C206.889 18.6175 207.648 18.42 208.511 18.42C209.373 18.42 210.132 18.6175 210.792 19.0093C211.452 19.401 211.971 19.9434 212.345 20.6298C212.72 21.3162 212.909 22.1265 212.909 23.054C212.909 23.9815 212.72 24.7683 212.345 25.4648Z" fill="#777777"/>
<path d="M225.861 27.0208C225.201 27.4661 224.414 27.6904 223.497 27.6904C222.689 27.6904 221.985 27.4996 221.38 27.1145C220.776 26.7295 220.308 26.1937 219.978 25.5073C219.649 24.8209 219.484 24.0039 219.484 23.0564C219.484 22.1088 219.659 21.2885 220.006 20.592C220.353 19.8956 220.841 19.3565 221.463 18.9715C222.085 18.5864 222.799 18.3956 223.607 18.3956C224.469 18.3956 225.218 18.6098 225.861 19.0384C226.503 19.467 226.933 20.0998 227.153 20.9403H229.737C229.517 19.4938 228.847 18.3319 227.73 17.458C226.613 16.5841 225.211 16.1455 223.524 16.1455C222.222 16.1455 221.078 16.4402 220.088 17.0295C219.099 17.6188 218.326 18.4324 217.766 19.467C217.206 20.5016 216.927 21.707 216.927 23.0832C216.927 24.4593 217.202 25.658 217.752 26.6859C218.302 27.7138 219.068 28.5107 220.047 29.0833C221.026 29.6559 222.177 29.9405 223.497 29.9405C224.579 29.9405 225.562 29.7396 226.452 29.3378C227.342 28.936 228.073 28.3835 228.651 27.677C229.228 26.9705 229.599 26.1468 229.764 25.1993H227.18C226.96 25.966 226.52 26.5754 225.861 27.0208Z" fill="#777777"/>
<path d="M240.535 16.5205L234.57 22.6814V9.9043H231.986V29.619H234.57V25.8957L236.852 23.5653L240.782 29.619H243.751L238.638 21.7438L243.779 16.5205H240.535Z" fill="#777777"/>
<path d="M252.88 27.0208C252.22 27.4661 251.433 27.6904 250.516 27.6904C249.708 27.6904 249.004 27.4996 248.399 27.1145C247.794 26.7295 247.327 26.1937 246.997 25.5073C246.667 24.8209 246.502 24.0039 246.502 23.0564C246.502 22.1088 246.678 21.2885 247.025 20.592C247.372 19.8956 247.86 19.3565 248.482 18.9715C249.103 18.5864 249.818 18.3956 250.626 18.3956C251.488 18.3956 252.237 18.6098 252.88 19.0384C253.522 19.467 253.952 20.0998 254.171 20.9403H256.755C256.535 19.4938 255.865 18.3319 254.749 17.458C253.632 16.5841 252.23 16.1455 250.543 16.1455C249.241 16.1455 248.097 16.4402 247.107 17.0295C246.118 17.6188 245.344 18.4324 244.784 19.467C244.224 20.5016 243.946 21.707 243.946 23.0832C243.946 24.4593 244.221 25.658 244.771 26.6859C245.32 27.7138 246.087 28.5107 247.066 29.0833C248.045 29.6559 249.196 29.9405 250.516 29.9405C251.598 29.9405 252.581 29.7396 253.471 29.3378C254.36 28.936 255.092 28.3835 255.67 27.677C256.247 26.9705 256.618 26.1468 256.783 25.1993H254.199C253.979 25.966 253.539 26.5754 252.88 27.0208Z" fill="#777777"/>
<path d="M266.103 16.1455C265.059 16.1455 264.141 16.3631 263.354 16.8018C262.567 17.2404 261.963 17.8163 261.54 18.5295V9.9043H258.956V29.5922H261.54V22.4671C261.54 21.7171 261.688 21.0374 261.98 20.4313C262.272 19.8253 262.708 19.3431 263.286 18.9849C263.863 18.6266 264.564 18.4491 265.388 18.4491C266.031 18.4491 266.594 18.573 267.079 18.8241C267.563 19.0753 267.941 19.4704 268.206 20.0161C268.47 20.5619 268.604 21.2784 268.604 22.1724V29.619H271.188V21.6099C271.188 19.9324 270.766 18.5998 269.924 17.6188C269.082 16.6377 267.807 16.1455 266.103 16.1455Z" fill="#777777"/>
<path d="M282.663 16.7214C281.828 16.3364 280.852 16.1455 279.736 16.1455C278.619 16.1455 277.568 16.333 276.698 16.708C275.829 17.083 275.156 17.6087 274.678 18.2884C274.2 18.9681 273.963 19.7617 273.963 20.6724H276.217C276.217 19.8688 276.516 19.2494 277.111 18.8107C277.705 18.3721 278.543 18.1545 279.626 18.1545C280.231 18.1545 280.77 18.2482 281.248 18.4357C281.725 18.6232 282.1 18.9346 282.375 19.3733C282.649 19.8119 282.787 20.3945 282.787 21.1278V21.5028L278.554 21.8242C276.977 21.9481 275.75 22.3733 274.87 23.0966C273.991 23.8198 273.551 24.7807 273.551 25.9761C273.551 27.1714 273.96 28.1089 274.774 28.8422C275.589 29.5755 276.712 29.9405 278.141 29.9405C279.224 29.9405 280.189 29.7228 281.041 29.2842C281.894 28.8456 282.495 28.2529 282.842 27.5029L283.117 29.619H285.316V21.3956C285.316 20.217 285.082 19.2393 284.615 18.4625C284.148 17.6857 283.498 17.1065 282.663 16.7214ZM282.814 23.9671C282.814 25.1993 282.467 26.177 281.77 26.9002C281.072 27.6234 280.11 27.9851 278.884 27.9851C278.042 27.9851 277.375 27.8109 276.891 27.4627C276.406 27.1145 276.162 26.5922 276.162 25.8957C276.162 25.2529 276.413 24.7272 276.918 24.3153C277.423 23.9035 278.241 23.6457 279.378 23.5385L282.814 23.2707V23.9671Z" fill="#777777"/>
<path d="M289.607 10.0908C289.15 10.0908 288.751 10.2515 288.411 10.573C288.071 10.8944 287.903 11.2862 287.903 11.7516C287.903 12.217 288.071 12.5853 288.411 12.9168C288.751 13.2483 289.15 13.4123 289.607 13.4123C290.064 13.4123 290.486 13.2483 290.816 12.9168C291.146 12.5853 291.311 12.1969 291.311 11.7516C291.311 11.3062 291.146 10.8944 290.816 10.573C290.486 10.2515 290.084 10.0908 289.607 10.0908Z" fill="#777777"/>
<path d="M290.924 16.5215H288.34V29.62H290.924V16.5215Z" fill="#777777"/>
<path d="M301.171 16.1455C300.219 16.1455 299.343 16.3565 298.546 16.775C297.749 17.1935 297.141 17.7795 296.718 18.5295L296.443 16.5205H294.107V29.619H296.691V22.6814C296.691 21.3956 297.024 20.3677 297.694 19.6009C298.364 18.8342 299.302 18.4491 300.511 18.4491C301.501 18.4491 302.288 18.7404 302.875 19.3197C303.463 19.8989 303.755 20.8499 303.755 22.1724V29.619H306.339V21.6099C306.339 19.9324 305.916 18.5998 305.074 17.6188C304.232 16.6377 302.93 16.1455 301.171 16.1455Z" fill="#777777"/>
<path d="M321.129 9.9043C320.304 9.9043 319.576 10.055 318.943 10.3597C318.311 10.6644 317.806 11.1499 317.432 11.8195C317.057 12.4892 316.868 13.3597 316.868 14.4312V16.5205H314.889V18.6366H316.868V29.619H319.452V18.6366H322.64V16.5205H319.452V14.4312C319.452 13.718 319.593 13.1622 319.878 12.7704C320.163 12.3787 320.727 12.1811 321.568 12.1811H322.723V10.0114C322.465 9.97461 322.201 9.94783 321.926 9.93108C321.651 9.91434 321.386 9.9043 321.129 9.9043Z" fill="#777777"/>
<path d="M333.804 17.0539C332.759 16.4646 331.56 16.1699 330.203 16.1699C328.846 16.1699 327.643 16.4646 326.588 17.0539C325.533 17.6432 324.705 18.4568 324.1 19.4914C323.496 20.526 323.193 21.7147 323.193 23.054C323.193 24.3933 323.496 25.582 324.1 26.6166C324.705 27.6512 325.533 28.4648 326.588 29.0541C327.643 29.6434 328.846 29.9381 330.203 29.9381C331.56 29.9381 332.759 29.6434 333.804 29.0541C334.848 28.4648 335.673 27.6512 336.277 26.6166C336.882 25.582 337.185 24.3933 337.185 23.054C337.185 21.7147 336.882 20.526 336.277 19.4914C335.673 18.4568 334.848 17.6432 333.804 17.0539ZM334.037 25.4648C333.663 26.1612 333.144 26.707 332.484 27.0987C331.824 27.4905 331.065 27.688 330.203 27.688C329.34 27.688 328.581 27.4905 327.921 27.0987C327.262 26.707 326.743 26.1612 326.368 25.4648C325.994 24.7683 325.805 23.9647 325.805 23.054C325.805 22.1433 325.994 21.3162 326.368 20.6298C326.743 19.9434 327.262 19.401 327.921 19.0093C328.581 18.6175 329.34 18.42 330.203 18.42C331.065 18.42 331.824 18.6175 332.484 19.0093C333.144 19.401 333.663 19.9434 334.037 20.6298C334.412 21.3162 334.601 22.1265 334.601 23.054C334.601 23.9815 334.412 24.7683 334.037 25.4648Z" fill="#777777"/>
<path d="M345.816 16.251C344.772 16.251 343.902 16.5222 343.205 17.068C342.69 17.4731 342.315 17.962 342.081 18.5379L341.913 16.5456H339.494V29.6173H342.078V22.6797C342.078 21.4107 342.432 20.433 343.136 19.7466C343.841 19.0602 344.81 18.7153 346.036 18.7153H347.191V16.4117C346.933 16.3581 346.699 16.3179 346.49 16.2912C346.28 16.2644 346.053 16.251 345.816 16.251Z" fill="#777777"/>
<path d="M366.214 18.6366C365.757 17.8163 365.118 17.1935 364.303 16.775C363.489 16.3565 362.558 16.1455 361.513 16.1455C360.194 16.1455 359.057 16.4502 358.105 17.0562C357.153 17.6623 356.418 18.4893 355.906 19.534C355.394 20.5786 355.136 21.7706 355.136 23.11C355.136 24.4493 355.387 25.6111 355.892 26.6457C356.397 27.6804 357.115 28.4907 358.05 29.0699C358.984 29.6492 360.101 29.9405 361.403 29.9405C362.486 29.9405 363.451 29.7094 364.303 29.244C365.156 28.7786 365.801 28.1089 366.241 27.235L366.461 29.619H368.77V9.9043H366.214V18.6366ZM365.664 25.4404C365.317 26.1368 364.826 26.6826 364.193 27.0743C363.561 27.4661 362.805 27.6636 361.926 27.6636C361.046 27.6636 360.294 27.4661 359.672 27.0743C359.05 26.6826 358.572 26.1368 358.242 25.4404C357.912 24.7439 357.748 23.9403 357.748 23.0296C357.748 22.1189 357.912 21.3454 358.242 20.659C358.572 19.9726 359.05 19.4268 359.672 19.025C360.294 18.6232 361.046 18.4223 361.926 18.4223C362.805 18.4223 363.561 18.6199 364.193 19.0116C364.826 19.4034 365.317 19.9458 365.664 20.6322C366.011 21.3186 366.186 22.1189 366.186 23.0296C366.186 23.9403 366.011 24.7439 365.664 25.4404Z" fill="#777777"/>
<path d="M380.409 16.7214C379.574 16.3364 378.598 16.1455 377.482 16.1455C376.365 16.1455 375.314 16.333 374.444 16.708C373.575 17.083 372.901 17.6087 372.424 18.2884C371.946 18.9681 371.709 19.7617 371.709 20.6724H373.963C373.963 19.8688 374.262 19.2494 374.857 18.8107C375.451 18.3721 376.289 18.1545 377.372 18.1545C377.976 18.1545 378.516 18.2482 378.993 18.4357C379.471 18.6232 379.846 18.9346 380.12 19.3733C380.395 19.8119 380.533 20.3945 380.533 21.1278V21.5028L376.3 21.8242C374.723 21.9481 373.496 22.3733 372.616 23.0966C371.737 23.8198 371.297 24.7807 371.297 25.9761C371.297 27.1714 371.706 28.1089 372.52 28.8422C373.334 29.5755 374.458 29.9405 375.887 29.9405C376.97 29.9405 377.935 29.7228 378.787 29.2842C379.639 28.8456 380.241 28.2529 380.588 27.5029L380.863 29.619H383.062V21.3956C383.062 20.217 382.828 19.2393 382.361 18.4625C381.893 17.6857 381.244 17.1065 380.409 16.7214ZM380.56 23.9671C380.56 25.1993 380.213 26.177 379.516 26.9002C378.818 27.6234 377.856 27.9851 376.629 27.9851C375.788 27.9851 375.121 27.8109 374.637 27.4627C374.152 27.1145 373.908 26.5922 373.908 25.8957C373.908 25.2529 374.159 24.7272 374.664 24.3153C375.169 23.9035 375.987 23.6457 377.124 23.5385L380.56 23.2707V23.9671Z" fill="#777777"/>
<path d="M389.656 12.4199H387.072V16.5182H384.434V18.6343H387.072V29.6167H389.656V18.6343H392.295V16.5182H389.656V12.4199Z" fill="#777777"/>
<path d="M404.293 18.4625C403.826 17.6857 403.176 17.1065 402.341 16.7214C401.506 16.3364 400.531 16.1455 399.414 16.1455C398.297 16.1455 397.246 16.333 396.377 16.708C395.507 17.083 394.834 17.6087 394.356 18.2884C393.879 18.9681 393.642 19.7617 393.642 20.6724H395.896C395.896 19.8688 396.194 19.2494 396.789 18.8107C397.383 18.3721 398.222 18.1545 399.304 18.1545C399.909 18.1545 400.448 18.2482 400.926 18.4357C401.403 18.6232 401.778 18.9346 402.053 19.3733C402.328 19.8119 402.465 20.3945 402.465 21.1278V21.5028L398.232 21.8242C396.655 21.9481 395.428 22.3733 394.549 23.0966C393.669 23.8198 393.229 24.7807 393.229 25.9761C393.229 27.1714 393.638 28.1089 394.452 28.8422C395.267 29.5755 396.39 29.9405 397.82 29.9405C398.902 29.9405 399.868 29.7228 400.72 29.2842C401.572 28.8456 402.173 28.2529 402.52 27.5029L402.795 29.619H404.994V21.3956C404.994 20.217 404.76 19.2393 404.293 18.4625ZM402.493 23.9671C402.493 25.1993 402.146 26.177 401.448 26.9002C400.751 27.6234 399.789 27.9851 398.562 27.9851C397.72 27.9851 397.053 27.8109 396.569 27.4627C396.085 27.1145 395.841 26.5922 395.841 25.8957C395.841 25.2529 396.091 24.7272 396.597 24.3153C397.102 23.9035 397.919 23.6457 399.057 23.5385L402.493 23.2707V23.9671Z" fill="#777777"/>
<path d="M20.6922 15.1702L9.52039 15.1621C6.47516 15.1594 3.94214 17.7191 3.8606 21.01C3.8606 21.0967 3.92685 21.1699 4.0084 21.1699L15.1802 21.178C18.2254 21.178 20.7584 18.6183 20.8374 15.33C20.8374 15.2434 20.7712 15.1702 20.6896 15.1702H20.6922Z" fill="#E62058"/>
<path d="M26.8623 6.89875L9.64815 6.89062C6.53158 6.89062 3.94398 9.44913 3.8606 12.7386C3.8606 12.8253 3.92835 12.8984 4.01173 12.8984L21.2259 12.9065C24.3398 12.9065 26.93 10.348 27.0108 7.06119C27.0108 6.97455 26.9431 6.90145 26.8597 6.90145L26.8623 6.89875Z" fill="#E62058"/>
<path d="M8.12893 29.2204C9.70353 28.5845 10.4506 26.8254 9.79795 25.291C9.14534 23.7566 7.34025 23.0286 5.76565 23.6646C4.19106 24.3005 3.44403 26.0596 4.09664 27.594C4.74925 29.1284 6.55434 29.8564 8.12893 29.2204Z" fill="#E62058"/>
<path d="M50.5583 7.36328H46.4729V29.606H50.5583V7.36328Z" fill="#E62058"/>
<path d="M96.3888 22.0416C96.3888 17.9065 93.403 14.4443 89.1905 14.4443C84.6619 14.4443 81.7688 18.0605 81.7688 22.1956C81.7688 26.8531 85.1979 29.9168 89.754 29.9168C92.111 29.9168 94.5334 28.9692 96.0109 27.2515L93.6847 24.9848C92.9632 25.7515 91.5785 26.6991 89.8502 26.6991C87.6821 26.6991 85.9504 25.2593 85.7305 23.1767H96.2926C96.3544 22.8385 96.3854 22.4401 96.3854 22.0416H96.3888ZM85.9194 20.2637C86.1084 18.9143 87.4931 17.6587 89.1905 17.6587C90.8878 17.6587 92.0835 18.9444 92.2107 20.2637H85.9229H85.9194Z" fill="#E62058"/>
<path d="M64.8636 16.1555L64.575 15.9244C63.3415 14.9434 61.7988 14.4277 60.1151 14.4277C55.9164 14.4277 52.6282 17.8396 52.6282 22.1924C52.6282 24.1378 53.3222 25.9927 54.5798 27.4124C55.9679 28.9861 58.1188 29.9236 60.335 29.9236C61.9431 29.9236 63.369 29.4214 64.5681 28.4269L64.8602 28.1859V29.6089H68.5298V14.7358H64.8602V16.1488L64.8636 16.1555ZM60.6168 26.7796C58.1669 26.7796 56.1706 24.7405 56.1706 22.2292C56.1706 19.718 58.1669 17.6789 60.6168 17.6789C63.0666 17.6789 65.0629 19.718 65.0629 22.2292C65.0629 24.7405 63.0666 26.7796 60.6168 26.7796Z" fill="#E62058"/>
<path d="M79.1991 14.4311C77.5155 14.4311 75.9727 14.9501 74.7392 15.9278L74.4506 16.1588V14.7458H70.781V29.6156H74.4472V21.8643C74.4472 20.6689 74.9454 19.5071 75.8731 18.7236C76.6428 18.074 77.6289 17.6823 78.7009 17.6823C79.4121 17.6823 80.0821 17.853 80.68 18.1577L81.8929 14.93C81.0614 14.6085 80.1543 14.4277 79.1991 14.4277V14.4311Z" fill="#E62058"/>
<path d="M35.6932 29.6046H39.5277V17.8286H43.8845V14.7181H39.5277V14.0752C39.5277 12.612 39.7648 12.0227 40.1462 11.5506C40.6856 10.9211 41.5206 10.6064 42.6338 10.6064C42.974 10.6064 43.4069 10.6533 43.7505 10.7269L44.3312 7.57953C43.6199 7.41211 42.9293 7.3418 42.0531 7.3418C40.1805 7.3418 38.4969 7.96123 37.3115 9.08291C36.1914 10.1443 35.6897 11.6377 35.6897 13.9212V14.7214H32.8826V17.832H35.6897V29.6079L35.6932 29.6046Z" fill="#E62058"/>
<path d="M112.347 0.875977H111.66V36.1234H112.347V0.875977Z" fill="#D1D1D1"/>
</g>
<defs>
<clipPath id="clip0_452_1349">
<rect width="405" height="35.2474" fill="white" transform="translate(0 0.875977)"/>
</clipPath>
</defs>
</svg>
