<svg width="415" height="37" viewBox="0 0 415 37" fill="none" xmlns="http://www.w3.org/2000/svg">
<g clip-path="url(#clip0_516_2976)">
<path d="M130.772 12.5216H136.912V29.896H139.673V12.5216H145.785V10.0513H130.772V12.5216Z" fill="black"/>
<path d="M154.882 16.0872C153.811 16.0872 152.871 16.3102 152.065 16.7597C151.259 17.2091 150.639 17.7993 150.206 18.5301V9.69189H147.558V29.866H150.206V22.5649C150.206 21.7963 150.357 21.0998 150.657 20.4788C150.956 19.8578 151.403 19.3638 151.995 18.9967C152.586 18.6296 153.304 18.4477 154.149 18.4477C154.808 18.4477 155.385 18.5747 155.882 18.832C156.378 19.0893 156.765 19.4942 157.036 20.0534C157.307 20.6127 157.445 21.3469 157.445 22.2629V29.8934H160.092V21.6865C160.092 19.9676 159.659 18.6021 158.797 17.5968C157.934 16.5916 156.628 16.0872 154.882 16.0872Z" fill="black"/>
<path d="M171.728 27.4787C171.069 27.8801 170.224 28.0825 169.193 28.0825C167.784 28.0825 166.704 27.6468 165.954 26.7788C165.302 26.0274 164.936 24.9947 164.848 23.6875L175.502 23.6635V22.7028C175.502 21.3681 175.234 20.205 174.699 19.2169C174.164 18.2288 173.414 17.4603 172.446 16.9113C171.478 16.3624 170.337 16.0879 169.024 16.0879C167.71 16.0879 166.52 16.3898 165.517 16.9937C164.514 17.5975 163.725 18.4312 163.151 19.4914C162.577 20.5516 162.292 21.7867 162.292 23.1968C162.292 24.607 162.584 25.8078 163.165 26.8611C163.746 27.9144 164.556 28.7379 165.587 29.3314C166.619 29.925 167.802 30.2235 169.136 30.2235C170.844 30.2235 172.252 29.8289 173.361 29.0432C174.47 28.2575 175.192 27.1493 175.53 25.722H173.052C172.826 26.4906 172.386 27.0773 171.728 27.4787ZM166.756 18.8189C167.387 18.445 168.14 18.2563 169.024 18.2563C170.189 18.2563 171.119 18.5959 171.812 19.2718C172.506 19.9477 172.854 20.8466 172.854 21.9617H164.908C164.985 21.4127 165.119 20.9084 165.32 20.4658C165.647 19.7419 166.126 19.1929 166.756 18.8189Z" fill="black"/>
<path d="M196.062 17.0067C195.122 16.3926 193.995 16.0872 192.682 16.0872C191.555 16.0872 190.552 16.3171 189.668 16.7734C188.784 17.2297 188.119 17.8988 187.668 18.7771V9.69189H185.021V29.8934H187.415L187.612 27.4506C188.062 28.346 188.724 29.0322 189.598 29.5091C190.471 29.986 191.442 30.2228 192.513 30.2228C193.847 30.2228 194.995 29.9243 195.963 29.3307C196.931 28.7372 197.678 27.9069 198.202 26.8467C198.727 25.7865 198.991 24.5857 198.991 23.2511C198.991 21.9164 198.738 20.6264 198.231 19.5456C197.724 18.4649 197.002 17.6208 196.062 17.0067ZM195.822 25.6116C195.474 26.3252 194.981 26.8844 194.344 27.2859C193.706 27.6873 192.935 27.8897 192.034 27.8897C191.133 27.8897 190.358 27.6873 189.71 27.2859C189.062 26.8844 188.566 26.3252 188.217 25.6116C187.869 24.8979 187.696 24.0745 187.696 23.1413C187.696 22.208 187.869 21.388 188.217 20.6847C188.566 19.9814 189.062 19.4255 189.71 19.0241C190.358 18.6227 191.133 18.4203 192.034 18.4203C192.935 18.4203 193.706 18.6261 194.344 19.0378C194.981 19.4496 195.474 20.0088 195.822 20.7121C196.171 21.4155 196.343 22.2252 196.343 23.1413C196.343 24.0573 196.171 24.8979 195.822 25.6116Z" fill="black"/>
<path d="M204.056 9.69189H201.408V29.8934H204.056V9.69189Z" fill="black"/>
<path d="M217.349 17.0186C216.278 16.4147 215.05 16.1128 213.659 16.1128C212.268 16.1128 211.036 16.4147 209.955 17.0186C208.874 17.6224 208.026 18.4561 207.406 19.5163C206.786 20.5765 206.477 21.7945 206.477 23.1669C206.477 24.5392 206.786 25.7572 207.406 26.8174C208.026 27.8776 208.874 28.7113 209.955 29.3151C211.036 29.919 212.268 30.2209 213.659 30.2209C215.05 30.2209 216.278 29.919 217.349 29.3151C218.419 28.7113 219.264 27.8776 219.884 26.8174C220.503 25.7572 220.813 24.5392 220.813 23.1669C220.813 21.7945 220.503 20.5765 219.884 19.5163C219.264 18.4561 218.419 17.6224 217.349 17.0186ZM217.588 25.6371C217.204 26.3508 216.673 26.91 215.997 27.3115C215.321 27.7129 214.543 27.9153 213.659 27.9153C212.775 27.9153 211.997 27.7129 211.321 27.3115C210.645 26.91 210.114 26.3508 209.73 25.6371C209.346 24.9235 209.152 24.1001 209.152 23.1669C209.152 22.2336 209.346 21.3862 209.73 20.6828C210.114 19.9795 210.645 19.4237 211.321 19.0222C211.997 18.6208 212.775 18.4184 213.659 18.4184C214.543 18.4184 215.321 18.6208 215.997 19.0222C216.673 19.4237 217.204 19.9795 217.588 20.6828C217.972 21.3862 218.166 22.2165 218.166 23.1669C218.166 24.1172 217.972 24.9235 217.588 25.6371Z" fill="black"/>
<path d="M231.438 27.2317C230.762 27.688 229.955 27.9179 229.015 27.9179C228.188 27.9179 227.466 27.7223 226.846 27.3277C226.227 26.9332 225.748 26.3842 225.41 25.6809C225.072 24.9775 224.903 24.1404 224.903 23.1694C224.903 22.1984 225.082 21.3579 225.438 20.6442C225.794 19.9306 226.294 19.3782 226.931 18.9836C227.568 18.5891 228.3 18.3935 229.128 18.3935C230.012 18.3935 230.779 18.6131 231.438 19.0522C232.096 19.4914 232.536 20.1399 232.761 21.001H235.409C235.184 19.5189 234.497 18.3283 233.353 17.4328C232.209 16.5373 230.772 16.0879 229.043 16.0879C227.709 16.0879 226.537 16.3898 225.523 16.9937C224.509 17.5975 223.716 18.4312 223.143 19.4914C222.569 20.5516 222.283 21.7867 222.283 23.1968C222.283 24.607 222.565 25.8353 223.128 26.8886C223.692 27.9419 224.477 28.7584 225.48 29.3451C226.484 29.9318 227.663 30.2235 229.015 30.2235C230.124 30.2235 231.131 30.0176 232.043 29.6059C232.955 29.1942 233.705 28.6281 234.296 27.9041C234.888 27.1802 235.268 26.3362 235.437 25.3652H232.79C232.564 26.1509 232.114 26.7753 231.438 27.2317Z" fill="black"/>
<path d="M246.474 16.4715L240.362 22.7845V9.69189H237.714V29.8934H240.362V26.0782L242.7 23.6902L246.728 29.8934H249.77L244.531 21.8238L249.798 16.4715H246.474Z" fill="black"/>
<path d="M259.123 27.2317C258.447 27.688 257.641 27.9179 256.701 27.9179C255.874 27.9179 255.152 27.7223 254.532 27.3277C253.913 26.9332 253.434 26.3842 253.096 25.6809C252.758 24.9775 252.589 24.1404 252.589 23.1694C252.589 22.1984 252.768 21.3579 253.124 20.6442C253.479 19.9306 253.979 19.3782 254.617 18.9836C255.254 18.5891 255.986 18.3935 256.814 18.3935C257.697 18.3935 258.465 18.6131 259.123 19.0522C259.782 19.4914 260.222 20.1399 260.447 21.001H263.095C262.869 19.5189 262.183 18.3283 261.039 17.4328C259.894 16.5373 258.458 16.0879 256.729 16.0879C255.395 16.0879 254.222 16.3898 253.208 16.9937C252.194 17.5975 251.402 18.4312 250.828 19.4914C250.254 20.5516 249.969 21.7867 249.969 23.1968C249.969 24.607 250.251 25.8353 250.814 26.8886C251.378 27.9419 252.163 28.7584 253.166 29.3451C254.17 29.9318 255.349 30.2235 256.701 30.2235C257.81 30.2235 258.817 30.0176 259.729 29.6059C260.641 29.1942 261.391 28.6281 261.982 27.9041C262.574 27.1802 262.954 26.3362 263.123 25.3652H260.475C260.25 26.1509 259.799 26.7753 259.123 27.2317Z" fill="black"/>
<path d="M272.674 16.0872C271.603 16.0872 270.663 16.3102 269.857 16.7597C269.051 17.2091 268.431 17.7993 267.998 18.5301V9.69189H265.35V29.866H267.998V22.5649C267.998 21.7963 268.149 21.0998 268.449 20.4788C268.748 19.8578 269.195 19.3638 269.787 18.9967C270.378 18.6296 271.096 18.4477 271.941 18.4477C272.6 18.4477 273.177 18.5747 273.674 18.832C274.17 19.0893 274.557 19.4942 274.828 20.0534C275.099 20.6127 275.237 21.3469 275.237 22.2629V29.8934H277.884V21.6865C277.884 19.9676 277.451 18.6021 276.589 17.5968C275.726 16.5916 274.42 16.0872 272.674 16.0872Z" fill="black"/>
<path d="M289.643 16.678C288.787 16.2835 287.787 16.0879 286.643 16.0879C285.499 16.0879 284.421 16.28 283.53 16.6643C282.64 17.0486 281.95 17.5872 281.46 18.2837C280.971 18.9802 280.728 19.7933 280.728 20.7266H283.038C283.038 19.9031 283.344 19.2684 283.953 18.8189C284.562 18.3695 285.421 18.1465 286.53 18.1465C287.15 18.1465 287.703 18.2425 288.192 18.4347C288.681 18.6268 289.065 18.9459 289.347 19.3953C289.628 19.8448 289.769 20.4418 289.769 21.1932V21.5774L285.432 21.9068C283.816 22.0338 282.559 22.4695 281.657 23.2106C280.756 23.9517 280.305 24.9363 280.305 26.1612C280.305 27.3861 280.724 28.3467 281.559 29.0981C282.393 29.8495 283.545 30.2235 285.009 30.2235C286.118 30.2235 287.108 30.0004 287.981 29.551C288.854 29.1015 289.47 28.4943 289.826 27.7257L290.107 29.8941H292.361V21.4676C292.361 20.2599 292.121 19.2581 291.642 18.4621C291.164 17.6661 290.498 17.0726 289.643 16.678ZM289.797 24.1026C289.797 25.3652 289.442 26.3671 288.727 27.1081C288.012 27.8492 287.027 28.2198 285.77 28.2198C284.907 28.2198 284.224 28.0414 283.728 27.6845C283.231 27.3277 282.981 26.7925 282.981 26.0789C282.981 25.4201 283.238 24.8814 283.756 24.4594C284.273 24.0374 285.111 23.7732 286.277 23.6635L289.797 23.389V24.1026Z" fill="black"/>
<path d="M296.758 9.88281C296.29 9.88281 295.881 10.0475 295.533 10.3769C295.184 10.7062 295.011 11.1077 295.011 11.5846C295.011 12.0615 295.184 12.4389 295.533 12.7785C295.881 13.1182 296.29 13.2863 296.758 13.2863C297.226 13.2863 297.659 13.1182 297.997 12.7785C298.335 12.4389 298.504 12.0409 298.504 11.5846C298.504 11.1283 298.335 10.7062 297.997 10.3769C297.659 10.0475 297.247 9.88281 296.758 9.88281Z" fill="black"/>
<path d="M298.107 16.4722H295.459V29.8941H298.107V16.4722Z" fill="black"/>
<path d="M308.607 16.0879C307.632 16.0879 306.734 16.304 305.917 16.7329C305.1 17.1618 304.477 17.7622 304.044 18.5307L303.763 16.4722H301.368V29.8941H304.016V22.7851C304.016 21.4676 304.358 20.4143 305.044 19.6286C305.731 18.843 306.692 18.4484 307.931 18.4484C308.945 18.4484 309.751 18.7469 310.353 19.3404C310.956 19.934 311.255 20.9084 311.255 22.2636V29.8941H313.902V21.6872C313.902 19.9683 313.469 18.6028 312.607 17.5975C311.744 16.5922 310.41 16.0879 308.607 16.0879Z" fill="black"/>
<path d="M329.058 9.69189C328.213 9.69189 327.466 9.84629 326.819 10.1585C326.171 10.4707 325.653 10.9682 325.269 11.6544C324.886 12.3406 324.692 13.2326 324.692 14.3306V16.4715H322.664V18.6398H324.692V29.8934H327.34V18.6398H330.607V16.4715H327.34V14.3306C327.34 13.5998 327.484 13.0302 327.776 12.6288C328.068 12.2274 328.646 12.0249 329.508 12.0249H330.691V9.80169C330.427 9.76395 330.156 9.7365 329.875 9.71934C329.593 9.70219 329.322 9.69189 329.058 9.69189Z" fill="black"/>
<path d="M342.046 17.0186C340.975 16.4147 339.746 16.1128 338.356 16.1128C336.965 16.1128 335.733 16.4147 334.652 17.0186C333.571 17.6224 332.722 18.4561 332.103 19.5163C331.483 20.5765 331.173 21.7945 331.173 23.1669C331.173 24.5392 331.483 25.7572 332.103 26.8174C332.722 27.8776 333.571 28.7113 334.652 29.3151C335.733 29.919 336.965 30.2209 338.356 30.2209C339.746 30.2209 340.975 29.919 342.046 29.3151C343.116 28.7113 343.961 27.8776 344.581 26.8174C345.2 25.7572 345.51 24.5392 345.51 23.1669C345.51 21.7945 345.2 20.5765 344.581 19.5163C343.961 18.4561 343.116 17.6224 342.046 17.0186ZM342.285 25.6371C341.901 26.3508 341.37 26.91 340.694 27.3115C340.018 27.7129 339.239 27.9153 338.356 27.9153C337.472 27.9153 336.694 27.7129 336.018 27.3115C335.342 26.91 334.81 26.3508 334.427 25.6371C334.043 24.9235 333.849 24.1001 333.849 23.1669C333.849 22.2336 334.043 21.3862 334.427 20.6828C334.81 19.9795 335.342 19.4237 336.018 19.0222C336.694 18.6208 337.472 18.4184 338.356 18.4184C339.239 18.4184 340.018 18.6208 340.694 19.0222C341.37 19.4237 341.901 19.9795 342.285 20.6828C342.669 21.3862 342.862 22.2165 342.862 23.1669C342.862 24.1172 342.669 24.9235 342.285 25.6371Z" fill="black"/>
<path d="M354.355 16.1958C353.285 16.1958 352.394 16.4737 351.679 17.033C351.151 17.4481 350.767 17.949 350.528 18.5391L350.355 16.4977H347.877V29.8922H350.524V22.7833C350.524 21.4829 350.887 20.4811 351.609 19.7777C352.331 19.0744 353.323 18.721 354.58 18.721H355.763V16.3605C355.499 16.3056 355.26 16.2644 355.045 16.237C354.83 16.2095 354.598 16.1958 354.355 16.1958Z" fill="black"/>
<path d="M375.256 18.6398C374.788 17.7993 374.133 17.1611 373.299 16.7322C372.464 16.3034 371.51 16.0872 370.44 16.0872C369.088 16.0872 367.922 16.3994 366.947 17.0204C365.972 17.6414 365.218 18.4889 364.694 19.5593C364.169 20.6298 363.905 21.8512 363.905 23.2236C363.905 24.596 364.162 25.7865 364.68 26.8467C365.197 27.9069 365.933 28.7372 366.891 29.3307C367.848 29.9243 368.993 30.2228 370.327 30.2228C371.436 30.2228 372.425 29.986 373.299 29.5091C374.172 29.0322 374.834 28.346 375.284 27.4506L375.51 29.8934H377.876V9.69189H375.256V18.6398ZM374.693 25.6116C374.337 26.3252 373.834 26.8844 373.186 27.2859C372.538 27.6873 371.763 27.8897 370.862 27.8897C369.961 27.8897 369.19 27.6873 368.553 27.2859C367.915 26.8844 367.426 26.3252 367.088 25.6116C366.75 24.8979 366.581 24.0745 366.581 23.1413C366.581 22.208 366.75 21.4155 367.088 20.7121C367.426 20.0088 367.915 19.4496 368.553 19.0378C369.19 18.6261 369.961 18.4203 370.862 18.4203C371.763 18.4203 372.538 18.6227 373.186 19.0241C373.834 19.4255 374.337 19.9814 374.693 20.6847C375.048 21.388 375.228 22.208 375.228 23.1413C375.228 24.0745 375.048 24.8979 374.693 25.6116Z" fill="black"/>
<path d="M389.802 16.678C388.946 16.2835 387.946 16.0879 386.802 16.0879C385.658 16.0879 384.58 16.28 383.69 16.6643C382.799 17.0486 382.109 17.5872 381.619 18.2837C381.13 18.9802 380.887 19.7933 380.887 20.7266H383.197C383.197 19.9031 383.503 19.2684 384.112 18.8189C384.721 18.3695 385.58 18.1465 386.689 18.1465C387.309 18.1465 387.862 18.2425 388.351 18.4347C388.841 18.6268 389.224 18.9459 389.506 19.3953C389.788 19.8448 389.929 20.4418 389.929 21.1932V21.5774L385.591 21.9068C383.975 22.0338 382.718 22.4695 381.817 23.2106C380.915 23.9517 380.465 24.9363 380.465 26.1612C380.465 27.3861 380.884 28.3467 381.718 29.0981C382.552 29.8495 383.704 30.2235 385.168 30.2235C386.277 30.2235 387.267 30.0004 388.14 29.551C389.013 29.1015 389.629 28.4943 389.985 27.7257L390.266 29.8941H392.52V21.4676C392.52 20.2599 392.28 19.2581 391.802 18.4621C391.323 17.6661 390.657 17.0726 389.802 16.678ZM389.957 24.1026C389.957 25.3652 389.601 26.3671 388.886 27.1081C388.172 27.8492 387.186 28.2198 385.929 28.2198C385.066 28.2198 384.383 28.0414 383.887 27.6845C383.39 27.3277 383.14 26.7925 383.14 26.0789C383.14 25.4201 383.397 24.8814 383.915 24.4594C384.433 24.0374 385.27 23.7732 386.436 23.6635L389.957 23.389V24.1026Z" fill="black"/>
<path d="M399.277 12.27H396.63V16.4695H393.926V18.6379H396.63V29.8914H399.277V18.6379H401.981V16.4695H399.277V12.27Z" fill="black"/>
<path d="M414.276 18.4621C413.797 17.6661 413.131 17.0726 412.276 16.678C411.42 16.2835 410.42 16.0879 409.276 16.0879C408.132 16.0879 407.055 16.28 406.164 16.6643C405.273 17.0486 404.583 17.5872 404.094 18.2837C403.604 18.9802 403.361 19.7933 403.361 20.7266H405.671C405.671 19.9031 405.977 19.2684 406.586 18.8189C407.195 18.3695 408.054 18.1465 409.164 18.1465C409.783 18.1465 410.336 18.2425 410.825 18.4347C411.315 18.6268 411.698 18.9459 411.98 19.3953C412.262 19.8448 412.403 20.4418 412.403 21.1932V21.5774L408.065 21.9068C406.449 22.0338 405.192 22.4695 404.291 23.2106C403.389 23.9517 402.939 24.9363 402.939 26.1612C402.939 27.3861 403.358 28.3467 404.192 29.0981C405.027 29.8495 406.178 30.2235 407.643 30.2235C408.752 30.2235 409.741 30.0004 410.614 29.551C411.487 29.1015 412.103 28.4943 412.459 27.7257L412.741 29.8941H414.994V21.4676C414.994 20.2599 414.755 19.2581 414.276 18.4621ZM412.431 24.1026C412.431 25.3652 412.075 26.3671 411.36 27.1081C410.646 27.8492 409.66 28.2198 408.403 28.2198C407.54 28.2198 406.857 28.0414 406.361 27.6845C405.864 27.3277 405.615 26.7925 405.615 26.0789C405.615 25.4201 405.872 24.8814 406.389 24.4594C406.907 24.0374 407.745 23.7732 408.91 23.6635L412.431 23.389V24.1026Z" fill="black"/>
<path d="M21.203 15.0894L9.75535 15.0811C6.63493 15.0783 4.03937 17.7011 3.95581 21.0734C3.95581 21.1622 4.0237 21.2371 4.10726 21.2371L15.5549 21.2455C18.6753 21.2455 21.2709 18.6226 21.3518 15.2531C21.3518 15.1643 21.2839 15.0894 21.2004 15.0894H21.203Z" fill="#E62058"/>
<path d="M27.5255 6.6133L9.88627 6.60498C6.69274 6.60498 4.04126 9.22666 3.95581 12.5974C3.95581 12.6862 4.02524 12.7611 4.11068 12.7611L21.7499 12.7694C24.9407 12.7694 27.5949 10.1477 27.6777 6.77976C27.6777 6.69098 27.6082 6.61608 27.5228 6.61608L27.5255 6.6133Z" fill="#E62058"/>
<path d="M8.32954 29.4863C9.94301 28.8347 10.7085 27.0322 10.0398 25.4599C9.37104 23.8876 7.52138 23.1417 5.90791 23.7933C4.29443 24.445 3.52896 26.2474 4.19768 27.8197C4.8664 29.3921 6.71607 30.138 8.32954 29.4863Z" fill="#E62058"/>
<path d="M51.8066 7.08936H47.6204V29.8812H51.8066V7.08936Z" fill="#E62058"/>
<path d="M98.7688 22.1301C98.7688 17.8928 95.7093 14.3452 91.3928 14.3452C86.7524 14.3452 83.7878 18.0507 83.7878 22.2879C83.7878 27.0604 87.3016 30.1997 91.9702 30.1997C94.3854 30.1997 96.8676 29.2287 98.3816 27.4686L95.998 25.1459C95.2586 25.9316 93.8397 26.9025 92.0688 26.9025C89.8471 26.9025 88.0727 25.4272 87.8473 23.2932H98.6703C98.7336 22.9466 98.7653 22.5384 98.7653 22.1301H98.7688ZM88.041 20.3082C88.2346 18.9256 89.6535 17.6389 91.3928 17.6389C93.132 17.6389 94.3573 18.9564 94.4875 20.3082H88.0445H88.041Z" fill="#E62058"/>
<path d="M66.4653 16.099L66.1696 15.8623C64.9056 14.857 63.3247 14.3286 61.5996 14.3286C57.2971 14.3286 53.9277 17.8248 53.9277 22.285C53.9277 24.2784 54.6389 26.1792 55.9276 27.6339C57.35 29.2464 59.554 30.2071 61.8249 30.2071C63.4726 30.2071 64.9338 29.6925 66.1625 28.6735L66.4618 28.4264V29.8846H70.222V14.6443H66.4618V16.0921L66.4653 16.099ZM62.1136 26.9854C59.6033 26.9854 57.5577 24.896 57.5577 22.3228C57.5577 19.7495 59.6033 17.6601 62.1136 17.6601C64.6239 17.6601 66.6695 19.7495 66.6695 22.3228C66.6695 24.896 64.6239 26.9854 62.1136 26.9854Z" fill="#E62058"/>
<path d="M81.1548 14.332C79.4296 14.332 77.8487 14.8638 76.5848 15.8657L76.289 16.1024V14.6546H72.5288V29.8915H76.2855V21.9488C76.2855 20.7239 76.796 19.5334 77.7466 18.7305C78.5353 18.0649 79.5458 17.6635 80.6442 17.6635C81.373 17.6635 82.0596 17.8385 82.6722 18.1507L83.9151 14.8433C83.063 14.5139 82.1335 14.3286 81.1548 14.3286V14.332Z" fill="#E62058"/>
<path d="M36.5743 29.8794H40.5036V17.8127H44.9679V14.6253H40.5036V13.9666C40.5036 12.4672 40.7465 11.8634 41.1373 11.3796C41.6901 10.7346 42.5456 10.4121 43.6864 10.4121C44.0349 10.4121 44.4785 10.4601 44.8306 10.5356L45.4256 7.31049C44.6968 7.13895 43.9891 7.06689 43.0913 7.06689C41.1725 7.06689 39.4473 7.70162 38.2326 8.851C37.0849 9.93861 36.5708 11.4688 36.5708 13.8087V14.6287H33.6943V17.8161H36.5708V29.8828L36.5743 29.8794Z" fill="#E62058"/>
<path d="M115.121 0.441406H114.417V36.5592H115.121V0.441406Z" fill="#D1D1D1"/>
</g>
<defs>
<clipPath id="clip0_516_2976">
<rect width="415" height="36.1177" fill="white" transform="translate(0 0.441406)"/>
</clipPath>
</defs>
</svg>
