<svg width="44" height="44" viewBox="0 0 44 44" fill="none" xmlns="http://www.w3.org/2000/svg">
<g clip-path="url(#clip0_180_150)">
<path d="M22.0005 43.7873C9.89411 43.7873 0.0810547 34.0572 0.0810547 22.0535C0.0810547 10.0497 9.89411 0.319824 22.0005 0.319824C34.1068 0.319824 43.92 10.0497 43.92 22.0535C43.92 34.0572 34.1068 43.7873 22.0005 43.7873ZM31.6861 11.1866L25.4199 17.3305C24.5082 18.2227 23.2787 18.723 21.9977 18.723C20.7167 18.723 19.4873 18.2227 18.5756 17.3305L12.3148 11.1866H8.34877L16.5959 19.2784C18.0367 20.6858 19.978 21.4747 22.0005 21.4747C24.023 21.4747 25.9643 20.6858 27.405 19.2784L35.6467 11.1866H31.6861ZM12.2669 33.6851L18.581 27.4869C19.4927 26.5947 20.7222 26.0944 22.0032 26.0944C23.2842 26.0944 24.5137 26.5947 25.4254 27.4869L31.7341 33.6851H35.7001L27.405 25.5444C25.9643 24.137 24.023 23.3481 22.0005 23.3481C19.978 23.3481 18.0367 24.137 16.5959 25.5444L8.30082 33.6837L12.2669 33.6851Z" fill="white"/>
<path d="M31.7886 11.041H35.7714L27.4819 19.1813C26.0326 20.5971 24.0797 21.3908 22.0451 21.3908C20.0105 21.3908 18.0576 20.5971 16.6083 19.1813L8.31188 11.041H12.3016L18.5997 17.2217C19.5169 18.1193 20.7537 18.6226 22.0423 18.6226C23.331 18.6226 24.5678 18.1193 25.4849 17.2217L31.7886 11.041ZM12.2534 33.6744H8.26367L16.6083 25.4849C18.0576 24.0691 20.0105 23.2754 22.0451 23.2754C24.0797 23.2754 26.0326 24.0691 27.4819 25.4849L35.8265 33.673H31.8368L25.4905 27.4391C24.5733 26.5415 23.3365 26.0382 22.0479 26.0382C20.7592 26.0382 19.5224 26.5415 18.6053 27.4391L12.252 33.6744H12.2534Z" fill="black"/>
<path d="M43.7316 36.3162C43.7316 32.2931 40.4423 29.0317 36.3848 29.0317C32.3273 29.0317 29.0381 32.2931 29.0381 36.3162C29.0381 40.3394 32.3273 43.6007 36.3848 43.6007C40.4423 43.6007 43.7316 40.3394 43.7316 36.3162Z" fill="white"/>
<path d="M43.7316 36.3162C43.7316 32.2931 40.4423 29.0317 36.3848 29.0317C32.3273 29.0317 29.0381 32.2931 29.0381 36.3162C29.0381 40.3394 32.3273 43.6007 36.3848 43.6007C40.4423 43.6007 43.7316 40.3394 43.7316 36.3162Z" stroke="black"/>
<path d="M38.2229 35.3884L34.4961 35.3857C33.4802 35.3857 32.635 36.1825 32.6084 37.2062C32.6076 37.2337 32.6304 37.2562 32.6581 37.2562L36.3848 37.2585C37.4007 37.2589 38.2458 36.4625 38.2725 35.4384C38.2733 35.4109 38.2503 35.3884 38.2229 35.3884Z" fill="black"/>
<path d="M40.1115 32.5833L34.4961 32.5806C33.4802 32.5806 32.635 33.3773 32.6084 34.401C32.6076 34.4285 32.6304 34.451 32.6581 34.451L38.2737 34.4534C39.2894 34.4537 40.1348 33.6573 40.1611 32.6333C40.1619 32.6058 40.1393 32.5833 40.1115 32.5833Z" fill="black"/>
<path d="M33.9142 39.9801C34.396 39.7821 34.6247 39.2347 34.4252 38.7571C34.2256 38.279 33.6733 38.0523 33.1915 38.2503C32.7097 38.4479 32.4809 38.9957 32.6805 39.4734C32.8801 39.951 33.4324 40.1781 33.9142 39.9801Z" fill="black"/>
</g>
<defs>
<clipPath id="clip0_180_150">
<rect width="44" height="44" fill="white"/>
</clipPath>
</defs>
</svg>
