<svg width="19" height="19" viewBox="0 0 19 19" fill="none" xmlns="http://www.w3.org/2000/svg">
<path d="M1.04625 10.4327C1.02958 10.2789 1.01708 10.1234 1.00875 9.9663C1.00042 9.8093 0.99625 9.6538 0.99625 9.5C0.99625 8.3205 1.21833 7.21542 1.6625 6.18475C2.10683 5.15392 2.71483 4.25517 3.4865 3.4885C4.25833 2.72183 5.15867 2.11542 6.1875 1.66925C7.21633 1.22308 8.3205 1 9.5 1C10.6858 1 11.7958 1.22308 12.8298 1.66925C13.8638 2.11542 14.7641 2.72183 15.5307 3.4885C16.2974 4.25517 16.9054 5.15392 17.3547 6.18475C17.8041 7.21542 18.0288 8.3205 18.0288 9.5C18.0288 9.6538 18.0246 9.8093 18.0163 9.9663C18.0079 10.1234 17.9954 10.2789 17.9788 10.4327H16.4635C16.4903 10.2789 16.5079 10.1234 16.5163 9.9663C16.5246 9.8093 16.5288 9.6538 16.5288 9.5C16.5288 9.3013 16.5214 9.1026 16.5068 8.9037C16.4919 8.7051 16.4647 8.5096 16.425 8.3173H13.1193C13.1423 8.5096 13.1554 8.7051 13.1587 8.9037C13.1619 9.1026 13.1635 9.3013 13.1635 9.5V9.9663C13.1635 10.1234 13.1552 10.2789 13.1385 10.4327H11.6635V9.675C11.6635 9.4365 11.6593 9.2044 11.651 8.9787C11.6427 8.7531 11.6269 8.5326 11.6038 8.3173H7.4115C7.3885 8.5326 7.37283 8.7531 7.3645 8.9787C7.35617 9.2044 7.352 9.4365 7.352 9.675V10.4327H5.877C5.86033 10.2789 5.852 10.1234 5.852 9.9663V9.5C5.852 9.3013 5.85358 9.1026 5.85675 8.9037C5.85992 8.7051 5.87308 8.5096 5.89625 8.3173H2.6C2.56033 8.5096 2.53308 8.7051 2.51825 8.9037C2.50358 9.1026 2.49625 9.3013 2.49625 9.5C2.49625 9.6538 2.50042 9.8093 2.50875 9.9663C2.51708 10.1234 2.53467 10.2789 2.5615 10.4327H1.04625ZM3.04625 6.81725H6.0635C6.216 5.92108 6.42592 5.14708 6.69325 4.49525C6.96058 3.84325 7.27825 3.28392 7.6463 2.81725C6.61542 3.05325 5.69167 3.52508 4.875 4.23275C4.05833 4.94042 3.44875 5.80192 3.04625 6.81725ZM7.6192 6.81725H11.3807C11.2269 6.04292 11.0026 5.29325 10.7078 4.56825C10.4129 3.84325 10.0103 3.18592 9.5 2.59625C8.9897 3.19242 8.5862 3.85133 8.2895 4.573C7.9927 5.29483 7.7692 6.04292 7.6192 6.81725ZM12.952 6.81725H15.9788C15.5763 5.79542 14.9577 4.93225 14.123 4.22775C13.2883 3.52342 12.3524 3.05325 11.3152 2.81725C11.6961 3.31092 12.0259 3.88333 12.3048 4.5345C12.5836 5.18583 12.7993 5.94675 12.952 6.81725ZM8.75 18V17.25C8.75 16.3782 8.4439 15.6394 7.8317 15.0337C7.21958 14.4279 6.47758 14.125 5.60575 14.125H0V12.625H5.60575C6.41225 12.625 7.1565 12.8144 7.8385 13.1933C8.5205 13.5721 9.0743 14.0943 9.5 14.7598C9.9257 14.0943 10.4795 13.5721 11.1615 13.1933C11.8435 12.8144 12.5845 12.625 13.3845 12.625H19V14.125H13.3845C12.5128 14.125 11.7725 14.4279 11.1635 15.0337C10.5545 15.6394 10.25 16.3782 10.25 17.25V18H8.75Z" fill="#1C1B1F"/>
</svg>
