<svg width="18" height="18" viewBox="0 0 18 18" fill="none" xmlns="http://www.w3.org/2000/svg">
<path d="M1.01725 9.8655C1.00058 9.7243 0.98808 9.5801 0.97975 9.4327C0.97142 9.2852 0.96725 9.141 0.96725 9C0.96725 7.891 1.17817 6.85158 1.6 5.88175C2.02183 4.91192 2.59617 4.0645 3.323 3.3395C4.05 2.6145 4.90067 2.04333 5.875 1.626C6.84933 1.20867 7.891 1 9 1C10.1218 1 11.1708 1.20867 12.147 1.626C13.1233 2.04333 13.974 2.6145 14.699 3.3395C15.424 4.0645 15.9983 4.91192 16.422 5.88175C16.8458 6.85158 17.0578 7.891 17.0578 9C17.0578 9.141 17.0536 9.2852 17.0452 9.4327C17.0369 9.5801 17.0244 9.7243 17.0077 9.8655H16.002C16.0225 9.7243 16.0369 9.5801 16.0452 9.4327C16.0536 9.2852 16.0578 9.141 16.0578 9C16.0578 8.7692 16.0472 8.5384 16.026 8.3078C16.0048 8.0769 15.9712 7.8525 15.925 7.6345H12.2635C12.293 7.8525 12.3109 8.0769 12.3173 8.3078C12.3238 8.5384 12.327 8.7692 12.327 9V9.4327C12.327 9.5801 12.3187 9.7243 12.302 9.8655H11.327V9.175C11.327 8.898 11.3228 8.6339 11.3145 8.3828C11.3062 8.1314 11.2873 7.882 11.2578 7.6345H6.748C6.7185 7.882 6.69958 8.1314 6.69125 8.3828C6.68292 8.6339 6.67875 8.898 6.67875 9.175V9.8655H5.70375C5.68708 9.7243 5.67875 9.5801 5.67875 9.4327V9C5.67875 8.7692 5.682 8.5384 5.6885 8.3078C5.69483 8.0769 5.71275 7.8525 5.74225 7.6345H2.1C2.05383 7.8525 2.02017 8.0769 1.999 8.3078C1.97783 8.5384 1.96725 8.7692 1.96725 9C1.96725 9.141 1.97142 9.2852 1.97975 9.4327C1.98808 9.5801 2.0025 9.7243 2.023 9.8655H1.01725ZM2.39225 6.6345H5.852C6.02367 5.559 6.27683 4.65683 6.6115 3.928C6.94617 3.199 7.3647 2.60117 7.8672 2.1345C6.60575 2.30633 5.48333 2.79583 4.5 3.603C3.51667 4.41 2.81408 5.4205 2.39225 6.6345ZM6.8885 6.6345H11.1115C10.9705 5.8025 10.7302 5.00317 10.3905 4.2365C10.0507 3.46983 9.5872 2.78842 9 2.19225C8.4128 2.80125 7.9516 3.48592 7.6163 4.24625C7.2811 5.00642 7.0385 5.8025 6.8885 6.6345ZM12.1538 6.6345H15.6328C15.2109 5.40767 14.4946 4.39392 13.4837 3.59325C12.4727 2.79258 11.3301 2.30633 10.0557 2.1345C10.5839 2.62183 11.0227 3.23758 11.372 3.98175C11.7215 4.72592 11.9821 5.61017 12.1538 6.6345ZM8.5 17V16.5C8.5 15.5897 8.1795 14.8204 7.5385 14.1923C6.8975 13.5641 6.12183 13.25 5.2115 13.25H0V12.25H5.2115C6.02433 12.25 6.767 12.4538 7.4395 12.8615C8.1118 13.2692 8.632 13.8218 9 14.5193C9.368 13.8218 9.8882 13.2692 10.5605 12.8615C11.233 12.4538 11.9693 12.25 12.7693 12.25H18V13.25H12.7693C11.8589 13.25 11.0865 13.5641 10.452 14.1923C9.8173 14.8204 9.5 15.5897 9.5 16.5V17H8.5Z" fill="white"/>
</svg>
