<svg width="19" height="19" viewBox="0 0 19 19" fill="none" xmlns="http://www.w3.org/2000/svg">
<g clip-path="url(#clip0_254_108)">
<path d="M9.5013 19C8.7584 19 8.127 18.7401 7.607 18.2203C7.087 17.7006 6.827 17.0695 6.827 16.327C6.827 16.2243 6.83433 16.1182 6.849 16.0087C6.86383 15.8991 6.886 15.7929 6.9155 15.6902L4.54225 14.352C4.30125 14.5917 4.02125 14.7772 3.70225 14.9085C3.38308 15.04 3.04 15.1058 2.673 15.1058C1.9305 15.1058 1.29942 14.8451 0.77975 14.3238C0.25992 13.8024 0 13.1694 0 12.4248C0 11.6801 0.25992 11.0465 0.77975 10.524C1.29942 10.0017 1.9305 9.7405 2.673 9.7405C3.059 9.7405 3.42092 9.8171 3.75875 9.9703C4.09658 10.1234 4.39108 10.3366 4.64225 10.6098L7.8672 8.9848C7.7916 8.5949 7.8028 8.2102 7.901 7.8307C7.999 7.45125 8.1775 7.10958 8.4365 6.80575L7.38475 5.227C7.26158 5.27317 7.13125 5.30775 6.99375 5.33075C6.85625 5.35375 6.71408 5.36525 6.56725 5.36525C5.82475 5.36525 5.19367 5.10467 4.674 4.5835C4.15417 4.06217 3.89425 3.42917 3.89425 2.6845C3.89425 1.93967 4.15425 1.30608 4.67425 0.78375C5.19425 0.26125 5.82567 0 6.5685 0C7.31133 0 7.9456 0.26083 8.4713 0.7825C8.9968 1.30417 9.2595 1.93758 9.2595 2.68275C9.2595 3.00958 9.2022 3.32075 9.0875 3.61625C8.9727 3.91192 8.8173 4.17508 8.6213 4.40575L9.6885 5.98475C9.8218 5.93858 9.9519 5.90392 10.0787 5.88075C10.2056 5.85775 10.3415 5.84625 10.4865 5.84625C10.7675 5.84625 11.032 5.88433 11.28 5.9605C11.528 6.03683 11.759 6.14808 11.973 6.29425L13.873 4.74225C13.8 4.57558 13.742 4.40475 13.699 4.22975C13.6562 4.05475 13.6348 3.87242 13.6348 3.68275C13.6348 2.93758 13.8947 2.30417 14.4145 1.7825C14.9345 1.26083 15.5659 1 16.3088 1C17.0516 1 17.6858 1.26067 18.2115 1.782C18.7372 2.30333 19 2.93633 19 3.681C19 4.42567 18.7372 5.05925 18.2115 5.58175C17.6858 6.10408 17.0513 6.36525 16.3078 6.36525C16.0244 6.36525 15.7609 6.323 15.5173 6.2385C15.2738 6.15383 15.0449 6.03842 14.8307 5.89225L12.9402 7.4595C13.0197 7.6293 13.0794 7.8033 13.1193 7.9815C13.1589 8.1597 13.1788 8.3421 13.1788 8.5288C13.1788 9.2741 12.9159 9.9075 12.3903 10.429C11.8648 10.9507 11.2302 11.2115 10.4865 11.2115C10.0993 11.2115 9.7378 11.1333 9.402 10.977C9.066 10.8205 8.7724 10.6058 8.5213 10.3328L5.3115 11.9423C5.364 12.1243 5.384 12.3074 5.3715 12.4918C5.35883 12.6759 5.32733 12.8601 5.277 13.0443L7.6558 14.398C7.8968 14.1583 8.1728 13.9728 8.4838 13.8413C8.7946 13.7099 9.1333 13.6443 9.5 13.6443C10.2435 13.6443 10.8781 13.9042 11.4038 14.4242C11.9294 14.9442 12.1923 15.5757 12.1923 16.3185C12.1923 17.0613 11.9294 17.6939 11.4038 18.2163C10.8781 18.7388 10.2439 19 9.5013 19ZM2.678 13.6058C3.00933 13.6058 3.29008 13.4925 3.52025 13.266C3.75042 13.0393 3.8655 12.7585 3.8655 12.4235C3.8655 12.0887 3.75117 11.8062 3.5225 11.576C3.294 11.3458 3.01083 11.2308 2.673 11.2308C2.34483 11.2308 2.06733 11.345 1.8405 11.5735C1.6135 11.802 1.5 12.0852 1.5 12.423C1.5 12.7513 1.6135 13.0305 1.8405 13.2605C2.06733 13.4907 2.3465 13.6058 2.678 13.6058ZM6.572 3.8655C6.9035 3.8655 7.18433 3.75217 7.4145 3.5255C7.6447 3.299 7.7598 3.01825 7.7598 2.68325C7.7598 2.34825 7.6454 2.06733 7.41675 1.8405C7.18825 1.6135 6.90508 1.5 6.56725 1.5C6.23908 1.5 5.9615 1.61508 5.7345 1.84525C5.50767 2.07542 5.39425 2.35458 5.39425 2.68275C5.39425 3.01092 5.50767 3.29008 5.7345 3.52025C5.9615 3.75042 6.24067 3.8655 6.572 3.8655ZM9.5048 17.5095C9.8363 17.5095 10.1154 17.3963 10.3422 17.1698C10.5692 16.9431 10.6827 16.6623 10.6827 16.3275C10.6827 15.9925 10.5694 15.7115 10.3428 15.4845C10.1161 15.2577 9.8352 15.1443 9.5 15.1443C9.1718 15.1443 8.8927 15.2593 8.6625 15.4895C8.4323 15.7195 8.3173 15.9987 8.3173 16.327C8.3173 16.6552 8.4323 16.9343 8.6625 17.1645C8.8927 17.3945 9.1734 17.5095 9.5048 17.5095ZM10.476 9.7115C10.8073 9.7115 11.0865 9.5982 11.3135 9.3717C11.5403 9.1451 11.6538 8.8643 11.6538 8.5293C11.6538 8.1944 11.5404 7.9135 11.3138 7.6865C11.0871 7.45967 10.8062 7.34625 10.4712 7.34625C10.1429 7.34625 9.8637 7.46125 9.6337 7.6913C9.4036 7.9214 9.2885 8.2006 9.2885 8.5288C9.2885 8.8571 9.4036 9.1363 9.6337 9.3663C9.8637 9.5964 10.1445 9.7115 10.476 9.7115ZM16.3125 4.8655C16.6438 4.8655 16.9246 4.75217 17.1548 4.5255C17.3849 4.299 17.5 4.01825 17.5 3.68325C17.5 3.34825 17.3857 3.06733 17.1572 2.8405C16.9287 2.6135 16.6456 2.5 16.3078 2.5C15.9794 2.5 15.7018 2.61333 15.475 2.84C15.248 3.06667 15.1345 3.34758 15.1345 3.68275C15.1345 4.01092 15.248 4.29008 15.475 4.52025C15.7018 4.75042 15.981 4.8655 16.3125 4.8655Z" fill="white"/>
</g>
<defs>
<clipPath id="clip0_254_108">
<rect width="19" height="19" fill="white"/>
</clipPath>
</defs>
</svg>
