<svg width="18" height="18" viewBox="0 0 18 18" fill="none" xmlns="http://www.w3.org/2000/svg">
<g clip-path="url(#clip0_268_144)">
<path d="M9.0022 18C8.3499 18 7.7954 17.7719 7.3387 17.3158C6.88208 16.8596 6.65375 16.3056 6.65375 15.6538C6.65375 15.5321 6.66433 15.4116 6.6855 15.2923C6.70667 15.1731 6.73842 15.0526 6.78075 14.9307L4.1095 13.4288C3.89417 13.6749 3.63408 13.8669 3.32925 14.0048C3.02442 14.1426 2.69675 14.2115 2.34625 14.2115C1.69442 14.2115 1.14042 13.9819 0.68425 13.5228C0.22808 13.0634 0 12.5057 0 11.8495C0 11.1935 0.22808 10.6347 0.68425 10.173C1.14042 9.7115 1.69442 9.4808 2.34625 9.4808C2.71825 9.4808 3.067 9.559 3.3925 9.7155C3.718 9.8718 3.99033 10.0898 4.2095 10.3693L7.6845 8.6193C7.5833 8.2231 7.585 7.8288 7.6895 7.4365C7.794 7.0442 7.9885 6.7025 8.273 6.4115L7.0192 4.55375C6.88975 4.61275 6.74992 4.657 6.59975 4.6865C6.44975 4.716 6.29467 4.73075 6.1345 4.73075C5.48283 4.73075 4.92892 4.50108 4.47275 4.04175C4.01658 3.58258 3.7885 3.02492 3.7885 2.36875C3.7885 1.71258 4.01683 1.15375 4.4735 0.69225C4.93 0.23075 5.4845 0 6.137 0C6.78933 0 7.3494 0.23 7.8173 0.69C8.2853 1.14983 8.5192 1.70833 8.5192 2.3655C8.5192 2.686 8.4587 2.98758 8.3375 3.27025C8.2163 3.55292 8.0513 3.8 7.8423 4.0115L9.102 5.86925C9.2353 5.81025 9.3705 5.766 9.5075 5.7365C9.6445 5.707 9.7913 5.69225 9.948 5.69225C10.2267 5.69225 10.489 5.73525 10.735 5.82125C10.9808 5.90708 11.2012 6.0295 11.3962 6.1885L13.5462 4.4345C13.4667 4.26783 13.4007 4.097 13.348 3.922C13.2955 3.747 13.2693 3.5615 13.2693 3.3655C13.2693 2.70833 13.4976 2.14983 13.9542 1.69C14.4109 1.23 14.9654 1 15.6178 1C16.2701 1 16.8302 1.22967 17.298 1.689C17.766 2.14817 18 2.70583 18 3.362C18 4.01817 17.766 4.577 17.298 5.0385C16.8302 5.5 16.2693 5.73075 15.6155 5.73075C15.3322 5.73075 15.0718 5.68367 14.8345 5.5895C14.5973 5.49517 14.3813 5.3685 14.1865 5.2095L12.0557 6.96925C12.1481 7.1421 12.2173 7.3192 12.2635 7.5005C12.3097 7.6818 12.3328 7.8676 12.3328 8.0577C12.3328 8.7147 12.0987 9.2732 11.6307 9.7332C11.1627 10.1931 10.6018 10.423 9.948 10.423C9.5737 10.423 9.2298 10.3416 8.9163 10.1788C8.6029 10.0159 8.3366 9.7948 8.1173 9.5155L4.648 11.2595C4.71983 11.4737 4.74733 11.6899 4.7305 11.9082C4.71367 12.1267 4.67142 12.3452 4.60375 12.5635L7.2615 14.0712C7.4768 13.8251 7.7329 13.6331 8.0297 13.4952C8.3266 13.3574 8.65 13.2885 9 13.2885C9.6538 13.2885 10.2147 13.5168 10.6827 13.9735C11.1506 14.43 11.3845 14.9845 11.3845 15.637C11.3845 16.2893 11.1506 16.8463 10.6827 17.3078C10.2147 17.7693 9.6546 18 9.0022 18ZM2.35575 13.2115C2.73525 13.2115 3.05933 13.0808 3.328 12.8193C3.5965 12.5578 3.73075 12.2338 3.73075 11.8473C3.73075 11.4606 3.59808 11.133 3.33275 10.8645C3.06725 10.5958 2.73842 10.4615 2.34625 10.4615C1.97308 10.4615 1.65542 10.5942 1.39325 10.8595C1.13108 11.125 1 11.4539 1 11.8463C1 12.2193 1.13108 12.5401 1.39325 12.8087C1.65542 13.0772 1.97625 13.2115 2.35575 13.2115ZM6.14425 3.73075C6.52375 3.73075 6.84775 3.6 7.1163 3.3385C7.3849 3.077 7.5192 2.753 7.5192 2.3665C7.5192 1.97983 7.3866 1.65542 7.1213 1.39325C6.85575 1.13108 6.52683 1 6.1345 1C5.7615 1 5.44392 1.13433 5.18175 1.403C4.91958 1.6715 4.7885 1.99233 4.7885 2.3655C4.7885 2.7385 4.91958 3.05933 5.18175 3.328C5.44392 3.5965 5.76475 3.73075 6.14425 3.73075ZM9.0095 17.0193C9.389 17.0193 9.7098 16.8885 9.972 16.627C10.2343 16.3655 10.3655 16.0414 10.3655 15.6547C10.3655 15.2682 10.2346 14.9439 9.9727 14.6818C9.7111 14.4196 9.3868 14.2885 9 14.2885C8.627 14.2885 8.3062 14.4228 8.0375 14.6913C7.7688 14.9599 7.6345 15.2808 7.6345 15.6538C7.6345 16.0269 7.7688 16.3478 8.0375 16.6163C8.3062 16.8849 8.6302 17.0193 9.0095 17.0193ZM9.952 9.423C10.3315 9.423 10.6523 9.2923 10.9145 9.0308C11.1767 8.7693 11.3077 8.4452 11.3077 8.0587C11.3077 7.6721 11.1769 7.3477 10.9152 7.0855C10.6534 6.82333 10.3291 6.69225 9.9423 6.69225C9.5693 6.69225 9.2484 6.82658 8.9798 7.0953C8.7113 7.3638 8.577 7.6846 8.577 8.0577C8.577 8.4307 8.7113 8.7516 8.9798 9.0203C9.2484 9.2888 9.5725 9.423 9.952 9.423ZM15.625 4.73075C16.0045 4.73075 16.3285 4.6 16.597 4.3385C16.8657 4.077 17 3.753 17 3.3665C17 2.97983 16.8673 2.65542 16.602 2.39325C16.3365 2.13108 16.0077 2 15.6155 2C15.2423 2 14.9247 2.13083 14.6625 2.3925C14.4003 2.65417 14.2693 2.9785 14.2693 3.3655C14.2693 3.7385 14.4003 4.05933 14.6625 4.328C14.9247 4.5965 15.2455 4.73075 15.625 4.73075Z" fill="#1C1B1F"/>
</g>
<defs>
<clipPath id="clip0_268_144">
<rect width="18" height="18" fill="white"/>
</clipPath>
</defs>
</svg>
