<svg width="44" height="44" viewBox="0 0 44 44" fill="none" xmlns="http://www.w3.org/2000/svg">
<g clip-path="url(#clip0_174_2)">
<g clip-path="url(#clip1_174_2)">
<path d="M31.4616 15.6558L38.0461 11.8509C37.4254 11.3921 36.9936 10.7175 36.8587 9.96191L30.9219 14.9272C31.1108 15.1701 31.2727 15.4129 31.4346 15.6558H31.4616Z" fill="#232323"/>
<path d="M32.3791 17.3839L42.6066 13.6599C42.2019 12.8234 41.3113 12.2027 40.1779 12.3647C39.8811 12.3916 39.6113 12.3916 39.3414 12.3647L32.0283 16.5743C32.1632 16.8442 32.2982 17.114 32.4061 17.3839H32.3791Z" fill="#232323"/>
<path d="M32.9733 19.2737L40.7992 17.8975C41.015 17.4388 41.3389 17.034 41.7976 16.7371C42.5532 16.2244 42.877 15.4958 42.8501 14.7402L32.7305 18.4102C32.8114 18.6801 32.8924 18.9769 32.9463 19.2737H32.9733Z" fill="#232323"/>
<path d="M30.275 14.1183L37.0483 8.42439C37.1023 8.31645 37.1293 8.2085 37.2103 8.10056C37.8039 6.96718 37.4261 5.83381 36.6436 5.15918L29.6543 13.4976C29.8702 13.6865 30.0861 13.9024 30.275 14.1183Z" fill="#232323"/>
<path d="M40.5282 19.0303L33.1611 20.3256C33.1881 20.6224 33.2151 20.9192 33.2421 21.2161H41.3648C40.7981 20.6224 40.5012 19.8398 40.5282 19.0303Z" fill="#232323"/>
<path d="M28.8169 12.7962L35.6712 4.64666C35.0505 4.48475 34.3759 4.59269 33.7552 5.02445C33.2155 5.40224 32.5948 5.59114 32.0011 5.56415L28.1152 12.2835C28.3581 12.4454 28.601 12.6073 28.8438 12.7962H28.8169Z" fill="#232323"/>
<path d="M22.5293 10.5024C22.8261 10.5024 23.123 10.5564 23.4198 10.5833L25.1469 0.760742C24.931 0.949638 24.7421 1.1925 24.6072 1.46235C24.1484 2.32588 23.3658 2.8386 22.5293 3.00051V10.4754V10.5024Z" fill="#232323"/>
<path d="M26.3337 0.19414L24.4717 10.7723C24.7685 10.8263 25.0384 10.9073 25.3352 10.9882L28.8163 1.40847C28.3306 0.517962 27.3052 0.0592146 26.3337 0.19414Z" fill="#232323"/>
<path d="M32.3788 26.0996C32.2708 26.3695 32.1359 26.6393 32.001 26.9092L40.2586 31.6586C40.2046 31.5506 40.1236 31.4697 40.0427 31.3617C39.3141 30.5522 39.1522 29.5267 39.395 28.6362L32.4058 26.0996H32.3788Z" fill="#232323"/>
<path d="M32.9727 24.2383C32.9188 24.5351 32.8378 24.805 32.7568 25.1018L39.8541 27.6924C40.3128 27.0717 41.0144 26.613 41.878 26.532C42.3637 26.4781 42.7685 26.3161 43.0923 26.0463L32.9727 24.2653V24.2383Z" fill="#232323"/>
<path d="M27.1445 11.7434L30.8685 5.29397C30.1129 4.97015 29.4923 4.29552 29.2224 3.45898L26.335 11.3656C26.6048 11.4736 26.8747 11.6085 27.1445 11.7434Z" fill="#232323"/>
<path d="M33.1611 23.1594L43.8204 25.0484C44.1982 24.1309 43.9823 22.9705 43.1458 22.2959H33.2421C33.2421 22.5927 33.1881 22.8896 33.1611 23.1864V23.1594Z" fill="#232323"/>
<path d="M31.461 27.8262C31.299 28.069 31.1371 28.3119 30.9482 28.5548L38.936 35.2471C39.8805 34.9503 40.5551 34.0867 40.636 33.1153L31.461 27.8262Z" fill="#232323"/>
<path d="M20.5865 10.5827C20.8833 10.5557 21.1801 10.5288 21.477 10.5018V3.02688C20.6404 2.86497 19.8578 2.35225 19.3991 1.48873C19.2642 1.19189 19.0753 0.976006 18.8594 0.787109L20.5865 10.6097V10.5827Z" fill="#232323"/>
<path d="M27.1445 31.7402C26.8747 31.8752 26.6048 32.0101 26.335 32.118L29.5732 40.9961C30.4907 41.8327 31.7321 41.7787 32.5686 41.1581L27.1445 31.7402Z" fill="#232323"/>
<path d="M30.275 29.3916C30.0861 29.6075 29.8702 29.8234 29.6543 30.0123L34.4307 35.7061C35.1324 35.1125 36.0769 34.8156 37.0753 35.0855L30.302 29.3916H30.275Z" fill="#232323"/>
<path d="M25.3352 32.4951C25.0653 32.5761 24.7685 32.657 24.4717 32.711L25.767 40.1319C26.4416 39.7811 27.2512 39.6732 28.0068 39.916L25.3082 32.4951H25.3352Z" fill="#232323"/>
<path d="M28.8165 30.7148C28.5736 30.9037 28.3308 31.0656 28.0879 31.2276L33.3231 40.3216C33.566 39.8628 33.6469 39.2961 33.485 38.6755C33.2961 37.9199 33.4041 37.1913 33.7279 36.5976L28.8165 30.7418V30.7148Z" fill="#232323"/>
<path d="M18.6706 10.9882C18.9405 10.9073 19.2373 10.8263 19.5341 10.7723L17.6721 0.19414C16.7006 0.0592146 15.6752 0.517962 15.1895 1.40847L18.6706 10.9882Z" fill="#232323"/>
<path d="M16.8353 11.7434C17.1052 11.6085 17.375 11.4736 17.6449 11.3656L14.7575 3.45898C14.5146 4.32251 13.8939 4.97015 13.1113 5.29397L16.8353 11.7434Z" fill="#232323"/>
<path d="M14.3527 13.4712L7.36347 5.13281C6.58089 5.80744 6.2031 6.94082 6.79678 8.07419C6.85075 8.18214 6.90472 8.29008 6.95869 8.39802L13.7321 14.0919C13.921 13.876 14.1369 13.6601 14.3527 13.4712Z" fill="#232323"/>
<path d="M15.1887 12.7954C15.4315 12.6065 15.6744 12.4446 15.9173 12.2827L12.0314 5.56338C11.4377 5.56338 10.817 5.40147 10.2773 5.02367C9.65663 4.56493 8.95501 4.48397 8.36133 4.64588L15.2157 12.7954H15.1887Z" fill="#232323"/>
<path d="M12.5441 15.6558C12.706 15.4129 12.8679 15.1701 13.0568 14.9272L7.11997 9.96191C6.98504 10.7175 6.55329 11.3921 5.93262 11.8509L12.5171 15.6558H12.5441Z" fill="#232323"/>
<path d="M23.4198 32.9004C23.123 32.9274 22.8261 32.9544 22.5293 32.9814V43.8294C23.3389 43.6405 24.0675 43.0468 24.3103 42.0484C24.4183 41.6166 24.5802 41.2658 24.8231 40.942L23.3928 32.9004H23.4198Z" fill="#232323"/>
<path d="M18.6693 32.4951L15.9707 39.916C16.7263 39.6732 17.5359 39.7811 18.2105 40.1319L19.5058 32.711C19.209 32.657 18.9391 32.5761 18.6423 32.4951H18.6693Z" fill="#232323"/>
<path d="M11.6263 17.3839C11.7343 17.114 11.8692 16.8442 12.0041 16.5743L4.69103 12.3647C4.42117 12.4186 4.15132 12.4186 3.85448 12.3647C2.72109 12.2027 1.83056 12.8234 1.42578 13.6599L11.6533 17.3839H11.6263Z" fill="#232323"/>
<path d="M21.4497 32.9814C21.1528 32.9814 20.856 32.9274 20.5592 32.9004L19.1289 40.942C19.3718 41.2658 19.5607 41.6166 19.6416 42.0484C19.8845 43.0468 20.6131 43.6405 21.4227 43.8294V32.9814H21.4497Z" fill="#232323"/>
<path d="M2.6416 21.2161H10.7642C10.7642 20.9192 10.8182 20.6224 10.8452 20.3256L3.47815 19.0303C3.50513 19.8128 3.2083 20.6224 2.6416 21.2161Z" fill="#232323"/>
<path d="M11.2485 18.4102L1.12891 14.7402C1.12891 15.4688 1.42574 16.2244 2.18133 16.7371C2.64009 17.061 2.96392 17.4657 3.1798 17.8975L11.0056 19.2737C11.0596 18.9769 11.1405 18.7071 11.2215 18.4102H11.2485Z" fill="#232323"/>
<path d="M13.7314 29.3916L6.95801 35.0855C7.92949 34.8426 8.90097 35.0855 9.60259 35.7061L14.379 30.0123C14.1632 29.8234 13.9473 29.6075 13.7584 29.3916H13.7314Z" fill="#232323"/>
<path d="M12.5442 27.8262L3.36914 33.1153C3.4501 34.0867 4.12473 34.9503 5.06923 35.2471L13.0569 28.5548C12.868 28.3119 12.7061 28.069 12.5442 27.8262Z" fill="#232323"/>
<path d="M16.8352 31.7402L11.4111 41.1581C12.2747 41.7787 13.516 41.8327 14.4065 40.9961L17.6448 32.118C17.3749 32.0101 17.1051 31.8752 16.8352 31.7402Z" fill="#232323"/>
<path d="M15.1887 30.7145L10.2773 36.5703C10.6012 37.1639 10.7091 37.8925 10.5202 38.6481C10.3583 39.2688 10.4393 39.8355 10.6821 40.2942L15.9173 31.2002C15.6745 31.0383 15.4316 30.8764 15.1887 30.6875V30.7145Z" fill="#232323"/>
<path d="M10.7634 22.2955H0.859719C-0.00381875 22.9702 -0.192718 24.1305 0.18508 25.048L10.8444 23.1591C10.8174 22.8622 10.7904 22.5654 10.7634 22.2686V22.2955Z" fill="#232323"/>
<path d="M12.005 26.9092C11.8701 26.6393 11.7351 26.3695 11.6272 26.0996L4.63796 28.6362C4.88083 29.5267 4.71891 30.5522 3.9903 31.3617C3.90934 31.4427 3.82839 31.5506 3.77441 31.6586L12.032 26.9092H12.005Z" fill="#232323"/>
<path d="M11.0327 24.2369L0.913086 26.018C1.23691 26.2608 1.6417 26.4497 2.12744 26.5037C3.01796 26.6116 3.71958 27.0434 4.15135 27.6641L11.2486 25.0735C11.1676 24.8036 11.0866 24.5068 11.0327 24.21V24.2369Z" fill="#232323"/>
</g>
</g>
<defs>
<clipPath id="clip0_174_2">
<rect width="44" height="44" fill="white"/>
</clipPath>
<clipPath id="clip1_174_2">
<rect width="44" height="44" fill="white"/>
</clipPath>
</defs>
</svg>
