<svg width="18" height="18" viewBox="0 0 18 18" fill="none" xmlns="http://www.w3.org/2000/svg">
<g clip-path="url(#clip0_148_24)">
<g clip-path="url(#clip1_148_24)">
<path d="M9 18C13.9706 18 18 13.9706 18 9C18 4.02944 13.9706 0 9 0C4.02944 0 0 4.02944 0 9C0 13.9706 4.02944 18 9 18Z" fill="white"/>
<path d="M13.1065 3.95898H14.7859L11.29 7.58364C10.0243 8.89597 7.97223 8.89597 6.70921 7.58364L3.21332 3.95898H4.89278L7.54757 6.71241C8.35031 7.54255 9.64894 7.54255 10.4489 6.71241L13.1065 3.95898ZM4.87086 14.0412H3.19141L6.70921 10.3919C7.97497 9.07953 10.027 9.07953 11.2928 10.3919L14.8106 14.0412H13.1311L10.4544 11.2631C9.65168 10.433 8.35305 10.433 7.55305 11.2631L4.87086 14.0412Z" fill="#0D0D0D"/>
</g>
</g>
<defs>
<clipPath id="clip0_148_24">
<rect width="18" height="18" fill="white"/>
</clipPath>
<clipPath id="clip1_148_24">
<rect width="18" height="18" fill="white"/>
</clipPath>
</defs>
</svg>
