<svg width="618" height="66" viewBox="0 0 618 66" fill="none" xmlns="http://www.w3.org/2000/svg">
<path d="M16 8.5H102.5V39.5H16C11.8579 39.5 8.5 36.1421 8.5 32V16C8.5 11.8579 11.8579 8.5 16 8.5Z" fill="#474747"/>
<path d="M16 8.5H102.5V39.5H16C11.8579 39.5 8.5 36.1421 8.5 32V16C8.5 11.8579 11.8579 8.5 16 8.5Z" stroke="white"/>
<path d="M49.49 24.39C49.49 22.15 50.65 20.63 52.47 20.63C54.28 20.63 55.44 22.15 55.44 24.39C55.44 26.64 54.33 28.13 52.47 28.13C50.6 28.13 49.49 26.64 49.49 24.39ZM50.46 24.39C50.46 26.17 51.2 27.25 52.47 27.25C53.74 27.25 54.47 26.17 54.47 24.39C54.47 22.59 53.74 21.51 52.47 21.51C51.2 21.51 50.46 22.59 50.46 24.39ZM58.435 24.26H57.715V23.61L59.765 21.64H56.515V20.77H61.005V21.56L59.025 23.45C60.255 23.6 61.185 24.43 61.185 25.73C61.185 27.19 60.085 28.12 58.615 28.12C57.195 28.12 56.175 27.25 56.175 25.75H57.145C57.145 26.69 57.725 27.24 58.635 27.24C59.575 27.24 60.185 26.64 60.185 25.71C60.185 24.84 59.585 24.26 58.435 24.26Z" fill="white"/>
<path d="M55.37 48.65H53.85V47.77H56.31V55H55.37V48.65Z" fill="white"/>
<path d="M602 8.5C606.142 8.5 609.5 11.8579 609.5 16V32C609.5 36.1421 606.142 39.5 602 39.5H102.5V8.5H602Z" fill="#121212"/>
<path d="M602 8.5C606.142 8.5 609.5 11.8579 609.5 16V32C609.5 36.1421 606.142 39.5 602 39.5H102.5V8.5H602Z" stroke="white"/>
<path d="M340.61 28.12C339.56 28.12 338.94 27.53 338.94 26.64C338.94 25.74 339.61 25.18 340.76 25.09L342.3 24.97V24.83C342.3 24.01 341.81 23.72 341.15 23.72C340.36 23.72 339.91 24.07 339.91 24.66H339.09C339.09 23.64 339.93 22.97 341.19 22.97C342.4 22.97 343.22 23.61 343.22 24.93V28H342.42L342.32 27.21C342.07 27.77 341.4 28.12 340.61 28.12ZM340.88 27.39C341.77 27.39 342.31 26.81 342.31 25.89V25.63L341.06 25.73C340.23 25.81 339.89 26.13 339.89 26.61C339.89 27.13 340.27 27.39 340.88 27.39ZM345.462 28H344.522V23.11H345.362L345.452 23.75C345.702 23.29 346.222 22.97 346.912 22.97C347.672 22.97 348.212 23.35 348.462 23.96C348.692 23.35 349.282 22.97 350.042 22.97C351.162 22.97 351.842 23.67 351.842 24.8V28H350.922V25.03C350.922 24.26 350.492 23.82 349.832 23.82C349.122 23.82 348.652 24.32 348.652 25.1V28H347.722V25.02C347.722 24.25 347.302 23.83 346.642 23.83C345.932 23.83 345.462 24.32 345.462 25.1V28ZM352.825 25.55C352.825 24.04 353.905 22.98 355.375 22.98C356.835 22.98 357.915 24.04 357.915 25.55C357.915 27.06 356.835 28.12 355.375 28.12C353.905 28.12 352.825 27.06 352.825 25.55ZM353.775 25.55C353.775 26.57 354.425 27.28 355.375 27.28C356.315 27.28 356.975 26.57 356.975 25.55C356.975 24.53 356.315 23.82 355.375 23.82C354.425 23.82 353.775 24.53 353.775 25.55ZM362.218 23.11H363.148V28H362.308L362.208 27.26C361.928 27.77 361.278 28.12 360.558 28.12C359.418 28.12 358.778 27.35 358.778 26.15V23.11H359.718V25.84C359.718 26.89 360.168 27.29 360.888 27.29C361.748 27.29 362.218 26.74 362.218 25.69V23.11ZM365.452 28H364.512V23.11H365.362L365.462 23.86C365.772 23.3 366.392 22.97 367.082 22.97C368.372 22.97 368.962 23.76 368.962 25.01V28H368.022V25.22C368.022 24.23 367.562 23.83 366.842 23.83C365.962 23.83 365.452 24.46 365.452 25.41V28ZM371.644 28H370.704V23.9H369.744V23.11H370.704V21.58H371.644V23.11H372.604V23.9H371.644V28Z" fill="white"/>
<path d="M353.56 51.26H352.84V50.61L354.89 48.64H351.64V47.77H356.13V48.56L354.15 50.45C355.38 50.6 356.31 51.43 356.31 52.73C356.31 54.19 355.21 55.12 353.74 55.12C352.32 55.12 351.3 54.25 351.3 52.75H352.27C352.27 53.69 352.85 54.24 353.76 54.24C354.7 54.24 355.31 53.64 355.31 52.71C355.31 51.84 354.71 51.26 353.56 51.26ZM358.456 48.65H356.936V47.77H359.396V55H358.456V48.65Z" fill="white"/>
</svg>
