<svg width="618" height="66" viewBox="0 0 618 66" fill="none" xmlns="http://www.w3.org/2000/svg">
<path d="M16 8.5H102.5V39.5H16C11.8579 39.5 8.5 36.1421 8.5 32V16C8.5 11.8579 11.8579 8.5 16 8.5Z" fill="#E5E5E5"/>
<path d="M16 8.5H102.5V39.5H16C11.8579 39.5 8.5 36.1421 8.5 32V16C8.5 11.8579 11.8579 8.5 16 8.5Z" stroke="#121212"/>
<path d="M48.99 24.39C48.99 22.15 50.15 20.63 51.97 20.63C53.78 20.63 54.94 22.15 54.94 24.39C54.94 26.64 53.83 28.13 51.97 28.13C50.1 28.13 48.99 26.64 48.99 24.39ZM49.96 24.39C49.96 26.17 50.7 27.25 51.97 27.25C53.24 27.25 53.97 26.17 53.97 24.39C53.97 22.59 53.24 21.51 51.97 21.51C50.7 21.51 49.96 22.59 49.96 24.39ZM56.8436 23.06L58.5336 20.77H59.6736L57.8636 23.17C58.1136 23.07 58.3736 23.02 58.6236 23.02C60.1236 23.02 61.1336 24.1 61.1336 25.53C61.1336 27.04 59.9936 28.12 58.5036 28.12C57.0036 28.12 55.8436 26.99 55.8436 25.53C55.8436 24.67 56.1036 24.07 56.8436 23.06ZM56.8436 25.54C56.8436 26.53 57.5236 27.24 58.5036 27.24C59.4636 27.24 60.1436 26.53 60.1436 25.54C60.1436 24.55 59.4636 23.85 58.5036 23.85C57.5236 23.85 56.8436 24.55 56.8436 25.54Z" fill="#121212"/>
<path d="M55.37 48.65H53.85V47.77H56.31V55H55.37V48.65Z" fill="#121212"/>
<path d="M602 8.5C606.142 8.5 609.5 11.8579 609.5 16V32C609.5 36.1421 606.142 39.5 602 39.5H102.5V8.5H602Z" fill="white"/>
<path d="M602 8.5C606.142 8.5 609.5 11.8579 609.5 16V32C609.5 36.1421 606.142 39.5 602 39.5H102.5V8.5H602Z" stroke="#121212"/>
<path d="M344.47 28.12C343.17 28.12 342.32 27.26 342.32 25.94C342.32 24.27 343.48 22.98 344.99 22.98C346.38 22.98 347.19 23.98 346.97 25.38L346.92 25.72L343.2 25.73C343.2 25.78 343.2 25.83 343.2 25.89C343.2 26.8 343.69 27.36 344.5 27.36C345.14 27.36 345.68 27.04 345.9 26.49H346.8C346.47 27.49 345.54 28.12 344.47 28.12ZM344.95 23.74C344.18 23.74 343.55 24.3 343.31 25.12H346.11C346.24 24.29 345.76 23.74 344.95 23.74ZM348.493 28H347.593L348.373 23.11H349.173L349.153 23.77C349.483 23.28 350.043 22.98 350.673 22.98C351.393 22.98 351.883 23.35 352.033 23.98C352.353 23.37 352.983 22.98 353.723 22.98C354.773 22.98 355.413 23.75 355.253 24.81L354.753 28H353.863L354.323 25.02C354.443 24.26 354.113 23.79 353.423 23.79C352.733 23.79 352.213 24.29 352.083 25.09L351.623 28H350.723L351.203 25.01C351.323 24.28 350.973 23.79 350.303 23.79C349.603 23.79 349.083 24.29 348.953 25.08L348.493 28ZM355.71 30.19L356.83 23.11H357.65L357.58 23.97C358 23.32 358.59 22.98 359.36 22.98C360.51 22.98 361.32 23.87 361.32 25.15C361.32 26.87 360.21 28.12 358.74 28.12C357.95 28.12 357.31 27.73 357.08 27.1L356.6 30.19H355.71ZM357.31 25.93C357.31 26.8 357.79 27.32 358.62 27.32C359.63 27.32 360.42 26.4 360.42 25.2C360.42 24.34 359.92 23.78 359.13 23.78C358.11 23.78 357.31 24.72 357.31 25.93ZM363.21 28H362.32L362.97 23.87H362.03L362.15 23.11H363.09L363.33 21.58H364.23L363.99 23.11H364.93L364.81 23.87H363.87L363.21 28ZM364.175 30.18L364.295 29.43H364.895C365.285 29.43 365.665 29.34 365.975 28.74L366.265 28.19L365.155 23.11H366.065L366.845 27.06L368.885 23.11H369.865L366.655 29.1C366.265 29.83 365.765 30.27 364.945 30.27C364.635 30.27 364.395 30.24 364.175 30.18Z" fill="#121212"/>
<path d="M353.56 51.26H352.84V50.61L354.89 48.64H351.64V47.77H356.13V48.56L354.15 50.45C355.38 50.6 356.31 51.43 356.31 52.73C356.31 54.19 355.21 55.12 353.74 55.12C352.32 55.12 351.3 54.25 351.3 52.75H352.27C352.27 53.69 352.85 54.24 353.76 54.24C354.7 54.24 355.31 53.64 355.31 52.71C355.31 51.84 354.71 51.26 353.56 51.26ZM358.456 48.65H356.936V47.77H359.396V55H358.456V48.65Z" fill="#121212"/>
</svg>
