<svg width="618" height="66" viewBox="0 0 618 66" fill="none" xmlns="http://www.w3.org/2000/svg">
<path d="M16 8.5H102.5V39.5H16C11.8579 39.5 8.5 36.1421 8.5 32V16C8.5 11.8579 11.8579 8.5 16 8.5Z" fill="#E5E5E5"/>
<path d="M16 8.5H102.5V39.5H16C11.8579 39.5 8.5 36.1421 8.5 32V16C8.5 11.8579 11.8579 8.5 16 8.5Z" stroke="#121212"/>
<path d="M53.7 25.71L52.01 28H50.87L52.68 25.6C52.43 25.7 52.17 25.75 51.92 25.75C50.42 25.75 49.41 24.67 49.41 23.23C49.41 21.73 50.55 20.64 52.04 20.64C53.54 20.64 54.7 21.77 54.7 23.24C54.7 24.09 54.44 24.7 53.7 25.71ZM53.7 23.23C53.7 22.24 53.02 21.52 52.04 21.52C51.08 21.52 50.4 22.24 50.4 23.23C50.4 24.22 51.08 24.92 52.04 24.92C53.02 24.92 53.7 24.22 53.7 23.23ZM59.8133 25.71L58.1233 28H56.9833L58.7933 25.6C58.5433 25.7 58.2833 25.75 58.0333 25.75C56.5333 25.75 55.5233 24.67 55.5233 23.23C55.5233 21.73 56.6633 20.64 58.1533 20.64C59.6533 20.64 60.8133 21.77 60.8133 23.24C60.8133 24.09 60.5533 24.7 59.8133 25.71ZM59.8133 23.23C59.8133 22.24 59.1333 21.52 58.1533 21.52C57.1933 21.52 56.5133 22.24 56.5133 23.23C56.5133 24.22 57.1933 24.92 58.1533 24.92C59.1333 24.92 59.8133 24.22 59.8133 23.23Z" fill="#121212"/>
<path d="M55.37 48.65H53.85V47.77H56.31V55H55.37V48.65Z" fill="#121212"/>
<path d="M602 8.5C606.142 8.5 609.5 11.8579 609.5 16V32C609.5 36.1421 606.142 39.5 602 39.5H102.5V8.5H602Z" fill="white"/>
<path d="M602 8.5C606.142 8.5 609.5 11.8579 609.5 16V32C609.5 36.1421 606.142 39.5 602 39.5H102.5V8.5H602Z" stroke="#121212"/>
<path d="M336.36 25.56C336.36 24.03 337.33 22.97 338.76 22.97C339.99 22.97 340.85 23.67 341.02 24.76H340.08C339.92 24.14 339.42 23.81 338.79 23.81C337.9 23.81 337.29 24.49 337.29 25.55C337.29 26.6 337.86 27.28 338.75 27.28C339.42 27.28 339.92 26.93 340.09 26.35H341.03C340.84 27.41 339.93 28.12 338.75 28.12C337.31 28.12 336.36 27.1 336.36 25.56ZM343.452 28.12C342.402 28.12 341.782 27.53 341.782 26.64C341.782 25.74 342.452 25.18 343.602 25.09L345.142 24.97V24.83C345.142 24.01 344.652 23.72 343.992 23.72C343.202 23.72 342.752 24.07 342.752 24.66H341.932C341.932 23.64 342.772 22.97 344.032 22.97C345.242 22.97 346.062 23.61 346.062 24.93V28H345.262L345.162 27.21C344.912 27.77 344.242 28.12 343.452 28.12ZM343.722 27.39C344.612 27.39 345.152 26.81 345.152 25.89V25.63L343.902 25.73C343.072 25.81 342.732 26.13 342.732 26.61C342.732 27.13 343.112 27.39 343.722 27.39ZM348.324 28H347.384V20.64H348.324V28ZM350.667 28H349.727V20.64H350.667V28ZM355.725 27.99H354.785V20.64H355.725V23.86C356.035 23.33 356.625 22.97 357.385 22.97C358.635 22.97 359.235 23.76 359.235 25.01V28H358.295V25.22C358.295 24.23 357.825 23.83 357.125 23.83C356.215 23.83 355.725 24.49 355.725 25.33V27.99ZM361.967 28.12C360.917 28.12 360.297 27.53 360.297 26.64C360.297 25.74 360.967 25.18 362.117 25.09L363.657 24.97V24.83C363.657 24.01 363.167 23.72 362.507 23.72C361.717 23.72 361.267 24.07 361.267 24.66H360.447C360.447 23.64 361.287 22.97 362.547 22.97C363.757 22.97 364.577 23.61 364.577 24.93V28H363.777L363.677 27.21C363.427 27.77 362.757 28.12 361.967 28.12ZM362.237 27.39C363.127 27.39 363.667 26.81 363.667 25.89V25.63L362.417 25.73C361.587 25.81 361.247 26.13 361.247 26.61C361.247 27.13 361.627 27.39 362.237 27.39ZM365.479 26.58H366.379C366.379 27.08 366.759 27.38 367.379 27.38C368.039 27.38 368.419 27.11 368.419 26.66C368.419 26.33 368.259 26.13 367.749 26L366.889 25.8C366.019 25.59 365.609 25.16 365.609 24.44C365.609 23.54 366.369 22.97 367.449 22.97C368.519 22.97 369.219 23.57 369.239 24.5H368.339C368.319 24.01 367.989 23.7 367.419 23.7C366.829 23.7 366.499 23.96 366.499 24.41C366.499 24.74 366.739 24.96 367.219 25.08L368.079 25.29C368.909 25.49 369.319 25.87 369.319 26.6C369.319 27.53 368.519 28.12 367.359 28.12C366.209 28.12 365.479 27.51 365.479 26.58ZM371.302 27.99H370.362V20.64H371.302V23.86C371.612 23.33 372.202 22.97 372.962 22.97C374.212 22.97 374.812 23.76 374.812 25.01V28H373.872V25.22C373.872 24.23 373.402 23.83 372.702 23.83C371.792 23.83 371.302 24.49 371.302 25.33V27.99Z" fill="#121212"/>
<path d="M353.56 51.26H352.84V50.61L354.89 48.64H351.64V47.77H356.13V48.56L354.15 50.45C355.38 50.6 356.31 51.43 356.31 52.73C356.31 54.19 355.21 55.12 353.74 55.12C352.32 55.12 351.3 54.25 351.3 52.75H352.27C352.27 53.69 352.85 54.24 353.76 54.24C354.7 54.24 355.31 53.64 355.31 52.71C355.31 51.84 354.71 51.26 353.56 51.26ZM358.456 48.65H356.936V47.77H359.396V55H358.456V48.65Z" fill="#121212"/>
</svg>
