<svg width="618" height="66" viewBox="0 0 618 66" fill="none" xmlns="http://www.w3.org/2000/svg">
<path d="M16 8.5H102.5V39.5H16C11.8579 39.5 8.5 36.1421 8.5 32V16C8.5 11.8579 11.8579 8.5 16 8.5Z" fill="#E5E5E5"/>
<path d="M16 8.5H102.5V39.5H16C11.8579 39.5 8.5 36.1421 8.5 32V16C8.5 11.8579 11.8579 8.5 16 8.5Z" stroke="#121212"/>
<path d="M48.99 24.39C48.99 22.15 50.15 20.63 51.97 20.63C53.78 20.63 54.94 22.15 54.94 24.39C54.94 26.64 53.83 28.13 51.97 28.13C50.1 28.13 48.99 26.64 48.99 24.39ZM49.96 24.39C49.96 26.17 50.7 27.25 51.97 27.25C53.24 27.25 53.97 26.17 53.97 24.39C53.97 22.59 53.24 21.51 51.97 21.51C50.7 21.51 49.96 22.59 49.96 24.39ZM61.3136 26.54H60.4536V28H59.5136V26.54H55.7736V25.67L59.1836 20.77H60.4536V25.67H61.3136V26.54ZM56.8336 25.67H59.5136V21.81L56.8336 25.67Z" fill="#121212"/>
<path d="M55.37 48.65H53.85V47.77H56.31V55H55.37V48.65Z" fill="#121212"/>
<path d="M277.5 8.5V39.5H102.5V8.5H277.5Z" fill="white"/>
<path d="M277.5 8.5V39.5H102.5V8.5H277.5Z" stroke="#121212"/>
<path d="M183.64 28H182.7V20.64H183.64V28ZM184.704 25.55C184.704 24.04 185.784 22.98 187.254 22.98C188.714 22.98 189.794 24.04 189.794 25.55C189.794 27.06 188.714 28.12 187.254 28.12C185.784 28.12 184.704 27.06 184.704 25.55ZM185.654 25.55C185.654 26.57 186.304 27.28 187.254 27.28C188.194 27.28 188.854 26.57 188.854 25.55C188.854 24.53 188.194 23.82 187.254 23.82C186.304 23.82 185.654 24.53 185.654 25.55ZM192.165 28H191.225V23.9H190.265V23.11H191.225V21.58H192.165V23.11H193.125V23.9H192.165V28ZM193.569 26.58H194.469C194.469 27.08 194.849 27.38 195.469 27.38C196.129 27.38 196.509 27.11 196.509 26.66C196.509 26.33 196.349 26.13 195.839 26L194.979 25.8C194.109 25.59 193.699 25.16 193.699 24.44C193.699 23.54 194.459 22.97 195.539 22.97C196.609 22.97 197.309 23.57 197.329 24.5H196.429C196.409 24.01 196.079 23.7 195.509 23.7C194.919 23.7 194.589 23.96 194.589 24.41C194.589 24.74 194.829 24.96 195.309 25.08L196.169 25.29C196.999 25.49 197.409 25.87 197.409 26.6C197.409 27.53 196.609 28.12 195.449 28.12C194.299 28.12 193.569 27.51 193.569 26.58Z" fill="#121212"/>
<path d="M187.87 48.65H186.35V47.77H188.81V55H187.87V48.65ZM191.425 48.65H189.905V47.77H192.365V55H191.425V48.65Z" fill="#121212"/>
<path d="M602 8.5C606.142 8.5 609.5 11.8579 609.5 16V32C609.5 36.1421 606.142 39.5 602 39.5H277.5V8.5H602Z" fill="#E5E5E5"/>
<path d="M602 8.5C606.142 8.5 609.5 11.8579 609.5 16V32C609.5 36.1421 606.142 39.5 602 39.5H277.5V8.5H602Z" stroke="#121212"/>
<path d="M431.97 28.12C430.67 28.12 429.82 27.26 429.82 25.94C429.82 24.27 430.98 22.98 432.49 22.98C433.88 22.98 434.69 23.98 434.47 25.38L434.42 25.72L430.7 25.73C430.7 25.78 430.7 25.83 430.7 25.89C430.7 26.8 431.19 27.36 432 27.36C432.64 27.36 433.18 27.04 433.4 26.49H434.3C433.97 27.49 433.04 28.12 431.97 28.12ZM432.45 23.74C431.68 23.74 431.05 24.3 430.81 25.12H433.61C433.74 24.29 433.26 23.74 432.45 23.74ZM435.993 28H435.093L435.873 23.11H436.673L436.653 23.77C436.983 23.28 437.543 22.98 438.173 22.98C438.893 22.98 439.383 23.35 439.533 23.98C439.853 23.37 440.483 22.98 441.223 22.98C442.273 22.98 442.913 23.75 442.753 24.81L442.253 28H441.363L441.823 25.02C441.943 24.26 441.613 23.79 440.923 23.79C440.233 23.79 439.713 24.29 439.583 25.09L439.123 28H438.223L438.703 25.01C438.823 24.28 438.473 23.79 437.803 23.79C437.103 23.79 436.583 24.29 436.453 25.08L435.993 28ZM443.21 30.19L444.33 23.11H445.15L445.08 23.97C445.5 23.32 446.09 22.98 446.86 22.98C448.01 22.98 448.82 23.87 448.82 25.15C448.82 26.87 447.71 28.12 446.24 28.12C445.45 28.12 444.81 27.73 444.58 27.1L444.1 30.19H443.21ZM444.81 25.93C444.81 26.8 445.29 27.32 446.12 27.32C447.13 27.32 447.92 26.4 447.92 25.2C447.92 24.34 447.42 23.78 446.63 23.78C445.61 23.78 444.81 24.72 444.81 25.93ZM450.71 28H449.82L450.47 23.87H449.53L449.65 23.11H450.59L450.83 21.58H451.73L451.49 23.11H452.43L452.31 23.87H451.37L450.71 28ZM451.675 30.18L451.795 29.43H452.395C452.785 29.43 453.165 29.34 453.475 28.74L453.765 28.19L452.655 23.11H453.565L454.345 27.06L456.385 23.11H457.365L454.155 29.1C453.765 29.83 453.265 30.27 452.445 30.27C452.135 30.27 451.895 30.24 451.675 30.18Z" fill="#121212"/>
<path d="M442.34 54.99L437.46 55V54.25L439.79 52.24C440.96 51.23 441.29 50.74 441.29 49.97C441.29 49.06 440.77 48.52 439.9 48.52C439.01 48.52 438.43 49.17 438.41 50.2H437.43C437.46 48.65 438.44 47.64 439.91 47.64C441.36 47.64 442.29 48.52 442.29 49.91C442.29 50.94 441.78 51.67 440.5 52.78L439 54.08H442.34V54.99ZM443.242 51.39C443.242 49.15 444.402 47.63 446.222 47.63C448.032 47.63 449.192 49.15 449.192 51.39C449.192 53.64 448.082 55.13 446.222 55.13C444.352 55.13 443.242 53.64 443.242 51.39ZM444.212 51.39C444.212 53.17 444.952 54.25 446.222 54.25C447.492 54.25 448.222 53.17 448.222 51.39C448.222 49.59 447.492 48.51 446.222 48.51C444.952 48.51 444.212 49.59 444.212 51.39Z" fill="#121212"/>
</svg>
