<svg width="618" height="66" viewBox="0 0 618 66" fill="none" xmlns="http://www.w3.org/2000/svg">
<path d="M16 8.5H102.5V39.5H16C11.8579 39.5 8.5 36.1421 8.5 32V16C8.5 11.8579 11.8579 8.5 16 8.5Z" fill="#474747"/>
<path d="M16 8.5H102.5V39.5H16C11.8579 39.5 8.5 36.1421 8.5 32V16C8.5 11.8579 11.8579 8.5 16 8.5Z" stroke="white"/>
<path d="M49.49 24.39C49.49 22.15 50.65 20.63 52.47 20.63C54.28 20.63 55.44 22.15 55.44 24.39C55.44 26.64 54.33 28.13 52.47 28.13C50.6 28.13 49.49 26.64 49.49 24.39ZM50.46 24.39C50.46 26.17 51.2 27.25 52.47 27.25C53.74 27.25 54.47 26.17 54.47 24.39C54.47 22.59 53.74 21.51 52.47 21.51C51.2 21.51 50.46 22.59 50.46 24.39ZM58.8536 28.12C57.3736 28.12 56.4136 27.18 56.4136 25.74H57.3836C57.3836 26.67 57.9536 27.24 58.8736 27.24C59.8536 27.24 60.4836 26.59 60.4836 25.61C60.4836 24.68 59.8936 23.99 58.8836 23.99C58.2736 23.99 57.7136 24.28 57.3836 24.69L56.5536 24.48L57.4336 20.77H61.0536V21.67H58.1436L57.6636 23.59C58.0436 23.3 58.5236 23.15 59.0636 23.15C60.5336 23.15 61.4836 24.18 61.4836 25.57C61.4836 27.07 60.4136 28.12 58.8536 28.12Z" fill="white"/>
<path d="M55.37 48.65H53.85V47.77H56.31V55H55.37V48.65Z" fill="white"/>
<path d="M277.5 8.5V39.5H102.5V8.5H277.5Z" fill="#121212"/>
<path d="M277.5 8.5V39.5H102.5V8.5H277.5Z" stroke="white"/>
<path d="M183.64 28H182.7V20.64H183.64V28ZM184.704 25.55C184.704 24.04 185.784 22.98 187.254 22.98C188.714 22.98 189.794 24.04 189.794 25.55C189.794 27.06 188.714 28.12 187.254 28.12C185.784 28.12 184.704 27.06 184.704 25.55ZM185.654 25.55C185.654 26.57 186.304 27.28 187.254 27.28C188.194 27.28 188.854 26.57 188.854 25.55C188.854 24.53 188.194 23.82 187.254 23.82C186.304 23.82 185.654 24.53 185.654 25.55ZM192.165 28H191.225V23.9H190.265V23.11H191.225V21.58H192.165V23.11H193.125V23.9H192.165V28ZM193.569 26.58H194.469C194.469 27.08 194.849 27.38 195.469 27.38C196.129 27.38 196.509 27.11 196.509 26.66C196.509 26.33 196.349 26.13 195.839 26L194.979 25.8C194.109 25.59 193.699 25.16 193.699 24.44C193.699 23.54 194.459 22.97 195.539 22.97C196.609 22.97 197.309 23.57 197.329 24.5H196.429C196.409 24.01 196.079 23.7 195.509 23.7C194.919 23.7 194.589 23.96 194.589 24.41C194.589 24.74 194.829 24.96 195.309 25.08L196.169 25.29C196.999 25.49 197.409 25.87 197.409 26.6C197.409 27.53 196.609 28.12 195.449 28.12C194.299 28.12 193.569 27.51 193.569 26.58Z" fill="white"/>
<path d="M187.87 48.65H186.35V47.77H188.81V55H187.87V48.65ZM191.425 48.65H189.905V47.77H192.365V55H191.425V48.65Z" fill="white"/>
<path d="M602 8.5C606.142 8.5 609.5 11.8579 609.5 16V32C609.5 36.1421 606.142 39.5 602 39.5H277.5V8.5H602Z" fill="#474747"/>
<path d="M602 8.5C606.142 8.5 609.5 11.8579 609.5 16V32C609.5 36.1421 606.142 39.5 602 39.5H277.5V8.5H602Z" stroke="white"/>
<path d="M399.11 28.12C398.06 28.12 397.44 27.53 397.44 26.64C397.44 25.74 398.11 25.18 399.26 25.09L400.8 24.97V24.83C400.8 24.01 400.31 23.72 399.65 23.72C398.86 23.72 398.41 24.07 398.41 24.66H397.59C397.59 23.64 398.43 22.97 399.69 22.97C400.9 22.97 401.72 23.61 401.72 24.93V28H400.92L400.82 27.21C400.57 27.77 399.9 28.12 399.11 28.12ZM399.38 27.39C400.27 27.39 400.81 26.81 400.81 25.89V25.63L399.56 25.73C398.73 25.81 398.39 26.13 398.39 26.61C398.39 27.13 398.77 27.39 399.38 27.39ZM402.712 25.43C402.712 24.05 403.602 22.97 405.022 22.97C405.812 22.97 406.422 23.33 406.732 23.94L406.802 23.11H407.642V27.8C407.642 29.34 406.692 30.32 405.192 30.32C403.862 30.32 402.952 29.57 402.772 28.33H403.712C403.832 29.05 404.372 29.47 405.192 29.47C406.112 29.47 406.712 28.87 406.712 27.94V26.96C406.392 27.53 405.752 27.87 404.982 27.87C403.592 27.87 402.712 26.8 402.712 25.43ZM403.652 25.41C403.652 26.33 404.222 27.05 405.142 27.05C406.092 27.05 406.672 26.37 406.672 25.41C406.672 24.47 406.112 23.79 405.152 23.79C404.212 23.79 403.652 24.51 403.652 25.41ZM411.108 28.12C409.668 28.12 408.678 27.08 408.678 25.56C408.678 24.03 409.648 22.97 411.068 22.97C412.458 22.97 413.368 23.93 413.368 25.38V25.73L409.588 25.74C409.658 26.77 410.198 27.34 411.128 27.34C411.858 27.34 412.338 27.04 412.498 26.48H413.378C413.138 27.53 412.318 28.12 411.108 28.12ZM411.068 23.76C410.248 23.76 409.728 24.25 409.608 25.11H412.428C412.428 24.3 411.898 23.76 411.068 23.76ZM415.358 28H414.418V23.11H415.268L415.368 23.86C415.678 23.3 416.298 22.97 416.988 22.97C418.278 22.97 418.868 23.76 418.868 25.01V28H417.928V25.22C417.928 24.23 417.468 23.83 416.748 23.83C415.868 23.83 415.358 24.46 415.358 25.41V28ZM421.55 28H420.61V23.9H419.65V23.11H420.61V21.58H421.55V23.11H422.51V23.9H421.55V28ZM427.138 28L425.538 23.11H426.508L427.318 25.65C427.428 26.01 427.528 26.38 427.618 26.81C427.698 26.38 427.828 25.97 427.938 25.65L428.758 23.11H429.718L430.528 25.65C430.608 25.89 430.768 26.46 430.848 26.81C430.928 26.42 431.018 26.08 431.158 25.65L431.978 23.11H432.958L431.288 28H430.398L429.548 25.38C429.388 24.89 429.288 24.51 429.238 24.24C429.188 24.48 429.098 24.8 428.918 25.39L428.068 28H427.138ZM434.969 28.12C433.919 28.12 433.299 27.53 433.299 26.64C433.299 25.74 433.969 25.18 435.119 25.09L436.659 24.97V24.83C436.659 24.01 436.169 23.72 435.509 23.72C434.719 23.72 434.269 24.07 434.269 24.66H433.449C433.449 23.64 434.289 22.97 435.549 22.97C436.759 22.97 437.579 23.61 437.579 24.93V28H436.779L436.679 27.21C436.429 27.77 435.759 28.12 434.969 28.12ZM435.239 27.39C436.129 27.39 436.669 26.81 436.669 25.89V25.63L435.419 25.73C434.589 25.81 434.249 26.13 434.249 26.61C434.249 27.13 434.629 27.39 435.239 27.39ZM439.841 28H438.901V20.64H439.841V28ZM442.185 28H441.245V20.64H442.185V28ZM445.679 28.12C444.239 28.12 443.249 27.08 443.249 25.56C443.249 24.03 444.219 22.97 445.639 22.97C447.029 22.97 447.939 23.93 447.939 25.38V25.73L444.159 25.74C444.229 26.77 444.769 27.34 445.699 27.34C446.429 27.34 446.909 27.04 447.069 26.48H447.949C447.709 27.53 446.889 28.12 445.679 28.12ZM445.639 23.76C444.819 23.76 444.299 24.25 444.179 25.11H446.999C446.999 24.3 446.469 23.76 445.639 23.76ZM450.32 28H449.38V23.9H448.42V23.11H449.38V21.58H450.32V23.11H451.28V23.9H450.32V28ZM456.288 28.12C455.238 28.12 454.618 27.53 454.618 26.64C454.618 25.74 455.288 25.18 456.438 25.09L457.978 24.97V24.83C457.978 24.01 457.488 23.72 456.828 23.72C456.038 23.72 455.588 24.07 455.588 24.66H454.768C454.768 23.64 455.608 22.97 456.868 22.97C458.078 22.97 458.898 23.61 458.898 24.93V28H458.098L457.998 27.21C457.748 27.77 457.078 28.12 456.288 28.12ZM456.558 27.39C457.448 27.39 457.988 26.81 457.988 25.89V25.63L456.738 25.73C455.908 25.81 455.568 26.13 455.568 26.61C455.568 27.13 455.948 27.39 456.558 27.39ZM462.16 28.12C460.74 28.12 459.88 27.06 459.88 25.57C459.88 24.07 460.75 22.97 462.2 22.97C462.95 22.97 463.58 23.3 463.91 23.9V20.64H464.84V28H464L463.92 27.11C463.6 27.78 462.94 28.12 462.16 28.12ZM462.35 27.27C463.31 27.27 463.9 26.56 463.9 25.54C463.9 24.54 463.31 23.82 462.35 23.82C461.39 23.82 460.83 24.54 460.83 25.54C460.83 26.55 461.39 27.27 462.35 27.27ZM468.156 28.12C466.736 28.12 465.876 27.06 465.876 25.57C465.876 24.07 466.746 22.97 468.196 22.97C468.946 22.97 469.576 23.3 469.906 23.9V20.64H470.836V28H469.996L469.916 27.11C469.596 27.78 468.936 28.12 468.156 28.12ZM468.346 27.27C469.306 27.27 469.896 26.56 469.896 25.54C469.896 24.54 469.306 23.82 468.346 23.82C467.386 23.82 466.826 24.54 466.826 25.54C466.826 26.55 467.386 27.27 468.346 27.27ZM474.992 23.07V23.93H474.572C473.682 23.93 473.132 24.47 473.132 25.41V28H472.192V23.12H473.072L473.132 23.86C473.332 23.35 473.822 23.01 474.492 23.01C474.662 23.01 474.802 23.03 474.992 23.07ZM477.808 28.12C476.368 28.12 475.378 27.08 475.378 25.56C475.378 24.03 476.348 22.97 477.768 22.97C479.158 22.97 480.068 23.93 480.068 25.38V25.73L476.288 25.74C476.358 26.77 476.898 27.34 477.828 27.34C478.558 27.34 479.038 27.04 479.198 26.48H480.078C479.838 27.53 479.018 28.12 477.808 28.12ZM477.768 23.76C476.948 23.76 476.428 24.25 476.308 25.11H479.128C479.128 24.3 478.598 23.76 477.768 23.76ZM480.718 26.58H481.618C481.618 27.08 481.998 27.38 482.618 27.38C483.278 27.38 483.658 27.11 483.658 26.66C483.658 26.33 483.498 26.13 482.988 26L482.128 25.8C481.258 25.59 480.848 25.16 480.848 24.44C480.848 23.54 481.608 22.97 482.688 22.97C483.758 22.97 484.458 23.57 484.478 24.5H483.578C483.558 24.01 483.228 23.7 482.658 23.7C482.068 23.7 481.738 23.96 481.738 24.41C481.738 24.74 481.978 24.96 482.458 25.08L483.318 25.29C484.148 25.49 484.558 25.87 484.558 26.6C484.558 27.53 483.758 28.12 482.598 28.12C481.448 28.12 480.718 27.51 480.718 26.58ZM485.2 26.58H486.1C486.1 27.08 486.48 27.38 487.1 27.38C487.76 27.38 488.14 27.11 488.14 26.66C488.14 26.33 487.98 26.13 487.47 26L486.61 25.8C485.74 25.59 485.33 25.16 485.33 24.44C485.33 23.54 486.09 22.97 487.17 22.97C488.24 22.97 488.94 23.57 488.96 24.5H488.06C488.04 24.01 487.71 23.7 487.14 23.7C486.55 23.7 486.22 23.96 486.22 24.41C486.22 24.74 486.46 24.96 486.94 25.08L487.8 25.29C488.63 25.49 489.04 25.87 489.04 26.6C489.04 27.53 488.24 28.12 487.08 28.12C485.93 28.12 485.2 27.51 485.2 26.58Z" fill="white"/>
<path d="M442.34 54.99L437.46 55V54.25L439.79 52.24C440.96 51.23 441.29 50.74 441.29 49.97C441.29 49.06 440.77 48.52 439.9 48.52C439.01 48.52 438.43 49.17 438.41 50.2H437.43C437.46 48.65 438.44 47.64 439.91 47.64C441.36 47.64 442.29 48.52 442.29 49.91C442.29 50.94 441.78 51.67 440.5 52.78L439 54.08H442.34V54.99ZM443.242 51.39C443.242 49.15 444.402 47.63 446.222 47.63C448.032 47.63 449.192 49.15 449.192 51.39C449.192 53.64 448.082 55.13 446.222 55.13C444.352 55.13 443.242 53.64 443.242 51.39ZM444.212 51.39C444.212 53.17 444.952 54.25 446.222 54.25C447.492 54.25 448.222 53.17 448.222 51.39C448.222 49.59 447.492 48.51 446.222 48.51C444.952 48.51 444.212 49.59 444.212 51.39Z" fill="white"/>
</svg>
