<svg width="48" height="51" viewBox="0 0 48 51" fill="#000000" xmlns="http://www.w3.org/2000/svg">
<path d="M29.3403 11.4549C28.9962 11.4125 28.6456 11.3766 28.2917 11.3603V0.0239283C29.3082 -0.0249917 30.3181 0.00109887 31.3152 0.1022L29.3403 11.4549Z"  />
<path d="M26.9955 0.124634V11.3632C26.6416 11.3795 26.2943 11.4121 25.9469 11.4578L24.0588 0.607311C25.0366 0.388802 26.0144 0.225735 26.9955 0.124634Z"  />
<path d="M24.6866 11.6802L22.8146 0.911316C21.8754 1.1657 20.9426 1.46574 20.0259 1.80818L23.6669 11.9542C24.0014 11.8498 24.3424 11.7618 24.6866 11.6802Z"  />
<path d="M22.456 12.3942C22.1279 12.5344 21.8127 12.6877 21.5007 12.8508L21.504 12.8475L16.1775 3.49729C17.0395 3.05701 17.924 2.64935 18.8246 2.27429L22.456 12.3942Z"  />
<path d="M16.3742 17.5871L16.3751 17.5857L16.3774 17.5871H16.3742Z"  />
<path d="M16.3751 17.5857L5.75342 11.3677C6.59935 10.4676 7.40346 9.72075 8.0564 9.12067L16.9789 16.713C16.7669 16.9931 16.5646 17.2861 16.3751 17.5857Z"  />
<path d="M15.2755 19.6812L15.2739 19.6851L15.2772 19.6818L15.2755 19.6812Z"  />
<path d="M15.2755 19.6812C15.4102 19.3532 15.564 19.0316 15.7242 18.7165L4.86224 12.3569C4.1707 13.1657 3.47915 14.0789 2.84229 15.0931L15.2755 19.6812Z"  />
<path d="M14.8355 20.9091C14.7294 21.2481 14.6426 21.5937 14.5654 21.9424L0.798828 19.4807C1.16551 18.3099 1.63832 17.2304 2.17547 16.2357L14.8355 20.9091Z"  />
<path d="M14.5608 27.9461C14.641 28.2941 14.7276 28.6388 14.8301 28.977L2.28358 33.6078C1.76573 32.5968 1.30255 31.5205 0.929443 30.3823L14.5608 27.9461Z"  />
<path d="M15.2798 30.2048C15.4181 30.5342 15.5693 30.8538 15.7301 31.1702V31.1734L4.77163 37.5885C4.13799 36.7308 3.50756 35.7882 2.91895 34.7674L15.2798 30.2048Z"  />
<path d="M14.2616 25.5978C14.2776 25.9565 14.3098 26.3088 14.3548 26.661L0.578694 29.1233C0.292429 28.0014 0.102659 26.8208 0.0383301 25.5978H14.2616Z"  />
<path d="M24.6888 38.2098C24.3446 38.1315 24.0036 38.0434 23.6691 37.9391L19.3269 50.0321C20.324 50.3843 21.3822 50.6583 22.4951 50.8213L24.6888 38.2098Z"  />
<path d="M22.4651 37.4922L22.4641 37.4917L22.4651 37.4889V37.4922Z"  />
<path d="M22.4641 37.4917L18.1325 49.5558C17.1129 49.109 16.1576 48.584 15.2634 48.0067L21.5098 37.0356C21.8215 37.1985 22.1396 37.3549 22.4641 37.4917Z"  />
<path d="M16.3764 32.3039C16.5694 32.6039 16.7688 32.8942 16.9811 33.1779H16.9779L7.67587 41.0932C7.05831 40.4116 6.32818 39.5864 5.56909 38.6309L16.3764 32.3039Z"  />
<path d="M20.3933 36.3869L20.392 36.3861L20.3933 36.3837V36.3869Z"  />
<path d="M20.392 36.3861L14.192 47.2765C13.2946 46.6243 12.4615 45.9328 11.6992 45.2382L19.5313 35.7738C19.8075 35.9887 20.0965 36.1939 20.392 36.3861Z"  />
<path d="M14.3454 23.2305C14.3036 23.5795 14.2682 23.9349 14.2522 24.2937H0C0.0128659 23.7458 0.0514619 23.1881 0.119008 22.6239C0.196203 21.9749 0.308769 21.3487 0.450294 20.7454L14.3454 23.2305Z"  />
<path d="M17.8033 34.1771L17.8015 34.1787L17.8001 34.1771H17.8033Z"  />
<path d="M17.8015 34.1787C18.0423 34.4423 18.2895 34.6929 18.5463 34.9338L10.7561 44.346C9.93264 43.5404 9.19929 42.7544 8.54956 42.05L17.8015 34.1787Z"  />
<path d="M34.9053 36.3869C35.2012 36.1913 35.4875 35.9891 35.7673 35.7738H35.7705L41.1613 42.2867C40.6016 42.9585 40.0066 43.614 39.3826 44.2467L34.9053 36.3869Z"  />
<path d="M19.5239 14.1176C19.8038 13.9024 20.09 13.7002 20.386 13.5045L15.0338 4.10858C14.1589 4.59452 13.3129 5.10655 12.5056 5.64141L19.5207 14.1176H19.5239Z"  />
<path d="M18.5402 14.955C18.2808 15.1986 18.0341 15.4486 17.797 15.7083L9.02588 8.24648C9.7721 7.61052 10.5826 6.98108 11.4382 6.37122L18.5402 14.955Z"  />
<path d="M33.7909 37.0356C33.479 37.1987 33.1637 37.3519 32.8389 37.4922L36.2451 46.9761C37.0042 46.4119 37.7311 45.8086 38.4259 45.1693L33.7942 37.0356H33.7909Z"  />
<path d="M38.3159 33.1741C38.5282 32.8936 38.7308 32.6001 38.9206 32.3L45.241 36.0017C44.9 36.6931 44.5205 37.3942 44.1024 38.0987L38.3159 33.1741Z"  />
<path d="M40.026 30.2048L40.0244 30.2087L40.0228 30.2081L40.026 30.2048Z"  />
<path d="M40.0244 30.2087L46.6294 32.6443C46.3914 33.3618 46.1148 34.0858 45.7996 34.8164L39.5757 31.1734C39.7359 30.8583 39.8897 30.5368 40.0244 30.2087Z"  />
<path d="M36.7488 34.9338C37.0093 34.6892 37.257 34.438 37.495 34.1771V34.1804L43.4165 39.2191C42.9726 39.904 42.4902 40.5824 41.9787 41.2542L36.7488 34.9338Z"  />
<path d="M40.7291 27.9467L47.5224 29.1626C47.384 29.8931 47.2136 30.64 47.0045 31.3966L40.459 28.9799C40.5651 28.6409 40.6519 28.2954 40.7291 27.9467Z"  />
<path d="M27.0008 38.5282C26.647 38.5119 26.2964 38.4761 25.9522 38.4337L23.7747 50.9572C23.8197 50.9598 23.8647 50.9634 23.9097 50.9671C23.9773 50.9726 24.0448 50.978 24.1124 50.98C25.0966 51.0289 26.0583 50.9865 27.0008 50.8691V38.5282Z"  />
<path d="M40.9507 26.661C40.9925 26.312 41.0279 25.9565 41.044 25.5978H47.9561C47.9143 26.3316 47.8436 27.0915 47.7342 27.8742L40.9507 26.661Z"  />
<path d="M47.9336 21.9877L40.9507 23.2368C40.9957 23.589 41.0279 23.9412 41.044 24.3H47.998C48.0076 23.4879 47.9819 22.7149 47.9336 21.9877Z"  />
<path d="M38.9284 17.5883C38.7354 17.2882 38.536 16.998 38.3237 16.7143V16.711L45.2102 10.8536C45.5897 11.7179 45.9017 12.5593 46.1655 13.3518L38.9284 17.5883Z"  />
<path d="M33.7942 12.8543L39.3265 3.13548C39.0692 2.94632 38.8086 2.76043 38.5352 2.58105C37.9466 2.19948 37.3419 1.86356 36.7244 1.5733L32.8389 12.3977C33.1637 12.5346 33.4822 12.6912 33.7909 12.8543H33.7942Z"  />
<path d="M42.3964 6.11241L35.7705 14.119H35.7673C35.4907 13.9037 35.2012 13.6983 34.9053 13.5058L40.3443 3.95667C41.1099 4.6285 41.7917 5.35578 42.3964 6.11241Z"  />
<path d="M31.6309 37.9384L31.6291 37.939L31.6277 37.9352L31.6309 37.9384Z"  />
<path d="M31.6291 37.939L35.1465 47.7387C34.307 48.2932 33.4322 48.7922 32.5251 49.2226L30.6113 38.2091C30.9549 38.131 31.2952 38.0431 31.6291 37.939Z"  />
<path d="M47.1923 17.0407L40.026 19.6856C39.8877 19.353 39.7365 19.0334 39.5757 18.717L46.5619 14.6273C46.8192 15.5209 47.0154 16.3102 47.1666 16.9363C47.1719 16.9543 47.1762 16.9733 47.1807 16.9927C47.1843 17.0085 47.188 17.0247 47.1923 17.0407Z"  />
<path d="M36.7488 14.964C37.0061 15.2054 37.2538 15.4565 37.495 15.7207L44.6356 9.64481C44.2206 8.82295 43.7382 7.99458 43.1849 7.18903L36.752 14.964H36.7488Z"  />
<path d="M47.4691 18.327C47.5977 19.0086 47.7264 19.7978 47.8229 20.6784H47.8261L40.737 21.947C40.6566 21.5981 40.5697 21.2524 40.4668 20.9132L47.4691 18.327Z"  />
<path d="M30.6113 11.682C30.9555 11.7603 31.2964 11.8483 31.6309 11.956L35.5357 1.07942C34.5772 0.720675 33.5962 0.456507 32.5959 0.280396L30.6145 11.682H30.6113Z"  />
<path d="M28.2915 38.5282C28.6453 38.5119 28.9927 38.4793 29.3401 38.4337L31.3086 49.7537C30.3372 50.1386 29.3272 50.4386 28.2915 50.6506V38.5282Z"  />
</svg>
