<?xml version="1.0" standalone="no"?>
<!DOCTYPE svg PUBLIC "-//W3C//DTD SVG 20010904//EN"
 "http://www.w3.org/TR/2001/REC-SVG-20010904/DTD/svg10.dtd">
<svg version="1.0" xmlns="http://www.w3.org/2000/svg"
 width="1081.000000pt" height="1080.000000pt" viewBox="0 0 1081.000000 1080.000000"
 preserveAspectRatio="xMidYMid meet">

<g transform="translate(0.000000,1080.000000) scale(0.100000,-0.100000)"
fill="#ffffff" stroke="none">
<path d="M5398 9523 l-38 -4 0 -485 0 -484 -45 0 -45 0 2 -432 3 -433 148 -3
147 -3 0 435 0 435 -42 3 -43 3 -3 488 -2 487 -23 -2 c-12 -1 -39 -3 -59 -5z"/>
<path d="M6090 9518 c-1 -2 -40 -226 -89 -498 l-88 -495 -46 2 c-26 1 -47 -2
-47 -5 0 -4 -31 -185 -69 -402 -38 -217 -71 -406 -73 -420 -3 -25 -1 -25 142
-51 130 -23 146 -24 152 -10 6 14 148 813 148 833 0 3 -18 9 -40 13 -32 5 -40
11 -40 28 0 12 38 239 85 504 47 266 85 487 85 493 0 8 -119 16 -120 8z"/>
<path d="M4668 9473 c-16 -2 -28 -7 -28 -10 0 -6 157 -902 166 -944 5 -25 2
-27 -41 -33 -44 -7 -46 -9 -41 -34 4 -15 37 -204 76 -421 38 -216 72 -396 75
-399 5 -5 284 36 293 43 3 2 -115 683 -139 802 l-10 52 -44 -5 c-41 -6 -43 -5
-49 22 -3 16 -40 223 -81 459 -41 237 -78 440 -80 453 -6 23 -25 26 -97 15z"/>
<path d="M6826 9418 c-9 -24 -97 -263 -195 -533 -191 -527 -177 -499 -242
-482 l-26 7 -148 -406 c-81 -223 -146 -406 -144 -408 9 -6 265 -96 274 -96 6
0 76 181 156 403 l147 402 -34 16 c-19 9 -37 19 -40 22 -4 4 82 252 191 552
109 300 197 547 194 549 -2 2 -29 7 -60 10 l-57 7 -16 -43z"/>
<path d="M3998 9288 c-27 -11 -48 -26 -48 -32 0 -6 74 -214 164 -461 l164
-450 -34 -16 c-19 -9 -37 -18 -40 -21 -8 -9 272 -788 290 -805 8 -8 276 90
276 101 0 12 -282 789 -289 798 -4 4 -24 2 -44 -4 -31 -9 -40 -9 -46 1 -5 7
-82 215 -171 462 -90 247 -166 449 -169 448 -3 0 -27 -10 -53 -21z"/>
<path d="M7612 9297 c-5 -7 -154 -265 -332 -574 l-324 -561 -38 19 c-20 10
-39 19 -41 19 -3 0 -36 -55 -75 -122 -38 -68 -135 -236 -215 -375 l-145 -252
130 -76 c72 -41 132 -74 134 -72 1 1 93 160 204 352 111 193 208 360 216 372
13 20 11 23 -21 43 -19 12 -35 26 -35 32 0 6 147 265 326 576 180 310 327 572
328 580 1 20 -99 55 -112 39z"/>
<path d="M7888 8416 l-473 -564 -33 24 c-18 14 -36 24 -41 22 -11 -4 -541
-637 -546 -652 -3 -9 203 -188 223 -193 6 -1 438 509 531 627 l24 31 -31 32
-31 32 474 565 c261 311 475 568 475 572 0 7 -84 68 -93 68 -3 0 -218 -254
-479 -564z"/>
<path d="M3392 8887 l-42 -42 211 -365 c116 -201 213 -370 215 -375 2 -6 -11
-19 -31 -29 -19 -11 -35 -23 -35 -28 0 -6 411 -727 426 -746 6 -8 259 148 256
158 -3 15 -410 722 -422 734 -5 5 -24 -1 -45 -14 -20 -12 -37 -21 -39 -19 -1
2 -101 176 -222 386 -120 210 -221 383 -224 383 -3 0 -25 -19 -48 -43z"/>
<path d="M8370 7935 l-554 -465 -33 32 -33 32 -22 -21 c-13 -11 -161 -136
-330 -277 l-308 -258 23 -28 c90 -114 163 -199 170 -199 9 -1 637 523 651 543
6 8 1 23 -14 43 -12 17 -20 36 -16 41 3 5 249 214 545 462 l539 453 -26 53
c-14 30 -29 54 -32 54 -3 0 -255 -209 -560 -465z"/>
<path d="M2937 8340 l-36 -53 202 -241 c111 -132 209 -249 217 -260 13 -16 11
-21 -20 -46 l-35 -28 21 -24 c12 -13 137 -161 278 -330 142 -170 259 -308 261
-308 7 0 220 183 223 191 2 4 -113 147 -255 316 -142 169 -265 317 -275 328
l-16 20 -31 -22 c-16 -13 -35 -23 -40 -23 -6 0 -103 111 -217 248 -114 136
-215 255 -224 266 -17 18 -19 17 -53 -34z"/>
<path d="M2570 7773 c-17 -26 -30 -49 -30 -52 1 -5 266 -230 385 -326 l25 -21
-25 -34 c-14 -19 -24 -37 -23 -41 6 -13 651 -550 658 -547 18 7 190 220 184
229 -5 9 -600 511 -637 538 -18 13 -22 11 -48 -20 -25 -31 -29 -33 -46 -18
-87 76 -404 339 -408 339 -3 0 -19 -21 -35 -47z"/>
<path d="M8895 7458 c-132 -77 -356 -207 -498 -289 l-257 -148 -23 35 c-13 20
-28 33 -37 31 -28 -8 -724 -415 -728 -426 -2 -6 29 -67 68 -136 l73 -125 41
23 c22 14 187 109 366 212 179 103 329 191 333 195 5 4 1 22 -8 40 -9 17 -15
36 -13 41 2 6 215 133 473 282 l470 272 3 68 c2 50 0 67 -10 66 -7 -1 -121
-64 -253 -141z"/>
<path d="M2226 7224 c-24 -38 -27 -47 -15 -58 8 -7 106 -66 219 -131 113 -64
206 -119 208 -120 2 -2 -6 -21 -17 -43 l-20 -40 370 -213 c204 -118 373 -213
377 -213 8 2 155 254 150 259 -10 10 -725 419 -738 422 -9 2 -23 -10 -35 -32
l-20 -35 -217 125 c-120 69 -221 125 -225 125 -4 0 -21 -21 -37 -46z"/>
<path d="M8755 6659 c-192 -71 -356 -129 -363 -129 -7 0 -19 17 -28 39 l-15
38 -397 -144 c-218 -80 -401 -149 -405 -153 -5 -4 13 -68 40 -141 44 -121 51
-134 72 -131 23 2 472 163 678 243 85 33 112 47 108 59 -16 57 -16 67 2 75 10
4 153 56 318 116 165 60 307 117 316 127 14 14 38 135 27 131 -2 -1 -160 -59
-353 -130z"/>
<path d="M1862 6673 c-22 -34 -28 -50 -19 -54 7 -4 139 -53 293 -109 l281
-102 -13 -43 c-12 -43 -12 -44 14 -53 15 -5 195 -71 399 -146 205 -75 376
-136 381 -136 7 0 105 260 104 276 -1 7 -778 293 -798 294 -6 0 -19 -17 -28
-38 l-18 -39 -270 99 c-148 54 -276 98 -283 98 -7 0 -26 -21 -43 -47z"/>
<path d="M1436 6089 c-21 -28 -35 -54 -30 -58 5 -5 196 -41 424 -81 228 -39
423 -74 433 -77 16 -4 18 -13 15 -49 -2 -24 -3 -44 -3 -44 0 0 191 -34 424
-75 234 -41 425 -74 427 -72 3 4 52 292 50 295 -6 5 -841 150 -848 146 -3 -2
-9 -22 -13 -44 -6 -34 -10 -39 -28 -35 -12 2 -191 34 -397 70 -206 36 -384 67
-395 69 -15 3 -30 -9 -59 -45z"/>
<path d="M8170 6020 c-449 -79 -500 -91 -500 -108 0 -28 43 -267 49 -274 3 -4
195 26 426 67 231 41 421 75 423 75 2 0 0 20 -3 44 l-7 44 54 11 c29 5 121 22
203 37 83 15 151 27 153 29 5 4 23 117 19 121 -2 2 -95 -12 -208 -32 -266 -46
-241 -46 -252 -1 -8 35 -11 37 -45 36 -21 0 -161 -23 -312 -49z"/>
<path d="M2257 5523 c-4 -3 -7 -24 -7 -45 l0 -38 -670 0 -669 0 -36 -52 c-19
-29 -35 -56 -35 -60 0 -5 317 -8 705 -8 l705 0 0 -45 0 -45 435 0 435 0 0 150
0 150 -428 0 c-236 0 -432 -3 -435 -7z"/>
<path d="M7720 5380 l0 -150 435 0 435 0 0 29 c0 62 -4 61 181 61 l169 0 0 29
c0 16 -3 42 -6 60 l-6 31 -167 2 -166 3 -3 43 -3 42 -435 0 -434 0 0 -150z"/>
<path d="M2701 5055 c-227 -41 -416 -77 -419 -80 -4 -3 -5 -23 -3 -45 2 -30
-2 -39 -16 -44 -10 -3 -394 -71 -853 -152 -459 -80 -839 -150 -844 -155 -13
-12 -20 -105 -8 -112 5 -4 391 61 857 143 466 83 858 150 871 150 20 0 25 -6
30 -40 4 -22 9 -40 13 -40 15 0 843 149 846 152 5 5 -48 298 -54 297 -3 0
-192 -34 -420 -74z"/>
<path d="M7715 5118 c-12 -38 -47 -279 -42 -284 5 -6 810 -153 839 -154 4 0
11 19 15 43 10 50 -24 51 303 -7 135 -24 246 -43 248 -41 2 2 -4 31 -14 64
-13 47 -22 62 -38 66 -11 3 -113 21 -226 41 -113 19 -213 38 -223 41 -16 4
-18 11 -12 49 3 24 4 44 1 44 -8 0 -800 139 -824 145 -13 3 -24 0 -27 -7z"/>
<path d="M2791 4584 c-217 -80 -396 -146 -398 -148 -2 -1 3 -21 11 -44 11 -30
12 -42 3 -45 -7 -2 -381 -138 -832 -303 -451 -164 -821 -299 -823 -300 -7 -5
49 -104 59 -104 7 0 372 131 813 291 440 161 809 294 819 297 12 3 21 -6 32
-32 8 -20 21 -36 28 -36 9 0 583 206 793 284 14 6 -85 286 -101 285 -5 0 -188
-66 -404 -145z"/>
<path d="M7636 4722 c-8 -14 -96 -259 -96 -268 0 -5 181 -75 403 -155 l402
-146 20 39 c15 30 24 38 40 34 11 -3 236 -84 500 -180 263 -96 481 -174 483
-172 5 6 -48 129 -61 142 -7 7 -208 83 -447 169 -239 87 -439 161 -443 165 -5
4 -4 25 2 46 6 21 9 39 7 41 -3 4 -795 293 -801 293 -2 0 -6 -4 -9 -8z"/>
<path d="M2973 4142 l-372 -216 20 -39 c11 -21 19 -41 17 -42 -2 -2 -305 -178
-673 -391 -369 -212 -674 -390 -680 -395 -12 -12 65 -91 85 -86 8 2 308 173
667 380 359 208 656 377 662 377 5 0 19 -15 31 -34 l21 -35 252 146 c345 199
470 271 485 282 11 6 -2 36 -58 132 -39 68 -75 127 -78 130 -4 3 -174 -91
-379 -209z"/>
<path d="M7417 4228 l-76 -132 27 -16 c140 -85 711 -410 720 -410 6 0 18 14
27 30 9 17 21 30 27 30 6 0 370 -208 810 -461 439 -254 802 -459 805 -456 12
13 -21 132 -42 152 -11 11 -356 213 -767 450 l-746 430 20 39 c11 21 16 42 11
46 -4 4 -159 94 -343 200 -184 106 -349 201 -366 211 l-31 19 -76 -132z"/>
<path d="M3228 3738 c-180 -150 -327 -277 -327 -282 -1 -4 11 -22 25 -39 21
-24 23 -32 12 -42 -7 -7 -237 -200 -510 -429 -274 -230 -498 -419 -498 -421 0
-7 88 -65 99 -65 8 0 887 730 978 812 l21 20 30 -33 30 -34 44 35 c60 47 512
429 571 482 l48 43 -91 110 c-51 61 -95 111 -99 113 -4 1 -154 -120 -333 -270z"/>
<path d="M7186 3898 c-52 -62 -93 -115 -90 -119 2 -4 142 -123 311 -265 170
-141 316 -264 326 -272 16 -14 20 -13 50 16 l32 31 300 -251 c165 -138 549
-461 854 -716 l553 -465 39 44 c21 24 38 46 38 49 0 3 -382 325 -849 715 -467
391 -849 715 -849 721 -1 6 8 23 20 38 11 14 19 30 17 35 -3 9 -645 551 -653
551 -2 0 -46 -50 -99 -112z"/>
<path d="M3545 3378 l-278 -331 31 -28 c18 -16 32 -31 32 -33 0 -2 -162 -197
-359 -433 l-360 -428 57 -29 c54 -28 56 -28 71 -9 169 205 685 813 691 813 4
0 19 -9 33 -20 14 -11 29 -20 35 -20 11 0 546 636 549 653 2 10 -144 139 -207
184 -16 11 -50 -26 -295 -319z"/>
<path d="M6920 3629 c-52 -44 -103 -88 -113 -98 -18 -17 -9 -29 253 -342 149
-178 276 -325 280 -327 5 -2 22 6 39 19 16 12 34 18 40 14 6 -3 268 -313 583
-688 314 -375 584 -696 600 -713 l29 -31 62 14 c34 8 63 15 64 17 1 1 -279
337 -622 746 l-624 745 31 32 c29 30 30 34 16 50 -8 10 -131 156 -272 326
-142 169 -261 309 -265 311 -4 3 -49 -31 -101 -75z"/>
<path d="M4132 3447 c-16 -20 -422 -728 -422 -735 0 -4 16 -17 35 -30 l36 -23
-25 -42 c-190 -327 -456 -792 -456 -796 0 -4 25 -15 56 -26 48 -16 57 -17 65
-4 5 8 111 191 235 407 125 215 231 392 236 392 5 0 23 -7 40 -16 17 -9 34
-12 38 -7 23 22 429 738 422 744 -4 3 -62 38 -129 77 -89 51 -124 67 -131 59z"/>
<path d="M6572 3383 c-125 -73 -131 -78 -119 -97 8 -12 103 -176 212 -366 109
-190 201 -349 205 -353 4 -5 25 0 46 11 l39 20 362 -626 362 -627 57 -3 c31
-2 63 -1 70 2 9 3 -107 213 -358 648 -204 353 -373 649 -375 658 -2 9 8 22 26
33 17 10 31 23 31 29 0 9 -379 675 -415 730 -10 16 -24 10 -143 -59z"/>
<path d="M4480 3236 c-62 -164 -280 -773 -280 -783 0 -2 18 -12 39 -21 l40
-17 -145 -395 c-79 -217 -147 -403 -150 -412 -4 -14 6 -20 51 -33 31 -9 58
-15 60 -13 3 2 70 183 149 402 80 219 147 401 150 403 2 2 21 0 42 -6 21 -6
41 -7 45 -3 8 9 289 784 289 797 0 8 -251 105 -273 105 -4 0 -12 -11 -17 -24z"/>
<path d="M6203 3212 c-67 -26 -124 -50 -128 -53 -5 -5 278 -795 289 -806 3 -3
21 0 41 7 20 7 40 8 45 4 4 -5 92 -244 196 -531 l189 -523 63 0 c36 0 62 4 62
10 0 6 -88 251 -195 545 -107 295 -195 539 -195 543 0 5 18 17 39 28 l39 19
-147 402 c-105 291 -150 402 -161 402 -8 -1 -70 -22 -137 -47z"/>
<path d="M4866 3103 c-3 -16 -35 -197 -71 -403 -36 -206 -67 -385 -70 -397 -4
-18 1 -22 35 -28 22 -4 42 -10 44 -13 2 -4 -27 -183 -65 -397 -38 -215 -69
-400 -69 -412 0 -19 7 -22 55 -28 31 -4 57 -6 59 -4 2 2 34 177 71 389 36 212
69 396 72 408 5 22 9 23 49 17 40 -6 44 -4 49 17 24 108 143 824 137 829 -7 6
-246 49 -274 49 -10 0 -19 -11 -22 -27z"/>
<path d="M5795 3106 c-106 -20 -120 -25 -118 -42 1 -10 33 -200 72 -420 39
-221 71 -405 71 -408 0 -4 20 -4 45 -1 41 7 45 5 50 -16 3 -13 39 -215 80
-449 42 -234 77 -431 80 -437 3 -9 26 -13 65 -13 57 0 60 1 55 23 -4 20 -153
874 -158 906 -1 10 12 18 37 23 22 5 41 10 43 12 4 3 -133 795 -143 829 -7 22
-26 21 -179 -7z"/>
<path d="M5277 3073 c-4 -3 -7 -199 -7 -435 l0 -428 45 0 45 0 0 -425 0 -425
23 0 c12 0 39 -3 60 -6 l37 -7 0 426 c0 467 -4 437 61 437 l29 0 0 435 0 435
-143 0 c-79 0 -147 -3 -150 -7z"/>
</g>
</svg>
