<?xml version="1.0" standalone="no"?>
<!DOCTYPE svg PUBLIC "-//W3C//DTD SVG 20010904//EN"
 "http://www.w3.org/TR/2001/REC-SVG-20010904/DTD/svg10.dtd">
<svg version="1.0" xmlns="http://www.w3.org/2000/svg"
 width="1081.000000pt" height="1080.000000pt" viewBox="0 0 1081.000000 1080.000000"
 preserveAspectRatio="xMidYMid meet">

<g transform="translate(0.000000,1080.000000) scale(0.100000,-0.100000)"
fill="#000000" stroke="none">
<path d="M5270 8690 l0 -310 40 0 40 0 0 -335 0 -335 65 0 65 0 0 335 0 335
40 0 40 0 0 310 0 310 -145 0 -145 0 0 -310z"/>
<path d="M4860 8964 c-138 -18 -150 -21 -150 -40 0 -9 20 -146 45 -304 25
-158 45 -291 45 -295 0 -4 19 -5 43 -2 l44 6 48 -320 c27 -176 52 -324 55
-329 4 -7 27 -7 61 -3 44 7 55 12 57 29 2 11 -18 152 -43 312 -25 161 -45 301
-45 312 0 15 8 22 30 27 19 3 30 12 30 22 0 32 -88 579 -94 590 -4 6 -10 11
-14 10 -4 -1 -54 -7 -112 -15z"/>
<path d="M5835 8948 c-8 -41 -85 -550 -85 -568 0 -12 10 -21 30 -25 17 -4 30
-10 30 -15 0 -4 -22 -151 -50 -326 -27 -175 -46 -322 -42 -325 10 -10 122 -23
122 -14 0 15 100 649 103 652 2 1 19 -2 37 -7 19 -5 37 -6 41 -2 10 10 103
611 96 618 -7 8 -192 34 -239 34 -31 0 -39 -4 -43 -22z"/>
<path d="M4298 8857 c-64 -18 -120 -35 -123 -39 -6 -5 152 -526 186 -615 8
-23 10 -23 45 -8 21 8 39 13 42 10 3 -3 49 -142 102 -310 54 -168 99 -308 102
-310 2 -3 29 3 59 14 39 13 54 23 52 36 0 9 -43 150 -94 312 -89 282 -92 296
-75 309 10 7 24 15 30 17 16 5 -176 611 -194 614 -8 1 -68 -13 -132 -30z"/>
<path d="M6293 8593 c-50 -159 -94 -296 -98 -306 -6 -13 0 -20 24 -28 17 -6
31 -14 31 -17 0 -3 -43 -139 -95 -303 -52 -164 -95 -304 -95 -313 0 -9 20 -20
56 -31 31 -9 57 -15 59 -13 2 2 47 142 101 311 98 308 98 309 124 302 66 -16
56 -35 163 303 54 173 97 316 94 318 -7 7 -231 64 -253 64 -18 0 -31 -33 -111
-287z"/>
<path d="M3785 8693 c-66 -25 -124 -49 -128 -53 -8 -7 282 -620 304 -644 4 -5
24 1 45 13 20 12 38 21 39 19 2 -2 66 -132 143 -290 77 -159 143 -288 146
-288 3 0 30 11 61 24 l55 25 -145 296 -144 296 24 11 c14 6 25 16 25 21 0 14
-280 589 -294 604 -8 9 -39 1 -131 -34z"/>
<path d="M6760 8424 c-136 -279 -149 -310 -134 -321 9 -7 22 -14 28 -16 6 -2
-50 -128 -133 -295 -80 -160 -143 -293 -140 -296 2 -2 28 -15 56 -30 l53 -26
145 290 c80 159 148 290 151 290 4 0 22 -9 41 -21 l34 -21 158 323 c88 178
157 327 155 331 -5 8 -195 83 -236 93 -26 7 -28 3 -178 -301z"/>
<path d="M3279 8469 c-62 -33 -118 -64 -122 -69 -8 -7 412 -632 432 -644 4 -3
24 6 44 20 l37 24 27 -38 c16 -22 98 -141 183 -265 85 -125 159 -227 163 -227
12 0 97 62 97 71 0 4 -81 126 -181 270 -176 256 -180 264 -160 277 12 8 21 18
21 23 0 9 -408 606 -419 613 -4 3 -59 -22 -122 -55z"/>
<path d="M7217 8223 c-112 -164 -207 -304 -211 -311 -5 -7 1 -20 15 -30 l22
-18 -182 -262 c-99 -143 -181 -265 -181 -269 0 -4 22 -22 49 -40 46 -30 50
-31 64 -15 8 9 87 123 177 252 89 129 168 241 175 249 12 12 19 10 50 -13 20
-16 38 -26 39 -25 20 26 436 637 438 644 2 9 -224 134 -244 135 -4 0 -99 -134
-211 -297z"/>
<path d="M2820 8203 c-122 -78 -150 -98 -150 -104 0 -14 563 -614 579 -617 9
-2 27 9 41 23 13 14 26 25 30 25 4 0 107 -108 229 -240 123 -132 226 -240 229
-240 4 1 27 19 51 40 l43 40 -38 42 c-21 24 -119 130 -218 237 -100 106 -182
199 -184 207 -2 8 4 17 12 20 9 3 16 10 16 15 0 13 -539 593 -553 597 -7 1
-46 -19 -87 -45z"/>
<path d="M7695 8013 c-115 -124 -239 -257 -274 -295 -60 -64 -62 -70 -47 -87
9 -9 16 -21 16 -25 0 -3 -100 -113 -221 -242 l-222 -236 47 -46 46 -47 23 25
c13 14 115 123 226 243 112 119 205 217 208 217 3 0 22 -13 42 -29 l36 -28
284 306 c157 169 286 312 289 319 4 13 -203 152 -227 152 -9 0 -110 -102 -226
-227z"/>
<path d="M2306 7835 c-90 -73 -106 -89 -95 -100 8 -7 171 -139 363 -294 l350
-281 31 30 c17 16 36 30 43 30 7 0 134 -98 283 -217 l271 -217 19 25 c11 13
29 36 40 51 l20 27 -271 217 c-247 198 -269 219 -255 234 8 9 15 19 15 23 0 9
-672 550 -690 554 -8 2 -64 -35 -124 -82z"/>
<path d="M8041 7638 c-347 -279 -351 -283 -332 -302 19 -19 17 -22 -242 -228
-144 -115 -266 -213 -271 -218 -10 -10 53 -99 70 -100 7 0 128 93 270 207 143
113 265 211 272 216 9 7 22 1 47 -23 18 -18 40 -30 47 -27 22 9 713 568 713
577 0 7 -211 180 -220 180 -1 0 -161 -127 -354 -282z"/>
<path d="M1845 7435 c-88 -83 -98 -96 -85 -108 20 -20 850 -507 863 -507 5 0
24 16 41 35 l31 35 334 -195 c183 -108 334 -195 335 -193 2 2 17 26 34 55 l31
52 -82 49 c-45 27 -176 105 -292 172 -311 182 -279 159 -259 181 10 12 14 23
8 28 -24 21 -834 491 -846 491 -7 -1 -58 -43 -113 -95z"/>
<path d="M8440 7285 c-228 -134 -419 -246 -425 -248 -6 -3 -5 -13 3 -27 8 -12
10 -26 5 -30 -4 -5 -145 -88 -313 -185 -168 -98 -309 -181 -313 -185 -10 -8
43 -110 57 -110 5 0 151 83 325 184 174 102 323 188 332 191 11 4 26 -6 47
-30 27 -34 32 -36 53 -24 98 51 859 503 859 509 0 9 -195 193 -208 197 -4 1
-194 -108 -422 -242z"/>
<path d="M1392 6967 c-55 -62 -99 -113 -98 -114 1 -1 236 -97 521 -212 l520
-210 35 40 35 39 400 -160 c220 -88 403 -160 408 -160 9 0 47 85 47 105 0 10
-446 196 -759 316 -23 9 -23 10 -6 29 11 12 15 24 9 29 -7 6 -688 283 -960
390 l-52 20 -100 -112z"/>
<path d="M8811 6869 c-272 -109 -497 -201 -500 -204 -3 -3 1 -15 8 -26 7 -12
11 -22 9 -24 -2 -2 -174 -71 -383 -155 -209 -83 -384 -155 -388 -159 -11 -11
28 -105 44 -109 8 -1 185 66 394 149 209 83 389 154 399 157 14 4 29 -6 52
-33 l32 -38 521 209 c286 115 520 212 518 216 -6 18 -190 218 -200 217 -7 0
-234 -90 -506 -200z"/>
<path d="M942 6419 c-46 -60 -85 -116 -88 -122 -3 -8 182 -56 598 -155 l603
-143 20 24 c11 13 25 32 31 43 10 17 38 12 509 -99 274 -65 501 -114 505 -110
13 14 31 106 23 114 -4 4 -204 53 -443 109 -574 134 -515 116 -496 145 9 13
12 26 8 29 -12 7 -1153 276 -1172 276 -8 0 -53 -50 -98 -111z"/>
<path d="M9180 6393 c-316 -75 -577 -137 -579 -139 -2 -2 2 -15 9 -29 7 -14
11 -26 9 -28 -2 -2 -215 -52 -474 -112 -258 -59 -473 -111 -477 -114 -9 -8 16
-114 28 -118 6 -2 233 48 505 112 550 129 491 123 539 54 l15 -21 605 142
c332 77 606 142 607 144 2 1 -38 57 -88 124 -55 74 -98 122 -108 121 -9 0
-275 -62 -591 -136z"/>
<path d="M482 5750 c-45 -74 -80 -136 -77 -138 3 -3 1327 -111 1372 -112 7 0
22 18 33 39 11 22 23 42 27 44 7 4 965 -68 1174 -88 l66 -7 7 63 c3 34 4 64 2
66 -2 2 -266 24 -587 49 -321 25 -586 48 -588 50 -2 2 1 15 7 29 9 20 9 27 -1
30 -6 2 -284 24 -617 50 -333 26 -635 49 -671 52 l-66 6 -81 -133z"/>
<path d="M9540 5829 c-349 -28 -641 -52 -648 -54 -10 -4 -9 -11 3 -35 15 -28
14 -30 -4 -30 -10 0 -102 -7 -203 -15 -100 -8 -338 -26 -528 -40 -190 -14
-364 -28 -388 -31 l-43 -5 3 -62 3 -62 55 3 c30 1 294 20 585 42 292 22 546
41 565 42 31 3 37 -1 59 -41 l24 -43 51 5 c28 3 337 27 686 53 349 26 639 51
644 55 5 4 -27 65 -71 136 -79 127 -80 128 -119 130 -21 1 -325 -21 -674 -48z"/>
<path d="M2910 5239 c-598 -48 -1042 -79 -1051 -74 -5 4 -15 18 -20 32 -9 24
-12 25 -67 20 -31 -4 -336 -27 -677 -53 -341 -25 -628 -49 -637 -52 -14 -6 -3
-27 64 -132 44 -69 83 -128 87 -133 6 -6 1350 91 1359 98 2 2 -6 21 -17 44
l-21 40 33 5 c17 3 275 24 571 46 297 22 543 43 548 48 5 5 6 34 2 65 -8 66
11 61 -174 46z"/>
<path d="M7728 5190 c-2 -36 1 -64 7 -66 10 -3 869 -70 1038 -81 54 -3 100
-10 102 -14 3 -4 -4 -24 -16 -43 -11 -20 -19 -36 -17 -36 1 -1 307 -25 678
-55 518 -41 678 -51 687 -42 26 26 162 252 155 258 -4 4 -315 30 -691 60 -508
39 -686 50 -689 41 -2 -6 -11 -21 -20 -32 l-17 -21 -515 41 c-283 22 -556 43
-607 47 l-91 6 -4 -63z"/>
<path d="M7686 4888 c-15 -50 -24 -104 -18 -110 4 -4 213 -56 465 -115 251
-59 457 -111 457 -116 0 -5 -9 -22 -20 -37 l-21 -29 38 -10 c56 -15 1137 -271
1144 -271 9 0 192 241 187 246 -3 2 -274 67 -603 145 l-599 141 -25 -31 -26
-31 -465 110 c-256 60 -475 112 -488 115 -14 3 -24 1 -26 -7z"/>
<path d="M2616 4777 l-469 -111 -21 27 c-12 15 -26 27 -31 28 -25 1 -1195
-277 -1195 -284 0 -5 39 -60 87 -123 61 -79 94 -114 108 -114 26 1 1154 266
1162 273 3 3 -4 22 -16 41 l-22 35 38 10 c21 5 227 54 458 107 231 53 424 100
428 104 5 5 3 33 -4 64 -10 47 -16 56 -33 55 -12 -1 -232 -51 -490 -112z"/>
<path d="M7575 4524 c-35 -84 -66 -63 345 -229 205 -82 374 -153 376 -157 3
-5 -4 -20 -16 -35 -16 -20 -18 -28 -8 -33 7 -4 235 -96 507 -206 l494 -198 74
79 c83 90 128 144 122 149 -2 2 -236 96 -519 210 l-514 208 -26 -32 -26 -32
-379 152 c-209 84 -388 155 -397 157 -12 4 -21 -6 -33 -33z"/>
<path d="M2835 4404 c-198 -79 -371 -147 -384 -151 -18 -4 -28 1 -45 22 l-23
28 -516 -208 c-284 -114 -517 -211 -517 -214 0 -4 43 -55 96 -114 75 -83 101
-106 116 -101 80 25 988 399 988 406 0 5 -9 22 -20 36 l-21 26 373 149 c205
82 376 152 379 155 12 13 -33 112 -50 112 -9 -1 -178 -66 -376 -146z"/>
<path d="M7424 4208 c-15 -23 -27 -49 -28 -57 -1 -9 114 -82 306 -195 l307
-181 -19 -20 c-11 -12 -20 -26 -20 -32 0 -5 189 -122 421 -258 l420 -247 32
28 c67 60 177 169 177 175 0 8 -837 502 -858 507 -8 2 -27 -8 -42 -23 l-28
-27 -317 186 c-175 102 -319 186 -321 186 -2 0 -16 -19 -30 -42z"/>
<path d="M3069 4072 c-157 -92 -298 -175 -313 -185 -28 -19 -28 -19 -56 8 -17
16 -35 25 -44 22 -36 -14 -856 -500 -856 -507 0 -5 47 -52 105 -105 l106 -96
32 19 c18 11 203 120 412 242 209 123 386 227 393 233 10 8 7 16 -13 37 l-27
28 94 55 c51 30 188 109 303 177 116 67 214 125 218 130 9 8 -49 110 -61 109
-4 0 -135 -75 -293 -167z"/>
<path d="M7223 3916 c-18 -24 -33 -46 -33 -49 0 -4 113 -97 250 -207 138 -110
250 -203 250 -207 0 -4 -9 -17 -21 -29 l-20 -22 153 -124 c355 -288 542 -438
548 -438 3 0 56 40 118 89 l112 88 -352 284 c-193 156 -358 288 -366 293 -10
6 -22 0 -39 -18 -13 -14 -27 -26 -31 -26 -4 0 -122 92 -262 205 -140 112 -259
204 -265 204 -5 0 -25 -19 -42 -43z"/>
<path d="M3287 3744 l-258 -206 -29 27 -29 28 -358 -288 c-197 -158 -359 -290
-361 -294 -2 -7 179 -153 215 -174 6 -4 153 107 350 264 186 149 342 275 347
280 6 5 1 18 -12 32 -12 13 -22 26 -22 30 0 4 113 97 250 207 138 110 250 204
250 208 0 11 -70 92 -78 92 -4 0 -123 -93 -265 -206z"/>
<path d="M6990 3665 l-43 -44 105 -113 c58 -62 153 -165 212 -228 l106 -115
-26 -23 -27 -23 35 -37 c19 -20 144 -155 277 -299 134 -145 245 -263 247 -263
3 0 59 34 125 76 l120 76 -53 57 c-30 31 -161 172 -292 313 l-238 258 -30 -25
c-16 -14 -33 -25 -36 -24 -4 0 -101 103 -217 229 -115 125 -212 229 -215 229
-3 1 -26 -19 -50 -44z"/>
<path d="M3649 3557 c-73 -78 -170 -182 -217 -231 l-83 -88 -23 21 c-12 11
-27 21 -34 21 -8 0 -335 -346 -559 -591 l-24 -26 111 -72 c62 -40 117 -74 123
-77 11 -4 547 563 556 588 2 7 -8 21 -22 32 l-26 21 135 145 c74 80 170 184
214 231 l79 85 -49 42 -48 41 -133 -142z"/>
<path d="M6728 3456 c-26 -17 -48 -35 -47 -41 0 -5 76 -120 169 -255 l170
-245 -25 -20 c-14 -12 -25 -24 -25 -27 0 -13 412 -608 421 -608 13 0 249 119
249 126 0 5 -368 545 -417 612 l-24 32 -29 -20 c-15 -11 -32 -20 -37 -20 -4 0
-84 110 -176 245 -93 134 -171 246 -175 249 -4 2 -28 -11 -54 -28z"/>
<path d="M3870 3230 c-94 -138 -175 -250 -179 -250 -4 0 -16 7 -27 15 -10 8
-24 15 -31 15 -10 0 -443 -619 -443 -634 0 -9 240 -128 251 -124 10 4 419 595
419 607 0 5 -12 16 -26 26 -14 9 -24 22 -21 28 2 7 79 120 171 252 l167 240
-26 20 c-13 11 -38 28 -53 38 l-29 17 -173 -250z"/>
<path d="M6433 3282 c-29 -14 -53 -29 -53 -32 0 -4 59 -128 131 -275 111 -228
129 -271 116 -279 -8 -6 -22 -15 -30 -21 -12 -8 10 -60 134 -314 82 -168 151
-307 153 -308 5 -6 255 88 261 97 3 4 -66 152 -152 328 l-156 321 -38 -19 -38
-20 -135 275 c-74 151 -136 275 -138 274 -2 0 -27 -12 -55 -27z"/>
<path d="M4202 3030 c-73 -148 -137 -270 -142 -270 -6 0 -23 6 -39 14 l-27 14
-155 -315 c-84 -174 -155 -319 -157 -323 -3 -9 193 -88 240 -97 28 -6 29 -3
172 289 80 161 146 300 148 308 2 7 -9 20 -24 27 -16 8 -28 18 -28 22 0 5 59
129 130 276 72 147 130 269 130 270 0 3 -109 55 -115 55 -1 0 -61 -121 -133
-270z"/>
<path d="M6108 3152 c-27 -8 -48 -21 -48 -28 0 -9 161 -528 177 -571 3 -7 -9
-16 -29 -21 -18 -5 -32 -13 -32 -18 5 -25 187 -600 193 -605 6 -7 257 54 268
64 3 3 -39 147 -94 319 -72 228 -103 313 -113 312 -8 -1 -27 -5 -42 -9 l-27
-7 -60 189 c-32 103 -74 234 -92 291 -17 56 -37 102 -43 101 -6 0 -32 -8 -58
-17z"/>
<path d="M4590 2968 c-131 -413 -123 -390 -145 -383 -56 18 -50 29 -155 -300
-54 -170 -97 -312 -94 -316 5 -8 263 -73 269 -68 4 5 195 604 195 613 0 2 -13
7 -30 11 -16 4 -32 10 -34 14 -3 4 36 135 85 290 50 155 89 287 87 293 -4 10
-79 38 -105 38 -7 0 -38 -84 -73 -192z"/>
<path d="M4990 3075 c0 -13 -91 -590 -95 -602 -2 -8 -15 -9 -39 -3 -32 7 -37
5 -41 -14 -13 -55 -94 -600 -90 -604 11 -11 266 -35 274 -26 5 5 27 133 51
284 23 151 44 285 47 297 4 18 -1 23 -31 28 -29 6 -36 12 -36 31 0 13 20 150
45 306 47 297 47 298 -1 298 -12 0 -36 3 -53 6 -17 4 -31 3 -31 -1z"/>
<path d="M5760 3073 c-19 -3 -38 -7 -42 -11 -4 -4 13 -133 37 -287 58 -366 55
-329 22 -333 -16 -2 -30 -9 -33 -17 -5 -13 82 -594 91 -603 5 -5 267 26 274
34 4 3 -67 492 -86 597 -5 26 -8 28 -47 22 l-42 -7 -38 249 c-21 136 -43 274
-48 306 -11 62 -6 59 -88 50z"/>
<path d="M5350 2730 l0 -310 -34 0 c-23 0 -36 -6 -40 -17 -4 -9 -4 -149 0
-310 l7 -293 139 0 138 0 0 310 0 310 -40 0 -40 0 0 310 0 310 -65 0 -65 0 0
-310z"/>
</g>
</svg>
